<svg width="1310" height="1455" viewBox="0 0 1310 1455" fill="none" xmlns="http://www.w3.org/2000/svg">
<circle cx="654.577" cy="654.577" r="647.841" fill="#D9D9D9" stroke="black" stroke-width="13.4722"/>
<rect x="6.73611" y="1173.62" width="1269.76" height="274.646" rx="51.1944" fill="#D9D9D9" stroke="black" stroke-width="13.4722"/>
<path d="M641.472 215.635C928.564 215.635 1170.95 402.193 1170.95 642.961C1170.95 883.73 928.564 1070.29 641.472 1070.29C354.38 1070.29 111.997 883.73 111.997 642.961C111.997 402.193 354.38 215.635 641.472 215.635Z" fill="black" stroke="#868686" stroke-width="47.9191"/>
<path d="M869.002 599.391C869.002 726.398 774.313 895.481 649.567 895.481C523.173 909.525 412.578 729.324 412.578 602.317C412.578 475.309 516.045 394 640.79 394C765.535 394 869.002 472.383 869.002 599.391Z" fill="#848484"/>
<path d="M578.17 766.746C578.17 811.991 547.754 852.765 504.449 852.765C461.143 852.765 419.016 810.235 419.016 764.991C425.452 724.615 421.356 654.981 457.051 628.649C500.356 628.649 578.17 721.502 578.17 766.746Z" fill="#848484"/>
<path d="M710.424 766.746C710.424 811.991 740.84 852.765 784.145 852.765C827.45 852.765 869.578 810.235 869.578 764.991C863.141 724.615 867.237 654.981 831.543 628.649C788.237 628.649 710.424 721.502 710.424 766.746Z" fill="#848484"/>
<path d="M538.388 896.066C534.876 836.965 577.429 772.598 577.429 854.52H718.196C718.196 775.524 757.237 873.121 757.237 896.066C757.237 919.012 739.758 946.975 718.196 946.975H647.812H577.429C555.867 946.975 538.388 919.012 538.388 896.066Z" fill="#848484"/>
<path d="M610.362 748.606C610.362 780.924 563.683 799.515 531.366 799.515C499.048 799.515 472.85 773.317 472.85 740.999C472.85 708.682 499.048 682.483 531.366 682.483C563.683 682.483 610.362 716.289 610.362 748.606Z" fill="white"/>
<path d="M677.656 748.606C677.656 780.924 724.335 799.515 756.652 799.515C788.97 799.515 815.168 773.317 815.168 740.999C815.168 708.682 788.97 682.483 756.652 682.483C724.335 682.483 677.656 716.289 677.656 748.606Z" fill="white"/>
<path d="M632.737 772.598C637.241 764.796 648.502 764.796 653.007 772.598L683.413 825.262C687.917 833.064 671.778 851.594 662.769 851.594L643.457 833.454L618.297 851.594C609.288 851.594 597.826 833.064 602.331 825.262L632.737 772.598Z" fill="white"/>
<path d="M641.078 431L678.486 532.092L779.578 569.5L678.486 606.908L641.078 708L603.671 606.908L502.578 569.5L603.671 532.092L641.078 431Z" fill="black"/>
</svg>
