<svg width="430" height="428" viewBox="0 0 430 428" fill="none" xmlns="http://www.w3.org/2000/svg">
<rect x="173.764" y="433.192" width="244" height="365" rx="25" transform="rotate(-134.283 173.764 433.192)" fill="#898989" stroke="#FAFAFA" stroke-width="10"/>
<path d="M362.969 152.282L368.059 147.317L391.378 171.227L386.288 176.192L362.969 152.282ZM348.794 166.106L358.222 156.911L381.541 180.821L372.113 190.016C368.361 193.676 364.242 195.548 359.756 195.633C355.245 195.742 351.242 194.004 347.746 190.42C344.25 186.835 342.601 182.801 342.798 178.318C343.019 173.859 345.018 169.788 348.794 166.106ZM353.164 170.587C350.87 172.824 349.753 175.313 349.813 178.052C349.849 180.814 350.893 183.247 352.944 185.35C355.088 187.549 357.494 188.7 360.16 188.804C362.849 188.932 365.377 187.843 367.743 185.535L372.081 181.305L357.502 166.356L353.164 170.587ZM331.751 195.877L340.355 187.486L344.13 191.358L335.527 199.748L331.751 195.877ZM309.746 203.349C313.378 199.807 317.532 197.994 322.207 197.911C326.882 197.875 330.991 199.673 334.533 203.306C338.076 206.938 339.759 211.079 339.583 215.727C339.406 220.422 337.502 224.542 333.869 228.084C329.4 232.443 324.167 233.747 318.169 231.995L320.445 225.579C321.949 226.07 323.53 226.137 325.187 225.78C326.843 225.471 328.269 224.733 329.464 223.568C331.639 221.447 332.709 218.958 332.673 216.101C332.638 213.244 331.514 210.68 329.3 208.41C327.085 206.14 324.551 204.951 321.696 204.845C318.84 204.738 316.326 205.745 314.151 207.866C312.956 209.032 312.171 210.426 311.797 212.051C311.398 213.698 311.437 215.292 311.914 216.832L305.478 218.983C303.926 212.849 305.348 207.638 309.746 203.349ZM275.081 237.996L280.889 232.332L286.309 234.95L296.562 224.951L294.117 219.431L299.924 213.768L313.995 246.698L307.614 252.921L275.081 237.996ZM292.077 238.067L305.84 244.719L299.534 230.795L292.077 238.067ZM253.516 259.029L259.359 253.33L272.341 257.246L276.069 253.61L267.783 245.114L272.873 240.149L296.193 264.06L285.008 274.968C282.547 277.369 279.9 278.551 277.067 278.516C274.211 278.504 271.676 277.362 269.462 275.092C267.55 273.132 266.514 271.042 266.353 268.821C266.168 266.623 266.642 264.646 267.773 262.89L253.516 259.029ZM275.098 263.3C274.046 264.326 273.466 265.452 273.356 266.678C273.269 267.928 273.704 269.043 274.66 270.023C275.615 271.002 276.707 271.453 277.936 271.374C279.188 271.319 280.339 270.778 281.391 269.753L286.732 264.543L280.439 258.091L275.098 263.3ZM240.41 271.81L249.838 262.615L273.158 286.525L263.73 295.72C259.978 299.38 255.859 301.252 251.372 301.337C246.862 301.446 242.859 299.708 239.363 296.123C235.866 292.539 234.217 288.505 234.415 284.022C234.636 279.563 236.635 275.492 240.41 271.81ZM244.781 276.291C242.486 278.528 241.369 281.017 241.43 283.756C241.466 286.518 242.509 288.951 244.56 291.054C246.705 293.253 249.11 294.404 251.776 294.508C254.466 294.636 256.994 293.547 259.36 291.239L263.697 287.009L249.118 272.06L244.781 276.291Z" fill="black"/>
<path d="M264.299 36.1927L298.128 70.879L296.364 72.5991L262.535 37.9128L264.299 36.1927ZM260.772 39.6329L294.6 74.3192L289.309 79.4795L255.481 44.7932L260.772 39.6329ZM253.717 46.5133L287.546 81.1996L282.254 86.3599L248.426 51.6736L253.717 46.5133ZM246.662 53.3937L280.491 88.08L278.727 89.8001L244.898 55.1138L246.662 53.3937ZM239.607 60.2742L273.436 94.9605L271.672 96.6806L237.843 61.9943L239.607 60.2742ZM236.052 63.7413L269.881 98.4275L264.59 103.588L230.761 68.9016L236.052 63.7413ZM228.997 70.6217L262.826 105.308L261.062 107.028L227.234 72.3418L228.997 70.6217ZM225.47 74.0619L259.299 108.748L254.008 113.909L220.179 79.2222L225.47 74.0619ZM214.888 84.3825L248.716 119.069L246.953 120.789L213.124 86.1026L214.888 84.3825ZM211.36 87.8228L245.189 122.509L243.425 124.229L209.597 89.5429L211.36 87.8228ZM207.805 91.2898L241.634 125.976L239.87 127.696L206.042 93.0099L207.805 91.2898ZM204.278 94.7301L238.107 129.416L236.343 131.136L202.514 96.4502L204.278 94.7301ZM200.75 98.1703L234.579 132.857L229.288 138.017L195.459 103.331L200.75 98.1703ZM193.696 105.051L227.524 139.737L225.761 141.457L191.932 106.771L193.696 105.051ZM186.641 111.931L220.47 146.617L215.178 151.778L181.35 117.091L186.641 111.931ZM179.558 118.838L213.387 153.525L211.623 155.245L177.795 120.559L179.558 118.838ZM176.031 122.279L209.86 156.965L204.569 162.125L170.74 127.439L176.031 122.279ZM168.976 129.159L202.805 163.845L201.041 165.565L167.212 130.879L168.976 129.159ZM161.921 136.039L195.75 170.726L190.459 175.886L156.63 141.2L161.921 136.039ZM154.866 142.92L188.695 177.606L186.932 179.326L153.103 144.64L154.866 142.92ZM151.311 146.387L185.14 181.073L183.377 182.793L149.548 148.107L151.311 146.387ZM147.784 149.827L181.613 184.514L176.322 189.674L142.493 154.988L147.784 149.827ZM140.729 156.708L174.558 191.394L172.794 193.114L138.966 158.428L140.729 156.708ZM137.202 160.148L171.031 194.834L165.739 199.994L131.911 165.308L137.202 160.148ZM126.62 170.469L160.448 205.155L158.685 206.875L124.856 172.189L126.62 170.469ZM123.065 173.936L156.893 208.622L155.13 210.342L121.301 175.656L123.065 173.936ZM119.537 177.376L153.366 212.062L148.075 217.222L114.246 182.536L119.537 177.376ZM108.955 187.696L142.784 222.383L137.493 227.543L103.664 192.857L108.955 187.696ZM101.9 194.577L135.729 229.263L133.965 230.983L100.136 196.297L101.9 194.577ZM98.3726 198.017L132.201 232.703L130.438 234.423L96.6089 199.737L98.3726 198.017ZM94.8177 201.484L128.646 236.17L126.883 237.891L93.054 203.204L94.8177 201.484ZM91.2902 204.924L125.119 239.611L123.355 241.331L89.5265 206.644L91.2902 204.924ZM84.2354 211.805L118.064 246.491L116.3 248.211L82.4717 213.525L84.2354 211.805ZM80.708 215.245L114.537 249.931L109.246 255.092L75.4169 220.405L80.708 215.245ZM73.6532 222.125L107.482 256.812L102.191 261.972L68.362 227.286L73.6532 222.125Z" fill="black"/>
</svg>
