<svg width="375" height="259" viewBox="0 0 375 259" fill="none" xmlns="http://www.w3.org/2000/svg">
<rect x="370" y="5" width="244" height="365" rx="25" transform="rotate(90 370 5)" fill="#898989" stroke="#FAFAFA" stroke-width="10"/>
<path d="M38.4153 74H31.3049V40.6009H38.4153V74ZM58.2151 74H45.0458V40.6009H58.2151C63.4562 40.6009 67.7124 42.1365 70.9839 45.2077C74.2888 48.2788 75.9412 52.3181 75.9412 57.3255C75.9412 62.3328 74.3055 66.3721 71.034 69.4433C67.7625 72.4811 63.4896 74 58.2151 74ZM58.2151 67.7408C61.4198 67.7408 63.9569 66.7393 65.8263 64.7364C67.7291 62.7334 68.6805 60.2631 68.6805 57.3255C68.6805 54.2543 67.7625 51.7506 65.9265 49.8144C64.0904 47.8449 61.52 46.8601 58.2151 46.8601H52.1562V67.7408H58.2151ZM91.2023 64.5862H79.1846V59.1782H91.2023V64.5862ZM112.173 74.6009C107.099 74.6009 102.86 72.9985 99.4547 69.7938C96.0831 66.5557 94.3973 62.3996 94.3973 57.3255C94.3973 52.2514 96.0831 48.1119 99.4547 44.9072C102.86 41.6691 107.099 40.0501 112.173 40.0501C118.416 40.0501 123.073 42.7707 126.144 48.2121L120.035 51.2165C119.301 49.8144 118.216 48.6627 116.78 47.7614C115.378 46.8267 113.843 46.3594 112.173 46.3594C109.136 46.3594 106.632 47.3942 104.662 49.4639C102.693 51.5336 101.708 54.1541 101.708 57.3255C101.708 60.4968 102.693 63.1173 104.662 65.187C106.632 67.2567 109.136 68.2916 112.173 68.2916C113.843 68.2916 115.378 67.8409 116.78 66.9396C118.216 66.0383 119.301 64.8699 120.035 63.4345L126.144 66.3888C122.973 71.8635 118.316 74.6009 112.173 74.6009ZM161.18 74H153.068L151.015 68.3417H136.694L134.591 74H126.479L139.398 40.6009H148.311L161.18 74ZM149.062 62.0825L143.854 47.7113L138.647 62.0825H149.062ZM191.304 74H183.142L176.582 62.1325H171.375V74H164.264V40.6009H179.887C183.325 40.6009 186.046 41.6024 188.049 43.6053C190.085 45.6082 191.104 48.1954 191.104 51.3667C191.104 54.1041 190.386 56.324 188.95 58.0265C187.548 59.729 185.829 60.8139 183.793 61.2813L191.304 74ZM178.835 55.8733C180.304 55.8733 181.506 55.4728 182.441 54.6716C183.375 53.837 183.843 52.7354 183.843 51.3667C183.843 49.998 183.375 48.9131 182.441 48.1119C181.506 47.2774 180.304 46.8601 178.835 46.8601H171.375V55.8733H178.835ZM209.61 74H196.44V40.6009H209.61C214.851 40.6009 219.107 42.1365 222.378 45.2077C225.683 48.2788 227.336 52.3181 227.336 57.3255C227.336 62.3328 225.7 66.3721 222.429 69.4433C219.157 72.4811 214.884 74 209.61 74ZM209.61 67.7408C212.814 67.7408 215.351 66.7393 217.221 64.7364C219.124 62.7334 220.075 60.2631 220.075 57.3255C220.075 54.2543 219.157 51.7506 217.321 49.8144C215.485 47.8449 212.915 46.8601 209.61 46.8601H203.551V67.7408H209.61Z" fill="black"/>
<path d="M28 226V177.549H30.4636V226H28ZM32.9272 226V177.549H40.3181V226H32.9272ZM42.7817 226V177.549H50.1726V226H42.7817ZM52.6362 226V177.549H55.0999V226H52.6362ZM62.4907 226V177.549H64.9543V226H62.4907ZM67.4565 226V177.549H74.8473V226H67.4565ZM77.311 226V177.549H79.7746V226H77.311ZM82.2382 226V177.549H89.6291V226H82.2382ZM97.0199 226V177.549H99.4836V226H97.0199ZM101.947 226V177.549H104.411V226H101.947ZM106.913 226V177.549H109.377V226H106.913ZM111.84 226V177.549H114.304V226H111.84ZM116.767 226V177.549H124.158V226H116.767ZM126.622 226V177.549H129.086V226H126.622ZM136.476 226V177.549H143.867V226H136.476ZM146.369 226V177.549H148.833V226H146.369ZM151.297 226V177.549H158.687V226H151.297ZM161.151 226V177.549H163.615V226H161.151ZM171.006 226V177.549H178.396V226H171.006ZM180.86 226V177.549H183.324V226H180.86ZM185.826 226V177.549H188.289V226H185.826ZM190.753 226V177.549H198.144V226H190.753ZM200.608 226V177.549H203.071V226H200.608ZM205.535 226V177.549H212.926V226H205.535ZM220.317 226V177.549H222.78V226H220.317ZM225.282 226V177.549H227.746V226H225.282ZM230.21 226V177.549H237.6V226H230.21ZM244.991 226V177.549H252.382V226H244.991ZM254.846 226V177.549H257.309V226H254.846ZM259.773 226V177.549H262.237V226H259.773ZM264.739 226V177.549H267.202V226H264.739ZM269.666 226V177.549H272.13V226H269.666ZM279.52 226V177.549H281.984V226H279.52ZM284.448 226V177.549H291.839V226H284.448ZM294.302 226V177.549H301.693V226H294.302Z" fill="black"/>
</svg>
