<svg width="428" height="372" viewBox="0 0 428 372" fill="none" xmlns="http://www.w3.org/2000/svg">
<rect x="325.774" y="-3.0631" width="244" height="365" rx="25" transform="rotate(64.3819 325.774 -3.0631)" fill="#898989" stroke="#FAFAFA" stroke-width="10"/>
<path d="M307.127 25.8402C312.262 23.3782 318.42 25.5446 320.882 30.6788L356.933 105.863C359.395 110.997 357.228 117.155 352.094 119.617L239.039 173.827C233.905 176.289 227.747 174.123 225.285 168.989L189.234 93.8049C186.772 88.6707 188.938 82.5128 194.073 80.0509L307.127 25.8402Z" fill="white"/>
<circle cx="267.229" cy="88.7787" r="19.5" transform="rotate(-25.6181 267.229 88.7787)" fill="#898989"/>
<path d="M322.444 117.199C307.617 124.309 307.507 124.361 289.082 133.196C270.656 142.032 270.547 142.084 255.719 149.194C247.361 131.764 255.523 110.472 273.949 101.637C292.374 92.8018 314.087 99.769 322.444 117.199Z" fill="#898989"/>
<rect x="351.176" y="137.801" width="75" height="306" rx="10.8547" transform="rotate(64.3819 351.176 137.801)" fill="white"/>
<rect x="80.502" y="142.273" width="19" height="61" rx="2.80235" transform="rotate(64.3819 80.502 142.273)" fill="white"/>
<rect x="174.277" y="97.306" width="19" height="93" rx="2.80235" transform="rotate(64.3819 174.277 97.306)" fill="white"/>
<path d="M88.826 250.942L77.9897 256.138L75.6515 251.262L86.4878 246.066L88.826 250.942ZM102.363 244.452L91.5263 249.648L89.188 244.771L100.024 239.575L102.363 244.452ZM115.899 237.961L105.063 243.157L102.725 238.28L113.561 233.084L115.899 237.961ZM129.436 231.47L118.599 236.666L116.261 231.79L127.097 226.593L129.436 231.47ZM142.972 224.979L132.136 230.175L129.798 225.299L140.634 220.103L142.972 224.979Z" fill="black"/>
<path d="M50.3436 170.691L39.5073 175.888L37.1691 171.011L48.0053 165.815L50.3436 170.691ZM63.8801 164.201L53.0438 169.397L50.7056 164.52L61.5419 159.324L63.8801 164.201ZM77.4167 157.71L66.5804 162.906L64.2421 158.029L75.0784 152.833L77.4167 157.71Z" fill="black"/>
<path d="M116.168 139.128L105.332 144.324L102.993 139.448L113.83 134.252L116.168 139.128ZM129.704 132.638L118.868 137.834L116.53 132.957L127.366 127.761L129.704 132.638ZM143.241 126.147L132.405 131.343L130.066 126.466L140.903 121.27L143.241 126.147ZM156.777 119.656L145.941 124.852L143.603 119.976L154.439 114.779L156.777 119.656ZM170.314 113.165L159.478 118.361L157.139 113.485L167.976 108.289L170.314 113.165Z" fill="black"/>
<path d="M105.367 278.5L94.5307 283.696L92.1925 278.819L103.029 273.623L105.367 278.5ZM118.904 272.009L108.067 277.205L105.729 272.328L116.565 267.132L118.904 272.009ZM132.44 265.518L121.604 270.714L119.266 265.838L130.102 260.641L132.44 265.518ZM145.977 259.027L135.14 264.223L132.802 259.347L143.638 254.151L145.977 259.027ZM159.513 252.536L148.677 257.732L146.339 252.856L157.175 247.66L159.513 252.536ZM173.05 246.045L162.213 251.241L159.875 246.365L170.711 241.169L173.05 246.045ZM186.586 239.554L175.75 244.75L173.412 239.874L184.248 234.678L186.586 239.554ZM200.123 233.063L189.287 238.259L186.948 233.383L197.785 228.187L200.123 233.063ZM213.659 226.573L202.823 231.769L200.485 226.892L211.321 221.696L213.659 226.573ZM227.196 220.082L216.36 225.278L214.021 220.401L224.858 215.205L227.196 220.082ZM240.732 213.591L229.896 218.787L227.558 213.911L238.394 208.714L240.732 213.591ZM254.269 207.1L243.433 212.296L241.094 207.42L251.931 202.224L254.269 207.1ZM267.806 200.609L256.969 205.805L254.631 200.929L265.467 195.733L267.806 200.609ZM281.342 194.118L270.506 199.314L268.168 194.438L279.004 189.242L281.342 194.118ZM294.879 187.627L284.042 192.823L281.704 187.947L292.54 182.751L294.879 187.627ZM308.415 181.136L297.579 186.332L295.241 181.456L306.077 176.26L308.415 181.136ZM321.952 174.645L311.115 179.842L308.777 174.965L319.613 169.769L321.952 174.645Z" fill="black"/>
<path d="M114.014 296.533L103.177 301.73L100.839 296.853L111.675 291.657L114.014 296.533ZM127.55 290.043L116.714 295.239L114.376 290.362L125.212 285.166L127.55 290.043ZM141.087 283.552L130.25 288.748L127.912 283.871L138.748 278.675L141.087 283.552ZM154.623 277.061L143.787 282.257L141.449 277.381L152.285 272.185L154.623 277.061ZM168.16 270.57L157.323 275.766L154.985 270.89L165.821 265.694L168.16 270.57ZM181.696 264.079L170.86 269.275L168.522 264.399L179.358 259.203L181.696 264.079ZM195.233 257.588L184.396 262.784L182.058 257.908L192.895 252.712L195.233 257.588ZM208.769 251.097L197.933 256.293L195.595 251.417L206.431 246.221L208.769 251.097ZM222.306 244.606L211.47 249.803L209.131 244.926L219.968 239.73L222.306 244.606ZM235.842 238.116L225.006 243.312L222.668 238.435L233.504 233.239L235.842 238.116ZM249.379 231.625L238.543 236.821L236.204 231.944L247.041 226.748L249.379 231.625ZM262.915 225.134L252.079 230.33L249.741 225.454L260.577 220.257L262.915 225.134ZM276.452 218.643L265.616 223.839L263.277 218.963L274.114 213.767L276.452 218.643ZM289.989 212.152L279.152 217.348L276.814 212.472L287.65 207.276L289.989 212.152ZM303.525 205.661L292.689 210.857L290.351 205.981L301.187 200.785L303.525 205.661Z" fill="black"/>
<path d="M114.014 296.533L103.177 301.73L100.839 296.853L111.675 291.657L114.014 296.533ZM127.55 290.043L116.714 295.239L114.376 290.362L125.212 285.166L127.55 290.043ZM141.087 283.552L130.25 288.748L127.912 283.871L138.748 278.675L141.087 283.552ZM154.623 277.061L143.787 282.257L141.449 277.381L152.285 272.185L154.623 277.061ZM168.16 270.57L157.323 275.766L154.985 270.89L165.821 265.694L168.16 270.57ZM181.696 264.079L170.86 269.275L168.522 264.399L179.358 259.203L181.696 264.079ZM195.233 257.588L184.396 262.784L182.058 257.908L192.895 252.712L195.233 257.588ZM208.769 251.097L197.933 256.293L195.595 251.417L206.431 246.221L208.769 251.097ZM222.306 244.606L211.47 249.803L209.131 244.926L219.968 239.73L222.306 244.606ZM235.842 238.116L225.006 243.312L222.668 238.435L233.504 233.239L235.842 238.116ZM249.379 231.625L238.543 236.821L236.204 231.944L247.041 226.748L249.379 231.625ZM262.915 225.134L252.079 230.33L249.741 225.454L260.577 220.257L262.915 225.134ZM276.452 218.643L265.616 223.839L263.277 218.963L274.114 213.767L276.452 218.643ZM289.989 212.152L279.152 217.348L276.814 212.472L287.65 207.276L289.989 212.152ZM303.525 205.661L292.689 210.857L290.351 205.981L301.187 200.785L303.525 205.661Z" fill="black"/>
<path d="M122.228 313.666L111.392 318.862L109.054 313.985L119.89 308.789L122.228 313.666ZM135.765 307.175L124.929 312.371L122.59 307.495L133.427 302.299L135.765 307.175ZM149.301 300.684L138.465 305.88L136.127 301.004L146.963 295.808L149.301 300.684ZM162.838 294.193L152.002 299.389L149.663 294.513L160.5 289.317L162.838 294.193ZM176.375 287.702L165.538 292.898L163.2 288.022L174.036 282.826L176.375 287.702ZM189.911 281.211L179.075 286.407L176.737 281.531L187.573 276.335L189.911 281.211ZM203.448 274.72L192.611 279.917L190.273 275.04L201.109 269.844L203.448 274.72ZM216.984 268.23L206.148 273.426L203.81 268.549L214.646 263.353L216.984 268.23ZM230.521 261.739L219.684 266.935L217.346 262.058L228.182 256.862L230.521 261.739ZM244.057 255.248L233.221 260.444L230.883 255.568L241.719 250.371L244.057 255.248ZM257.594 248.757L246.757 253.953L244.419 249.077L255.256 243.881L257.594 248.757ZM271.13 242.266L260.294 247.462L257.956 242.586L268.792 237.39L271.13 242.266ZM284.667 235.775L273.831 240.971L271.492 236.095L282.329 230.899L284.667 235.775ZM298.203 229.284L287.367 234.48L285.029 229.604L295.865 224.408L298.203 229.284ZM311.74 222.793L300.904 227.989L298.565 223.113L309.402 217.917L311.74 222.793ZM325.276 216.303L314.44 221.499L312.102 216.622L322.938 211.426L325.276 216.303ZM338.813 209.812L327.977 215.008L325.638 210.131L336.475 204.935L338.813 209.812ZM352.35 203.321L341.513 208.517L339.175 203.641L350.011 198.444L352.35 203.321ZM365.886 196.83L355.05 202.026L352.712 197.15L363.548 191.954L365.886 196.83Z" fill="black"/>
<rect x="40.2363" y="197.069" width="41" height="24" rx="3" transform="rotate(-25.6181 40.2363 197.069)" fill="#E8C162"/>
</svg>
