<svg width="430" height="396" viewBox="0 0 430 396" fill="none" xmlns="http://www.w3.org/2000/svg">
<rect x="128.04" y="398.62" width="244" height="365" rx="25" transform="rotate(-122.921 128.04 398.62)" fill="#898989" stroke="#FAFAFA" stroke-width="10"/>
<path d="M82.6391 294.958C79.3128 289.82 80.7812 282.958 85.9191 279.632L191.167 211.49C196.305 208.164 203.167 209.632 206.493 214.77L251.809 284.762C255.135 289.9 253.667 296.762 248.529 300.089L143.281 368.23C138.143 371.557 131.281 370.088 127.955 364.95L82.6391 294.958Z" fill="white" stroke="#FAFAFA" stroke-width="1.54648"/>
<circle cx="174.438" cy="300.081" r="19" transform="rotate(147.079 174.438 300.081)" fill="#3A3A3A" stroke="#FAFAFA"/>
<path d="M166.005 287.978C149.025 298.971 126.875 294.915 116.394 278.98L178.099 239.029C188.349 255.114 182.985 276.984 166.005 287.978Z" fill="#3A3A3A" stroke="#FAFAFA" stroke-width="0.48366"/>
<rect x="84.6966" y="263.253" width="76.6282" height="307.628" rx="11.6688" transform="rotate(-122.921 84.6966 263.253)" fill="white" stroke="#FAFAFA" stroke-width="1.62821"/>
<rect x="265.489" y="280.099" width="19.4204" height="93.4203" rx="3.01252" transform="rotate(-122.921 265.489 280.099)" fill="white" stroke="#FAFAFA" stroke-width="0.420352"/>
<path d="M330.781 116.556L340.869 110.024L343.808 114.564L333.72 121.095L330.781 116.556ZM318.179 124.715L328.267 118.183L331.206 122.723L321.118 129.254L318.179 124.715ZM305.578 132.873L315.666 126.342L318.605 130.882L308.517 137.413L305.578 132.873ZM292.976 141.032L303.064 134.501L306.003 139.041L295.915 145.572L292.976 141.032ZM280.374 149.191L290.462 142.66L293.401 147.199L283.313 153.731L280.374 149.191Z" fill="black"/>
<mask id="path-8-outside-1_259_156" maskUnits="userSpaceOnUse" x="265.497" y="222.404" width="67.3046" height="47.4762" fill="black">
<rect fill="white" x="265.497" y="222.404" width="67.3046" height="47.4762"/>
<path d="M317.873 230.939L327.961 224.407L330.9 228.947L320.812 235.478L317.873 230.939ZM305.271 239.097L315.359 232.566L318.298 237.106L308.21 243.637L305.271 239.097ZM292.669 247.256L302.757 240.725L305.696 245.265L295.609 251.796L292.669 247.256ZM280.068 255.415L290.156 248.884L293.095 253.423L283.007 259.955L280.068 255.415ZM267.466 263.574L277.554 257.043L280.493 261.582L270.405 268.114L267.466 263.574Z"/>
</mask>
<path d="M317.873 230.939L327.961 224.407L330.9 228.947L320.812 235.478L317.873 230.939ZM305.271 239.097L315.359 232.566L318.298 237.106L308.21 243.637L305.271 239.097ZM292.669 247.256L302.757 240.725L305.696 245.265L295.609 251.796L292.669 247.256ZM280.068 255.415L290.156 248.884L293.095 253.423L283.007 259.955L280.068 255.415ZM267.466 263.574L277.554 257.043L280.493 261.582L270.405 268.114L267.466 263.574Z" fill="black"/>
<path d="M317.873 230.939L317.329 230.099L316.49 230.643L317.033 231.482L317.873 230.939ZM327.961 224.407L328.8 223.864L328.257 223.024L327.417 223.568L327.961 224.407ZM330.9 228.947L331.443 229.786L332.283 229.243L331.739 228.403L330.9 228.947ZM320.812 235.478L319.972 236.022L320.516 236.861L321.355 236.318L320.812 235.478ZM317.873 230.939L318.416 231.778L328.504 225.247L327.961 224.407L327.417 223.568L317.329 230.099L317.873 230.939ZM327.961 224.407L327.121 224.951L330.06 229.49L330.9 228.947L331.739 228.403L328.8 223.864L327.961 224.407ZM330.9 228.947L330.356 228.107L320.268 234.639L320.812 235.478L321.355 236.318L331.443 229.786L330.9 228.947ZM320.812 235.478L321.651 234.935L318.712 230.395L317.873 230.939L317.033 231.482L319.972 236.022L320.812 235.478ZM305.271 239.097L304.728 238.258L303.888 238.802L304.432 239.641L305.271 239.097ZM315.359 232.566L316.198 232.023L315.655 231.183L314.816 231.727L315.359 232.566ZM318.298 237.106L318.842 237.945L319.681 237.402L319.138 236.562L318.298 237.106ZM308.21 243.637L307.371 244.181L307.914 245.02L308.754 244.476L308.21 243.637ZM305.271 239.097L305.815 239.937L315.903 233.406L315.359 232.566L314.816 231.727L304.728 238.258L305.271 239.097ZM315.359 232.566L314.52 233.11L317.459 237.649L318.298 237.106L319.138 236.562L316.198 232.023L315.359 232.566ZM318.298 237.106L317.755 236.266L307.667 242.798L308.21 243.637L308.754 244.476L318.842 237.945L318.298 237.106ZM308.21 243.637L309.05 243.094L306.111 238.554L305.271 239.097L304.432 239.641L307.371 244.181L308.21 243.637ZM292.669 247.256L292.126 246.417L291.287 246.96L291.83 247.8L292.669 247.256ZM302.757 240.725L303.597 240.182L303.053 239.342L302.214 239.886L302.757 240.725ZM305.696 245.265L306.24 246.104L307.079 245.56L306.536 244.721L305.696 245.265ZM295.609 251.796L294.769 252.339L295.313 253.179L296.152 252.635L295.609 251.796ZM292.669 247.256L293.213 248.096L303.301 241.564L302.757 240.725L302.214 239.886L292.126 246.417L292.669 247.256ZM302.757 240.725L301.918 241.268L304.857 245.808L305.696 245.265L306.536 244.721L303.597 240.182L302.757 240.725ZM305.696 245.265L305.153 244.425L295.065 250.956L295.609 251.796L296.152 252.635L306.24 246.104L305.696 245.265ZM295.609 251.796L296.448 251.252L293.509 246.713L292.669 247.256L291.83 247.8L294.769 252.339L295.609 251.796ZM280.068 255.415L279.524 254.576L278.685 255.119L279.228 255.959L280.068 255.415ZM290.156 248.884L290.995 248.34L290.452 247.501L289.612 248.044L290.156 248.884ZM293.095 253.423L293.638 254.263L294.478 253.719L293.934 252.88L293.095 253.423ZM283.007 259.955L282.167 260.498L282.711 261.338L283.55 260.794L283.007 259.955ZM280.068 255.415L280.611 256.255L290.699 249.723L290.156 248.884L289.612 248.044L279.524 254.576L280.068 255.415ZM290.156 248.884L289.316 249.427L292.255 253.967L293.095 253.423L293.934 252.88L290.995 248.34L290.156 248.884ZM293.095 253.423L292.551 252.584L282.463 259.115L283.007 259.955L283.55 260.794L293.638 254.263L293.095 253.423ZM283.007 259.955L283.846 259.411L280.907 254.872L280.068 255.415L279.228 255.959L282.167 260.498L283.007 259.955ZM267.466 263.574L266.923 262.735L266.083 263.278L266.627 264.118L267.466 263.574ZM277.554 257.043L278.393 256.499L277.85 255.66L277.01 256.203L277.554 257.043ZM280.493 261.582L281.037 262.422L281.876 261.878L281.332 261.039L280.493 261.582ZM270.405 268.114L269.566 268.657L270.109 269.496L270.949 268.953L270.405 268.114ZM267.466 263.574L268.01 264.413L278.097 257.882L277.554 257.043L277.01 256.203L266.923 262.735L267.466 263.574ZM277.554 257.043L276.715 257.586L279.654 262.126L280.493 261.582L281.332 261.039L278.393 256.499L277.554 257.043ZM280.493 261.582L279.95 260.743L269.862 267.274L270.405 268.114L270.949 268.953L281.037 262.422L280.493 261.582ZM270.405 268.114L271.245 267.57L268.305 263.031L267.466 263.574L266.627 264.118L269.566 268.657L270.405 268.114Z" fill="#FAFAFA" mask="url(#path-8-outside-1_259_156)"/>
<mask id="path-10-outside-2_259_156" maskUnits="userSpaceOnUse" x="107.398" y="82.7901" width="218.401" height="145.302" fill="black">
<rect fill="white" x="107.398" y="82.7901" width="218.401" height="145.302"/>
<path d="M310.871 91.3246L320.959 84.7933L323.898 89.3329L313.81 95.8642L310.871 91.3246ZM298.269 99.4835L308.357 92.9522L311.296 97.4917L301.208 104.023L298.269 99.4835ZM285.667 107.642L295.755 101.111L298.694 105.651L288.607 112.182L285.667 107.642ZM273.066 115.801L283.154 109.27L286.093 113.809L276.005 120.341L273.066 115.801ZM260.464 123.96L270.552 117.429L273.491 121.968L263.403 128.5L260.464 123.96ZM247.862 132.119L257.95 125.588L260.889 130.127L250.802 136.658L247.862 132.119ZM235.261 140.278L245.349 133.746L248.288 138.286L238.2 144.817L235.261 140.278ZM222.659 148.437L232.747 141.905L235.686 146.445L225.598 152.976L222.659 148.437ZM210.057 156.595L220.145 150.064L223.084 154.604L212.996 161.135L210.057 156.595ZM197.456 164.754L207.544 158.223L210.483 162.763L200.395 169.294L197.456 164.754ZM184.854 172.913L194.942 166.382L197.881 170.921L187.793 177.453L184.854 172.913ZM172.252 181.072L182.34 174.541L185.279 179.08L175.191 185.612L172.252 181.072ZM159.651 189.231L169.738 182.7L172.678 187.239L162.59 193.77L159.651 189.231ZM147.049 197.39L157.137 190.858L160.076 195.398L149.988 201.929L147.049 197.39ZM134.447 205.549L144.535 199.017L147.474 203.557L137.386 210.088L134.447 205.549ZM121.846 213.707L131.933 207.176L134.873 211.716L124.785 218.247L121.846 213.707ZM109.244 221.866L119.332 215.335L122.271 219.875L112.183 226.406L109.244 221.866Z"/>
</mask>
<path d="M310.871 91.3246L320.959 84.7933L323.898 89.3329L313.81 95.8642L310.871 91.3246ZM298.269 99.4835L308.357 92.9522L311.296 97.4917L301.208 104.023L298.269 99.4835ZM285.667 107.642L295.755 101.111L298.694 105.651L288.607 112.182L285.667 107.642ZM273.066 115.801L283.154 109.27L286.093 113.809L276.005 120.341L273.066 115.801ZM260.464 123.96L270.552 117.429L273.491 121.968L263.403 128.5L260.464 123.96ZM247.862 132.119L257.95 125.588L260.889 130.127L250.802 136.658L247.862 132.119ZM235.261 140.278L245.349 133.746L248.288 138.286L238.2 144.817L235.261 140.278ZM222.659 148.437L232.747 141.905L235.686 146.445L225.598 152.976L222.659 148.437ZM210.057 156.595L220.145 150.064L223.084 154.604L212.996 161.135L210.057 156.595ZM197.456 164.754L207.544 158.223L210.483 162.763L200.395 169.294L197.456 164.754ZM184.854 172.913L194.942 166.382L197.881 170.921L187.793 177.453L184.854 172.913ZM172.252 181.072L182.34 174.541L185.279 179.08L175.191 185.612L172.252 181.072ZM159.651 189.231L169.738 182.7L172.678 187.239L162.59 193.77L159.651 189.231ZM147.049 197.39L157.137 190.858L160.076 195.398L149.988 201.929L147.049 197.39ZM134.447 205.549L144.535 199.017L147.474 203.557L137.386 210.088L134.447 205.549ZM121.846 213.707L131.933 207.176L134.873 211.716L124.785 218.247L121.846 213.707ZM109.244 221.866L119.332 215.335L122.271 219.875L112.183 226.406L109.244 221.866Z" fill="black"/>
<path d="M310.871 91.3246L310.327 90.4852L309.488 91.0287L310.031 91.8681L310.871 91.3246ZM320.959 84.7933L321.798 84.2498L321.255 83.4104L320.415 83.9539L320.959 84.7933ZM323.898 89.3329L324.441 90.1723L325.281 89.6288L324.737 88.7894L323.898 89.3329ZM313.81 95.8642L312.971 96.4077L313.514 97.2471L314.353 96.7036L313.81 95.8642ZM310.871 91.3246L311.414 92.1641L321.502 85.6327L320.959 84.7933L320.415 83.9539L310.327 90.4852L310.871 91.3246ZM320.959 84.7933L320.119 85.3368L323.058 89.8763L323.898 89.3329L324.737 88.7894L321.798 84.2498L320.959 84.7933ZM323.898 89.3329L323.354 88.4934L313.266 95.0248L313.81 95.8642L314.353 96.7036L324.441 90.1723L323.898 89.3329ZM313.81 95.8642L314.649 95.3207L311.71 90.7812L310.871 91.3246L310.031 91.8681L312.971 96.4077L313.81 95.8642ZM298.269 99.4835L297.726 98.6441L296.886 99.1876L297.43 100.027L298.269 99.4835ZM308.357 92.9522L309.197 92.4087L308.653 91.5693L307.814 92.1127L308.357 92.9522ZM311.296 97.4917L311.84 98.3311L312.679 97.7877L312.136 96.9482L311.296 97.4917ZM301.208 104.023L300.369 104.567L300.912 105.406L301.752 104.862L301.208 104.023ZM298.269 99.4835L298.813 100.323L308.901 93.7916L308.357 92.9522L307.814 92.1127L297.726 98.6441L298.269 99.4835ZM308.357 92.9522L307.518 93.4956L310.457 98.0352L311.296 97.4917L312.136 96.9482L309.197 92.4087L308.357 92.9522ZM311.296 97.4917L310.753 96.6523L300.665 103.184L301.208 104.023L301.752 104.862L311.84 98.3311L311.296 97.4917ZM301.208 104.023L302.048 103.48L299.109 98.94L298.269 99.4835L297.43 100.027L300.369 104.567L301.208 104.023ZM285.667 107.642L285.124 106.803L284.285 107.346L284.828 108.186L285.667 107.642ZM295.755 101.111L296.595 100.568L296.051 99.7281L295.212 100.272L295.755 101.111ZM298.694 105.651L299.238 106.49L300.077 105.947L299.534 105.107L298.694 105.651ZM288.607 112.182L287.767 112.725L288.311 113.565L289.15 113.021L288.607 112.182ZM285.667 107.642L286.211 108.482L296.299 101.95L295.755 101.111L295.212 100.272L285.124 106.803L285.667 107.642ZM295.755 101.111L294.916 101.654L297.855 106.194L298.694 105.651L299.534 105.107L296.595 100.568L295.755 101.111ZM298.694 105.651L298.151 104.811L288.063 111.342L288.607 112.182L289.15 113.021L299.238 106.49L298.694 105.651ZM288.607 112.182L289.446 111.638L286.507 107.099L285.667 107.642L284.828 108.186L287.767 112.725L288.607 112.182ZM273.066 115.801L272.522 114.962L271.683 115.505L272.226 116.345L273.066 115.801ZM283.154 109.27L283.993 108.726L283.45 107.887L282.61 108.43L283.154 109.27ZM286.093 113.809L286.636 114.649L287.476 114.105L286.932 113.266L286.093 113.809ZM276.005 120.341L275.165 120.884L275.709 121.724L276.548 121.18L276.005 120.341ZM273.066 115.801L273.609 116.641L283.697 110.109L283.154 109.27L282.61 108.43L272.522 114.962L273.066 115.801ZM283.154 109.27L282.314 109.813L285.253 114.353L286.093 113.809L286.932 113.266L283.993 108.726L283.154 109.27ZM286.093 113.809L285.549 112.97L275.461 119.501L276.005 120.341L276.548 121.18L286.636 114.649L286.093 113.809ZM276.005 120.341L276.844 119.797L273.905 115.258L273.066 115.801L272.226 116.345L275.165 120.884L276.005 120.341ZM260.464 123.96L259.921 123.121L259.081 123.664L259.625 124.504L260.464 123.96ZM270.552 117.429L271.391 116.885L270.848 116.046L270.009 116.589L270.552 117.429ZM273.491 121.968L274.035 122.808L274.874 122.264L274.331 121.425L273.491 121.968ZM263.403 128.5L262.564 129.043L263.107 129.883L263.947 129.339L263.403 128.5ZM260.464 123.96L261.008 124.799L271.095 118.268L270.552 117.429L270.009 116.589L259.921 123.121L260.464 123.96ZM270.552 117.429L269.713 117.972L272.652 122.512L273.491 121.968L274.331 121.425L271.391 116.885L270.552 117.429ZM273.491 121.968L272.948 121.129L262.86 127.66L263.403 128.5L263.947 129.339L274.035 122.808L273.491 121.968ZM263.403 128.5L264.243 127.956L261.304 123.417L260.464 123.96L259.625 124.504L262.564 129.043L263.403 128.5ZM247.862 132.119L247.319 131.279L246.48 131.823L247.023 132.662L247.862 132.119ZM257.95 125.588L258.79 125.044L258.246 124.205L257.407 124.748L257.95 125.588ZM260.889 130.127L261.433 130.967L262.272 130.423L261.729 129.584L260.889 130.127ZM250.802 136.658L249.962 137.202L250.506 138.041L251.345 137.498L250.802 136.658ZM247.862 132.119L248.406 132.958L258.494 126.427L257.95 125.588L257.407 124.748L247.319 131.279L247.862 132.119ZM257.95 125.588L257.111 126.131L260.05 130.671L260.889 130.127L261.729 129.584L258.79 125.044L257.95 125.588ZM260.889 130.127L260.346 129.288L250.258 135.819L250.802 136.658L251.345 137.498L261.433 130.967L260.889 130.127ZM250.802 136.658L251.641 136.115L248.702 131.575L247.862 132.119L247.023 132.662L249.962 137.202L250.802 136.658ZM235.261 140.278L234.717 139.438L233.878 139.982L234.421 140.821L235.261 140.278ZM245.349 133.746L246.188 133.203L245.645 132.364L244.805 132.907L245.349 133.746ZM248.288 138.286L248.831 139.125L249.671 138.582L249.127 137.743L248.288 138.286ZM238.2 144.817L237.36 145.361L237.904 146.2L238.743 145.657L238.2 144.817ZM235.261 140.278L235.804 141.117L245.892 134.586L245.349 133.746L244.805 132.907L234.717 139.438L235.261 140.278ZM245.349 133.746L244.509 134.29L247.448 138.829L248.288 138.286L249.127 137.743L246.188 133.203L245.349 133.746ZM248.288 138.286L247.744 137.447L237.656 143.978L238.2 144.817L238.743 145.657L248.831 139.125L248.288 138.286ZM238.2 144.817L239.039 144.274L236.1 139.734L235.261 140.278L234.421 140.821L237.36 145.361L238.2 144.817ZM222.659 148.437L222.116 147.597L221.276 148.141L221.82 148.98L222.659 148.437ZM232.747 141.905L233.586 141.362L233.043 140.522L232.203 141.066L232.747 141.905ZM235.686 146.445L236.23 147.284L237.069 146.741L236.525 145.901L235.686 146.445ZM225.598 152.976L224.759 153.52L225.302 154.359L226.142 153.816L225.598 152.976ZM222.659 148.437L223.203 149.276L233.29 142.745L232.747 141.905L232.203 141.066L222.116 147.597L222.659 148.437ZM232.747 141.905L231.908 142.449L234.847 146.988L235.686 146.445L236.525 145.901L233.586 141.362L232.747 141.905ZM235.686 146.445L235.143 145.605L225.055 152.137L225.598 152.976L226.142 153.816L236.23 147.284L235.686 146.445ZM225.598 152.976L226.438 152.433L223.498 147.893L222.659 148.437L221.82 148.98L224.759 153.52L225.598 152.976ZM210.057 156.595L209.514 155.756L208.674 156.3L209.218 157.139L210.057 156.595ZM220.145 150.064L220.985 149.521L220.441 148.681L219.602 149.225L220.145 150.064ZM223.084 154.604L223.628 155.443L224.467 154.9L223.924 154.06L223.084 154.604ZM212.996 161.135L212.157 161.679L212.7 162.518L213.54 161.974L212.996 161.135ZM210.057 156.595L210.601 157.435L220.689 150.904L220.145 150.064L219.602 149.225L209.514 155.756L210.057 156.595ZM220.145 150.064L219.306 150.608L222.245 155.147L223.084 154.604L223.924 154.06L220.985 149.521L220.145 150.064ZM223.084 154.604L222.541 153.764L212.453 160.296L212.996 161.135L213.54 161.974L223.628 155.443L223.084 154.604ZM212.996 161.135L213.836 160.592L210.897 156.052L210.057 156.595L209.218 157.139L212.157 161.679L212.996 161.135ZM197.456 164.754L196.912 163.915L196.073 164.458L196.616 165.298L197.456 164.754ZM207.544 158.223L208.383 157.68L207.84 156.84L207 157.384L207.544 158.223ZM210.483 162.763L211.026 163.602L211.866 163.059L211.322 162.219L210.483 162.763ZM200.395 169.294L199.555 169.837L200.099 170.677L200.938 170.133L200.395 169.294ZM197.456 164.754L197.999 165.594L208.087 159.062L207.544 158.223L207 157.384L196.912 163.915L197.456 164.754ZM207.544 158.223L206.704 158.766L209.643 163.306L210.483 162.763L211.322 162.219L208.383 157.68L207.544 158.223ZM210.483 162.763L209.939 161.923L199.851 168.454L200.395 169.294L200.938 170.133L211.026 163.602L210.483 162.763ZM200.395 169.294L201.234 168.75L198.295 164.211L197.456 164.754L196.616 165.298L199.555 169.837L200.395 169.294ZM184.854 172.913L184.31 172.074L183.471 172.617L184.015 173.457L184.854 172.913ZM194.942 166.382L195.781 165.838L195.238 164.999L194.398 165.542L194.942 166.382ZM197.881 170.921L198.424 171.761L199.264 171.217L198.72 170.378L197.881 170.921ZM187.793 177.453L186.954 177.996L187.497 178.836L188.337 178.292L187.793 177.453ZM184.854 172.913L185.397 173.753L195.485 167.221L194.942 166.382L194.398 165.542L184.31 172.074L184.854 172.913ZM194.942 166.382L194.102 166.925L197.042 171.465L197.881 170.921L198.72 170.378L195.781 165.838L194.942 166.382ZM197.881 170.921L197.338 170.082L187.25 176.613L187.793 177.453L188.337 178.292L198.424 171.761L197.881 170.921ZM187.793 177.453L188.632 176.909L185.693 172.37L184.854 172.913L184.015 173.457L186.954 177.996L187.793 177.453ZM172.252 181.072L171.709 180.233L170.869 180.776L171.413 181.616L172.252 181.072ZM182.34 174.541L183.18 173.997L182.636 173.158L181.797 173.701L182.34 174.541ZM185.279 179.08L185.823 179.92L186.662 179.376L186.119 178.537L185.279 179.08ZM175.191 185.612L174.352 186.155L174.895 186.995L175.735 186.451L175.191 185.612ZM172.252 181.072L172.796 181.911L182.884 175.38L182.34 174.541L181.797 173.701L171.709 180.233L172.252 181.072ZM182.34 174.541L181.501 175.084L184.44 179.624L185.279 179.08L186.119 178.537L183.18 173.997L182.34 174.541ZM185.279 179.08L184.736 178.241L174.648 184.772L175.191 185.612L175.735 186.451L185.823 179.92L185.279 179.08ZM175.191 185.612L176.031 185.068L173.092 180.529L172.252 181.072L171.413 181.616L174.352 186.155L175.191 185.612ZM159.651 189.231L159.107 188.391L158.268 188.935L158.811 189.774L159.651 189.231ZM169.738 182.7L170.578 182.156L170.034 181.317L169.195 181.86L169.738 182.7ZM172.678 187.239L173.221 188.079L174.06 187.535L173.517 186.696L172.678 187.239ZM162.59 193.77L161.75 194.314L162.294 195.153L163.133 194.61L162.59 193.77ZM159.651 189.231L160.194 190.07L170.282 183.539L169.738 182.7L169.195 181.86L159.107 188.391L159.651 189.231ZM169.738 182.7L168.899 183.243L171.838 187.783L172.678 187.239L173.517 186.696L170.578 182.156L169.738 182.7ZM172.678 187.239L172.134 186.4L162.046 192.931L162.59 193.77L163.133 194.61L173.221 188.079L172.678 187.239ZM162.59 193.77L163.429 193.227L160.49 188.687L159.651 189.231L158.811 189.774L161.75 194.314L162.59 193.77ZM147.049 197.39L146.505 196.55L145.666 197.094L146.209 197.933L147.049 197.39ZM157.137 190.858L157.976 190.315L157.433 189.476L156.593 190.019L157.137 190.858ZM160.076 195.398L160.619 196.237L161.459 195.694L160.915 194.855L160.076 195.398ZM149.988 201.929L149.149 202.473L149.692 203.312L150.531 202.769L149.988 201.929ZM147.049 197.39L147.592 198.229L157.68 191.698L157.137 190.858L156.593 190.019L146.505 196.55L147.049 197.39ZM157.137 190.858L156.297 191.402L159.236 195.941L160.076 195.398L160.915 194.855L157.976 190.315L157.137 190.858ZM160.076 195.398L159.532 194.559L149.445 201.09L149.988 201.929L150.531 202.769L160.619 196.237L160.076 195.398ZM149.988 201.929L150.827 201.386L147.888 196.846L147.049 197.39L146.209 197.933L149.149 202.473L149.988 201.929ZM134.447 205.549L133.904 204.709L133.064 205.253L133.608 206.092L134.447 205.549ZM144.535 199.017L145.375 198.474L144.831 197.634L143.992 198.178L144.535 199.017ZM147.474 203.557L148.018 204.396L148.857 203.853L148.314 203.013L147.474 203.557ZM137.386 210.088L136.547 210.632L137.09 211.471L137.93 210.928L137.386 210.088ZM134.447 205.549L134.991 206.388L145.079 199.857L144.535 199.017L143.992 198.178L133.904 204.709L134.447 205.549ZM144.535 199.017L143.696 199.561L146.635 204.1L147.474 203.557L148.314 203.013L145.375 198.474L144.535 199.017ZM147.474 203.557L146.931 202.717L136.843 209.249L137.386 210.088L137.93 210.928L148.018 204.396L147.474 203.557ZM137.386 210.088L138.226 209.545L135.287 205.005L134.447 205.549L133.608 206.092L136.547 210.632L137.386 210.088ZM121.846 213.707L121.302 212.868L120.463 213.412L121.006 214.251L121.846 213.707ZM131.933 207.176L132.773 206.633L132.229 205.793L131.39 206.337L131.933 207.176ZM134.873 211.716L135.416 212.555L136.255 212.012L135.712 211.172L134.873 211.716ZM124.785 218.247L123.945 218.791L124.489 219.63L125.328 219.086L124.785 218.247ZM121.846 213.707L122.389 214.547L132.477 208.016L131.933 207.176L131.39 206.337L121.302 212.868L121.846 213.707ZM131.933 207.176L131.094 207.72L134.033 212.259L134.873 211.716L135.712 211.172L132.773 206.633L131.933 207.176ZM134.873 211.716L134.329 210.876L124.241 217.408L124.785 218.247L125.328 219.086L135.416 212.555L134.873 211.716ZM124.785 218.247L125.624 217.704L122.685 213.164L121.846 213.707L121.006 214.251L123.945 218.791L124.785 218.247ZM109.244 221.866L108.7 221.027L107.861 221.57L108.404 222.41L109.244 221.866ZM119.332 215.335L120.171 214.792L119.628 213.952L118.788 214.496L119.332 215.335ZM122.271 219.875L122.814 220.714L123.654 220.171L123.11 219.331L122.271 219.875ZM112.183 226.406L111.344 226.949L111.887 227.789L112.726 227.245L112.183 226.406ZM109.244 221.866L109.787 222.706L119.875 216.174L119.332 215.335L118.788 214.496L108.7 221.027L109.244 221.866ZM119.332 215.335L118.492 215.878L121.431 220.418L122.271 219.875L123.11 219.331L120.171 214.792L119.332 215.335ZM122.271 219.875L121.727 219.035L111.639 225.566L112.183 226.406L112.726 227.245L122.814 220.714L122.271 219.875ZM112.183 226.406L113.022 225.862L110.083 221.323L109.244 221.866L108.404 222.41L111.344 226.949L112.183 226.406Z" fill="#FAFAFA" mask="url(#path-10-outside-2_259_156)"/>
<mask id="path-12-outside-3_259_156" maskUnits="userSpaceOnUse" x="121.712" y="66.0016" width="193.218" height="128.998" fill="black">
<rect fill="white" x="121.712" y="66.0016" width="193.218" height="128.998"/>
<path d="M300.002 74.5361L310.09 68.0048L313.029 72.5444L302.941 79.0757L300.002 74.5361ZM287.4 82.695L297.488 76.1636L300.427 80.7032L290.339 87.2345L287.4 82.695ZM274.798 90.8538L284.886 84.3225L287.825 88.8621L277.737 95.3934L274.798 90.8538ZM262.197 99.0127L272.285 92.4814L275.224 97.0209L265.136 103.552L262.197 99.0127ZM249.595 107.172L259.683 100.64L262.622 105.18L252.534 111.711L249.595 107.172ZM236.993 115.33L247.081 108.799L250.02 113.339L239.932 119.87L236.993 115.33ZM224.392 123.489L234.479 116.958L237.419 121.497L227.331 128.029L224.392 123.489ZM211.79 131.648L221.878 125.117L224.817 129.656L214.729 136.188L211.79 131.648ZM199.188 139.807L209.276 133.276L212.215 137.815L202.127 144.347L199.188 139.807ZM186.587 147.966L196.674 141.434L199.614 145.974L189.526 152.505L186.587 147.966ZM173.985 156.125L184.073 149.593L187.012 154.133L176.924 160.664L173.985 156.125ZM161.383 164.284L171.471 157.752L174.41 162.292L164.322 168.823L161.383 164.284ZM148.781 172.442L158.869 165.911L161.808 170.451L151.721 176.982L148.781 172.442ZM136.18 180.601L146.268 174.07L149.207 178.609L139.119 185.141L136.18 180.601ZM123.578 188.76L133.666 182.229L136.605 186.768L126.517 193.3L123.578 188.76Z"/>
</mask>
<path d="M300.002 74.5361L310.09 68.0048L313.029 72.5444L302.941 79.0757L300.002 74.5361ZM287.4 82.695L297.488 76.1636L300.427 80.7032L290.339 87.2345L287.4 82.695ZM274.798 90.8538L284.886 84.3225L287.825 88.8621L277.737 95.3934L274.798 90.8538ZM262.197 99.0127L272.285 92.4814L275.224 97.0209L265.136 103.552L262.197 99.0127ZM249.595 107.172L259.683 100.64L262.622 105.18L252.534 111.711L249.595 107.172ZM236.993 115.33L247.081 108.799L250.02 113.339L239.932 119.87L236.993 115.33ZM224.392 123.489L234.479 116.958L237.419 121.497L227.331 128.029L224.392 123.489ZM211.79 131.648L221.878 125.117L224.817 129.656L214.729 136.188L211.79 131.648ZM199.188 139.807L209.276 133.276L212.215 137.815L202.127 144.347L199.188 139.807ZM186.587 147.966L196.674 141.434L199.614 145.974L189.526 152.505L186.587 147.966ZM173.985 156.125L184.073 149.593L187.012 154.133L176.924 160.664L173.985 156.125ZM161.383 164.284L171.471 157.752L174.41 162.292L164.322 168.823L161.383 164.284ZM148.781 172.442L158.869 165.911L161.808 170.451L151.721 176.982L148.781 172.442ZM136.18 180.601L146.268 174.07L149.207 178.609L139.119 185.141L136.18 180.601ZM123.578 188.76L133.666 182.229L136.605 186.768L126.517 193.3L123.578 188.76Z" fill="black"/>
<path d="M300.002 74.5361L299.458 73.6967L298.619 74.2402L299.162 75.0796L300.002 74.5361ZM310.09 68.0048L310.929 67.4613L310.386 66.6219L309.546 67.1654L310.09 68.0048ZM313.029 72.5444L313.572 73.3838L314.412 72.8403L313.868 72.0009L313.029 72.5444ZM302.941 79.0757L302.101 79.6192L302.645 80.4586L303.484 79.9151L302.941 79.0757ZM300.002 74.5361L300.545 75.3756L310.633 68.8442L310.09 68.0048L309.546 67.1654L299.458 73.6967L300.002 74.5361ZM310.09 68.0048L309.25 68.5483L312.189 73.0878L313.029 72.5444L313.868 72.0009L310.929 67.4613L310.09 68.0048ZM313.029 72.5444L312.485 71.7049L302.397 78.2363L302.941 79.0757L303.484 79.9151L313.572 73.3838L313.029 72.5444ZM302.941 79.0757L303.78 78.5322L300.841 73.9927L300.002 74.5361L299.162 75.0796L302.101 79.6192L302.941 79.0757ZM287.4 82.695L286.857 81.8556L286.017 82.399L286.561 83.2385L287.4 82.695ZM297.488 76.1636L298.327 75.6202L297.784 74.7807L296.944 75.3242L297.488 76.1636ZM300.427 80.7032L300.971 81.5426L301.81 80.9992L301.266 80.1597L300.427 80.7032ZM290.339 87.2345L289.5 87.778L290.043 88.6174L290.883 88.074L290.339 87.2345ZM287.4 82.695L287.943 83.5344L298.031 77.0031L297.488 76.1636L296.944 75.3242L286.857 81.8556L287.4 82.695ZM297.488 76.1636L296.649 76.7071L299.588 81.2467L300.427 80.7032L301.266 80.1597L298.327 75.6202L297.488 76.1636ZM300.427 80.7032L299.884 79.8638L289.796 86.3951L290.339 87.2345L290.883 88.074L300.971 81.5426L300.427 80.7032ZM290.339 87.2345L291.179 86.6911L288.239 82.1515L287.4 82.695L286.561 83.2385L289.5 87.778L290.339 87.2345ZM274.798 90.8538L274.255 90.0144L273.415 90.5579L273.959 91.3973L274.798 90.8538ZM284.886 84.3225L285.726 83.779L285.182 82.9396L284.343 83.4831L284.886 84.3225ZM287.825 88.8621L288.369 89.7015L289.208 89.158L288.665 88.3186L287.825 88.8621ZM277.737 95.3934L276.898 95.9369L277.441 96.7763L278.281 96.2328L277.737 95.3934ZM274.798 90.8538L275.342 91.6933L285.43 85.1619L284.886 84.3225L284.343 83.4831L274.255 90.0144L274.798 90.8538ZM284.886 84.3225L284.047 84.866L286.986 89.4055L287.825 88.8621L288.665 88.3186L285.726 83.779L284.886 84.3225ZM287.825 88.8621L287.282 88.0226L277.194 94.554L277.737 95.3934L278.281 96.2328L288.369 89.7015L287.825 88.8621ZM277.737 95.3934L278.577 94.8499L275.638 90.3104L274.798 90.8538L273.959 91.3973L276.898 95.9369L277.737 95.3934ZM262.197 99.0127L261.653 98.1733L260.814 98.7167L261.357 99.5562L262.197 99.0127ZM272.285 92.4814L273.124 91.9379L272.581 91.0985L271.741 91.6419L272.285 92.4814ZM275.224 97.0209L275.767 97.8603L276.607 97.3169L276.063 96.4774L275.224 97.0209ZM265.136 103.552L264.296 104.096L264.84 104.935L265.679 104.392L265.136 103.552ZM262.197 99.0127L262.74 99.8521L272.828 93.3208L272.285 92.4814L271.741 91.6419L261.653 98.1733L262.197 99.0127ZM272.285 92.4814L271.445 93.0248L274.384 97.5644L275.224 97.0209L276.063 96.4774L273.124 91.9379L272.285 92.4814ZM275.224 97.0209L274.68 96.1815L264.592 102.713L265.136 103.552L265.679 104.392L275.767 97.8603L275.224 97.0209ZM265.136 103.552L265.975 103.009L263.036 98.4692L262.197 99.0127L261.357 99.5562L264.296 104.096L265.136 103.552ZM249.595 107.172L249.051 106.332L248.212 106.876L248.756 107.715L249.595 107.172ZM259.683 100.64L260.522 100.097L259.979 99.2573L259.139 99.8008L259.683 100.64ZM262.622 105.18L263.165 106.019L264.005 105.476L263.461 104.636L262.622 105.18ZM252.534 111.711L251.695 112.255L252.238 113.094L253.078 112.551L252.534 111.711ZM249.595 107.172L250.138 108.011L260.226 101.48L259.683 100.64L259.139 99.8008L249.051 106.332L249.595 107.172ZM259.683 100.64L258.843 101.184L261.783 105.723L262.622 105.18L263.461 104.636L260.522 100.097L259.683 100.64ZM262.622 105.18L262.078 104.34L251.991 110.872L252.534 111.711L253.078 112.551L263.165 106.019L262.622 105.18ZM252.534 111.711L253.373 111.168L250.434 106.628L249.595 107.172L248.756 107.715L251.695 112.255L252.534 111.711ZM236.993 115.33L236.45 114.491L235.61 115.034L236.154 115.874L236.993 115.33ZM247.081 108.799L247.921 108.256L247.377 107.416L246.538 107.96L247.081 108.799ZM250.02 113.339L250.564 114.178L251.403 113.635L250.86 112.795L250.02 113.339ZM239.932 119.87L239.093 120.413L239.636 121.253L240.476 120.709L239.932 119.87ZM236.993 115.33L237.537 116.17L247.625 109.638L247.081 108.799L246.538 107.96L236.45 114.491L236.993 115.33ZM247.081 108.799L246.242 109.343L249.181 113.882L250.02 113.339L250.86 112.795L247.921 108.256L247.081 108.799ZM250.02 113.339L249.477 112.499L239.389 119.031L239.932 119.87L240.476 120.709L250.564 114.178L250.02 113.339ZM239.932 119.87L240.772 119.326L237.833 114.787L236.993 115.33L236.154 115.874L239.093 120.413L239.932 119.87ZM224.392 123.489L223.848 122.65L223.009 123.193L223.552 124.033L224.392 123.489ZM234.479 116.958L235.319 116.414L234.775 115.575L233.936 116.119L234.479 116.958ZM237.419 121.497L237.962 122.337L238.801 121.793L238.258 120.954L237.419 121.497ZM227.331 128.029L226.491 128.572L227.035 129.412L227.874 128.868L227.331 128.029ZM224.392 123.489L224.935 124.329L235.023 117.797L234.479 116.958L233.936 116.119L223.848 122.65L224.392 123.489ZM234.479 116.958L233.64 117.501L236.579 122.041L237.419 121.497L238.258 120.954L235.319 116.414L234.479 116.958ZM237.419 121.497L236.875 120.658L226.787 127.189L227.331 128.029L227.874 128.868L237.962 122.337L237.419 121.497ZM227.331 128.029L228.17 127.485L225.231 122.946L224.392 123.489L223.552 124.033L226.491 128.572L227.331 128.029ZM211.79 131.648L211.246 130.809L210.407 131.352L210.95 132.192L211.79 131.648ZM221.878 125.117L222.717 124.573L222.174 123.734L221.334 124.277L221.878 125.117ZM224.817 129.656L225.36 130.496L226.2 129.952L225.656 129.113L224.817 129.656ZM214.729 136.188L213.89 136.731L214.433 137.571L215.272 137.027L214.729 136.188ZM211.79 131.648L212.333 132.488L222.421 125.956L221.878 125.117L221.334 124.277L211.246 130.809L211.79 131.648ZM221.878 125.117L221.038 125.66L223.977 130.2L224.817 129.656L225.656 129.113L222.717 124.573L221.878 125.117ZM224.817 129.656L224.273 128.817L214.186 135.348L214.729 136.188L215.272 137.027L225.36 130.496L224.817 129.656ZM214.729 136.188L215.568 135.644L212.629 131.105L211.79 131.648L210.95 132.192L213.89 136.731L214.729 136.188ZM199.188 139.807L198.645 138.968L197.805 139.511L198.349 140.35L199.188 139.807ZM209.276 133.276L210.116 132.732L209.572 131.893L208.733 132.436L209.276 133.276ZM212.215 137.815L212.759 138.655L213.598 138.111L213.055 137.272L212.215 137.815ZM202.127 144.347L201.288 144.89L201.831 145.729L202.671 145.186L202.127 144.347ZM199.188 139.807L199.732 140.646L209.82 134.115L209.276 133.276L208.733 132.436L198.645 138.968L199.188 139.807ZM209.276 133.276L208.437 133.819L211.376 138.359L212.215 137.815L213.055 137.272L210.116 132.732L209.276 133.276ZM212.215 137.815L211.672 136.976L201.584 143.507L202.127 144.347L202.671 145.186L212.759 138.655L212.215 137.815ZM202.127 144.347L202.967 143.803L200.028 139.263L199.188 139.807L198.349 140.35L201.288 144.89L202.127 144.347ZM186.587 147.966L186.043 147.126L185.204 147.67L185.747 148.509L186.587 147.966ZM196.674 141.434L197.514 140.891L196.97 140.052L196.131 140.595L196.674 141.434ZM199.614 145.974L200.157 146.813L200.996 146.27L200.453 145.431L199.614 145.974ZM189.526 152.505L188.686 153.049L189.23 153.888L190.069 153.345L189.526 152.505ZM186.587 147.966L187.13 148.805L197.218 142.274L196.674 141.434L196.131 140.595L186.043 147.126L186.587 147.966ZM196.674 141.434L195.835 141.978L198.774 146.518L199.614 145.974L200.453 145.431L197.514 140.891L196.674 141.434ZM199.614 145.974L199.07 145.135L188.982 151.666L189.526 152.505L190.069 153.345L200.157 146.813L199.614 145.974ZM189.526 152.505L190.365 151.962L187.426 147.422L186.587 147.966L185.747 148.509L188.686 153.049L189.526 152.505ZM173.985 156.125L173.441 155.285L172.602 155.829L173.145 156.668L173.985 156.125ZM184.073 149.593L184.912 149.05L184.369 148.21L183.529 148.754L184.073 149.593ZM187.012 154.133L187.555 154.972L188.395 154.429L187.851 153.589L187.012 154.133ZM176.924 160.664L176.084 161.208L176.628 162.047L177.467 161.504L176.924 160.664ZM173.985 156.125L174.528 156.964L184.616 150.433L184.073 149.593L183.529 148.754L173.441 155.285L173.985 156.125ZM184.073 149.593L183.233 150.137L186.172 154.676L187.012 154.133L187.851 153.589L184.912 149.05L184.073 149.593ZM187.012 154.133L186.468 153.293L176.38 159.825L176.924 160.664L177.467 161.504L187.555 154.972L187.012 154.133ZM176.924 160.664L177.763 160.121L174.824 155.581L173.985 156.125L173.145 156.668L176.084 161.208L176.924 160.664ZM161.383 164.284L160.84 163.444L160 163.988L160.544 164.827L161.383 164.284ZM171.471 157.752L172.31 157.209L171.767 156.369L170.928 156.913L171.471 157.752ZM174.41 162.292L174.954 163.131L175.793 162.588L175.25 161.748L174.41 162.292ZM164.322 168.823L163.483 169.367L164.026 170.206L164.866 169.663L164.322 168.823ZM161.383 164.284L161.927 165.123L172.015 158.592L171.471 157.752L170.928 156.913L160.84 163.444L161.383 164.284ZM171.471 157.752L170.632 158.296L173.571 162.835L174.41 162.292L175.25 161.748L172.31 157.209L171.471 157.752ZM174.41 162.292L173.867 161.452L163.779 167.984L164.322 168.823L164.866 169.663L174.954 163.131L174.41 162.292ZM164.322 168.823L165.162 168.28L162.223 163.74L161.383 164.284L160.544 164.827L163.483 169.367L164.322 168.823ZM148.781 172.442L148.238 171.603L147.399 172.146L147.942 172.986L148.781 172.442ZM158.869 165.911L159.709 165.368L159.165 164.528L158.326 165.072L158.869 165.911ZM161.808 170.451L162.352 171.29L163.191 170.747L162.648 169.907L161.808 170.451ZM151.721 176.982L150.881 177.525L151.425 178.365L152.264 177.821L151.721 176.982ZM148.781 172.442L149.325 173.282L159.413 166.75L158.869 165.911L158.326 165.072L148.238 171.603L148.781 172.442ZM158.869 165.911L158.03 166.455L160.969 170.994L161.808 170.451L162.648 169.907L159.709 165.368L158.869 165.911ZM161.808 170.451L161.265 169.611L151.177 176.143L151.721 176.982L152.264 177.821L162.352 171.29L161.808 170.451ZM151.721 176.982L152.56 176.438L149.621 171.899L148.781 172.442L147.942 172.986L150.881 177.525L151.721 176.982ZM136.18 180.601L135.636 179.762L134.797 180.305L135.34 181.145L136.18 180.601ZM146.268 174.07L147.107 173.526L146.564 172.687L145.724 173.23L146.268 174.07ZM149.207 178.609L149.75 179.449L150.59 178.905L150.046 178.066L149.207 178.609ZM139.119 185.141L138.279 185.684L138.823 186.524L139.662 185.98L139.119 185.141ZM136.18 180.601L136.723 181.441L146.811 174.909L146.268 174.07L145.724 173.23L135.636 179.762L136.18 180.601ZM146.268 174.07L145.428 174.613L148.367 179.153L149.207 178.609L150.046 178.066L147.107 173.526L146.268 174.07ZM149.207 178.609L148.663 177.77L138.575 184.301L139.119 185.141L139.662 185.98L149.75 179.449L149.207 178.609ZM139.119 185.141L139.958 184.597L137.019 180.058L136.18 180.601L135.34 181.145L138.279 185.684L139.119 185.141ZM123.578 188.76L123.035 187.921L122.195 188.464L122.739 189.304L123.578 188.76ZM133.666 182.229L134.505 181.685L133.962 180.846L133.123 181.389L133.666 182.229ZM136.605 186.768L137.149 187.608L137.988 187.064L137.445 186.225L136.605 186.768ZM126.517 193.3L125.678 193.843L126.221 194.683L127.061 194.139L126.517 193.3ZM123.578 188.76L124.122 189.6L134.209 183.068L133.666 182.229L133.123 181.389L123.035 187.921L123.578 188.76ZM133.666 182.229L132.827 182.772L135.766 187.312L136.605 186.768L137.445 186.225L134.505 181.685L133.666 182.229ZM136.605 186.768L136.062 185.929L125.974 192.46L126.517 193.3L127.061 194.139L137.149 187.608L136.605 186.768ZM126.517 193.3L127.357 192.756L124.417 188.217L123.578 188.76L122.739 189.304L125.678 193.843L126.517 193.3Z" fill="#FAFAFA" mask="url(#path-12-outside-3_259_156)"/>
<mask id="path-14-outside-4_259_156" maskUnits="userSpaceOnUse" x="121.712" y="66.0016" width="193.218" height="128.998" fill="black">
<rect fill="white" x="121.712" y="66.0016" width="193.218" height="128.998"/>
<path d="M300.002 74.5361L310.09 68.0048L313.029 72.5444L302.941 79.0757L300.002 74.5361ZM287.4 82.695L297.488 76.1636L300.427 80.7032L290.339 87.2345L287.4 82.695ZM274.798 90.8538L284.886 84.3225L287.825 88.8621L277.737 95.3934L274.798 90.8538ZM262.197 99.0127L272.285 92.4814L275.224 97.0209L265.136 103.552L262.197 99.0127ZM249.595 107.172L259.683 100.64L262.622 105.18L252.534 111.711L249.595 107.172ZM236.993 115.33L247.081 108.799L250.02 113.339L239.932 119.87L236.993 115.33ZM224.392 123.489L234.479 116.958L237.419 121.497L227.331 128.029L224.392 123.489ZM211.79 131.648L221.878 125.117L224.817 129.656L214.729 136.188L211.79 131.648ZM199.188 139.807L209.276 133.276L212.215 137.815L202.127 144.347L199.188 139.807ZM186.587 147.966L196.674 141.434L199.614 145.974L189.526 152.505L186.587 147.966ZM173.985 156.125L184.073 149.593L187.012 154.133L176.924 160.664L173.985 156.125ZM161.383 164.284L171.471 157.752L174.41 162.292L164.322 168.823L161.383 164.284ZM148.781 172.442L158.869 165.911L161.808 170.451L151.721 176.982L148.781 172.442ZM136.18 180.601L146.268 174.07L149.207 178.609L139.119 185.141L136.18 180.601ZM123.578 188.76L133.666 182.229L136.605 186.768L126.517 193.3L123.578 188.76Z"/>
</mask>
<path d="M300.002 74.5361L310.09 68.0048L313.029 72.5444L302.941 79.0757L300.002 74.5361ZM287.4 82.695L297.488 76.1636L300.427 80.7032L290.339 87.2345L287.4 82.695ZM274.798 90.8538L284.886 84.3225L287.825 88.8621L277.737 95.3934L274.798 90.8538ZM262.197 99.0127L272.285 92.4814L275.224 97.0209L265.136 103.552L262.197 99.0127ZM249.595 107.172L259.683 100.64L262.622 105.18L252.534 111.711L249.595 107.172ZM236.993 115.33L247.081 108.799L250.02 113.339L239.932 119.87L236.993 115.33ZM224.392 123.489L234.479 116.958L237.419 121.497L227.331 128.029L224.392 123.489ZM211.79 131.648L221.878 125.117L224.817 129.656L214.729 136.188L211.79 131.648ZM199.188 139.807L209.276 133.276L212.215 137.815L202.127 144.347L199.188 139.807ZM186.587 147.966L196.674 141.434L199.614 145.974L189.526 152.505L186.587 147.966ZM173.985 156.125L184.073 149.593L187.012 154.133L176.924 160.664L173.985 156.125ZM161.383 164.284L171.471 157.752L174.41 162.292L164.322 168.823L161.383 164.284ZM148.781 172.442L158.869 165.911L161.808 170.451L151.721 176.982L148.781 172.442ZM136.18 180.601L146.268 174.07L149.207 178.609L139.119 185.141L136.18 180.601ZM123.578 188.76L133.666 182.229L136.605 186.768L126.517 193.3L123.578 188.76Z" fill="black"/>
<path d="M300.002 74.5361L299.458 73.6967L298.619 74.2402L299.162 75.0796L300.002 74.5361ZM310.09 68.0048L310.929 67.4613L310.386 66.6219L309.546 67.1654L310.09 68.0048ZM313.029 72.5444L313.572 73.3838L314.412 72.8403L313.868 72.0009L313.029 72.5444ZM302.941 79.0757L302.101 79.6192L302.645 80.4586L303.484 79.9151L302.941 79.0757ZM300.002 74.5361L300.545 75.3756L310.633 68.8442L310.09 68.0048L309.546 67.1654L299.458 73.6967L300.002 74.5361ZM310.09 68.0048L309.25 68.5483L312.189 73.0878L313.029 72.5444L313.868 72.0009L310.929 67.4613L310.09 68.0048ZM313.029 72.5444L312.485 71.7049L302.397 78.2363L302.941 79.0757L303.484 79.9151L313.572 73.3838L313.029 72.5444ZM302.941 79.0757L303.78 78.5322L300.841 73.9927L300.002 74.5361L299.162 75.0796L302.101 79.6192L302.941 79.0757ZM287.4 82.695L286.857 81.8556L286.017 82.399L286.561 83.2385L287.4 82.695ZM297.488 76.1636L298.327 75.6202L297.784 74.7807L296.944 75.3242L297.488 76.1636ZM300.427 80.7032L300.971 81.5426L301.81 80.9992L301.266 80.1597L300.427 80.7032ZM290.339 87.2345L289.5 87.778L290.043 88.6174L290.883 88.074L290.339 87.2345ZM287.4 82.695L287.943 83.5344L298.031 77.0031L297.488 76.1636L296.944 75.3242L286.857 81.8556L287.4 82.695ZM297.488 76.1636L296.649 76.7071L299.588 81.2467L300.427 80.7032L301.266 80.1597L298.327 75.6202L297.488 76.1636ZM300.427 80.7032L299.884 79.8638L289.796 86.3951L290.339 87.2345L290.883 88.074L300.971 81.5426L300.427 80.7032ZM290.339 87.2345L291.179 86.6911L288.239 82.1515L287.4 82.695L286.561 83.2385L289.5 87.778L290.339 87.2345ZM274.798 90.8538L274.255 90.0144L273.415 90.5579L273.959 91.3973L274.798 90.8538ZM284.886 84.3225L285.726 83.779L285.182 82.9396L284.343 83.4831L284.886 84.3225ZM287.825 88.8621L288.369 89.7015L289.208 89.158L288.665 88.3186L287.825 88.8621ZM277.737 95.3934L276.898 95.9369L277.441 96.7763L278.281 96.2328L277.737 95.3934ZM274.798 90.8538L275.342 91.6933L285.43 85.1619L284.886 84.3225L284.343 83.4831L274.255 90.0144L274.798 90.8538ZM284.886 84.3225L284.047 84.866L286.986 89.4055L287.825 88.8621L288.665 88.3186L285.726 83.779L284.886 84.3225ZM287.825 88.8621L287.282 88.0226L277.194 94.554L277.737 95.3934L278.281 96.2328L288.369 89.7015L287.825 88.8621ZM277.737 95.3934L278.577 94.8499L275.638 90.3104L274.798 90.8538L273.959 91.3973L276.898 95.9369L277.737 95.3934ZM262.197 99.0127L261.653 98.1733L260.814 98.7167L261.357 99.5562L262.197 99.0127ZM272.285 92.4814L273.124 91.9379L272.581 91.0985L271.741 91.6419L272.285 92.4814ZM275.224 97.0209L275.767 97.8603L276.607 97.3169L276.063 96.4774L275.224 97.0209ZM265.136 103.552L264.296 104.096L264.84 104.935L265.679 104.392L265.136 103.552ZM262.197 99.0127L262.74 99.8521L272.828 93.3208L272.285 92.4814L271.741 91.6419L261.653 98.1733L262.197 99.0127ZM272.285 92.4814L271.445 93.0248L274.384 97.5644L275.224 97.0209L276.063 96.4774L273.124 91.9379L272.285 92.4814ZM275.224 97.0209L274.68 96.1815L264.592 102.713L265.136 103.552L265.679 104.392L275.767 97.8603L275.224 97.0209ZM265.136 103.552L265.975 103.009L263.036 98.4692L262.197 99.0127L261.357 99.5562L264.296 104.096L265.136 103.552ZM249.595 107.172L249.051 106.332L248.212 106.876L248.756 107.715L249.595 107.172ZM259.683 100.64L260.522 100.097L259.979 99.2573L259.139 99.8008L259.683 100.64ZM262.622 105.18L263.165 106.019L264.005 105.476L263.461 104.636L262.622 105.18ZM252.534 111.711L251.695 112.255L252.238 113.094L253.078 112.551L252.534 111.711ZM249.595 107.172L250.138 108.011L260.226 101.48L259.683 100.64L259.139 99.8008L249.051 106.332L249.595 107.172ZM259.683 100.64L258.843 101.184L261.783 105.723L262.622 105.18L263.461 104.636L260.522 100.097L259.683 100.64ZM262.622 105.18L262.078 104.34L251.991 110.872L252.534 111.711L253.078 112.551L263.165 106.019L262.622 105.18ZM252.534 111.711L253.373 111.168L250.434 106.628L249.595 107.172L248.756 107.715L251.695 112.255L252.534 111.711ZM236.993 115.33L236.45 114.491L235.61 115.034L236.154 115.874L236.993 115.33ZM247.081 108.799L247.921 108.256L247.377 107.416L246.538 107.96L247.081 108.799ZM250.02 113.339L250.564 114.178L251.403 113.635L250.86 112.795L250.02 113.339ZM239.932 119.87L239.093 120.413L239.636 121.253L240.476 120.709L239.932 119.87ZM236.993 115.33L237.537 116.17L247.625 109.638L247.081 108.799L246.538 107.96L236.45 114.491L236.993 115.33ZM247.081 108.799L246.242 109.343L249.181 113.882L250.02 113.339L250.86 112.795L247.921 108.256L247.081 108.799ZM250.02 113.339L249.477 112.499L239.389 119.031L239.932 119.87L240.476 120.709L250.564 114.178L250.02 113.339ZM239.932 119.87L240.772 119.326L237.833 114.787L236.993 115.33L236.154 115.874L239.093 120.413L239.932 119.87ZM224.392 123.489L223.848 122.65L223.009 123.193L223.552 124.033L224.392 123.489ZM234.479 116.958L235.319 116.414L234.775 115.575L233.936 116.119L234.479 116.958ZM237.419 121.497L237.962 122.337L238.801 121.793L238.258 120.954L237.419 121.497ZM227.331 128.029L226.491 128.572L227.035 129.412L227.874 128.868L227.331 128.029ZM224.392 123.489L224.935 124.329L235.023 117.797L234.479 116.958L233.936 116.119L223.848 122.65L224.392 123.489ZM234.479 116.958L233.64 117.501L236.579 122.041L237.419 121.497L238.258 120.954L235.319 116.414L234.479 116.958ZM237.419 121.497L236.875 120.658L226.787 127.189L227.331 128.029L227.874 128.868L237.962 122.337L237.419 121.497ZM227.331 128.029L228.17 127.485L225.231 122.946L224.392 123.489L223.552 124.033L226.491 128.572L227.331 128.029ZM211.79 131.648L211.246 130.809L210.407 131.352L210.95 132.192L211.79 131.648ZM221.878 125.117L222.717 124.573L222.174 123.734L221.334 124.277L221.878 125.117ZM224.817 129.656L225.36 130.496L226.2 129.952L225.656 129.113L224.817 129.656ZM214.729 136.188L213.89 136.731L214.433 137.571L215.272 137.027L214.729 136.188ZM211.79 131.648L212.333 132.488L222.421 125.956L221.878 125.117L221.334 124.277L211.246 130.809L211.79 131.648ZM221.878 125.117L221.038 125.66L223.977 130.2L224.817 129.656L225.656 129.113L222.717 124.573L221.878 125.117ZM224.817 129.656L224.273 128.817L214.186 135.348L214.729 136.188L215.272 137.027L225.36 130.496L224.817 129.656ZM214.729 136.188L215.568 135.644L212.629 131.105L211.79 131.648L210.95 132.192L213.89 136.731L214.729 136.188ZM199.188 139.807L198.645 138.968L197.805 139.511L198.349 140.35L199.188 139.807ZM209.276 133.276L210.116 132.732L209.572 131.893L208.733 132.436L209.276 133.276ZM212.215 137.815L212.759 138.655L213.598 138.111L213.055 137.272L212.215 137.815ZM202.127 144.347L201.288 144.89L201.831 145.729L202.671 145.186L202.127 144.347ZM199.188 139.807L199.732 140.646L209.82 134.115L209.276 133.276L208.733 132.436L198.645 138.968L199.188 139.807ZM209.276 133.276L208.437 133.819L211.376 138.359L212.215 137.815L213.055 137.272L210.116 132.732L209.276 133.276ZM212.215 137.815L211.672 136.976L201.584 143.507L202.127 144.347L202.671 145.186L212.759 138.655L212.215 137.815ZM202.127 144.347L202.967 143.803L200.028 139.263L199.188 139.807L198.349 140.35L201.288 144.89L202.127 144.347ZM186.587 147.966L186.043 147.126L185.204 147.67L185.747 148.509L186.587 147.966ZM196.674 141.434L197.514 140.891L196.97 140.052L196.131 140.595L196.674 141.434ZM199.614 145.974L200.157 146.813L200.996 146.27L200.453 145.431L199.614 145.974ZM189.526 152.505L188.686 153.049L189.23 153.888L190.069 153.345L189.526 152.505ZM186.587 147.966L187.13 148.805L197.218 142.274L196.674 141.434L196.131 140.595L186.043 147.126L186.587 147.966ZM196.674 141.434L195.835 141.978L198.774 146.518L199.614 145.974L200.453 145.431L197.514 140.891L196.674 141.434ZM199.614 145.974L199.07 145.135L188.982 151.666L189.526 152.505L190.069 153.345L200.157 146.813L199.614 145.974ZM189.526 152.505L190.365 151.962L187.426 147.422L186.587 147.966L185.747 148.509L188.686 153.049L189.526 152.505ZM173.985 156.125L173.441 155.285L172.602 155.829L173.145 156.668L173.985 156.125ZM184.073 149.593L184.912 149.05L184.369 148.21L183.529 148.754L184.073 149.593ZM187.012 154.133L187.555 154.972L188.395 154.429L187.851 153.589L187.012 154.133ZM176.924 160.664L176.084 161.208L176.628 162.047L177.467 161.504L176.924 160.664ZM173.985 156.125L174.528 156.964L184.616 150.433L184.073 149.593L183.529 148.754L173.441 155.285L173.985 156.125ZM184.073 149.593L183.233 150.137L186.172 154.676L187.012 154.133L187.851 153.589L184.912 149.05L184.073 149.593ZM187.012 154.133L186.468 153.293L176.38 159.825L176.924 160.664L177.467 161.504L187.555 154.972L187.012 154.133ZM176.924 160.664L177.763 160.121L174.824 155.581L173.985 156.125L173.145 156.668L176.084 161.208L176.924 160.664ZM161.383 164.284L160.84 163.444L160 163.988L160.544 164.827L161.383 164.284ZM171.471 157.752L172.31 157.209L171.767 156.369L170.928 156.913L171.471 157.752ZM174.41 162.292L174.954 163.131L175.793 162.588L175.25 161.748L174.41 162.292ZM164.322 168.823L163.483 169.367L164.026 170.206L164.866 169.663L164.322 168.823ZM161.383 164.284L161.927 165.123L172.015 158.592L171.471 157.752L170.928 156.913L160.84 163.444L161.383 164.284ZM171.471 157.752L170.632 158.296L173.571 162.835L174.41 162.292L175.25 161.748L172.31 157.209L171.471 157.752ZM174.41 162.292L173.867 161.452L163.779 167.984L164.322 168.823L164.866 169.663L174.954 163.131L174.41 162.292ZM164.322 168.823L165.162 168.28L162.223 163.74L161.383 164.284L160.544 164.827L163.483 169.367L164.322 168.823ZM148.781 172.442L148.238 171.603L147.399 172.146L147.942 172.986L148.781 172.442ZM158.869 165.911L159.709 165.368L159.165 164.528L158.326 165.072L158.869 165.911ZM161.808 170.451L162.352 171.29L163.191 170.747L162.648 169.907L161.808 170.451ZM151.721 176.982L150.881 177.525L151.425 178.365L152.264 177.821L151.721 176.982ZM148.781 172.442L149.325 173.282L159.413 166.75L158.869 165.911L158.326 165.072L148.238 171.603L148.781 172.442ZM158.869 165.911L158.03 166.455L160.969 170.994L161.808 170.451L162.648 169.907L159.709 165.368L158.869 165.911ZM161.808 170.451L161.265 169.611L151.177 176.143L151.721 176.982L152.264 177.821L162.352 171.29L161.808 170.451ZM151.721 176.982L152.56 176.438L149.621 171.899L148.781 172.442L147.942 172.986L150.881 177.525L151.721 176.982ZM136.18 180.601L135.636 179.762L134.797 180.305L135.34 181.145L136.18 180.601ZM146.268 174.07L147.107 173.526L146.564 172.687L145.724 173.23L146.268 174.07ZM149.207 178.609L149.75 179.449L150.59 178.905L150.046 178.066L149.207 178.609ZM139.119 185.141L138.279 185.684L138.823 186.524L139.662 185.98L139.119 185.141ZM136.18 180.601L136.723 181.441L146.811 174.909L146.268 174.07L145.724 173.23L135.636 179.762L136.18 180.601ZM146.268 174.07L145.428 174.613L148.367 179.153L149.207 178.609L150.046 178.066L147.107 173.526L146.268 174.07ZM149.207 178.609L148.663 177.77L138.575 184.301L139.119 185.141L139.662 185.98L149.75 179.449L149.207 178.609ZM139.119 185.141L139.958 184.597L137.019 180.058L136.18 180.601L135.34 181.145L138.279 185.684L139.119 185.141ZM123.578 188.76L123.035 187.921L122.195 188.464L122.739 189.304L123.578 188.76ZM133.666 182.229L134.505 181.685L133.962 180.846L133.123 181.389L133.666 182.229ZM136.605 186.768L137.149 187.608L137.988 187.064L137.445 186.225L136.605 186.768ZM126.517 193.3L125.678 193.843L126.221 194.683L127.061 194.139L126.517 193.3ZM123.578 188.76L124.122 189.6L134.209 183.068L133.666 182.229L133.123 181.389L123.035 187.921L123.578 188.76ZM133.666 182.229L132.827 182.772L135.766 187.312L136.605 186.768L137.445 186.225L134.505 181.685L133.666 182.229ZM136.605 186.768L136.062 185.929L125.974 192.46L126.517 193.3L127.061 194.139L137.149 187.608L136.605 186.768ZM126.517 193.3L127.357 192.756L124.417 188.217L123.578 188.76L122.739 189.304L125.678 193.843L126.517 193.3Z" fill="#FAFAFA" mask="url(#path-14-outside-4_259_156)"/>
<mask id="path-16-outside-5_259_156" maskUnits="userSpaceOnUse" x="61.0203" y="50.0525" width="243.584" height="161.607" fill="black">
<rect fill="white" x="61.0203" y="50.0525" width="243.584" height="161.607"/>
<path d="M289.676 58.5871L299.763 52.0558L302.703 56.5953L292.615 63.1267L289.676 58.5871ZM277.074 66.7459L287.162 60.2146L290.101 64.7542L280.013 71.2855L277.074 66.7459ZM264.472 74.9048L274.56 68.3735L277.499 72.913L267.411 79.4444L264.472 74.9048ZM251.87 83.0637L261.958 76.5323L264.897 81.0719L254.81 87.6032L251.87 83.0637ZM239.269 91.2225L249.357 84.6912L252.296 89.2307L242.208 95.7621L239.269 91.2225ZM226.667 99.3814L236.755 92.85L239.694 97.3896L229.606 103.921L226.667 99.3814ZM214.065 107.54L224.153 101.009L227.092 105.548L217.005 112.08L214.065 107.54ZM201.464 115.699L211.552 109.168L214.491 113.707L204.403 120.239L201.464 115.699ZM188.862 123.858L198.95 117.327L201.889 121.866L191.801 128.397L188.862 123.858ZM176.26 132.017L186.348 125.485L189.287 130.025L179.199 136.556L176.26 132.017ZM163.659 140.176L173.747 133.644L176.686 138.184L166.598 144.715L163.659 140.176ZM151.057 148.335L161.145 141.803L164.084 146.343L153.996 152.874L151.057 148.335ZM138.455 156.493L148.543 149.962L151.482 154.502L141.394 161.033L138.455 156.493ZM125.854 164.652L135.941 158.121L138.881 162.66L128.793 169.192L125.854 164.652ZM113.252 172.811L123.34 166.28L126.279 170.819L116.191 177.351L113.252 172.811ZM100.65 180.97L110.738 174.439L113.677 178.978L103.589 185.509L100.65 180.97ZM88.0485 189.129L98.1364 182.597L101.076 187.137L90.9876 193.668L88.0485 189.129ZM75.4468 197.288L85.5347 190.756L88.4738 195.296L78.3859 201.827L75.4468 197.288ZM62.8451 205.446L72.9331 198.915L75.8722 203.455L65.7842 209.986L62.8451 205.446Z"/>
</mask>
<path d="M289.676 58.5871L299.763 52.0558L302.703 56.5953L292.615 63.1267L289.676 58.5871ZM277.074 66.7459L287.162 60.2146L290.101 64.7542L280.013 71.2855L277.074 66.7459ZM264.472 74.9048L274.56 68.3735L277.499 72.913L267.411 79.4444L264.472 74.9048ZM251.87 83.0637L261.958 76.5323L264.897 81.0719L254.81 87.6032L251.87 83.0637ZM239.269 91.2225L249.357 84.6912L252.296 89.2307L242.208 95.7621L239.269 91.2225ZM226.667 99.3814L236.755 92.85L239.694 97.3896L229.606 103.921L226.667 99.3814ZM214.065 107.54L224.153 101.009L227.092 105.548L217.005 112.08L214.065 107.54ZM201.464 115.699L211.552 109.168L214.491 113.707L204.403 120.239L201.464 115.699ZM188.862 123.858L198.95 117.327L201.889 121.866L191.801 128.397L188.862 123.858ZM176.26 132.017L186.348 125.485L189.287 130.025L179.199 136.556L176.26 132.017ZM163.659 140.176L173.747 133.644L176.686 138.184L166.598 144.715L163.659 140.176ZM151.057 148.335L161.145 141.803L164.084 146.343L153.996 152.874L151.057 148.335ZM138.455 156.493L148.543 149.962L151.482 154.502L141.394 161.033L138.455 156.493ZM125.854 164.652L135.941 158.121L138.881 162.66L128.793 169.192L125.854 164.652ZM113.252 172.811L123.34 166.28L126.279 170.819L116.191 177.351L113.252 172.811ZM100.65 180.97L110.738 174.439L113.677 178.978L103.589 185.509L100.65 180.97ZM88.0485 189.129L98.1364 182.597L101.076 187.137L90.9876 193.668L88.0485 189.129ZM75.4468 197.288L85.5347 190.756L88.4738 195.296L78.3859 201.827L75.4468 197.288ZM62.8451 205.446L72.9331 198.915L75.8722 203.455L65.7842 209.986L62.8451 205.446Z" fill="black"/>
<path d="M289.676 58.5871L289.132 57.7477L288.293 58.2911L288.836 59.1306L289.676 58.5871ZM299.763 52.0558L300.603 51.5123L300.059 50.6729L299.22 51.2163L299.763 52.0558ZM302.703 56.5953L303.246 57.4347L304.085 56.8913L303.542 56.0518L302.703 56.5953ZM292.615 63.1267L291.775 63.6701L292.319 64.5096L293.158 63.9661L292.615 63.1267ZM289.676 58.5871L290.219 59.4265L300.307 52.8952L299.763 52.0558L299.22 51.2163L289.132 57.7477L289.676 58.5871ZM299.763 52.0558L298.924 52.5992L301.863 57.1388L302.703 56.5953L303.542 56.0518L300.603 51.5123L299.763 52.0558ZM302.703 56.5953L302.159 55.7559L292.071 62.2872L292.615 63.1267L293.158 63.9661L303.246 57.4347L302.703 56.5953ZM292.615 63.1267L293.454 62.5832L290.515 58.0436L289.676 58.5871L288.836 59.1306L291.775 63.6701L292.615 63.1267ZM277.074 66.7459L276.53 65.9065L275.691 66.45L276.234 67.2894L277.074 66.7459ZM287.162 60.2146L288.001 59.6711L287.458 58.8317L286.618 59.3752L287.162 60.2146ZM290.101 64.7542L290.644 65.5936L291.484 65.0501L290.94 64.2107L290.101 64.7542ZM280.013 71.2855L279.174 71.829L279.717 72.6684L280.556 72.1249L280.013 71.2855ZM277.074 66.7459L277.617 67.5854L287.705 61.054L287.162 60.2146L286.618 59.3752L276.53 65.9065L277.074 66.7459ZM287.162 60.2146L286.322 60.7581L289.261 65.2977L290.101 64.7542L290.94 64.2107L288.001 59.6711L287.162 60.2146ZM290.101 64.7542L289.557 63.9148L279.469 70.4461L280.013 71.2855L280.556 72.1249L290.644 65.5936L290.101 64.7542ZM280.013 71.2855L280.852 70.742L277.913 66.2025L277.074 66.7459L276.234 67.2894L279.174 71.829L280.013 71.2855ZM264.472 74.9048L263.929 74.0654L263.089 74.6089L263.633 75.4483L264.472 74.9048ZM274.56 68.3735L275.4 67.83L274.856 66.9906L274.017 67.534L274.56 68.3735ZM277.499 72.913L278.043 73.7525L278.882 73.209L278.339 72.3696L277.499 72.913ZM267.411 79.4444L266.572 79.9878L267.115 80.8273L267.955 80.2838L267.411 79.4444ZM264.472 74.9048L265.016 75.7442L275.104 69.2129L274.56 68.3735L274.017 67.534L263.929 74.0654L264.472 74.9048ZM274.56 68.3735L273.721 68.9169L276.66 73.4565L277.499 72.913L278.339 72.3696L275.4 67.83L274.56 68.3735ZM277.499 72.913L276.956 72.0736L266.868 78.6049L267.411 79.4444L267.955 80.2838L278.043 73.7525L277.499 72.913ZM267.411 79.4444L268.251 78.9009L265.312 74.3613L264.472 74.9048L263.633 75.4483L266.572 79.9878L267.411 79.4444ZM251.87 83.0637L251.327 82.2242L250.488 82.7677L251.031 83.6071L251.87 83.0637ZM261.958 76.5323L262.798 75.9888L262.254 75.1494L261.415 75.6929L261.958 76.5323ZM264.897 81.0719L265.441 81.9113L266.28 81.3678L265.737 80.5284L264.897 81.0719ZM254.81 87.6032L253.97 88.1467L254.514 88.9861L255.353 88.4426L254.81 87.6032ZM251.87 83.0637L252.414 83.9031L262.502 77.3717L261.958 76.5323L261.415 75.6929L251.327 82.2242L251.87 83.0637ZM261.958 76.5323L261.119 77.0758L264.058 81.6154L264.897 81.0719L265.737 80.5284L262.798 75.9888L261.958 76.5323ZM264.897 81.0719L264.354 80.2325L254.266 86.7638L254.81 87.6032L255.353 88.4426L265.441 81.9113L264.897 81.0719ZM254.81 87.6032L255.649 87.0597L252.71 82.5202L251.87 83.0637L251.031 83.6071L253.97 88.1467L254.81 87.6032ZM239.269 91.2225L238.725 90.3831L237.886 90.9266L238.429 91.766L239.269 91.2225ZM249.357 84.6912L250.196 84.1477L249.653 83.3083L248.813 83.8518L249.357 84.6912ZM252.296 89.2307L252.839 90.0702L253.679 89.5267L253.135 88.6873L252.296 89.2307ZM242.208 95.7621L241.368 96.3056L241.912 97.145L242.751 96.6015L242.208 95.7621ZM239.269 91.2225L239.812 92.0619L249.9 85.5306L249.357 84.6912L248.813 83.8518L238.725 90.3831L239.269 91.2225ZM249.357 84.6912L248.517 85.2347L251.456 89.7742L252.296 89.2307L253.135 88.6873L250.196 84.1477L249.357 84.6912ZM252.296 89.2307L251.752 88.3913L241.664 94.9227L242.208 95.7621L242.751 96.6015L252.839 90.0702L252.296 89.2307ZM242.208 95.7621L243.047 95.2186L240.108 90.679L239.269 91.2225L238.429 91.766L241.368 96.3056L242.208 95.7621ZM226.667 99.3814L226.124 98.5419L225.284 99.0854L225.828 99.9248L226.667 99.3814ZM236.755 92.85L237.594 92.3066L237.051 91.4671L236.212 92.0106L236.755 92.85ZM239.694 97.3896L240.238 98.229L241.077 97.6855L240.534 96.8461L239.694 97.3896ZM229.606 103.921L228.767 104.464L229.31 105.304L230.15 104.76L229.606 103.921ZM226.667 99.3814L227.211 100.221L237.298 93.6895L236.755 92.85L236.212 92.0106L226.124 98.5419L226.667 99.3814ZM236.755 92.85L235.916 93.3935L238.855 97.9331L239.694 97.3896L240.534 96.8461L237.594 92.3066L236.755 92.85ZM239.694 97.3896L239.151 96.5502L229.063 103.082L229.606 103.921L230.15 104.76L240.238 98.229L239.694 97.3896ZM229.606 103.921L230.446 103.377L227.507 98.8379L226.667 99.3814L225.828 99.9248L228.767 104.464L229.606 103.921ZM214.065 107.54L213.522 106.701L212.682 107.244L213.226 108.084L214.065 107.54ZM224.153 101.009L224.993 100.465L224.449 99.626L223.61 100.169L224.153 101.009ZM227.092 105.548L227.636 106.388L228.475 105.844L227.932 105.005L227.092 105.548ZM217.005 112.08L216.165 112.623L216.709 113.463L217.548 112.919L217.005 112.08ZM214.065 107.54L214.609 108.38L224.697 101.848L224.153 101.009L223.61 100.169L213.522 106.701L214.065 107.54ZM224.153 101.009L223.314 101.552L226.253 106.092L227.092 105.548L227.932 105.005L224.993 100.465L224.153 101.009ZM227.092 105.548L226.549 104.709L216.461 111.24L217.005 112.08L217.548 112.919L227.636 106.388L227.092 105.548ZM217.005 112.08L217.844 111.536L214.905 106.997L214.065 107.54L213.226 108.084L216.165 112.623L217.005 112.08ZM201.464 115.699L200.92 114.86L200.081 115.403L200.624 116.243L201.464 115.699ZM211.552 109.168L212.391 108.624L211.848 107.785L211.008 108.328L211.552 109.168ZM214.491 113.707L215.034 114.547L215.874 114.003L215.33 113.164L214.491 113.707ZM204.403 120.239L203.563 120.782L204.107 121.622L204.946 121.078L204.403 120.239ZM201.464 115.699L202.007 116.539L212.095 110.007L211.552 109.168L211.008 108.328L200.92 114.86L201.464 115.699ZM211.552 109.168L210.712 109.711L213.651 114.251L214.491 113.707L215.33 113.164L212.391 108.624L211.552 109.168ZM214.491 113.707L213.947 112.868L203.859 119.399L204.403 120.239L204.946 121.078L215.034 114.547L214.491 113.707ZM204.403 120.239L205.242 119.695L202.303 115.156L201.464 115.699L200.624 116.243L203.563 120.782L204.403 120.239ZM188.862 123.858L188.319 123.019L187.479 123.562L188.023 124.401L188.862 123.858ZM198.95 117.327L199.789 116.783L199.246 115.944L198.406 116.487L198.95 117.327ZM201.889 121.866L202.433 122.706L203.272 122.162L202.728 121.323L201.889 121.866ZM191.801 128.397L190.962 128.941L191.505 129.78L192.345 129.237L191.801 128.397ZM188.862 123.858L189.406 124.697L199.493 118.166L198.95 117.327L198.406 116.487L188.319 123.019L188.862 123.858ZM198.95 117.327L198.111 117.87L201.05 122.41L201.889 121.866L202.728 121.323L199.789 116.783L198.95 117.327ZM201.889 121.866L201.346 121.027L191.258 127.558L191.801 128.397L192.345 129.237L202.433 122.706L201.889 121.866ZM191.801 128.397L192.641 127.854L189.701 123.314L188.862 123.858L188.023 124.401L190.962 128.941L191.801 128.397ZM176.26 132.017L175.717 131.177L174.877 131.721L175.421 132.56L176.26 132.017ZM186.348 125.485L187.188 124.942L186.644 124.103L185.805 124.646L186.348 125.485ZM189.287 130.025L189.831 130.864L190.67 130.321L190.127 129.482L189.287 130.025ZM179.199 136.556L178.36 137.1L178.903 137.939L179.743 137.396L179.199 136.556ZM176.26 132.017L176.804 132.856L186.892 126.325L186.348 125.485L185.805 124.646L175.717 131.177L176.26 132.017ZM186.348 125.485L185.509 126.029L188.448 130.568L189.287 130.025L190.127 129.482L187.188 124.942L186.348 125.485ZM189.287 130.025L188.744 129.186L178.656 135.717L179.199 136.556L179.743 137.396L189.831 130.864L189.287 130.025ZM179.199 136.556L180.039 136.013L177.1 131.473L176.26 132.017L175.421 132.56L178.36 137.1L179.199 136.556ZM163.659 140.176L163.115 139.336L162.276 139.88L162.819 140.719L163.659 140.176ZM173.747 133.644L174.586 133.101L174.043 132.261L173.203 132.805L173.747 133.644ZM176.686 138.184L177.229 139.023L178.069 138.48L177.525 137.64L176.686 138.184ZM166.598 144.715L165.758 145.259L166.302 146.098L167.141 145.555L166.598 144.715ZM163.659 140.176L164.202 141.015L174.29 134.484L173.747 133.644L173.203 132.805L163.115 139.336L163.659 140.176ZM173.747 133.644L172.907 134.188L175.846 138.727L176.686 138.184L177.525 137.64L174.586 133.101L173.747 133.644ZM176.686 138.184L176.142 137.344L166.054 143.876L166.598 144.715L167.141 145.555L177.229 139.023L176.686 138.184ZM166.598 144.715L167.437 144.172L164.498 139.632L163.659 140.176L162.819 140.719L165.758 145.259L166.598 144.715ZM151.057 148.335L150.513 147.495L149.674 148.039L150.218 148.878L151.057 148.335ZM161.145 141.803L161.984 141.26L161.441 140.42L160.601 140.964L161.145 141.803ZM164.084 146.343L164.627 147.182L165.467 146.639L164.923 145.799L164.084 146.343ZM153.996 152.874L153.157 153.418L153.7 154.257L154.54 153.713L153.996 152.874ZM151.057 148.335L151.6 149.174L161.688 142.643L161.145 141.803L160.601 140.964L150.513 147.495L151.057 148.335ZM161.145 141.803L160.305 142.347L163.245 146.886L164.084 146.343L164.923 145.799L161.984 141.26L161.145 141.803ZM164.084 146.343L163.54 145.503L153.453 152.035L153.996 152.874L154.54 153.713L164.627 147.182L164.084 146.343ZM153.996 152.874L154.835 152.331L151.896 147.791L151.057 148.335L150.218 148.878L153.157 153.418L153.996 152.874ZM138.455 156.493L137.912 155.654L137.072 156.197L137.616 157.037L138.455 156.493ZM148.543 149.962L149.383 149.419L148.839 148.579L148 149.123L148.543 149.962ZM151.482 154.502L152.026 155.341L152.865 154.798L152.322 153.958L151.482 154.502ZM141.394 161.033L140.555 161.576L141.098 162.416L141.938 161.872L141.394 161.033ZM138.455 156.493L138.999 157.333L149.087 150.801L148.543 149.962L148 149.123L137.912 155.654L138.455 156.493ZM148.543 149.962L147.704 150.506L150.643 155.045L151.482 154.502L152.322 153.958L149.383 149.419L148.543 149.962ZM151.482 154.502L150.939 153.662L140.851 160.193L141.394 161.033L141.938 161.872L152.026 155.341L151.482 154.502ZM141.394 161.033L142.234 160.489L139.295 155.95L138.455 156.493L137.616 157.037L140.555 161.576L141.394 161.033ZM125.854 164.652L125.31 163.813L124.471 164.356L125.014 165.196L125.854 164.652ZM135.941 158.121L136.781 157.577L136.237 156.738L135.398 157.281L135.941 158.121ZM138.881 162.66L139.424 163.5L140.263 162.956L139.72 162.117L138.881 162.66ZM128.793 169.192L127.953 169.735L128.497 170.575L129.336 170.031L128.793 169.192ZM125.854 164.652L126.397 165.492L136.485 158.96L135.941 158.121L135.398 157.281L125.31 163.813L125.854 164.652ZM135.941 158.121L135.102 158.664L138.041 163.204L138.881 162.66L139.72 162.117L136.781 157.577L135.941 158.121ZM138.881 162.66L138.337 161.821L128.249 168.352L128.793 169.192L129.336 170.031L139.424 163.5L138.881 162.66ZM128.793 169.192L129.632 168.648L126.693 164.109L125.854 164.652L125.014 165.196L127.953 169.735L128.793 169.192ZM113.252 172.811L112.708 171.972L111.869 172.515L112.412 173.355L113.252 172.811ZM123.34 166.28L124.179 165.736L123.636 164.897L122.796 165.44L123.34 166.28ZM126.279 170.819L126.822 171.659L127.662 171.115L127.118 170.276L126.279 170.819ZM116.191 177.351L115.352 177.894L115.895 178.734L116.734 178.19L116.191 177.351ZM113.252 172.811L113.795 173.65L123.883 167.119L123.34 166.28L122.796 165.44L112.708 171.972L113.252 172.811ZM123.34 166.28L122.5 166.823L125.439 171.363L126.279 170.819L127.118 170.276L124.179 165.736L123.34 166.28ZM126.279 170.819L125.735 169.98L115.648 176.511L116.191 177.351L116.734 178.19L126.822 171.659L126.279 170.819ZM116.191 177.351L117.03 176.807L114.091 172.268L113.252 172.811L112.412 173.355L115.352 177.894L116.191 177.351ZM100.65 180.97L100.107 180.131L99.2673 180.674L99.8108 181.513L100.65 180.97ZM110.738 174.439L111.578 173.895L111.034 173.056L110.195 173.599L110.738 174.439ZM113.677 178.978L114.221 179.818L115.06 179.274L114.517 178.435L113.677 178.978ZM103.589 185.509L102.75 186.053L103.293 186.892L104.133 186.349L103.589 185.509ZM100.65 180.97L101.194 181.809L111.282 175.278L110.738 174.439L110.195 173.599L100.107 180.131L100.65 180.97ZM110.738 174.439L109.899 174.982L112.838 179.522L113.677 178.978L114.517 178.435L111.578 173.895L110.738 174.439ZM113.677 178.978L113.134 178.139L103.046 184.67L103.589 185.509L104.133 186.349L114.221 179.818L113.677 178.978ZM103.589 185.509L104.429 184.966L101.49 180.426L100.65 180.97L99.8108 181.513L102.75 186.053L103.589 185.509ZM88.0485 189.129L87.505 188.289L86.6656 188.833L87.2091 189.672L88.0485 189.129ZM98.1364 182.597L98.9759 182.054L98.4324 181.215L97.593 181.758L98.1364 182.597ZM101.076 187.137L101.619 187.976L102.458 187.433L101.915 186.594L101.076 187.137ZM90.9876 193.668L90.1482 194.212L90.6917 195.051L91.5311 194.508L90.9876 193.668ZM88.0485 189.129L88.592 189.968L98.6799 183.437L98.1364 182.597L97.593 181.758L87.505 188.289L88.0485 189.129ZM98.1364 182.597L97.297 183.141L100.236 187.68L101.076 187.137L101.915 186.594L98.9759 182.054L98.1364 182.597ZM101.076 187.137L100.532 186.298L90.4441 192.829L90.9876 193.668L91.5311 194.508L101.619 187.976L101.076 187.137ZM90.9876 193.668L91.827 193.125L88.8879 188.585L88.0485 189.129L87.2091 189.672L90.1482 194.212L90.9876 193.668ZM75.4468 197.288L74.9034 196.448L74.0639 196.992L74.6074 197.831L75.4468 197.288ZM85.5348 190.756L86.3742 190.213L85.8307 189.373L84.9913 189.917L85.5348 190.756ZM88.4739 195.296L89.0173 196.135L89.8567 195.592L89.3133 194.752L88.4739 195.296ZM78.3859 201.827L77.5465 202.371L78.09 203.21L78.9294 202.667L78.3859 201.827ZM75.4468 197.288L75.9903 198.127L86.0782 191.596L85.5348 190.756L84.9913 189.917L74.9034 196.448L75.4468 197.288ZM85.5348 190.756L84.6953 191.3L87.6344 195.839L88.4739 195.296L89.3133 194.752L86.3742 190.213L85.5348 190.756ZM88.4739 195.296L87.9304 194.456L77.8425 200.988L78.3859 201.827L78.9294 202.667L89.0173 196.135L88.4739 195.296ZM78.3859 201.827L79.2254 201.284L76.2863 196.744L75.4468 197.288L74.6074 197.831L77.5465 202.371L78.3859 201.827ZM62.8452 205.446L62.3017 204.607L61.4623 205.151L62.0057 205.99L62.8452 205.446ZM72.9331 198.915L73.7725 198.372L73.229 197.532L72.3896 198.076L72.9331 198.915ZM75.8722 203.455L76.4157 204.294L77.2551 203.751L76.7116 202.911L75.8722 203.455ZM65.7843 209.986L64.9448 210.53L65.4883 211.369L66.3277 210.825L65.7843 209.986ZM62.8452 205.446L63.3886 206.286L73.4765 199.755L72.9331 198.915L72.3896 198.076L62.3017 204.607L62.8452 205.446ZM72.9331 198.915L72.0936 199.459L75.0327 203.998L75.8722 203.455L76.7116 202.911L73.7725 198.372L72.9331 198.915ZM75.8722 203.455L75.3287 202.615L65.2408 209.147L65.7843 209.986L66.3277 210.825L76.4157 204.294L75.8722 203.455ZM65.7843 209.986L66.6237 209.443L63.6846 204.903L62.8452 205.446L62.0057 205.99L64.9448 210.53L65.7843 209.986Z" fill="#FAFAFA" mask="url(#path-16-outside-5_259_156)"/>
<rect x="382.955" y="150.186" width="121" height="24" rx="3" transform="rotate(147.079 382.955 150.186)" fill="#690000"/>
<rect x="202.764" y="276.788" width="79.4537" height="26.874" rx="3.50531" transform="rotate(119.651 202.764 276.788)" fill="black"/>
<rect x="205.111" y="329.653" width="79.4537" height="26.874" rx="3.50531" transform="rotate(-162.116 205.111 329.653)" fill="black"/>
<rect x="407.955" y="188.8" width="68" height="23" rx="3" transform="rotate(147.079 407.955 188.8)" fill="black"/>
<rect x="301.16" y="106.649" width="76" height="11" rx="3" transform="rotate(147.079 301.16 106.649)" fill="black"/>
<path d="M154.932 151.275C155.833 152.666 155.435 154.524 154.044 155.424L104.518 187.489C103.128 188.39 101.27 187.992 100.37 186.601L97.6523 182.404C96.7518 181.013 97.1493 179.156 98.5401 178.256L148.066 146.19C149.457 145.29 151.314 145.687 152.215 147.078L154.932 151.275Z" fill="black"/>
<rect x="291.156" y="65.6592" width="29.9803" height="11" rx="3" transform="rotate(147.079 291.156 65.6592)" fill="black"/>
</svg>
