<svg width="406" height="429" viewBox="0 0 406 429" fill="none" xmlns="http://www.w3.org/2000/svg">
<rect x="409.793" y="286.481" width="244" height="365" rx="25" transform="rotate(142.888 409.793 286.481)" fill="#898989" stroke="#FAFAFA" stroke-width="10"/>
<path d="M377.754 273.969C381.19 278.51 380.294 284.976 375.753 288.411L309.261 338.721C304.72 342.156 298.254 341.261 294.818 336.72L219.167 236.734C215.731 232.194 216.627 225.728 221.168 222.292L287.66 171.982C292.201 168.547 298.667 169.443 302.103 173.983L377.754 273.969Z" fill="white"/>
<circle cx="308.128" cy="247.411" r="19.5" transform="rotate(52.888 308.128 247.411)" fill="#3A3A3A"/>
<path d="M291.28 307.182C281.358 294.069 281.285 293.972 268.955 277.677C256.625 261.381 256.552 261.284 246.63 248.171C262.045 236.507 284.536 240.263 296.866 256.558C309.196 272.854 306.695 295.519 291.28 307.182Z" fill="#3A3A3A"/>
<rect x="247.994" y="301.341" width="75" height="258.22" rx="10.8547" transform="rotate(142.888 247.994 301.341)" fill="white"/>
<rect x="218.498" y="75.0879" width="19" height="61" rx="2.80235" transform="rotate(142.888 218.498 75.0879)" fill="white"/>
<rect x="281.25" y="158.023" width="19" height="93" rx="2.80235" transform="rotate(142.888 281.25 158.023)" fill="white"/>
<path d="M113.667 104.899L106.416 95.3151L110.729 92.0521L117.98 101.636L113.667 104.899ZM122.725 116.87L115.474 107.287L119.787 104.024L127.038 113.607L122.725 116.87ZM131.783 128.842L124.532 119.258L128.845 115.995L136.096 125.579L131.783 128.842ZM140.841 140.814L133.59 131.23L137.903 127.967L145.154 137.551L140.841 140.814ZM149.899 152.785L142.648 143.202L146.961 139.939L154.212 149.522L149.899 152.785Z" fill="black"/>
<path d="M184.64 51.1984L177.389 41.6148L181.701 38.3518L188.952 47.9354L184.64 51.1984ZM193.698 63.1701L186.447 53.5865L190.759 50.3235L198.011 59.907L193.698 63.1701ZM202.756 75.1417L195.505 65.5582L199.817 62.2951L207.069 71.8787L202.756 75.1417Z" fill="black"/>
<path d="M228.687 109.413L221.436 99.8292L225.748 96.5661L232.999 106.15L228.687 109.413ZM237.745 121.384L230.494 111.801L234.806 108.538L242.057 118.121L237.745 121.384ZM246.803 133.356L239.552 123.773L243.864 120.509L251.115 130.093L246.803 133.356ZM255.861 145.328L248.61 135.744L252.922 132.481L260.174 142.065L255.861 145.328ZM264.919 157.299L257.668 147.716L261.98 144.453L269.232 154.036L264.919 157.299Z" fill="black"/>
<path d="M89.9582 126.599L82.7071 117.016L87.0197 113.753L94.2708 123.336L89.9582 126.599ZM99.0163 138.571L91.7651 128.987L96.0777 125.724L103.329 135.308L99.0163 138.571ZM108.074 150.543L100.823 140.959L105.136 137.696L112.387 147.279L108.074 150.543ZM117.132 162.514L109.881 152.931L114.194 149.668L121.445 159.251L117.132 162.514ZM126.19 174.486L118.939 164.902L123.252 161.639L130.503 171.223L126.19 174.486ZM135.248 186.458L127.997 176.874L132.31 173.611L139.561 183.195L135.248 186.458ZM144.307 198.429L137.055 188.846L141.368 185.583L148.619 195.166L144.307 198.429ZM153.365 210.401L146.113 200.817L150.426 197.554L157.677 207.138L153.365 210.401ZM162.423 222.373L155.171 212.789L159.484 209.526L166.735 219.11L162.423 222.373ZM171.481 234.344L164.23 224.761L168.542 221.498L175.793 231.081L171.481 234.344Z" fill="black"/>
<path d="M74.009 138.667L66.7578 129.083L71.0704 125.82L78.3216 135.404L74.009 138.667ZM83.0671 150.638L75.8159 141.055L80.1285 137.792L87.3797 147.375L83.0671 150.638ZM92.1251 162.61L84.8739 153.026L89.1866 149.763L96.4377 159.347L92.1251 162.61ZM101.183 174.582L93.932 164.998L98.2446 161.735L105.496 171.319L101.183 174.582ZM110.241 186.553L102.99 176.97L107.303 173.707L114.554 183.29L110.241 186.553ZM119.299 198.525L112.048 188.941L116.361 185.678L123.612 195.262L119.299 198.525ZM128.357 210.497L121.106 200.913L125.419 197.65L132.67 207.234L128.357 210.497ZM137.415 222.468L130.164 212.885L134.477 209.622L141.728 219.205L137.415 222.468ZM146.473 234.44L139.222 224.857L143.535 221.593L150.786 231.177L146.473 234.44ZM155.531 246.412L148.28 236.828L152.593 233.565L159.844 243.149L155.531 246.412ZM164.59 258.383L157.338 248.8L161.651 245.537L168.902 255.12L164.59 258.383ZM173.648 270.355L166.396 260.772L170.709 257.509L177.96 267.092L173.648 270.355ZM182.706 282.327L175.454 272.743L179.767 269.48L187.018 279.064L182.706 282.327ZM191.764 294.299L184.513 284.715L188.825 281.452L196.076 291.035L191.764 294.299ZM200.822 306.27L193.571 296.687L197.883 293.424L205.134 303.007L200.822 306.27Z" fill="black"/>
<path d="M74.009 138.667L66.7578 129.083L71.0704 125.82L78.3216 135.404L74.009 138.667ZM83.0671 150.638L75.8159 141.055L80.1285 137.792L87.3797 147.375L83.0671 150.638ZM92.1251 162.61L84.8739 153.026L89.1866 149.763L96.4377 159.347L92.1251 162.61ZM101.183 174.582L93.932 164.998L98.2446 161.735L105.496 171.319L101.183 174.582ZM110.241 186.553L102.99 176.97L107.303 173.707L114.554 183.29L110.241 186.553ZM119.299 198.525L112.048 188.941L116.361 185.678L123.612 195.262L119.299 198.525ZM128.357 210.497L121.106 200.913L125.419 197.65L132.67 207.234L128.357 210.497ZM137.415 222.468L130.164 212.885L134.477 209.622L141.728 219.205L137.415 222.468ZM146.473 234.44L139.222 224.857L143.535 221.593L150.786 231.177L146.473 234.44ZM155.531 246.412L148.28 236.828L152.593 233.565L159.844 243.149L155.531 246.412ZM164.59 258.383L157.338 248.8L161.651 245.537L168.902 255.12L164.59 258.383ZM173.648 270.355L166.396 260.772L170.709 257.509L177.96 267.092L173.648 270.355ZM182.706 282.327L175.454 272.743L179.767 269.48L187.018 279.064L182.706 282.327ZM191.764 294.299L184.513 284.715L188.825 281.452L196.076 291.035L191.764 294.299ZM200.822 306.27L193.571 296.687L197.883 293.424L205.134 303.007L200.822 306.27Z" fill="black"/>
<path d="M58.8567 150.131L51.6055 140.547L55.9181 137.284L63.1693 146.868L58.8567 150.131ZM67.9147 162.102L60.6635 152.519L64.9762 149.256L72.2273 158.839L67.9147 162.102ZM76.9728 174.074L69.7216 164.491L74.0342 161.228L81.2854 170.811L76.9728 174.074ZM86.0308 186.046L78.7797 176.462L83.0923 173.199L90.3434 182.783L86.0308 186.046ZM95.0889 198.017L87.8377 188.434L92.1503 185.171L99.4015 194.754L95.0889 198.017ZM104.147 209.989L96.8958 200.406L101.208 197.143L108.46 206.726L104.147 209.989ZM113.205 221.961L105.954 212.377L110.266 209.114L117.518 218.698L113.205 221.961ZM122.263 233.933L115.012 224.349L119.324 221.086L126.576 230.669L122.263 233.933ZM131.321 245.904L124.07 236.321L128.383 233.058L135.634 242.641L131.321 245.904ZM140.379 257.876L133.128 248.292L137.441 245.029L144.692 254.613L140.379 257.876Z" fill="black"/>
<rect x="156.777" y="46.5485" width="41" height="24" rx="3" transform="rotate(52.888 156.777 46.5485)" fill="#E8C162"/>
</svg>
