<svg width="410" height="318" viewBox="0 0 410 318" fill="none" xmlns="http://www.w3.org/2000/svg">
<rect x="409.081" y="78.5504" width="244" height="365" rx="25" transform="rotate(102.392 409.081 78.5504)" fill="#898989" stroke="#FAFAFA" stroke-width="10"/>
<path d="M376.592 89.8414C382.154 91.0633 385.672 96.5622 384.45 102.124L366.557 183.561C365.335 189.123 359.836 192.64 354.275 191.419L231.815 164.513C226.254 163.291 222.736 157.792 223.958 152.231L241.851 70.7929C243.073 65.2316 248.572 61.7138 254.133 62.9357L376.592 89.8414Z" fill="white"/>
<rect x="334.68" y="216.805" width="75" height="306" rx="4" transform="rotate(102.392 334.68 216.805)" fill="#4F53DD"/>
<rect x="200.139" y="153.458" width="22" height="161" rx="3" transform="rotate(102.392 200.139 153.458)" fill="#4F53DD"/>
<rect x="357.662" y="256.666" width="41" height="24" rx="3" transform="rotate(102.392 357.662 256.666)" fill="#E8C162"/>
<rect x="66.6367" y="24.812" width="67" height="24" rx="3" transform="rotate(12.3916 66.6367 24.812)" fill="#690000"/>
<rect x="147.703" y="42.6233" width="67" height="24" rx="3" transform="rotate(12.3916 147.703 42.6233)" fill="#690000"/>
<path d="M311.656 90.9318L315.567 119.068L339.473 134.414L311.336 138.326L295.99 162.231L292.079 134.095L268.173 118.749L296.31 114.837L311.656 90.9318Z" fill="black"/>
</svg>
