<svg width="429" height="408" viewBox="0 0 429 408" fill="none" xmlns="http://www.w3.org/2000/svg">
<rect x="-4.56011" y="187.525" width="244" height="365" rx="25" transform="rotate(-52.1265 -4.56011 187.525)" fill="#898989" stroke="#FAFAFA" stroke-width="10"/>
<path d="M29.6259 191.31C25.1312 187.815 24.3214 181.337 27.817 176.843L79.0058 111.025C82.5014 106.53 88.9788 105.72 93.4735 109.216L192.445 186.19C196.939 189.685 197.749 196.163 194.254 200.657L143.065 266.475C139.569 270.97 133.092 271.779 128.597 268.284L29.6259 191.31Z" fill="white"/>
<circle cx="103.756" cy="198.924" r="19.5" transform="rotate(-142.127 103.756 198.924)" fill="#3A3A3A"/>
<path d="M104.544 136.828C117.525 146.924 117.62 146.998 133.751 159.543C149.881 172.088 149.976 172.163 162.957 182.258C151.09 197.517 128.394 199.716 112.263 187.171C96.133 174.626 92.6769 152.087 104.544 136.828Z" fill="#3A3A3A"/>
<rect x="110.156" y="101.921" width="75" height="306" rx="10.8547" transform="rotate(-52.1265 110.156 101.921)" fill="white"/>
<rect x="234.968" y="342.144" width="19" height="61" rx="2.80235" transform="rotate(-52.1265 234.968 342.144)" fill="white"/>
<rect x="152.872" y="278.296" width="19" height="93" rx="2.80235" transform="rotate(-52.1265 152.872 278.296)" fill="white"/>
<path d="M328.497 286.193L337.983 293.571L334.663 297.84L325.177 290.462L328.497 286.193ZM316.647 276.976L326.133 284.354L322.813 288.623L313.327 281.245L316.647 276.976ZM304.797 267.76L314.283 275.138L310.963 279.407L301.477 272.029L304.797 267.76ZM292.946 258.544L302.433 265.922L299.113 270.19L289.626 262.813L292.946 258.544ZM281.096 249.327L290.582 256.705L287.262 260.974L277.776 253.596L281.096 249.327Z" fill="black"/>
<path d="M273.858 356.447L283.345 363.824L280.025 368.093L270.538 360.715L273.858 356.447ZM262.008 347.23L271.495 354.608L268.174 358.877L258.688 351.499L262.008 347.23ZM250.158 338.014L259.644 345.392L256.324 349.661L246.838 342.283L250.158 338.014Z" fill="black"/>
<path d="M216.235 311.63L225.722 319.008L222.402 323.277L212.915 315.899L216.235 311.63ZM204.385 302.414L213.871 309.792L210.551 314.061L201.065 306.683L204.385 302.414ZM192.535 293.198L202.021 300.576L198.701 304.844L189.215 297.467L192.535 293.198ZM180.685 283.981L190.171 291.359L186.851 295.628L177.365 288.25L180.685 283.981ZM168.834 274.765L178.321 282.143L175.001 286.412L165.514 279.034L168.834 274.765Z" fill="black"/>
<path d="M345.774 259.091L355.261 266.469L351.941 270.738L342.454 263.36L345.774 259.091ZM333.924 249.875L343.411 257.253L340.09 261.522L330.604 254.144L333.924 249.875ZM322.074 240.658L331.56 248.036L328.24 252.305L318.754 244.927L322.074 240.658ZM310.224 231.442L319.71 238.82L316.39 243.089L306.904 235.711L310.224 231.442ZM298.373 222.226L307.86 229.604L304.54 233.873L295.053 226.495L298.373 222.226ZM286.523 213.009L296.01 220.387L292.69 224.656L283.203 217.278L286.523 213.009ZM274.673 203.793L284.159 211.171L280.839 215.44L271.353 208.062L274.673 203.793ZM262.823 194.577L272.309 201.955L268.989 206.223L259.503 198.846L262.823 194.577ZM250.972 185.36L260.459 192.738L257.139 197.007L247.652 189.629L250.972 185.36ZM239.122 176.144L248.609 183.522L245.289 187.791L235.802 180.413L239.122 176.144ZM227.272 166.928L236.758 174.306L233.438 178.574L223.952 171.197L227.272 166.928ZM215.422 157.711L224.908 165.089L221.588 169.358L212.102 161.98L215.422 157.711ZM203.571 148.495L213.058 155.873L209.738 160.142L200.251 152.764L203.571 148.495ZM191.721 139.279L201.208 146.657L197.888 150.925L188.401 143.547L191.721 139.279ZM179.871 130.062L189.357 137.44L186.037 141.709L176.551 134.331L179.871 130.062ZM168.021 120.846L177.507 128.224L174.187 132.493L164.701 125.115L168.021 120.846ZM156.17 111.63L165.657 119.007L162.337 123.276L152.85 115.898L156.17 111.63Z" fill="black"/>
<path d="M358.054 243.304L367.54 250.682L364.22 254.95L354.734 247.573L358.054 243.304ZM346.203 234.087L355.69 241.465L352.37 245.734L342.883 238.356L346.203 234.087ZM334.353 224.871L343.84 232.249L340.52 236.518L331.033 229.14L334.353 224.871ZM322.503 215.655L331.989 223.033L328.669 227.301L319.183 219.924L322.503 215.655ZM310.653 206.438L320.139 213.816L316.819 218.085L307.333 210.707L310.653 206.438ZM298.802 197.222L308.289 204.6L304.969 208.869L295.482 201.491L298.802 197.222ZM286.952 188.006L296.439 195.383L293.119 199.652L283.632 192.274L286.952 188.006ZM275.102 178.789L284.588 186.167L281.268 190.436L271.782 183.058L275.102 178.789ZM263.252 169.573L272.738 176.951L269.418 181.22L259.932 173.842L263.252 169.573ZM251.401 160.357L260.888 167.734L257.568 172.003L248.081 164.625L251.401 160.357ZM239.551 151.14L249.038 158.518L245.718 162.787L236.231 155.409L239.551 151.14ZM227.701 141.924L237.187 149.302L233.867 153.571L224.381 146.193L227.701 141.924ZM215.851 132.708L225.337 140.085L222.017 144.354L212.531 136.976L215.851 132.708ZM204 123.491L213.487 130.869L210.167 135.138L200.68 127.76L204 123.491ZM192.15 114.275L201.637 121.653L198.317 125.922L188.83 118.544L192.15 114.275Z" fill="black"/>
<path d="M358.054 243.304L367.54 250.682L364.22 254.95L354.734 247.573L358.054 243.304ZM346.203 234.087L355.69 241.465L352.37 245.734L342.883 238.356L346.203 234.087ZM334.353 224.871L343.84 232.249L340.52 236.518L331.033 229.14L334.353 224.871ZM322.503 215.655L331.989 223.033L328.669 227.301L319.183 219.924L322.503 215.655ZM310.653 206.438L320.139 213.816L316.819 218.085L307.333 210.707L310.653 206.438ZM298.802 197.222L308.289 204.6L304.969 208.869L295.482 201.491L298.802 197.222ZM286.952 188.006L296.439 195.383L293.119 199.652L283.632 192.274L286.952 188.006ZM275.102 178.789L284.588 186.167L281.268 190.436L271.782 183.058L275.102 178.789ZM263.252 169.573L272.738 176.951L269.418 181.22L259.932 173.842L263.252 169.573ZM251.401 160.357L260.888 167.734L257.568 172.003L248.081 164.625L251.401 160.357ZM239.551 151.14L249.038 158.518L245.718 162.787L236.231 155.409L239.551 151.14ZM227.701 141.924L237.187 149.302L233.867 153.571L224.381 146.193L227.701 141.924ZM215.851 132.708L225.337 140.085L222.017 144.354L212.531 136.976L215.851 132.708ZM204 123.491L213.487 130.869L210.167 135.138L200.68 127.76L204 123.491ZM192.15 114.275L201.637 121.653L198.317 125.922L188.83 118.544L192.15 114.275Z" fill="black"/>
<path d="M369.718 228.306L379.204 235.684L375.884 239.952L366.398 232.575L369.718 228.306ZM357.868 219.089L367.354 226.467L364.034 230.736L354.547 223.358L357.868 219.089ZM346.017 209.873L355.504 217.251L352.184 221.52L342.697 214.142L346.017 209.873ZM334.167 200.657L343.653 208.035L340.333 212.303L330.847 204.926L334.167 200.657ZM322.317 191.44L331.803 198.818L328.483 203.087L318.997 195.709L322.317 191.44ZM310.467 182.224L319.953 189.602L316.633 193.871L307.146 186.493L310.467 182.224ZM298.616 173.008L308.103 180.386L304.783 184.654L295.296 177.276L298.616 173.008ZM286.766 163.791L296.252 171.169L292.932 175.438L283.446 168.06L286.766 163.791ZM274.916 154.575L284.402 161.953L281.082 166.222L271.596 158.844L274.916 154.575ZM263.066 145.359L272.552 152.736L269.232 157.005L259.746 149.627L263.066 145.359ZM251.215 136.142L260.702 143.52L257.382 147.789L247.895 140.411L251.215 136.142ZM239.365 126.926L248.851 134.304L245.531 138.573L236.045 131.195L239.365 126.926ZM227.515 117.71L237.001 125.087L233.681 129.356L224.195 121.978L227.515 117.71ZM215.665 108.493L225.151 115.871L221.831 120.14L212.345 112.762L215.665 108.493ZM203.814 99.2768L213.301 106.655L209.981 110.924L200.494 103.546L203.814 99.2768ZM191.964 90.0605L201.45 97.4384L198.13 101.707L188.644 94.3293L191.964 90.0605ZM180.114 80.8441L189.6 88.222L186.28 92.4909L176.794 85.113L180.114 80.8441ZM168.264 71.6278L177.75 79.0057L174.43 83.2745L164.944 75.8966L168.264 71.6278ZM156.413 62.4114L165.9 69.7893L162.58 74.0582L153.093 66.6803L156.413 62.4114Z" fill="black"/>
<rect x="301.976" y="353.719" width="41" height="24" rx="3" transform="rotate(-142.127 301.976 353.719)" fill="#E8C162"/>
</svg>
