<svg width="429" height="373" viewBox="0 0 429 373" fill="none" xmlns="http://www.w3.org/2000/svg">
<rect x="431.458" y="155.964" width="244" height="365" rx="25" transform="rotate(115.832 431.458 155.964)" fill="#898989" stroke="#FAFAFA" stroke-width="10"/>
<path d="M366.386 248.552C363.719 254.061 357.09 256.365 351.581 253.698L238.729 199.066C233.22 196.398 230.916 189.77 233.582 184.261L269.914 109.212C272.581 103.703 279.21 101.399 284.719 104.065L397.571 158.698C403.08 161.365 405.384 167.994 402.718 173.503L366.386 248.552Z" fill="white" stroke="#FAFAFA" stroke-width="1.54648"/>
<circle cx="323.146" cy="167.413" r="19" transform="rotate(25.832 323.146 167.413)" fill="#3A3A3A" stroke="#FAFAFA"/>
<path d="M317.172 180.9C335.379 189.714 343.401 210.755 335.214 227.982L269.05 195.951C277.485 178.844 298.965 172.086 317.172 180.9Z" fill="#3A3A3A" stroke="#FAFAFA" stroke-width="0.48366"/>
<rect x="338.212" y="263.238" width="76.6282" height="307.628" rx="11.6688" transform="rotate(115.832 338.212 263.238)" fill="white" stroke="#FAFAFA" stroke-width="1.62821"/>
<rect x="258.832" y="99.9361" width="19.4204" height="93.4203" rx="3.01252" transform="rotate(115.832 258.832 99.9361)" fill="white" stroke="#FAFAFA" stroke-width="0.420352"/>
<path d="M85.1431 128.95L74.3263 123.713L76.6827 118.846L87.4995 124.082L85.1431 128.95ZM98.6553 135.491L87.8385 130.255L90.1949 125.387L101.012 130.624L98.6553 135.491ZM112.168 142.033L101.351 136.796L103.707 131.928L114.524 137.165L112.168 142.033ZM125.68 148.574L114.863 143.337L117.219 138.47L128.036 143.706L125.68 148.574ZM139.192 155.115L128.375 149.879L130.732 145.011L141.548 150.248L139.192 155.115Z" fill="black"/>
<mask id="path-8-outside-1_259_206" maskUnits="userSpaceOnUse" x="176.844" y="68.8326" width="70.9915" height="39.8806" fill="black">
<rect fill="white" x="176.844" y="68.8326" width="70.9915" height="39.8806"/>
<path d="M189.629 80.6517L178.813 75.4152L181.169 70.5476L191.986 75.7841L189.629 80.6517ZM203.142 87.1931L192.325 81.9566L194.681 77.089L205.498 82.3255L203.142 87.1931ZM216.654 93.7344L205.837 88.4979L208.193 83.6304L219.01 88.8669L216.654 93.7344ZM230.166 100.276L219.349 95.0393L221.706 90.1717L232.523 95.4082L230.166 100.276ZM243.678 106.817L232.861 101.581L235.218 96.7131L246.035 101.95L243.678 106.817Z"/>
</mask>
<path d="M189.629 80.6517L178.813 75.4152L181.169 70.5476L191.986 75.7841L189.629 80.6517ZM203.142 87.1931L192.325 81.9566L194.681 77.089L205.498 82.3255L203.142 87.1931ZM216.654 93.7344L205.837 88.4979L208.193 83.6304L219.01 88.8669L216.654 93.7344ZM230.166 100.276L219.349 95.0393L221.706 90.1717L232.523 95.4082L230.166 100.276ZM243.678 106.817L232.861 101.581L235.218 96.7131L246.035 101.95L243.678 106.817Z" fill="black"/>
<path d="M189.629 80.6517L189.194 81.5518L190.094 81.9875L190.53 81.0874L189.629 80.6517ZM178.813 75.4152L177.913 74.9795L177.477 75.8795L178.377 76.3153L178.813 75.4152ZM181.169 70.5476L181.605 69.6476L180.705 69.2118L180.269 70.1119L181.169 70.5476ZM191.986 75.7841L192.886 76.2199L193.322 75.3198L192.422 74.8841L191.986 75.7841ZM189.629 80.6517L190.065 79.7516L179.248 74.5151L178.813 75.4152L178.377 76.3153L189.194 81.5518L189.629 80.6517ZM178.813 75.4152L179.713 75.8509L182.069 70.9834L181.169 70.5476L180.269 70.1119L177.913 74.9795L178.813 75.4152ZM181.169 70.5476L180.733 71.4477L191.55 76.6842L191.986 75.7841L192.422 74.8841L181.605 69.6476L181.169 70.5476ZM191.986 75.7841L191.086 75.3484L188.729 80.216L189.629 80.6517L190.53 81.0874L192.886 76.2199L191.986 75.7841ZM203.142 87.1931L202.706 88.0931L203.606 88.5289L204.042 87.6288L203.142 87.1931ZM192.325 81.9566L191.425 81.5208L190.989 82.4209L191.889 82.8566L192.325 81.9566ZM194.681 77.089L195.117 76.1889L194.217 75.7532L193.781 76.6533L194.681 77.089ZM205.498 82.3255L206.398 82.7612L206.834 81.8612L205.934 81.4254L205.498 82.3255ZM203.142 87.1931L203.577 86.293L192.761 81.0565L192.325 81.9566L191.889 82.8566L202.706 88.0931L203.142 87.1931ZM192.325 81.9566L193.225 82.3923L195.581 77.5247L194.681 77.089L193.781 76.6533L191.425 81.5208L192.325 81.9566ZM194.681 77.089L194.246 77.9891L205.062 83.2256L205.498 82.3255L205.934 81.4254L195.117 76.1889L194.681 77.089ZM205.498 82.3255L204.598 81.8898L202.242 86.7573L203.142 87.1931L204.042 87.6288L206.398 82.7612L205.498 82.3255ZM216.654 93.7344L216.218 94.6345L217.118 95.0702L217.554 94.1702L216.654 93.7344ZM205.837 88.4979L204.937 88.0622L204.501 88.9623L205.401 89.398L205.837 88.4979ZM208.193 83.6304L208.629 82.7303L207.729 82.2946L207.293 83.1946L208.193 83.6304ZM219.01 88.8669L219.91 89.3026L220.346 88.4025L219.446 87.9668L219.01 88.8669ZM216.654 93.7344L217.09 92.8344L206.273 87.5979L205.837 88.4979L205.401 89.398L216.218 94.6345L216.654 93.7344ZM205.837 88.4979L206.737 88.9337L209.094 84.0661L208.193 83.6304L207.293 83.1946L204.937 88.0622L205.837 88.4979ZM208.193 83.6304L207.758 84.5304L218.575 89.7669L219.01 88.8669L219.446 87.9668L208.629 82.7303L208.193 83.6304ZM219.01 88.8669L218.11 88.4311L215.754 93.2987L216.654 93.7344L217.554 94.1702L219.91 89.3026L219.01 88.8669ZM230.166 100.276L229.73 101.176L230.63 101.612L231.066 100.712L230.166 100.276ZM219.349 95.0393L218.449 94.6036L218.013 95.5036L218.914 95.9394L219.349 95.0393ZM221.706 90.1717L222.141 89.2717L221.241 88.8359L220.806 89.736L221.706 90.1717ZM232.523 95.4082L233.423 95.844L233.858 94.9439L232.958 94.5082L232.523 95.4082ZM230.166 100.276L230.602 99.3757L219.785 94.1392L219.349 95.0393L218.914 95.9394L229.73 101.176L230.166 100.276ZM219.349 95.0393L220.249 95.475L222.606 90.6075L221.706 90.1717L220.806 89.736L218.449 94.6036L219.349 95.0393ZM221.706 90.1717L221.27 91.0718L232.087 96.3083L232.523 95.4082L232.958 94.5082L222.141 89.2717L221.706 90.1717ZM232.523 95.4082L231.622 94.9725L229.266 99.8401L230.166 100.276L231.066 100.712L233.423 95.844L232.523 95.4082ZM243.678 106.817L243.243 107.717L244.143 108.153L244.578 107.253L243.678 106.817ZM232.861 101.581L231.961 101.145L231.526 102.045L232.426 102.481L232.861 101.581ZM235.218 96.7131L235.654 95.813L234.754 95.3773L234.318 96.2774L235.218 96.7131ZM246.035 101.95L246.935 102.385L247.371 101.485L246.47 101.05L246.035 101.95ZM243.678 106.817L244.114 105.917L233.297 100.681L232.861 101.581L232.426 102.481L243.243 107.717L243.678 106.817ZM232.861 101.581L233.762 102.016L236.118 97.1488L235.218 96.7131L234.318 96.2774L231.961 101.145L232.861 101.581ZM235.218 96.7131L234.782 97.6132L245.599 102.85L246.035 101.95L246.47 101.05L235.654 95.813L235.218 96.7131ZM246.035 101.95L245.135 101.514L242.778 106.381L243.678 106.817L244.578 107.253L246.935 102.385L246.035 101.95Z" fill="#FAFAFA" mask="url(#path-8-outside-1_259_206)"/>
<mask id="path-10-outside-2_259_206" maskUnits="userSpaceOnUse" x="61.116" y="147.24" width="233.005" height="118.313" fill="black">
<rect fill="white" x="61.116" y="147.24" width="233.005" height="118.313"/>
<path d="M73.9009 159.059L63.0841 153.823L65.4405 148.955L76.2574 154.192L73.9009 159.059ZM87.4131 165.601L76.5963 160.364L78.9528 155.497L89.7696 160.733L87.4131 165.601ZM100.925 172.142L90.1085 166.906L92.465 162.038L103.282 167.275L100.925 172.142ZM114.438 178.684L103.621 173.447L105.977 168.579L116.794 173.816L114.438 178.684ZM127.95 185.225L117.133 179.988L119.489 175.121L130.306 180.357L127.95 185.225ZM141.462 191.766L130.645 186.53L133.002 181.662L143.818 186.899L141.462 191.766ZM154.974 198.308L144.157 193.071L146.514 188.204L157.331 193.44L154.974 198.308ZM168.486 204.849L157.67 199.612L160.026 194.745L170.843 199.981L168.486 204.849ZM181.999 211.39L171.182 206.154L173.538 201.286L184.355 206.523L181.999 211.39ZM195.511 217.932L184.694 212.695L187.05 207.828L197.867 213.064L195.511 217.932ZM209.023 224.473L198.206 219.237L200.563 214.369L211.38 219.606L209.023 224.473ZM222.535 231.014L211.718 225.778L214.075 220.91L224.892 226.147L222.535 231.014ZM236.048 237.556L225.231 232.319L227.587 227.452L238.404 232.688L236.048 237.556ZM249.56 244.097L238.743 238.861L241.099 233.993L251.916 239.23L249.56 244.097ZM263.072 250.639L252.255 245.402L254.612 240.535L265.428 245.771L263.072 250.639ZM276.584 257.18L265.767 251.943L268.124 247.076L278.941 252.312L276.584 257.18ZM290.096 263.721L279.28 258.485L281.636 253.617L292.453 258.854L290.096 263.721Z"/>
</mask>
<path d="M73.9009 159.059L63.0841 153.823L65.4405 148.955L76.2574 154.192L73.9009 159.059ZM87.4131 165.601L76.5963 160.364L78.9528 155.497L89.7696 160.733L87.4131 165.601ZM100.925 172.142L90.1085 166.906L92.465 162.038L103.282 167.275L100.925 172.142ZM114.438 178.684L103.621 173.447L105.977 168.579L116.794 173.816L114.438 178.684ZM127.95 185.225L117.133 179.988L119.489 175.121L130.306 180.357L127.95 185.225ZM141.462 191.766L130.645 186.53L133.002 181.662L143.818 186.899L141.462 191.766ZM154.974 198.308L144.157 193.071L146.514 188.204L157.331 193.44L154.974 198.308ZM168.486 204.849L157.67 199.612L160.026 194.745L170.843 199.981L168.486 204.849ZM181.999 211.39L171.182 206.154L173.538 201.286L184.355 206.523L181.999 211.39ZM195.511 217.932L184.694 212.695L187.05 207.828L197.867 213.064L195.511 217.932ZM209.023 224.473L198.206 219.237L200.563 214.369L211.38 219.606L209.023 224.473ZM222.535 231.014L211.718 225.778L214.075 220.91L224.892 226.147L222.535 231.014ZM236.048 237.556L225.231 232.319L227.587 227.452L238.404 232.688L236.048 237.556ZM249.56 244.097L238.743 238.861L241.099 233.993L251.916 239.23L249.56 244.097ZM263.072 250.639L252.255 245.402L254.612 240.535L265.428 245.771L263.072 250.639ZM276.584 257.18L265.767 251.943L268.124 247.076L278.941 252.312L276.584 257.18ZM290.096 263.721L279.28 258.485L281.636 253.617L292.453 258.854L290.096 263.721Z" fill="black"/>
<path d="M73.9009 159.059L73.4652 159.959L74.3653 160.395L74.801 159.495L73.9009 159.059ZM63.0841 153.823L62.184 153.387L61.7483 154.287L62.6484 154.723L63.0841 153.823ZM65.4405 148.955L65.8763 148.055L64.9762 147.62L64.5405 148.52L65.4405 148.955ZM76.2574 154.192L77.1574 154.628L77.5932 153.728L76.6931 153.292L76.2574 154.192ZM73.9009 159.059L74.3367 158.159L63.5198 152.923L63.0841 153.823L62.6484 154.723L73.4652 159.959L73.9009 159.059ZM63.0841 153.823L63.9842 154.259L66.3406 149.391L65.4405 148.955L64.5405 148.52L62.184 153.387L63.0841 153.823ZM65.4405 148.955L65.0048 149.855L75.8216 155.092L76.2574 154.192L76.6931 153.292L65.8763 148.055L65.4405 148.955ZM76.2574 154.192L75.3573 153.756L73.0009 158.624L73.9009 159.059L74.801 159.495L77.1574 154.628L76.2574 154.192ZM87.4131 165.601L86.9774 166.501L87.8775 166.937L88.3132 166.037L87.4131 165.601ZM76.5963 160.364L75.6963 159.929L75.2605 160.829L76.1606 161.264L76.5963 160.364ZM78.9528 155.497L79.3885 154.597L78.4884 154.161L78.0527 155.061L78.9528 155.497ZM89.7696 160.733L90.6696 161.169L91.1054 160.269L90.2053 159.833L89.7696 160.733ZM87.4131 165.601L87.8489 164.701L77.0321 159.464L76.5963 160.364L76.1606 161.264L86.9774 166.501L87.4131 165.601ZM76.5963 160.364L77.4964 160.8L79.8528 155.932L78.9528 155.497L78.0527 155.061L75.6963 159.929L76.5963 160.364ZM78.9528 155.497L78.517 156.397L89.3338 161.633L89.7696 160.733L90.2053 159.833L79.3885 154.597L78.9528 155.497ZM89.7696 160.733L88.8695 160.297L86.5131 165.165L87.4131 165.601L88.3132 166.037L90.6696 161.169L89.7696 160.733ZM100.925 172.142L100.49 173.042L101.39 173.478L101.825 172.578L100.925 172.142ZM90.1085 166.906L89.2085 166.47L88.7727 167.37L89.6728 167.806L90.1085 166.906ZM92.465 162.038L92.9007 161.138L92.0006 160.702L91.5649 161.602L92.465 162.038ZM103.282 167.275L104.182 167.71L104.618 166.81L103.718 166.375L103.282 167.275ZM100.925 172.142L101.361 171.242L90.5443 166.006L90.1085 166.906L89.6728 167.806L100.49 173.042L100.925 172.142ZM90.1085 166.906L91.0086 167.341L93.365 162.474L92.465 162.038L91.5649 161.602L89.2085 166.47L90.1085 166.906ZM92.465 162.038L92.0292 162.938L102.846 168.175L103.282 167.275L103.718 166.375L92.9007 161.138L92.465 162.038ZM103.282 167.275L102.382 166.839L100.025 171.706L100.925 172.142L101.825 172.578L104.182 167.71L103.282 167.275ZM114.438 178.684L114.002 179.584L114.902 180.019L115.338 179.119L114.438 178.684ZM103.621 173.447L102.721 173.011L102.285 173.911L103.185 174.347L103.621 173.447ZM105.977 168.579L106.413 167.679L105.513 167.244L105.077 168.144L105.977 168.579ZM116.794 173.816L117.694 174.252L118.13 173.352L117.23 172.916L116.794 173.816ZM114.438 178.684L114.873 177.783L104.056 172.547L103.621 173.447L103.185 174.347L114.002 179.584L114.438 178.684ZM103.621 173.447L104.521 173.883L106.877 169.015L105.977 168.579L105.077 168.144L102.721 173.011L103.621 173.447ZM105.977 168.579L105.541 169.48L116.358 174.716L116.794 173.816L117.23 172.916L106.413 167.679L105.977 168.579ZM116.794 173.816L115.894 173.38L113.538 178.248L114.438 178.684L115.338 179.119L117.694 174.252L116.794 173.816ZM127.95 185.225L127.514 186.125L128.414 186.561L128.85 185.661L127.95 185.225ZM117.133 179.988L116.233 179.553L115.797 180.453L116.697 180.888L117.133 179.988ZM119.489 175.121L119.925 174.221L119.025 173.785L118.589 174.685L119.489 175.121ZM130.306 180.357L131.206 180.793L131.642 179.893L130.742 179.457L130.306 180.357ZM127.95 185.225L128.386 184.325L117.569 179.088L117.133 179.988L116.697 180.888L127.514 186.125L127.95 185.225ZM117.133 179.988L118.033 180.424L120.389 175.557L119.489 175.121L118.589 174.685L116.233 179.553L117.133 179.988ZM119.489 175.121L119.054 176.021L129.87 181.257L130.306 180.357L130.742 179.457L119.925 174.221L119.489 175.121ZM130.306 180.357L129.406 179.922L127.05 184.789L127.95 185.225L128.85 185.661L131.206 180.793L130.306 180.357ZM141.462 191.766L141.026 192.666L141.926 193.102L142.362 192.202L141.462 191.766ZM130.645 186.53L129.745 186.094L129.309 186.994L130.209 187.43L130.645 186.53ZM133.002 181.662L133.437 180.762L132.537 180.326L132.102 181.226L133.002 181.662ZM143.818 186.899L144.719 187.334L145.154 186.434L144.254 185.999L143.818 186.899ZM141.462 191.766L141.898 190.866L131.081 185.63L130.645 186.53L130.209 187.43L141.026 192.666L141.462 191.766ZM130.645 186.53L131.545 186.965L133.902 182.098L133.002 181.662L132.102 181.226L129.745 186.094L130.645 186.53ZM133.002 181.662L132.566 182.562L143.383 187.799L143.818 186.899L144.254 185.999L133.437 180.762L133.002 181.662ZM143.818 186.899L142.918 186.463L140.562 191.331L141.462 191.766L142.362 192.202L144.719 187.334L143.818 186.899ZM154.974 198.308L154.538 199.208L155.439 199.643L155.874 198.743L154.974 198.308ZM144.157 193.071L143.257 192.635L142.822 193.535L143.722 193.971L144.157 193.071ZM146.514 188.204L146.95 187.303L146.049 186.868L145.614 187.768L146.514 188.204ZM157.331 193.44L158.231 193.876L158.666 192.976L157.766 192.54L157.331 193.44ZM154.974 198.308L155.41 197.408L144.593 192.171L144.157 193.071L143.722 193.971L154.538 199.208L154.974 198.308ZM144.157 193.071L145.057 193.507L147.414 188.639L146.514 188.204L145.614 187.768L143.257 192.635L144.157 193.071ZM146.514 188.204L146.078 189.104L156.895 194.34L157.331 193.44L157.766 192.54L146.95 187.303L146.514 188.204ZM157.331 193.44L156.431 193.004L154.074 197.872L154.974 198.308L155.874 198.743L158.231 193.876L157.331 193.44ZM168.486 204.849L168.051 205.749L168.951 206.185L169.387 205.285L168.486 204.849ZM157.67 199.612L156.77 199.177L156.334 200.077L157.234 200.513L157.67 199.612ZM160.026 194.745L160.462 193.845L159.562 193.409L159.126 194.309L160.026 194.745ZM170.843 199.981L171.743 200.417L172.179 199.517L171.279 199.081L170.843 199.981ZM168.486 204.849L168.922 203.949L158.105 198.712L157.67 199.612L157.234 200.513L168.051 205.749L168.486 204.849ZM157.67 199.612L158.57 200.048L160.926 195.181L160.026 194.745L159.126 194.309L156.77 199.177L157.67 199.612ZM160.026 194.745L159.59 195.645L170.407 200.882L170.843 199.981L171.279 199.081L160.462 193.845L160.026 194.745ZM170.843 199.981L169.943 199.546L167.586 204.413L168.486 204.849L169.387 205.285L171.743 200.417L170.843 199.981ZM181.999 211.39L181.563 212.29L182.463 212.726L182.899 211.826L181.999 211.39ZM171.182 206.154L170.282 205.718L169.846 206.618L170.746 207.054L171.182 206.154ZM173.538 201.286L173.974 200.386L173.074 199.95L172.638 200.851L173.538 201.286ZM184.355 206.523L185.255 206.959L185.691 206.058L184.791 205.623L184.355 206.523ZM181.999 211.39L182.434 210.49L171.618 205.254L171.182 206.154L170.746 207.054L181.563 212.29L181.999 211.39ZM171.182 206.154L172.082 206.59L174.438 201.722L173.538 201.286L172.638 200.851L170.282 205.718L171.182 206.154ZM173.538 201.286L173.103 202.186L183.919 207.423L184.355 206.523L184.791 205.623L173.974 200.386L173.538 201.286ZM184.355 206.523L183.455 206.087L181.099 210.955L181.999 211.39L182.899 211.826L185.255 206.959L184.355 206.523ZM195.511 217.932L195.075 218.832L195.975 219.268L196.411 218.367L195.511 217.932ZM184.694 212.695L183.794 212.259L183.358 213.16L184.258 213.595L184.694 212.695ZM187.05 207.828L187.486 206.928L186.586 206.492L186.15 207.392L187.05 207.828ZM197.867 213.064L198.767 213.5L199.203 212.6L198.303 212.164L197.867 213.064ZM195.511 217.932L195.947 217.032L185.13 211.795L184.694 212.695L184.258 213.595L195.075 218.832L195.511 217.932ZM184.694 212.695L185.594 213.131L187.951 208.263L187.05 207.828L186.15 207.392L183.794 212.259L184.694 212.695ZM187.05 207.828L186.615 208.728L197.432 213.964L197.867 213.064L198.303 212.164L187.486 206.928L187.05 207.828ZM197.867 213.064L196.967 212.628L194.611 217.496L195.511 217.932L196.411 218.367L198.767 213.5L197.867 213.064ZM209.023 224.473L208.587 225.373L209.487 225.809L209.923 224.909L209.023 224.473ZM198.206 219.237L197.306 218.801L196.87 219.701L197.771 220.137L198.206 219.237ZM200.563 214.369L200.998 213.469L200.098 213.033L199.663 213.933L200.563 214.369ZM211.38 219.606L212.28 220.041L212.715 219.141L211.815 218.705L211.38 219.606ZM209.023 224.473L209.459 223.573L198.642 218.337L198.206 219.237L197.771 220.137L208.587 225.373L209.023 224.473ZM198.206 219.237L199.106 219.672L201.463 214.805L200.563 214.369L199.663 213.933L197.306 218.801L198.206 219.237ZM200.563 214.369L200.127 215.269L210.944 220.506L211.38 219.606L211.815 218.705L200.998 213.469L200.563 214.369ZM211.38 219.606L210.479 219.17L208.123 224.037L209.023 224.473L209.923 224.909L212.28 220.041L211.38 219.606ZM222.535 231.014L222.1 231.915L223 232.35L223.435 231.45L222.535 231.014ZM211.718 225.778L210.818 225.342L210.383 226.242L211.283 226.678L211.718 225.778ZM214.075 220.91L214.511 220.01L213.611 219.575L213.175 220.475L214.075 220.91ZM224.892 226.147L225.792 226.583L226.228 225.683L225.327 225.247L224.892 226.147ZM222.535 231.014L222.971 230.114L212.154 224.878L211.718 225.778L211.283 226.678L222.1 231.915L222.535 231.014ZM211.718 225.778L212.619 226.214L214.975 221.346L214.075 220.91L213.175 220.475L210.818 225.342L211.718 225.778ZM214.075 220.91L213.639 221.81L224.456 227.047L224.892 226.147L225.327 225.247L214.511 220.01L214.075 220.91ZM224.892 226.147L223.992 225.711L221.635 230.579L222.535 231.014L223.435 231.45L225.792 226.583L224.892 226.147ZM236.048 237.556L235.612 238.456L236.512 238.892L236.948 237.992L236.048 237.556ZM225.231 232.319L224.331 231.884L223.895 232.784L224.795 233.219L225.231 232.319ZM227.587 227.452L228.023 226.552L227.123 226.116L226.687 227.016L227.587 227.452ZM238.404 232.688L239.304 233.124L239.74 232.224L238.84 231.788L238.404 232.688ZM236.048 237.556L236.483 236.656L225.666 231.419L225.231 232.319L224.795 233.219L235.612 238.456L236.048 237.556ZM225.231 232.319L226.131 232.755L228.487 227.888L227.587 227.452L226.687 227.016L224.331 231.884L225.231 232.319ZM227.587 227.452L227.151 228.352L237.968 233.588L238.404 232.688L238.84 231.788L228.023 226.552L227.587 227.452ZM238.404 232.688L237.504 232.253L235.147 237.12L236.048 237.556L236.948 237.992L239.304 233.124L238.404 232.688ZM249.56 244.097L249.124 244.997L250.024 245.433L250.46 244.533L249.56 244.097ZM238.743 238.861L237.843 238.425L237.407 239.325L238.307 239.761L238.743 238.861ZM241.099 233.993L241.535 233.093L240.635 232.657L240.199 233.557L241.099 233.993ZM251.916 239.23L252.816 239.665L253.252 238.765L252.352 238.33L251.916 239.23ZM249.56 244.097L249.995 243.197L239.179 237.961L238.743 238.861L238.307 239.761L249.124 244.997L249.56 244.097ZM238.743 238.861L239.643 239.296L241.999 234.429L241.099 233.993L240.199 233.557L237.843 238.425L238.743 238.861ZM241.099 233.993L240.664 234.893L251.48 240.13L251.916 239.23L252.352 238.33L241.535 233.093L241.099 233.993ZM251.916 239.23L251.016 238.794L248.66 243.661L249.56 244.097L250.46 244.533L252.816 239.665L251.916 239.23ZM263.072 250.639L262.636 251.539L263.536 251.974L263.972 251.074L263.072 250.639ZM252.255 245.402L251.355 244.966L250.919 245.866L251.819 246.302L252.255 245.402ZM254.612 240.535L255.047 239.634L254.147 239.199L253.711 240.099L254.612 240.535ZM265.428 245.771L266.328 246.207L266.764 245.307L265.864 244.871L265.428 245.771ZM263.072 250.639L263.508 249.738L252.691 244.502L252.255 245.402L251.819 246.302L262.636 251.539L263.072 250.639ZM252.255 245.402L253.155 245.838L255.512 240.97L254.612 240.535L253.711 240.099L251.355 244.966L252.255 245.402ZM254.612 240.535L254.176 241.435L264.993 246.671L265.428 245.771L265.864 244.871L255.047 239.634L254.612 240.535ZM265.428 245.771L264.528 245.335L262.172 250.203L263.072 250.639L263.972 251.074L266.328 246.207L265.428 245.771ZM276.584 257.18L276.148 258.08L277.049 258.516L277.484 257.616L276.584 257.18ZM265.767 251.943L264.867 251.508L264.432 252.408L265.332 252.844L265.767 251.943ZM268.124 247.076L268.56 246.176L267.659 245.74L267.224 246.64L268.124 247.076ZM278.941 252.312L279.841 252.748L280.276 251.848L279.376 251.412L278.941 252.312ZM276.584 257.18L277.02 256.28L266.203 251.043L265.767 251.943L265.332 252.844L276.148 258.08L276.584 257.18ZM265.767 251.943L266.667 252.379L269.024 247.512L268.124 247.076L267.224 246.64L264.867 251.508L265.767 251.943ZM268.124 247.076L267.688 247.976L278.505 253.212L278.941 252.312L279.376 251.412L268.56 246.176L268.124 247.076ZM278.941 252.312L278.041 251.877L275.684 256.744L276.584 257.18L277.484 257.616L279.841 252.748L278.941 252.312ZM290.096 263.721L289.661 264.621L290.561 265.057L290.996 264.157L290.096 263.721ZM279.28 258.485L278.379 258.049L277.944 258.949L278.844 259.385L279.28 258.485ZM281.636 253.617L282.072 252.717L281.172 252.281L280.736 253.182L281.636 253.617ZM292.453 258.854L293.353 259.289L293.789 258.389L292.889 257.954L292.453 258.854ZM290.096 263.721L290.532 262.821L279.715 257.585L279.28 258.485L278.844 259.385L289.661 264.621L290.096 263.721ZM279.28 258.485L280.18 258.921L282.536 254.053L281.636 253.617L280.736 253.182L278.379 258.049L279.28 258.485ZM281.636 253.617L281.2 254.517L292.017 259.754L292.453 258.854L292.889 257.954L282.072 252.717L281.636 253.617ZM292.453 258.854L291.553 258.418L289.196 263.286L290.096 263.721L290.996 264.157L293.353 259.289L292.453 258.854Z" fill="#FAFAFA" mask="url(#path-10-outside-2_259_206)"/>
<mask id="path-12-outside-3_259_206" maskUnits="userSpaceOnUse" x="52.4011" y="165.242" width="206.003" height="105.241" fill="black">
<rect fill="white" x="52.4011" y="165.242" width="206.003" height="105.241"/>
<path d="M65.1861 177.061L54.3693 171.824L56.7257 166.957L67.5425 172.193L65.1861 177.061ZM78.6983 183.602L67.8815 178.366L70.2379 173.498L81.0547 178.735L78.6983 183.602ZM92.2105 190.144L81.3937 184.907L83.7501 180.04L94.5669 185.276L92.2105 190.144ZM105.723 196.685L94.9059 191.448L97.2623 186.581L108.079 191.817L105.723 196.685ZM119.235 203.226L108.418 197.99L110.775 193.122L121.591 198.359L119.235 203.226ZM132.747 209.768L121.93 204.531L124.287 199.664L135.104 204.9L132.747 209.768ZM146.259 216.309L135.443 211.073L137.799 206.205L148.616 211.442L146.259 216.309ZM159.772 222.85L148.955 217.614L151.311 212.746L162.128 217.983L159.772 222.85ZM173.284 229.392L162.467 224.155L164.823 219.288L175.64 224.524L173.284 229.392ZM186.796 235.933L175.979 230.697L178.336 225.829L189.152 231.066L186.796 235.933ZM200.308 242.475L189.491 237.238L191.848 232.37L202.665 237.607L200.308 242.475ZM213.82 249.016L203.004 243.779L205.36 238.912L216.177 244.148L213.82 249.016ZM227.333 255.557L216.516 250.321L218.872 245.453L229.689 250.69L227.333 255.557ZM240.845 262.099L230.028 256.862L232.385 251.995L243.201 257.231L240.845 262.099ZM254.357 268.64L243.54 263.404L245.897 258.536L256.714 263.772L254.357 268.64Z"/>
</mask>
<path d="M65.1861 177.061L54.3693 171.824L56.7257 166.957L67.5425 172.193L65.1861 177.061ZM78.6983 183.602L67.8815 178.366L70.2379 173.498L81.0547 178.735L78.6983 183.602ZM92.2105 190.144L81.3937 184.907L83.7501 180.04L94.5669 185.276L92.2105 190.144ZM105.723 196.685L94.9059 191.448L97.2623 186.581L108.079 191.817L105.723 196.685ZM119.235 203.226L108.418 197.99L110.775 193.122L121.591 198.359L119.235 203.226ZM132.747 209.768L121.93 204.531L124.287 199.664L135.104 204.9L132.747 209.768ZM146.259 216.309L135.443 211.073L137.799 206.205L148.616 211.442L146.259 216.309ZM159.772 222.85L148.955 217.614L151.311 212.746L162.128 217.983L159.772 222.85ZM173.284 229.392L162.467 224.155L164.823 219.288L175.64 224.524L173.284 229.392ZM186.796 235.933L175.979 230.697L178.336 225.829L189.152 231.066L186.796 235.933ZM200.308 242.475L189.491 237.238L191.848 232.37L202.665 237.607L200.308 242.475ZM213.82 249.016L203.004 243.779L205.36 238.912L216.177 244.148L213.82 249.016ZM227.333 255.557L216.516 250.321L218.872 245.453L229.689 250.69L227.333 255.557ZM240.845 262.099L230.028 256.862L232.385 251.995L243.201 257.231L240.845 262.099ZM254.357 268.64L243.54 263.404L245.897 258.536L256.714 263.772L254.357 268.64Z" fill="black"/>
<path d="M65.1861 177.061L64.7504 177.961L65.6504 178.397L66.0862 177.497L65.1861 177.061ZM54.3693 171.824L53.4692 171.389L53.0335 172.289L53.9335 172.724L54.3693 171.824ZM56.7257 166.957L57.1614 166.057L56.2614 165.621L55.8256 166.521L56.7257 166.957ZM67.5425 172.193L68.4426 172.629L68.8783 171.729L67.9782 171.293L67.5425 172.193ZM65.1861 177.061L65.6218 176.161L54.805 170.924L54.3693 171.824L53.9335 172.724L64.7504 177.961L65.1861 177.061ZM54.3693 171.824L55.2693 172.26L57.6258 167.393L56.7257 166.957L55.8256 166.521L53.4692 171.389L54.3693 171.824ZM56.7257 166.957L56.29 167.857L67.1068 173.093L67.5425 172.193L67.9782 171.293L57.1614 166.057L56.7257 166.957ZM67.5425 172.193L66.6424 171.758L64.286 176.625L65.1861 177.061L66.0862 177.497L68.4426 172.629L67.5425 172.193ZM78.6983 183.602L78.2626 184.502L79.1626 184.938L79.5984 184.038L78.6983 183.602ZM67.8815 178.366L66.9814 177.93L66.5457 178.83L67.4458 179.266L67.8815 178.366ZM70.2379 173.498L70.6736 172.598L69.7736 172.162L69.3378 173.062L70.2379 173.498ZM81.0547 178.735L81.9548 179.17L82.3905 178.27L81.4905 177.835L81.0547 178.735ZM78.6983 183.602L79.134 182.702L68.3172 177.466L67.8815 178.366L67.4458 179.266L78.2626 184.502L78.6983 183.602ZM67.8815 178.366L68.7816 178.801L71.138 173.934L70.2379 173.498L69.3378 173.062L66.9814 177.93L67.8815 178.366ZM70.2379 173.498L69.8022 174.398L80.619 179.635L81.0547 178.735L81.4905 177.835L70.6736 172.598L70.2379 173.498ZM81.0547 178.735L80.1546 178.299L77.7982 183.167L78.6983 183.602L79.5984 184.038L81.9548 179.17L81.0547 178.735ZM92.2105 190.144L91.7748 191.044L92.6749 191.479L93.1106 190.579L92.2105 190.144ZM81.3937 184.907L80.4936 184.471L80.0579 185.371L80.958 185.807L81.3937 184.907ZM83.7501 180.04L84.1859 179.139L83.2858 178.704L82.8501 179.604L83.7501 180.04ZM94.5669 185.276L95.467 185.712L95.9027 184.812L95.0027 184.376L94.5669 185.276ZM92.2105 190.144L92.6462 189.244L81.8294 184.007L81.3937 184.907L80.958 185.807L91.7748 191.044L92.2105 190.144ZM81.3937 184.907L82.2938 185.343L84.6502 180.475L83.7501 180.04L82.8501 179.604L80.4936 184.471L81.3937 184.907ZM83.7501 180.04L83.3144 180.94L94.1312 186.176L94.5669 185.276L95.0027 184.376L84.1859 179.139L83.7501 180.04ZM94.5669 185.276L93.6669 184.84L91.3104 189.708L92.2105 190.144L93.1106 190.579L95.467 185.712L94.5669 185.276ZM105.723 196.685L105.287 197.585L106.187 198.021L106.623 197.121L105.723 196.685ZM94.9059 191.448L94.0058 191.013L93.5701 191.913L94.4702 192.349L94.9059 191.448ZM97.2623 186.581L97.6981 185.681L96.798 185.245L96.3623 186.145L97.2623 186.581ZM108.079 191.817L108.979 192.253L109.415 191.353L108.515 190.917L108.079 191.817ZM105.723 196.685L106.158 195.785L95.3417 190.548L94.9059 191.448L94.4702 192.349L105.287 197.585L105.723 196.685ZM94.9059 191.448L95.806 191.884L98.1624 187.017L97.2623 186.581L96.3623 186.145L94.0058 191.013L94.9059 191.448ZM97.2623 186.581L96.8266 187.481L107.643 192.717L108.079 191.817L108.515 190.917L97.6981 185.681L97.2623 186.581ZM108.079 191.817L107.179 191.382L104.823 196.249L105.723 196.685L106.623 197.121L108.979 192.253L108.079 191.817ZM119.235 203.226L118.799 204.126L119.699 204.562L120.135 203.662L119.235 203.226ZM108.418 197.99L107.518 197.554L107.082 198.454L107.982 198.89L108.418 197.99ZM110.775 193.122L111.21 192.222L110.31 191.786L109.874 192.687L110.775 193.122ZM121.591 198.359L122.491 198.795L122.927 197.894L122.027 197.459L121.591 198.359ZM119.235 203.226L119.671 202.326L108.854 197.09L108.418 197.99L107.982 198.89L118.799 204.126L119.235 203.226ZM108.418 197.99L109.318 198.426L111.675 193.558L110.775 193.122L109.874 192.687L107.518 197.554L108.418 197.99ZM110.775 193.122L110.339 194.022L121.156 199.259L121.591 198.359L122.027 197.459L111.21 192.222L110.775 193.122ZM121.591 198.359L120.691 197.923L118.335 202.791L119.235 203.226L120.135 203.662L122.491 198.795L121.591 198.359ZM132.747 209.768L132.311 210.668L133.212 211.104L133.647 210.203L132.747 209.768ZM121.93 204.531L121.03 204.095L120.595 204.996L121.495 205.431L121.93 204.531ZM124.287 199.664L124.723 198.764L123.822 198.328L123.387 199.228L124.287 199.664ZM135.104 204.9L136.004 205.336L136.439 204.436L135.539 204L135.104 204.9ZM132.747 209.768L133.183 208.868L122.366 203.631L121.93 204.531L121.495 205.431L132.311 210.668L132.747 209.768ZM121.93 204.531L122.83 204.967L125.187 200.099L124.287 199.664L123.387 199.228L121.03 204.095L121.93 204.531ZM124.287 199.664L123.851 200.564L134.668 205.8L135.104 204.9L135.539 204L124.723 198.764L124.287 199.664ZM135.104 204.9L134.204 204.464L131.847 209.332L132.747 209.768L133.647 210.203L136.004 205.336L135.104 204.9ZM146.259 216.309L145.824 217.209L146.724 217.645L147.159 216.745L146.259 216.309ZM135.443 211.073L134.542 210.637L134.107 211.537L135.007 211.973L135.443 211.073ZM137.799 206.205L138.235 205.305L137.335 204.869L136.899 205.769L137.799 206.205ZM148.616 211.442L149.516 211.877L149.952 210.977L149.052 210.541L148.616 211.442ZM146.259 216.309L146.695 215.409L135.878 210.173L135.443 211.073L135.007 211.973L145.824 217.209L146.259 216.309ZM135.443 211.073L136.343 211.508L138.699 206.641L137.799 206.205L136.899 205.769L134.542 210.637L135.443 211.073ZM137.799 206.205L137.363 207.105L148.18 212.342L148.616 211.442L149.052 210.541L138.235 205.305L137.799 206.205ZM148.616 211.442L147.716 211.006L145.359 215.873L146.259 216.309L147.159 216.745L149.516 211.877L148.616 211.442ZM159.772 222.85L159.336 223.751L160.236 224.186L160.672 223.286L159.772 222.85ZM148.955 217.614L148.055 217.178L147.619 218.078L148.519 218.514L148.955 217.614ZM151.311 212.746L151.747 211.846L150.847 211.411L150.411 212.311L151.311 212.746ZM162.128 217.983L163.028 218.419L163.464 217.519L162.564 217.083L162.128 217.983ZM159.772 222.85L160.207 221.95L149.391 216.714L148.955 217.614L148.519 218.514L159.336 223.751L159.772 222.85ZM148.955 217.614L149.855 218.05L152.211 213.182L151.311 212.746L150.411 212.311L148.055 217.178L148.955 217.614ZM151.311 212.746L150.875 213.646L161.692 218.883L162.128 217.983L162.564 217.083L151.747 211.846L151.311 212.746ZM162.128 217.983L161.228 217.547L158.872 222.415L159.772 222.85L160.672 223.286L163.028 218.419L162.128 217.983ZM173.284 229.392L172.848 230.292L173.748 230.728L174.184 229.828L173.284 229.392ZM162.467 224.155L161.567 223.72L161.131 224.62L162.031 225.055L162.467 224.155ZM164.823 219.288L165.259 218.388L164.359 217.952L163.923 218.852L164.823 219.288ZM175.64 224.524L176.54 224.96L176.976 224.06L176.076 223.624L175.64 224.524ZM173.284 229.392L173.72 228.492L162.903 223.255L162.467 224.155L162.031 225.055L172.848 230.292L173.284 229.392ZM162.467 224.155L163.367 224.591L165.724 219.723L164.823 219.288L163.923 218.852L161.567 223.72L162.467 224.155ZM164.823 219.288L164.388 220.188L175.204 225.424L175.64 224.524L176.076 223.624L165.259 218.388L164.823 219.288ZM175.64 224.524L174.74 224.089L172.384 228.956L173.284 229.392L174.184 229.828L176.54 224.96L175.64 224.524ZM186.796 235.933L186.36 236.833L187.26 237.269L187.696 236.369L186.796 235.933ZM175.979 230.697L175.079 230.261L174.643 231.161L175.543 231.597L175.979 230.697ZM178.336 225.829L178.771 224.929L177.871 224.493L177.436 225.393L178.336 225.829ZM189.152 231.066L190.053 231.501L190.488 230.601L189.588 230.166L189.152 231.066ZM186.796 235.933L187.232 235.033L176.415 229.797L175.979 230.697L175.543 231.597L186.36 236.833L186.796 235.933ZM175.979 230.697L176.879 231.132L179.236 226.265L178.336 225.829L177.436 225.393L175.079 230.261L175.979 230.697ZM178.336 225.829L177.9 226.729L188.717 231.966L189.152 231.066L189.588 230.166L178.771 224.929L178.336 225.829ZM189.152 231.066L188.252 230.63L185.896 235.497L186.796 235.933L187.696 236.369L190.053 231.501L189.152 231.066ZM200.308 242.475L199.873 243.375L200.773 243.81L201.208 242.91L200.308 242.475ZM189.491 237.238L188.591 236.802L188.156 237.702L189.056 238.138L189.491 237.238ZM191.848 232.37L192.284 231.47L191.384 231.035L190.948 231.935L191.848 232.37ZM202.665 237.607L203.565 238.043L204 237.143L203.1 236.707L202.665 237.607ZM200.308 242.475L200.744 241.574L189.927 236.338L189.491 237.238L189.056 238.138L199.873 243.375L200.308 242.475ZM189.491 237.238L190.392 237.674L192.748 232.806L191.848 232.37L190.948 231.935L188.591 236.802L189.491 237.238ZM191.848 232.37L191.412 233.271L202.229 238.507L202.665 237.607L203.1 236.707L192.284 231.47L191.848 232.37ZM202.665 237.607L201.765 237.171L199.408 242.039L200.308 242.475L201.208 242.91L203.565 238.043L202.665 237.607ZM213.82 249.016L213.385 249.916L214.285 250.352L214.721 249.452L213.82 249.016ZM203.004 243.779L202.104 243.344L201.668 244.244L202.568 244.68L203.004 243.779ZM205.36 238.912L205.796 238.012L204.896 237.576L204.46 238.476L205.36 238.912ZM216.177 244.148L217.077 244.584L217.513 243.684L216.613 243.248L216.177 244.148ZM213.82 249.016L214.256 248.116L203.439 242.879L203.004 243.779L202.568 244.68L213.385 249.916L213.82 249.016ZM203.004 243.779L203.904 244.215L206.26 239.348L205.36 238.912L204.46 238.476L202.104 243.344L203.004 243.779ZM205.36 238.912L204.924 239.812L215.741 245.048L216.177 244.148L216.613 243.248L205.796 238.012L205.36 238.912ZM216.177 244.148L215.277 243.713L212.92 248.58L213.82 249.016L214.721 249.452L217.077 244.584L216.177 244.148ZM227.333 255.557L226.897 256.457L227.797 256.893L228.233 255.993L227.333 255.557ZM216.516 250.321L215.616 249.885L215.18 250.785L216.08 251.221L216.516 250.321ZM218.872 245.453L219.308 244.553L218.408 244.117L217.972 245.017L218.872 245.453ZM229.689 250.69L230.589 251.125L231.025 250.225L230.125 249.79L229.689 250.69ZM227.333 255.557L227.768 254.657L216.952 249.421L216.516 250.321L216.08 251.221L226.897 256.457L227.333 255.557ZM216.516 250.321L217.416 250.757L219.772 245.889L218.872 245.453L217.972 245.017L215.616 249.885L216.516 250.321ZM218.872 245.453L218.437 246.353L229.253 251.59L229.689 250.69L230.125 249.79L219.308 244.553L218.872 245.453ZM229.689 250.69L228.789 250.254L226.433 255.122L227.333 255.557L228.233 255.993L230.589 251.125L229.689 250.69ZM240.845 262.099L240.409 262.999L241.309 263.434L241.745 262.534L240.845 262.099ZM230.028 256.862L229.128 256.426L228.692 257.327L229.592 257.762L230.028 256.862ZM232.385 251.995L232.82 251.095L231.92 250.659L231.484 251.559L232.385 251.995ZM243.201 257.231L244.101 257.667L244.537 256.767L243.637 256.331L243.201 257.231ZM240.845 262.099L241.281 261.199L230.464 255.962L230.028 256.862L229.592 257.762L240.409 262.999L240.845 262.099ZM230.028 256.862L230.928 257.298L233.285 252.43L232.385 251.995L231.484 251.559L229.128 256.426L230.028 256.862ZM232.385 251.995L231.949 252.895L242.766 258.131L243.201 257.231L243.637 256.331L232.82 251.095L232.385 251.995ZM243.201 257.231L242.301 256.795L239.945 261.663L240.845 262.099L241.745 262.534L244.101 257.667L243.201 257.231ZM254.357 268.64L253.921 269.54L254.821 269.976L255.257 269.076L254.357 268.64ZM243.54 263.404L242.64 262.968L242.204 263.868L243.105 264.304L243.54 263.404ZM245.897 258.536L246.332 257.636L245.432 257.2L244.997 258.1L245.897 258.536ZM256.714 263.772L257.614 264.208L258.049 263.308L257.149 262.872L256.714 263.772ZM254.357 268.64L254.793 267.74L243.976 262.503L243.54 263.404L243.105 264.304L253.921 269.54L254.357 268.64ZM243.54 263.404L244.44 263.839L246.797 258.972L245.897 258.536L244.997 258.1L242.64 262.968L243.54 263.404ZM245.897 258.536L245.461 259.436L256.278 264.673L256.714 263.772L257.149 262.872L246.332 257.636L245.897 258.536ZM256.714 263.772L255.813 263.337L253.457 268.204L254.357 268.64L255.257 269.076L257.614 264.208L256.714 263.772Z" fill="#FAFAFA" mask="url(#path-12-outside-3_259_206)"/>
<mask id="path-14-outside-4_259_206" maskUnits="userSpaceOnUse" x="52.4011" y="165.242" width="206.003" height="105.241" fill="black">
<rect fill="white" x="52.4011" y="165.242" width="206.003" height="105.241"/>
<path d="M65.1861 177.061L54.3693 171.824L56.7257 166.957L67.5425 172.193L65.1861 177.061ZM78.6983 183.602L67.8815 178.366L70.2379 173.498L81.0547 178.735L78.6983 183.602ZM92.2105 190.144L81.3937 184.907L83.7501 180.04L94.5669 185.276L92.2105 190.144ZM105.723 196.685L94.9059 191.448L97.2623 186.581L108.079 191.817L105.723 196.685ZM119.235 203.226L108.418 197.99L110.775 193.122L121.591 198.359L119.235 203.226ZM132.747 209.768L121.93 204.531L124.287 199.664L135.104 204.9L132.747 209.768ZM146.259 216.309L135.443 211.073L137.799 206.205L148.616 211.442L146.259 216.309ZM159.772 222.85L148.955 217.614L151.311 212.746L162.128 217.983L159.772 222.85ZM173.284 229.392L162.467 224.155L164.823 219.288L175.64 224.524L173.284 229.392ZM186.796 235.933L175.979 230.697L178.336 225.829L189.152 231.066L186.796 235.933ZM200.308 242.475L189.491 237.238L191.848 232.37L202.665 237.607L200.308 242.475ZM213.82 249.016L203.004 243.779L205.36 238.912L216.177 244.148L213.82 249.016ZM227.333 255.557L216.516 250.321L218.872 245.453L229.689 250.69L227.333 255.557ZM240.845 262.099L230.028 256.862L232.385 251.995L243.201 257.231L240.845 262.099ZM254.357 268.64L243.54 263.404L245.897 258.536L256.714 263.772L254.357 268.64Z"/>
</mask>
<path d="M65.1861 177.061L54.3693 171.824L56.7257 166.957L67.5425 172.193L65.1861 177.061ZM78.6983 183.602L67.8815 178.366L70.2379 173.498L81.0547 178.735L78.6983 183.602ZM92.2105 190.144L81.3937 184.907L83.7501 180.04L94.5669 185.276L92.2105 190.144ZM105.723 196.685L94.9059 191.448L97.2623 186.581L108.079 191.817L105.723 196.685ZM119.235 203.226L108.418 197.99L110.775 193.122L121.591 198.359L119.235 203.226ZM132.747 209.768L121.93 204.531L124.287 199.664L135.104 204.9L132.747 209.768ZM146.259 216.309L135.443 211.073L137.799 206.205L148.616 211.442L146.259 216.309ZM159.772 222.85L148.955 217.614L151.311 212.746L162.128 217.983L159.772 222.85ZM173.284 229.392L162.467 224.155L164.823 219.288L175.64 224.524L173.284 229.392ZM186.796 235.933L175.979 230.697L178.336 225.829L189.152 231.066L186.796 235.933ZM200.308 242.475L189.491 237.238L191.848 232.37L202.665 237.607L200.308 242.475ZM213.82 249.016L203.004 243.779L205.36 238.912L216.177 244.148L213.82 249.016ZM227.333 255.557L216.516 250.321L218.872 245.453L229.689 250.69L227.333 255.557ZM240.845 262.099L230.028 256.862L232.385 251.995L243.201 257.231L240.845 262.099ZM254.357 268.64L243.54 263.404L245.897 258.536L256.714 263.772L254.357 268.64Z" fill="black"/>
<path d="M65.1861 177.061L64.7504 177.961L65.6504 178.397L66.0862 177.497L65.1861 177.061ZM54.3693 171.824L53.4692 171.389L53.0335 172.289L53.9335 172.724L54.3693 171.824ZM56.7257 166.957L57.1614 166.057L56.2614 165.621L55.8256 166.521L56.7257 166.957ZM67.5425 172.193L68.4426 172.629L68.8783 171.729L67.9782 171.293L67.5425 172.193ZM65.1861 177.061L65.6218 176.161L54.805 170.924L54.3693 171.824L53.9335 172.724L64.7504 177.961L65.1861 177.061ZM54.3693 171.824L55.2693 172.26L57.6258 167.393L56.7257 166.957L55.8256 166.521L53.4692 171.389L54.3693 171.824ZM56.7257 166.957L56.29 167.857L67.1068 173.093L67.5425 172.193L67.9782 171.293L57.1614 166.057L56.7257 166.957ZM67.5425 172.193L66.6424 171.758L64.286 176.625L65.1861 177.061L66.0862 177.497L68.4426 172.629L67.5425 172.193ZM78.6983 183.602L78.2626 184.502L79.1626 184.938L79.5984 184.038L78.6983 183.602ZM67.8815 178.366L66.9814 177.93L66.5457 178.83L67.4458 179.266L67.8815 178.366ZM70.2379 173.498L70.6736 172.598L69.7736 172.162L69.3378 173.062L70.2379 173.498ZM81.0547 178.735L81.9548 179.17L82.3905 178.27L81.4905 177.835L81.0547 178.735ZM78.6983 183.602L79.134 182.702L68.3172 177.466L67.8815 178.366L67.4458 179.266L78.2626 184.502L78.6983 183.602ZM67.8815 178.366L68.7816 178.801L71.138 173.934L70.2379 173.498L69.3378 173.062L66.9814 177.93L67.8815 178.366ZM70.2379 173.498L69.8022 174.398L80.619 179.635L81.0547 178.735L81.4905 177.835L70.6736 172.598L70.2379 173.498ZM81.0547 178.735L80.1546 178.299L77.7982 183.167L78.6983 183.602L79.5984 184.038L81.9548 179.17L81.0547 178.735ZM92.2105 190.144L91.7748 191.044L92.6749 191.479L93.1106 190.579L92.2105 190.144ZM81.3937 184.907L80.4936 184.471L80.0579 185.371L80.958 185.807L81.3937 184.907ZM83.7501 180.04L84.1859 179.139L83.2858 178.704L82.8501 179.604L83.7501 180.04ZM94.5669 185.276L95.467 185.712L95.9027 184.812L95.0027 184.376L94.5669 185.276ZM92.2105 190.144L92.6462 189.244L81.8294 184.007L81.3937 184.907L80.958 185.807L91.7748 191.044L92.2105 190.144ZM81.3937 184.907L82.2938 185.343L84.6502 180.475L83.7501 180.04L82.8501 179.604L80.4936 184.471L81.3937 184.907ZM83.7501 180.04L83.3144 180.94L94.1312 186.176L94.5669 185.276L95.0027 184.376L84.1859 179.139L83.7501 180.04ZM94.5669 185.276L93.6669 184.84L91.3104 189.708L92.2105 190.144L93.1106 190.579L95.467 185.712L94.5669 185.276ZM105.723 196.685L105.287 197.585L106.187 198.021L106.623 197.121L105.723 196.685ZM94.9059 191.448L94.0058 191.013L93.5701 191.913L94.4702 192.349L94.9059 191.448ZM97.2623 186.581L97.6981 185.681L96.798 185.245L96.3623 186.145L97.2623 186.581ZM108.079 191.817L108.979 192.253L109.415 191.353L108.515 190.917L108.079 191.817ZM105.723 196.685L106.158 195.785L95.3417 190.548L94.9059 191.448L94.4702 192.349L105.287 197.585L105.723 196.685ZM94.9059 191.448L95.806 191.884L98.1624 187.017L97.2623 186.581L96.3623 186.145L94.0058 191.013L94.9059 191.448ZM97.2623 186.581L96.8266 187.481L107.643 192.717L108.079 191.817L108.515 190.917L97.6981 185.681L97.2623 186.581ZM108.079 191.817L107.179 191.382L104.823 196.249L105.723 196.685L106.623 197.121L108.979 192.253L108.079 191.817ZM119.235 203.226L118.799 204.126L119.699 204.562L120.135 203.662L119.235 203.226ZM108.418 197.99L107.518 197.554L107.082 198.454L107.982 198.89L108.418 197.99ZM110.775 193.122L111.21 192.222L110.31 191.786L109.874 192.687L110.775 193.122ZM121.591 198.359L122.491 198.795L122.927 197.894L122.027 197.459L121.591 198.359ZM119.235 203.226L119.671 202.326L108.854 197.09L108.418 197.99L107.982 198.89L118.799 204.126L119.235 203.226ZM108.418 197.99L109.318 198.426L111.675 193.558L110.775 193.122L109.874 192.687L107.518 197.554L108.418 197.99ZM110.775 193.122L110.339 194.022L121.156 199.259L121.591 198.359L122.027 197.459L111.21 192.222L110.775 193.122ZM121.591 198.359L120.691 197.923L118.335 202.791L119.235 203.226L120.135 203.662L122.491 198.795L121.591 198.359ZM132.747 209.768L132.311 210.668L133.212 211.104L133.647 210.203L132.747 209.768ZM121.93 204.531L121.03 204.095L120.595 204.996L121.495 205.431L121.93 204.531ZM124.287 199.664L124.723 198.764L123.822 198.328L123.387 199.228L124.287 199.664ZM135.104 204.9L136.004 205.336L136.439 204.436L135.539 204L135.104 204.9ZM132.747 209.768L133.183 208.868L122.366 203.631L121.93 204.531L121.495 205.431L132.311 210.668L132.747 209.768ZM121.93 204.531L122.83 204.967L125.187 200.099L124.287 199.664L123.387 199.228L121.03 204.095L121.93 204.531ZM124.287 199.664L123.851 200.564L134.668 205.8L135.104 204.9L135.539 204L124.723 198.764L124.287 199.664ZM135.104 204.9L134.204 204.464L131.847 209.332L132.747 209.768L133.647 210.203L136.004 205.336L135.104 204.9ZM146.259 216.309L145.824 217.209L146.724 217.645L147.159 216.745L146.259 216.309ZM135.443 211.073L134.542 210.637L134.107 211.537L135.007 211.973L135.443 211.073ZM137.799 206.205L138.235 205.305L137.335 204.869L136.899 205.769L137.799 206.205ZM148.616 211.442L149.516 211.877L149.952 210.977L149.052 210.541L148.616 211.442ZM146.259 216.309L146.695 215.409L135.878 210.173L135.443 211.073L135.007 211.973L145.824 217.209L146.259 216.309ZM135.443 211.073L136.343 211.508L138.699 206.641L137.799 206.205L136.899 205.769L134.542 210.637L135.443 211.073ZM137.799 206.205L137.363 207.105L148.18 212.342L148.616 211.442L149.052 210.541L138.235 205.305L137.799 206.205ZM148.616 211.442L147.716 211.006L145.359 215.873L146.259 216.309L147.159 216.745L149.516 211.877L148.616 211.442ZM159.772 222.85L159.336 223.751L160.236 224.186L160.672 223.286L159.772 222.85ZM148.955 217.614L148.055 217.178L147.619 218.078L148.519 218.514L148.955 217.614ZM151.311 212.746L151.747 211.846L150.847 211.411L150.411 212.311L151.311 212.746ZM162.128 217.983L163.028 218.419L163.464 217.519L162.564 217.083L162.128 217.983ZM159.772 222.85L160.207 221.95L149.391 216.714L148.955 217.614L148.519 218.514L159.336 223.751L159.772 222.85ZM148.955 217.614L149.855 218.05L152.211 213.182L151.311 212.746L150.411 212.311L148.055 217.178L148.955 217.614ZM151.311 212.746L150.875 213.646L161.692 218.883L162.128 217.983L162.564 217.083L151.747 211.846L151.311 212.746ZM162.128 217.983L161.228 217.547L158.872 222.415L159.772 222.85L160.672 223.286L163.028 218.419L162.128 217.983ZM173.284 229.392L172.848 230.292L173.748 230.728L174.184 229.828L173.284 229.392ZM162.467 224.155L161.567 223.72L161.131 224.62L162.031 225.055L162.467 224.155ZM164.823 219.288L165.259 218.388L164.359 217.952L163.923 218.852L164.823 219.288ZM175.64 224.524L176.54 224.96L176.976 224.06L176.076 223.624L175.64 224.524ZM173.284 229.392L173.72 228.492L162.903 223.255L162.467 224.155L162.031 225.055L172.848 230.292L173.284 229.392ZM162.467 224.155L163.367 224.591L165.724 219.723L164.823 219.288L163.923 218.852L161.567 223.72L162.467 224.155ZM164.823 219.288L164.388 220.188L175.204 225.424L175.64 224.524L176.076 223.624L165.259 218.388L164.823 219.288ZM175.64 224.524L174.74 224.089L172.384 228.956L173.284 229.392L174.184 229.828L176.54 224.96L175.64 224.524ZM186.796 235.933L186.36 236.833L187.26 237.269L187.696 236.369L186.796 235.933ZM175.979 230.697L175.079 230.261L174.643 231.161L175.543 231.597L175.979 230.697ZM178.336 225.829L178.771 224.929L177.871 224.493L177.436 225.393L178.336 225.829ZM189.152 231.066L190.053 231.501L190.488 230.601L189.588 230.166L189.152 231.066ZM186.796 235.933L187.232 235.033L176.415 229.797L175.979 230.697L175.543 231.597L186.36 236.833L186.796 235.933ZM175.979 230.697L176.879 231.132L179.236 226.265L178.336 225.829L177.436 225.393L175.079 230.261L175.979 230.697ZM178.336 225.829L177.9 226.729L188.717 231.966L189.152 231.066L189.588 230.166L178.771 224.929L178.336 225.829ZM189.152 231.066L188.252 230.63L185.896 235.497L186.796 235.933L187.696 236.369L190.053 231.501L189.152 231.066ZM200.308 242.475L199.873 243.375L200.773 243.81L201.208 242.91L200.308 242.475ZM189.491 237.238L188.591 236.802L188.156 237.702L189.056 238.138L189.491 237.238ZM191.848 232.37L192.284 231.47L191.384 231.035L190.948 231.935L191.848 232.37ZM202.665 237.607L203.565 238.043L204 237.143L203.1 236.707L202.665 237.607ZM200.308 242.475L200.744 241.574L189.927 236.338L189.491 237.238L189.056 238.138L199.873 243.375L200.308 242.475ZM189.491 237.238L190.392 237.674L192.748 232.806L191.848 232.37L190.948 231.935L188.591 236.802L189.491 237.238ZM191.848 232.37L191.412 233.271L202.229 238.507L202.665 237.607L203.1 236.707L192.284 231.47L191.848 232.37ZM202.665 237.607L201.765 237.171L199.408 242.039L200.308 242.475L201.208 242.91L203.565 238.043L202.665 237.607ZM213.82 249.016L213.385 249.916L214.285 250.352L214.721 249.452L213.82 249.016ZM203.004 243.779L202.104 243.344L201.668 244.244L202.568 244.68L203.004 243.779ZM205.36 238.912L205.796 238.012L204.896 237.576L204.46 238.476L205.36 238.912ZM216.177 244.148L217.077 244.584L217.513 243.684L216.613 243.248L216.177 244.148ZM213.82 249.016L214.256 248.116L203.439 242.879L203.004 243.779L202.568 244.68L213.385 249.916L213.82 249.016ZM203.004 243.779L203.904 244.215L206.26 239.348L205.36 238.912L204.46 238.476L202.104 243.344L203.004 243.779ZM205.36 238.912L204.924 239.812L215.741 245.048L216.177 244.148L216.613 243.248L205.796 238.012L205.36 238.912ZM216.177 244.148L215.277 243.713L212.92 248.58L213.82 249.016L214.721 249.452L217.077 244.584L216.177 244.148ZM227.333 255.557L226.897 256.457L227.797 256.893L228.233 255.993L227.333 255.557ZM216.516 250.321L215.616 249.885L215.18 250.785L216.08 251.221L216.516 250.321ZM218.872 245.453L219.308 244.553L218.408 244.117L217.972 245.017L218.872 245.453ZM229.689 250.69L230.589 251.125L231.025 250.225L230.125 249.79L229.689 250.69ZM227.333 255.557L227.768 254.657L216.952 249.421L216.516 250.321L216.08 251.221L226.897 256.457L227.333 255.557ZM216.516 250.321L217.416 250.757L219.772 245.889L218.872 245.453L217.972 245.017L215.616 249.885L216.516 250.321ZM218.872 245.453L218.437 246.353L229.253 251.59L229.689 250.69L230.125 249.79L219.308 244.553L218.872 245.453ZM229.689 250.69L228.789 250.254L226.433 255.122L227.333 255.557L228.233 255.993L230.589 251.125L229.689 250.69ZM240.845 262.099L240.409 262.999L241.309 263.434L241.745 262.534L240.845 262.099ZM230.028 256.862L229.128 256.426L228.692 257.327L229.592 257.762L230.028 256.862ZM232.385 251.995L232.82 251.095L231.92 250.659L231.484 251.559L232.385 251.995ZM243.201 257.231L244.101 257.667L244.537 256.767L243.637 256.331L243.201 257.231ZM240.845 262.099L241.281 261.199L230.464 255.962L230.028 256.862L229.592 257.762L240.409 262.999L240.845 262.099ZM230.028 256.862L230.928 257.298L233.285 252.43L232.385 251.995L231.484 251.559L229.128 256.426L230.028 256.862ZM232.385 251.995L231.949 252.895L242.766 258.131L243.201 257.231L243.637 256.331L232.82 251.095L232.385 251.995ZM243.201 257.231L242.301 256.795L239.945 261.663L240.845 262.099L241.745 262.534L244.101 257.667L243.201 257.231ZM254.357 268.64L253.921 269.54L254.821 269.976L255.257 269.076L254.357 268.64ZM243.54 263.404L242.64 262.968L242.204 263.868L243.105 264.304L243.54 263.404ZM245.897 258.536L246.332 257.636L245.432 257.2L244.997 258.1L245.897 258.536ZM256.714 263.772L257.614 264.208L258.049 263.308L257.149 262.872L256.714 263.772ZM254.357 268.64L254.793 267.74L243.976 262.503L243.54 263.404L243.105 264.304L253.921 269.54L254.357 268.64ZM243.54 263.404L244.44 263.839L246.797 258.972L245.897 258.536L244.997 258.1L242.64 262.968L243.54 263.404ZM245.897 258.536L245.461 259.436L256.278 264.673L256.714 263.772L257.149 262.872L246.332 257.636L245.897 258.536ZM256.714 263.772L255.813 263.337L253.457 268.204L254.357 268.64L255.257 269.076L257.614 264.208L256.714 263.772Z" fill="#FAFAFA" mask="url(#path-14-outside-4_259_206)"/>
<mask id="path-16-outside-5_259_206" maskUnits="userSpaceOnUse" x="44.1218" y="182.343" width="260.007" height="131.385" fill="black">
<rect fill="white" x="44.1218" y="182.343" width="260.007" height="131.385"/>
<path d="M56.9068 194.162L46.09 188.926L48.4464 184.058L59.2632 189.295L56.9068 194.162ZM70.419 200.704L59.6022 195.467L61.9586 190.6L72.7754 195.836L70.419 200.704ZM83.9312 207.245L73.1144 202.009L75.4708 197.141L86.2876 202.377L83.9312 207.245ZM97.4434 213.786L86.6266 208.55L88.983 203.682L99.7999 208.919L97.4434 213.786ZM110.956 220.328L100.139 215.091L102.495 210.224L113.312 215.46L110.956 220.328ZM124.468 226.869L113.651 221.633L116.007 216.765L126.824 222.002L124.468 226.869ZM137.98 233.411L127.163 228.174L129.52 223.306L140.337 228.543L137.98 233.411ZM151.492 239.952L140.675 234.715L143.032 229.848L153.849 235.084L151.492 239.952ZM165.005 246.493L154.188 241.257L156.544 236.389L167.361 241.626L165.005 246.493ZM178.517 253.035L167.7 247.798L170.056 242.931L180.873 248.167L178.517 253.035ZM192.029 259.576L181.212 254.339L183.569 249.472L194.385 254.708L192.029 259.576ZM205.541 266.117L194.724 260.881L197.081 256.013L207.898 261.25L205.541 266.117ZM219.053 272.659L208.237 267.422L210.593 262.555L221.41 267.791L219.053 272.659ZM232.566 279.2L221.749 273.964L224.105 269.096L234.922 274.333L232.566 279.2ZM246.078 285.741L235.261 280.505L237.617 275.637L248.434 280.874L246.078 285.741ZM259.59 292.283L248.773 287.046L251.13 282.179L261.946 287.415L259.59 292.283ZM273.102 298.824L262.285 293.588L264.642 288.72L275.459 293.957L273.102 298.824ZM286.614 305.366L275.798 300.129L278.154 295.262L288.971 300.498L286.614 305.366ZM300.127 311.907L289.31 306.67L291.666 301.803L302.483 307.039L300.127 311.907Z"/>
</mask>
<path d="M56.9068 194.162L46.09 188.926L48.4464 184.058L59.2632 189.295L56.9068 194.162ZM70.419 200.704L59.6022 195.467L61.9586 190.6L72.7754 195.836L70.419 200.704ZM83.9312 207.245L73.1144 202.009L75.4708 197.141L86.2876 202.377L83.9312 207.245ZM97.4434 213.786L86.6266 208.55L88.983 203.682L99.7999 208.919L97.4434 213.786ZM110.956 220.328L100.139 215.091L102.495 210.224L113.312 215.46L110.956 220.328ZM124.468 226.869L113.651 221.633L116.007 216.765L126.824 222.002L124.468 226.869ZM137.98 233.411L127.163 228.174L129.52 223.306L140.337 228.543L137.98 233.411ZM151.492 239.952L140.675 234.715L143.032 229.848L153.849 235.084L151.492 239.952ZM165.005 246.493L154.188 241.257L156.544 236.389L167.361 241.626L165.005 246.493ZM178.517 253.035L167.7 247.798L170.056 242.931L180.873 248.167L178.517 253.035ZM192.029 259.576L181.212 254.339L183.569 249.472L194.385 254.708L192.029 259.576ZM205.541 266.117L194.724 260.881L197.081 256.013L207.898 261.25L205.541 266.117ZM219.053 272.659L208.237 267.422L210.593 262.555L221.41 267.791L219.053 272.659ZM232.566 279.2L221.749 273.964L224.105 269.096L234.922 274.333L232.566 279.2ZM246.078 285.741L235.261 280.505L237.617 275.637L248.434 280.874L246.078 285.741ZM259.59 292.283L248.773 287.046L251.13 282.179L261.946 287.415L259.59 292.283ZM273.102 298.824L262.285 293.588L264.642 288.72L275.459 293.957L273.102 298.824ZM286.614 305.366L275.798 300.129L278.154 295.262L288.971 300.498L286.614 305.366ZM300.127 311.907L289.31 306.67L291.666 301.803L302.483 307.039L300.127 311.907Z" fill="black"/>
<path d="M56.9068 194.162L56.4711 195.062L57.3711 195.498L57.8069 194.598L56.9068 194.162ZM46.09 188.926L45.1899 188.49L44.7542 189.39L45.6542 189.826L46.09 188.926ZM48.4464 184.058L48.8821 183.158L47.9821 182.722L47.5463 183.623L48.4464 184.058ZM59.2632 189.295L60.1633 189.73L60.599 188.83L59.6989 188.395L59.2632 189.295ZM56.9068 194.162L57.3425 193.262L46.5257 188.026L46.09 188.926L45.6542 189.826L56.4711 195.062L56.9068 194.162ZM46.09 188.926L46.99 189.362L49.3465 184.494L48.4464 184.058L47.5463 183.623L45.1899 188.49L46.09 188.926ZM48.4464 184.058L48.0107 184.958L58.8275 190.195L59.2632 189.295L59.6989 188.395L48.8821 183.158L48.4464 184.058ZM59.2632 189.295L58.3631 188.859L56.0067 193.727L56.9068 194.162L57.8069 194.598L60.1633 189.73L59.2632 189.295ZM70.419 200.704L69.9833 201.604L70.8833 202.039L71.3191 201.139L70.419 200.704ZM59.6022 195.467L58.7021 195.031L58.2664 195.932L59.1665 196.367L59.6022 195.467ZM61.9586 190.6L62.3943 189.7L61.4943 189.264L61.0585 190.164L61.9586 190.6ZM72.7754 195.836L73.6755 196.272L74.1112 195.372L73.2112 194.936L72.7754 195.836ZM70.419 200.704L70.8547 199.804L60.0379 194.567L59.6022 195.467L59.1665 196.367L69.9833 201.604L70.419 200.704ZM59.6022 195.467L60.5023 195.903L62.8587 191.035L61.9586 190.6L61.0585 190.164L58.7021 195.031L59.6022 195.467ZM61.9586 190.6L61.5229 191.5L72.3397 196.736L72.7754 195.836L73.2112 194.936L62.3943 189.7L61.9586 190.6ZM72.7754 195.836L71.8754 195.4L69.5189 200.268L70.419 200.704L71.3191 201.139L73.6755 196.272L72.7754 195.836ZM83.9312 207.245L83.4955 208.145L84.3956 208.581L84.8313 207.681L83.9312 207.245ZM73.1144 202.009L72.2143 201.573L71.7786 202.473L72.6787 202.909L73.1144 202.009ZM75.4708 197.141L75.9066 196.241L75.0065 195.805L74.5708 196.705L75.4708 197.141ZM86.2876 202.377L87.1877 202.813L87.6235 201.913L86.7234 201.477L86.2876 202.377ZM83.9312 207.245L84.367 206.345L73.5501 201.108L73.1144 202.009L72.6787 202.909L83.4955 208.145L83.9312 207.245ZM73.1144 202.009L74.0145 202.444L76.3709 197.577L75.4708 197.141L74.5708 196.705L72.2143 201.573L73.1144 202.009ZM75.4708 197.141L75.0351 198.041L85.8519 203.278L86.2876 202.377L86.7234 201.477L75.9066 196.241L75.4708 197.141ZM86.2876 202.377L85.3876 201.942L83.0311 206.809L83.9312 207.245L84.8313 207.681L87.1877 202.813L86.2876 202.377ZM97.4434 213.786L97.0077 214.686L97.9078 215.122L98.3435 214.222L97.4434 213.786ZM86.6266 208.55L85.7265 208.114L85.2908 209.014L86.1909 209.45L86.6266 208.55ZM88.983 203.682L89.4188 202.782L88.5187 202.347L88.083 203.247L88.983 203.682ZM99.7999 208.919L100.7 209.355L101.136 208.455L100.236 208.019L99.7999 208.919ZM97.4434 213.786L97.8792 212.886L87.0624 207.65L86.6266 208.55L86.1909 209.45L97.0077 214.686L97.4434 213.786ZM86.6266 208.55L87.5267 208.986L89.8831 204.118L88.983 203.682L88.083 203.247L85.7265 208.114L86.6266 208.55ZM88.983 203.682L88.5473 204.582L99.3641 209.819L99.7999 208.919L100.236 208.019L89.4188 202.782L88.983 203.682ZM99.7999 208.919L98.8998 208.483L96.5434 213.351L97.4434 213.786L98.3435 214.222L100.7 209.355L99.7999 208.919ZM110.956 220.328L110.52 221.228L111.42 221.664L111.856 220.764L110.956 220.328ZM100.139 215.091L99.2388 214.656L98.803 215.556L99.7031 215.991L100.139 215.091ZM102.495 210.224L102.931 209.324L102.031 208.888L101.595 209.788L102.495 210.224ZM113.312 215.46L114.212 215.896L114.648 214.996L113.748 214.56L113.312 215.46ZM110.956 220.328L111.391 219.428L100.575 214.191L100.139 215.091L99.7031 215.991L110.52 221.228L110.956 220.328ZM100.139 215.091L101.039 215.527L103.395 210.659L102.495 210.224L101.595 209.788L99.2388 214.656L100.139 215.091ZM102.495 210.224L102.06 211.124L112.876 216.36L113.312 215.46L113.748 214.56L102.931 209.324L102.495 210.224ZM113.312 215.46L112.412 215.024L110.056 219.892L110.956 220.328L111.856 220.764L114.212 215.896L113.312 215.46ZM124.468 226.869L124.032 227.769L124.932 228.205L125.368 227.305L124.468 226.869ZM113.651 221.633L112.751 221.197L112.315 222.097L113.215 222.533L113.651 221.633ZM116.007 216.765L116.443 215.865L115.543 215.429L115.107 216.329L116.007 216.765ZM126.824 222.002L127.724 222.437L128.16 221.537L127.26 221.102L126.824 222.002ZM124.468 226.869L124.904 225.969L114.087 220.733L113.651 221.633L113.215 222.533L124.032 227.769L124.468 226.869ZM113.651 221.633L114.551 222.068L116.908 217.201L116.007 216.765L115.107 216.329L112.751 221.197L113.651 221.633ZM116.007 216.765L115.572 217.665L126.389 222.902L126.824 222.002L127.26 221.102L116.443 215.865L116.007 216.765ZM126.824 222.002L125.924 221.566L123.568 226.433L124.468 226.869L125.368 227.305L127.724 222.437L126.824 222.002ZM137.98 233.411L137.544 234.311L138.444 234.746L138.88 233.846L137.98 233.411ZM127.163 228.174L126.263 227.738L125.827 228.638L126.728 229.074L127.163 228.174ZM129.52 223.306L129.955 222.406L129.055 221.971L128.62 222.871L129.52 223.306ZM140.337 228.543L141.237 228.979L141.672 228.079L140.772 227.643L140.337 228.543ZM137.98 233.411L138.416 232.51L127.599 227.274L127.163 228.174L126.728 229.074L137.544 234.311L137.98 233.411ZM127.163 228.174L128.063 228.61L130.42 223.742L129.52 223.306L128.62 222.871L126.263 227.738L127.163 228.174ZM129.52 223.306L129.084 224.207L139.901 229.443L140.337 228.543L140.772 227.643L129.955 222.406L129.52 223.306ZM140.337 228.543L139.436 228.107L137.08 232.975L137.98 233.411L138.88 233.846L141.237 228.979L140.337 228.543ZM151.492 239.952L151.057 240.852L151.957 241.288L152.392 240.388L151.492 239.952ZM140.675 234.715L139.775 234.28L139.34 235.18L140.24 235.615L140.675 234.715ZM143.032 229.848L143.468 228.948L142.568 228.512L142.132 229.412L143.032 229.848ZM153.849 235.084L154.749 235.52L155.185 234.62L154.284 234.184L153.849 235.084ZM151.492 239.952L151.928 239.052L141.111 233.815L140.675 234.715L140.24 235.615L151.057 240.852L151.492 239.952ZM140.675 234.715L141.576 235.151L143.932 230.284L143.032 229.848L142.132 229.412L139.775 234.28L140.675 234.715ZM143.032 229.848L142.596 230.748L153.413 235.984L153.849 235.084L154.284 234.184L143.468 228.948L143.032 229.848ZM153.849 235.084L152.949 234.649L150.592 239.516L151.492 239.952L152.392 240.388L154.749 235.52L153.849 235.084ZM165.005 246.493L164.569 247.393L165.469 247.829L165.905 246.929L165.005 246.493ZM154.188 241.257L153.288 240.821L152.852 241.721L153.752 242.157L154.188 241.257ZM156.544 236.389L156.98 235.489L156.08 235.053L155.644 235.953L156.544 236.389ZM167.361 241.626L168.261 242.061L168.697 241.161L167.797 240.726L167.361 241.626ZM165.005 246.493L165.44 245.593L154.623 240.357L154.188 241.257L153.752 242.157L164.569 247.393L165.005 246.493ZM154.188 241.257L155.088 241.692L157.444 236.825L156.544 236.389L155.644 235.953L153.288 240.821L154.188 241.257ZM156.544 236.389L156.108 237.289L166.925 242.526L167.361 241.626L167.797 240.726L156.98 235.489L156.544 236.389ZM167.361 241.626L166.461 241.19L164.104 246.058L165.005 246.493L165.905 246.929L168.261 242.061L167.361 241.626ZM178.517 253.035L178.081 253.935L178.981 254.37L179.417 253.47L178.517 253.035ZM167.7 247.798L166.8 247.362L166.364 248.262L167.264 248.698L167.7 247.798ZM170.056 242.931L170.492 242.03L169.592 241.595L169.156 242.495L170.056 242.931ZM180.873 248.167L181.773 248.603L182.209 247.703L181.309 247.267L180.873 248.167ZM178.517 253.035L178.952 252.135L168.136 246.898L167.7 247.798L167.264 248.698L178.081 253.935L178.517 253.035ZM167.7 247.798L168.6 248.234L170.956 243.366L170.056 242.931L169.156 242.495L166.8 247.362L167.7 247.798ZM170.056 242.931L169.621 243.831L180.437 249.067L180.873 248.167L181.309 247.267L170.492 242.03L170.056 242.931ZM180.873 248.167L179.973 247.731L177.617 252.599L178.517 253.035L179.417 253.47L181.773 248.603L180.873 248.167ZM192.029 259.576L191.593 260.476L192.493 260.912L192.929 260.012L192.029 259.576ZM181.212 254.339L180.312 253.904L179.876 254.804L180.776 255.24L181.212 254.339ZM183.569 249.472L184.004 248.572L183.104 248.136L182.668 249.036L183.569 249.472ZM194.385 254.708L195.285 255.144L195.721 254.244L194.821 253.808L194.385 254.708ZM192.029 259.576L192.465 258.676L181.648 253.439L181.212 254.339L180.776 255.24L191.593 260.476L192.029 259.576ZM181.212 254.339L182.112 254.775L184.469 249.908L183.569 249.472L182.668 249.036L180.312 253.904L181.212 254.339ZM183.569 249.472L183.133 250.372L193.95 255.609L194.385 254.708L194.821 253.808L184.004 248.572L183.569 249.472ZM194.385 254.708L193.485 254.273L191.129 259.14L192.029 259.576L192.929 260.012L195.285 255.144L194.385 254.708ZM205.541 266.117L205.105 267.017L206.006 267.453L206.441 266.553L205.541 266.117ZM194.724 260.881L193.824 260.445L193.389 261.345L194.289 261.781L194.724 260.881ZM197.081 256.013L197.517 255.113L196.616 254.677L196.181 255.578L197.081 256.013ZM207.898 261.25L208.798 261.686L209.233 260.785L208.333 260.35L207.898 261.25ZM205.541 266.117L205.977 265.217L195.16 259.981L194.724 260.881L194.289 261.781L205.105 267.017L205.541 266.117ZM194.724 260.881L195.624 261.317L197.981 256.449L197.081 256.013L196.181 255.578L193.824 260.445L194.724 260.881ZM197.081 256.013L196.645 256.913L207.462 262.15L207.898 261.25L208.333 260.35L197.517 255.113L197.081 256.013ZM207.898 261.25L206.998 260.814L204.641 265.682L205.541 266.117L206.441 266.553L208.798 261.686L207.898 261.25ZM219.053 272.659L218.618 273.559L219.518 273.995L219.953 273.094L219.053 272.659ZM208.237 267.422L207.336 266.987L206.901 267.887L207.801 268.322L208.237 267.422ZM210.593 262.555L211.029 261.655L210.129 261.219L209.693 262.119L210.593 262.555ZM221.41 267.791L222.31 268.227L222.746 267.327L221.846 266.891L221.41 267.791ZM219.053 272.659L219.489 271.759L208.672 266.522L208.237 267.422L207.801 268.322L218.618 273.559L219.053 272.659ZM208.237 267.422L209.137 267.858L211.493 262.99L210.593 262.555L209.693 262.119L207.336 266.987L208.237 267.422ZM210.593 262.555L210.157 263.455L220.974 268.691L221.41 267.791L221.846 266.891L211.029 261.655L210.593 262.555ZM221.41 267.791L220.51 267.355L218.153 272.223L219.053 272.659L219.953 273.094L222.31 268.227L221.41 267.791ZM232.566 279.2L232.13 280.1L233.03 280.536L233.466 279.636L232.566 279.2ZM221.749 273.964L220.849 273.528L220.413 274.428L221.313 274.864L221.749 273.964ZM224.105 269.096L224.541 268.196L223.641 267.76L223.205 268.66L224.105 269.096ZM234.922 274.333L235.822 274.768L236.258 273.868L235.358 273.432L234.922 274.333ZM232.566 279.2L233.001 278.3L222.185 273.064L221.749 273.964L221.313 274.864L232.13 280.1L232.566 279.2ZM221.749 273.964L222.649 274.399L225.005 269.532L224.105 269.096L223.205 268.66L220.849 273.528L221.749 273.964ZM224.105 269.096L223.669 269.996L234.486 275.233L234.922 274.333L235.358 273.432L224.541 268.196L224.105 269.096ZM234.922 274.333L234.022 273.897L231.666 278.764L232.566 279.2L233.466 279.636L235.822 274.768L234.922 274.333ZM246.078 285.741L245.642 286.642L246.542 287.077L246.978 286.177L246.078 285.741ZM235.261 280.505L234.361 280.069L233.925 280.969L234.825 281.405L235.261 280.505ZM237.617 275.637L238.053 274.737L237.153 274.302L236.717 275.202L237.617 275.637ZM248.434 280.874L249.334 281.31L249.77 280.41L248.87 279.974L248.434 280.874ZM246.078 285.741L246.514 284.841L235.697 279.605L235.261 280.505L234.825 281.405L245.642 286.642L246.078 285.741ZM235.261 280.505L236.161 280.941L238.517 276.073L237.617 275.637L236.717 275.202L234.361 280.069L235.261 280.505ZM237.617 275.637L237.182 276.537L247.998 281.774L248.434 280.874L248.87 279.974L238.053 274.737L237.617 275.637ZM248.434 280.874L247.534 280.438L245.178 285.306L246.078 285.741L246.978 286.177L249.334 281.31L248.434 280.874ZM259.59 292.283L259.154 293.183L260.054 293.619L260.49 292.719L259.59 292.283ZM248.773 287.046L247.873 286.611L247.437 287.511L248.337 287.946L248.773 287.046ZM251.13 282.179L251.565 281.279L250.665 280.843L250.23 281.743L251.13 282.179ZM261.946 287.415L262.847 287.851L263.282 286.951L262.382 286.515L261.946 287.415ZM259.59 292.283L260.026 291.383L249.209 286.146L248.773 287.046L248.337 287.946L259.154 293.183L259.59 292.283ZM248.773 287.046L249.673 287.482L252.03 282.615L251.13 282.179L250.23 281.743L247.873 286.611L248.773 287.046ZM251.13 282.179L250.694 283.079L261.511 288.315L261.946 287.415L262.382 286.515L251.565 281.279L251.13 282.179ZM261.946 287.415L261.046 286.98L258.69 291.847L259.59 292.283L260.49 292.719L262.847 287.851L261.946 287.415ZM273.102 298.824L272.667 299.724L273.567 300.16L274.002 299.26L273.102 298.824ZM262.285 293.588L261.385 293.152L260.95 294.052L261.85 294.488L262.285 293.588ZM264.642 288.72L265.078 287.82L264.178 287.384L263.742 288.284L264.642 288.72ZM275.459 293.957L276.359 294.392L276.794 293.492L275.894 293.057L275.459 293.957ZM273.102 298.824L273.538 297.924L262.721 292.688L262.285 293.588L261.85 294.488L272.667 299.724L273.102 298.824ZM262.285 293.588L263.186 294.023L265.542 289.156L264.642 288.72L263.742 288.284L261.385 293.152L262.285 293.588ZM264.642 288.72L264.206 289.62L275.023 294.857L275.459 293.957L275.894 293.057L265.078 287.82L264.642 288.72ZM275.459 293.957L274.559 293.521L272.202 298.388L273.102 298.824L274.002 299.26L276.359 294.392L275.459 293.957ZM286.614 305.366L286.179 306.266L287.079 306.701L287.515 305.801L286.614 305.366ZM275.798 300.129L274.898 299.693L274.462 300.593L275.362 301.029L275.798 300.129ZM278.154 295.262L278.59 294.361L277.69 293.926L277.254 294.826L278.154 295.262ZM288.971 300.498L289.871 300.934L290.307 300.034L289.407 299.598L288.971 300.498ZM286.614 305.366L287.05 304.466L276.233 299.229L275.798 300.129L275.362 301.029L286.179 306.266L286.614 305.366ZM275.798 300.129L276.698 300.565L279.054 295.697L278.154 295.262L277.254 294.826L274.898 299.693L275.798 300.129ZM278.154 295.262L277.718 296.162L288.535 301.398L288.971 300.498L289.407 299.598L278.59 294.361L278.154 295.262ZM288.971 300.498L288.071 300.062L285.714 304.93L286.614 305.366L287.515 305.801L289.871 300.934L288.971 300.498ZM300.127 311.907L299.691 312.807L300.591 313.243L301.027 312.343L300.127 311.907ZM289.31 306.67L288.41 306.235L287.974 307.135L288.874 307.571L289.31 306.67ZM291.666 301.803L292.102 300.903L291.202 300.467L290.766 301.367L291.666 301.803ZM302.483 307.039L303.383 307.475L303.819 306.575L302.919 306.139L302.483 307.039ZM300.127 311.907L300.562 311.007L289.746 305.77L289.31 306.67L288.874 307.571L299.691 312.807L300.127 311.907ZM289.31 306.67L290.21 307.106L292.566 302.239L291.666 301.803L290.766 301.367L288.41 306.235L289.31 306.67ZM291.666 301.803L291.231 302.703L302.047 307.939L302.483 307.039L302.919 306.139L292.102 300.903L291.666 301.803ZM302.483 307.039L301.583 306.604L299.227 311.471L300.127 311.907L301.027 312.343L303.383 307.475L302.483 307.039Z" fill="#FAFAFA" mask="url(#path-16-outside-5_259_206)"/>
<rect x="86.8301" y="66.8981" width="121" height="24" rx="3" transform="rotate(25.832 86.8301 66.8981)" fill="#690000"/>
<rect x="287.291" y="155.723" width="80.2392" height="27.1397" rx="3.53997" transform="rotate(-1.59595 287.291 155.723)" fill="black"/>
<rect x="331.703" y="126" width="80.2392" height="27.1397" rx="3.53997" transform="rotate(76.6366 331.703 126)" fill="black"/>
<rect x="106.873" y="25.4948" width="68" height="23" rx="3" transform="rotate(25.832 106.873 25.4948)" fill="black"/>
<rect x="92.0391" y="159.412" width="76" height="11" rx="3" transform="rotate(25.832 92.0391 159.412)" fill="black"/>
<rect x="206.484" y="260.368" width="65" height="11" rx="3" transform="rotate(25.832 206.484 260.368)" fill="black"/>
</svg>
