<svg width="956" height="1046" viewBox="0 0 956 1046" fill="none" xmlns="http://www.w3.org/2000/svg">
<rect x="335.972" y="735.51" width="60.4941" height="118.274" rx="9.90863" transform="rotate(29.4987 335.972 735.51)" fill="#D9D9D9" stroke="black" stroke-width="2.60753"/>
<rect x="380.327" y="633.947" width="84.0622" height="118.274" rx="9.90863" transform="rotate(29.4987 380.327 633.947)" fill="#D9D9D9" stroke="black" stroke-width="2.60753"/>
<rect x="380.327" y="633.947" width="84.0622" height="118.274" rx="9.90863" transform="rotate(29.4987 380.327 633.947)" fill="#D9D9D9" stroke="black" stroke-width="2.60753"/>
<rect x="391.148" y="759.737" width="30.2738" height="59.1927" rx="9.90863" transform="rotate(119.499 391.148 759.737)" fill="#828282" stroke="black" stroke-width="2.60753"/>
<rect x="778.187" y="570.78" width="60.4941" height="194.3" rx="9.90863" transform="rotate(119.499 778.187 570.78)" fill="#D9D9D9" stroke="black" stroke-width="2.60753"/>
<rect x="244.349" y="432.837" width="60.4941" height="136.353" rx="9.90863" transform="rotate(-134.313 244.349 432.837)" fill="#D9D9D9" stroke="black" stroke-width="2.60753"/>
<rect x="206.015" y="381.596" width="60.4941" height="118.274" rx="9.90863" transform="rotate(29.4987 206.015 381.596)" fill="#D9D9D9" stroke="black" stroke-width="2.60753"/>
<rect x="193.704" y="655.023" width="60.4941" height="118.274" rx="9.90863" transform="rotate(29.4987 193.704 655.023)" fill="#D9D9D9" stroke="black" stroke-width="2.60753"/>
<rect x="239.183" y="551.475" width="84.0622" height="118.274" rx="9.90863" transform="rotate(29.4987 239.183 551.475)" fill="#D9D9D9" stroke="black" stroke-width="2.60753"/>
<rect x="239.183" y="551.475" width="84.0622" height="118.274" rx="9.90863" transform="rotate(29.4987 239.183 551.475)" fill="#D9D9D9" stroke="black" stroke-width="2.60753"/>
<rect x="71.8046" y="777.853" width="58.2133" height="118.274" rx="29.1067" transform="rotate(-60.5013 71.8046 777.853)" fill="#D9D9D9" stroke="black" stroke-width="2.60753"/>
<rect x="243.848" y="875.185" width="58.2133" height="118.274" rx="29.1067" transform="rotate(-60.5013 243.848 875.185)" fill="#D9D9D9" stroke="black" stroke-width="2.60753"/>
<rect x="477.956" y="662.975" width="84.0622" height="277.168" rx="9.90863" transform="rotate(119.499 477.956 662.975)" fill="#D9D9D9" stroke="black" stroke-width="2.60753"/>
<rect x="794.704" y="574.01" width="60.4941" height="39.2068" rx="9.90863" transform="rotate(119.499 794.704 574.01)" fill="#D9D9D9" stroke="black" stroke-width="2.60753"/>
<rect x="192.506" y="536.048" width="60.4941" height="39.2068" rx="9.90863" transform="rotate(-150.501 192.506 536.048)" fill="#D9D9D9" stroke="black" stroke-width="2.60753"/>
<rect x="779.493" y="545.314" width="30.8439" height="12.5977" rx="6.29884" transform="rotate(119.499 779.493 545.314)" fill="#D9D9D9" stroke="black" stroke-width="2.60753"/>
<rect x="787.603" y="595.823" width="27.0426" height="12.5977" rx="6.29884" transform="rotate(-150.501 787.603 595.823)" fill="#D9D9D9" stroke="black" stroke-width="2.60753"/>
<rect x="778.994" y="611.042" width="27.0426" height="12.5977" rx="6.29884" transform="rotate(-150.501 778.994 611.042)" fill="#D9D9D9" stroke="black" stroke-width="2.60753"/>
<rect x="770.385" y="626.261" width="27.0426" height="12.5977" rx="6.29884" transform="rotate(-150.501 770.385 626.261)" fill="#D9D9D9" stroke="black" stroke-width="2.60753"/>
<rect x="313.126" y="291.079" width="60.4941" height="88.6238" rx="9.90863" transform="rotate(29.4987 313.126 291.079)" fill="#828282" stroke="black" stroke-width="2.60753"/>
<rect x="197.49" y="397.14" width="30.2738" height="59.1927" rx="9.90863" transform="rotate(-48.8873 197.49 397.14)" fill="#828282" stroke="black" stroke-width="2.60753"/>
<rect x="680.54" y="515.537" width="30.2738" height="59.1927" rx="9.90863" transform="rotate(29.4987 680.54 515.537)" fill="#828282" stroke="black" stroke-width="2.60753"/>
<rect x="248.88" y="679.251" width="30.2738" height="59.1927" rx="9.90863" transform="rotate(119.499 248.88 679.251)" fill="#828282" stroke="black" stroke-width="2.60753"/>
<rect x="773.677" y="552.505" width="4.99507" height="10.3169" rx="2.49754" transform="rotate(119.499 773.677 552.505)" fill="#828282" stroke="black" stroke-width="2.60753"/>
<rect x="788.353" y="594.499" width="4.99507" height="10.3169" rx="2.49754" transform="rotate(-150.501 788.353 594.499)" fill="#828282" stroke="black" stroke-width="2.60753"/>
<rect x="779.742" y="609.719" width="4.99507" height="10.3169" rx="2.49754" transform="rotate(-150.501 779.742 609.719)" fill="#828282" stroke="black" stroke-width="2.60753"/>
<rect x="771.133" y="624.938" width="4.99507" height="10.3169" rx="2.49754" transform="rotate(-150.501 771.133 624.938)" fill="#828282" stroke="black" stroke-width="2.60753"/>
<rect x="588.396" y="446.811" width="60.4941" height="88.6238" rx="9.90863" transform="rotate(29.4987 588.396 446.811)" fill="#828282" stroke="black" stroke-width="2.60753"/>
<rect x="184.693" y="818.51" width="24.0016" height="118.274" rx="2.49754" transform="rotate(119.499 184.693 818.51)" fill="#D9D9D9" stroke="black" stroke-width="2.60753"/>
<rect x="356.735" y="915.842" width="24.0016" height="118.274" rx="2.49754" transform="rotate(119.499 356.735 915.842)" fill="#D9D9D9" stroke="black" stroke-width="2.60753"/>
<rect x="354.005" y="285.215" width="310.877" height="303.921" rx="9.90863" transform="rotate(29.4987 354.005 285.215)" fill="#D9D9D9" stroke="black" stroke-width="2.60753"/>
<circle cx="565.323" cy="227.552" r="125.389" transform="rotate(29.4987 565.323 227.552)" fill="#D9D9D9" stroke="black" stroke-width="2.60753"/>
<rect x="406.722" y="253.246" width="245.76" height="53.1575" rx="9.90863" transform="rotate(29.4987 406.722 253.246)" fill="#D9D9D9" stroke="black" stroke-width="2.60753"/>
<path d="M620.442 160.059C668.806 187.42 691.857 241.947 668.911 282.507C645.965 323.066 587.354 331.393 538.991 304.032C490.627 276.671 467.575 222.144 490.521 181.585C513.468 141.025 572.079 132.698 620.442 160.059Z" fill="black" stroke="#868686" stroke-width="9.2747"/>
<path d="M600.663 190.562L598.635 203.092L606.827 212.788L594.297 210.76L584.601 218.953L586.629 206.422L578.436 196.726L590.967 198.754L600.663 190.562Z" fill="white"/>
<path d="M656.214 261.815L654.186 274.346L662.378 284.042L649.848 282.014L640.152 290.206L642.179 277.676L633.987 267.98L646.518 270.007L656.214 261.815Z" fill="white"/>
<path d="M566.219 233.612L565.123 240.385L569.551 245.626L562.778 244.53L557.537 248.958L558.633 242.185L554.204 236.944L560.978 238.04L566.219 233.612Z" fill="white"/>
<path d="M648.878 217.523L647.947 223.28L651.711 227.735L645.953 226.803L641.498 230.567L642.43 224.81L638.666 220.355L644.423 221.287L648.878 217.523Z" fill="white"/>
<path d="M572.749 287.795L571.818 293.552L575.582 298.007L569.824 297.075L565.37 300.839L566.301 295.082L562.537 290.627L568.294 291.559L572.749 287.795Z" fill="white"/>
<rect x="532.378" y="423.854" width="57.4531" height="58.9736" rx="9.90863" transform="rotate(29.4987 532.378 423.854)" fill="#B5B5B5" stroke="black" stroke-width="2.60753"/>
<rect x="526.554" y="451.132" width="24.0016" height="24.0016" rx="9.90863" transform="rotate(29.4987 526.554 451.132)" fill="#3A3939" stroke="black" stroke-width="2.60753"/>
<rect x="362.625" y="326.735" width="47.301" height="31.0702" transform="rotate(29.4987 362.625 326.735)" fill="#FF0000" stroke="black" stroke-width="2.31868"/>
<path d="M368.352 334.504L367.513 338.631L371.178 340.705L366.994 341.181L366.154 345.308L364.408 341.476L360.223 341.953L363.328 339.108L361.582 335.275L365.247 337.349L368.352 334.504Z" fill="#FFD900"/>
<path d="M375.469 337.465L375.2 338.785L376.373 339.449L375.034 339.601L374.765 340.922L374.206 339.696L372.867 339.848L373.861 338.938L373.302 337.712L374.475 338.375L375.469 337.465Z" fill="#FFD900"/>
<path d="M375.607 342.871L375.339 344.192L376.512 344.855L375.172 345.008L374.904 346.328L374.345 345.102L373.006 345.255L373.999 344.344L373.441 343.118L374.614 343.781L375.607 342.871Z" fill="#FFD900"/>
<path d="M373.552 346.503L373.284 347.824L374.457 348.487L373.118 348.64L372.849 349.961L372.29 348.734L370.951 348.887L371.945 347.976L371.386 346.75L372.559 347.414L373.552 346.503Z" fill="#FFD900"/>
<path d="M369.304 348.362L369.036 349.683L370.209 350.346L368.87 350.499L368.601 351.82L368.042 350.593L366.703 350.746L367.697 349.835L367.138 348.609L368.311 349.273L369.304 348.362Z" fill="#FFD900"/>
<rect x="211.213" y="512.294" width="36.926" height="12.5977" rx="6.29884" transform="rotate(109.973 211.213 512.294)" fill="#D9D9D9" stroke="black" stroke-width="2.60753"/>
<rect x="157.622" y="509.7" width="46.8094" height="12.5977" rx="6.29884" transform="rotate(119.499 157.622 509.7)" fill="#D9D9D9" stroke="black" stroke-width="2.60753"/>
<rect x="174.165" y="519.059" width="52.1312" height="12.5977" rx="6.29884" transform="rotate(119.499 174.165 519.059)" fill="#D9D9D9" stroke="black" stroke-width="2.60753"/>
<rect x="190.708" y="528.418" width="49.0902" height="12.5977" rx="6.29884" transform="rotate(119.499 190.708 528.418)" fill="#D9D9D9" stroke="black" stroke-width="2.60753"/>
<rect x="143.944" y="530.788" width="4.99507" height="10.3169" rx="2.49754" transform="rotate(119.499 143.944 530.788)" fill="#828282" stroke="black" stroke-width="2.60753"/>
<rect x="160.487" y="540.147" width="4.99507" height="10.3169" rx="2.49754" transform="rotate(119.499 160.487 540.147)" fill="#828282" stroke="black" stroke-width="2.60753"/>
<rect x="177.03" y="549.505" width="4.99507" height="10.3169" rx="2.49754" transform="rotate(119.499 177.03 549.505)" fill="#828282" stroke="black" stroke-width="2.60753"/>
<rect x="205.707" y="524.588" width="4.99507" height="10.3169" rx="2.49754" transform="rotate(109.969 205.707 524.588)" fill="#828282" stroke="black" stroke-width="2.60753"/>
<circle cx="563.207" cy="458.578" r="6.84235" transform="rotate(29.4987 563.207 458.578)" fill="#00F719" stroke="black" stroke-width="2.28078"/>
<circle cx="548.825" cy="446.947" r="4.20437" transform="rotate(29.4987 548.825 446.947)" fill="#F70000" stroke="black" stroke-width="1.47464"/>
<circle cx="536.913" cy="440.209" r="4.20437" transform="rotate(29.4987 536.913 440.209)" fill="#F70000" stroke="black" stroke-width="1.47464"/>
<line x1="81.2915" y1="788.212" x2="88.7786" y2="774.978" stroke="black" stroke-width="2.60769"/>
<line x1="94.5258" y1="795.699" x2="102.013" y2="782.465" stroke="black" stroke-width="2.60769"/>
<line x1="107.76" y1="803.187" x2="115.247" y2="789.952" stroke="black" stroke-width="2.60769"/>
<line x1="120.993" y1="810.673" x2="128.48" y2="797.439" stroke="black" stroke-width="2.60769"/>
<line x1="134.227" y1="818.16" x2="141.714" y2="804.926" stroke="black" stroke-width="2.60769"/>
<line x1="146.799" y1="825.273" x2="154.286" y2="812.039" stroke="black" stroke-width="2.60769"/>
<line x1="159.373" y1="832.386" x2="166.861" y2="819.152" stroke="black" stroke-width="2.60769"/>
<line x1="254.084" y1="884.221" x2="261.572" y2="870.987" stroke="black" stroke-width="2.60769"/>
<line x1="267.317" y1="891.708" x2="274.804" y2="878.474" stroke="black" stroke-width="2.60769"/>
<line x1="280.551" y1="899.195" x2="288.038" y2="885.961" stroke="black" stroke-width="2.60769"/>
<line x1="293.786" y1="906.682" x2="301.273" y2="893.448" stroke="black" stroke-width="2.60769"/>
<line x1="307.02" y1="914.169" x2="314.507" y2="900.935" stroke="black" stroke-width="2.60769"/>
<line x1="319.592" y1="921.282" x2="327.079" y2="908.048" stroke="black" stroke-width="2.60769"/>
<line x1="332.165" y1="928.395" x2="339.652" y2="915.16" stroke="black" stroke-width="2.60769"/>
<path d="M393.677 437.829L401.281 445.405C394.561 451.598 387.411 457.434 379.831 462.911C372.339 468.438 364.763 473.401 357.105 477.8C349.495 482.111 342.087 485.56 334.879 488.146C335.061 487.215 335.192 485.968 335.273 484.405C335.402 482.755 335.463 481.124 335.456 479.511C335.498 477.812 335.48 476.423 335.401 475.344C341.742 473.072 348.253 470.092 354.935 466.404C361.666 462.63 368.314 458.291 374.879 453.388C381.531 448.535 387.797 443.348 393.677 437.829ZM365.007 463.831L379.242 459.993L379.355 460.402L324.922 556.617L315.523 551.299L365.007 463.831ZM438.153 466.437L441.311 478.219C436.099 477.683 430.415 476.765 424.257 475.465C418.236 474.126 412.09 472.602 405.819 470.893C399.597 469.096 393.58 467.243 387.767 465.333C388.184 464.19 388.506 462.707 388.734 460.882C388.962 459.058 389.067 457.452 389.048 456.062C394.649 457.738 400.411 459.331 406.334 460.844C412.344 462.406 418.123 463.665 423.671 464.621C429.219 465.577 434.047 466.182 438.153 466.437ZM375.589 480.157L463.84 530.085L458.892 538.832L370.641 488.904L375.589 480.157ZM412.475 465.525L421.744 470.768L368.197 565.417C366.622 568.202 365.067 570.137 363.534 571.223C362.001 572.309 360.03 572.745 357.623 572.532C355.489 572.243 352.806 571.3 349.574 569.701C346.38 568.239 342.564 566.253 338.125 563.741C338.64 562.424 339.11 560.68 339.535 558.507C339.96 556.335 340.193 554.399 340.236 552.7C343.581 554.707 346.646 556.499 349.431 558.074C352.167 559.737 354.038 560.795 355.045 561.25C356.051 561.705 356.827 561.856 357.372 561.705C357.917 561.554 358.436 561.043 358.928 560.173L412.475 465.525ZM353.791 516.251C358.51 517.657 363.893 519.209 369.941 520.907C376.076 522.654 382.632 524.468 389.611 526.348C396.639 528.141 403.598 529.953 410.49 531.784L406.586 541.122C396.852 538.832 387.056 536.449 377.197 533.974C367.388 531.411 358.702 529.197 351.141 527.332L353.791 516.251ZM448.587 469.927L458.117 475.319C451.038 487.629 444.614 499.389 438.845 510.602C433.076 521.814 428.129 532.285 424.004 542.014C419.878 551.744 416.684 560.334 414.421 567.786C412.295 575.199 411.242 581.325 411.263 586.162C411.333 590.912 412.587 593.976 415.023 595.355C416.416 596.143 418.421 595.037 421.037 592.036C423.654 589.036 427.259 583.78 431.853 576.269C432.22 577.855 432.828 579.52 433.679 581.266C434.617 583.06 435.529 584.495 436.414 585.57C432.15 591.889 428.48 596.649 425.406 599.85C422.282 603.138 419.406 605.073 416.779 605.654C414.239 606.285 411.49 605.764 408.531 604.09C404.875 602.022 402.468 598.764 401.307 594.316C400.234 589.918 400.199 584.498 401.2 578.056C402.289 571.664 404.181 564.462 406.875 556.451C409.705 548.401 413.216 539.76 417.405 530.526C421.644 521.206 426.396 511.486 431.661 501.368C436.976 491.162 442.617 480.682 448.587 469.927ZM444.12 538.746L451.668 546.119C439.863 555.41 427.281 562.825 413.921 568.364C400.612 573.817 387.386 577.192 374.244 578.488C374.203 577.546 374.037 576.418 373.746 575.105C373.455 573.791 373.121 572.453 372.743 571.09C372.315 569.815 371.926 568.675 371.574 567.672C384.186 567.109 396.776 564.351 409.343 559.398C421.96 554.358 433.553 547.474 444.12 538.746ZM461.082 485.613L470.239 486.486C470.59 490.131 470.842 493.95 470.995 497.943C471.198 501.849 471.252 505.613 471.156 509.235C471.059 512.857 470.788 515.978 470.34 518.597L460.422 518.156C460.919 515.45 461.24 512.242 461.385 508.533C461.617 504.873 461.725 501.028 461.708 496.997C461.69 492.966 461.482 489.171 461.082 485.613Z" fill="black"/>
</svg>
