<svg width="2229" height="1600" viewBox="0 0 2229 1600" fill="none" xmlns="http://www.w3.org/2000/svg">
<rect x="1041.38" y="1445.5" width="50" height="662" transform="rotate(180 1041.38 1445.5)" fill="#333333" stroke="black" stroke-width="7"/>
<rect x="1154.38" y="1445.5" width="50" height="662" transform="rotate(180 1154.38 1445.5)" fill="#333333" stroke="black" stroke-width="7"/>
<rect x="355.288" y="139.411" width="1450.18" height="981.683" rx="26.1987" fill="#171717" stroke="black" stroke-width="30.8221"/>
<path d="M1742.65 1232L1744.01 1233.05L2201.95 1589.05L2213.46 1598H12.9385L22.5146 1589.3L414.334 1233.3L415.764 1232H1742.65Z" fill="#949494" stroke="black" stroke-width="10"/>
<path d="M1141.82 1303.53C1151.05 1303.53 1157.08 1313.21 1153.01 1321.5L1076.34 1477.5C1074.24 1481.77 1069.9 1484.47 1065.15 1484.47H242.506C231.313 1484.47 225.788 1470.86 233.812 1463.06L394.245 1307.06C396.573 1304.8 399.691 1303.53 402.938 1303.53H1141.82Z" fill="#171717" stroke="#898989" stroke-width="4.93787"/>
<path d="M487.036 1329.53L485.646 1332.93L472.162 1365.93L471.535 1367.47H411.355L413.8 1363.67L435.004 1330.67L435.732 1329.53H487.036Z" fill="#929292" stroke="black" stroke-width="4.93787"/>
<path d="M582.036 1329.53L580.646 1332.93L567.162 1365.93L566.535 1367.47H506.355L508.8 1363.67L530.004 1330.67L530.732 1329.53H582.036Z" fill="#929292" stroke="black" stroke-width="4.93787"/>
<path d="M677.036 1329.53L675.646 1332.93L662.162 1365.93L661.535 1367.47H601.355L603.8 1363.67L625.004 1330.67L625.732 1329.53H677.036Z" fill="#929292" stroke="black" stroke-width="4.93787"/>
<path d="M772.036 1329.53L770.646 1332.93L757.162 1365.93L756.535 1367.47H696.355L698.8 1363.67L720.004 1330.67L720.732 1329.53H772.036Z" fill="#929292" stroke="black" stroke-width="4.93787"/>
<path d="M867.036 1329.53L865.646 1332.93L852.162 1365.93L851.535 1367.47H791.355L793.8 1363.67L815.004 1330.67L815.732 1329.53H867.036Z" fill="#929292" stroke="black" stroke-width="4.93787"/>
<path d="M962.036 1329.53L960.646 1332.93L947.162 1365.93L946.535 1367.47H886.355L888.8 1363.67L910.004 1330.67L910.732 1329.53H962.036Z" fill="#929292" stroke="black" stroke-width="4.93787"/>
<path d="M1059.04 1329.53L1057.65 1332.93L1044.16 1365.93L1043.54 1367.47H983.355L985.8 1363.67L1007 1330.67L1007.73 1329.53H1059.04Z" fill="#929292" stroke="black" stroke-width="4.93787"/>
<path d="M420.036 1391.53L418.646 1394.93L405.162 1427.93L404.535 1429.47H344.355L346.8 1425.67L368.004 1392.67L368.732 1391.53H420.036Z" fill="#929292" stroke="black" stroke-width="4.93787"/>
<path d="M515.036 1391.53L513.646 1394.93L500.162 1427.93L499.535 1429.47H439.355L441.8 1425.67L463.004 1392.67L463.732 1391.53H515.036Z" fill="#929292" stroke="black" stroke-width="4.93787"/>
<path d="M610.036 1391.53L608.646 1394.93L595.162 1427.93L594.535 1429.47H534.355L536.8 1425.67L558.004 1392.67L558.732 1391.53H610.036Z" fill="#D9D9D9" stroke="black" stroke-width="4.93787"/>
<path d="M609.543 1391.53L608.165 1394.93L594.777 1427.93L594.152 1429.47H534.373L536.796 1425.67L557.848 1392.67L558.575 1391.53H609.543Z" fill="#929292" stroke="black" stroke-width="4.93787"/>
<path d="M704.543 1391.53L703.165 1394.93L689.777 1427.93L689.152 1429.47H629.373L631.796 1425.67L652.848 1392.67L653.575 1391.53H704.543Z" fill="#929292" stroke="black" stroke-width="4.93787"/>
<path d="M800.036 1391.53L798.646 1394.93L785.162 1427.93L784.535 1429.47H724.355L726.8 1425.67L748.004 1392.67L748.732 1391.53H800.036Z" fill="#929292" stroke="black" stroke-width="4.93787"/>
<path d="M895.036 1391.53L893.646 1394.93L880.162 1427.93L879.535 1429.47H819.355L821.8 1425.67L843.004 1392.67L843.732 1391.53H895.036Z" fill="#929292" stroke="black" stroke-width="4.93787"/>
<path d="M990.036 1391.53L988.646 1394.93L975.162 1427.93L974.535 1429.47H914.355L916.8 1425.67L938.004 1392.67L938.732 1391.53H990.036Z" fill="#D9D9D9" stroke="black" stroke-width="4.93787"/>
<path d="M989.543 1391.53L988.165 1394.93L974.777 1427.93L974.152 1429.47H914.373L916.796 1425.67L937.848 1392.67L938.575 1391.53H989.543Z" fill="#929292" stroke="black" stroke-width="4.93787"/>
<rect x="395.877" y="263" width="1332" height="819" rx="20" fill="#D9D9D9"/>
<rect x="406.877" y="209" width="385" height="100" rx="20" fill="#D9D9D9"/>
<circle cx="728.377" cy="235.5" r="11.5" fill="#FFF644"/>
<circle cx="693.377" cy="234.5" r="11.5" fill="#63FF44"/>
<circle cx="763.377" cy="235.5" r="11.5" fill="#FF0000"/>
<circle cx="763.377" cy="235.5" r="11.5" fill="#FF0000"/>
<path d="M436.317 247H432.997V220.32H450.477V223.28H436.317V247ZM448.605 247.48V245C449.511 245 450.258 244.4 450.845 243.2C451.431 242 451.911 240 452.285 237.2L453.525 227.68H466.965V247H463.965V230.32H456.165L455.285 237.56C454.858 241.107 454.111 243.653 453.045 245.2C451.978 246.72 450.498 247.48 448.605 247.48ZM475.835 247H472.955V227.68H475.955V242.44L486.075 227.68H489.035V247H486.035V231.96L475.835 247ZM501.225 227.2C503.412 227.2 505.172 228.333 506.505 230.6V220.32H509.505V230.56C510.092 229.547 510.839 228.733 511.745 228.12C512.679 227.507 513.679 227.2 514.745 227.2C516.825 227.2 518.505 228.12 519.785 229.96C521.065 231.773 521.705 234.227 521.705 237.32C521.705 240.413 521.052 242.88 519.745 244.72C518.465 246.56 516.799 247.48 514.745 247.48C512.559 247.48 510.812 246.347 509.505 244.08V254.36H506.505V244.12C505.919 245.133 505.159 245.947 504.225 246.56C503.292 247.173 502.292 247.48 501.225 247.48C499.145 247.48 497.465 246.573 496.185 244.76C494.905 242.92 494.265 240.453 494.265 237.36C494.265 234.267 494.905 231.8 496.185 229.96C497.492 228.12 499.172 227.2 501.225 227.2ZM502.065 229.88C500.599 229.88 499.439 230.587 498.585 232C497.732 233.387 497.305 235.173 497.305 237.36C497.305 239.547 497.732 241.333 498.585 242.72C499.439 244.107 500.599 244.8 502.065 244.8C502.972 244.8 503.839 244.507 504.665 243.92C505.492 243.333 506.105 242.6 506.505 241.72V233C506.079 232.12 505.452 231.387 504.625 230.8C503.799 230.187 502.945 229.88 502.065 229.88ZM513.905 244.8C515.372 244.8 516.532 244.107 517.385 242.72C518.239 241.307 518.665 239.507 518.665 237.32C518.665 235.133 518.239 233.347 517.385 231.96C516.532 230.573 515.372 229.88 513.905 229.88C513.025 229.88 512.172 230.187 511.345 230.8C510.519 231.387 509.905 232.107 509.505 232.96V241.68C509.932 242.56 510.545 243.307 511.345 243.92C512.172 244.507 513.025 244.8 513.905 244.8ZM526.939 227.68H529.939V235.16H537.179C539.099 235.16 540.593 235.733 541.659 236.88C542.726 238 543.259 239.4 543.259 241.08C543.259 242.76 542.713 244.173 541.619 245.32C540.553 246.44 539.073 247 537.179 247H526.939V227.68ZM536.859 237.8H529.939V244.36H536.859C537.926 244.36 538.739 244.067 539.299 243.48C539.886 242.867 540.179 242.067 540.179 241.08C540.179 240.093 539.886 239.307 539.299 238.72C538.739 238.107 537.926 237.8 536.859 237.8ZM549.419 247H546.419V227.68H549.419V247Z" fill="black"/>
<path d="M1792.38 1510.42L1792.38 1515.42C1792.37 1515.42 1792.37 1515.42 1792.37 1515.42C1792.36 1515.42 1792.34 1515.42 1792.36 1515.42L1792.15 1515.42C1792.01 1515.42 1791.79 1515.42 1791.5 1515.42C1790.92 1515.42 1790.07 1515.42 1788.96 1515.42C1786.74 1515.42 1783.5 1515.42 1779.42 1515.42C1771.24 1515.42 1759.66 1515.42 1746.06 1515.42C1718.88 1515.42 1683.63 1515.42 1651.38 1515.42L1569.85 1515.42C1559.55 1515.42 1551.27 1515.42 1545.56 1515.42C1542.7 1515.42 1540.49 1515.42 1538.99 1515.42C1538.24 1515.42 1537.67 1515.42 1537.29 1515.42C1537.1 1515.42 1536.95 1515.42 1536.85 1515.42C1536.81 1515.42 1536.77 1515.42 1536.75 1515.42C1536.73 1515.42 1536.72 1515.42 1536.72 1515.42C1536.71 1515.42 1536.71 1515.42 1536.71 1515.42L1536.71 1515.42L1532.48 1515.42L1531.78 1511.25C1520.94 1446.99 1564.26 1386.11 1628.52 1375.28C1661.46 1369.72 1701.1 1388.03 1733.23 1414.49C1765.45 1441.01 1791.84 1477.14 1797.31 1509.59L1798.29 1515.42L1792.38 1515.42L1792.38 1510.42Z" fill="#1C1C1C" stroke="black" stroke-width="10"/>
<rect x="1561.97" y="1215.11" width="78" height="247" transform="rotate(-9.56896 1561.97 1215.11)" fill="#1C1C1C" stroke="black" stroke-width="10"/>
<ellipse cx="1600.77" cy="1213.64" rx="82.5" ry="58" transform="rotate(-9.56896 1600.77 1213.64)" fill="black"/>
<path d="M1514.84 1286.66H1357.51C1346.23 1286.66 1340.6 1300.31 1348.59 1308.26L1399.17 1358.65C1401.54 1361.01 1404.75 1362.34 1408.09 1362.34H1565.97C1577.28 1362.34 1582.9 1348.62 1574.85 1340.69L1523.71 1290.3C1521.35 1287.97 1518.16 1286.66 1514.84 1286.66Z" fill="#B5B5B5" stroke="black" stroke-width="3.32709"/>
<path d="M1530.58 1325.66H1499.99C1488.11 1325.66 1482.79 1340.58 1491.99 1348.1L1498.53 1353.44C1500.79 1355.28 1503.61 1356.29 1506.53 1356.29H1537.66C1549.79 1356.29 1554.96 1340.86 1545.28 1333.55L1538.2 1328.21C1536.01 1326.56 1533.33 1325.66 1530.58 1325.66Z" fill="#3A3939" stroke="black" stroke-width="3.32709"/>
<circle cx="1715.86" cy="1459.11" r="8.73052" transform="rotate(-9.56896 1715.86 1459.11)" fill="#00F719" stroke="black" stroke-width="2.91017"/>
<circle cx="6.30538" cy="6.30538" r="5.36459" transform="matrix(-1 0 0 1 1389.38 1300)" fill="#F70000" stroke="black" stroke-width="1.88158"/>
<circle cx="6.30538" cy="6.30538" r="5.36459" transform="matrix(-1 0 0 1 1514.38 1300)" fill="#F70000" stroke="black" stroke-width="1.88158"/>
<circle cx="6.30538" cy="6.30538" r="5.36459" transform="matrix(-1 0 0 1 1489.38 1300)" fill="#F70000" stroke="black" stroke-width="1.88158"/>
<circle cx="6.30538" cy="6.30538" r="5.36459" transform="matrix(-1 0 0 1 1464.38 1300)" fill="#00F719" stroke="black" stroke-width="1.88158"/>
<circle cx="6.30538" cy="6.30538" r="5.36459" transform="matrix(-1 0 0 1 1439.38 1300)" fill="#F70000" stroke="black" stroke-width="1.88158"/>
<circle cx="6.30538" cy="6.30538" r="5.36459" transform="matrix(-1 0 0 1 1414.38 1300)" fill="#F70000" stroke="black" stroke-width="1.88158"/>
<rect x="587.377" y="602.5" width="133.887" height="133.887" fill="#D9D9D9" stroke="#595959" stroke-width="3"/>
<rect x="429.241" y="525.546" width="213.091" height="213.091" fill="#D9D9D9" stroke="black" stroke-width="7.27273"/>
<rect x="431.377" y="766.5" width="133.887" height="133.887" fill="#D9D9D9" stroke="#595959" stroke-width="3"/>
<rect x="583.49" y="766.5" width="133.887" height="133.887" fill="#D9D9D9" stroke="#595959" stroke-width="3"/>
<rect x="431.377" y="921.266" width="133.887" height="133.887" fill="#D9D9D9" stroke="#595959" stroke-width="3"/>
<rect x="583.49" y="921.266" width="133.887" height="133.887" fill="#D9D9D9" stroke="#595959" stroke-width="3"/>
<path d="M679.857 1016H670.529C668.735 1014.45 666.553 1012.35 663.982 1009.72C659.079 1014.63 653.339 1017.08 646.761 1017.08C641.32 1017.08 636.836 1015.64 633.308 1012.77C629.84 1009.84 628.106 1005.72 628.106 1000.39C628.106 996.149 629.272 992.681 631.604 989.99C633.936 987.3 637.164 984.848 641.29 982.636C638.241 977.434 636.716 972.949 636.716 969.182C636.716 965.236 638.151 961.947 641.021 959.316C643.951 956.626 647.539 955.28 651.784 955.28C655.79 955.28 659.049 956.327 661.56 958.42C664.071 960.452 665.327 963.323 665.327 967.03C665.327 969.182 664.938 971.126 664.161 972.86C663.384 974.534 662.128 976.088 660.394 977.523C658.66 978.899 657.135 979.975 655.82 980.752C654.564 981.53 652.651 982.576 650.08 983.891C651.993 986.522 654.295 989.363 656.986 992.412C659.139 994.983 661.5 997.644 664.071 1000.39C666.702 996.508 668.855 991.964 670.529 986.762L676.359 989.273C673.429 996.089 670.709 1001.23 668.197 1004.7C671.187 1007.81 675.073 1011.58 679.857 1016ZM647.389 1011.52C651.814 1011.52 655.999 1009.54 659.946 1005.6C655.999 1001.47 653.249 998.451 651.694 996.538C648.944 993.369 646.432 990.2 644.16 987.031C641.35 988.765 639.168 990.648 637.613 992.681C636.118 994.654 635.371 997.076 635.371 999.946C635.371 1003.53 636.537 1006.37 638.869 1008.47C641.26 1010.5 644.101 1011.52 647.389 1011.52ZM643.712 969.272C643.712 972.082 644.908 975.52 647.299 979.586C651.186 977.673 654.116 975.819 656.089 974.026C658.122 972.232 659.139 969.99 659.139 967.299C659.139 965.146 658.481 963.502 657.165 962.366C655.85 961.17 654.146 960.572 652.053 960.572C649.721 960.572 647.748 961.409 646.133 963.083C644.519 964.698 643.712 966.761 643.712 969.272Z" fill="#595959"/>
<path d="M503.206 671.691C491.938 671.691 483.3 668.01 477.291 660.649C471.431 653.137 468.502 644.424 468.502 634.508C468.502 624.443 471.431 615.729 477.291 608.368C483.15 601.006 491.788 597.326 503.206 597.326C510.417 597.326 516.802 599.654 522.361 604.311C528.069 608.969 532.501 614.828 535.656 621.889C539.112 614.677 543.619 608.818 549.177 604.311C554.886 599.654 561.346 597.326 568.557 597.326C579.825 597.326 588.388 601.006 594.247 608.368C600.257 615.729 603.261 624.443 603.261 634.508C603.261 644.424 600.257 653.137 594.247 660.649C588.388 668.01 579.825 671.691 568.557 671.691C561.346 671.691 554.886 669.437 549.177 664.93C543.619 660.273 539.112 654.339 535.656 647.128C532.501 654.189 528.069 660.048 522.361 664.705C516.802 669.362 510.417 671.691 503.206 671.691ZM567.431 659.747C574.642 659.747 580.276 657.419 584.332 652.762C588.538 648.104 590.642 642.02 590.642 634.508C590.642 626.997 588.538 620.912 584.332 616.255C580.276 611.447 574.642 609.044 567.431 609.044C561.571 609.044 556.388 611.523 551.881 616.48C547.525 621.438 544.069 627.447 541.515 634.508C544.069 641.569 547.525 647.579 551.881 652.536C556.388 657.344 561.571 659.747 567.431 659.747ZM504.558 659.973C515.375 659.973 524.013 651.485 530.473 634.508C524.013 617.532 515.375 609.044 504.558 609.044C497.347 609.044 491.638 611.447 487.431 616.255C483.225 620.912 481.122 626.997 481.122 634.508C481.122 641.87 483.225 647.954 487.431 652.762C491.638 657.569 497.347 659.973 504.558 659.973Z" fill="black"/>
<path d="M477.478 842.076V836.784C480.288 838.757 483.577 839.744 487.344 839.744C490.094 839.744 493.204 838.877 496.672 837.143C500.2 835.409 503.668 834.542 507.076 834.542C510.664 834.542 513.982 835.349 517.032 836.963V842.255C514.102 840.222 510.783 839.206 507.076 839.206C504.266 839.206 501.126 840.103 497.658 841.896C494.19 843.63 490.752 844.497 487.344 844.497C483.577 844.497 480.288 843.69 477.478 842.076ZM477.478 825.124V819.922C480.408 821.895 483.697 822.882 487.344 822.882C490.094 822.882 493.204 822.015 496.672 820.281C500.2 818.487 503.668 817.59 507.076 817.59C510.664 817.59 513.982 818.397 517.032 820.012V825.304C514.221 823.33 510.903 822.344 507.076 822.344C504.266 822.344 501.126 823.211 497.658 824.945C494.19 826.679 490.752 827.546 487.344 827.546C483.697 827.546 480.408 826.739 477.478 825.124Z" fill="#595959"/>
<path d="M623.986 660.114L752.148 704.298L756.872 705.926L752.032 707.169L702.999 719.754L707.911 768.628L708.434 773.839L705.231 769.696L622.311 662.449L619.24 658.477L623.986 660.114Z" fill="black" stroke="white" stroke-width="3"/>
<path d="M638.958 807.814L659.497 834.273L638.689 862.436H671.605V869.073H629.72V862.436L650.439 834.363L629.81 807.814V801.177H671.605V807.814H638.958Z" fill="#595959"/>
<path d="M477.581 991.964V987.12H487.088C485.414 985.207 484.248 983.862 483.59 983.084C482.992 982.247 482.275 980.872 481.438 978.959C480.601 976.985 480.182 974.982 480.182 972.949C480.182 968.046 482.155 963.891 486.102 960.482C490.048 957.014 494.772 955.28 500.273 955.28C504.339 955.28 507.956 956.177 511.125 957.971C514.294 959.705 516.716 962.157 518.39 965.326L512.381 968.913C511.544 966.88 510.079 965.146 507.986 963.711C505.953 962.276 503.621 961.559 500.99 961.559C497.462 961.559 494.443 962.605 491.931 964.698C489.42 966.791 488.164 969.571 488.164 973.039C488.164 974.594 488.434 976.088 488.972 977.523C489.51 978.959 490.018 980.065 490.496 980.842C491.035 981.619 491.902 982.755 493.097 984.25C494.293 985.685 495.071 986.642 495.429 987.12H508.883V991.964H497.941C498.359 993.339 498.569 994.624 498.569 995.82C498.569 1000.48 496.296 1004.43 491.752 1007.66C493.247 1007.12 494.802 1006.85 496.416 1006.85C498.389 1006.85 500.661 1007.48 503.232 1008.74C505.863 1009.93 508.016 1010.53 509.69 1010.53C511.544 1010.53 513.248 1010.17 514.802 1009.45C516.357 1008.68 517.493 1007.84 518.211 1006.94L521.439 1012.95C518.51 1015.76 514.474 1017.17 509.331 1017.17C506.521 1017.17 503.681 1016.48 500.811 1015.1C497.941 1013.73 495.429 1013.04 493.277 1013.04C490.765 1013.04 487.238 1014.24 482.693 1016.63L480.003 1011.07C483.829 1009.33 486.759 1007.3 488.792 1004.97C490.885 1002.58 491.931 1000.04 491.931 997.345C491.931 995.551 491.483 993.757 490.586 991.964H477.581Z" fill="#595959"/>
<rect x="947.377" y="312.5" width="707" height="348" fill="#D9D9D9" stroke="black" stroke-width="3"/>
<path d="M1303.53 793.842C1265.02 824.678 1225.42 835.739 1184.74 827.026C1144.16 817.389 1110.3 795.627 1083.17 761.74C1055.62 727.34 1041.78 689.543 1041.66 648.35C1041.54 607.157 1060.99 570.938 1100.01 539.691C1124.66 519.957 1152.85 510.441 1184.59 511.146C1216.85 511.439 1248.03 519.334 1278.14 534.832C1270.21 500.731 1269.58 468.373 1276.24 437.758C1283.01 406.218 1298.71 380.581 1323.36 360.846C1361.86 330.01 1401.2 319.155 1441.37 328.279C1482.06 336.992 1516.17 358.548 1543.72 392.948C1570.85 426.835 1584.43 464.837 1584.45 506.955C1584.57 548.147 1565.38 584.162 1526.87 614.997C1502.23 634.732 1473.98 644.709 1442.14 644.929C1410.39 644.225 1378.75 636.278 1347.21 621.089C1355.75 653.855 1356.64 686.007 1349.87 717.547C1343.62 748.676 1328.17 774.108 1303.53 793.842ZM1490.33 577.262C1514.98 557.528 1527.86 534.152 1528.98 507.134C1530.61 479.706 1521.15 453.156 1500.59 427.484C1480.03 401.812 1456.19 386.774 1429.07 382.369C1402.05 377.04 1376.22 384.243 1351.58 403.977C1331.55 420.012 1320.62 442.668 1318.79 471.945C1317.46 500.812 1322.1 530.805 1332.7 561.926C1360.75 579.069 1389 590.15 1417.46 595.17C1446.02 599.266 1470.31 593.297 1490.33 577.262ZM1276.08 750.094C1313.05 720.492 1319.34 667.842 1294.96 592.145C1226.42 551.806 1173.67 546.437 1136.7 576.039C1112.06 595.774 1099.12 619.612 1097.9 647.554C1096.27 674.982 1105.74 701.532 1126.29 727.204C1146.44 752.363 1170.28 767.401 1197.81 772.319C1225.34 777.237 1251.43 769.829 1276.08 750.094Z" fill="black"/>
<rect x="947.377" y="659.5" width="355" height="348" fill="#D9D9D9" stroke="black" stroke-width="3"/>
<rect x="1299.38" y="659.5" width="355" height="348" fill="#D9D9D9" stroke="black" stroke-width="3"/>
<path d="M1049.93 910.06C1026.42 910.06 1008.39 902.379 995.853 887.018C983.627 871.343 977.514 853.161 977.514 832.47C977.514 811.466 983.627 793.284 995.853 777.922C1008.08 762.561 1026.11 754.881 1049.93 754.881C1064.98 754.881 1078.3 759.74 1089.9 769.458C1101.81 779.176 1111.06 791.403 1117.65 806.137C1124.86 791.089 1134.26 778.863 1145.86 769.458C1157.77 759.74 1171.25 754.881 1186.3 754.881C1209.81 754.881 1227.68 762.561 1239.91 777.922C1252.45 793.284 1258.72 811.466 1258.72 832.47C1258.72 853.161 1252.45 871.343 1239.91 887.018C1227.68 902.379 1209.81 910.06 1186.3 910.06C1171.25 910.06 1157.77 905.357 1145.86 895.953C1134.26 886.234 1124.86 873.851 1117.65 858.804C1111.06 873.538 1101.81 885.764 1089.9 895.482C1078.3 905.201 1064.98 910.06 1049.93 910.06ZM1183.95 885.137C1199 885.137 1210.75 880.278 1219.22 870.56C1227.99 860.841 1232.38 848.145 1232.38 832.47C1232.38 816.796 1227.99 804.099 1219.22 794.381C1210.75 784.349 1199 779.333 1183.95 779.333C1171.72 779.333 1160.91 784.506 1151.5 794.851C1142.41 805.196 1135.2 817.736 1129.87 832.47C1135.2 847.204 1142.41 859.744 1151.5 870.089C1160.91 880.121 1171.72 885.137 1183.95 885.137ZM1052.75 885.607C1075.32 885.607 1093.35 867.895 1106.83 832.47C1093.35 797.046 1075.32 779.333 1052.75 779.333C1037.7 779.333 1025.79 784.349 1017.01 794.381C1008.24 804.099 1003.85 816.796 1003.85 832.47C1003.85 847.831 1008.24 860.528 1017.01 870.56C1025.79 880.591 1037.7 885.607 1052.75 885.607Z" fill="black"/>
<path d="M1365.4 830.553C1350.81 812.114 1345.65 793.212 1349.91 773.847C1354.62 754.533 1365.08 738.457 1381.31 725.619C1397.78 712.586 1415.83 706.098 1435.47 706.155C1455.1 706.212 1472.31 715.582 1487.09 734.267C1496.43 746.068 1500.88 759.531 1500.46 774.657C1500.23 790.03 1496.38 804.868 1488.91 819.173C1505.18 815.491 1520.61 815.28 1535.18 818.541C1550.19 821.853 1562.37 829.41 1571.71 841.211C1586.29 859.649 1591.36 878.428 1586.9 897.548C1582.63 916.913 1572.26 933.112 1555.79 946.144C1539.57 958.982 1521.42 965.347 1501.34 965.239C1481.71 965.183 1464.6 955.935 1450.01 937.496C1440.67 925.696 1436 912.207 1435.98 897.029C1436.41 881.903 1440.28 866.844 1447.61 851.852C1431.97 855.832 1416.64 856.166 1401.63 852.853C1386.81 849.787 1374.73 842.353 1365.4 830.553ZM1468.1 920.189C1477.43 931.989 1488.54 938.193 1501.41 938.801C1514.48 939.655 1527.16 935.219 1539.45 925.493C1551.74 915.767 1558.98 904.447 1561.15 891.534C1563.77 878.671 1560.41 866.34 1551.07 854.539C1543.48 844.951 1532.72 839.679 1518.77 838.722C1505.01 838.012 1490.71 840.138 1475.84 845.101C1467.6 858.423 1462.24 871.858 1459.76 885.406C1457.73 899.006 1460.51 910.6 1468.1 920.189ZM1386.32 817.593C1400.33 835.294 1425.4 838.44 1461.55 827.031C1480.96 794.479 1483.67 769.353 1469.66 751.652C1460.33 739.851 1449 733.621 1435.69 732.962C1422.62 732.108 1409.94 736.544 1397.65 746.27C1385.6 755.802 1378.37 767.121 1375.95 780.23C1373.53 793.338 1376.99 805.792 1386.32 817.593Z" fill="black"/>
<path d="M1411.31 832.563C1403.15 822.253 1400.26 811.683 1402.65 800.855C1405.28 790.055 1411.13 781.066 1420.21 773.888C1429.42 766.6 1439.51 762.972 1450.49 763.004C1461.47 763.036 1471.09 768.275 1479.35 778.723C1484.58 785.322 1487.07 792.85 1486.83 801.308C1486.7 809.904 1484.55 818.201 1480.37 826.2C1489.47 824.141 1498.1 824.023 1506.25 825.846C1514.64 827.698 1521.45 831.924 1526.67 838.522C1534.83 848.832 1537.66 859.333 1535.16 870.024C1532.78 880.852 1526.98 889.91 1517.77 897.197C1508.7 904.376 1498.55 907.935 1487.32 907.875C1476.35 907.843 1466.78 902.672 1458.62 892.362C1453.4 885.763 1450.79 878.221 1450.78 869.734C1451.01 861.276 1453.18 852.855 1457.28 844.473C1448.53 846.698 1439.96 846.885 1431.57 845.032C1423.28 843.318 1416.53 839.161 1411.31 832.563ZM1468.73 882.684C1473.96 889.282 1480.16 892.752 1487.36 893.092C1494.67 893.569 1501.76 891.088 1508.63 885.65C1515.51 880.212 1519.55 873.882 1520.77 866.661C1522.23 859.469 1520.35 852.574 1515.13 845.975C1510.89 840.614 1504.87 837.666 1497.07 837.131C1489.38 836.734 1481.38 837.923 1473.07 840.698C1468.45 848.147 1465.46 855.659 1464.08 863.235C1462.94 870.84 1464.49 877.323 1468.73 882.684ZM1423.01 825.316C1430.84 835.214 1444.86 836.973 1465.07 830.594C1475.93 812.392 1477.44 798.342 1469.61 788.444C1464.39 781.846 1458.06 778.362 1450.61 777.993C1443.31 777.516 1436.22 779.997 1429.34 785.435C1422.61 790.765 1418.56 797.094 1417.21 804.424C1415.85 811.754 1417.79 818.718 1423.01 825.316Z" fill="black"/>
<path d="M1435.57 836.366C1431.31 830.976 1429.8 825.45 1431.05 819.788C1432.42 814.142 1435.48 809.442 1440.23 805.689C1445.04 801.879 1450.32 799.983 1456.06 799.999C1461.8 800.016 1466.83 802.755 1471.15 808.217C1473.88 811.667 1475.18 815.603 1475.06 820.025C1474.99 824.519 1473.87 828.857 1471.68 833.039C1476.44 831.963 1480.95 831.901 1485.21 832.854C1489.6 833.823 1493.16 836.032 1495.89 839.482C1500.15 844.872 1501.63 850.362 1500.33 855.951C1499.08 861.613 1496.05 866.348 1491.24 870.158C1486.49 873.911 1481.19 875.772 1475.32 875.741C1469.58 875.724 1464.58 873.021 1460.31 867.63C1457.58 864.18 1456.21 860.237 1456.21 855.8C1456.33 851.378 1457.47 846.975 1459.61 842.593C1455.04 843.756 1450.56 843.854 1446.17 842.885C1441.83 841.989 1438.3 839.816 1435.57 836.366ZM1465.6 862.57C1468.33 866.02 1471.57 867.834 1475.34 868.012C1479.16 868.261 1482.87 866.964 1486.46 864.121C1490.05 861.278 1492.17 857.969 1492.8 854.193C1493.57 850.433 1492.58 846.828 1489.86 843.378C1487.64 840.575 1484.49 839.034 1480.41 838.754C1476.39 838.547 1472.21 839.168 1467.86 840.619C1465.45 844.513 1463.89 848.441 1463.16 852.402C1462.57 856.378 1463.38 859.767 1465.6 862.57ZM1441.69 832.577C1445.79 837.752 1453.12 838.672 1463.68 835.336C1469.36 825.82 1470.15 818.475 1466.06 813.3C1463.33 809.85 1460.02 808.029 1456.12 807.836C1452.3 807.586 1448.6 808.883 1445 811.726C1441.48 814.513 1439.37 817.822 1438.66 821.654C1437.95 825.486 1438.96 829.127 1441.69 832.577Z" fill="black"/>
<circle cx="1117.38" cy="826.5" r="66.5" fill="#FB0000" fill-opacity="0.2"/>
<circle cx="1113.38" cy="826.5" r="41.5" fill="#FB0000" fill-opacity="0.4"/>
</svg>
