<svg width="2391" height="1528" viewBox="0 0 2391 1528" fill="none" xmlns="http://www.w3.org/2000/svg">
<rect x="915.5" y="1047.5" width="9" height="406" fill="#FFD606" stroke="black"/>
<rect x="905.5" y="1047.5" width="9" height="396" fill="#3BCB07" stroke="black"/>
<rect x="895.5" y="1047.5" width="9" height="412" fill="#3BCB07" stroke="black"/>
<rect x="885.5" y="1047.5" width="9" height="412" fill="#CB0707" stroke="black"/>
<rect x="904.5" y="1454.5" width="9" height="904" transform="rotate(90 904.5 1454.5)" fill="#3BCB07" stroke="black"/>
<rect x="924.5" y="1444.5" width="9" height="924" transform="rotate(90 924.5 1444.5)" fill="#FFD606" stroke="black"/>
<rect x="914.5" y="1434.5" width="9" height="914" transform="rotate(90 914.5 1434.5)" fill="#3BCB07" stroke="black"/>
<rect x="894.5" y="1424.5" width="9" height="894" transform="rotate(90 894.5 1424.5)" fill="#CB0707" stroke="black"/>
<rect x="486.5" y="505.5" width="23" height="222" fill="#333333" stroke="black" stroke-width="5"/>
<rect x="885.5" y="782.5" width="50" height="220" transform="rotate(90 885.5 782.5)" fill="#333333" stroke="black" stroke-width="7"/>
<rect x="1896.5" y="782.5" width="50" height="220" transform="rotate(90 1896.5 782.5)" fill="#333333" stroke="black" stroke-width="7"/>
<rect x="486.5" y="901.5" width="23" height="222" fill="#333333" stroke="black" stroke-width="5"/>
<rect x="1091.5" y="1042.5" width="23" height="222" fill="#333333" stroke="black" stroke-width="5"/>
<rect x="1271.5" y="336.5" width="23" height="222" fill="#333333" stroke="black" stroke-width="5"/>
<rect x="1443.5" y="1042.5" width="23" height="222" fill="#333333" stroke="black" stroke-width="5"/>
<rect x="230" y="242" width="527" height="328" rx="17" fill="#171717" stroke="black" stroke-width="20"/>
<rect x="234" y="512" width="519" height="53" rx="10" fill="#515151"/>
<circle cx="722" cy="538" r="13.5" fill="#F70000" stroke="black" stroke-width="3"/>
<rect x="244" y="542" width="18" height="18" rx="2" fill="#7D7D7D" stroke="black" stroke-width="2"/>
<rect x="270" y="542" width="18" height="18" rx="2" fill="#7D7D7D" stroke="black" stroke-width="2"/>
<rect x="296" y="542" width="18" height="18" rx="2" fill="#7D7D7D" stroke="black" stroke-width="2"/>
<rect x="322" y="542" width="18" height="18" rx="2" fill="#7D7D7D" stroke="black" stroke-width="2"/>
<rect x="244" y="517" width="18" height="18" rx="2" fill="#7D7D7D" stroke="black" stroke-width="2"/>
<rect x="270" y="517" width="18" height="18" rx="2" fill="#7D7D7D" stroke="black" stroke-width="2"/>
<rect x="296" y="517" width="18" height="18" rx="2" fill="#7D7D7D" stroke="black" stroke-width="2"/>
<rect x="322" y="517" width="18" height="18" rx="2" fill="#7D7D7D" stroke="black" stroke-width="2"/>
<rect x="933" y="10" width="701" height="408" rx="17" fill="#171717" stroke="black" stroke-width="20"/>
<rect x="185" y="629" width="527" height="328" rx="17" fill="#171717" stroke="black" stroke-width="20"/>
<rect x="189" y="899" width="519" height="53" rx="10" fill="#515151"/>
<circle cx="677" cy="925" r="13.5" fill="#F70000" stroke="black" stroke-width="3"/>
<rect x="199" y="929" width="18" height="18" rx="2" fill="#7D7D7D" stroke="black" stroke-width="2"/>
<rect x="225" y="929" width="18" height="18" rx="2" fill="#7D7D7D" stroke="black" stroke-width="2"/>
<rect x="251" y="929" width="18" height="18" rx="2" fill="#7D7D7D" stroke="black" stroke-width="2"/>
<rect x="277" y="929" width="18" height="18" rx="2" fill="#7D7D7D" stroke="black" stroke-width="2"/>
<rect x="199" y="904" width="18" height="18" rx="2" fill="#7D7D7D" stroke="black" stroke-width="2"/>
<rect x="225" y="904" width="18" height="18" rx="2" fill="#7D7D7D" stroke="black" stroke-width="2"/>
<rect x="251" y="904" width="18" height="18" rx="2" fill="#7D7D7D" stroke="black" stroke-width="2"/>
<rect x="277" y="904" width="18" height="18" rx="2" fill="#7D7D7D" stroke="black" stroke-width="2"/>
<rect x="235" y="1030" width="527" height="328" rx="17" fill="#171717" stroke="black" stroke-width="20"/>
<rect x="239" y="1300" width="519" height="53" rx="10" fill="#515151"/>
<circle cx="727" cy="1326" r="13.5" fill="#F70000" stroke="black" stroke-width="3"/>
<rect x="249" y="1330" width="18" height="18" rx="2" fill="#7D7D7D" stroke="black" stroke-width="2"/>
<rect x="275" y="1330" width="18" height="18" rx="2" fill="#7D7D7D" stroke="black" stroke-width="2"/>
<rect x="301" y="1330" width="18" height="18" rx="2" fill="#7D7D7D" stroke="black" stroke-width="2"/>
<rect x="327" y="1330" width="18" height="18" rx="2" fill="#7D7D7D" stroke="black" stroke-width="2"/>
<rect x="249" y="1305" width="18" height="18" rx="2" fill="#7D7D7D" stroke="black" stroke-width="2"/>
<rect x="275" y="1305" width="18" height="18" rx="2" fill="#7D7D7D" stroke="black" stroke-width="2"/>
<rect x="301" y="1305" width="18" height="18" rx="2" fill="#7D7D7D" stroke="black" stroke-width="2"/>
<rect x="327" y="1305" width="18" height="18" rx="2" fill="#7D7D7D" stroke="black" stroke-width="2"/>
<rect x="1020" y="1190" width="527" height="328" rx="17" fill="#171717" stroke="black" stroke-width="20"/>
<rect x="1024" y="1460" width="519" height="53" rx="10" fill="#515151"/>
<circle cx="1512" cy="1486" r="13.5" fill="#F70000" stroke="black" stroke-width="3"/>
<rect x="1034" y="1490" width="18" height="18" rx="2" fill="#7D7D7D" stroke="black" stroke-width="2"/>
<rect x="1060" y="1490" width="18" height="18" rx="2" fill="#7D7D7D" stroke="black" stroke-width="2"/>
<rect x="1086" y="1490" width="18" height="18" rx="2" fill="#7D7D7D" stroke="black" stroke-width="2"/>
<rect x="1112" y="1490" width="18" height="18" rx="2" fill="#7D7D7D" stroke="black" stroke-width="2"/>
<rect x="1034" y="1465" width="18" height="18" rx="2" fill="#7D7D7D" stroke="black" stroke-width="2"/>
<rect x="1060" y="1465" width="18" height="18" rx="2" fill="#7D7D7D" stroke="black" stroke-width="2"/>
<rect x="1086" y="1465" width="18" height="18" rx="2" fill="#7D7D7D" stroke="black" stroke-width="2"/>
<rect x="1112" y="1465" width="18" height="18" rx="2" fill="#7D7D7D" stroke="black" stroke-width="2"/>
<rect x="2055.5" y="505.5" width="23" height="222" fill="#333333" stroke="black" stroke-width="5"/>
<rect x="2055.5" y="901.5" width="23" height="222" fill="#333333" stroke="black" stroke-width="5"/>
<rect x="1799" y="242" width="527" height="328" rx="17" fill="#171717" stroke="black" stroke-width="20"/>
<rect x="1803" y="512" width="519" height="53" rx="10" fill="#515151"/>
<circle cx="2291" cy="538" r="13.5" fill="#F70000" stroke="black" stroke-width="3"/>
<rect x="1813" y="542" width="18" height="18" rx="2" fill="#7D7D7D" stroke="black" stroke-width="2"/>
<rect x="1839" y="542" width="18" height="18" rx="2" fill="#7D7D7D" stroke="black" stroke-width="2"/>
<rect x="1865" y="542" width="18" height="18" rx="2" fill="#7D7D7D" stroke="black" stroke-width="2"/>
<rect x="1891" y="542" width="18" height="18" rx="2" fill="#7D7D7D" stroke="black" stroke-width="2"/>
<rect x="1813" y="517" width="18" height="18" rx="2" fill="#7D7D7D" stroke="black" stroke-width="2"/>
<rect x="1839" y="517" width="18" height="18" rx="2" fill="#7D7D7D" stroke="black" stroke-width="2"/>
<rect x="1865" y="517" width="18" height="18" rx="2" fill="#7D7D7D" stroke="black" stroke-width="2"/>
<rect x="1891" y="517" width="18" height="18" rx="2" fill="#7D7D7D" stroke="black" stroke-width="2"/>
<rect x="1854" y="629" width="527" height="328" rx="17" fill="#171717" stroke="black" stroke-width="20"/>
<rect x="1858" y="899" width="519" height="53" rx="10" fill="#515151"/>
<circle cx="2346" cy="925" r="13.5" fill="#F70000" stroke="black" stroke-width="3"/>
<rect x="1868" y="929" width="18" height="18" rx="2" fill="#7D7D7D" stroke="black" stroke-width="2"/>
<rect x="1894" y="929" width="18" height="18" rx="2" fill="#7D7D7D" stroke="black" stroke-width="2"/>
<rect x="1920" y="929" width="18" height="18" rx="2" fill="#7D7D7D" stroke="black" stroke-width="2"/>
<rect x="1946" y="929" width="18" height="18" rx="2" fill="#7D7D7D" stroke="black" stroke-width="2"/>
<rect x="1868" y="904" width="18" height="18" rx="2" fill="#7D7D7D" stroke="black" stroke-width="2"/>
<rect x="1894" y="904" width="18" height="18" rx="2" fill="#7D7D7D" stroke="black" stroke-width="2"/>
<rect x="1920" y="904" width="18" height="18" rx="2" fill="#7D7D7D" stroke="black" stroke-width="2"/>
<rect x="1946" y="904" width="18" height="18" rx="2" fill="#7D7D7D" stroke="black" stroke-width="2"/>
<rect x="1804" y="1030" width="527" height="328" rx="17" fill="#171717" stroke="black" stroke-width="20"/>
<rect x="1808" y="1300" width="519" height="53" rx="10" fill="#515151"/>
<circle cx="2296" cy="1326" r="13.5" fill="#F70000" stroke="black" stroke-width="3"/>
<rect x="1818" y="1330" width="18" height="18" rx="2" fill="#7D7D7D" stroke="black" stroke-width="2"/>
<rect x="1844" y="1330" width="18" height="18" rx="2" fill="#7D7D7D" stroke="black" stroke-width="2"/>
<rect x="1870" y="1330" width="18" height="18" rx="2" fill="#7D7D7D" stroke="black" stroke-width="2"/>
<rect x="1896" y="1330" width="18" height="18" rx="2" fill="#7D7D7D" stroke="black" stroke-width="2"/>
<rect x="1818" y="1305" width="18" height="18" rx="2" fill="#7D7D7D" stroke="black" stroke-width="2"/>
<rect x="1844" y="1305" width="18" height="18" rx="2" fill="#7D7D7D" stroke="black" stroke-width="2"/>
<rect x="1870" y="1305" width="18" height="18" rx="2" fill="#7D7D7D" stroke="black" stroke-width="2"/>
<rect x="1896" y="1305" width="18" height="18" rx="2" fill="#7D7D7D" stroke="black" stroke-width="2"/>
<rect x="813" y="495" width="941" height="637" rx="17" fill="#171717" stroke="black" stroke-width="20"/>
<rect x="818" y="1073" width="931" height="53" rx="10" fill="#515151"/>
<rect x="828" y="1103" width="18" height="18" rx="2" fill="#7D7D7D" stroke="black" stroke-width="2"/>
<rect x="854" y="1103" width="18" height="18" rx="2" fill="#7D7D7D" stroke="black" stroke-width="2"/>
<rect x="880" y="1103" width="18" height="18" rx="2" fill="#7D7D7D" stroke="black" stroke-width="2"/>
<rect x="906" y="1103" width="18" height="18" rx="2" fill="#7D7D7D" stroke="black" stroke-width="2"/>
<rect x="828" y="1078" width="18" height="18" rx="2" fill="#7D7D7D" stroke="black" stroke-width="2"/>
<rect x="854" y="1078" width="18" height="18" rx="2" fill="#7D7D7D" stroke="black" stroke-width="2"/>
<rect x="880" y="1078" width="18" height="18" rx="2" fill="#7D7D7D" stroke="black" stroke-width="2"/>
<rect x="906" y="1078" width="18" height="18" rx="2" fill="#7D7D7D" stroke="black" stroke-width="2"/>
<rect x="932" y="1103" width="18" height="18" rx="2" fill="#7D7D7D" stroke="black" stroke-width="2"/>
<rect x="958" y="1103" width="18" height="18" rx="2" fill="#7D7D7D" stroke="black" stroke-width="2"/>
<rect x="984" y="1103" width="18" height="18" rx="2" fill="#7D7D7D" stroke="black" stroke-width="2"/>
<rect x="1010" y="1103" width="18" height="18" rx="2" fill="#7D7D7D" stroke="black" stroke-width="2"/>
<rect x="932" y="1078" width="18" height="18" rx="2" fill="#7D7D7D" stroke="black" stroke-width="2"/>
<rect x="958" y="1078" width="18" height="18" rx="2" fill="#7D7D7D" stroke="black" stroke-width="2"/>
<rect x="984" y="1078" width="18" height="18" rx="2" fill="#7D7D7D" stroke="black" stroke-width="2"/>
<rect x="1010" y="1078" width="18" height="18" rx="2" fill="#7D7D7D" stroke="black" stroke-width="2"/>
<circle cx="1711" cy="1102" r="13.5" fill="#00F719" stroke="black" stroke-width="3"/>
<path d="M1280 579L1294.31 617.685L1333 632L1294.31 646.315L1280 685L1265.69 646.315L1227 632L1265.69 617.685L1280 579Z" fill="white"/>
<rect x="1033" y="66" width="494" height="24" rx="5" fill="white"/>
<rect x="1033" y="66" width="251" height="24" rx="5" fill="#5DFF2C"/>
<path d="M1053.41 57H1049.12V40.74H1039.67V57H1035.41V36.99H1053.41V57ZM1061.61 57H1057.35V36.99H1066.71C1071.06 36.99 1073.43 39.93 1073.43 43.44C1073.43 46.92 1071.03 49.89 1066.71 49.89H1061.61V57ZM1066.14 46.14C1067.82 46.14 1069.08 45.09 1069.08 43.44C1069.08 41.76 1067.82 40.74 1066.14 40.74H1061.61V46.14H1066.14ZM1085.55 57.36C1079.52 57.36 1075.11 53.04 1075.11 47.01C1075.11 40.98 1079.52 36.66 1085.55 36.66C1091.61 36.66 1096.02 40.98 1096.02 47.01C1096.02 53.04 1091.61 57.36 1085.55 57.36ZM1085.55 53.58C1089.24 53.58 1091.64 50.73 1091.64 47.01C1091.64 43.26 1089.24 40.44 1085.55 40.44C1081.86 40.44 1079.49 43.26 1079.49 47.01C1079.49 50.73 1081.86 53.58 1085.55 53.58ZM1103.27 57H1099.01V36.99H1113.17V40.74H1103.27V57ZM1120.41 57H1116.15V36.99H1125.51C1129.86 36.99 1132.23 39.93 1132.23 43.44C1132.23 46.92 1129.83 49.89 1125.51 49.89H1120.41V57ZM1124.94 46.14C1126.62 46.14 1127.88 45.09 1127.88 43.44C1127.88 41.76 1126.62 40.74 1124.94 40.74H1120.41V46.14H1124.94ZM1149.03 57H1134.87V36.99H1149.03V40.74H1139.13V44.97H1148.82V48.72H1139.13V53.25H1149.03V57ZM1162.05 57.36C1156.05 57.36 1151.4 53.16 1151.4 47.01C1151.4 40.86 1156.05 36.66 1162.05 36.66C1166.46 36.66 1169.01 39.06 1170.42 41.55L1166.76 43.35C1165.92 41.73 1164.12 40.44 1162.05 40.44C1158.42 40.44 1155.78 43.23 1155.78 47.01C1155.78 50.79 1158.42 53.58 1162.05 53.58C1164.12 53.58 1165.92 52.32 1166.76 50.67L1170.42 52.44C1168.98 54.93 1166.46 57.36 1162.05 57.36ZM1182.65 57.36C1176.65 57.36 1172 53.16 1172 47.01C1172 40.86 1176.65 36.66 1182.65 36.66C1187.06 36.66 1189.61 39.06 1191.02 41.55L1187.36 43.35C1186.52 41.73 1184.72 40.44 1182.65 40.44C1179.02 40.44 1176.38 43.23 1176.38 47.01C1176.38 50.79 1179.02 53.58 1182.65 53.58C1184.72 53.58 1186.52 52.32 1187.36 50.67L1191.02 52.44C1189.58 54.93 1187.06 57.36 1182.65 57.36ZM1219.23 57H1214.94V40.74H1205.49V57H1201.23V36.99H1219.23V57ZM1232.65 57.36C1226.62 57.36 1222.21 53.04 1222.21 47.01C1222.21 40.98 1226.62 36.66 1232.65 36.66C1238.71 36.66 1243.12 40.98 1243.12 47.01C1243.12 53.04 1238.71 57.36 1232.65 57.36ZM1232.65 53.58C1236.34 53.58 1238.74 50.73 1238.74 47.01C1238.74 43.26 1236.34 40.44 1232.65 40.44C1228.96 40.44 1226.59 43.26 1226.59 47.01C1226.59 50.73 1228.96 53.58 1232.65 53.58ZM1243.88 57.36V53.58C1245.89 53.58 1247.06 52.5 1247.69 47.22L1248.86 36.99H1263.08V57H1258.79V40.74H1252.7L1251.92 47.52C1250.96 55.83 1247.96 57.36 1243.88 57.36ZM1279.3 33.66C1279.3 34.8 1278.37 35.7 1277.26 35.7C1276.15 35.7 1275.22 34.8 1275.22 33.66C1275.22 32.55 1276.15 31.65 1277.26 31.65C1278.37 31.65 1279.3 32.55 1279.3 33.66ZM1272.94 33.66C1272.94 34.8 1272.04 35.7 1270.93 35.7C1269.79 35.7 1268.89 34.8 1268.89 33.66C1268.89 32.55 1269.79 31.65 1270.93 31.65C1272.04 31.65 1272.94 32.55 1272.94 33.66ZM1281.19 57H1267.03V36.99H1281.19V40.74H1271.29V44.97H1280.98V48.72H1271.29V53.25H1281.19V57ZM1293.43 57H1289.14V40.74H1283.29V36.99H1299.25V40.74H1293.43V57ZM1318.71 57H1313.85L1312.62 53.61H1304.04L1302.78 57H1297.92L1305.66 36.99H1311L1318.71 57ZM1311.45 49.86L1308.33 41.25L1305.21 49.86H1311.45Z" fill="white"/>
<circle cx="1075" cy="314" r="68" fill="white"/>
<path d="M1091.23 251.121C1089.74 254.7 1087.33 260.42 1084.74 266.443C1083.14 270.14 1081.52 272.276 1080.54 273.969C1080.28 274.415 1080.39 274.983 1080.58 275.401C1081.47 277.395 1089.06 282.406 1093.26 286.092C1095.82 288.342 1095.67 291.629 1096.91 292.987C1098.06 294.242 1100.71 292.392 1102.71 292.201C1104.93 291.989 1107.04 292.236 1107.8 292.799C1109.75 294.258 1109.08 299.445 1108.48 303.034C1108.31 304.065 1108.18 304.885 1108.33 305.675C1108.63 307.271 1110.96 308.197 1112.01 309.629C1113.26 311.307 1113.82 314.812 1114.54 317.196C1114.78 317.987 1115.4 318.517 1116.04 319.193C1118.51 321.808 1126.59 321.608 1131.25 320.672C1133.82 320.154 1134.98 318.075 1136.04 316.268C1137.62 314.535 1139.42 313.177 1140.93 313.098C1141.31 313.172 1141.16 313.346 1142 313.5" stroke="#171717" stroke-width="2" stroke-linecap="round"/>
<path d="M1091.69 249.158V250.443" stroke="#171717" stroke-width="2" stroke-linecap="round"/>
<path d="M1041.5 256C1043.05 258.198 1043.83 259.596 1044.97 260.824C1046.19 262.136 1046.77 263.518 1047.13 264.209C1047.32 264.553 1047.26 264.982 1046.94 265.432C1045.4 267.57 1043.35 268.815 1041.31 271.142C1040.86 271.649 1040.65 272.08 1040.61 272.49C1040.38 274.661 1042.11 277.706 1043.09 280.442C1043.82 282.481 1044.72 283.913 1045.95 285.261C1046.25 285.589 1046.36 286.033 1046.28 286.443C1045.89 288.484 1043.26 288.895 1042.85 289.545C1042.34 290.371 1043.34 291.423 1043.99 292.155C1045.96 294.375 1048.8 294.934 1051.49 296.073C1052.59 296.537 1053.54 296.405 1054.27 296.121C1055.72 295.56 1055.98 292.584 1056.84 289.562C1058 285.507 1058.19 281.319 1059.53 279.682C1060.14 278.941 1061.13 278.699 1061.94 278.616C1064.08 278.397 1065.94 281.138 1067.25 282.852C1068.55 284.557 1068.39 286.523 1068.68 288.197C1068.84 289.14 1068.31 290.924 1068.47 293.003C1068.63 295.012 1071 295.908 1072.18 297.296C1072.86 298.086 1072.96 299.335 1072.84 300.678C1072.56 303.826 1068.98 305.861 1066.89 306.804C1065.21 307.566 1062.13 308.392 1057.43 308.604C1054.78 308.723 1052.9 307.667 1046.67 307.662C1044.76 307.661 1043.84 309.611 1042.49 311.208C1041.37 312.538 1040.33 314.022 1038.98 315.126C1037.52 316.322 1037.47 320.773 1036.98 323.406C1036.9 323.84 1036.65 324.22 1036.37 324.468C1035.79 324.97 1034.46 324.881 1032.95 324.598C1029.77 324.002 1029.39 320.396 1028.74 319.947C1026.92 318.69 1024.26 320.474 1022.5 321.53C1021.01 322.428 1019.93 323.488 1019.72 324.587C1019.37 326.496 1020.49 328.136 1020.9 330.135C1021.44 332.758 1021.96 334.501 1022.57 336.094C1023.19 337.691 1024.33 338.586 1024.82 339.357C1025.11 339.825 1024.98 340.694 1024.82 341.231C1024.33 342.867 1022.22 343.479 1021.07 344.703C1019.93 345.93 1018.79 346.664 1018.05 347.112C1017.64 347.318 1017.25 347.089 1017 347.5" stroke="#171717" stroke-width="2" stroke-linecap="round"/>
<path d="M1042.61 372.858C1042.69 372.21 1043.18 370.582 1044.36 369.475C1044.98 368.891 1046.11 368.699 1047.33 368.332C1050.43 367.399 1054.26 371.057 1056.31 371.674C1057.98 372.176 1059.17 372.694 1059.98 372.574C1062.24 372.242 1062.51 369.113 1065.08 365.651C1066.54 363.679 1067.09 356.928 1068.59 352.262C1068.96 351.1 1071.16 351.562 1072.66 351.724C1073.3 351.792 1073.61 352.208 1073.81 352.577C1074.7 354.156 1074.59 356.286 1075.36 358.527C1076.1 360.671 1077.12 362.166 1077.65 362.777C1078.18 363.387 1079.4 363.556 1080.86 363.476C1082.93 363.362 1084.62 361.848 1086.26 361.193C1087.69 360.619 1086.91 358.502 1087.2 357.647C1087.94 355.388 1091.14 355.968 1094.61 355.765C1101.09 355.385 1105.34 356.698 1108.16 357.596C1113.39 359.264 1115.71 360.125 1117.22 361.145C1117.75 361.755 1119.29 362.088 1121.53 361.967C1122.48 361.845 1121.18 361.443 1122.5 361.193" stroke="#171717" stroke-width="2" stroke-linecap="round"/>
<path d="M1093.15 306.217C1093.15 308.443 1093.03 309.803 1092.35 310.859C1091.57 312.076 1090.31 312.717 1089.35 313.523C1088.31 314.385 1088.88 316.675 1089.77 320.264C1090.22 322.075 1091.78 322.566 1092.96 323.371C1093.65 323.84 1094.2 324.303 1094.85 324.304C1096.38 324.306 1098.59 323.251 1101.19 322.852C1102.12 322.708 1102.07 321.9 1101.95 321.37C1101.54 319.584 1100.65 318.366 1100.43 316.723C1100.09 314.166 1101.2 312.914 1101.24 310.624C1101.26 308.806 1100.22 307.648 1099.26 306.838C1098.27 306.004 1096.63 306.834 1095.39 307.053C1095.07 307.023 1094.77 306.901 1094.58 306.684C1094.39 306.468 1094.33 306.161 1094.08 305.474" stroke="#171717" stroke-width="2" stroke-linecap="round"/>
<path d="M1094.64 304.544C1094.45 304.544 1094.27 304.544 1093.99 304.605C1093.71 304.667 1093.34 304.789 1093.03 304.944C1092.72 305.1 1092.47 305.284 1091.66 305.845" stroke="#171717" stroke-width="2" stroke-linecap="round"/>
<path d="M1034.8 330.745C1034.8 331.975 1034.31 334.086 1033.9 335.139C1033.43 336.363 1036.1 336.624 1036.9 337.74C1037.11 338.026 1037.46 338.174 1037.77 338.238C1038.08 338.302 1038.39 338.241 1038.67 338.087C1039.82 337.453 1039.94 335.647 1040.07 334.126C1040.18 332.762 1040.01 331.555 1039.48 330.224C1039.35 329.893 1039.33 329.574 1039.17 329.324C1039.02 329.074 1038.77 328.89 1038.49 328.826C1038.21 328.762 1037.91 328.824 1037.47 329.008C1037.04 329.193 1036.49 329.5 1035.73 330.559" stroke="#171717" stroke-width="2" stroke-linecap="round"/>
<path d="M1041.12 340.779C1040.88 341.392 1040.5 341.892 1040.22 342.324C1039.42 343.564 1042.54 344.247 1043.16 344.402C1043.46 344.478 1043.78 344.373 1044 344.157C1045 343.176 1045.21 341.775 1045.74 340.629C1045.85 340.373 1045.46 340.103 1045.15 339.946C1044.84 339.789 1044.47 339.728 1044.01 339.696C1043.54 339.664 1042.99 339.664 1042.42 339.479" stroke="#171717" stroke-width="2" stroke-linecap="round"/>
<path d="M1461 319L1470.18 343.817L1495 353L1470.18 362.183L1461 387L1451.82 362.183L1427 353L1451.82 343.817L1461 319Z" fill="white"/>
<path d="M1484 308L1486.97 316.029L1495 319L1486.97 321.971L1484 330L1481.03 321.971L1473 319L1481.03 316.029L1484 308Z" fill="white"/>
<path d="M1430 265L1436.75 283.248L1455 290L1436.75 296.752L1430 315L1423.25 296.752L1405 290L1423.25 283.248L1430 265Z" fill="white"/>
<path d="M1526 218L1540.31 256.685L1579 271L1540.31 285.315L1526 324L1511.69 285.315L1473 271L1511.69 256.685L1526 218Z" fill="white"/>
<line x1="1127.64" y1="237.678" x2="1141.78" y2="223.535" stroke="white" stroke-width="4"/>
<line x1="1169.93" y1="198.251" x2="1188.29" y2="190.328" stroke="white" stroke-width="4"/>
<line x1="1225.74" y1="178.609" x2="1245.57" y2="176.017" stroke="white" stroke-width="4"/>
<path d="M1327.21 191.353C1307.48 191.932 1283.73 184.792 1283.45 175.131C1283.16 165.47 1306.46 156.947 1326.18 156.368C1345.91 155.788 1362.13 163.15 1362.41 172.811C1362.7 182.472 1346.94 190.773 1327.21 191.353Z" fill="white"/>
<path d="M1317.96 158.109L1318.23 167.305L1293.31 170.339L1267.99 159.578L1292.64 147.348L1317.96 158.109Z" fill="white"/>
<path d="M1317.96 158.109L1318.23 167.305L1293.31 170.339L1267.99 159.578L1292.64 147.348L1317.96 158.109Z" fill="white"/>
<path d="M1318.93 191.096L1318.66 181.9L1293.61 180.335L1268.96 192.564L1294.28 203.325L1318.93 191.096Z" fill="white"/>
<path d="M1318.93 191.096L1318.66 181.9L1293.61 180.335L1268.96 192.564L1294.28 203.325L1318.93 191.096Z" fill="white"/>
<rect x="1290.08" y="162.431" width="26" height="8" transform="rotate(88.3172 1290.08 162.431)" fill="white"/>
<circle cx="1340.59" cy="172.09" r="8" transform="rotate(-27.5269 1340.59 172.09)" fill="white" stroke="black" stroke-width="2"/>
<rect x="1271.14" y="172.422" width="25" height="7" transform="rotate(0.821306 1271.14 172.422)" fill="#D9D9D9"/>
<rect x="2.5" y="-2.5" width="95" height="33" transform="matrix(1 0 0 -1 853 1175)" fill="#323232" stroke="black" stroke-width="5"/>
<rect x="2.5" y="2.5" width="95" height="33" transform="matrix(0 1 1 0 0 1386)" fill="#323232" stroke="black" stroke-width="5"/>
</svg>
