<svg width="1210" height="962" viewBox="0 0 1210 962" fill="none" xmlns="http://www.w3.org/2000/svg">
<rect x="643.379" y="642.053" width="528.971" height="294.798" rx="17.107" fill="#F5F0DD" stroke="black"/>
<rect x="1050.78" y="705.542" width="130.695" height="43.1539" transform="rotate(90 1050.78 705.542)" fill="black"/>
<rect x="923.781" y="756.094" width="150.422" height="43.1539" transform="rotate(90 923.781 756.094)" fill="black"/>
<rect x="801.717" y="689.514" width="91.2398" height="43.1539" transform="rotate(90 801.717 689.514)" fill="black"/>
<path d="M1105.12 231.008V208.947H1115.05V231.008H1105.12ZM1105.12 258.566V236.505H1115.05V258.566H1105.12ZM1105.12 286.125V264.064H1115.05V286.125H1105.12ZM1105.12 313.683V291.622H1115.05V313.683H1105.12ZM1105.12 341.241V319.18H1115.05V341.241H1105.12ZM1105.12 368.799V346.738H1115.05V368.799H1105.12ZM1105.12 396.358V374.297H1115.05V396.358H1105.12ZM1105.12 423.916V401.855H1115.05V423.916H1105.12ZM1105.12 451.474V429.413H1115.05V451.474H1105.12ZM1105.12 479.032V456.971H1115.05V479.032H1105.12ZM1105.12 506.591V484.53H1115.05V506.591H1105.12ZM1105.12 534.149V512.088H1115.05V534.149H1105.12ZM1105.12 561.707V539.646H1115.05V561.707H1105.12ZM1105.12 589.265V567.205H1115.05V589.265H1105.12ZM1105.12 616.824V594.763H1115.05V616.824H1105.12ZM1105.12 644.382V622.321H1115.05V644.382H1105.12ZM1105.12 671.94V649.879H1115.05V671.94H1105.12ZM1105.12 699.499V677.438H1115.05V699.499H1105.12ZM1105.12 727.057V704.996H1115.05V727.057H1105.12ZM1105.12 754.615V732.554H1115.05V754.615H1105.12ZM1105.12 782.173V760.112H1115.05V782.173H1105.12ZM1105.12 809.732V787.671H1115.05V809.732H1105.12ZM1105.12 837.29V815.229H1115.05V837.29H1105.12ZM1105.12 864.848V842.787H1115.05V864.848H1105.12ZM1105.12 892.406V870.345H1115.05V892.406H1105.12Z" fill="black"/>
<path d="M1068.13 231.008V208.947H1078.06V231.008H1068.13ZM1068.13 258.566V236.505H1078.06V258.566H1068.13ZM1068.13 286.125V264.064H1078.06V286.125H1068.13ZM1068.13 313.683V291.622H1078.06V313.683H1068.13ZM1068.13 341.241V319.18H1078.06V341.241H1068.13ZM1068.13 368.799V346.738H1078.06V368.799H1068.13ZM1068.13 396.358V374.297H1078.06V396.358H1068.13ZM1068.13 423.916V401.855H1078.06V423.916H1068.13ZM1068.13 451.474V429.413H1078.06V451.474H1068.13ZM1068.13 479.032V456.971H1078.06V479.032H1068.13ZM1068.13 506.591V484.53H1078.06V506.591H1068.13ZM1068.13 534.149V512.088H1078.06V534.149H1068.13ZM1068.13 561.707V539.646H1078.06V561.707H1068.13ZM1068.13 589.265V567.205H1078.06V589.265H1068.13ZM1068.13 616.824V594.763H1078.06V616.824H1068.13ZM1068.13 644.382V622.321H1078.06V644.382H1068.13ZM1068.13 671.94V649.879H1078.06V671.94H1068.13ZM1068.13 699.499V677.438H1078.06V699.499H1068.13ZM1068.13 727.057V704.996H1078.06V727.057H1068.13ZM1068.13 754.615V732.554H1078.06V754.615H1068.13ZM1068.13 782.173V760.112H1078.06V782.173H1068.13ZM1068.13 809.732V787.671H1078.06V809.732H1068.13ZM1068.13 837.29V815.229H1078.06V837.29H1068.13ZM1068.13 864.848V842.787H1078.06V864.848H1068.13ZM1068.13 892.406V870.345H1078.06V892.406H1068.13Z" fill="black"/>
<path d="M1026.21 231.008V208.947H1036.14V231.008H1026.21ZM1026.21 258.566V236.505H1036.14V258.566H1026.21ZM1026.21 286.125V264.064H1036.14V286.125H1026.21ZM1026.21 313.683V291.622H1036.14V313.683H1026.21ZM1026.21 341.241V319.18H1036.14V341.241H1026.21ZM1026.21 368.799V346.738H1036.14V368.799H1026.21ZM1026.21 396.358V374.297H1036.14V396.358H1026.21ZM1026.21 423.916V401.855H1036.14V423.916H1026.21ZM1026.21 451.474V429.413H1036.14V451.474H1026.21ZM1026.21 479.032V456.971H1036.14V479.032H1026.21ZM1026.21 506.591V484.53H1036.14V506.591H1026.21ZM1026.21 534.149V512.088H1036.14V534.149H1026.21ZM1026.21 561.707V539.646H1036.14V561.707H1026.21ZM1026.21 589.265V567.205H1036.14V589.265H1026.21ZM1026.21 616.824V594.763H1036.14V616.824H1026.21ZM1026.21 644.382V622.321H1036.14V644.382H1026.21ZM1026.21 671.94V649.879H1036.14V671.94H1026.21ZM1026.21 699.499V677.438H1036.14V699.499H1026.21ZM1026.21 727.057V704.996H1036.14V727.057H1026.21ZM1026.21 754.615V732.554H1036.14V754.615H1026.21ZM1026.21 782.173V760.112H1036.14V782.173H1026.21ZM1026.21 809.732V787.671H1036.14V809.732H1026.21ZM1026.21 837.29V815.229H1036.14V837.29H1026.21ZM1026.21 864.848V842.787H1036.14V864.848H1026.21ZM1026.21 892.406V870.345H1036.14V892.406H1026.21Z" fill="black"/>
<path d="M983.058 231.008V208.947H992.986V231.008H983.058ZM983.058 258.566V236.505H992.986V258.566H983.058ZM983.058 286.125V264.064H992.986V286.125H983.058ZM983.058 313.683V291.622H992.986V313.683H983.058ZM983.058 341.241V319.18H992.986V341.241H983.058ZM983.058 368.799V346.738H992.986V368.799H983.058ZM983.058 396.358V374.297H992.986V396.358H983.058ZM983.058 423.916V401.855H992.986V423.916H983.058ZM983.058 451.474V429.413H992.986V451.474H983.058ZM983.058 479.032V456.971H992.986V479.032H983.058ZM983.058 506.591V484.53H992.986V506.591H983.058ZM983.058 534.149V512.088H992.986V534.149H983.058ZM983.058 561.707V539.646H992.986V561.707H983.058ZM983.058 589.265V567.205H992.986V589.265H983.058ZM983.058 616.824V594.763H992.986V616.824H983.058ZM983.058 644.382V622.321H992.986V644.382H983.058ZM983.058 671.94V649.879H992.986V671.94H983.058ZM983.058 699.499V677.438H992.986V699.499H983.058ZM983.058 727.057V704.996H992.986V727.057H983.058ZM983.058 754.615V732.554H992.986L992.986 754.615H983.058ZM983.058 782.173V760.112H992.986V782.173H983.058ZM983.058 809.732V787.671H992.986V809.732H983.058ZM983.058 837.29V815.229H992.986V837.29H983.058ZM983.058 864.848V842.787H992.986V864.848H983.058ZM983.058 892.406V870.345H992.986V892.406H983.058Z" fill="black"/>
<path d="M941.137 231.008V208.947H951.064V231.008H941.137ZM941.137 258.566V236.505H951.064V258.566H941.137ZM941.137 286.125V264.064H951.064V286.125H941.137ZM941.137 313.683V291.622H951.064V313.683H941.137ZM941.137 341.241V319.18H951.064V341.241H941.137ZM941.137 368.799V346.738H951.064V368.799H941.137ZM941.137 396.358V374.297H951.064V396.358H941.137ZM941.137 423.916V401.855H951.064V423.916H941.137ZM941.137 451.474V429.413H951.064V451.474H941.137ZM941.137 479.032V456.971H951.064V479.032H941.137ZM941.137 506.591V484.53H951.064V506.591H941.137ZM941.137 534.149V512.088H951.064V534.149H941.137ZM941.137 561.707V539.646H951.064V561.707H941.137ZM941.137 589.265V567.205H951.064V589.265H941.137ZM941.137 616.824V594.763H951.064V616.824H941.137ZM941.137 644.382V622.321H951.064V644.382H941.137ZM941.137 671.94V649.879H951.064V671.94H941.137ZM941.137 699.499V677.438H951.064V699.499H941.137ZM941.137 727.057V704.996H951.064V727.057H941.137ZM941.137 754.615V732.554H951.064L951.064 754.615H941.137ZM941.137 782.173V760.112H951.064V782.173H941.137ZM941.137 809.732V787.671H951.064V809.732H941.137ZM941.137 837.29V815.229H951.064V837.29H941.137ZM941.137 864.848V842.787H951.064V864.848H941.137ZM941.137 892.406V870.345H951.064V892.406H941.137Z" fill="black"/>
<path d="M897.982 231.008V208.947H907.91V231.008H897.982ZM897.982 258.566V236.505H907.91V258.566H897.982ZM897.982 286.125V264.064H907.91V286.125H897.982ZM897.982 313.683V291.622H907.91V313.683H897.982ZM897.982 341.241V319.18H907.91V341.241H897.982ZM897.982 368.799V346.738H907.91V368.799H897.982ZM897.982 396.358V374.297H907.91V396.358H897.982ZM897.982 423.916V401.855H907.91V423.916H897.982ZM897.982 451.474V429.413H907.91V451.474H897.982ZM897.982 479.032V456.971H907.91V479.032H897.982ZM897.982 506.591V484.53H907.91V506.591H897.982ZM897.982 534.149V512.088H907.91V534.149H897.982ZM897.982 561.707V539.646H907.91V561.707H897.982ZM897.982 589.265V567.205H907.91V589.265H897.982ZM897.982 616.824V594.763H907.91V616.824H897.982ZM897.982 644.382V622.321H907.91V644.382H897.982ZM897.982 671.94V649.879H907.91V671.94H897.982ZM897.982 699.499V677.438H907.91V699.499H897.982ZM897.982 727.057V704.996H907.91V727.057H897.982ZM897.982 754.615V732.554H907.91L907.91 754.615H897.982ZM897.982 782.173V760.112H907.91V782.173H897.982ZM897.982 809.732V787.671H907.91V809.732H897.982ZM897.982 837.29V815.229H907.91V837.29H897.982ZM897.982 864.848V842.787H907.91V864.848H897.982ZM897.982 892.406V870.345H907.91V892.406H897.982Z" fill="black"/>
<path d="M856.062 231.008V208.947H865.99V231.008H856.062ZM856.062 258.566V236.505H865.99V258.566H856.062ZM856.062 286.125V264.064H865.99V286.125H856.062ZM856.062 313.683V291.622H865.99V313.683H856.062ZM856.062 341.241V319.18H865.99V341.241H856.062ZM856.062 368.799V346.738H865.99V368.799H856.062ZM856.062 396.358V374.297H865.99V396.358H856.062ZM856.062 423.916V401.855H865.99V423.916H856.062ZM856.062 451.474V429.413H865.99V451.474H856.062ZM856.062 479.032V456.971H865.99V479.032H856.062ZM856.062 506.591V484.53H865.99V506.591H856.062ZM856.062 534.149V512.088H865.99V534.149H856.062ZM856.062 561.707V539.646H865.99V561.707H856.062ZM856.062 589.265V567.205H865.99V589.265H856.062ZM856.062 616.824V594.763H865.99V616.824H856.062ZM856.062 644.382V622.321H865.99V644.382H856.062ZM856.062 671.94V649.879H865.99V671.94H856.062ZM856.062 699.499V677.438H865.99V699.499H856.062ZM856.062 727.057V704.996H865.99V727.057H856.062ZM856.062 754.615V732.554H865.99L865.99 754.615H856.062ZM856.062 782.173V760.112H865.99V782.173H856.062ZM856.062 809.732V787.671H865.99V809.732H856.062ZM856.062 837.29V815.229H865.99V837.29H856.062ZM856.062 864.848V842.787H865.99V864.848H856.062ZM856.062 892.406V870.345H865.99V892.406H856.062Z" fill="black"/>
<path d="M812.908 231.008V208.947H822.835V231.008H812.908ZM812.908 258.566V236.505H822.835V258.566H812.908ZM812.908 286.125V264.064H822.835V286.125H812.908ZM812.908 313.683V291.622H822.835V313.683H812.908ZM812.908 341.241V319.18H822.835V341.241H812.908ZM812.908 368.799V346.738H822.835V368.799H812.908ZM812.908 396.358V374.297H822.835V396.358H812.908ZM812.908 423.916V401.855H822.835V423.916H812.908ZM812.908 451.474V429.413H822.835V451.474H812.908ZM812.908 479.032V456.971H822.835V479.032H812.908ZM812.908 506.591V484.53H822.835V506.591H812.908ZM812.908 534.149V512.088H822.835V534.149H812.908ZM812.908 561.707V539.646H822.835V561.707H812.908ZM812.908 589.265V567.205H822.835V589.265H812.908ZM812.908 616.824V594.763H822.835V616.824H812.908ZM812.908 644.382V622.321H822.835V644.382H812.908ZM812.908 671.94V649.879H822.835V671.94H812.908ZM812.908 699.499V677.438H822.835V699.499H812.908ZM812.908 727.057V704.996H822.835V727.057H812.908ZM812.908 754.615V732.554H822.835L822.835 754.615H812.908ZM812.908 782.173V760.112H822.835V782.173H812.908ZM812.908 809.732V787.671H822.835V809.732H812.908ZM812.908 837.29V815.229H822.835V837.29H812.908ZM812.908 864.848V842.787H822.835V864.848H812.908ZM812.908 892.406V870.345H822.835V892.406H812.908Z" fill="black"/>
<path d="M775.918 231.008V208.947H785.845V231.008H775.918ZM775.918 258.566V236.505H785.845V258.566H775.918ZM775.918 286.125V264.064H785.845V286.125H775.918ZM775.918 313.683V291.622H785.845V313.683H775.918ZM775.918 341.241V319.18H785.845V341.241H775.918ZM775.918 368.799V346.738H785.845V368.799H775.918ZM775.918 396.358V374.297H785.845V396.358H775.918ZM775.918 423.916V401.855H785.845V423.916H775.918ZM775.918 451.474V429.413H785.845V451.474H775.918ZM775.918 479.032V456.971H785.845V479.032H775.918ZM775.918 506.591V484.53H785.845V506.591H775.918ZM775.918 534.149V512.088H785.845V534.149H775.918ZM775.918 561.707V539.646H785.845V561.707H775.918ZM775.918 589.265V567.205H785.845V589.265H775.918ZM775.918 616.824V594.763H785.845V616.824H775.918ZM775.918 644.382V622.321H785.845V644.382H775.918ZM775.918 671.94V649.879H785.845V671.94H775.918ZM775.918 699.499V677.438H785.845V699.499H775.918ZM775.918 727.057V704.996H785.845V727.057H775.918ZM775.918 754.615V732.554H785.845L785.845 754.615H775.918ZM775.918 782.173V760.112H785.845V782.173H775.918ZM775.918 809.732V787.671H785.845V809.732H775.918ZM775.918 837.29V815.229H785.845V837.29H775.918ZM775.918 864.848V842.787H785.845V864.848H775.918ZM775.918 892.406V870.345H785.845V892.406H775.918Z" fill="black"/>
<path d="M1200.06 49.5C1201.05 49.5001 1201.73 50.0224 1202.08 50.3838C1202.42 50.7376 1202.63 51.1243 1202.75 51.3926C1203.01 51.9424 1203.19 52.602 1203.34 53.2461C1203.63 54.5759 1203.89 56.4471 1204.12 58.7549C1204.58 63.4011 1204.97 70.1634 1205.3 78.7061C1205.95 95.8087 1206.36 120.227 1206.59 149.528C1207.04 208.139 1206.74 286.379 1206.14 364.919C1204.94 522.048 1202.56 680.3 1202.56 685.298V687.798H766.923V956.997C766.923 956.999 766.902 957 764.423 957H766.923V959.5H-144.693C-155.737 959.5 -164.5 950.17 -164.5 938.9V70.0996C-164.5 58.8296 -155.737 49.5002 -144.693 49.5H1200.06Z" fill="#F3D8A3" stroke="black" stroke-width="5"/>
<circle cx="136" cy="101" r="21" fill="#F5F0DD"/>
<circle cx="298" cy="97" r="21" fill="#F5F0DD"/>
<circle cx="446" cy="98" r="21" fill="#F5F0DD"/>
<circle cx="608" cy="97" r="21" fill="#F5F0DD"/>
<circle cx="756" cy="98" r="21" fill="#F5F0DD"/>
<circle cx="918" cy="98" r="21" fill="#F5F0DD"/>
<circle cx="1067" cy="101" r="21" fill="#F5F0DD"/>
<path d="M1063.5 100.5C1131.44 41.1868 1081.67 -17.636 1027.29 45.0162" stroke="black" stroke-width="10"/>
<path d="M753.589 98.0859C821.529 38.7727 771.763 -20.0501 717.382 42.6022" stroke="black" stroke-width="10"/>
<path d="M605.589 98.0859C673.529 38.7727 623.763 -20.0501 569.382 42.6022" stroke="black" stroke-width="10"/>
<path d="M915.589 101.086C983.529 41.7727 933.763 -17.0501 879.382 45.6022" stroke="black" stroke-width="10"/>
<path d="M443.499 97.0859C511.44 37.7727 461.673 -21.0501 407.292 41.6022" stroke="black" stroke-width="10"/>
<path d="M295.589 97.6718C363.529 38.3586 313.763 -20.4641 259.382 42.1881" stroke="black" stroke-width="10"/>
<path d="M133.499 101.086C201.44 41.7727 151.673 -17.0501 97.2923 45.6022" stroke="black" stroke-width="10"/>
<path d="M-14.4108 101.672C53.5294 42.3586 3.76323 -16.4641 -50.6179 46.1881" stroke="black" stroke-width="10"/>
</svg>
