<svg width="100" height="100" viewBox="0 0 100 100" fill="none" xmlns="http://www.w3.org/2000/svg">
<rect width="100" height="100" fill="white"/>
<path d="M26.4153 79H19.3049V45.6009H34.9278C38.433 45.6009 41.1703 46.6357 43.1399 48.7054C45.1429 50.7418 46.1443 53.2955 46.1443 56.3667C46.1443 59.4045 45.1429 61.9583 43.1399 64.028C41.137 66.0977 38.3996 67.1325 34.9278 67.1325H26.4153V79ZM33.9764 60.8733C35.4119 60.8733 36.5803 60.4728 37.4816 59.6716C38.4163 58.837 38.8837 57.7354 38.8837 56.3667C38.8837 54.998 38.4163 53.9131 37.4816 53.1119C36.5803 52.2774 35.4119 51.8601 33.9764 51.8601H26.4153V60.8733H33.9764ZM80.4459 79H73.5859L57.6624 57.218V79H50.552V45.6009H57.8627L73.3355 66.5817V45.6009H80.4459V79Z" fill="black"/>
<path d="M49.5 11L53.6864 22.3136L65 26.5L53.6864 30.6864L49.5 42L45.3136 30.6864L34 26.5L45.3136 22.3136L49.5 11Z" fill="black"/>
</svg>
