<svg width="2081" height="1336" viewBox="0 0 2081 1336" fill="none" xmlns="http://www.w3.org/2000/svg">
<rect x="2066" y="15" width="1306" height="1961" rx="32" transform="rotate(90 2066 15)" fill="#F5F0DD" stroke="black" stroke-width="30" stroke-linejoin="round"/>
<rect x="160.5" y="343.5" width="325" height="94" rx="10.3463" fill="white" stroke="black" stroke-width="3"/>
<rect x="160.5" y="670.5" width="1552" height="591" rx="10.3463" fill="#FEFEFE" stroke="black" stroke-width="3"/>
<rect x="669.5" y="343.5" width="462" height="94" rx="10.3463" fill="white" stroke="black" stroke-width="3"/>
<rect x="2062" y="25" width="576" height="643" rx="22" transform="rotate(90 2062 25)" fill="#151231" stroke="black" stroke-width="10" stroke-linejoin="round"/>
<rect x="1424" y="30" width="633" height="566" rx="17" fill="#A82D1B"/>
<path d="M1747.81 225.285L1749.4 229.598L1753.71 231.193L1853.18 268L1753.71 304.807L1749.4 306.402L1747.81 310.715L1711 410.183L1674.19 310.715L1672.6 306.402L1668.29 304.807L1568.82 268L1668.29 231.193L1672.6 229.598L1674.19 225.285L1711 125.816L1747.81 225.285Z" fill="white" stroke="#151231" stroke-width="20"/>
<path d="M1844.82 365.271L1846.42 369.584L1850.73 371.18L1896.18 388L1850.73 404.82L1846.42 406.416L1844.82 410.729L1828 456.184L1811.18 410.729L1809.58 406.416L1805.27 404.82L1759.82 388L1805.27 371.18L1809.58 369.584L1811.18 365.271L1828 319.815L1844.82 365.271Z" fill="white" stroke="#151231" stroke-width="20"/>
<rect x="141.5" y="57.5" width="1037" height="137" rx="15.5" fill="white" stroke="black" stroke-width="3"/>
<rect x="1217" y="69" width="118" height="165" rx="11" fill="#E8C162" stroke="black" stroke-width="2"/>
<line x1="1232.5" y1="234.003" x2="1232.5" y2="69.9999" stroke="black"/>
<line x1="1255.5" y1="233.003" x2="1255.5" y2="68.9999" stroke="black"/>
<line x1="1296.5" y1="234.003" x2="1296.5" y2="69.9999" stroke="black"/>
<line x1="1275.5" y1="234.003" x2="1275.5" y2="69.9999" stroke="black"/>
<line x1="1322.5" y1="234.003" x2="1322.5" y2="69.9999" stroke="black"/>
<rect x="1313" y="137" width="31" height="73" rx="11" transform="rotate(90 1313 137)" fill="#E8C162" stroke="black" stroke-width="2"/>
<circle cx="70" cy="672" r="60" fill="#0B0073" stroke="black" stroke-width="20"/>
</svg>
