<svg width="641" height="773" viewBox="0 0 641 773" fill="none" xmlns="http://www.w3.org/2000/svg">
<rect x="0.747382" y="135.617" width="466.514" height="664.393" transform="rotate(-16.8041 0.747382 135.617)" fill="#F5F0DD" stroke="black" stroke-width="1.19927"/>
<path d="M108.852 264.161L97.8307 267.49L96.3329 262.53L107.354 259.202L108.852 264.161ZM122.62 260.003L111.598 263.332L110.101 258.372L121.122 255.044L122.62 260.003ZM136.387 255.846L125.366 259.174L123.868 254.215L134.89 250.886L136.387 255.846ZM150.155 251.688L139.134 255.016L137.636 250.057L148.657 246.728L150.155 251.688ZM163.923 247.53L152.901 250.859L151.404 245.899L162.425 242.571L163.923 247.53ZM177.691 243.372L166.669 246.701L165.171 241.741L176.193 238.413L177.691 243.372ZM191.458 239.215L180.437 242.543L178.939 237.583L189.96 234.255L191.458 239.215ZM205.226 235.057L194.205 238.385L192.707 233.426L203.728 230.097L205.226 235.057ZM218.994 230.899L207.972 234.227L206.474 229.268L217.496 225.939L218.994 230.899ZM232.761 226.741L221.74 230.07L220.242 225.11L231.264 221.782L232.761 226.741ZM246.529 222.583L235.508 225.912L234.01 220.952L245.031 217.624L246.529 222.583ZM260.297 218.426L249.275 221.754L247.778 216.794L258.799 213.466L260.297 218.426ZM274.064 214.268L263.043 217.596L261.545 212.637L272.567 209.308L274.064 214.268ZM287.832 210.11L276.811 213.438L275.313 208.479L286.334 205.15L287.832 210.11ZM301.6 205.952L290.578 209.281L289.081 204.321L300.102 200.993L301.6 205.952ZM315.367 201.794L304.346 205.123L302.848 200.163L313.87 196.835L315.367 201.794ZM329.135 197.637L318.114 200.965L316.616 196.005L327.637 192.677L329.135 197.637ZM342.903 193.479L331.882 196.807L330.384 191.848L341.405 188.519L342.903 193.479ZM356.671 189.321L345.649 192.649L344.151 187.69L355.173 184.361L356.671 189.321ZM370.438 185.163L359.417 188.492L357.919 183.532L368.94 180.204L370.438 185.163ZM384.206 181.005L373.185 184.334L371.687 179.374L382.708 176.046L384.206 181.005ZM397.974 176.848L386.952 180.176L385.455 175.216L396.476 171.888L397.974 176.848ZM411.741 172.69L400.72 176.018L399.222 171.059L410.244 167.73L411.741 172.69ZM425.509 168.532L414.488 171.86L412.99 166.901L424.011 163.572L425.509 168.532ZM439.277 164.374L428.255 167.703L426.758 162.743L437.779 159.415L439.277 164.374Z" fill="black"/>
<path d="M206.624 587.913L195.602 591.241L194.104 586.282L205.126 582.953L206.624 587.913ZM220.391 583.755L209.37 587.083L207.872 582.124L218.893 578.795L220.391 583.755ZM234.159 579.597L223.138 582.926L221.64 577.966L232.661 574.638L234.159 579.597ZM247.927 575.439L236.905 578.768L235.407 573.808L246.429 570.48L247.927 575.439ZM261.694 571.282L250.673 574.61L249.175 569.65L260.197 566.322L261.694 571.282ZM275.462 567.124L264.441 570.452L262.943 565.493L273.964 562.164L275.462 567.124ZM289.23 562.966L278.208 566.294L276.711 561.335L287.732 558.006L289.23 562.966ZM302.997 558.808L291.976 562.137L290.478 557.177L301.5 553.849L302.997 558.808ZM316.765 554.65L305.744 557.979L304.246 553.019L315.267 549.691L316.765 554.65ZM330.533 550.493L319.511 553.821L318.014 548.861L329.035 545.533L330.533 550.493ZM344.3 546.335L333.279 549.663L331.781 544.704L342.803 541.375L344.3 546.335ZM358.068 542.177L347.047 545.505L345.549 540.546L356.57 537.217L358.068 542.177ZM371.836 538.019L360.815 541.348L359.317 536.388L370.338 533.06L371.836 538.019ZM385.604 533.861L374.582 537.19L373.084 532.23L384.106 528.902L385.604 533.861ZM399.371 529.704L388.35 533.032L386.852 528.072L397.873 524.744L399.371 529.704ZM413.139 525.546L402.118 528.874L400.62 523.915L411.641 520.586L413.139 525.546ZM426.907 521.388L415.885 524.716L414.388 519.757L425.409 516.428L426.907 521.388ZM440.674 517.23L429.653 520.559L428.155 515.599L439.177 512.271L440.674 517.23ZM454.442 513.072L443.421 516.401L441.923 511.441L452.944 508.113L454.442 513.072ZM468.21 508.915L457.188 512.243L455.691 507.283L466.712 503.955L468.21 508.915ZM481.977 504.757L470.956 508.085L469.458 503.126L480.48 499.797L481.977 504.757ZM495.745 500.599L484.724 503.927L483.226 498.968L494.247 495.639L495.745 500.599ZM509.513 496.441L498.492 499.77L496.994 494.81L508.015 491.482L509.513 496.441ZM523.281 492.284L512.259 495.612L510.761 490.652L521.783 487.324L523.281 492.284ZM537.048 488.126L526.027 491.454L524.529 486.495L535.55 483.166L537.048 488.126Z" fill="black"/>
<path d="M214.946 615.466L203.924 618.795L202.427 613.835L213.448 610.507L214.946 615.466ZM228.713 611.309L217.692 614.637L216.194 609.677L227.216 606.349L228.713 611.309ZM242.481 607.151L231.46 610.479L229.962 605.52L240.983 602.191L242.481 607.151ZM256.249 602.993L245.228 606.321L243.73 601.362L254.751 598.033L256.249 602.993ZM270.017 598.835L258.995 602.164L257.497 597.204L268.519 593.876L270.017 598.835ZM283.784 594.678L272.763 598.006L271.265 593.046L282.286 589.718L283.784 594.678ZM297.552 590.52L286.531 593.848L285.033 588.889L296.054 585.56L297.552 590.52ZM311.32 586.362L300.298 589.69L298.801 584.731L309.822 581.402L311.32 586.362ZM325.087 582.204L314.066 585.533L312.568 580.573L323.59 577.245L325.087 582.204ZM338.855 578.046L327.834 581.375L326.336 576.415L337.357 573.087L338.855 578.046ZM352.623 573.889L341.601 577.217L340.104 572.257L351.125 568.929L352.623 573.889ZM366.39 569.731L355.369 573.059L353.871 568.1L364.893 564.771L366.39 569.731ZM380.158 565.573L369.137 568.901L367.639 563.942L378.66 560.613L380.158 565.573ZM393.926 561.415L382.905 564.744L381.407 559.784L392.428 556.456L393.926 561.415ZM407.694 557.257L396.672 560.586L395.174 555.626L406.196 552.298L407.694 557.257ZM421.461 553.1L410.44 556.428L408.942 551.468L419.963 548.14L421.461 553.1ZM435.229 548.942L424.208 552.27L422.71 547.311L433.731 543.982L435.229 548.942ZM448.997 544.784L437.975 548.112L436.478 543.153L447.499 539.824L448.997 544.784ZM462.764 540.626L451.743 543.955L450.245 538.995L461.267 535.667L462.764 540.626ZM476.532 536.468L465.511 539.797L464.013 534.837L475.034 531.509L476.532 536.468ZM490.3 532.311L479.278 535.639L477.781 530.679L488.802 527.351L490.3 532.311ZM504.067 528.153L493.046 531.481L491.548 526.522L502.57 523.193L504.067 528.153ZM517.835 523.995L506.814 527.323L505.316 522.364L516.337 519.035L517.835 523.995ZM531.603 519.837L520.581 523.166L519.084 518.206L530.105 514.878L531.603 519.837ZM545.371 515.679L534.349 519.008L532.851 514.048L543.873 510.72L545.371 515.679Z" fill="black"/>
<path d="M222.573 640.723L211.551 644.052L210.054 639.092L221.075 635.764L222.573 640.723ZM236.34 636.566L225.319 639.894L223.821 634.934L234.843 631.606L236.34 636.566ZM250.108 632.408L239.087 635.736L237.589 630.777L248.61 627.448L250.108 632.408ZM263.876 628.25L252.854 631.578L251.357 626.619L262.378 623.29L263.876 628.25ZM277.644 624.092L266.622 627.421L265.124 622.461L276.146 619.133L277.644 624.092ZM291.411 619.934L280.39 623.263L278.892 618.303L289.913 614.975L291.411 619.934ZM305.179 615.777L294.158 619.105L292.66 614.145L303.681 610.817L305.179 615.777ZM318.947 611.619L307.925 614.947L306.427 609.988L317.449 606.659L318.947 611.619ZM332.714 607.461L321.693 610.789L320.195 605.83L331.217 602.501L332.714 607.461ZM346.482 603.303L335.461 606.632L333.963 601.672L344.984 598.344L346.482 603.303ZM360.25 599.145L349.228 602.474L347.731 597.514L358.752 594.186L360.25 599.145ZM374.017 594.988L362.996 598.316L361.498 593.356L372.52 590.028L374.017 594.988ZM387.785 590.83L376.764 594.158L375.266 589.199L386.287 585.87L387.785 590.83ZM401.553 586.672L390.531 590L389.034 585.041L400.055 581.712L401.553 586.672ZM415.32 582.514L404.299 585.843L402.801 580.883L413.823 577.555L415.32 582.514ZM429.088 578.356L418.067 581.685L416.569 576.725L427.59 573.397L429.088 578.356ZM442.856 574.199L431.835 577.527L430.337 572.567L441.358 569.239L442.856 574.199ZM456.624 570.041L445.602 573.369L444.104 568.41L455.126 565.081L456.624 570.041ZM470.391 565.883L459.37 569.211L457.872 564.252L468.893 560.923L470.391 565.883ZM484.159 561.725L473.138 565.054L471.64 560.094L482.661 556.766L484.159 561.725ZM497.927 557.567L486.905 560.896L485.408 555.936L496.429 552.608L497.927 557.567ZM511.694 553.41L500.673 556.738L499.175 551.778L510.197 548.45L511.694 553.41ZM525.462 549.252L514.441 552.58L512.943 547.621L523.964 544.292L525.462 549.252ZM539.23 545.094L528.208 548.422L526.711 543.463L537.732 540.134L539.23 545.094ZM552.997 540.936L541.976 544.265L540.478 539.305L551.5 535.977L552.997 540.936Z" fill="black"/>
<path d="M230.893 668.278L219.872 671.606L218.374 666.646L229.395 663.318L230.893 668.278ZM244.661 664.12L233.639 667.448L232.142 662.489L243.163 659.16L244.661 664.12ZM258.428 659.962L247.407 663.29L245.909 658.331L256.931 655.002L258.428 659.962ZM272.196 655.804L261.175 659.133L259.677 654.173L270.698 650.845L272.196 655.804ZM285.964 651.646L274.942 654.975L273.445 650.015L284.466 646.687L285.964 651.646ZM299.732 647.489L288.71 650.817L287.212 645.857L298.234 642.529L299.732 647.489ZM313.499 643.331L302.478 646.659L300.98 641.7L312.001 638.371L313.499 643.331ZM327.267 639.173L316.246 642.501L314.748 637.542L325.769 634.213L327.267 639.173ZM341.035 635.015L330.013 638.344L328.516 633.384L339.537 630.056L341.035 635.015ZM354.802 630.857L343.781 634.186L342.283 629.226L353.305 625.898L354.802 630.857ZM368.57 626.7L357.549 630.028L356.051 625.068L367.072 621.74L368.57 626.7ZM382.338 622.542L371.316 625.87L369.819 620.911L380.84 617.582L382.338 622.542ZM396.105 618.384L385.084 621.712L383.586 616.753L394.608 613.424L396.105 618.384ZM409.873 614.226L398.852 617.555L397.354 612.595L408.375 609.267L409.873 614.226ZM423.641 610.068L412.619 613.397L411.122 608.437L422.143 605.109L423.641 610.068ZM437.408 605.911L426.387 609.239L424.889 604.279L435.911 600.951L437.408 605.911ZM451.176 601.753L440.155 605.081L438.657 600.122L449.678 596.793L451.176 601.753ZM464.944 597.595L453.923 600.923L452.425 595.964L463.446 592.635L464.944 597.595ZM478.712 593.437L467.69 596.766L466.192 591.806L477.214 588.478L478.712 593.437ZM492.479 589.279L481.458 592.608L479.96 587.648L490.982 584.32L492.479 589.279ZM506.247 585.122L495.226 588.45L493.728 583.49L504.749 580.162L506.247 585.122ZM520.015 580.964L508.993 584.292L507.496 579.333L518.517 576.004L520.015 580.964ZM533.782 576.806L522.761 580.134L521.263 575.175L532.285 571.846L533.782 576.806ZM547.55 572.648L536.529 575.977L535.031 571.017L546.052 567.689L547.55 572.648ZM561.318 568.49L550.296 571.819L548.799 566.859L559.82 563.531L561.318 568.49Z" fill="black"/>
<path d="M117.172 291.715L106.151 295.043L104.653 290.084L115.675 286.755L117.172 291.715ZM130.94 287.557L119.919 290.886L118.421 285.926L129.442 282.598L130.94 287.557ZM144.708 283.399L133.686 286.728L132.189 281.768L143.21 278.44L144.708 283.399ZM158.475 279.242L147.454 282.57L145.956 277.61L156.978 274.282L158.475 279.242ZM172.243 275.084L161.222 278.412L159.724 273.453L170.745 270.124L172.243 275.084ZM186.011 270.926L174.989 274.254L173.492 269.295L184.513 265.966L186.011 270.926ZM199.779 266.768L188.757 270.097L187.259 265.137L198.281 261.809L199.779 266.768ZM213.546 262.61L202.525 265.939L201.027 260.979L212.048 257.651L213.546 262.61ZM227.314 258.453L216.293 261.781L214.795 256.821L225.816 253.493L227.314 258.453ZM241.082 254.295L230.06 257.623L228.562 252.664L239.584 249.335L241.082 254.295ZM254.849 250.137L243.828 253.465L242.33 248.506L253.352 245.177L254.849 250.137ZM268.617 245.979L257.596 249.308L256.098 244.348L267.119 241.02L268.617 245.979ZM282.385 241.821L271.363 245.15L269.866 240.19L280.887 236.862L282.385 241.821ZM296.152 237.664L285.131 240.992L283.633 236.032L294.655 232.704L296.152 237.664ZM309.92 233.506L298.899 236.834L297.401 231.875L308.422 228.546L309.92 233.506ZM323.688 229.348L312.666 232.677L311.169 227.717L322.19 224.389L323.688 229.348ZM337.455 225.19L326.434 228.519L324.936 223.559L335.958 220.231L337.455 225.19ZM351.223 221.033L340.202 224.361L338.704 219.401L349.725 216.073L351.223 221.033ZM364.991 216.875L353.97 220.203L352.472 215.244L363.493 211.915L364.991 216.875ZM378.759 212.717L367.737 216.045L366.239 211.086L377.261 207.757L378.759 212.717ZM392.526 208.559L381.505 211.888L380.007 206.928L391.028 203.6L392.526 208.559ZM406.294 204.401L395.273 207.73L393.775 202.77L404.796 199.442L406.294 204.401ZM420.062 200.244L409.04 203.572L407.543 198.612L418.564 195.284L420.062 200.244ZM433.829 196.086L422.808 199.414L421.31 194.455L432.332 191.126L433.829 196.086ZM447.597 191.928L436.576 195.256L435.078 190.297L446.099 186.968L447.597 191.928Z" fill="black"/>
<path d="M125.495 319.268L114.473 322.596L112.975 317.637L123.997 314.308L125.495 319.268ZM139.262 315.11L128.241 318.438L126.743 313.479L137.765 310.15L139.262 315.11ZM153.03 310.952L142.009 314.281L140.511 309.321L151.532 305.993L153.03 310.952ZM166.798 306.794L155.776 310.123L154.279 305.163L165.3 301.835L166.798 306.794ZM180.565 302.637L169.544 305.965L168.046 301.005L179.068 297.677L180.565 302.637ZM194.333 298.479L183.312 301.807L181.814 296.848L192.835 293.519L194.333 298.479ZM208.101 294.321L197.079 297.649L195.582 292.69L206.603 289.361L208.101 294.321ZM221.868 290.163L210.847 293.492L209.349 288.532L220.371 285.204L221.868 290.163ZM235.636 286.005L224.615 289.334L223.117 284.374L234.138 281.046L235.636 286.005ZM249.404 281.848L238.383 285.176L236.885 280.216L247.906 276.888L249.404 281.848ZM263.172 277.69L252.15 281.018L250.652 276.059L261.674 272.73L263.172 277.69ZM276.939 273.532L265.918 276.86L264.42 271.901L275.441 268.572L276.939 273.532ZM290.707 269.374L279.686 272.703L278.188 267.743L289.209 264.415L290.707 269.374ZM304.475 265.216L293.453 268.545L291.956 263.585L302.977 260.257L304.475 265.216ZM318.242 261.059L307.221 264.387L305.723 259.427L316.745 256.099L318.242 261.059ZM332.01 256.901L320.989 260.229L319.491 255.27L330.512 251.941L332.01 256.901ZM345.778 252.743L334.756 256.071L333.259 251.112L344.28 247.783L345.778 252.743ZM359.545 248.585L348.524 251.914L347.026 246.954L358.048 243.626L359.545 248.585ZM373.313 244.427L362.292 247.756L360.794 242.796L371.815 239.468L373.313 244.427ZM387.081 240.27L376.06 243.598L374.562 238.638L385.583 235.31L387.081 240.27ZM400.849 236.112L389.827 239.44L388.329 234.481L399.351 231.152L400.849 236.112ZM414.616 231.954L403.595 235.282L402.097 230.323L413.118 226.994L414.616 231.954ZM428.384 227.796L417.363 231.125L415.865 226.165L426.886 222.837L428.384 227.796ZM442.152 223.638L431.13 226.967L429.633 222.007L440.654 218.679L442.152 223.638ZM455.919 219.481L444.898 222.809L443.4 217.85L454.422 214.521L455.919 219.481Z" fill="black"/>
<path d="M133.122 344.525L122.1 347.853L120.602 342.894L131.624 339.565L133.122 344.525ZM146.889 340.367L135.868 343.696L134.37 338.736L145.391 335.408L146.889 340.367ZM160.657 336.209L149.636 339.538L148.138 334.578L159.159 331.25L160.657 336.209ZM174.425 332.052L163.403 335.38L161.906 330.42L172.927 327.092L174.425 332.052ZM188.192 327.894L177.171 331.222L175.673 326.263L186.695 322.934L188.192 327.894ZM201.96 323.736L190.939 327.064L189.441 322.105L200.462 318.776L201.96 323.736ZM215.728 319.578L204.706 322.907L203.209 317.947L214.23 314.619L215.728 319.578ZM229.495 315.421L218.474 318.749L216.976 313.789L227.998 310.461L229.495 315.421ZM243.263 311.263L232.242 314.591L230.744 309.632L241.765 306.303L243.263 311.263ZM257.031 307.105L246.009 310.433L244.512 305.474L255.533 302.145L257.031 307.105ZM270.799 302.947L259.777 306.276L258.279 301.316L269.301 297.988L270.799 302.947ZM284.566 298.789L273.545 302.118L272.047 297.158L283.068 293.83L284.566 298.789ZM298.334 294.632L287.313 297.96L285.815 293L296.836 289.672L298.334 294.632ZM312.102 290.474L301.08 293.802L299.583 288.843L310.604 285.514L312.102 290.474ZM325.869 286.316L314.848 289.644L313.35 284.685L324.372 281.356L325.869 286.316ZM339.637 282.158L328.616 285.487L327.118 280.527L338.139 277.199L339.637 282.158ZM353.405 278L342.383 281.329L340.886 276.369L351.907 273.041L353.405 278ZM367.172 273.843L356.151 277.171L354.653 272.211L365.675 268.883L367.172 273.843ZM380.94 269.685L369.919 273.013L368.421 268.054L379.442 264.725L380.94 269.685ZM394.708 265.527L383.686 268.855L382.189 263.896L393.21 260.567L394.708 265.527ZM408.475 261.369L397.454 264.698L395.956 259.738L406.978 256.41L408.475 261.369ZM422.243 257.211L411.222 260.54L409.724 255.58L420.745 252.252L422.243 257.211ZM436.011 253.054L424.99 256.382L423.492 251.422L434.513 248.094L436.011 253.054ZM449.779 248.896L438.757 252.224L437.259 247.265L448.281 243.936L449.779 248.896ZM463.546 244.738L452.525 248.066L451.027 243.107L462.049 239.778L463.546 244.738Z" fill="black"/>
<path d="M174.034 479.996L163.012 483.324L161.515 478.365L172.536 475.036L174.034 479.996ZM187.801 475.838L176.78 479.166L175.282 474.207L186.304 470.878L187.801 475.838ZM201.569 471.68L190.548 475.009L189.05 470.049L200.071 466.721L201.569 471.68ZM215.337 467.522L204.315 470.851L202.818 465.891L213.839 462.563L215.337 467.522ZM229.104 463.365L218.083 466.693L216.585 461.733L227.607 458.405L229.104 463.365ZM242.872 459.207L231.851 462.535L230.353 457.576L241.374 454.247L242.872 459.207ZM256.64 455.049L245.619 458.377L244.121 453.418L255.142 450.089L256.64 455.049ZM270.408 450.891L259.386 454.22L257.888 449.26L268.91 445.932L270.408 450.891ZM284.175 446.733L273.154 450.062L271.656 445.102L282.677 441.774L284.175 446.733ZM297.943 442.576L286.922 445.904L285.424 440.944L296.445 437.616L297.943 442.576ZM311.711 438.418L300.689 441.746L299.192 436.787L310.213 433.458L311.711 438.418ZM325.478 434.26L314.457 437.588L312.959 432.629L323.981 429.3L325.478 434.26ZM339.246 430.102L328.225 433.431L326.727 428.471L337.748 425.143L339.246 430.102ZM353.014 425.944L341.992 429.273L340.495 424.313L351.516 420.985L353.014 425.944ZM366.781 421.787L355.76 425.115L354.262 420.155L365.284 416.827L366.781 421.787ZM380.549 417.629L369.528 420.957L368.03 415.998L379.051 412.669L380.549 417.629ZM394.317 413.471L383.295 416.799L381.798 411.84L392.819 408.511L394.317 413.471ZM408.085 409.313L397.063 412.642L395.565 407.682L406.587 404.354L408.085 409.313ZM421.852 405.155L410.831 408.484L409.333 403.524L420.354 400.196L421.852 405.155ZM435.62 400.998L424.599 404.326L423.101 399.366L434.122 396.038L435.62 400.998ZM449.388 396.84L438.366 400.168L436.868 395.209L447.89 391.88L449.388 396.84ZM463.155 392.682L452.134 396.011L450.636 391.051L461.658 387.723L463.155 392.682ZM476.923 388.524L465.902 391.853L464.404 386.893L475.425 383.565L476.923 388.524ZM490.691 384.367L479.669 387.695L478.172 382.735L489.193 379.407L490.691 384.367ZM504.458 380.209L493.437 383.537L491.939 378.578L502.961 375.249L504.458 380.209Z" fill="black"/>
<path d="M182.354 507.549L171.333 510.878L169.835 505.918L180.856 502.59L182.354 507.549ZM196.122 503.392L185.1 506.72L183.603 501.76L194.624 498.432L196.122 503.392ZM209.889 499.234L198.868 502.562L197.37 497.603L208.392 494.274L209.889 499.234ZM223.657 495.076L212.636 498.404L211.138 493.445L222.159 490.116L223.657 495.076ZM237.425 490.918L226.403 494.247L224.906 489.287L235.927 485.959L237.425 490.918ZM251.192 486.761L240.171 490.089L238.673 485.129L249.695 481.801L251.192 486.761ZM264.96 482.603L253.939 485.931L252.441 480.972L263.462 477.643L264.96 482.603ZM278.728 478.445L267.707 481.773L266.209 476.814L277.23 473.485L278.728 478.445ZM292.496 474.287L281.474 477.616L279.976 472.656L290.998 469.328L292.496 474.287ZM306.263 470.129L295.242 473.458L293.744 468.498L304.765 465.17L306.263 470.129ZM320.031 465.972L309.01 469.3L307.512 464.34L318.533 461.012L320.031 465.972ZM333.799 461.814L322.777 465.142L321.28 460.183L332.301 456.854L333.799 461.814ZM347.566 457.656L336.545 460.984L335.047 456.025L346.069 452.696L347.566 457.656ZM361.334 453.498L350.313 456.827L348.815 451.867L359.836 448.539L361.334 453.498ZM375.102 449.34L364.08 452.669L362.583 447.709L373.604 444.381L375.102 449.34ZM388.869 445.183L377.848 448.511L376.35 443.551L387.372 440.223L388.869 445.183ZM402.637 441.025L391.616 444.353L390.118 439.394L401.139 436.065L402.637 441.025ZM416.405 436.867L405.383 440.195L403.886 435.236L414.907 431.907L416.405 436.867ZM430.173 432.709L419.151 436.038L417.653 431.078L428.675 427.75L430.173 432.709ZM443.94 428.551L432.919 431.88L431.421 426.92L442.442 423.592L443.94 428.551ZM457.708 424.394L446.687 427.722L445.189 422.762L456.21 419.434L457.708 424.394ZM471.476 420.236L460.454 423.564L458.957 418.605L469.978 415.276L471.476 420.236ZM485.243 416.078L474.222 419.406L472.724 414.447L483.746 411.118L485.243 416.078ZM499.011 411.92L487.99 415.249L486.492 410.289L497.513 406.961L499.011 411.92ZM512.779 407.762L501.757 411.091L500.26 406.131L511.281 402.803L512.779 407.762Z" fill="black"/>
<path d="M190.674 535.103L179.653 538.432L178.155 533.472L189.177 530.144L190.674 535.103ZM204.442 530.945L193.421 534.274L191.923 529.314L202.944 525.986L204.442 530.945ZM218.21 526.788L207.188 530.116L205.691 525.156L216.712 521.828L218.21 526.788ZM231.977 522.63L220.956 525.958L219.458 520.999L230.48 517.67L231.977 522.63ZM245.745 518.472L234.724 521.8L233.226 516.841L244.247 513.512L245.745 518.472ZM259.513 514.314L248.491 517.643L246.994 512.683L258.015 509.355L259.513 514.314ZM273.28 510.156L262.259 513.485L260.761 508.525L271.783 505.197L273.28 510.156ZM287.048 505.999L276.027 509.327L274.529 504.367L285.55 501.039L287.048 505.999ZM300.816 501.841L289.795 505.169L288.297 500.21L299.318 496.881L300.816 501.841ZM314.584 497.683L303.562 501.011L302.064 496.052L313.086 492.723L314.584 497.683ZM328.351 493.525L317.33 496.854L315.832 491.894L326.853 488.566L328.351 493.525ZM342.119 489.367L331.098 492.696L329.6 487.736L340.621 484.408L342.119 489.367ZM355.887 485.21L344.865 488.538L343.368 483.578L354.389 480.25L355.887 485.21ZM369.654 481.052L358.633 484.38L357.135 479.421L368.157 476.092L369.654 481.052ZM383.422 476.894L372.401 480.222L370.903 475.263L381.924 471.934L383.422 476.894ZM397.19 472.736L386.168 476.065L384.671 471.105L395.692 467.777L397.19 472.736ZM410.957 468.578L399.936 471.907L398.438 466.947L409.46 463.619L410.957 468.578ZM424.725 464.421L413.704 467.749L412.206 462.79L423.227 459.461L424.725 464.421ZM438.493 460.263L427.471 463.591L425.974 458.632L436.995 455.303L438.493 460.263ZM452.261 456.105L441.239 459.434L439.741 454.474L450.763 451.146L452.261 456.105ZM466.028 451.947L455.007 455.276L453.509 450.316L464.53 446.988L466.028 451.947ZM479.796 447.79L468.775 451.118L467.277 446.158L478.298 442.83L479.796 447.79ZM493.564 443.632L482.542 446.96L481.045 442.001L492.066 438.672L493.564 443.632ZM507.331 439.474L496.31 442.802L494.812 437.843L505.834 434.514L507.331 439.474ZM521.099 435.316L510.078 438.645L508.58 433.685L519.601 430.357L521.099 435.316Z" fill="black"/>
<path d="M198.303 560.361L187.282 563.689L185.784 558.729L196.805 555.401L198.303 560.361ZM212.071 556.203L201.05 559.531L199.552 554.572L210.573 551.243L212.071 556.203ZM225.839 552.045L214.817 555.373L213.319 550.414L224.341 547.085L225.839 552.045ZM239.606 547.887L228.585 551.216L227.087 546.256L238.109 542.928L239.606 547.887ZM253.374 543.729L242.353 547.058L240.855 542.098L251.876 538.77L253.374 543.729ZM267.142 539.572L256.12 542.9L254.623 537.94L265.644 534.612L267.142 539.572ZM280.909 535.414L269.888 538.742L268.39 533.783L279.412 530.454L280.909 535.414ZM294.677 531.256L283.656 534.584L282.158 529.625L293.179 526.296L294.677 531.256ZM308.445 527.098L297.423 530.427L295.926 525.467L306.947 522.139L308.445 527.098ZM322.212 522.94L311.191 526.269L309.693 521.309L320.715 517.981L322.212 522.94ZM335.98 518.783L324.959 522.111L323.461 517.151L334.482 513.823L335.98 518.783ZM349.748 514.625L338.727 517.953L337.229 512.994L348.25 509.665L349.748 514.625ZM363.516 510.467L352.494 513.795L350.996 508.836L362.018 505.507L363.516 510.467ZM377.283 506.309L366.262 509.638L364.764 504.678L375.785 501.35L377.283 506.309ZM391.051 502.151L380.03 505.48L378.532 500.52L389.553 497.192L391.051 502.151ZM404.819 497.994L393.797 501.322L392.3 496.362L403.321 493.034L404.819 497.994ZM418.586 493.836L407.565 497.164L406.067 492.205L417.089 488.876L418.586 493.836ZM432.354 489.678L421.333 493.006L419.835 488.047L430.856 484.718L432.354 489.678ZM446.122 485.52L435.1 488.849L433.603 483.889L444.624 480.561L446.122 485.52ZM459.889 481.362L448.868 484.691L447.37 479.731L458.392 476.403L459.889 481.362ZM473.657 477.205L462.636 480.533L461.138 475.573L472.159 472.245L473.657 477.205ZM487.425 473.047L476.404 476.375L474.906 471.416L485.927 468.087L487.425 473.047ZM501.193 468.889L490.171 472.217L488.673 467.258L499.695 463.929L501.193 468.889ZM514.96 464.731L503.939 468.06L502.441 463.1L513.462 459.772L514.96 464.731ZM528.728 460.573L517.707 463.902L516.209 458.942L527.23 455.614L528.728 460.573Z" fill="black"/>
<path d="M141.442 372.079L130.421 375.407L128.923 370.448L139.944 367.119L141.442 372.079ZM155.21 367.921L144.188 371.249L142.69 366.29L153.712 362.961L155.21 367.921ZM168.977 363.763L157.956 367.092L156.458 362.132L167.479 358.804L168.977 363.763ZM182.745 359.605L171.724 362.934L170.226 357.974L181.247 354.646L182.745 359.605ZM196.513 355.448L185.491 358.776L183.994 353.816L195.015 350.488L196.513 355.448ZM210.28 351.29L199.259 354.618L197.761 349.659L208.783 346.33L210.28 351.29ZM224.048 347.132L213.027 350.46L211.529 345.501L222.55 342.172L224.048 347.132ZM237.816 342.974L226.794 346.303L225.297 341.343L236.318 338.015L237.816 342.974ZM251.583 338.816L240.562 342.145L239.064 337.185L250.086 333.857L251.583 338.816ZM265.351 334.659L254.33 337.987L252.832 333.027L263.853 329.699L265.351 334.659ZM279.119 330.501L268.098 333.829L266.6 328.87L277.621 325.541L279.119 330.501ZM292.887 326.343L281.865 329.671L280.367 324.712L291.389 321.383L292.887 326.343ZM306.654 322.185L295.633 325.514L294.135 320.554L305.156 317.226L306.654 322.185ZM320.422 318.027L309.401 321.356L307.903 316.396L318.924 313.068L320.422 318.027ZM334.19 313.87L323.168 317.198L321.671 312.238L332.692 308.91L334.19 313.87ZM347.957 309.712L336.936 313.04L335.438 308.081L346.46 304.752L347.957 309.712ZM361.725 305.554L350.704 308.882L349.206 303.923L360.227 300.594L361.725 305.554ZM375.493 301.396L364.471 304.725L362.974 299.765L373.995 296.437L375.493 301.396ZM389.26 297.238L378.239 300.567L376.741 295.607L387.763 292.279L389.26 297.238ZM403.028 293.081L392.007 296.409L390.509 291.449L401.53 288.121L403.028 293.081ZM416.796 288.923L405.774 292.251L404.277 287.292L415.298 283.963L416.796 288.923ZM430.564 284.765L419.542 288.094L418.044 283.134L429.066 279.806L430.564 284.765ZM444.331 280.607L433.31 283.936L431.812 278.976L442.833 275.648L444.331 280.607ZM458.099 276.45L447.078 279.778L445.58 274.818L456.601 271.49L458.099 276.45ZM471.867 272.292L460.845 275.62L459.347 270.661L470.369 267.332L471.867 272.292Z" fill="black"/>
<path d="M149.764 399.632L138.743 402.961L137.245 398.001L148.266 394.673L149.764 399.632ZM163.532 395.475L152.51 398.803L151.013 393.843L162.034 390.515L163.532 395.475ZM177.3 391.317L166.278 394.645L164.78 389.686L175.802 386.357L177.3 391.317ZM191.067 387.159L180.046 390.488L178.548 385.528L189.569 382.2L191.067 387.159ZM204.835 383.001L193.814 386.33L192.316 381.37L203.337 378.042L204.835 383.001ZM218.603 378.844L207.581 382.172L206.084 377.212L217.105 373.884L218.603 378.844ZM232.37 374.686L221.349 378.014L219.851 373.055L230.873 369.726L232.37 374.686ZM246.138 370.528L235.117 373.856L233.619 368.897L244.64 365.568L246.138 370.528ZM259.906 366.37L248.884 369.699L247.387 364.739L258.408 361.411L259.906 366.37ZM273.673 362.212L262.652 365.541L261.154 360.581L272.176 357.253L273.673 362.212ZM287.441 358.055L276.42 361.383L274.922 356.423L285.943 353.095L287.441 358.055ZM301.209 353.897L290.187 357.225L288.69 352.266L299.711 348.937L301.209 353.897ZM314.976 349.739L303.955 353.067L302.457 348.108L313.479 344.779L314.976 349.739ZM328.744 345.581L317.723 348.91L316.225 343.95L327.246 340.622L328.744 345.581ZM342.512 341.423L331.491 344.752L329.993 339.792L341.014 336.464L342.512 341.423ZM356.28 337.266L345.258 340.594L343.76 335.634L354.782 332.306L356.28 337.266ZM370.047 333.108L359.026 336.436L357.528 331.477L368.55 328.148L370.047 333.108ZM383.815 328.95L372.794 332.278L371.296 327.319L382.317 323.99L383.815 328.95ZM397.583 324.792L386.561 328.121L385.064 323.161L396.085 319.833L397.583 324.792ZM411.35 320.634L400.329 323.963L398.831 319.003L409.853 315.675L411.35 320.634ZM425.118 316.477L414.097 319.805L412.599 314.845L423.62 311.517L425.118 316.477ZM438.886 312.319L427.864 315.647L426.367 310.688L437.388 307.359L438.886 312.319ZM452.653 308.161L441.632 311.489L440.134 306.53L451.156 303.201L452.653 308.161ZM466.421 304.003L455.4 307.332L453.902 302.372L464.923 299.044L466.421 304.003ZM480.189 299.845L469.168 303.174L467.67 298.214L478.691 294.886L480.189 299.845Z" fill="black"/>
<path d="M158.084 427.185L147.063 430.514L145.565 425.554L156.587 422.226L158.084 427.185ZM171.852 423.027L160.831 426.356L159.333 421.396L170.354 418.068L171.852 423.027ZM185.62 418.87L174.599 422.198L173.101 417.238L184.122 413.91L185.62 418.87ZM199.388 414.712L188.366 418.04L186.868 413.081L197.89 409.752L199.388 414.712ZM213.155 410.554L202.134 413.882L200.636 408.923L211.657 405.594L213.155 410.554ZM226.923 406.396L215.902 409.725L214.404 404.765L225.425 401.437L226.923 406.396ZM240.691 402.238L229.669 405.567L228.172 400.607L239.193 397.279L240.691 402.238ZM254.458 398.081L243.437 401.409L241.939 396.449L252.961 393.121L254.458 398.081ZM268.226 393.923L257.205 397.251L255.707 392.292L266.728 388.963L268.226 393.923ZM281.994 389.765L270.972 393.093L269.475 388.134L280.496 384.805L281.994 389.765ZM295.761 385.607L284.74 388.936L283.242 383.976L294.264 380.648L295.761 385.607ZM309.529 381.449L298.508 384.778L297.01 379.818L308.031 376.49L309.529 381.449ZM323.297 377.292L312.275 380.62L310.778 375.661L321.799 372.332L323.297 377.292ZM337.065 373.134L326.043 376.462L324.545 371.503L335.567 368.174L337.065 373.134ZM350.832 368.976L339.811 372.305L338.313 367.345L349.334 364.017L350.832 368.976ZM364.6 364.818L353.579 368.147L352.081 363.187L363.102 359.859L364.6 364.818ZM378.368 360.661L367.346 363.989L365.848 359.029L376.87 355.701L378.368 360.661ZM392.135 356.503L381.114 359.831L379.616 354.872L390.638 351.543L392.135 356.503ZM405.903 352.345L394.882 355.673L393.384 350.714L404.405 347.385L405.903 352.345ZM419.671 348.187L408.649 351.516L407.152 346.556L418.173 343.228L419.671 348.187ZM433.438 344.029L422.417 347.358L420.919 342.398L431.941 339.07L433.438 344.029ZM447.206 339.872L436.185 343.2L434.687 338.24L445.708 334.912L447.206 339.872ZM460.974 335.714L449.952 339.042L448.455 334.083L459.476 330.754L460.974 335.714ZM474.741 331.556L463.72 334.884L462.222 329.925L473.244 326.596L474.741 331.556ZM488.509 327.398L477.488 330.727L475.99 325.767L487.011 322.439L488.509 327.398Z" fill="black"/>
<path d="M165.711 452.443L154.69 455.771L153.192 450.812L164.214 447.483L165.711 452.443ZM179.479 448.285L168.458 451.614L166.96 446.654L177.981 443.326L179.479 448.285ZM193.247 444.127L182.225 447.456L180.728 442.496L191.749 439.168L193.247 444.127ZM207.014 439.97L195.993 443.298L194.495 438.338L205.517 435.01L207.014 439.97ZM220.782 435.812L209.761 439.14L208.263 434.181L219.284 430.852L220.782 435.812ZM234.55 431.654L223.529 434.982L222.031 430.023L233.052 426.694L234.55 431.654ZM248.318 427.496L237.296 430.825L235.798 425.865L246.82 422.537L248.318 427.496ZM262.085 423.338L251.064 426.667L249.566 421.707L260.587 418.379L262.085 423.338ZM275.853 419.181L264.832 422.509L263.334 417.549L274.355 414.221L275.853 419.181ZM289.621 415.023L278.599 418.351L277.102 413.392L288.123 410.063L289.621 415.023ZM303.388 410.865L292.367 414.194L290.869 409.234L301.891 405.905L303.388 410.865ZM317.156 406.707L306.135 410.036L304.637 405.076L315.658 401.748L317.156 406.707ZM330.924 402.55L319.902 405.878L318.405 400.918L329.426 397.59L330.924 402.55ZM344.691 398.392L333.67 401.72L332.172 396.761L343.194 393.432L344.691 398.392ZM358.459 394.234L347.438 397.562L345.94 392.603L356.961 389.274L358.459 394.234ZM372.227 390.076L361.206 393.405L359.708 388.445L370.729 385.117L372.227 390.076ZM385.995 385.918L374.973 389.247L373.475 384.287L384.497 380.959L385.995 385.918ZM399.762 381.761L388.741 385.089L387.243 380.129L398.264 376.801L399.762 381.761ZM413.53 377.603L402.509 380.931L401.011 375.972L412.032 372.643L413.53 377.603ZM427.298 373.445L416.276 376.773L414.779 371.814L425.8 368.485L427.298 373.445ZM441.065 369.287L430.044 372.616L428.546 367.656L439.568 364.328L441.065 369.287ZM454.833 365.129L443.812 368.458L442.314 363.498L453.335 360.17L454.833 365.129ZM468.601 360.972L457.579 364.3L456.082 359.34L467.103 356.012L468.601 360.972ZM482.368 356.814L471.347 360.142L469.849 355.183L480.871 351.854L482.368 356.814ZM496.136 352.656L485.115 355.984L483.617 351.025L494.638 347.696L496.136 352.656Z" fill="black"/>
<path d="M154.143 200.01L146.309 202.376L129.957 182.691L118.036 186.291L119.997 210.322L112.93 212.457L108.295 151.881L129.157 145.58C133.471 144.277 137.629 144.508 141.631 146.273C145.69 148.021 148.387 151.109 149.725 155.536C151.319 160.816 150.945 165.73 148.601 170.278C146.258 174.826 142.394 178.13 137.007 180.191L154.143 200.01ZM132.338 175.189L132.593 175.112C136.851 173.827 139.812 171.632 141.476 168.527C143.18 165.349 143.491 161.972 142.411 158.395C141.623 155.784 139.978 153.927 137.477 152.824C135.015 151.647 132.536 151.436 130.038 152.19L115.903 156.459L117.607 179.638L132.338 175.189ZM183.924 192.131C177.737 194 172.329 193.837 167.702 191.641C163.131 189.429 160.006 185.541 158.325 179.978C156.251 173.109 156.719 166.556 159.729 160.32C162.74 154.084 167.48 149.988 173.952 148.034C179.288 146.423 184.08 146.803 188.327 149.175C192.574 151.547 195.495 155.373 197.089 160.652C197.604 162.355 197.951 164.325 198.131 166.563L164.581 176.695C164.616 176.808 164.682 177.129 164.779 177.657C164.916 178.111 165.019 178.452 165.088 178.679C166.116 182.085 168.211 184.612 171.372 186.259C174.533 187.906 178.328 188.061 182.756 186.723C187.297 185.352 190.839 182.827 193.383 179.147L196.849 182.932C193.739 187.402 189.431 190.469 183.924 192.131ZM163.848 171.806L191.437 163.474C191.414 162.986 191.308 162.429 191.119 161.805C190.056 158.285 188.075 155.724 185.175 154.122C182.332 152.503 178.924 152.293 174.95 153.493C171.26 154.608 168.379 156.965 166.307 160.564C164.218 164.106 163.398 167.853 163.848 171.806ZM231.187 194.955C222.785 197.492 215.951 197.016 210.685 193.527L213.461 187.95C217.46 191.141 222.809 191.724 229.507 189.701C236.83 187.49 240.16 181.9 239.496 172.933L239.068 167.209C236.784 172.978 232.832 176.711 227.212 178.408C222.614 179.797 218.401 179.489 214.575 177.486C210.806 175.465 208.081 171.673 206.401 166.11C204.344 159.298 204.53 152.737 206.961 146.428C209.392 140.119 213.786 136.004 220.144 134.084C222.869 133.261 225.78 133.157 228.877 133.77C231.956 134.327 234.597 135.481 236.798 137.232L236.291 130.323L242.677 128.394L245.882 171.005C246.871 183.714 241.973 191.698 231.187 194.955ZM228.043 171.932C230.314 171.246 232.396 169.936 234.29 168.001C236.183 166.067 237.642 163.923 238.666 161.569L237.208 142.59C235.438 140.832 233.21 139.709 230.522 139.22C227.818 138.674 225.103 138.812 222.378 139.635C217.894 140.989 214.806 143.997 213.117 148.657C211.41 153.261 211.311 158.061 212.819 163.056C213.968 166.86 215.898 169.56 218.611 171.157C221.38 172.736 224.524 172.995 228.043 171.932ZM255.469 124.531L261.855 122.603L264.02 151.311C264.165 152.815 264.315 153.823 264.469 154.334C265.806 158.762 269.313 160.119 274.99 158.404C279.134 157.153 282.712 153.719 285.723 148.101L283.228 116.148L289.614 114.22L292.924 158.099L286.537 160.028L286.1 153.656C282.623 159.785 278.501 163.57 273.733 165.01C269.986 166.141 266.74 166.161 263.995 165.07C261.232 163.922 259.362 161.73 258.385 158.495C258.128 157.643 257.927 156.465 257.782 154.96L255.469 124.531ZM312.064 152.319L305.678 154.247L301.043 93.6715L307.429 91.7428L312.064 152.319ZM335.235 99.3271C338.358 98.3842 341.373 98.2168 344.282 98.8249C347.231 99.3591 349.738 100.584 351.804 102.5L351.297 95.5916L357.683 93.663L360.992 137.542L354.606 139.471L354.109 133.21C351.808 138.922 347.989 142.584 342.653 144.196C337.828 145.653 333.513 145.315 329.71 143.18C325.906 141.046 323.207 137.339 321.612 132.06C319.487 125.02 319.622 118.29 322.018 111.867C324.472 105.427 328.877 101.247 335.235 99.3271ZM337.81 104.775C333.268 106.147 330.105 109.208 328.318 113.96C326.532 118.711 326.419 123.67 327.979 128.836C329.128 132.639 331.095 135.359 333.881 136.996C336.65 138.575 339.766 138.842 343.229 137.796C345.67 137.059 347.829 135.695 349.705 133.704C351.564 131.655 352.875 129.432 353.638 127.034L352.248 107.662C350.586 106.058 348.46 104.966 345.869 104.385C343.334 103.788 340.648 103.918 337.81 104.775ZM380.168 131.751L373.782 133.68L370.472 89.8006L376.859 87.872L377.314 94.6103C378.734 91.5179 380.436 89.0525 382.421 87.2143C384.388 85.3193 387.075 83.8575 390.481 82.8289L391.014 89.8227C390.264 89.8013 389.151 90.0135 387.675 90.4593C385.404 91.145 383.388 92.4664 381.625 94.4235C379.919 96.3635 378.639 98.4844 377.786 100.786L380.168 131.751Z" fill="black"/>
<rect x="254.43" y="207.789" width="195.623" height="22.2582" transform="rotate(-16.8026 254.43 207.789)" fill="black"/>
<rect x="196.344" y="310.897" width="70.3612" height="22.2582" transform="rotate(-16.8026 196.344 310.897)" fill="black"/>
<rect x="387.652" y="314.048" width="97.4637" height="22.2582" transform="rotate(-16.8026 387.652 314.048)" fill="black"/>
<rect x="158.5" y="472.344" width="159.358" height="22.2582" transform="rotate(-16.8026 158.5 472.344)" fill="black"/>
<rect x="272.229" y="526.357" width="239.241" height="22.2582" transform="rotate(-16.8026 272.229 526.357)" fill="black"/>
<rect x="325.604" y="592.917" width="127.943" height="22.2582" transform="rotate(-16.8026 325.604 592.917)" fill="black"/>
<rect x="208.168" y="398.47" width="116.849" height="22.2582" transform="rotate(-16.8026 208.168 398.47)" fill="black"/>
</svg>
