<svg width="552" height="722" viewBox="0 0 552 722" fill="none" xmlns="http://www.w3.org/2000/svg">
<rect x="0.673369" y="62.1024" width="466.514" height="664.393" transform="rotate(-7.56649 0.673369 62.1024)" fill="#F5F0DD" stroke="black" stroke-width="1.19927"/>
<path d="M86.7346 206.335L75.3219 207.851L74.6397 202.716L86.0524 201.2L86.7346 206.335ZM100.991 204.442L89.5785 205.958L88.8963 200.822L100.309 199.306L100.991 204.442ZM115.248 202.548L103.835 204.064L103.153 198.928L114.566 197.412L115.248 202.548ZM129.504 200.654L118.092 202.17L117.409 197.034L128.822 195.518L129.504 200.654ZM143.761 198.76L132.348 200.276L131.666 195.141L143.079 193.625L143.761 198.76ZM158.018 196.867L146.605 198.383L145.923 193.247L157.335 191.731L158.018 196.867ZM172.274 194.973L160.861 196.489L160.179 191.353L171.592 189.837L172.274 194.973ZM186.531 193.079L175.118 194.595L174.436 189.459L185.849 187.943L186.531 193.079ZM200.787 191.185L189.375 192.701L188.692 187.566L200.105 186.05L200.787 191.185ZM215.044 189.292L203.631 190.808L202.949 185.672L214.362 184.156L215.044 189.292ZM229.301 187.398L217.888 188.914L217.206 183.778L228.618 182.262L229.301 187.398ZM243.557 185.504L232.144 187.02L231.462 181.884L242.875 180.368L243.557 185.504ZM257.814 183.61L246.401 185.126L245.719 179.991L257.132 178.475L257.814 183.61ZM272.07 181.717L260.658 183.233L259.975 178.097L271.388 176.581L272.07 181.717ZM286.327 179.823L274.914 181.339L274.232 176.203L285.645 174.687L286.327 179.823ZM300.584 177.929L289.171 179.445L288.489 174.309L299.901 172.793L300.584 177.929ZM314.84 176.035L303.427 177.551L302.745 172.416L314.158 170.9L314.84 176.035ZM329.097 174.142L317.684 175.658L317.002 170.522L328.414 169.006L329.097 174.142ZM343.353 172.248L331.941 173.764L331.258 168.628L342.671 167.112L343.353 172.248ZM357.61 170.354L346.197 171.87L345.515 166.734L356.928 165.218L357.61 170.354ZM371.866 168.46L360.454 169.976L359.772 164.841L371.184 163.325L371.866 168.46ZM386.123 166.567L374.71 168.083L374.028 162.947L385.441 161.431L386.123 166.567ZM400.38 164.673L388.967 166.189L388.285 161.053L399.697 159.537L400.38 164.673ZM414.636 162.779L403.224 164.295L402.541 159.159L413.954 157.643L414.636 162.779ZM428.893 160.885L417.48 162.401L416.798 157.266L428.211 155.75L428.893 160.885Z" fill="black"/>
<path d="M131.268 541.583L119.855 543.099L119.173 537.964L130.586 536.448L131.268 541.583ZM145.524 539.69L134.112 541.206L133.43 536.07L144.842 534.554L145.524 539.69ZM159.781 537.796L148.368 539.312L147.686 534.176L159.099 532.66L159.781 537.796ZM174.038 535.902L162.625 537.418L161.943 532.282L173.355 530.766L174.038 535.902ZM188.294 534.008L176.881 535.524L176.199 530.389L187.612 528.873L188.294 534.008ZM202.551 532.115L191.138 533.631L190.456 528.495L201.869 526.979L202.551 532.115ZM216.807 530.221L205.395 531.737L204.712 526.601L216.125 525.085L216.807 530.221ZM231.064 528.327L219.651 529.843L218.969 524.707L230.382 523.191L231.064 528.327ZM245.321 526.433L233.908 527.949L233.226 522.814L244.638 521.298L245.321 526.433ZM259.577 524.54L248.164 526.056L247.482 520.92L258.895 519.404L259.577 524.54ZM273.834 522.646L262.421 524.162L261.739 519.026L273.152 517.51L273.834 522.646ZM288.09 520.752L276.678 522.268L275.995 517.132L287.408 515.616L288.09 520.752ZM302.347 518.858L290.934 520.374L290.252 515.239L301.665 513.723L302.347 518.858ZM316.604 516.965L305.191 518.481L304.509 513.345L315.921 511.829L316.604 516.965ZM330.86 515.071L319.447 516.587L318.765 511.451L330.178 509.935L330.86 515.071ZM345.117 513.177L333.704 514.693L333.022 509.557L344.435 508.041L345.117 513.177ZM359.373 511.283L347.961 512.799L347.278 507.664L358.691 506.148L359.373 511.283ZM373.63 509.39L362.217 510.906L361.535 505.77L372.948 504.254L373.63 509.39ZM387.886 507.496L376.474 509.012L375.792 503.876L387.204 502.36L387.886 507.496ZM402.143 505.602L390.73 507.118L390.048 501.982L401.461 500.466L402.143 505.602ZM416.4 503.708L404.987 505.224L404.305 500.089L415.717 498.573L416.4 503.708ZM430.656 501.815L419.244 503.331L418.561 498.195L429.974 496.679L430.656 501.815ZM444.913 499.921L433.5 501.437L432.818 496.301L444.231 494.785L444.913 499.921ZM459.169 498.027L447.757 499.543L447.075 494.407L458.487 492.891L459.169 498.027ZM473.426 496.133L462.013 497.649L461.331 492.514L472.744 490.998L473.426 496.133Z" fill="black"/>
<path d="M135.057 570.115L123.644 571.631L122.962 566.495L134.375 564.979L135.057 570.115ZM149.313 568.221L137.901 569.737L137.219 564.601L148.631 563.085L149.313 568.221ZM163.57 566.327L152.157 567.843L151.475 562.707L162.888 561.191L163.57 566.327ZM177.827 564.433L166.414 565.949L165.732 560.814L177.144 559.298L177.827 564.433ZM192.083 562.54L180.671 564.056L179.988 558.92L191.401 557.404L192.083 562.54ZM206.34 560.646L194.927 562.162L194.245 557.026L205.658 555.51L206.34 560.646ZM220.596 558.752L209.184 560.268L208.502 555.132L219.914 553.616L220.596 558.752ZM234.853 556.858L223.44 558.374L222.758 553.239L234.171 551.723L234.853 556.858ZM249.11 554.965L237.697 556.481L237.015 551.345L248.427 549.829L249.11 554.965ZM263.366 553.071L251.953 554.587L251.271 549.451L262.684 547.935L263.366 553.071ZM277.623 551.177L266.21 552.693L265.528 547.557L276.941 546.041L277.623 551.177ZM291.879 549.283L280.467 550.799L279.784 545.664L291.197 544.148L291.879 549.283ZM306.136 547.39L294.723 548.906L294.041 543.77L305.454 542.254L306.136 547.39ZM320.393 545.496L308.98 547.012L308.298 541.876L319.71 540.36L320.393 545.496ZM334.649 543.602L323.236 545.118L322.554 539.982L333.967 538.466L334.649 543.602ZM348.906 541.708L337.493 543.224L336.811 538.089L348.224 536.573L348.906 541.708ZM363.162 539.815L351.75 541.331L351.067 536.195L362.48 534.679L363.162 539.815ZM377.419 537.921L366.006 539.437L365.324 534.301L376.737 532.785L377.419 537.921ZM391.676 536.027L380.263 537.543L379.581 532.407L390.993 530.891L391.676 536.027ZM405.932 534.133L394.519 535.649L393.837 530.514L405.25 528.998L405.932 534.133ZM420.189 532.24L408.776 533.756L408.094 528.62L419.507 527.104L420.189 532.24ZM434.445 530.346L423.033 531.862L422.35 526.726L433.763 525.21L434.445 530.346ZM448.702 528.452L437.289 529.968L436.607 524.832L448.02 523.316L448.702 528.452ZM462.959 526.558L451.546 528.074L450.864 522.939L462.276 521.423L462.959 526.558ZM477.215 524.665L465.802 526.181L465.12 521.045L476.533 519.529L477.215 524.665Z" fill="black"/>
<path d="M138.531 596.269L127.119 597.785L126.437 592.65L137.849 591.134L138.531 596.269ZM152.788 594.376L141.375 595.892L140.693 590.756L152.106 589.24L152.788 594.376ZM167.045 592.482L155.632 593.998L154.95 588.862L166.362 587.346L167.045 592.482ZM181.301 590.588L169.889 592.104L169.206 586.968L180.619 585.452L181.301 590.588ZM195.558 588.694L184.145 590.21L183.463 585.075L194.876 583.559L195.558 588.694ZM209.814 586.801L198.402 588.317L197.72 583.181L209.132 581.665L209.814 586.801ZM224.071 584.907L212.658 586.423L211.976 581.287L223.389 579.771L224.071 584.907ZM238.328 583.013L226.915 584.529L226.233 579.393L237.645 577.877L238.328 583.013ZM252.584 581.119L241.172 582.635L240.489 577.5L251.902 575.984L252.584 581.119ZM266.841 579.226L255.428 580.742L254.746 575.606L266.159 574.09L266.841 579.226ZM281.097 577.332L269.685 578.848L269.003 573.712L280.415 572.196L281.097 577.332ZM295.354 575.438L283.941 576.954L283.259 571.818L294.672 570.302L295.354 575.438ZM309.611 573.544L298.198 575.06L297.516 569.925L308.928 568.409L309.611 573.544ZM323.867 571.651L312.454 573.167L311.772 568.031L323.185 566.515L323.867 571.651ZM338.124 569.757L326.711 571.273L326.029 566.137L337.442 564.621L338.124 569.757ZM352.38 567.863L340.968 569.379L340.285 564.243L351.698 562.727L352.38 567.863ZM366.637 565.969L355.224 567.485L354.542 562.35L365.955 560.834L366.637 565.969ZM380.894 564.076L369.481 565.592L368.799 560.456L380.211 558.94L380.894 564.076ZM395.15 562.182L383.737 563.698L383.055 558.562L394.468 557.046L395.15 562.182ZM409.407 560.288L397.994 561.804L397.312 556.668L408.725 555.152L409.407 560.288ZM423.663 558.394L412.251 559.91L411.568 554.775L422.981 553.259L423.663 558.394ZM437.92 556.501L426.507 558.017L425.825 552.881L437.238 551.365L437.92 556.501ZM452.177 554.607L440.764 556.123L440.082 550.987L451.494 549.471L452.177 554.607ZM466.433 552.713L455.02 554.229L454.338 549.093L465.751 547.577L466.433 552.713ZM480.69 550.819L469.277 552.335L468.595 547.2L480.008 545.684L480.69 550.819Z" fill="black"/>
<path d="M142.321 624.801L130.908 626.317L130.226 621.181L141.638 619.665L142.321 624.801ZM156.577 622.907L145.164 624.423L144.482 619.288L155.895 617.772L156.577 622.907ZM170.834 621.014L159.421 622.53L158.739 617.394L170.152 615.878L170.834 621.014ZM185.09 619.12L173.678 620.636L172.995 615.5L184.408 613.984L185.09 619.12ZM199.347 617.226L187.934 618.742L187.252 613.606L198.665 612.09L199.347 617.226ZM213.604 615.332L202.191 616.848L201.509 611.713L212.921 610.197L213.604 615.332ZM227.86 613.439L216.447 614.955L215.765 609.819L227.178 608.303L227.86 613.439ZM242.117 611.545L230.704 613.061L230.022 607.925L241.435 606.409L242.117 611.545ZM256.373 609.651L244.961 611.167L244.278 606.031L255.691 604.515L256.373 609.651ZM270.63 607.757L259.217 609.273L258.535 604.138L269.948 602.622L270.63 607.757ZM284.886 605.864L273.474 607.38L272.792 602.244L284.204 600.728L284.886 605.864ZM299.143 603.97L287.73 605.486L287.048 600.35L298.461 598.834L299.143 603.97ZM313.4 602.076L301.987 603.592L301.305 598.456L312.717 596.94L313.4 602.076ZM327.656 600.182L316.244 601.698L315.561 596.563L326.974 595.047L327.656 600.182ZM341.913 598.289L330.5 599.805L329.818 594.669L341.231 593.153L341.913 598.289ZM356.169 596.395L344.757 597.911L344.075 592.775L355.487 591.259L356.169 596.395ZM370.426 594.501L359.013 596.017L358.331 590.881L369.744 589.365L370.426 594.501ZM384.683 592.607L373.27 594.123L372.588 588.988L384 587.472L384.683 592.607ZM398.939 590.714L387.527 592.23L386.844 587.094L398.257 585.578L398.939 590.714ZM413.196 588.82L401.783 590.336L401.101 585.2L412.514 583.684L413.196 588.82ZM427.452 586.926L416.04 588.442L415.357 583.306L426.77 581.79L427.452 586.926ZM441.709 585.032L430.296 586.548L429.614 581.413L441.027 579.897L441.709 585.032ZM455.966 583.139L444.553 584.655L443.871 579.519L455.283 578.003L455.966 583.139ZM470.222 581.245L458.809 582.761L458.127 577.625L469.54 576.109L470.222 581.245ZM484.479 579.351L473.066 580.867L472.384 575.731L483.797 574.215L484.479 579.351Z" fill="black"/>
<path d="M90.5256 234.867L79.1129 236.383L78.4307 231.247L89.8434 229.731L90.5256 234.867ZM104.782 232.973L93.3695 234.489L92.6873 229.353L104.1 227.837L104.782 232.973ZM119.039 231.079L107.626 232.595L106.944 227.459L118.357 225.943L119.039 231.079ZM133.295 229.185L121.883 230.701L121.201 225.566L132.613 224.05L133.295 229.185ZM147.552 227.292L136.139 228.808L135.457 223.672L146.87 222.156L147.552 227.292ZM161.809 225.398L150.396 226.914L149.714 221.778L161.126 220.262L161.809 225.398ZM176.065 223.504L164.652 225.02L163.97 219.884L175.383 218.368L176.065 223.504ZM190.322 221.61L178.909 223.126L178.227 217.991L189.64 216.475L190.322 221.61ZM204.578 219.717L193.166 221.233L192.483 216.097L203.896 214.581L204.578 219.717ZM218.835 217.823L207.422 219.339L206.74 214.203L218.153 212.687L218.835 217.823ZM233.092 215.929L221.679 217.445L220.997 212.309L232.409 210.793L233.092 215.929ZM247.348 214.035L235.935 215.551L235.253 210.416L246.666 208.9L247.348 214.035ZM261.605 212.142L250.192 213.658L249.51 208.522L260.923 207.006L261.605 212.142ZM275.861 210.248L264.449 211.764L263.766 206.628L275.179 205.112L275.861 210.248ZM290.118 208.354L278.705 209.87L278.023 204.734L289.436 203.218L290.118 208.354ZM304.375 206.46L292.962 207.976L292.28 202.841L303.692 201.325L304.375 206.46ZM318.631 204.567L307.218 206.083L306.536 200.947L317.949 199.431L318.631 204.567ZM332.888 202.673L321.475 204.189L320.793 199.053L332.206 197.537L332.888 202.673ZM347.144 200.779L335.732 202.295L335.049 197.159L346.462 195.643L347.144 200.779ZM361.401 198.885L349.988 200.401L349.306 195.266L360.719 193.75L361.401 198.885ZM375.657 196.992L364.245 198.508L363.563 193.372L374.975 191.856L375.657 196.992ZM389.914 195.098L378.501 196.614L377.819 191.478L389.232 189.962L389.914 195.098ZM404.171 193.204L392.758 194.72L392.076 189.584L403.488 188.068L404.171 193.204ZM418.427 191.31L407.015 192.826L406.332 187.691L417.745 186.175L418.427 191.31ZM432.684 189.417L421.271 190.933L420.589 185.797L432.002 184.281L432.684 189.417Z" fill="black"/>
<path d="M94.3166 263.398L82.9039 264.914L82.2217 259.778L93.6344 258.262L94.3166 263.398ZM108.573 261.504L97.1605 263.02L96.4783 257.884L107.891 256.368L108.573 261.504ZM122.83 259.61L111.417 261.126L110.735 255.991L122.148 254.475L122.83 259.61ZM137.086 257.717L125.674 259.233L124.992 254.097L136.404 252.581L137.086 257.717ZM151.343 255.823L139.93 257.339L139.248 252.203L150.661 250.687L151.343 255.823ZM165.6 253.929L154.187 255.445L153.505 250.309L164.917 248.793L165.6 253.929ZM179.856 252.035L168.443 253.551L167.761 248.416L179.174 246.9L179.856 252.035ZM194.113 250.142L182.7 251.658L182.018 246.522L193.431 245.006L194.113 250.142ZM208.369 248.248L196.957 249.764L196.274 244.628L207.687 243.112L208.369 248.248ZM222.626 246.354L211.213 247.87L210.531 242.734L221.944 241.218L222.626 246.354ZM236.883 244.46L225.47 245.976L224.788 240.841L236.2 239.325L236.883 244.46ZM251.139 242.567L239.726 244.083L239.044 238.947L250.457 237.431L251.139 242.567ZM265.396 240.673L253.983 242.189L253.301 237.053L264.714 235.537L265.396 240.673ZM279.652 238.779L268.24 240.295L267.557 235.159L278.97 233.643L279.652 238.779ZM293.909 236.885L282.496 238.401L281.814 233.266L293.227 231.75L293.909 236.885ZM308.166 234.992L296.753 236.508L296.071 231.372L307.483 229.856L308.166 234.992ZM322.422 233.098L311.009 234.614L310.327 229.478L321.74 227.962L322.422 233.098ZM336.679 231.204L325.266 232.72L324.584 227.584L335.997 226.068L336.679 231.204ZM350.935 229.31L339.523 230.826L338.84 225.691L350.253 224.175L350.935 229.31ZM365.192 227.417L353.779 228.933L353.097 223.797L364.51 222.281L365.192 227.417ZM379.448 225.523L368.036 227.039L367.354 221.903L378.766 220.387L379.448 225.523ZM393.705 223.629L382.292 225.145L381.61 220.009L393.023 218.493L393.705 223.629ZM407.962 221.735L396.549 223.251L395.867 218.116L407.279 216.6L407.962 221.735ZM422.218 219.842L410.806 221.358L410.123 216.222L421.536 214.706L422.218 219.842ZM436.475 217.948L425.062 219.464L424.38 214.328L435.793 212.812L436.475 217.948Z" fill="black"/>
<path d="M97.7893 289.552L86.3766 291.068L85.6944 285.932L97.1071 284.416L97.7893 289.552ZM112.046 287.658L100.633 289.174L99.951 284.039L111.364 282.523L112.046 287.658ZM126.302 285.765L114.89 287.281L114.208 282.145L125.62 280.629L126.302 285.765ZM140.559 283.871L129.146 285.387L128.464 280.251L139.877 278.735L140.559 283.871ZM154.816 281.977L143.403 283.493L142.721 278.357L154.133 276.841L154.816 281.977ZM169.072 280.083L157.66 281.599L156.977 276.464L168.39 274.948L169.072 280.083ZM183.329 278.19L171.916 279.706L171.234 274.57L182.647 273.054L183.329 278.19ZM197.585 276.296L186.173 277.812L185.491 272.676L196.903 271.16L197.585 276.296ZM211.842 274.402L200.429 275.918L199.747 270.782L211.16 269.266L211.842 274.402ZM226.099 272.508L214.686 274.024L214.004 268.889L225.416 267.373L226.099 272.508ZM240.355 270.615L228.943 272.131L228.26 266.995L239.673 265.479L240.355 270.615ZM254.612 268.721L243.199 270.237L242.517 265.101L253.93 263.585L254.612 268.721ZM268.868 266.827L257.456 268.343L256.774 263.207L268.186 261.691L268.868 266.827ZM283.125 264.933L271.712 266.449L271.03 261.314L282.443 259.798L283.125 264.933ZM297.382 263.04L285.969 264.556L285.287 259.42L296.699 257.904L297.382 263.04ZM311.638 261.146L300.225 262.662L299.543 257.526L310.956 256.01L311.638 261.146ZM325.895 259.252L314.482 260.768L313.8 255.632L325.213 254.116L325.895 259.252ZM340.151 257.358L328.739 258.874L328.056 253.739L339.469 252.223L340.151 257.358ZM354.408 255.465L342.995 256.981L342.313 251.845L353.726 250.329L354.408 255.465ZM368.665 253.571L357.252 255.087L356.57 249.951L367.982 248.435L368.665 253.571ZM382.921 251.677L371.508 253.193L370.826 248.057L382.239 246.541L382.921 251.677ZM397.178 249.783L385.765 251.299L385.083 246.164L396.496 244.648L397.178 249.783ZM411.434 247.89L400.022 249.406L399.339 244.27L410.752 242.754L411.434 247.89ZM425.691 245.996L414.278 247.512L413.596 242.376L425.009 240.86L425.691 245.996ZM439.948 244.102L428.535 245.618L427.853 240.482L439.265 238.966L439.948 244.102Z" fill="black"/>
<path d="M116.424 429.833L105.011 431.349L104.329 426.214L115.742 424.698L116.424 429.833ZM130.681 427.94L119.268 429.456L118.586 424.32L129.998 422.804L130.681 427.94ZM144.937 426.046L133.525 427.562L132.842 422.426L144.255 420.91L144.937 426.046ZM159.194 424.152L147.781 425.668L147.099 420.532L158.512 419.016L159.194 424.152ZM173.45 422.258L162.038 423.774L161.356 418.639L172.768 417.123L173.45 422.258ZM187.707 420.365L176.294 421.881L175.612 416.745L187.025 415.229L187.707 420.365ZM201.964 418.471L190.551 419.987L189.869 414.851L201.281 413.335L201.964 418.471ZM216.22 416.577L204.808 418.093L204.125 412.957L215.538 411.441L216.22 416.577ZM230.477 414.683L219.064 416.199L218.382 411.064L229.795 409.548L230.477 414.683ZM244.733 412.79L233.321 414.306L232.638 409.17L244.051 407.654L244.733 412.79ZM258.99 410.896L247.577 412.412L246.895 407.276L258.308 405.76L258.99 410.896ZM273.247 409.002L261.834 410.518L261.152 405.382L272.564 403.866L273.247 409.002ZM287.503 407.108L276.09 408.624L275.408 403.489L286.821 401.973L287.503 407.108ZM301.76 405.215L290.347 406.731L289.665 401.595L301.078 400.079L301.76 405.215ZM316.016 403.321L304.604 404.837L303.921 399.701L315.334 398.185L316.016 403.321ZM330.273 401.427L318.86 402.943L318.178 397.807L329.591 396.291L330.273 401.427ZM344.53 399.533L333.117 401.049L332.435 395.914L343.847 394.398L344.53 399.533ZM358.786 397.64L347.373 399.156L346.691 394.02L358.104 392.504L358.786 397.64ZM373.043 395.746L361.63 397.262L360.948 392.126L372.361 390.61L373.043 395.746ZM387.299 393.852L375.887 395.368L375.204 390.232L386.617 388.716L387.299 393.852ZM401.556 391.958L390.143 393.474L389.461 388.339L400.874 386.823L401.556 391.958ZM415.813 390.065L404.4 391.581L403.718 386.445L415.13 384.929L415.813 390.065ZM430.069 388.171L418.656 389.687L417.974 384.551L429.387 383.035L430.069 388.171ZM444.326 386.277L432.913 387.793L432.231 382.657L443.644 381.141L444.326 386.277ZM458.582 384.383L447.17 385.899L446.487 380.764L457.9 379.248L458.582 384.383Z" fill="black"/>
<path d="M120.213 458.366L108.8 459.882L108.118 454.746L119.531 453.23L120.213 458.366ZM134.47 456.472L123.057 457.988L122.375 452.852L133.788 451.336L134.47 456.472ZM148.726 454.578L137.314 456.094L136.631 450.958L148.044 449.442L148.726 454.578ZM162.983 452.684L151.57 454.2L150.888 449.065L162.301 447.549L162.983 452.684ZM177.239 450.791L165.827 452.307L165.145 447.171L176.557 445.655L177.239 450.791ZM191.496 448.897L180.083 450.413L179.401 445.277L190.814 443.761L191.496 448.897ZM205.753 447.003L194.34 448.519L193.658 443.383L205.07 441.867L205.753 447.003ZM220.009 445.109L208.597 446.625L207.914 441.49L219.327 439.974L220.009 445.109ZM234.266 443.216L222.853 444.732L222.171 439.596L233.584 438.08L234.266 443.216ZM248.522 441.322L237.11 442.838L236.428 437.702L247.84 436.186L248.522 441.322ZM262.779 439.428L251.366 440.944L250.684 435.808L262.097 434.292L262.779 439.428ZM277.036 437.534L265.623 439.05L264.941 433.915L276.353 432.399L277.036 437.534ZM291.292 435.641L279.88 437.157L279.197 432.021L290.61 430.505L291.292 435.641ZM305.549 433.747L294.136 435.263L293.454 430.127L304.867 428.611L305.549 433.747ZM319.805 431.853L308.393 433.369L307.711 428.233L319.123 426.717L319.805 431.853ZM334.062 429.959L322.649 431.475L321.967 426.34L333.38 424.824L334.062 429.959ZM348.319 428.066L336.906 429.582L336.224 424.446L347.636 422.93L348.319 428.066ZM362.575 426.172L351.163 427.688L350.48 422.552L361.893 421.036L362.575 426.172ZM376.832 424.278L365.419 425.794L364.737 420.658L376.15 419.142L376.832 424.278ZM391.088 422.384L379.676 423.9L378.993 418.765L390.406 417.249L391.088 422.384ZM405.345 420.491L393.932 422.007L393.25 416.871L404.663 415.355L405.345 420.491ZM419.602 418.597L408.189 420.113L407.507 414.977L418.919 413.461L419.602 418.597ZM433.858 416.703L422.445 418.219L421.763 413.083L433.176 411.567L433.858 416.703ZM448.115 414.809L436.702 416.325L436.02 411.19L447.433 409.674L448.115 414.809ZM462.371 412.916L450.959 414.432L450.276 409.296L461.689 407.78L462.371 412.916Z" fill="black"/>
<path d="M124.002 486.898L112.589 488.414L111.907 483.278L123.32 481.762L124.002 486.898ZM138.259 485.004L126.846 486.52L126.164 481.384L137.577 479.868L138.259 485.004ZM152.515 483.11L141.103 484.626L140.42 479.491L151.833 477.975L152.515 483.11ZM166.772 481.217L155.359 482.733L154.677 477.597L166.09 476.081L166.772 481.217ZM181.029 479.323L169.616 480.839L168.934 475.703L180.346 474.187L181.029 479.323ZM195.285 477.429L183.872 478.945L183.19 473.809L194.603 472.293L195.285 477.429ZM209.542 475.535L198.129 477.051L197.447 471.916L208.86 470.4L209.542 475.535ZM223.798 473.642L212.386 475.158L211.703 470.022L223.116 468.506L223.798 473.642ZM238.055 471.748L226.642 473.264L225.96 468.128L237.373 466.612L238.055 471.748ZM252.312 469.854L240.899 471.37L240.217 466.234L251.629 464.718L252.312 469.854ZM266.568 467.96L255.155 469.476L254.473 464.341L265.886 462.825L266.568 467.96ZM280.825 466.067L269.412 467.583L268.73 462.447L280.143 460.931L280.825 466.067ZM295.081 464.173L283.669 465.689L282.986 460.553L294.399 459.037L295.081 464.173ZM309.338 462.279L297.925 463.795L297.243 458.659L308.656 457.143L309.338 462.279ZM323.594 460.385L312.182 461.901L311.5 456.766L322.912 455.25L323.594 460.385ZM337.851 458.492L326.438 460.008L325.756 454.872L337.169 453.356L337.851 458.492ZM352.108 456.598L340.695 458.114L340.013 452.978L351.425 451.462L352.108 456.598ZM366.364 454.704L354.952 456.22L354.269 451.084L365.682 449.568L366.364 454.704ZM380.621 452.81L369.208 454.326L368.526 449.191L379.939 447.675L380.621 452.81ZM394.877 450.917L383.465 452.433L382.783 447.297L394.195 445.781L394.877 450.917ZM409.134 449.023L397.721 450.539L397.039 445.403L408.452 443.887L409.134 449.023ZM423.391 447.129L411.978 448.645L411.296 443.509L422.708 441.993L423.391 447.129ZM437.647 445.235L426.235 446.751L425.552 441.616L436.965 440.1L437.647 445.235ZM451.904 443.342L440.491 444.858L439.809 439.722L451.222 438.206L451.904 443.342ZM466.16 441.448L454.748 442.964L454.066 437.828L465.478 436.312L466.16 441.448Z" fill="black"/>
<path d="M127.477 513.052L116.064 514.568L115.382 509.432L126.795 507.916L127.477 513.052ZM141.733 511.158L130.321 512.674L129.638 507.538L141.051 506.022L141.733 511.158ZM155.99 509.264L144.577 510.78L143.895 505.644L155.308 504.128L155.99 509.264ZM170.247 507.37L158.834 508.886L158.152 503.751L169.564 502.235L170.247 507.37ZM184.503 505.477L173.09 506.993L172.408 501.857L183.821 500.341L184.503 505.477ZM198.76 503.583L187.347 505.099L186.665 499.963L198.078 498.447L198.76 503.583ZM213.016 501.689L201.604 503.205L200.921 498.069L212.334 496.553L213.016 501.689ZM227.273 499.795L215.86 501.311L215.178 496.176L226.591 494.66L227.273 499.795ZM241.53 497.902L230.117 499.418L229.435 494.282L240.847 492.766L241.53 497.902ZM255.786 496.008L244.373 497.524L243.691 492.388L255.104 490.872L255.786 496.008ZM270.043 494.114L258.63 495.63L257.948 490.494L269.361 488.978L270.043 494.114ZM284.299 492.22L272.887 493.736L272.204 488.601L283.617 487.085L284.299 492.22ZM298.556 490.327L287.143 491.843L286.461 486.707L297.874 485.191L298.556 490.327ZM312.813 488.433L301.4 489.949L300.718 484.813L312.13 483.297L312.813 488.433ZM327.069 486.539L315.656 488.055L314.974 482.919L326.387 481.403L327.069 486.539ZM341.326 484.645L329.913 486.161L329.231 481.026L340.643 479.51L341.326 484.645ZM355.582 482.752L344.17 484.268L343.487 479.132L354.9 477.616L355.582 482.752ZM369.839 480.858L358.426 482.374L357.744 477.238L369.157 475.722L369.839 480.858ZM384.095 478.964L372.683 480.48L372.001 475.344L383.413 473.828L384.095 478.964ZM398.352 477.07L386.939 478.586L386.257 473.451L397.67 471.935L398.352 477.07ZM412.609 475.177L401.196 476.693L400.514 471.557L411.926 470.041L412.609 475.177ZM426.865 473.283L415.453 474.799L414.77 469.663L426.183 468.147L426.865 473.283ZM441.122 471.389L429.709 472.905L429.027 467.769L440.44 466.253L441.122 471.389ZM455.378 469.495L443.966 471.011L443.284 465.876L454.696 464.36L455.378 469.495ZM469.635 467.602L458.222 469.118L457.54 463.982L468.953 462.466L469.635 467.602Z" fill="black"/>
<path d="M101.578 318.084L90.1657 319.6L89.4835 314.465L100.896 312.949L101.578 318.084ZM115.835 316.191L104.422 317.707L103.74 312.571L115.153 311.055L115.835 316.191ZM130.092 314.297L118.679 315.813L117.997 310.677L129.409 309.161L130.092 314.297ZM144.348 312.403L132.935 313.919L132.253 308.783L143.666 307.267L144.348 312.403ZM158.605 310.509L147.192 312.025L146.51 306.89L157.923 305.374L158.605 310.509ZM172.861 308.616L161.449 310.132L160.766 304.996L172.179 303.48L172.861 308.616ZM187.118 306.722L175.705 308.238L175.023 303.102L186.436 301.586L187.118 306.722ZM201.375 304.828L189.962 306.344L189.28 301.208L200.692 299.692L201.375 304.828ZM215.631 302.934L204.218 304.45L203.536 299.315L214.949 297.799L215.631 302.934ZM229.888 301.041L218.475 302.557L217.793 297.421L229.205 295.905L229.888 301.041ZM244.144 299.147L232.732 300.663L232.049 295.527L243.462 294.011L244.144 299.147ZM258.401 297.253L246.988 298.769L246.306 293.633L257.719 292.117L258.401 297.253ZM272.657 295.359L261.245 296.875L260.563 291.74L271.975 290.224L272.657 295.359ZM286.914 293.466L275.501 294.982L274.819 289.846L286.232 288.33L286.914 293.466ZM301.171 291.572L289.758 293.088L289.076 287.952L300.488 286.436L301.171 291.572ZM315.427 289.678L304.015 291.194L303.332 286.058L314.745 284.542L315.427 289.678ZM329.684 287.784L318.271 289.3L317.589 284.165L329.002 282.649L329.684 287.784ZM343.94 285.891L332.528 287.407L331.846 282.271L343.258 280.755L343.94 285.891ZM358.197 283.997L346.784 285.513L346.102 280.377L357.515 278.861L358.197 283.997ZM372.454 282.103L361.041 283.619L360.359 278.483L371.771 276.967L372.454 282.103ZM386.71 280.209L375.298 281.725L374.615 276.59L386.028 275.074L386.71 280.209ZM400.967 278.316L389.554 279.832L388.872 274.696L400.285 273.18L400.967 278.316ZM415.223 276.422L403.811 277.938L403.128 272.802L414.541 271.286L415.223 276.422ZM429.48 274.528L418.067 276.044L417.385 270.908L428.798 269.392L429.48 274.528ZM443.737 272.634L432.324 274.15L431.642 269.015L443.054 267.499L443.737 272.634Z" fill="black"/>
<path d="M105.369 346.617L93.9567 348.133L93.2745 342.997L104.687 341.481L105.369 346.617ZM119.626 344.723L108.213 346.239L107.531 341.103L118.944 339.587L119.626 344.723ZM133.883 342.829L122.47 344.345L121.788 339.209L133.2 337.693L133.883 342.829ZM148.139 340.935L136.726 342.451L136.044 337.316L147.457 335.8L148.139 340.935ZM162.396 339.042L150.983 340.558L150.301 335.422L161.714 333.906L162.396 339.042ZM176.652 337.148L165.24 338.664L164.557 333.528L175.97 332.012L176.652 337.148ZM190.909 335.254L179.496 336.77L178.814 331.634L190.227 330.118L190.909 335.254ZM205.166 333.36L193.753 334.876L193.071 329.741L204.483 328.225L205.166 333.36ZM219.422 331.467L208.009 332.983L207.327 327.847L218.74 326.331L219.422 331.467ZM233.679 329.573L222.266 331.089L221.584 325.953L232.997 324.437L233.679 329.573ZM247.935 327.679L236.523 329.195L235.84 324.059L247.253 322.543L247.935 327.679ZM262.192 325.785L250.779 327.301L250.097 322.166L261.51 320.65L262.192 325.785ZM276.448 323.892L265.036 325.408L264.354 320.272L275.766 318.756L276.448 323.892ZM290.705 321.998L279.292 323.514L278.61 318.378L290.023 316.862L290.705 321.998ZM304.962 320.104L293.549 321.62L292.867 316.484L304.279 314.968L304.962 320.104ZM319.218 318.21L307.806 319.726L307.123 314.591L318.536 313.075L319.218 318.21ZM333.475 316.317L322.062 317.833L321.38 312.697L332.793 311.181L333.475 316.317ZM347.731 314.423L336.319 315.939L335.637 310.803L347.049 309.287L347.731 314.423ZM361.988 312.529L350.575 314.045L349.893 308.909L361.306 307.393L361.988 312.529ZM376.245 310.635L364.832 312.151L364.15 307.016L375.562 305.5L376.245 310.635ZM390.501 308.742L379.089 310.258L378.406 305.122L389.819 303.606L390.501 308.742ZM404.758 306.848L393.345 308.364L392.663 303.228L404.076 301.712L404.758 306.848ZM419.014 304.954L407.602 306.47L406.92 301.334L418.332 299.818L419.014 304.954ZM433.271 303.06L421.858 304.576L421.176 299.441L432.589 297.925L433.271 303.06ZM447.528 301.167L436.115 302.683L435.433 297.547L446.845 296.031L447.528 301.167Z" fill="black"/>
<path d="M109.16 375.147L97.7477 376.663L97.0655 371.528L108.478 370.012L109.16 375.147ZM123.417 373.254L112.004 374.77L111.322 369.634L122.735 368.118L123.417 373.254ZM137.674 371.36L126.261 372.876L125.579 367.74L136.991 366.224L137.674 371.36ZM151.93 369.466L140.517 370.982L139.835 365.846L151.248 364.33L151.93 369.466ZM166.187 367.572L154.774 369.088L154.092 363.953L165.505 362.437L166.187 367.572ZM180.443 365.679L169.031 367.195L168.348 362.059L179.761 360.543L180.443 365.679ZM194.7 363.785L183.287 365.301L182.605 360.165L194.018 358.649L194.7 363.785ZM208.957 361.891L197.544 363.407L196.862 358.271L208.274 356.755L208.957 361.891ZM223.213 359.997L211.8 361.513L211.118 356.378L222.531 354.862L223.213 359.997ZM237.47 358.104L226.057 359.62L225.375 354.484L236.788 352.968L237.47 358.104ZM251.726 356.21L240.314 357.726L239.631 352.59L251.044 351.074L251.726 356.21ZM265.983 354.316L254.57 355.832L253.888 350.696L265.301 349.18L265.983 354.316ZM280.24 352.422L268.827 353.938L268.145 348.803L279.557 347.287L280.24 352.422ZM294.496 350.529L283.083 352.045L282.401 346.909L293.814 345.393L294.496 350.529ZM308.753 348.635L297.34 350.151L296.658 345.015L308.07 343.499L308.753 348.635ZM323.009 346.741L311.597 348.257L310.914 343.121L322.327 341.605L323.009 346.741ZM337.266 344.847L325.853 346.363L325.171 341.228L336.584 339.712L337.266 344.847ZM351.522 342.954L340.11 344.47L339.428 339.334L350.84 337.818L351.522 342.954ZM365.779 341.06L354.366 342.576L353.684 337.44L365.097 335.924L365.779 341.06ZM380.036 339.166L368.623 340.682L367.941 335.546L379.353 334.03L380.036 339.166ZM394.292 337.272L382.88 338.788L382.197 333.653L393.61 332.137L394.292 337.272ZM408.549 335.379L397.136 336.895L396.454 331.759L407.867 330.243L408.549 335.379ZM422.805 333.485L411.393 335.001L410.711 329.865L422.123 328.349L422.805 333.485ZM437.062 331.591L425.649 333.107L424.967 327.971L436.38 326.455L437.062 331.591ZM451.319 329.697L439.906 331.213L439.224 326.078L450.636 324.562L451.319 329.697Z" fill="black"/>
<path d="M112.633 401.302L101.22 402.818L100.538 397.682L111.951 396.166L112.633 401.302ZM126.89 399.408L115.477 400.924L114.795 395.789L126.207 394.273L126.89 399.408ZM141.146 397.515L129.734 399.031L129.051 393.895L140.464 392.379L141.146 397.515ZM155.403 395.621L143.99 397.137L143.308 392.001L154.721 390.485L155.403 395.621ZM169.659 393.727L158.247 395.243L157.565 390.107L168.977 388.591L169.659 393.727ZM183.916 391.833L172.503 393.349L171.821 388.214L183.234 386.698L183.916 391.833ZM198.173 389.94L186.76 391.456L186.078 386.32L197.49 384.804L198.173 389.94ZM212.429 388.046L201.016 389.562L200.334 384.426L211.747 382.91L212.429 388.046ZM226.686 386.152L215.273 387.668L214.591 382.532L226.004 381.016L226.686 386.152ZM240.942 384.258L229.53 385.774L228.847 380.639L240.26 379.123L240.942 384.258ZM255.199 382.365L243.786 383.881L243.104 378.745L254.517 377.229L255.199 382.365ZM269.456 380.471L258.043 381.987L257.361 376.851L268.773 375.335L269.456 380.471ZM283.712 378.577L272.299 380.093L271.617 374.957L283.03 373.441L283.712 378.577ZM297.969 376.683L286.556 378.199L285.874 373.064L297.287 371.548L297.969 376.683ZM312.225 374.79L300.813 376.306L300.13 371.17L311.543 369.654L312.225 374.79ZM326.482 372.896L315.069 374.412L314.387 369.276L325.8 367.76L326.482 372.896ZM340.739 371.002L329.326 372.518L328.644 367.382L340.056 365.866L340.739 371.002ZM354.995 369.108L343.582 370.624L342.9 365.489L354.313 363.973L354.995 369.108ZM369.252 367.215L357.839 368.731L357.157 363.595L368.57 362.079L369.252 367.215ZM383.508 365.321L372.096 366.837L371.413 361.701L382.826 360.185L383.508 365.321ZM397.765 363.427L386.352 364.943L385.67 359.807L397.083 358.291L397.765 363.427ZM412.022 361.533L400.609 363.049L399.927 357.914L411.339 356.398L412.022 361.533ZM426.278 359.64L414.865 361.156L414.183 356.02L425.596 354.504L426.278 359.64ZM440.535 357.746L429.122 359.262L428.44 354.126L439.852 352.61L440.535 357.746ZM454.791 355.852L443.379 357.368L442.696 352.232L454.109 350.716L454.791 355.852Z" fill="black"/>
<path d="M91.8034 161.527L48.6859 167.255L53.8353 106.721L96.9528 100.993L95.7117 114.618L67.8485 118.319L67.0386 127.758L94.3728 124.127L93.2199 137.74L65.8857 141.371L65.0049 151.628L92.9563 147.915L91.8034 161.527ZM140.993 154.993L126.533 156.914L119.444 144.755L110.044 159.104L94.7896 161.131L111.195 136.698L99.4489 117.172L113.998 115.239L120.205 126.17L128.458 113.319L143.801 111.281L128.301 134.426L140.993 154.993ZM158.956 152.607L145.377 154.411L149.155 110.569L162.734 108.766L162.267 114.032C165.592 109.343 170.223 106.604 176.16 105.816L174.931 119.528C173.23 119.335 171.733 119.325 170.44 119.497C166.678 119.996 163.632 121.837 161.303 125.017L158.956 152.607ZM197.894 148.512C193.602 149.082 190.054 148.716 187.249 147.413C184.495 146.044 182.895 143.685 182.45 140.334C182.333 139.452 182.285 138.412 182.305 137.213L183.954 117.881L176.9 118.818L177.988 106.739L185.042 105.802L186.053 93.8236L199.632 92.0199L198.621 103.999L207.262 102.851L206.174 114.929L197.533 116.077L196.28 130.96C196.197 131.688 196.195 132.347 196.273 132.935C196.585 135.286 198.093 136.282 200.798 135.923C201.973 135.767 202.824 135.414 203.349 134.866L204.966 145.688C203.543 147.133 201.185 148.075 197.894 148.512ZM228.402 98.9659C234.222 98.1928 238.812 99.6469 242.172 103.328L242.651 98.15L256.142 96.3579L252.364 140.2L238.873 141.992L239.276 136.913C236.338 141.371 232.548 143.909 227.904 144.525C223.025 145.174 218.942 144.161 215.656 141.486C212.362 138.754 210.344 134.595 209.602 129.011C209.032 124.719 209.275 120.47 210.331 116.262C211.438 111.987 213.538 108.208 216.632 104.926C219.776 101.577 223.7 99.5905 228.402 98.9659ZM232.376 110.641C229.261 111.055 226.834 112.604 225.097 115.287C223.411 117.904 222.794 120.917 223.247 124.327C223.583 126.854 224.649 128.806 226.447 130.183C228.238 131.5 230.308 132.003 232.66 131.69C235.775 131.277 238.274 129.599 240.156 126.657L241.356 113.397C239.014 111.076 236.021 110.157 232.376 110.641ZM290.051 136.27C284.291 137.035 279.701 135.581 276.281 131.908L275.891 137.074L262.312 138.878L267.461 78.3439L281.04 76.5401L279.178 98.3228C282.174 93.8571 285.965 91.3197 290.55 90.7106C295.429 90.0625 299.515 91.1049 302.81 93.8378C306.163 96.5629 308.21 100.718 308.952 106.302C309.522 110.593 309.249 114.847 308.134 119.063C307.078 123.271 304.978 127.049 301.834 130.398C298.681 133.688 294.754 135.646 290.051 136.27ZM286.166 124.583C289.223 124.177 291.623 122.662 293.369 120.037C295.106 117.354 295.752 114.337 295.307 110.986C294.971 108.458 293.904 106.506 292.106 105.13C290.308 103.754 288.234 103.222 285.882 103.534C282.943 103.924 280.415 105.606 278.297 108.579L277.186 121.828C279.528 124.149 282.521 125.067 286.166 124.583ZM338.091 129.889C331.154 130.81 325.504 129.707 321.14 126.577C316.828 123.381 314.292 118.933 313.535 113.231C312.637 106.471 314.237 100.276 318.335 94.647C322.432 89.0179 328.067 85.7271 335.239 84.7745C342.175 83.8531 347.8 84.9903 352.112 88.1861C356.476 91.3153 359.041 95.7603 359.806 101.521C360.704 108.281 359.104 114.476 355.006 120.105C350.901 125.675 345.262 128.936 338.091 129.889ZM337.027 117.827C340.084 117.421 342.447 115.851 344.118 113.116C345.847 110.374 346.49 107.328 346.045 103.977C345.701 101.391 344.667 99.4641 342.944 98.1976C341.22 96.931 339.036 96.4734 336.391 96.8248C333.275 97.2386 330.882 98.8128 329.211 101.547C327.541 104.282 326.928 107.324 327.373 110.675C327.717 113.261 328.75 115.188 330.474 116.454C332.197 117.721 334.382 118.178 337.027 117.827ZM378.79 123.406L365.211 125.21L370.361 64.6754L383.94 62.8717L378.79 123.406ZM406.819 75.2663C412.638 74.4932 417.228 75.9473 420.588 79.6286L422.527 57.746L436.018 55.954L430.78 116.5L417.29 118.292L417.692 113.214C414.755 117.672 410.964 120.209 406.32 120.826C401.441 121.474 397.358 120.461 394.072 117.787C390.778 115.054 388.76 110.895 388.018 105.311C387.448 101.02 387.691 96.7701 388.747 92.562C389.854 88.2873 391.955 84.5089 395.048 81.2266C398.192 77.8777 402.116 75.8909 406.819 75.2663ZM410.792 86.9418C407.677 87.3556 405.25 88.9043 403.513 91.5877C401.827 94.2045 401.21 97.2176 401.663 100.627C401.999 103.155 403.066 105.107 404.864 106.483C406.654 107.801 408.724 108.303 411.076 107.991C414.191 107.577 416.69 105.899 418.573 102.957L419.772 89.6971C417.43 87.3761 414.437 86.4577 410.792 86.9418Z" fill="black"/>
<rect x="73.0312" y="222.546" width="106.476" height="22.2582" transform="rotate(-7.56495 73.0312 222.546)" fill="black"/>
<rect x="165.625" y="266.51" width="70.3612" height="22.2582" transform="rotate(-7.56495 165.625 266.51)" fill="black"/>
<rect x="353.871" y="300.318" width="97.4637" height="22.2582" transform="rotate(-7.56495 353.871 300.318)" fill="black"/>
<rect x="102.32" y="419.788" width="159.358" height="22.2582" transform="rotate(-7.56495 102.32 419.788)" fill="black"/>
<rect x="136.209" y="497.687" width="239.241" height="22.2582" transform="rotate(-7.56495 136.209 497.687)" fill="black"/>
<rect x="332.584" y="583.065" width="127.943" height="22.2582" transform="rotate(-7.56495 332.584 583.065)" fill="black"/>
<rect x="239.533" y="171.89" width="70.3612" height="22.2582" transform="rotate(-7.56495 239.533 171.89)" fill="black"/>
</svg>
