<svg width="670" height="787" viewBox="0 0 670 787" fill="none" xmlns="http://www.w3.org/2000/svg">
<rect x="231.423" y="0.770509" width="466.514" height="664.393" transform="rotate(20.3139 231.423 0.770509)" fill="#F5F0DD" stroke="black" stroke-width="1.19927"/>
<path d="M240.048 168.505L229.251 164.509L231.049 159.65L241.846 163.647L240.048 168.505ZM253.535 173.498L242.738 169.501L244.537 164.643L255.334 168.64L253.535 173.498ZM267.022 178.491L256.226 174.494L258.024 169.636L268.821 173.633L267.022 178.491ZM280.51 183.484L269.713 179.487L271.512 174.628L282.308 178.625L280.51 183.484ZM293.997 188.477L283.2 184.48L284.999 179.621L295.796 183.618L293.997 188.477ZM307.485 193.47L296.688 189.473L298.486 184.614L309.283 188.611L307.485 193.47ZM320.972 198.462L310.175 194.466L311.974 189.607L322.77 193.604L320.972 198.462ZM334.459 203.455L323.662 199.458L325.461 194.6L336.258 198.597L334.459 203.455ZM347.947 208.448L337.15 204.451L338.948 199.593L349.745 203.59L347.947 208.448ZM361.434 213.441L350.637 209.444L352.436 204.585L363.232 208.582L361.434 213.441ZM374.921 218.434L364.124 214.437L365.923 209.578L376.72 213.575L374.921 218.434ZM388.409 223.427L377.612 219.43L379.41 214.571L390.207 218.568L388.409 223.427ZM401.896 228.419L391.099 224.423L392.898 219.564L403.694 223.561L401.896 228.419ZM415.383 233.412L404.586 229.415L406.385 224.557L417.182 228.554L415.383 233.412ZM428.871 238.405L418.074 234.408L419.872 229.55L430.669 233.547L428.871 238.405ZM442.358 243.398L431.561 239.401L433.36 234.542L444.156 238.539L442.358 243.398ZM455.845 248.391L445.048 244.394L446.847 239.535L457.644 243.532L455.845 248.391ZM469.333 253.384L458.536 249.387L460.334 244.528L471.131 248.525L469.333 253.384ZM482.82 258.376L472.023 254.38L473.822 249.521L484.619 253.518L482.82 258.376ZM496.307 263.369L485.51 259.372L487.309 254.514L498.106 258.511L496.307 263.369ZM509.795 268.362L498.998 264.365L500.796 259.507L511.593 263.504L509.795 268.362ZM523.282 273.355L512.485 269.358L514.284 264.499L525.081 268.496L523.282 273.355ZM536.769 278.348L525.972 274.351L527.771 269.492L538.568 273.489L536.769 278.348ZM550.257 283.341L539.46 279.344L541.258 274.485L552.055 278.482L550.257 283.341ZM563.744 288.333L552.947 284.337L554.746 279.478L565.543 283.475L563.744 288.333Z" fill="black"/>
<path d="M122.64 485.665L111.843 481.668L113.641 476.809L124.438 480.806L122.64 485.665ZM136.127 490.657L125.33 486.661L127.129 481.802L137.926 485.799L136.127 490.657ZM149.614 495.65L138.817 491.653L140.616 486.795L151.413 490.792L149.614 495.65ZM163.102 500.643L152.305 496.646L154.103 491.788L164.9 495.785L163.102 500.643ZM176.589 505.636L165.792 501.639L167.591 496.78L178.388 500.777L176.589 505.636ZM190.076 510.629L179.279 506.632L181.078 501.773L191.875 505.77L190.076 510.629ZM203.564 515.622L192.767 511.625L194.565 506.766L205.362 510.763L203.564 515.622ZM217.051 520.614L206.254 516.618L208.053 511.759L218.85 515.756L217.051 520.614ZM230.538 525.607L219.741 521.61L221.54 516.752L232.337 520.749L230.538 525.607ZM244.026 530.6L233.229 526.603L235.027 521.745L245.824 525.742L244.026 530.6ZM257.513 535.593L246.716 531.596L248.515 526.737L259.312 530.734L257.513 535.593ZM271 540.586L260.203 536.589L262.002 531.73L272.799 535.727L271 540.586ZM284.488 545.579L273.691 541.582L275.489 536.723L286.286 540.72L284.488 545.579ZM297.975 550.571L287.178 546.575L288.977 541.716L299.774 545.713L297.975 550.571ZM311.462 555.564L300.665 551.567L302.464 546.709L313.261 550.706L311.462 555.564ZM324.95 560.557L314.153 556.56L315.951 551.702L326.748 555.699L324.95 560.557ZM338.437 565.55L327.64 561.553L329.439 556.694L340.236 560.691L338.437 565.55ZM351.924 570.543L341.127 566.546L342.926 561.687L353.723 565.684L351.924 570.543ZM365.412 575.536L354.615 571.539L356.413 566.68L367.21 570.677L365.412 575.536ZM378.899 580.528L368.102 576.532L369.901 571.673L380.698 575.67L378.899 580.528ZM392.386 585.521L381.589 581.524L383.388 576.666L394.185 580.663L392.386 585.521ZM405.874 590.514L395.077 586.517L396.875 581.659L407.672 585.656L405.874 590.514ZM419.361 595.507L408.564 591.51L410.363 586.651L421.16 590.648L419.361 595.507ZM432.848 600.5L422.052 596.503L423.85 591.644L434.647 595.641L432.848 600.5ZM446.336 605.493L435.539 601.496L437.337 596.637L448.134 600.634L446.336 605.493Z" fill="black"/>
<path d="M112.647 512.657L101.851 508.66L103.649 503.801L114.446 507.798L112.647 512.657ZM126.135 517.65L115.338 513.653L117.136 508.794L127.933 512.791L126.135 517.65ZM139.622 522.642L128.825 518.646L130.624 513.787L141.421 517.784L139.622 522.642ZM153.109 527.635L142.313 523.638L144.111 518.78L154.908 522.777L153.109 527.635ZM166.597 532.628L155.8 528.631L157.598 523.773L168.395 527.77L166.597 532.628ZM180.084 537.621L169.287 533.624L171.086 528.766L181.883 532.762L180.084 537.621ZM193.571 542.614L182.775 538.617L184.573 533.758L195.37 537.755L193.571 542.614ZM207.059 547.607L196.262 543.61L198.06 538.751L208.857 542.748L207.059 547.607ZM220.546 552.599L209.749 548.603L211.548 543.744L222.345 547.741L220.546 552.599ZM234.033 557.592L223.237 553.595L225.035 548.737L235.832 552.734L234.033 557.592ZM247.521 562.585L236.724 558.588L238.522 553.73L249.319 557.727L247.521 562.585ZM261.008 567.578L250.211 563.581L252.01 558.723L262.807 562.719L261.008 567.578ZM274.495 572.571L263.699 568.574L265.497 563.715L276.294 567.712L274.495 572.571ZM287.983 577.564L277.186 573.567L278.985 568.708L289.781 572.705L287.983 577.564ZM301.47 582.556L290.673 578.56L292.472 573.701L303.269 577.698L301.47 582.556ZM314.958 587.549L304.161 583.552L305.959 578.694L316.756 582.691L314.958 587.549ZM328.445 592.542L317.648 588.545L319.447 583.687L330.243 587.684L328.445 592.542ZM341.932 597.535L331.135 593.538L332.934 588.68L343.731 592.676L341.932 597.535ZM355.42 602.528L344.623 598.531L346.421 593.672L357.218 597.669L355.42 602.528ZM368.907 607.521L358.11 603.524L359.909 598.665L370.705 602.662L368.907 607.521ZM382.394 612.513L371.597 608.517L373.396 603.658L384.193 607.655L382.394 612.513ZM395.882 617.506L385.085 613.509L386.883 608.651L397.68 612.648L395.882 617.506ZM409.369 622.499L398.572 618.502L400.371 613.644L411.167 617.641L409.369 622.499ZM422.856 627.492L412.059 623.495L413.858 618.637L424.655 622.633L422.856 627.492ZM436.344 632.485L425.547 628.488L427.345 623.629L438.142 627.626L436.344 632.485Z" fill="black"/>
<path d="M103.487 537.399L92.6904 533.403L94.4889 528.544L105.286 532.541L103.487 537.399ZM116.975 542.392L106.178 538.395L107.976 533.537L118.773 537.534L116.975 542.392ZM130.462 547.385L119.665 543.388L121.464 538.53L132.261 542.527L130.462 547.385ZM143.949 552.378L133.152 548.381L134.951 543.523L145.748 547.519L143.949 552.378ZM157.437 557.371L146.64 553.374L148.438 548.515L159.235 552.512L157.437 557.371ZM170.924 562.364L160.127 558.367L161.926 553.508L172.723 557.505L170.924 562.364ZM184.411 567.356L173.614 563.36L175.413 558.501L186.21 562.498L184.411 567.356ZM197.899 572.349L187.102 568.352L188.9 563.494L199.697 567.491L197.899 572.349ZM211.386 577.342L200.589 573.345L202.388 568.487L213.185 572.484L211.386 577.342ZM224.873 582.335L214.076 578.338L215.875 573.48L226.672 577.476L224.873 582.335ZM238.361 587.328L227.564 583.331L229.362 578.472L240.159 582.469L238.361 587.328ZM251.848 592.321L241.051 588.324L242.85 583.465L253.647 587.462L251.848 592.321ZM265.335 597.313L254.538 593.317L256.337 588.458L267.134 592.455L265.335 597.313ZM278.823 602.306L268.026 598.309L269.824 593.451L280.621 597.448L278.823 602.306ZM292.31 607.299L281.513 603.302L283.312 598.444L294.109 602.441L292.31 607.299ZM305.797 612.292L295 608.295L296.799 603.437L307.596 607.433L305.797 612.292ZM319.285 617.285L308.488 613.288L310.286 608.429L321.083 612.426L319.285 617.285ZM332.772 622.278L321.975 618.281L323.774 613.422L334.571 617.419L332.772 622.278ZM346.259 627.27L335.462 623.274L337.261 618.415L348.058 622.412L346.259 627.27ZM359.747 632.263L348.95 628.266L350.748 623.408L361.545 627.405L359.747 632.263ZM373.234 637.256L362.437 633.259L364.236 628.401L375.033 632.398L373.234 637.256ZM386.721 642.249L375.924 638.252L377.723 633.394L388.52 637.39L386.721 642.249ZM400.209 647.242L389.412 643.245L391.21 638.386L402.007 642.383L400.209 647.242ZM413.696 652.235L402.899 648.238L404.698 643.379L415.495 647.376L413.696 652.235ZM427.183 657.227L416.387 653.231L418.185 648.372L428.982 652.369L427.183 657.227Z" fill="black"/>
<path d="M93.4951 564.392L82.6982 560.395L84.4968 555.536L95.2937 559.533L93.4951 564.392ZM106.982 569.385L96.1855 565.388L97.9841 560.529L108.781 564.526L106.982 569.385ZM120.47 574.377L109.673 570.38L111.471 565.522L122.268 569.519L120.47 574.377ZM133.957 579.37L123.16 575.373L124.959 570.515L135.756 574.512L133.957 579.37ZM147.444 584.363L136.648 580.366L138.446 575.508L149.243 579.504L147.444 584.363ZM160.932 589.356L150.135 585.359L151.933 580.5L162.73 584.497L160.932 589.356ZM174.419 594.349L163.622 590.352L165.421 585.493L176.218 589.49L174.419 594.349ZM187.906 599.342L177.11 595.345L178.908 590.486L189.705 594.483L187.906 599.342ZM201.394 604.334L190.597 600.337L192.395 595.479L203.192 599.476L201.394 604.334ZM214.881 609.327L204.084 605.33L205.883 600.472L216.68 604.469L214.881 609.327ZM228.368 614.32L217.572 610.323L219.37 605.465L230.167 609.461L228.368 614.32ZM241.856 619.313L231.059 615.316L232.857 610.457L243.654 614.454L241.856 619.313ZM255.343 624.306L244.546 620.309L246.345 615.45L257.142 619.447L255.343 624.306ZM268.83 629.299L258.034 625.302L259.832 620.443L270.629 624.44L268.83 629.299ZM282.318 634.291L271.521 630.294L273.32 625.436L284.116 629.433L282.318 634.291ZM295.805 639.284L285.008 635.287L286.807 630.429L297.604 634.426L295.805 639.284ZM309.293 644.277L298.496 640.28L300.294 635.422L311.091 639.418L309.293 644.277ZM322.78 649.27L311.983 645.273L313.782 640.414L324.578 644.411L322.78 649.27ZM336.267 654.263L325.47 650.266L327.269 645.407L338.066 649.404L336.267 654.263ZM349.755 659.256L338.958 655.259L340.756 650.4L351.553 654.397L349.755 659.256ZM363.242 664.248L352.445 660.251L354.244 655.393L365.04 659.39L363.242 664.248ZM376.729 669.241L365.932 665.244L367.731 660.386L378.528 664.383L376.729 669.241ZM390.217 674.234L379.42 670.237L381.218 665.379L392.015 669.375L390.217 674.234ZM403.704 679.227L392.907 675.23L394.706 670.371L405.502 674.368L403.704 679.227ZM417.191 684.22L406.394 680.223L408.193 675.364L418.99 679.361L417.191 684.22Z" fill="black"/>
<path d="M230.056 195.497L219.259 191.5L221.057 186.642L231.854 190.639L230.056 195.497ZM243.543 200.49L232.746 196.493L234.545 191.635L245.342 195.631L243.543 200.49ZM257.03 205.483L246.233 201.486L248.032 196.627L258.829 200.624L257.03 205.483ZM270.518 210.476L259.721 206.479L261.519 201.62L272.316 205.617L270.518 210.476ZM284.005 215.468L273.208 211.472L275.007 206.613L285.804 210.61L284.005 215.468ZM297.492 220.461L286.695 216.464L288.494 211.606L299.291 215.603L297.492 220.461ZM310.98 225.454L300.183 221.457L301.981 216.599L312.778 220.596L310.98 225.454ZM324.467 230.447L313.67 226.45L315.469 221.592L326.266 225.588L324.467 230.447ZM337.954 235.44L327.157 231.443L328.956 226.584L339.753 230.581L337.954 235.44ZM351.442 240.433L340.645 236.436L342.443 231.577L353.24 235.574L351.442 240.433ZM364.929 245.425L354.132 241.429L355.931 236.57L366.728 240.567L364.929 245.425ZM378.416 250.418L367.619 246.421L369.418 241.563L380.215 245.56L378.416 250.418ZM391.904 255.411L381.107 251.414L382.905 246.556L393.702 250.553L391.904 255.411ZM405.391 260.404L394.594 256.407L396.393 251.549L407.19 255.545L405.391 260.404ZM418.878 265.397L408.081 261.4L409.88 256.541L420.677 260.538L418.878 265.397ZM432.366 270.39L421.569 266.393L423.367 261.534L434.164 265.531L432.366 270.39ZM445.853 275.382L435.056 271.386L436.855 266.527L447.652 270.524L445.853 275.382ZM459.34 280.375L448.543 276.378L450.342 271.52L461.139 275.517L459.34 280.375ZM472.828 285.368L462.031 281.371L463.829 276.513L474.626 280.51L472.828 285.368ZM486.315 290.361L475.518 286.364L477.317 281.506L488.114 285.502L486.315 290.361ZM499.802 295.354L489.006 291.357L490.804 286.498L501.601 290.495L499.802 295.354ZM513.29 300.347L502.493 296.35L504.291 291.491L515.088 295.488L513.29 300.347ZM526.777 305.339L515.98 301.343L517.779 296.484L528.576 300.481L526.777 305.339ZM540.264 310.332L529.468 306.335L531.266 301.477L542.063 305.474L540.264 310.332ZM553.752 315.325L542.955 311.328L544.753 306.47L555.55 310.467L553.752 315.325Z" fill="black"/>
<path d="M220.063 222.49L209.267 218.493L211.065 213.634L221.862 217.631L220.063 222.49ZM233.551 227.483L222.754 223.486L224.552 218.627L235.349 222.624L233.551 227.483ZM247.038 232.475L236.241 228.479L238.04 223.62L248.837 227.617L247.038 232.475ZM260.525 237.468L249.729 233.471L251.527 228.613L262.324 232.61L260.525 237.468ZM274.013 242.461L263.216 238.464L265.014 233.606L275.811 237.603L274.013 242.461ZM287.5 247.454L276.703 243.457L278.502 238.599L289.299 242.595L287.5 247.454ZM300.987 252.447L290.191 248.45L291.989 243.591L302.786 247.588L300.987 252.447ZM314.475 257.44L303.678 253.443L305.476 248.584L316.273 252.581L314.475 257.44ZM327.962 262.432L317.165 258.436L318.964 253.577L329.761 257.574L327.962 262.432ZM341.449 267.425L330.653 263.428L332.451 258.57L343.248 262.567L341.449 267.425ZM354.937 272.418L344.14 268.421L345.939 263.563L356.735 267.56L354.937 272.418ZM368.424 277.411L357.627 273.414L359.426 268.556L370.223 272.552L368.424 277.411ZM381.912 282.404L371.115 278.407L372.913 273.548L383.71 277.545L381.912 282.404ZM395.399 287.397L384.602 283.4L386.401 278.541L397.197 282.538L395.399 287.397ZM408.886 292.389L398.089 288.393L399.888 283.534L410.685 287.531L408.886 292.389ZM422.374 297.382L411.577 293.385L413.375 288.527L424.172 292.524L422.374 297.382ZM435.861 302.375L425.064 298.378L426.863 293.52L437.659 297.517L435.861 302.375ZM449.348 307.368L438.551 303.371L440.35 298.513L451.147 302.509L449.348 307.368ZM462.836 312.361L452.039 308.364L453.837 303.505L464.634 307.502L462.836 312.361ZM476.323 317.354L465.526 313.357L467.325 308.498L478.121 312.495L476.323 317.354ZM489.81 322.346L479.013 318.35L480.812 313.491L491.609 317.488L489.81 322.346ZM503.298 327.339L492.501 323.342L494.299 318.484L505.096 322.481L503.298 327.339ZM516.785 332.332L505.988 328.335L507.787 323.477L518.583 327.474L516.785 332.332ZM530.272 337.325L519.475 333.328L521.274 328.47L532.071 332.466L530.272 337.325ZM543.76 342.318L532.963 338.321L534.761 333.462L545.558 337.459L543.76 342.318Z" fill="black"/>
<path d="M210.905 247.232L200.108 243.236L201.907 238.377L212.704 242.374L210.905 247.232ZM224.393 252.225L213.596 248.228L215.394 243.37L226.191 247.367L224.393 252.225ZM237.88 257.218L227.083 253.221L228.882 248.363L239.678 252.36L237.88 257.218ZM251.367 262.211L240.57 258.214L242.369 253.356L253.166 257.352L251.367 262.211ZM264.855 267.204L254.058 263.207L255.856 258.348L266.653 262.345L264.855 267.204ZM278.342 272.197L267.545 268.2L269.344 263.341L280.141 267.338L278.342 272.197ZM291.829 277.189L281.032 273.193L282.831 268.334L293.628 272.331L291.829 277.189ZM305.317 282.182L294.52 278.185L296.318 273.327L307.115 277.324L305.317 282.182ZM318.804 287.175L308.007 283.178L309.806 278.32L320.603 282.317L318.804 287.175ZM332.291 292.168L321.494 288.171L323.293 283.313L334.09 287.309L332.291 292.168ZM345.779 297.161L334.982 293.164L336.78 288.305L347.577 292.302L345.779 297.161ZM359.266 302.154L348.469 298.157L350.268 293.298L361.065 297.295L359.266 302.154ZM372.753 307.146L361.956 303.15L363.755 298.291L374.552 302.288L372.753 307.146ZM386.241 312.139L375.444 308.142L377.242 303.284L388.039 307.281L386.241 312.139ZM399.728 317.132L388.931 313.135L390.73 308.277L401.527 312.274L399.728 317.132ZM413.215 322.125L402.418 318.128L404.217 313.27L415.014 317.266L413.215 322.125ZM426.703 327.118L415.906 323.121L417.704 318.262L428.501 322.259L426.703 327.118ZM440.19 332.111L429.393 328.114L431.192 323.255L441.989 327.252L440.19 332.111ZM453.677 337.103L442.88 333.107L444.679 328.248L455.476 332.245L453.677 337.103ZM467.165 342.096L456.368 338.099L458.166 333.241L468.963 337.238L467.165 342.096ZM480.652 347.089L469.855 343.092L471.654 338.234L482.451 342.231L480.652 347.089ZM494.139 352.082L483.342 348.085L485.141 343.227L495.938 347.223L494.139 352.082ZM507.627 357.075L496.83 353.078L498.628 348.219L509.425 352.216L507.627 357.075ZM521.114 362.068L510.317 358.071L512.116 353.212L522.913 357.209L521.114 362.068ZM534.601 367.061L523.804 363.064L525.603 358.205L536.4 362.202L534.601 367.061Z" fill="black"/>
<path d="M161.776 379.945L150.979 375.948L152.778 371.089L163.575 375.086L161.776 379.945ZM175.264 384.938L164.467 380.941L166.265 376.082L177.062 380.079L175.264 384.938ZM188.751 389.931L177.954 385.934L179.753 381.075L190.55 385.072L188.751 389.931ZM202.238 394.923L191.441 390.927L193.24 386.068L204.037 390.065L202.238 394.923ZM215.726 399.916L204.929 395.919L206.727 391.061L217.524 395.058L215.726 399.916ZM229.213 404.909L218.416 400.912L220.215 396.054L231.012 400.05L229.213 404.909ZM242.7 409.902L231.903 405.905L233.702 401.046L244.499 405.043L242.7 409.902ZM256.188 414.895L245.391 410.898L247.189 406.039L257.986 410.036L256.188 414.895ZM269.675 419.888L258.878 415.891L260.677 411.032L271.474 415.029L269.675 419.888ZM283.162 424.88L272.365 420.884L274.164 416.025L284.961 420.022L283.162 424.88ZM296.65 429.873L285.853 425.876L287.651 421.018L298.448 425.015L296.65 429.873ZM310.137 434.866L299.34 430.869L301.139 426.011L311.936 430.007L310.137 434.866ZM323.624 439.859L312.827 435.862L314.626 431.003L325.423 435L323.624 439.859ZM337.112 444.852L326.315 440.855L328.113 435.996L338.91 439.993L337.112 444.852ZM350.599 449.845L339.802 445.848L341.601 440.989L352.398 444.986L350.599 449.845ZM364.086 454.837L353.29 450.841L355.088 445.982L365.885 449.979L364.086 454.837ZM377.574 459.83L366.777 455.833L368.575 450.975L379.372 454.972L377.574 459.83ZM391.061 464.823L380.264 460.826L382.063 455.968L392.86 459.964L391.061 464.823ZM404.548 469.816L393.752 465.819L395.55 460.96L406.347 464.957L404.548 469.816ZM418.036 474.809L407.239 470.812L409.037 465.953L419.834 469.95L418.036 474.809ZM431.523 479.802L420.726 475.805L422.525 470.946L433.322 474.943L431.523 479.802ZM445.01 484.794L434.214 480.798L436.012 475.939L446.809 479.936L445.01 484.794ZM458.498 489.787L447.701 485.79L449.499 480.932L460.296 484.929L458.498 489.787ZM471.985 494.78L461.188 490.783L462.987 485.925L473.784 489.921L471.985 494.78ZM485.472 499.773L474.676 495.776L476.474 490.917L487.271 494.914L485.472 499.773Z" fill="black"/>
<path d="M151.782 406.937L140.985 402.94L142.784 398.082L153.581 402.078L151.782 406.937ZM165.27 411.93L154.473 407.933L156.271 403.074L167.068 407.071L165.27 411.93ZM178.757 416.923L167.96 412.926L169.759 408.067L180.555 412.064L178.757 416.923ZM192.244 421.916L181.447 417.919L183.246 413.06L194.043 417.057L192.244 421.916ZM205.732 426.908L194.935 422.912L196.733 418.053L207.53 422.05L205.732 426.908ZM219.219 431.901L208.422 427.904L210.221 423.046L221.017 427.043L219.219 431.901ZM232.706 436.894L221.909 432.897L223.708 428.039L234.505 432.035L232.706 436.894ZM246.194 441.887L235.397 437.89L237.195 433.031L247.992 437.028L246.194 441.887ZM259.681 446.88L248.884 442.883L250.683 438.024L261.479 442.021L259.681 446.88ZM273.168 451.873L262.371 447.876L264.17 443.017L274.967 447.014L273.168 451.873ZM286.656 456.865L275.859 452.869L277.657 448.01L288.454 452.007L286.656 456.865ZM300.143 461.858L289.346 457.861L291.145 453.003L301.942 457L300.143 461.858ZM313.63 466.851L302.833 462.854L304.632 457.996L315.429 461.992L313.63 466.851ZM327.118 471.844L316.321 467.847L318.119 462.988L328.916 466.985L327.118 471.844ZM340.605 476.837L329.808 472.84L331.607 467.981L342.404 471.978L340.605 476.837ZM354.092 481.83L343.295 477.833L345.094 472.974L355.891 476.971L354.092 481.83ZM367.58 486.822L356.783 482.826L358.581 477.967L369.378 481.964L367.58 486.822ZM381.067 491.815L370.27 487.818L372.069 482.96L382.866 486.957L381.067 491.815ZM394.554 496.808L383.757 492.811L385.556 487.953L396.353 491.949L394.554 496.808ZM408.042 501.801L397.245 497.804L399.043 492.945L409.84 496.942L408.042 501.801ZM421.529 506.794L410.732 502.797L412.531 497.938L423.328 501.935L421.529 506.794ZM435.016 511.787L424.219 507.79L426.018 502.931L436.815 506.928L435.016 511.787ZM448.504 516.779L437.707 512.783L439.505 507.924L450.302 511.921L448.504 516.779ZM461.991 521.772L451.194 517.775L452.993 512.917L463.79 516.914L461.991 521.772ZM475.478 526.765L464.681 522.768L466.48 517.91L477.277 521.906L475.478 526.765Z" fill="black"/>
<path d="M141.79 433.929L130.993 429.932L132.792 425.074L143.589 429.071L141.79 433.929ZM155.277 438.922L144.48 434.925L146.279 430.067L157.076 434.063L155.277 438.922ZM168.765 443.915L157.968 439.918L159.766 435.059L170.563 439.056L168.765 443.915ZM182.252 448.908L171.455 444.911L173.254 440.052L184.051 444.049L182.252 448.908ZM195.739 453.901L184.942 449.904L186.741 445.045L197.538 449.042L195.739 453.901ZM209.227 458.893L198.43 454.897L200.228 450.038L211.025 454.035L209.227 458.893ZM222.714 463.886L211.917 459.889L213.716 455.031L224.513 459.028L222.714 463.886ZM236.201 468.879L225.404 464.882L227.203 460.024L238 464.021L236.201 468.879ZM249.689 473.872L238.892 469.875L240.69 465.016L251.487 469.013L249.689 473.872ZM263.176 478.865L252.379 474.868L254.178 470.009L264.975 474.006L263.176 478.865ZM276.663 483.858L265.866 479.861L267.665 475.002L278.462 478.999L276.663 483.858ZM290.151 488.85L279.354 484.854L281.152 479.995L291.949 483.992L290.151 488.85ZM303.638 493.843L292.841 489.846L294.64 484.988L305.437 488.985L303.638 493.843ZM317.125 498.836L306.329 494.839L308.127 489.981L318.924 493.978L317.125 498.836ZM330.613 503.829L319.816 499.832L321.614 494.973L332.411 498.97L330.613 503.829ZM344.1 508.822L333.303 504.825L335.102 499.966L345.899 503.963L344.1 508.822ZM357.587 513.815L346.791 509.818L348.589 504.959L359.386 508.956L357.587 513.815ZM371.075 518.807L360.278 514.811L362.076 509.952L372.873 513.949L371.075 518.807ZM384.562 523.8L373.765 519.803L375.564 514.945L386.361 518.942L384.562 523.8ZM398.049 528.793L387.253 524.796L389.051 519.938L399.848 523.935L398.049 528.793ZM411.537 533.786L400.74 529.789L402.538 524.93L413.335 528.927L411.537 533.786ZM425.024 538.779L414.227 534.782L416.026 529.923L426.823 533.92L425.024 538.779ZM438.511 543.772L427.715 539.775L429.513 534.916L440.31 538.913L438.511 543.772ZM451.999 548.764L441.202 544.768L443.001 539.909L453.797 543.906L451.999 548.764ZM465.486 553.757L454.689 549.76L456.488 544.902L467.285 548.899L465.486 553.757Z" fill="black"/>
<path d="M132.632 458.672L121.835 454.676L123.633 449.817L134.43 453.814L132.632 458.672ZM146.119 463.665L135.322 459.668L137.121 454.81L147.918 458.807L146.119 463.665ZM159.606 468.658L148.81 464.661L150.608 459.803L161.405 463.799L159.606 468.658ZM173.094 473.651L162.297 469.654L164.095 464.795L174.892 468.792L173.094 473.651ZM186.581 478.644L175.784 474.647L177.583 469.788L188.38 473.785L186.581 478.644ZM200.068 483.637L189.272 479.64L191.07 474.781L201.867 478.778L200.068 483.637ZM213.556 488.629L202.759 484.633L204.558 479.774L215.354 483.771L213.556 488.629ZM227.043 493.622L216.246 489.625L218.045 484.767L228.842 488.764L227.043 493.622ZM240.531 498.615L229.734 494.618L231.532 489.76L242.329 493.756L240.531 498.615ZM254.018 503.608L243.221 499.611L245.02 494.752L255.816 498.749L254.018 503.608ZM267.505 508.601L256.708 504.604L258.507 499.745L269.304 503.742L267.505 508.601ZM280.993 513.594L270.196 509.597L271.994 504.738L282.791 508.735L280.993 513.594ZM294.48 518.586L283.683 514.59L285.482 509.731L296.278 513.728L294.48 518.586ZM307.967 523.579L297.17 519.582L298.969 514.724L309.766 518.721L307.967 523.579ZM321.455 528.572L310.658 524.575L312.456 519.717L323.253 523.714L321.455 528.572ZM334.942 533.565L324.145 529.568L325.944 524.709L336.74 528.706L334.942 533.565ZM348.429 538.558L337.632 534.561L339.431 529.702L350.228 533.699L348.429 538.558ZM361.917 543.551L351.12 539.554L352.918 534.695L363.715 538.692L361.917 543.551ZM375.404 548.543L364.607 544.547L366.406 539.688L377.202 543.685L375.404 548.543ZM388.891 553.536L378.094 549.539L379.893 544.681L390.69 548.678L388.891 553.536ZM402.379 558.529L391.582 554.532L393.38 549.674L404.177 553.671L402.379 558.529ZM415.866 563.522L405.069 559.525L406.868 554.666L417.665 558.663L415.866 563.522ZM429.353 568.515L418.556 564.518L420.355 559.659L431.152 563.656L429.353 568.515ZM442.841 573.508L432.044 569.511L433.842 564.652L444.639 568.649L442.841 573.508ZM456.328 578.5L445.531 574.504L447.33 569.645L458.127 573.642L456.328 578.5Z" fill="black"/>
<path d="M200.911 274.225L190.114 270.228L191.913 265.369L202.71 269.366L200.911 274.225ZM214.398 279.218L203.602 275.221L205.4 270.362L216.197 274.359L214.398 279.218ZM227.886 284.21L217.089 280.213L218.887 275.355L229.684 279.352L227.886 284.21ZM241.373 289.203L230.576 285.206L232.375 280.348L243.172 284.345L241.373 289.203ZM254.86 294.196L244.064 290.199L245.862 285.341L256.659 289.337L254.86 294.196ZM268.348 299.189L257.551 295.192L259.349 290.333L270.146 294.33L268.348 299.189ZM281.835 304.182L271.038 300.185L272.837 295.326L283.634 299.323L281.835 304.182ZM295.322 309.175L284.526 305.178L286.324 300.319L297.121 304.316L295.322 309.175ZM308.81 314.167L298.013 310.17L299.811 305.312L310.608 309.309L308.81 314.167ZM322.297 319.16L311.5 315.163L313.299 310.305L324.096 314.302L322.297 319.16ZM335.784 324.153L324.988 320.156L326.786 315.298L337.583 319.294L335.784 324.153ZM349.272 329.146L338.475 325.149L340.274 320.29L351.07 324.287L349.272 329.146ZM362.759 334.139L351.962 330.142L353.761 325.283L364.558 329.28L362.759 334.139ZM376.247 339.132L365.45 335.135L367.248 330.276L378.045 334.273L376.247 339.132ZM389.734 344.124L378.937 340.127L380.736 335.269L391.532 339.266L389.734 344.124ZM403.221 349.117L392.424 345.12L394.223 340.262L405.02 344.259L403.221 349.117ZM416.709 354.11L405.912 350.113L407.71 345.255L418.507 349.251L416.709 354.11ZM430.196 359.103L419.399 355.106L421.198 350.247L431.994 354.244L430.196 359.103ZM443.683 364.096L432.886 360.099L434.685 355.24L445.482 359.237L443.683 364.096ZM457.171 369.089L446.374 365.092L448.172 360.233L458.969 364.23L457.171 369.089ZM470.658 374.081L459.861 370.084L461.66 365.226L472.456 369.223L470.658 374.081ZM484.145 379.074L473.348 375.077L475.147 370.219L485.944 374.216L484.145 379.074ZM497.633 384.067L486.836 380.07L488.634 375.212L499.431 379.208L497.633 384.067ZM511.12 389.06L500.323 385.063L502.122 380.204L512.919 384.201L511.12 389.06ZM524.607 394.053L513.81 390.056L515.609 385.197L526.406 389.194L524.607 394.053Z" fill="black"/>
<path d="M190.919 301.218L180.122 297.221L181.921 292.362L192.717 296.359L190.919 301.218ZM204.406 306.211L193.609 302.214L195.408 297.355L206.205 301.352L204.406 306.211ZM217.894 311.204L207.097 307.207L208.895 302.348L219.692 306.345L217.894 311.204ZM231.381 316.196L220.584 312.199L222.383 307.341L233.18 311.338L231.381 316.196ZM244.868 321.189L234.071 317.192L235.87 312.334L246.667 316.331L244.868 321.189ZM258.356 326.182L247.559 322.185L249.357 317.327L260.154 321.323L258.356 326.182ZM271.843 331.175L261.046 327.178L262.845 322.319L273.642 326.316L271.843 331.175ZM285.33 336.168L274.533 332.171L276.332 327.312L287.129 331.309L285.33 336.168ZM298.818 341.161L288.021 337.164L289.819 332.305L300.616 336.302L298.818 341.161ZM312.305 346.153L301.508 342.156L303.307 337.298L314.104 341.295L312.305 346.153ZM325.792 351.146L314.995 347.149L316.794 342.291L327.591 346.288L325.792 351.146ZM339.28 356.139L328.483 352.142L330.281 347.284L341.078 351.28L339.28 356.139ZM352.767 361.132L341.97 357.135L343.769 352.276L354.566 356.273L352.767 361.132ZM366.254 366.125L355.457 362.128L357.256 357.269L368.053 361.266L366.254 366.125ZM379.742 371.118L368.945 367.121L370.743 362.262L381.54 366.259L379.742 371.118ZM393.229 376.11L382.432 372.113L384.231 367.255L395.028 371.252L393.229 376.11ZM406.716 381.103L395.919 377.106L397.718 372.248L408.515 376.245L406.716 381.103ZM420.204 386.096L409.407 382.099L411.205 377.241L422.002 381.237L420.204 386.096ZM433.691 391.089L422.894 387.092L424.693 382.233L435.49 386.23L433.691 391.089ZM447.178 396.082L436.381 392.085L438.18 387.226L448.977 391.223L447.178 396.082ZM460.666 401.075L449.869 397.078L451.667 392.219L462.464 396.216L460.666 401.075ZM474.153 406.067L463.356 402.07L465.155 397.212L475.952 401.209L474.153 406.067ZM487.64 411.06L476.843 407.063L478.642 402.205L489.439 406.202L487.64 411.06ZM501.128 416.053L490.331 412.056L492.129 407.198L502.926 411.194L501.128 416.053ZM514.615 421.046L503.818 417.049L505.617 412.19L516.414 416.187L514.615 421.046Z" fill="black"/>
<path d="M180.927 328.21L170.13 324.213L171.928 319.354L182.725 323.351L180.927 328.21ZM194.414 333.202L183.617 329.206L185.416 324.347L196.213 328.344L194.414 333.202ZM207.901 338.195L197.104 334.198L198.903 329.34L209.7 333.337L207.901 338.195ZM221.389 343.188L210.592 339.191L212.39 334.333L223.187 338.329L221.389 343.188ZM234.876 348.181L224.079 344.184L225.878 339.325L236.675 343.322L234.876 348.181ZM248.363 353.174L237.567 349.177L239.365 344.318L250.162 348.315L248.363 353.174ZM261.851 358.167L251.054 354.17L252.852 349.311L263.649 353.308L261.851 358.167ZM275.338 363.159L264.541 359.163L266.34 354.304L277.137 358.301L275.338 363.159ZM288.825 368.152L278.029 364.155L279.827 359.297L290.624 363.294L288.825 368.152ZM302.313 373.145L291.516 369.148L293.314 364.29L304.111 368.286L302.313 373.145ZM315.8 378.138L305.003 374.141L306.802 369.282L317.599 373.279L315.8 378.138ZM329.287 383.131L318.491 379.134L320.289 374.275L331.086 378.272L329.287 383.131ZM342.775 388.124L331.978 384.127L333.776 379.268L344.573 383.265L342.775 388.124ZM356.262 393.116L345.465 389.12L347.264 384.261L358.061 388.258L356.262 393.116ZM369.749 398.109L358.953 394.112L360.751 389.254L371.548 393.251L369.749 398.109ZM383.237 403.102L372.44 399.105L374.238 394.247L385.035 398.243L383.237 403.102ZM396.724 408.095L385.927 404.098L387.726 399.239L398.523 403.236L396.724 408.095ZM410.211 413.088L399.415 409.091L401.213 404.232L412.01 408.229L410.211 413.088ZM423.699 418.081L412.902 414.084L414.701 409.225L425.497 413.222L423.699 418.081ZM437.186 423.073L426.389 419.077L428.188 414.218L438.985 418.215L437.186 423.073ZM450.673 428.066L439.877 424.069L441.675 419.211L452.472 423.208L450.673 428.066ZM464.161 433.059L453.364 429.062L455.163 424.204L465.959 428.2L464.161 433.059ZM477.648 438.052L466.851 434.055L468.65 429.196L479.447 433.193L477.648 438.052ZM491.136 443.045L480.339 439.048L482.137 434.189L492.934 438.186L491.136 443.045ZM504.623 448.038L493.826 444.041L495.625 439.182L506.421 443.179L504.623 448.038Z" fill="black"/>
<path d="M171.767 352.952L160.97 348.955L162.768 344.097L173.565 348.094L171.767 352.952ZM185.254 357.945L174.457 353.948L176.256 349.09L187.052 353.086L185.254 357.945ZM198.741 362.938L187.944 358.941L189.743 354.082L200.54 358.079L198.741 362.938ZM212.229 367.931L201.432 363.934L203.23 359.075L214.027 363.072L212.229 367.931ZM225.716 372.924L214.919 368.927L216.718 364.068L227.515 368.065L225.716 372.924ZM239.203 377.916L228.406 373.92L230.205 369.061L241.002 373.058L239.203 377.916ZM252.691 382.909L241.894 378.912L243.692 374.054L254.489 378.051L252.691 382.909ZM266.178 387.902L255.381 383.905L257.18 379.047L267.977 383.043L266.178 387.902ZM279.665 392.895L268.868 388.898L270.667 384.039L281.464 388.036L279.665 392.895ZM293.153 397.888L282.356 393.891L284.154 389.032L294.951 393.029L293.153 397.888ZM306.64 402.881L295.843 398.884L297.642 394.025L308.439 398.022L306.64 402.881ZM320.127 407.873L309.33 403.877L311.129 399.018L321.926 403.015L320.127 407.873ZM333.615 412.866L322.818 408.869L324.616 404.011L335.413 408.008L333.615 412.866ZM347.102 417.859L336.305 413.862L338.104 409.004L348.901 413L347.102 417.859ZM360.589 422.852L349.792 418.855L351.591 413.996L362.388 417.993L360.589 422.852ZM374.077 427.845L363.28 423.848L365.078 418.989L375.875 422.986L374.077 427.845ZM387.564 432.838L376.767 428.841L378.566 423.982L389.363 427.979L387.564 432.838ZM401.051 437.83L390.254 433.834L392.053 428.975L402.85 432.972L401.051 437.83ZM414.539 442.823L403.742 438.826L405.54 433.968L416.337 437.965L414.539 442.823ZM428.026 447.816L417.229 443.819L419.028 438.961L429.825 442.957L428.026 447.816ZM441.513 452.809L430.716 448.812L432.515 443.953L443.312 447.95L441.513 452.809ZM455.001 457.802L444.204 453.805L446.002 448.946L456.799 452.943L455.001 457.802ZM468.488 462.795L457.691 458.798L459.49 453.939L470.287 457.936L468.488 462.795ZM481.975 467.787L471.178 463.791L472.977 458.932L483.774 462.929L481.975 467.787ZM495.463 472.78L484.666 468.783L486.464 463.925L497.261 467.922L495.463 472.78Z" fill="black"/>
<path d="M356.643 163.507L353.973 162.519L385.406 113.736L366.637 106.788L368.064 104.471L408.354 119.386L406.927 121.703L388.075 114.724L356.643 163.507ZM415.501 185.296L412.999 184.369L429.723 158.407C430.613 157.029 431.16 156.062 431.366 155.506C432.334 152.892 432.154 150.644 430.828 148.762C429.577 146.845 427.506 145.351 424.614 144.28C422.056 143.333 419.165 143.116 415.939 143.63C412.714 144.143 409.661 145.131 406.78 146.594L388.307 175.229L385.805 174.303L418.664 123.203L421.166 124.129L408.383 144.057C415.2 141.016 421.055 140.402 425.949 142.213C429.396 143.49 431.879 145.325 433.395 147.72C434.911 150.115 435.072 152.926 433.878 156.151C433.466 157.263 432.867 158.369 432.081 159.469L415.501 185.296ZM459.282 147.819C458.671 147.592 458.214 147.202 457.914 146.648C457.633 146.039 457.607 145.428 457.833 144.816C458.121 144.038 458.636 143.501 459.377 143.206C460.174 142.932 460.907 142.919 461.574 143.166C462.186 143.392 462.632 143.81 462.912 144.42C463.213 144.974 463.25 145.557 463.023 146.168C462.735 146.947 462.192 147.473 461.395 147.747C460.654 148.042 459.95 148.066 459.282 147.819ZM432.378 191.543L429.876 190.617L453.716 153.631L456.219 154.557L432.378 191.543ZM476.435 207.853L473.932 206.926L490.626 181.047C491.577 179.502 492.135 178.507 492.3 178.063C493.267 175.449 493.088 173.201 491.761 171.319C490.511 169.401 488.44 167.908 485.548 166.837C482.99 165.89 480.098 165.673 476.873 166.187C473.668 166.644 470.625 167.605 467.744 169.067L449.241 197.786L446.738 196.859L470.579 159.873L473.081 160.799L469.316 166.614C476.133 163.573 481.988 162.958 486.882 164.77C490.33 166.046 492.812 167.882 494.328 170.277C495.845 172.672 496.006 175.482 494.812 178.708C494.441 179.709 493.842 180.815 493.014 182.026L476.435 207.853Z" fill="black"/>
<rect x="244.333" y="217.036" width="106.476" height="22.2582" transform="rotate(20.3154 244.333 217.036)" fill="black"/>
<rect x="214.979" y="327.333" width="70.3612" height="22.2582" transform="rotate(20.3154 214.979 327.333)" fill="black"/>
<rect x="432.219" y="376.483" width="97.4637" height="22.2582" transform="rotate(20.3154 432.219 376.483)" fill="black"/>
<rect x="212.311" y="416.283" width="159.358" height="22.2582" transform="rotate(20.3154 212.311 416.283)" fill="black"/>
<rect x="111.799" y="465.205" width="239.241" height="22.2582" transform="rotate(20.3154 111.799 465.205)" fill="black"/>
<rect x="247.001" y="576.392" width="89.8768" height="22.2582" transform="rotate(20.3154 247.001 576.392)" fill="black"/>
<rect x="479.163" y="243.721" width="70.3612" height="22.2582" transform="rotate(20.3154 479.163 243.721)" fill="black"/>
</svg>
