<svg width="512" height="696" viewBox="0 0 512 696" fill="none" xmlns="http://www.w3.org/2000/svg">
<rect x="0.638723" y="32.1142" width="466.514" height="664.393" transform="rotate(-3.86865 0.638723 32.1142)" fill="#F5F0DD" stroke="black" stroke-width="1.19927"/>
<path d="M77.2202 181.597L65.7335 182.373L65.384 177.204L76.8707 176.427L77.2202 181.597ZM91.5693 180.626L80.0826 181.403L79.733 176.234L91.2197 175.457L91.5693 180.626ZM105.918 179.656L94.4316 180.433L94.0821 175.264L105.569 174.487L105.918 179.656ZM120.267 178.686L108.781 179.462L108.431 174.293L119.918 173.516L120.267 178.686ZM134.616 177.715L123.13 178.492L122.78 173.323L134.267 172.546L134.616 177.715ZM148.965 176.745L137.479 177.522L137.129 172.353L148.616 171.576L148.965 176.745ZM163.315 175.775L151.828 176.551L151.478 171.382L162.965 170.605L163.315 175.775ZM177.664 174.804L166.177 175.581L165.827 170.412L177.314 169.635L177.664 174.804ZM192.013 173.834L180.526 174.611L180.176 169.442L191.663 168.665L192.013 173.834ZM206.362 172.864L194.875 173.64L194.525 168.471L206.012 167.694L206.362 172.864ZM220.711 171.893L209.224 172.67L208.874 167.501L220.361 166.724L220.711 171.893ZM235.06 170.923L223.573 171.7L223.223 166.531L234.71 165.754L235.06 170.923ZM249.409 169.953L237.922 170.729L237.573 165.56L249.059 164.783L249.409 169.953ZM263.758 168.982L252.271 169.759L251.922 164.59L263.408 163.813L263.758 168.982ZM278.107 168.012L266.62 168.789L266.271 163.62L277.757 162.843L278.107 168.012ZM292.456 167.042L280.969 167.818L280.62 162.649L292.106 161.872L292.456 167.042ZM306.805 166.071L295.318 166.848L294.969 161.679L306.455 160.902L306.805 166.071ZM321.154 165.101L309.667 165.878L309.318 160.709L320.805 159.932L321.154 165.101ZM335.503 164.131L324.016 164.907L323.667 159.738L335.154 158.961L335.503 164.131ZM349.852 163.16L338.365 163.937L338.016 158.768L349.503 157.991L349.852 163.16ZM364.201 162.19L352.714 162.967L352.365 157.798L363.852 157.021L364.201 162.19ZM378.55 161.22L367.064 161.996L366.714 156.827L378.201 156.05L378.55 161.22ZM392.899 160.249L381.413 161.026L381.063 155.857L392.55 155.08L392.899 160.249ZM407.248 159.279L395.762 160.056L395.412 154.887L406.899 154.11L407.248 159.279ZM421.597 158.309L410.111 159.085L409.761 153.916L421.248 153.139L421.597 158.309Z" fill="black"/>
<path d="M100.039 519.019L88.5519 519.796L88.2023 514.627L99.6891 513.85L100.039 519.019ZM114.388 518.049L102.901 518.825L102.551 513.656L114.038 512.88L114.388 518.049ZM128.737 517.078L117.25 517.855L116.9 512.686L128.387 511.909L128.737 517.078ZM143.086 516.108L131.599 516.885L131.249 511.716L142.736 510.939L143.086 516.108ZM157.435 515.138L145.948 515.914L145.599 510.745L157.085 509.969L157.435 515.138ZM171.784 514.167L160.297 514.944L159.948 509.775L171.434 508.998L171.784 514.167ZM186.133 513.197L174.646 513.974L174.297 508.805L185.783 508.028L186.133 513.197ZM200.482 512.227L188.995 513.003L188.646 507.834L200.132 507.058L200.482 512.227ZM214.831 511.256L203.344 512.033L202.995 506.864L214.481 506.087L214.831 511.256ZM229.18 510.286L217.693 511.063L217.344 505.894L228.83 505.117L229.18 510.286ZM243.529 509.316L232.042 510.092L231.693 504.923L243.18 504.147L243.529 509.316ZM257.878 508.345L246.391 509.122L246.042 503.953L257.529 503.176L257.878 508.345ZM272.227 507.375L260.74 508.152L260.391 502.983L271.878 502.206L272.227 507.375ZM286.576 506.405L275.09 507.181L274.74 502.012L286.227 501.236L286.576 506.405ZM300.925 505.434L289.439 506.211L289.089 501.042L300.576 500.265L300.925 505.434ZM315.274 504.464L303.788 505.241L303.438 500.072L314.925 499.295L315.274 504.464ZM329.623 503.494L318.137 504.27L317.787 499.101L329.274 498.325L329.623 503.494ZM343.972 502.523L332.486 503.3L332.136 498.131L343.623 497.354L343.972 502.523ZM358.321 501.553L346.835 502.33L346.485 497.161L357.972 496.384L358.321 501.553ZM372.671 500.583L361.184 501.359L360.834 496.19L372.321 495.414L372.671 500.583ZM387.02 499.612L375.533 500.389L375.183 495.22L386.67 494.443L387.02 499.612ZM401.369 498.642L389.882 499.419L389.532 494.25L401.019 493.473L401.369 498.642ZM415.718 497.672L404.231 498.448L403.881 493.279L415.368 492.503L415.718 497.672ZM430.067 496.701L418.58 497.478L418.23 492.309L429.717 491.532L430.067 496.701ZM444.416 495.731L432.929 496.508L432.579 491.339L444.066 490.562L444.416 495.731Z" fill="black"/>
<path d="M101.98 547.736L90.4933 548.512L90.1437 543.343L101.63 542.567L101.98 547.736ZM116.329 546.765L104.842 547.542L104.493 542.373L115.98 541.596L116.329 546.765ZM130.678 545.795L119.191 546.572L118.842 541.403L130.329 540.626L130.678 545.795ZM145.027 544.825L133.54 545.601L133.191 540.432L144.678 539.656L145.027 544.825ZM159.376 543.854L147.889 544.631L147.54 539.462L159.027 538.685L159.376 543.854ZM173.725 542.884L162.239 543.661L161.889 538.492L173.376 537.715L173.725 542.884ZM188.074 541.914L176.588 542.69L176.238 537.521L187.725 536.745L188.074 541.914ZM202.423 540.943L190.937 541.72L190.587 536.551L202.074 535.774L202.423 540.943ZM216.772 539.973L205.286 540.75L204.936 535.581L216.423 534.804L216.772 539.973ZM231.121 539.003L219.635 539.779L219.285 534.61L230.772 533.834L231.121 539.003ZM245.47 538.032L233.984 538.809L233.634 533.64L245.121 532.863L245.47 538.032ZM259.82 537.062L248.333 537.839L247.983 532.67L259.47 531.893L259.82 537.062ZM274.169 536.092L262.682 536.868L262.332 531.699L273.819 530.923L274.169 536.092ZM288.518 535.121L277.031 535.898L276.681 530.729L288.168 529.952L288.518 535.121ZM302.867 534.151L291.38 534.928L291.03 529.759L302.517 528.982L302.867 534.151ZM317.216 533.181L305.729 533.957L305.379 528.788L316.866 528.012L317.216 533.181ZM331.565 532.21L320.078 532.987L319.729 527.818L331.215 527.041L331.565 532.21ZM345.914 531.24L334.427 532.017L334.078 526.848L345.564 526.071L345.914 531.24ZM360.263 530.27L348.776 531.046L348.427 525.877L359.913 525.101L360.263 530.27ZM374.612 529.299L363.125 530.076L362.776 524.907L374.262 524.13L374.612 529.299ZM388.961 528.329L377.474 529.106L377.125 523.937L388.611 523.16L388.961 528.329ZM403.31 527.359L391.823 528.135L391.474 522.966L402.96 522.19L403.31 527.359ZM417.659 526.388L406.172 527.165L405.823 521.996L417.31 521.219L417.659 526.388ZM432.008 525.418L420.521 526.195L420.172 521.026L431.659 520.249L432.008 525.418ZM446.357 524.448L434.87 525.224L434.521 520.055L446.008 519.279L446.357 524.448Z" fill="black"/>
<path d="M103.759 574.059L92.2726 574.836L91.923 569.667L103.41 568.89L103.759 574.059ZM118.108 573.089L106.622 573.866L106.272 568.697L117.759 567.92L118.108 573.089ZM132.457 572.119L120.971 572.896L120.621 567.726L132.108 566.95L132.457 572.119ZM146.806 571.148L135.32 571.925L134.97 566.756L146.457 565.979L146.806 571.148ZM161.155 570.178L149.669 570.955L149.319 565.786L160.806 565.009L161.155 570.178ZM175.505 569.208L164.018 569.985L163.668 564.815L175.155 564.039L175.505 569.208ZM189.854 568.237L178.367 569.014L178.017 563.845L189.504 563.068L189.854 568.237ZM204.203 567.267L192.716 568.044L192.366 562.875L203.853 562.098L204.203 567.267ZM218.552 566.297L207.065 567.074L206.715 561.904L218.202 561.128L218.552 566.297ZM232.901 565.326L221.414 566.103L221.064 560.934L232.551 560.157L232.901 565.326ZM247.25 564.356L235.763 565.133L235.414 559.964L246.9 559.187L247.25 564.356ZM261.599 563.386L250.112 564.163L249.763 558.993L261.249 558.217L261.599 563.386ZM275.948 562.415L264.461 563.192L264.112 558.023L275.598 557.246L275.948 562.415ZM290.297 561.445L278.81 562.222L278.461 557.053L289.947 556.276L290.297 561.445ZM304.646 560.475L293.159 561.252L292.81 556.082L304.296 555.306L304.646 560.475ZM318.995 559.504L307.508 560.281L307.159 555.112L318.645 554.335L318.995 559.504ZM333.344 558.534L321.857 559.311L321.508 554.142L332.995 553.365L333.344 558.534ZM347.693 557.564L336.206 558.341L335.857 553.171L347.344 552.395L347.693 557.564ZM362.042 556.593L350.555 557.37L350.206 552.201L361.693 551.424L362.042 556.593ZM376.391 555.623L364.905 556.4L364.555 551.231L376.042 550.454L376.391 555.623ZM390.74 554.653L379.254 555.43L378.904 550.26L390.391 549.484L390.74 554.653ZM405.089 553.682L393.603 554.459L393.253 549.29L404.74 548.513L405.089 553.682ZM419.438 552.712L407.952 553.489L407.602 548.32L419.089 547.543L419.438 552.712ZM433.787 551.742L422.301 552.519L421.951 547.349L433.438 546.573L433.787 551.742ZM448.136 550.771L436.65 551.548L436.3 546.379L447.787 545.602L448.136 550.771Z" fill="black"/>
<path d="M105.701 602.776L94.214 603.553L93.8644 598.384L105.351 597.607L105.701 602.776ZM120.05 601.806L108.563 602.583L108.213 597.414L119.7 596.637L120.05 601.806ZM134.399 600.836L122.912 601.612L122.563 596.443L134.049 595.667L134.399 600.836ZM148.748 599.865L137.261 600.642L136.912 595.473L148.398 594.696L148.748 599.865ZM163.097 598.895L151.61 599.672L151.261 594.503L162.747 593.726L163.097 598.895ZM177.446 597.925L165.959 598.701L165.61 593.532L177.096 592.756L177.446 597.925ZM191.795 596.954L180.308 597.731L179.959 592.562L191.445 591.785L191.795 596.954ZM206.144 595.984L194.657 596.761L194.308 591.592L205.794 590.815L206.144 595.984ZM220.493 595.014L209.006 595.79L208.657 590.621L220.144 589.845L220.493 595.014ZM234.842 594.043L223.355 594.82L223.006 589.651L234.493 588.874L234.842 594.043ZM249.191 593.073L237.704 593.85L237.355 588.681L248.842 587.904L249.191 593.073ZM263.54 592.103L252.054 592.879L251.704 587.71L263.191 586.934L263.54 592.103ZM277.889 591.132L266.403 591.909L266.053 586.74L277.54 585.963L277.889 591.132ZM292.238 590.162L280.752 590.939L280.402 585.77L291.889 584.993L292.238 590.162ZM306.587 589.192L295.101 589.968L294.751 584.799L306.238 584.023L306.587 589.192ZM320.936 588.221L309.45 588.998L309.1 583.829L320.587 583.052L320.936 588.221ZM335.285 587.251L323.799 588.028L323.449 582.859L334.936 582.082L335.285 587.251ZM349.635 586.281L338.148 587.057L337.798 581.888L349.285 581.112L349.635 586.281ZM363.984 585.31L352.497 586.087L352.147 580.918L363.634 580.141L363.984 585.31ZM378.333 584.34L366.846 585.117L366.496 579.948L377.983 579.171L378.333 584.34ZM392.682 583.37L381.195 584.146L380.845 578.977L392.332 578.201L392.682 583.37ZM407.031 582.399L395.544 583.176L395.194 578.007L406.681 577.23L407.031 582.399ZM421.38 581.429L409.893 582.206L409.543 577.037L421.03 576.26L421.38 581.429ZM435.729 580.459L424.242 581.235L423.893 576.066L435.379 575.29L435.729 580.459ZM450.078 579.488L438.591 580.265L438.242 575.096L449.728 574.319L450.078 579.488Z" fill="black"/>
<path d="M79.1616 210.313L67.6749 211.09L67.3254 205.921L78.8121 205.144L79.1616 210.313ZM93.5107 209.343L82.024 210.12L81.6744 204.951L93.1611 204.174L93.5107 209.343ZM107.86 208.373L96.373 209.149L96.0235 203.98L107.51 203.204L107.86 208.373ZM122.209 207.402L110.722 208.179L110.373 203.01L121.859 202.233L122.209 207.402ZM136.558 206.432L125.071 207.209L124.722 202.04L136.208 201.263L136.558 206.432ZM150.907 205.462L139.42 206.238L139.071 201.069L150.557 200.293L150.907 205.462ZM165.256 204.491L153.769 205.268L153.42 200.099L164.906 199.322L165.256 204.491ZM179.605 203.521L168.118 204.298L167.769 199.129L179.255 198.352L179.605 203.521ZM193.954 202.551L182.467 203.327L182.118 198.158L193.604 197.382L193.954 202.551ZM208.303 201.58L196.816 202.357L196.467 197.188L207.954 196.411L208.303 201.58ZM222.652 200.61L211.165 201.387L210.816 196.218L222.303 195.441L222.652 200.61ZM237.001 199.64L225.514 200.416L225.165 195.247L236.652 194.471L237.001 199.64ZM251.35 198.669L239.864 199.446L239.514 194.277L251.001 193.5L251.35 198.669ZM265.699 197.699L254.213 198.476L253.863 193.307L265.35 192.53L265.699 197.699ZM280.048 196.729L268.562 197.505L268.212 192.336L279.699 191.56L280.048 196.729ZM294.397 195.758L282.911 196.535L282.561 191.366L294.048 190.589L294.397 195.758ZM308.746 194.788L297.26 195.565L296.91 190.396L308.397 189.619L308.746 194.788ZM323.095 193.818L311.609 194.594L311.259 189.425L322.746 188.649L323.095 193.818ZM337.444 192.847L325.958 193.624L325.608 188.455L337.095 187.678L337.444 192.847ZM351.794 191.877L340.307 192.654L339.957 187.485L351.444 186.708L351.794 191.877ZM366.143 190.907L354.656 191.683L354.306 186.514L365.793 185.738L366.143 190.907ZM380.492 189.936L369.005 190.713L368.655 185.544L380.142 184.767L380.492 189.936ZM394.841 188.966L383.354 189.743L383.004 184.574L394.491 183.797L394.841 188.966ZM409.19 187.996L397.703 188.772L397.353 183.603L408.84 182.827L409.19 187.996ZM423.539 187.025L412.052 187.802L411.703 182.633L423.189 181.856L423.539 187.025Z" fill="black"/>
<path d="M81.105 239.03L69.6183 239.806L69.2687 234.637L80.7555 233.861L81.105 239.03ZM95.4541 238.059L83.9673 238.836L83.6178 233.667L95.1045 232.89L95.4541 238.059ZM109.803 237.089L98.3164 237.866L97.9668 232.697L109.454 231.92L109.803 237.089ZM124.152 236.119L112.665 236.895L112.316 231.726L123.803 230.95L124.152 236.119ZM138.501 235.148L127.014 235.925L126.665 230.756L138.152 229.979L138.501 235.148ZM152.85 234.178L141.364 234.955L141.014 229.786L152.501 229.009L152.85 234.178ZM167.199 233.208L155.713 233.984L155.363 228.815L166.85 228.039L167.199 233.208ZM181.548 232.237L170.062 233.014L169.712 227.845L181.199 227.068L181.548 232.237ZM195.897 231.267L184.411 232.044L184.061 226.875L195.548 226.098L195.897 231.267ZM210.246 230.297L198.76 231.073L198.41 225.904L209.897 225.128L210.246 230.297ZM224.595 229.326L213.109 230.103L212.759 224.934L224.246 224.157L224.595 229.326ZM238.945 228.356L227.458 229.133L227.108 223.964L238.595 223.187L238.945 228.356ZM253.294 227.386L241.807 228.162L241.457 222.993L252.944 222.217L253.294 227.386ZM267.643 226.415L256.156 227.192L255.806 222.023L267.293 221.246L267.643 226.415ZM281.992 225.445L270.505 226.222L270.155 221.053L281.642 220.276L281.992 225.445ZM296.341 224.475L284.854 225.251L284.504 220.082L295.991 219.306L296.341 224.475ZM310.69 223.504L299.203 224.281L298.854 219.112L310.34 218.335L310.69 223.504ZM325.039 222.534L313.552 223.311L313.203 218.142L324.689 217.365L325.039 222.534ZM339.388 221.564L327.901 222.34L327.552 217.171L339.038 216.395L339.388 221.564ZM353.737 220.593L342.25 221.37L341.901 216.201L353.387 215.424L353.737 220.593ZM368.086 219.623L356.599 220.4L356.25 215.231L367.736 214.454L368.086 219.623ZM382.435 218.653L370.948 219.429L370.599 214.26L382.085 213.484L382.435 218.653ZM396.784 217.682L385.297 218.459L384.948 213.29L396.435 212.513L396.784 217.682ZM411.133 216.712L399.646 217.489L399.297 212.32L410.784 211.543L411.133 216.712ZM425.482 215.742L413.995 216.518L413.646 211.349L425.133 210.573L425.482 215.742Z" fill="black"/>
<path d="M82.8843 265.354L71.3976 266.131L71.048 260.962L82.5348 260.185L82.8843 265.354ZM97.2334 264.384L85.7466 265.16L85.3971 259.991L96.8838 259.214L97.2334 264.384ZM111.582 263.413L100.096 264.19L99.7461 259.021L111.233 258.244L111.582 263.413ZM125.931 262.443L114.445 263.22L114.095 258.051L125.582 257.274L125.931 262.443ZM140.28 261.473L128.794 262.249L128.444 257.08L139.931 256.303L140.28 261.473ZM154.63 260.502L143.143 261.279L142.793 256.11L154.28 255.333L154.63 260.502ZM168.979 259.532L157.492 260.309L157.142 255.14L168.629 254.363L168.979 259.532ZM183.328 258.562L171.841 259.338L171.491 254.169L182.978 253.392L183.328 258.562ZM197.677 257.591L186.19 258.368L185.84 253.199L197.327 252.422L197.677 257.591ZM212.026 256.621L200.539 257.398L200.189 252.229L211.676 251.452L212.026 256.621ZM226.375 255.651L214.888 256.427L214.539 251.258L226.025 250.481L226.375 255.651ZM240.724 254.68L229.237 255.457L228.888 250.288L240.374 249.511L240.724 254.68ZM255.073 253.71L243.586 254.487L243.237 249.318L254.723 248.541L255.073 253.71ZM269.422 252.74L257.935 253.516L257.586 248.347L269.072 247.57L269.422 252.74ZM283.771 251.769L272.284 252.546L271.935 247.377L283.421 246.6L283.771 251.769ZM298.12 250.799L286.633 251.576L286.284 246.407L297.77 245.63L298.12 250.799ZM312.469 249.829L300.982 250.605L300.633 245.436L312.12 244.659L312.469 249.829ZM326.818 248.858L315.331 249.635L314.982 244.466L326.469 243.689L326.818 248.858ZM341.167 247.888L329.68 248.665L329.331 243.496L340.818 242.719L341.167 247.888ZM355.516 246.918L344.03 247.694L343.68 242.525L355.167 241.748L355.516 246.918ZM369.865 245.947L358.379 246.724L358.029 241.555L369.516 240.778L369.865 245.947ZM384.214 244.977L372.728 245.754L372.378 240.585L383.865 239.808L384.214 244.977ZM398.563 244.007L387.077 244.783L386.727 239.614L398.214 238.837L398.563 244.007ZM412.912 243.036L401.426 243.813L401.076 238.644L412.563 237.867L412.912 243.036ZM427.261 242.066L415.775 242.843L415.425 237.674L426.912 236.897L427.261 242.066Z" fill="black"/>
<path d="M92.4312 406.544L80.9445 407.321L80.5949 402.152L92.0816 401.375L92.4312 406.544ZM106.78 405.574L95.2935 406.351L94.944 401.182L106.431 400.405L106.78 405.574ZM121.129 404.604L109.643 405.38L109.293 400.211L120.78 399.435L121.129 404.604ZM135.478 403.633L123.992 404.41L123.642 399.241L135.129 398.464L135.478 403.633ZM149.827 402.663L138.341 403.44L137.991 398.271L149.478 397.494L149.827 402.663ZM164.176 401.693L152.69 402.469L152.34 397.3L163.827 396.524L164.176 401.693ZM178.525 400.722L167.039 401.499L166.689 396.33L178.176 395.553L178.525 400.722ZM192.875 399.752L181.388 400.529L181.038 395.36L192.525 394.583L192.875 399.752ZM207.224 398.782L195.737 399.558L195.387 394.389L206.874 393.613L207.224 398.782ZM221.573 397.811L210.086 398.588L209.736 393.419L221.223 392.642L221.573 397.811ZM235.922 396.841L224.435 397.618L224.085 392.449L235.572 391.672L235.922 396.841ZM250.271 395.871L238.784 396.647L238.434 391.478L249.921 390.702L250.271 395.871ZM264.62 394.9L253.133 395.677L252.783 390.508L264.27 389.731L264.62 394.9ZM278.969 393.93L267.482 394.707L267.133 389.538L278.619 388.761L278.969 393.93ZM293.318 392.96L281.831 393.736L281.482 388.567L292.968 387.791L293.318 392.96ZM307.667 391.989L296.18 392.766L295.831 387.597L307.317 386.82L307.667 391.989ZM322.016 391.019L310.529 391.796L310.18 386.627L321.666 385.85L322.016 391.019ZM336.365 390.049L324.878 390.825L324.529 385.656L336.015 384.88L336.365 390.049ZM350.714 389.078L339.227 389.855L338.878 384.686L350.364 383.909L350.714 389.078ZM365.063 388.108L353.576 388.885L353.227 383.716L364.714 382.939L365.063 388.108ZM379.412 387.138L367.925 387.914L367.576 382.745L379.063 381.969L379.412 387.138ZM393.761 386.167L382.274 386.944L381.925 381.775L393.412 380.998L393.761 386.167ZM408.11 385.197L396.624 385.974L396.274 380.805L407.761 380.028L408.11 385.197ZM422.459 384.227L410.973 385.003L410.623 379.834L422.11 379.058L422.459 384.227ZM436.808 383.256L425.322 384.033L424.972 378.864L436.459 378.087L436.808 383.256Z" fill="black"/>
<path d="M94.3726 435.262L82.8859 436.038L82.5363 430.869L94.023 430.093L94.3726 435.262ZM108.722 434.291L97.2349 435.068L96.8854 429.899L108.372 429.122L108.722 434.291ZM123.071 433.321L111.584 434.098L111.234 428.929L122.721 428.152L123.071 433.321ZM137.42 432.351L125.933 433.127L125.583 427.958L137.07 427.182L137.42 432.351ZM151.769 431.38L140.282 432.157L139.933 426.988L151.419 426.211L151.769 431.38ZM166.118 430.41L154.631 431.187L154.282 426.018L165.768 425.241L166.118 430.41ZM180.467 429.44L168.98 430.216L168.631 425.047L180.117 424.271L180.467 429.44ZM194.816 428.469L183.329 429.246L182.98 424.077L194.466 423.3L194.816 428.469ZM209.165 427.499L197.678 428.276L197.329 423.107L208.815 422.33L209.165 427.499ZM223.514 426.529L212.027 427.305L211.678 422.136L223.164 421.36L223.514 426.529ZM237.863 425.558L226.376 426.335L226.027 421.166L237.514 420.389L237.863 425.558ZM252.212 424.588L240.725 425.365L240.376 420.196L251.863 419.419L252.212 424.588ZM266.561 423.618L255.074 424.394L254.725 419.225L266.212 418.449L266.561 423.618ZM280.91 422.647L269.423 423.424L269.074 418.255L280.561 417.478L280.91 422.647ZM295.259 421.677L283.773 422.454L283.423 417.285L294.91 416.508L295.259 421.677ZM309.608 420.707L298.122 421.483L297.772 416.314L309.259 415.538L309.608 420.707ZM323.957 419.736L312.471 420.513L312.121 415.344L323.608 414.567L323.957 419.736ZM338.306 418.766L326.82 419.543L326.47 414.374L337.957 413.597L338.306 418.766ZM352.655 417.796L341.169 418.572L340.819 413.403L352.306 412.627L352.655 417.796ZM367.004 416.825L355.518 417.602L355.168 412.433L366.655 411.656L367.004 416.825ZM381.354 415.855L369.867 416.632L369.517 411.463L381.004 410.686L381.354 415.855ZM395.703 414.885L384.216 415.661L383.866 410.492L395.353 409.716L395.703 414.885ZM410.052 413.914L398.565 414.691L398.215 409.522L409.702 408.745L410.052 413.914ZM424.401 412.944L412.914 413.721L412.564 408.552L424.051 407.775L424.401 412.944ZM438.75 411.974L427.263 412.75L426.913 407.581L438.4 406.805L438.75 411.974Z" fill="black"/>
<path d="M96.3159 463.978L84.8292 464.755L84.4797 459.586L95.9664 458.809L96.3159 463.978ZM110.665 463.008L99.1783 463.785L98.8287 458.616L110.315 457.839L110.665 463.008ZM125.014 462.038L113.527 462.814L113.178 457.645L124.664 456.869L125.014 462.038ZM139.363 461.067L127.876 461.844L127.527 456.675L139.014 455.898L139.363 461.067ZM153.712 460.097L142.225 460.874L141.876 455.705L153.363 454.928L153.712 460.097ZM168.061 459.127L156.574 459.903L156.225 454.734L167.712 453.958L168.061 459.127ZM182.41 458.156L170.924 458.933L170.574 453.764L182.061 452.987L182.41 458.156ZM196.759 457.186L185.273 457.963L184.923 452.794L196.41 452.017L196.759 457.186ZM211.108 456.216L199.622 456.992L199.272 451.823L210.759 451.047L211.108 456.216ZM225.457 455.245L213.971 456.022L213.621 450.853L225.108 450.076L225.457 455.245ZM239.806 454.275L228.32 455.052L227.97 449.883L239.457 449.106L239.806 454.275ZM254.155 453.305L242.669 454.081L242.319 448.912L253.806 448.136L254.155 453.305ZM268.505 452.334L257.018 453.111L256.668 447.942L268.155 447.165L268.505 452.334ZM282.854 451.364L271.367 452.141L271.017 446.972L282.504 446.195L282.854 451.364ZM297.203 450.394L285.716 451.17L285.366 446.001L296.853 445.225L297.203 450.394ZM311.552 449.423L300.065 450.2L299.715 445.031L311.202 444.254L311.552 449.423ZM325.901 448.453L314.414 449.23L314.064 444.061L325.551 443.284L325.901 448.453ZM340.25 447.483L328.763 448.259L328.413 443.09L339.9 442.314L340.25 447.483ZM354.599 446.512L343.112 447.289L342.763 442.12L354.249 441.343L354.599 446.512ZM368.948 445.542L357.461 446.319L357.112 441.15L368.598 440.373L368.948 445.542ZM383.297 444.572L371.81 445.348L371.461 440.179L382.947 439.403L383.297 444.572ZM397.646 443.601L386.159 444.378L385.81 439.209L397.296 438.432L397.646 443.601ZM411.995 442.631L400.508 443.408L400.159 438.239L411.645 437.462L411.995 442.631ZM426.344 441.661L414.857 442.437L414.508 437.268L425.995 436.492L426.344 441.661ZM440.693 440.69L429.206 441.467L428.857 436.298L440.344 435.521L440.693 440.69Z" fill="black"/>
<path d="M98.0952 490.302L86.6085 491.079L86.259 485.91L97.7457 485.133L98.0952 490.302ZM112.444 489.332L100.958 490.109L100.608 484.939L112.095 484.163L112.444 489.332ZM126.793 488.361L115.307 489.138L114.957 483.969L126.444 483.192L126.793 488.361ZM141.142 487.391L129.656 488.168L129.306 482.999L140.793 482.222L141.142 487.391ZM155.491 486.421L144.005 487.198L143.655 482.028L155.142 481.252L155.491 486.421ZM169.84 485.45L158.354 486.227L158.004 481.058L169.491 480.281L169.84 485.45ZM184.19 484.48L172.703 485.257L172.353 480.088L183.84 479.311L184.19 484.48ZM198.539 483.51L187.052 484.287L186.702 479.117L198.189 478.341L198.539 483.51ZM212.888 482.539L201.401 483.316L201.051 478.147L212.538 477.37L212.888 482.539ZM227.237 481.569L215.75 482.346L215.4 477.177L226.887 476.4L227.237 481.569ZM241.586 480.599L230.099 481.376L229.749 476.206L241.236 475.43L241.586 480.599ZM255.935 479.628L244.448 480.405L244.098 475.236L255.585 474.459L255.935 479.628ZM270.284 478.658L258.797 479.435L258.448 474.266L269.934 473.489L270.284 478.658ZM284.633 477.688L273.146 478.465L272.797 473.295L284.283 472.519L284.633 477.688ZM298.982 476.717L287.495 477.494L287.146 472.325L298.632 471.548L298.982 476.717ZM313.331 475.747L301.844 476.524L301.495 471.355L312.981 470.578L313.331 475.747ZM327.68 474.777L316.193 475.554L315.844 470.385L327.33 469.608L327.68 474.777ZM342.029 473.806L330.542 474.583L330.193 469.414L341.68 468.637L342.029 473.806ZM356.378 472.836L344.891 473.613L344.542 468.444L356.029 467.667L356.378 472.836ZM370.727 471.866L359.24 472.643L358.891 467.474L370.378 466.697L370.727 471.866ZM385.076 470.895L373.589 471.672L373.24 466.503L384.727 465.726L385.076 470.895ZM399.425 469.925L387.939 470.702L387.589 465.533L399.076 464.756L399.425 469.925ZM413.774 468.955L402.288 469.732L401.938 464.563L413.425 463.786L413.774 468.955ZM428.123 467.984L416.637 468.761L416.287 463.592L427.774 462.815L428.123 467.984ZM442.472 467.014L430.986 467.791L430.636 462.622L442.123 461.845L442.472 467.014Z" fill="black"/>
<path d="M84.8257 294.07L73.339 294.847L72.9894 289.678L84.4762 288.901L84.8257 294.07ZM99.1748 293.1L87.688 293.877L87.3385 288.708L98.8252 287.931L99.1748 293.1ZM113.524 292.129L102.037 292.906L101.688 287.737L113.174 286.96L113.524 292.129ZM127.873 291.159L116.386 291.936L116.037 286.767L127.523 285.99L127.873 291.159ZM142.222 290.189L130.735 290.966L130.386 285.797L141.872 285.02L142.222 290.189ZM156.571 289.218L145.084 289.995L144.735 284.826L156.221 284.049L156.571 289.218ZM170.92 288.248L159.433 289.025L159.084 283.856L170.57 283.079L170.92 288.248ZM185.269 287.278L173.782 288.055L173.433 282.886L184.919 282.109L185.269 287.278ZM199.618 286.307L188.131 287.084L187.782 281.915L199.269 281.138L199.618 286.307ZM213.967 285.337L202.48 286.114L202.131 280.945L213.618 280.168L213.967 285.337ZM228.316 284.367L216.829 285.144L216.48 279.975L227.967 279.198L228.316 284.367ZM242.665 283.396L231.179 284.173L230.829 279.004L242.316 278.227L242.665 283.396ZM257.014 282.426L245.528 283.203L245.178 278.034L256.665 277.257L257.014 282.426ZM271.363 281.456L259.877 282.233L259.527 277.064L271.014 276.287L271.363 281.456ZM285.712 280.485L274.226 281.262L273.876 276.093L285.363 275.316L285.712 280.485ZM300.061 279.515L288.575 280.292L288.225 275.123L299.712 274.346L300.061 279.515ZM314.41 278.545L302.924 279.322L302.574 274.153L314.061 273.376L314.41 278.545ZM328.76 277.574L317.273 278.351L316.923 273.182L328.41 272.405L328.76 277.574ZM343.109 276.604L331.622 277.381L331.272 272.212L342.759 271.435L343.109 276.604ZM357.458 275.634L345.971 276.411L345.621 271.242L357.108 270.465L357.458 275.634ZM371.807 274.663L360.32 275.44L359.97 270.271L371.457 269.494L371.807 274.663ZM386.156 273.693L374.669 274.47L374.319 269.301L385.806 268.524L386.156 273.693ZM400.505 272.723L389.018 273.5L388.668 268.331L400.155 267.554L400.505 272.723ZM414.854 271.752L403.367 272.529L403.018 267.36L414.504 266.583L414.854 271.752ZM429.203 270.782L417.716 271.559L417.367 266.39L428.853 265.613L429.203 270.782Z" fill="black"/>
<path d="M86.7671 322.787L75.2804 323.564L74.9308 318.395L86.4176 317.618L86.7671 322.787ZM101.116 321.817L89.6294 322.594L89.2799 317.425L100.767 316.648L101.116 321.817ZM115.465 320.847L103.978 321.624L103.629 316.455L115.116 315.678L115.465 320.847ZM129.814 319.876L118.328 320.653L117.978 315.484L129.465 314.707L129.814 319.876ZM144.163 318.906L132.677 319.683L132.327 314.514L143.814 313.737L144.163 318.906ZM158.512 317.936L147.026 318.713L146.676 313.544L158.163 312.767L158.512 317.936ZM172.861 316.965L161.375 317.742L161.025 312.573L172.512 311.796L172.861 316.965ZM187.21 315.995L175.724 316.772L175.374 311.603L186.861 310.826L187.21 315.995ZM201.559 315.025L190.073 315.802L189.723 310.633L201.21 309.856L201.559 315.025ZM215.909 314.054L204.422 314.831L204.072 309.662L215.559 308.885L215.909 314.054ZM230.258 313.084L218.771 313.861L218.421 308.692L229.908 307.915L230.258 313.084ZM244.607 312.114L233.12 312.891L232.77 307.722L244.257 306.945L244.607 312.114ZM258.956 311.143L247.469 311.92L247.119 306.751L258.606 305.974L258.956 311.143ZM273.305 310.173L261.818 310.95L261.468 305.781L272.955 305.004L273.305 310.173ZM287.654 309.203L276.167 309.98L275.818 304.811L287.304 304.034L287.654 309.203ZM302.003 308.232L290.516 309.009L290.167 303.84L301.653 303.063L302.003 308.232ZM316.352 307.262L304.865 308.039L304.516 302.87L316.002 302.093L316.352 307.262ZM330.701 306.292L319.214 307.069L318.865 301.9L330.351 301.123L330.701 306.292ZM345.05 305.321L333.563 306.098L333.214 300.929L344.7 300.152L345.05 305.321ZM359.399 304.351L347.912 305.128L347.563 299.959L359.049 299.182L359.399 304.351ZM373.748 303.381L362.261 304.158L361.912 298.989L373.399 298.212L373.748 303.381ZM388.097 302.41L376.61 303.187L376.261 298.018L387.748 297.241L388.097 302.41ZM402.446 301.44L390.959 302.217L390.61 297.048L402.097 296.271L402.446 301.44ZM416.795 300.47L405.309 301.247L404.959 296.078L416.446 295.301L416.795 300.47ZM431.144 299.499L419.658 300.276L419.308 295.107L430.795 294.33L431.144 299.499Z" fill="black"/>
<path d="M88.7105 351.504L77.2238 352.281L76.8742 347.111L88.3609 346.335L88.7105 351.504ZM103.06 350.533L91.5728 351.31L91.2233 346.141L102.71 345.364L103.06 350.533ZM117.409 349.563L105.922 350.34L105.572 345.171L117.059 344.394L117.409 349.563ZM131.758 348.593L120.271 349.37L119.921 344.2L131.408 343.424L131.758 348.593ZM146.107 347.622L134.62 348.399L134.27 343.23L145.757 342.453L146.107 347.622ZM160.456 346.652L148.969 347.429L148.619 342.26L160.106 341.483L160.456 346.652ZM174.805 345.682L163.318 346.459L162.968 341.289L174.455 340.513L174.805 345.682ZM189.154 344.711L177.667 345.488L177.318 340.319L188.804 339.542L189.154 344.711ZM203.503 343.741L192.016 344.518L191.667 339.349L203.153 338.572L203.503 343.741ZM217.852 342.771L206.365 343.548L206.016 338.378L217.502 337.602L217.852 342.771ZM232.201 341.8L220.714 342.577L220.365 337.408L231.851 336.631L232.201 341.8ZM246.55 340.83L235.063 341.607L234.714 336.438L246.2 335.661L246.55 340.83ZM260.899 339.86L249.412 340.637L249.063 335.467L260.549 334.691L260.899 339.86ZM275.248 338.889L263.761 339.666L263.412 334.497L274.899 333.72L275.248 338.889ZM289.597 337.919L278.11 338.696L277.761 333.527L289.248 332.75L289.597 337.919ZM303.946 336.949L292.459 337.726L292.11 332.556L303.597 331.78L303.946 336.949ZM318.295 335.978L306.809 336.755L306.459 331.586L317.946 330.809L318.295 335.978ZM332.644 335.008L321.158 335.785L320.808 330.616L332.295 329.839L332.644 335.008ZM346.993 334.038L335.507 334.815L335.157 329.645L346.644 328.869L346.993 334.038ZM361.342 333.067L349.856 333.844L349.506 328.675L360.993 327.898L361.342 333.067ZM375.691 332.097L364.205 332.874L363.855 327.705L375.342 326.928L375.691 332.097ZM390.04 331.127L378.554 331.904L378.204 326.734L389.691 325.958L390.04 331.127ZM404.39 330.156L392.903 330.933L392.553 325.764L404.04 324.987L404.39 330.156ZM418.739 329.186L407.252 329.963L406.902 324.794L418.389 324.017L418.739 329.186ZM433.088 328.216L421.601 328.993L421.251 323.823L432.738 323.047L433.088 328.216Z" fill="black"/>
<path d="M90.4898 377.828L79.0031 378.605L78.6535 373.436L90.1402 372.659L90.4898 377.828ZM104.839 376.858L93.3521 377.634L93.0026 372.465L104.489 371.689L104.839 376.858ZM119.188 375.887L107.701 376.664L107.352 371.495L118.838 370.718L119.188 375.887ZM133.537 374.917L122.05 375.694L121.701 370.525L133.187 369.748L133.537 374.917ZM147.886 373.947L136.399 374.723L136.05 369.554L147.536 368.778L147.886 373.947ZM162.235 372.976L150.748 373.753L150.399 368.584L161.885 367.807L162.235 372.976ZM176.584 372.006L165.097 372.783L164.748 367.614L176.235 366.837L176.584 372.006ZM190.933 371.036L179.446 371.812L179.097 366.643L190.584 365.867L190.933 371.036ZM205.282 370.065L193.795 370.842L193.446 365.673L204.933 364.896L205.282 370.065ZM219.631 369.095L208.144 369.872L207.795 364.703L219.282 363.926L219.631 369.095ZM233.98 368.125L222.494 368.901L222.144 363.732L233.631 362.956L233.98 368.125ZM248.329 367.154L236.843 367.931L236.493 362.762L247.98 361.985L248.329 367.154ZM262.678 366.184L251.192 366.961L250.842 361.792L262.329 361.015L262.678 366.184ZM277.027 365.214L265.541 365.99L265.191 360.821L276.678 360.045L277.027 365.214ZM291.376 364.243L279.89 365.02L279.54 359.851L291.027 359.074L291.376 364.243ZM305.725 363.273L294.239 364.05L293.889 358.881L305.376 358.104L305.725 363.273ZM320.075 362.303L308.588 363.079L308.238 357.91L319.725 357.134L320.075 362.303ZM334.424 361.332L322.937 362.109L322.587 356.94L334.074 356.163L334.424 361.332ZM348.773 360.362L337.286 361.139L336.936 355.97L348.423 355.193L348.773 360.362ZM363.122 359.392L351.635 360.168L351.285 354.999L362.772 354.223L363.122 359.392ZM377.471 358.421L365.984 359.198L365.634 354.029L377.121 353.252L377.471 358.421ZM391.82 357.451L380.333 358.228L379.984 353.059L391.47 352.282L391.82 357.451ZM406.169 356.481L394.682 357.257L394.333 352.088L405.819 351.312L406.169 356.481ZM420.518 355.51L409.031 356.287L408.682 351.118L420.168 350.341L420.518 355.51ZM434.867 354.54L423.38 355.317L423.031 350.148L434.517 349.371L434.867 354.54Z" fill="black"/>
<path d="M184.148 125.582L150.425 127.863L159.467 67.7868L164.526 67.4447L156.147 122.84L184.812 120.902L184.148 125.582ZM206.317 74.2471C205.43 74.3071 204.641 74.0633 203.95 73.5157C203.314 72.9049 202.968 72.1853 202.912 71.357C202.836 70.2329 203.188 69.2878 203.969 68.5218C204.745 67.6967 205.636 67.2501 206.642 67.1821C207.529 67.1221 208.289 67.3679 208.92 67.9195C209.611 68.4672 209.987 69.1847 210.047 70.0722C210.123 71.1963 209.773 72.1709 208.996 72.9961C208.216 73.7621 207.323 74.1791 206.317 74.2471ZM200.708 124.463L196.094 124.775L202.691 81.2679L207.306 80.9558L200.708 124.463ZM232.668 139.775C228.408 140.063 224.734 139.777 221.644 138.916C218.614 138.051 215.971 136.328 213.717 133.746L216.778 130.241C219.914 134.427 225.091 136.276 232.309 135.788C240.474 135.236 245.28 130.275 246.726 120.905L247.625 114.425C244.06 119.718 239.172 122.575 232.96 122.995C228.167 123.319 224.161 122.074 220.939 119.261C217.714 116.388 215.905 112.053 215.513 106.255C215.025 99.037 216.642 92.6275 220.364 87.0267C224.145 81.4218 229.349 78.3953 235.976 77.9472C238.993 77.7432 241.976 78.3438 244.924 79.7492C247.927 81.0915 250.309 82.9214 252.071 85.2392L253.265 77.8479L257.968 77.5298L251.341 120.593C249.601 132.657 243.377 139.051 232.668 139.775ZM234.37 118.798C236.973 118.622 239.526 117.707 242.029 116.052C244.592 114.393 246.687 112.408 248.313 110.099L251.613 89.0145C250.151 86.736 248.011 84.9787 245.194 83.7428C242.431 82.4438 239.512 81.8983 236.435 82.1063C231.288 82.4544 227.21 84.9887 224.201 89.7092C221.251 94.4258 219.968 99.6239 220.352 105.304C220.652 109.741 222.073 113.181 224.616 115.625C227.154 118.009 230.406 119.067 234.37 118.798ZM299.233 117.8L294.618 118.112L299.04 88.5711C299.287 86.9496 299.394 85.9023 299.362 85.4289C299.19 82.8849 298.175 81.0516 296.316 79.9292C294.516 78.8028 292.166 78.3376 289.267 78.5336C284.475 78.8577 279.794 81.7003 275.223 87.0613L270.302 119.756L265.687 120.069L274.73 59.9923L279.345 59.6802L275.917 82.8242C280.724 77.4471 285.702 74.5846 290.849 74.2365C294.635 73.9804 297.715 74.6934 300.087 76.3755C302.515 77.9944 303.842 80.49 304.07 83.8624C304.146 84.9865 304.051 86.2114 303.784 87.537L299.233 117.8ZM324.69 117.148C319.01 117.532 316.008 115.328 315.684 110.536C315.64 109.885 315.677 109.11 315.795 108.211L320.487 77.4031L313.387 77.8832L313.999 73.7409L321.098 73.2608L322.88 61.3722L327.583 61.0541L325.802 72.9427L334.499 72.3546L333.799 76.5029L325.102 77.0911L320.545 107.265C320.467 107.865 320.449 108.49 320.493 109.141C320.677 111.863 322.219 113.125 325.118 112.929C326.715 112.821 328.188 112.187 329.536 111.026L330.676 114.693C328.993 116.174 326.998 116.992 324.69 117.148Z" fill="black"/>
<rect x="77.3867" y="309.609" width="106.476" height="22.2582" transform="rotate(-3.86711 77.3867 309.609)" fill="black"/>
<rect x="105.85" y="222.672" width="70.3611" height="22.2582" transform="rotate(-3.86711 105.85 222.672)" fill="black"/>
<rect x="274.854" y="268.084" width="97.4637" height="22.2582" transform="rotate(-3.86711 274.854 268.084)" fill="black"/>
<rect x="79.0059" y="395.61" width="159.358" height="22.2582" transform="rotate(-3.86711 79.0059 395.61)" fill="black"/>
<rect x="136.982" y="477.782" width="239.241" height="22.2582" transform="rotate(-3.86711 136.982 477.782)" fill="black"/>
<rect x="298.219" y="573.394" width="127.943" height="22.2582" transform="rotate(-3.86711 298.219 573.394)" fill="black"/>
<rect x="231.887" y="157.076" width="70.3611" height="22.2582" transform="rotate(-3.86711 231.887 157.076)" fill="black"/>
</svg>
