<svg width="552" height="722" viewBox="0 0 552 722" fill="none" xmlns="http://www.w3.org/2000/svg">
<rect x="0.673369" y="62.1024" width="466.514" height="664.393" transform="rotate(-7.56649 0.673369 62.1024)" fill="#F5F0DD" stroke="black" stroke-width="1.19927"/>
<path d="M86.7346 206.335L75.3219 207.851L74.6397 202.715L86.0524 201.199L86.7346 206.335ZM100.991 204.441L89.5785 205.957L88.8963 200.821L100.309 199.305L100.991 204.441ZM115.248 202.547L103.835 204.063L103.153 198.928L114.566 197.412L115.248 202.547ZM129.504 200.654L118.092 202.17L117.409 197.034L128.822 195.518L129.504 200.654ZM143.761 198.76L132.348 200.276L131.666 195.14L143.079 193.624L143.761 198.76ZM158.018 196.866L146.605 198.382L145.923 193.246L157.335 191.73L158.018 196.866ZM172.274 194.972L160.861 196.488L160.179 191.353L171.592 189.837L172.274 194.972ZM186.531 193.079L175.118 194.595L174.436 189.459L185.849 187.943L186.531 193.079ZM200.787 191.185L189.375 192.701L188.692 187.565L200.105 186.049L200.787 191.185ZM215.044 189.291L203.631 190.807L202.949 185.671L214.362 184.155L215.044 189.291ZM229.301 187.397L217.888 188.913L217.206 183.778L228.618 182.262L229.301 187.397ZM243.557 185.504L232.144 187.02L231.462 181.884L242.875 180.368L243.557 185.504ZM257.814 183.61L246.401 185.126L245.719 179.99L257.132 178.474L257.814 183.61ZM272.07 181.716L260.658 183.232L259.975 178.096L271.388 176.58L272.07 181.716ZM286.327 179.822L274.914 181.338L274.232 176.203L285.645 174.687L286.327 179.822ZM300.584 177.929L289.171 179.445L288.489 174.309L299.901 172.793L300.584 177.929ZM314.84 176.035L303.427 177.551L302.745 172.415L314.158 170.899L314.84 176.035ZM329.097 174.141L317.684 175.657L317.002 170.521L328.414 169.005L329.097 174.141ZM343.353 172.247L331.941 173.763L331.258 168.628L342.671 167.112L343.353 172.247ZM357.61 170.354L346.197 171.87L345.515 166.734L356.928 165.218L357.61 170.354ZM371.866 168.46L360.454 169.976L359.772 164.84L371.184 163.324L371.866 168.46ZM386.123 166.566L374.71 168.082L374.028 162.946L385.441 161.43L386.123 166.566ZM400.38 164.672L388.967 166.188L388.285 161.053L399.697 159.537L400.38 164.672ZM414.636 162.779L403.224 164.295L402.541 159.159L413.954 157.643L414.636 162.779ZM428.893 160.885L417.48 162.401L416.798 157.265L428.211 155.749L428.893 160.885Z" fill="black"/>
<path d="M131.268 541.583L119.855 543.099L119.173 537.963L130.586 536.447L131.268 541.583ZM145.524 539.689L134.112 541.205L133.43 536.069L144.842 534.553L145.524 539.689ZM159.781 537.795L148.368 539.311L147.686 534.176L159.099 532.66L159.781 537.795ZM174.038 535.902L162.625 537.418L161.943 532.282L173.355 530.766L174.038 535.902ZM188.294 534.008L176.881 535.524L176.199 530.388L187.612 528.872L188.294 534.008ZM202.551 532.114L191.138 533.63L190.456 528.494L201.869 526.978L202.551 532.114ZM216.807 530.22L205.395 531.736L204.712 526.601L216.125 525.085L216.807 530.22ZM231.064 528.327L219.651 529.843L218.969 524.707L230.382 523.191L231.064 528.327ZM245.321 526.433L233.908 527.949L233.226 522.813L244.638 521.297L245.321 526.433ZM259.577 524.539L248.164 526.055L247.482 520.919L258.895 519.403L259.577 524.539ZM273.834 522.645L262.421 524.161L261.739 519.026L273.152 517.51L273.834 522.645ZM288.09 520.752L276.678 522.268L275.995 517.132L287.408 515.616L288.09 520.752ZM302.347 518.858L290.934 520.374L290.252 515.238L301.665 513.722L302.347 518.858ZM316.604 516.964L305.191 518.48L304.509 513.344L315.921 511.828L316.604 516.964ZM330.86 515.07L319.447 516.586L318.765 511.451L330.178 509.935L330.86 515.07ZM345.117 513.177L333.704 514.693L333.022 509.557L344.435 508.041L345.117 513.177ZM359.373 511.283L347.961 512.799L347.278 507.663L358.691 506.147L359.373 511.283ZM373.63 509.389L362.217 510.905L361.535 505.769L372.948 504.253L373.63 509.389ZM387.886 507.495L376.474 509.011L375.792 503.876L387.204 502.36L387.886 507.495ZM402.143 505.602L390.73 507.118L390.048 501.982L401.461 500.466L402.143 505.602ZM416.4 503.708L404.987 505.224L404.305 500.088L415.717 498.572L416.4 503.708ZM430.656 501.814L419.244 503.33L418.561 498.194L429.974 496.678L430.656 501.814ZM444.913 499.92L433.5 501.436L432.818 496.301L444.231 494.785L444.913 499.92ZM459.169 498.027L447.757 499.543L447.075 494.407L458.487 492.891L459.169 498.027ZM473.426 496.133L462.013 497.649L461.331 492.513L472.744 490.997L473.426 496.133Z" fill="black"/>
<path d="M135.057 570.115L123.644 571.631L122.962 566.495L134.375 564.979L135.057 570.115ZM149.313 568.221L137.901 569.737L137.219 564.601L148.631 563.085L149.313 568.221ZM163.57 566.327L152.157 567.843L151.475 562.707L162.888 561.191L163.57 566.327ZM177.827 564.433L166.414 565.949L165.732 560.814L177.144 559.298L177.827 564.433ZM192.083 562.54L180.671 564.056L179.988 558.92L191.401 557.404L192.083 562.54ZM206.34 560.646L194.927 562.162L194.245 557.026L205.658 555.51L206.34 560.646ZM220.596 558.752L209.184 560.268L208.502 555.132L219.914 553.616L220.596 558.752ZM234.853 556.858L223.44 558.374L222.758 553.239L234.171 551.723L234.853 556.858ZM249.11 554.965L237.697 556.481L237.015 551.345L248.427 549.829L249.11 554.965ZM263.366 553.071L251.953 554.587L251.271 549.451L262.684 547.935L263.366 553.071ZM277.623 551.177L266.21 552.693L265.528 547.557L276.941 546.041L277.623 551.177ZM291.879 549.283L280.467 550.799L279.784 545.664L291.197 544.148L291.879 549.283ZM306.136 547.39L294.723 548.906L294.041 543.77L305.454 542.254L306.136 547.39ZM320.393 545.496L308.98 547.012L308.298 541.876L319.71 540.36L320.393 545.496ZM334.649 543.602L323.236 545.118L322.554 539.982L333.967 538.466L334.649 543.602ZM348.906 541.708L337.493 543.224L336.811 538.089L348.224 536.573L348.906 541.708ZM363.162 539.815L351.75 541.331L351.067 536.195L362.48 534.679L363.162 539.815ZM377.419 537.921L366.006 539.437L365.324 534.301L376.737 532.785L377.419 537.921ZM391.676 536.027L380.263 537.543L379.581 532.407L390.993 530.891L391.676 536.027ZM405.932 534.133L394.519 535.649L393.837 530.514L405.25 528.998L405.932 534.133ZM420.189 532.24L408.776 533.756L408.094 528.62L419.507 527.104L420.189 532.24ZM434.445 530.346L423.033 531.862L422.35 526.726L433.763 525.21L434.445 530.346ZM448.702 528.452L437.289 529.968L436.607 524.832L448.02 523.316L448.702 528.452ZM462.959 526.558L451.546 528.074L450.864 522.939L462.276 521.423L462.959 526.558ZM477.215 524.665L465.802 526.181L465.12 521.045L476.533 519.529L477.215 524.665Z" fill="black"/>
<path d="M138.531 596.269L127.119 597.785L126.437 592.649L137.849 591.133L138.531 596.269ZM152.788 594.375L141.375 595.891L140.693 590.755L152.106 589.239L152.788 594.375ZM167.045 592.481L155.632 593.997L154.95 588.862L166.362 587.346L167.045 592.481ZM181.301 590.588L169.889 592.104L169.206 586.968L180.619 585.452L181.301 590.588ZM195.558 588.694L184.145 590.21L183.463 585.074L194.876 583.558L195.558 588.694ZM209.814 586.8L198.402 588.316L197.72 583.18L209.132 581.664L209.814 586.8ZM224.071 584.906L212.658 586.422L211.976 581.287L223.389 579.771L224.071 584.906ZM238.328 583.013L226.915 584.529L226.233 579.393L237.645 577.877L238.328 583.013ZM252.584 581.119L241.172 582.635L240.489 577.499L251.902 575.983L252.584 581.119ZM266.841 579.225L255.428 580.741L254.746 575.605L266.159 574.089L266.841 579.225ZM281.097 577.331L269.685 578.847L269.003 573.712L280.415 572.196L281.097 577.331ZM295.354 575.438L283.941 576.954L283.259 571.818L294.672 570.302L295.354 575.438ZM309.611 573.544L298.198 575.06L297.516 569.924L308.928 568.408L309.611 573.544ZM323.867 571.65L312.454 573.166L311.772 568.03L323.185 566.514L323.867 571.65ZM338.124 569.756L326.711 571.272L326.029 566.137L337.442 564.621L338.124 569.756ZM352.38 567.863L340.968 569.379L340.285 564.243L351.698 562.727L352.38 567.863ZM366.637 565.969L355.224 567.485L354.542 562.349L365.955 560.833L366.637 565.969ZM380.894 564.075L369.481 565.591L368.799 560.455L380.211 558.939L380.894 564.075ZM395.15 562.181L383.737 563.697L383.055 558.562L394.468 557.046L395.15 562.181ZM409.407 560.288L397.994 561.804L397.312 556.668L408.725 555.152L409.407 560.288ZM423.663 558.394L412.251 559.91L411.568 554.774L422.981 553.258L423.663 558.394ZM437.92 556.5L426.507 558.016L425.825 552.88L437.238 551.364L437.92 556.5ZM452.177 554.606L440.764 556.122L440.082 550.987L451.494 549.471L452.177 554.606ZM466.433 552.713L455.02 554.229L454.338 549.093L465.751 547.577L466.433 552.713ZM480.69 550.819L469.277 552.335L468.595 547.199L480.008 545.683L480.69 550.819Z" fill="black"/>
<path d="M142.321 624.801L130.908 626.317L130.226 621.181L141.638 619.665L142.321 624.801ZM156.577 622.907L145.164 624.423L144.482 619.287L155.895 617.771L156.577 622.907ZM170.834 621.013L159.421 622.529L158.739 617.393L170.152 615.877L170.834 621.013ZM185.09 619.119L173.678 620.635L172.995 615.5L184.408 613.984L185.09 619.119ZM199.347 617.226L187.934 618.742L187.252 613.606L198.665 612.09L199.347 617.226ZM213.604 615.332L202.191 616.848L201.509 611.712L212.921 610.196L213.604 615.332ZM227.86 613.438L216.447 614.954L215.765 609.818L227.178 608.302L227.86 613.438ZM242.117 611.544L230.704 613.06L230.022 607.925L241.435 606.409L242.117 611.544ZM256.373 609.651L244.961 611.167L244.278 606.031L255.691 604.515L256.373 609.651ZM270.63 607.757L259.217 609.273L258.535 604.137L269.948 602.621L270.63 607.757ZM284.886 605.863L273.474 607.379L272.792 602.243L284.204 600.727L284.886 605.863ZM299.143 603.969L287.73 605.485L287.048 600.35L298.461 598.834L299.143 603.969ZM313.4 602.076L301.987 603.592L301.305 598.456L312.717 596.94L313.4 602.076ZM327.656 600.182L316.244 601.698L315.561 596.562L326.974 595.046L327.656 600.182ZM341.913 598.288L330.5 599.804L329.818 594.668L341.231 593.152L341.913 598.288ZM356.169 596.394L344.757 597.91L344.075 592.775L355.487 591.259L356.169 596.394ZM370.426 594.501L359.013 596.017L358.331 590.881L369.744 589.365L370.426 594.501ZM384.683 592.607L373.27 594.123L372.588 588.987L384 587.471L384.683 592.607ZM398.939 590.713L387.527 592.229L386.844 587.093L398.257 585.577L398.939 590.713ZM413.196 588.819L401.783 590.335L401.101 585.2L412.514 583.684L413.196 588.819ZM427.452 586.926L416.04 588.442L415.357 583.306L426.77 581.79L427.452 586.926ZM441.709 585.032L430.296 586.548L429.614 581.412L441.027 579.896L441.709 585.032ZM455.966 583.138L444.553 584.654L443.871 579.518L455.283 578.002L455.966 583.138ZM470.222 581.244L458.809 582.76L458.127 577.625L469.54 576.109L470.222 581.244ZM484.479 579.351L473.066 580.867L472.384 575.731L483.797 574.215L484.479 579.351Z" fill="black"/>
<path d="M90.5256 234.867L79.1129 236.383L78.4307 231.247L89.8434 229.731L90.5256 234.867ZM104.782 232.973L93.3695 234.489L92.6873 229.353L104.1 227.837L104.782 232.973ZM119.039 231.079L107.626 232.595L106.944 227.459L118.357 225.943L119.039 231.079ZM133.295 229.185L121.883 230.701L121.201 225.566L132.613 224.05L133.295 229.185ZM147.552 227.292L136.139 228.808L135.457 223.672L146.87 222.156L147.552 227.292ZM161.809 225.398L150.396 226.914L149.714 221.778L161.126 220.262L161.809 225.398ZM176.065 223.504L164.652 225.02L163.97 219.884L175.383 218.368L176.065 223.504ZM190.322 221.61L178.909 223.126L178.227 217.991L189.64 216.475L190.322 221.61ZM204.578 219.717L193.166 221.233L192.483 216.097L203.896 214.581L204.578 219.717ZM218.835 217.823L207.422 219.339L206.74 214.203L218.153 212.687L218.835 217.823ZM233.092 215.929L221.679 217.445L220.997 212.309L232.409 210.793L233.092 215.929ZM247.348 214.035L235.935 215.551L235.253 210.416L246.666 208.9L247.348 214.035ZM261.605 212.142L250.192 213.658L249.51 208.522L260.923 207.006L261.605 212.142ZM275.861 210.248L264.449 211.764L263.766 206.628L275.179 205.112L275.861 210.248ZM290.118 208.354L278.705 209.87L278.023 204.734L289.436 203.218L290.118 208.354ZM304.375 206.46L292.962 207.976L292.28 202.841L303.692 201.325L304.375 206.46ZM318.631 204.567L307.218 206.083L306.536 200.947L317.949 199.431L318.631 204.567ZM332.888 202.673L321.475 204.189L320.793 199.053L332.206 197.537L332.888 202.673ZM347.144 200.779L335.732 202.295L335.049 197.159L346.462 195.643L347.144 200.779ZM361.401 198.885L349.988 200.401L349.306 195.266L360.719 193.75L361.401 198.885ZM375.657 196.992L364.245 198.508L363.563 193.372L374.975 191.856L375.657 196.992ZM389.914 195.098L378.501 196.614L377.819 191.478L389.232 189.962L389.914 195.098ZM404.171 193.204L392.758 194.72L392.076 189.584L403.488 188.068L404.171 193.204ZM418.427 191.31L407.015 192.826L406.332 187.691L417.745 186.175L418.427 191.31ZM432.684 189.417L421.271 190.933L420.589 185.797L432.002 184.281L432.684 189.417Z" fill="black"/>
<path d="M94.3166 263.397L82.9039 264.913L82.2217 259.778L93.6344 258.262L94.3166 263.397ZM108.573 261.504L97.1605 263.02L96.4783 257.884L107.891 256.368L108.573 261.504ZM122.83 259.61L111.417 261.126L110.735 255.99L122.148 254.474L122.83 259.61ZM137.086 257.716L125.674 259.232L124.992 254.096L136.404 252.58L137.086 257.716ZM151.343 255.822L139.93 257.338L139.248 252.203L150.661 250.687L151.343 255.822ZM165.6 253.929L154.187 255.445L153.505 250.309L164.917 248.793L165.6 253.929ZM179.856 252.035L168.443 253.551L167.761 248.415L179.174 246.899L179.856 252.035ZM194.113 250.141L182.7 251.657L182.018 246.521L193.431 245.005L194.113 250.141ZM208.369 248.247L196.957 249.763L196.274 244.628L207.687 243.112L208.369 248.247ZM222.626 246.354L211.213 247.87L210.531 242.734L221.944 241.218L222.626 246.354ZM236.883 244.46L225.47 245.976L224.788 240.84L236.2 239.324L236.883 244.46ZM251.139 242.566L239.726 244.082L239.044 238.946L250.457 237.43L251.139 242.566ZM265.396 240.672L253.983 242.188L253.301 237.053L264.714 235.537L265.396 240.672ZM279.652 238.779L268.24 240.295L267.557 235.159L278.97 233.643L279.652 238.779ZM293.909 236.885L282.496 238.401L281.814 233.265L293.227 231.749L293.909 236.885ZM308.166 234.991L296.753 236.507L296.071 231.371L307.483 229.855L308.166 234.991ZM322.422 233.097L311.009 234.613L310.327 229.478L321.74 227.962L322.422 233.097ZM336.679 231.204L325.266 232.72L324.584 227.584L335.997 226.068L336.679 231.204ZM350.935 229.31L339.523 230.826L338.84 225.69L350.253 224.174L350.935 229.31ZM365.192 227.416L353.779 228.932L353.097 223.796L364.51 222.28L365.192 227.416ZM379.448 225.522L368.036 227.038L367.354 221.903L378.766 220.387L379.448 225.522ZM393.705 223.629L382.292 225.145L381.61 220.009L393.023 218.493L393.705 223.629ZM407.962 221.735L396.549 223.251L395.867 218.115L407.279 216.599L407.962 221.735ZM422.218 219.841L410.806 221.357L410.123 216.221L421.536 214.705L422.218 219.841ZM436.475 217.947L425.062 219.463L424.38 214.328L435.793 212.812L436.475 217.947Z" fill="black"/>
<path d="M97.7893 289.552L86.3766 291.068L85.6944 285.932L97.1071 284.416L97.7893 289.552ZM112.046 287.658L100.633 289.174L99.951 284.039L111.364 282.523L112.046 287.658ZM126.302 285.765L114.89 287.281L114.208 282.145L125.62 280.629L126.302 285.765ZM140.559 283.871L129.146 285.387L128.464 280.251L139.877 278.735L140.559 283.871ZM154.816 281.977L143.403 283.493L142.721 278.357L154.133 276.841L154.816 281.977ZM169.072 280.083L157.66 281.599L156.977 276.464L168.39 274.948L169.072 280.083ZM183.329 278.19L171.916 279.706L171.234 274.57L182.647 273.054L183.329 278.19ZM197.585 276.296L186.173 277.812L185.491 272.676L196.903 271.16L197.585 276.296ZM211.842 274.402L200.429 275.918L199.747 270.782L211.16 269.266L211.842 274.402ZM226.099 272.508L214.686 274.024L214.004 268.889L225.416 267.373L226.099 272.508ZM240.355 270.615L228.943 272.131L228.26 266.995L239.673 265.479L240.355 270.615ZM254.612 268.721L243.199 270.237L242.517 265.101L253.93 263.585L254.612 268.721ZM268.868 266.827L257.456 268.343L256.774 263.207L268.186 261.691L268.868 266.827ZM283.125 264.933L271.712 266.449L271.03 261.314L282.443 259.798L283.125 264.933ZM297.382 263.04L285.969 264.556L285.287 259.42L296.699 257.904L297.382 263.04ZM311.638 261.146L300.225 262.662L299.543 257.526L310.956 256.01L311.638 261.146ZM325.895 259.252L314.482 260.768L313.8 255.632L325.213 254.116L325.895 259.252ZM340.151 257.358L328.739 258.874L328.056 253.739L339.469 252.223L340.151 257.358ZM354.408 255.465L342.995 256.981L342.313 251.845L353.726 250.329L354.408 255.465ZM368.665 253.571L357.252 255.087L356.57 249.951L367.982 248.435L368.665 253.571ZM382.921 251.677L371.508 253.193L370.826 248.057L382.239 246.541L382.921 251.677ZM397.178 249.783L385.765 251.299L385.083 246.164L396.496 244.648L397.178 249.783ZM411.434 247.89L400.022 249.406L399.339 244.27L410.752 242.754L411.434 247.89ZM425.691 245.996L414.278 247.512L413.596 242.376L425.009 240.86L425.691 245.996ZM439.948 244.102L428.535 245.618L427.853 240.482L439.265 238.966L439.948 244.102Z" fill="black"/>
<path d="M116.424 429.833L105.011 431.349L104.329 426.213L115.742 424.697L116.424 429.833ZM130.681 427.939L119.268 429.455L118.586 424.319L129.998 422.803L130.681 427.939ZM144.937 426.045L133.525 427.561L132.842 422.426L144.255 420.91L144.937 426.045ZM159.194 424.152L147.781 425.668L147.099 420.532L158.512 419.016L159.194 424.152ZM173.45 422.258L162.038 423.774L161.356 418.638L172.768 417.122L173.45 422.258ZM187.707 420.364L176.294 421.88L175.612 416.744L187.025 415.228L187.707 420.364ZM201.964 418.47L190.551 419.986L189.869 414.851L201.281 413.335L201.964 418.47ZM216.22 416.577L204.808 418.093L204.125 412.957L215.538 411.441L216.22 416.577ZM230.477 414.683L219.064 416.199L218.382 411.063L229.795 409.547L230.477 414.683ZM244.733 412.789L233.321 414.305L232.638 409.169L244.051 407.653L244.733 412.789ZM258.99 410.895L247.577 412.411L246.895 407.276L258.308 405.76L258.99 410.895ZM273.247 409.002L261.834 410.518L261.152 405.382L272.564 403.866L273.247 409.002ZM287.503 407.108L276.09 408.624L275.408 403.488L286.821 401.972L287.503 407.108ZM301.76 405.214L290.347 406.73L289.665 401.594L301.078 400.078L301.76 405.214ZM316.016 403.32L304.604 404.836L303.921 399.701L315.334 398.185L316.016 403.32ZM330.273 401.427L318.86 402.943L318.178 397.807L329.591 396.291L330.273 401.427ZM344.53 399.533L333.117 401.049L332.435 395.913L343.847 394.397L344.53 399.533ZM358.786 397.639L347.373 399.155L346.691 394.019L358.104 392.503L358.786 397.639ZM373.043 395.745L361.63 397.261L360.948 392.126L372.361 390.61L373.043 395.745ZM387.299 393.852L375.887 395.368L375.204 390.232L386.617 388.716L387.299 393.852ZM401.556 391.958L390.143 393.474L389.461 388.338L400.874 386.822L401.556 391.958ZM415.813 390.064L404.4 391.58L403.718 386.444L415.13 384.928L415.813 390.064ZM430.069 388.17L418.656 389.686L417.974 384.551L429.387 383.035L430.069 388.17ZM444.326 386.277L432.913 387.793L432.231 382.657L443.644 381.141L444.326 386.277ZM458.582 384.383L447.17 385.899L446.487 380.763L457.9 379.247L458.582 384.383Z" fill="black"/>
<path d="M120.213 458.366L108.8 459.882L108.118 454.746L119.531 453.23L120.213 458.366ZM134.47 456.472L123.057 457.988L122.375 452.852L133.788 451.336L134.47 456.472ZM148.726 454.578L137.314 456.094L136.631 450.958L148.044 449.442L148.726 454.578ZM162.983 452.684L151.57 454.2L150.888 449.065L162.301 447.549L162.983 452.684ZM177.239 450.791L165.827 452.307L165.145 447.171L176.557 445.655L177.239 450.791ZM191.496 448.897L180.083 450.413L179.401 445.277L190.814 443.761L191.496 448.897ZM205.753 447.003L194.34 448.519L193.658 443.383L205.07 441.867L205.753 447.003ZM220.009 445.109L208.597 446.625L207.914 441.49L219.327 439.974L220.009 445.109ZM234.266 443.216L222.853 444.732L222.171 439.596L233.584 438.08L234.266 443.216ZM248.522 441.322L237.11 442.838L236.428 437.702L247.84 436.186L248.522 441.322ZM262.779 439.428L251.366 440.944L250.684 435.808L262.097 434.292L262.779 439.428ZM277.036 437.534L265.623 439.05L264.941 433.915L276.353 432.399L277.036 437.534ZM291.292 435.641L279.88 437.157L279.197 432.021L290.61 430.505L291.292 435.641ZM305.549 433.747L294.136 435.263L293.454 430.127L304.867 428.611L305.549 433.747ZM319.805 431.853L308.393 433.369L307.711 428.233L319.123 426.717L319.805 431.853ZM334.062 429.959L322.649 431.475L321.967 426.34L333.38 424.824L334.062 429.959ZM348.319 428.066L336.906 429.582L336.224 424.446L347.636 422.93L348.319 428.066ZM362.575 426.172L351.163 427.688L350.48 422.552L361.893 421.036L362.575 426.172ZM376.832 424.278L365.419 425.794L364.737 420.658L376.15 419.142L376.832 424.278ZM391.088 422.384L379.676 423.9L378.993 418.765L390.406 417.249L391.088 422.384ZM405.345 420.491L393.932 422.007L393.25 416.871L404.663 415.355L405.345 420.491ZM419.602 418.597L408.189 420.113L407.507 414.977L418.919 413.461L419.602 418.597ZM433.858 416.703L422.445 418.219L421.763 413.083L433.176 411.567L433.858 416.703ZM448.115 414.809L436.702 416.325L436.02 411.19L447.433 409.674L448.115 414.809ZM462.371 412.916L450.959 414.432L450.276 409.296L461.689 407.78L462.371 412.916Z" fill="black"/>
<path d="M124.002 486.897L112.589 488.413L111.907 483.278L123.32 481.762L124.002 486.897ZM138.259 485.004L126.846 486.52L126.164 481.384L137.577 479.868L138.259 485.004ZM152.515 483.11L141.103 484.626L140.42 479.49L151.833 477.974L152.515 483.11ZM166.772 481.216L155.359 482.732L154.677 477.596L166.09 476.08L166.772 481.216ZM181.029 479.322L169.616 480.838L168.934 475.703L180.346 474.187L181.029 479.322ZM195.285 477.429L183.872 478.945L183.19 473.809L194.603 472.293L195.285 477.429ZM209.542 475.535L198.129 477.051L197.447 471.915L208.86 470.399L209.542 475.535ZM223.798 473.641L212.386 475.157L211.703 470.021L223.116 468.505L223.798 473.641ZM238.055 471.747L226.642 473.263L225.96 468.128L237.373 466.612L238.055 471.747ZM252.312 469.854L240.899 471.37L240.217 466.234L251.629 464.718L252.312 469.854ZM266.568 467.96L255.155 469.476L254.473 464.34L265.886 462.824L266.568 467.96ZM280.825 466.066L269.412 467.582L268.73 462.446L280.143 460.93L280.825 466.066ZM295.081 464.172L283.669 465.688L282.986 460.553L294.399 459.037L295.081 464.172ZM309.338 462.279L297.925 463.795L297.243 458.659L308.656 457.143L309.338 462.279ZM323.594 460.385L312.182 461.901L311.5 456.765L322.912 455.249L323.594 460.385ZM337.851 458.491L326.438 460.007L325.756 454.871L337.169 453.355L337.851 458.491ZM352.108 456.597L340.695 458.113L340.013 452.978L351.425 451.462L352.108 456.597ZM366.364 454.704L354.952 456.22L354.269 451.084L365.682 449.568L366.364 454.704ZM380.621 452.81L369.208 454.326L368.526 449.19L379.939 447.674L380.621 452.81ZM394.877 450.916L383.465 452.432L382.783 447.296L394.195 445.78L394.877 450.916ZM409.134 449.022L397.721 450.538L397.039 445.403L408.452 443.887L409.134 449.022ZM423.391 447.129L411.978 448.645L411.296 443.509L422.708 441.993L423.391 447.129ZM437.647 445.235L426.235 446.751L425.552 441.615L436.965 440.099L437.647 445.235ZM451.904 443.341L440.491 444.857L439.809 439.721L451.222 438.205L451.904 443.341ZM466.16 441.447L454.748 442.963L454.066 437.828L465.478 436.312L466.16 441.447Z" fill="black"/>
<path d="M127.477 513.051L116.064 514.567L115.382 509.431L126.795 507.915L127.477 513.051ZM141.733 511.157L130.321 512.673L129.638 507.538L141.051 506.022L141.733 511.157ZM155.99 509.264L144.577 510.78L143.895 505.644L155.308 504.128L155.99 509.264ZM170.247 507.37L158.834 508.886L158.152 503.75L169.564 502.234L170.247 507.37ZM184.503 505.476L173.09 506.992L172.408 501.856L183.821 500.34L184.503 505.476ZM198.76 503.582L187.347 505.098L186.665 499.963L198.078 498.447L198.76 503.582ZM213.016 501.689L201.604 503.205L200.921 498.069L212.334 496.553L213.016 501.689ZM227.273 499.795L215.86 501.311L215.178 496.175L226.591 494.659L227.273 499.795ZM241.53 497.901L230.117 499.417L229.435 494.281L240.847 492.765L241.53 497.901ZM255.786 496.007L244.373 497.523L243.691 492.388L255.104 490.872L255.786 496.007ZM270.043 494.114L258.63 495.63L257.948 490.494L269.361 488.978L270.043 494.114ZM284.299 492.22L272.887 493.736L272.204 488.6L283.617 487.084L284.299 492.22ZM298.556 490.326L287.143 491.842L286.461 486.706L297.874 485.19L298.556 490.326ZM312.813 488.432L301.4 489.948L300.718 484.813L312.13 483.297L312.813 488.432ZM327.069 486.539L315.656 488.055L314.974 482.919L326.387 481.403L327.069 486.539ZM341.326 484.645L329.913 486.161L329.231 481.025L340.643 479.509L341.326 484.645ZM355.582 482.751L344.17 484.267L343.487 479.131L354.9 477.615L355.582 482.751ZM369.839 480.857L358.426 482.373L357.744 477.238L369.157 475.722L369.839 480.857ZM384.095 478.964L372.683 480.48L372.001 475.344L383.413 473.828L384.095 478.964ZM398.352 477.07L386.939 478.586L386.257 473.45L397.67 471.934L398.352 477.07ZM412.609 475.176L401.196 476.692L400.514 471.556L411.926 470.04L412.609 475.176ZM426.865 473.282L415.453 474.798L414.77 469.663L426.183 468.147L426.865 473.282ZM441.122 471.389L429.709 472.905L429.027 467.769L440.44 466.253L441.122 471.389ZM455.378 469.495L443.966 471.011L443.284 465.875L454.696 464.359L455.378 469.495ZM469.635 467.601L458.222 469.117L457.54 463.981L468.953 462.465L469.635 467.601Z" fill="black"/>
<path d="M101.578 318.084L90.1657 319.6L89.4835 314.464L100.896 312.948L101.578 318.084ZM115.835 316.19L104.422 317.706L103.74 312.57L115.153 311.054L115.835 316.19ZM130.092 314.296L118.679 315.812L117.997 310.677L129.409 309.161L130.092 314.296ZM144.348 312.403L132.935 313.919L132.253 308.783L143.666 307.267L144.348 312.403ZM158.605 310.509L147.192 312.025L146.51 306.889L157.923 305.373L158.605 310.509ZM172.861 308.615L161.449 310.131L160.766 304.995L172.179 303.479L172.861 308.615ZM187.118 306.721L175.705 308.237L175.023 303.102L186.436 301.586L187.118 306.721ZM201.375 304.828L189.962 306.344L189.28 301.208L200.692 299.692L201.375 304.828ZM215.631 302.934L204.218 304.45L203.536 299.314L214.949 297.798L215.631 302.934ZM229.888 301.04L218.475 302.556L217.793 297.42L229.205 295.904L229.888 301.04ZM244.144 299.146L232.732 300.662L232.049 295.527L243.462 294.011L244.144 299.146ZM258.401 297.253L246.988 298.769L246.306 293.633L257.719 292.117L258.401 297.253ZM272.657 295.359L261.245 296.875L260.563 291.739L271.975 290.223L272.657 295.359ZM286.914 293.465L275.501 294.981L274.819 289.845L286.232 288.329L286.914 293.465ZM301.171 291.571L289.758 293.087L289.076 287.952L300.488 286.436L301.171 291.571ZM315.427 289.678L304.015 291.194L303.332 286.058L314.745 284.542L315.427 289.678ZM329.684 287.784L318.271 289.3L317.589 284.164L329.002 282.648L329.684 287.784ZM343.94 285.89L332.528 287.406L331.846 282.27L343.258 280.754L343.94 285.89ZM358.197 283.996L346.784 285.512L346.102 280.377L357.515 278.861L358.197 283.996ZM372.454 282.103L361.041 283.619L360.359 278.483L371.771 276.967L372.454 282.103ZM386.71 280.209L375.298 281.725L374.615 276.589L386.028 275.073L386.71 280.209ZM400.967 278.315L389.554 279.831L388.872 274.695L400.285 273.179L400.967 278.315ZM415.223 276.421L403.811 277.937L403.128 272.802L414.541 271.286L415.223 276.421ZM429.48 274.528L418.067 276.044L417.385 270.908L428.798 269.392L429.48 274.528ZM443.737 272.634L432.324 274.15L431.642 269.014L443.054 267.498L443.737 272.634Z" fill="black"/>
<path d="M105.369 346.616L93.9567 348.132L93.2745 342.996L104.687 341.48L105.369 346.616ZM119.626 344.722L108.213 346.238L107.531 341.103L118.944 339.587L119.626 344.722ZM133.883 342.829L122.47 344.345L121.788 339.209L133.2 337.693L133.883 342.829ZM148.139 340.935L136.726 342.451L136.044 337.315L147.457 335.799L148.139 340.935ZM162.396 339.041L150.983 340.557L150.301 335.421L161.714 333.905L162.396 339.041ZM176.652 337.147L165.24 338.663L164.557 333.528L175.97 332.012L176.652 337.147ZM190.909 335.254L179.496 336.77L178.814 331.634L190.227 330.118L190.909 335.254ZM205.166 333.36L193.753 334.876L193.071 329.74L204.483 328.224L205.166 333.36ZM219.422 331.466L208.009 332.982L207.327 327.846L218.74 326.33L219.422 331.466ZM233.679 329.572L222.266 331.088L221.584 325.953L232.997 324.437L233.679 329.572ZM247.935 327.679L236.523 329.195L235.84 324.059L247.253 322.543L247.935 327.679ZM262.192 325.785L250.779 327.301L250.097 322.165L261.51 320.649L262.192 325.785ZM276.448 323.891L265.036 325.407L264.354 320.271L275.766 318.755L276.448 323.891ZM290.705 321.997L279.292 323.513L278.61 318.378L290.023 316.862L290.705 321.997ZM304.962 320.104L293.549 321.62L292.867 316.484L304.279 314.968L304.962 320.104ZM319.218 318.21L307.806 319.726L307.123 314.59L318.536 313.074L319.218 318.21ZM333.475 316.316L322.062 317.832L321.38 312.696L332.793 311.18L333.475 316.316ZM347.731 314.422L336.319 315.938L335.637 310.803L347.049 309.287L347.731 314.422ZM361.988 312.529L350.575 314.045L349.893 308.909L361.306 307.393L361.988 312.529ZM376.245 310.635L364.832 312.151L364.15 307.015L375.562 305.499L376.245 310.635ZM390.501 308.741L379.089 310.257L378.406 305.121L389.819 303.605L390.501 308.741ZM404.758 306.847L393.345 308.363L392.663 303.228L404.076 301.712L404.758 306.847ZM419.014 304.954L407.602 306.47L406.92 301.334L418.332 299.818L419.014 304.954ZM433.271 303.06L421.858 304.576L421.176 299.44L432.589 297.924L433.271 303.06ZM447.528 301.166L436.115 302.682L435.433 297.546L446.845 296.03L447.528 301.166Z" fill="black"/>
<path d="M109.158 375.147L97.7457 376.663L97.0635 371.527L108.476 370.011L109.158 375.147ZM123.415 373.253L112.002 374.769L111.32 369.633L122.733 368.117L123.415 373.253ZM137.672 371.359L126.259 372.875L125.577 367.74L136.989 366.224L137.672 371.359ZM151.928 369.466L140.516 370.982L139.833 365.846L151.246 364.33L151.928 369.466ZM166.185 367.572L154.772 369.088L154.09 363.952L165.503 362.436L166.185 367.572ZM180.441 365.678L169.029 367.194L168.346 362.058L179.759 360.542L180.441 365.678ZM194.698 363.784L183.285 365.3L182.603 360.165L194.016 358.649L194.698 363.784ZM208.955 361.891L197.542 363.407L196.86 358.271L208.272 356.755L208.955 361.891ZM223.211 359.997L211.798 361.513L211.116 356.377L222.529 354.861L223.211 359.997ZM237.468 358.103L226.055 359.619L225.373 354.483L236.786 352.967L237.468 358.103ZM251.724 356.209L240.312 357.725L239.629 352.59L251.042 351.074L251.724 356.209ZM265.981 354.316L254.568 355.832L253.886 350.696L265.299 349.18L265.981 354.316ZM280.238 352.422L268.825 353.938L268.143 348.802L279.555 347.286L280.238 352.422ZM294.494 350.528L283.081 352.044L282.399 346.908L293.812 345.392L294.494 350.528ZM308.751 348.634L297.338 350.15L296.656 345.015L308.069 343.499L308.751 348.634ZM323.007 346.741L311.595 348.257L310.912 343.121L322.325 341.605L323.007 346.741ZM337.264 344.847L325.851 346.363L325.169 341.227L336.582 339.711L337.264 344.847ZM351.521 342.953L340.108 344.469L339.426 339.333L350.838 337.817L351.521 342.953ZM365.777 341.059L354.364 342.575L353.682 337.44L365.095 335.924L365.777 341.059ZM380.034 339.166L368.621 340.682L367.939 335.546L379.352 334.03L380.034 339.166ZM394.29 337.272L382.878 338.788L382.195 333.652L393.608 332.136L394.29 337.272ZM408.547 335.378L397.134 336.894L396.452 331.758L407.865 330.242L408.547 335.378ZM422.803 333.484L411.391 335L410.709 329.865L422.121 328.349L422.803 333.484ZM437.06 331.591L425.647 333.107L424.965 327.971L436.378 326.455L437.06 331.591ZM451.317 329.697L439.904 331.213L439.222 326.077L450.634 324.561L451.317 329.697Z" fill="black"/>
<path d="M112.633 401.302L101.22 402.818L100.538 397.682L111.951 396.166L112.633 401.302ZM126.89 399.408L115.477 400.924L114.795 395.788L126.207 394.272L126.89 399.408ZM141.146 397.514L129.734 399.03L129.051 393.894L140.464 392.378L141.146 397.514ZM155.403 395.62L143.99 397.136L143.308 392.001L154.721 390.485L155.403 395.62ZM169.659 393.727L158.247 395.243L157.565 390.107L168.977 388.591L169.659 393.727ZM183.916 391.833L172.503 393.349L171.821 388.213L183.234 386.697L183.916 391.833ZM198.173 389.939L186.76 391.455L186.078 386.319L197.49 384.803L198.173 389.939ZM212.429 388.045L201.016 389.561L200.334 384.426L211.747 382.91L212.429 388.045ZM226.686 386.152L215.273 387.668L214.591 382.532L226.004 381.016L226.686 386.152ZM240.942 384.258L229.53 385.774L228.847 380.638L240.26 379.122L240.942 384.258ZM255.199 382.364L243.786 383.88L243.104 378.744L254.517 377.228L255.199 382.364ZM269.456 380.47L258.043 381.986L257.361 376.851L268.773 375.335L269.456 380.47ZM283.712 378.577L272.299 380.093L271.617 374.957L283.03 373.441L283.712 378.577ZM297.969 376.683L286.556 378.199L285.874 373.063L297.287 371.547L297.969 376.683ZM312.225 374.789L300.813 376.305L300.13 371.169L311.543 369.653L312.225 374.789ZM326.482 372.895L315.069 374.411L314.387 369.276L325.8 367.76L326.482 372.895ZM340.739 371.002L329.326 372.518L328.644 367.382L340.056 365.866L340.739 371.002ZM354.995 369.108L343.582 370.624L342.9 365.488L354.313 363.972L354.995 369.108ZM369.252 367.214L357.839 368.73L357.157 363.594L368.57 362.078L369.252 367.214ZM383.508 365.32L372.096 366.836L371.413 361.701L382.826 360.185L383.508 365.32ZM397.765 363.427L386.352 364.943L385.67 359.807L397.083 358.291L397.765 363.427ZM412.022 361.533L400.609 363.049L399.927 357.913L411.339 356.397L412.022 361.533ZM426.278 359.639L414.865 361.155L414.183 356.019L425.596 354.503L426.278 359.639ZM440.535 357.745L429.122 359.261L428.44 354.126L439.852 352.61L440.535 357.745ZM454.791 355.852L443.379 357.368L442.696 352.232L454.109 350.716L454.791 355.852Z" fill="black"/>
<path d="M184.494 147.498L152.399 151.761L157.548 91.2269L186.117 87.432C191.054 86.7761 195.118 87.6422 198.306 90.0302C201.546 92.3516 203.427 95.4816 203.95 99.42C204.473 103.359 203.611 107.002 201.364 110.352C199.11 113.642 196.183 115.706 192.586 116.543C195.325 116.897 197.581 118.122 199.355 120.22C201.18 122.251 202.272 124.618 202.632 127.322C203.249 131.966 202.086 136.278 199.146 140.258C196.197 144.179 191.313 146.592 184.494 147.498ZM183.865 111.689C186.628 111.322 188.533 110.351 189.58 108.777C190.678 107.135 191.094 105.315 190.829 103.317C190.626 101.788 189.866 100.573 188.55 99.6711C187.293 98.7614 185.811 98.4197 184.107 98.6462L169.205 100.626L168.082 113.786L183.865 111.689ZM182.084 136.781C184.788 136.422 186.836 135.402 188.228 133.722C189.678 132.034 190.259 130.102 189.97 127.927C189.736 126.164 188.957 124.801 187.633 123.841C186.309 122.88 184.677 122.528 182.737 122.786L167.042 124.871L165.859 138.936L182.084 136.781ZM233.403 142.078C226.76 142.96 221.349 141.855 217.17 138.761C212.99 135.667 210.522 131.269 209.764 125.567C208.858 118.748 210.421 112.499 214.452 106.819C218.483 101.139 223.996 97.834 230.992 96.9048C237.634 96.0225 243.049 97.1576 247.237 100.31C251.475 103.396 253.973 107.79 254.73 113.492C255.636 120.311 254.073 126.561 250.042 132.241C246.003 137.862 240.457 141.141 233.403 142.078ZM232.52 132.056C236.165 131.571 238.968 129.704 240.929 126.452C242.948 123.193 243.693 119.565 243.162 115.567C242.748 112.452 241.542 110.129 239.544 108.6C237.546 107.071 235.019 106.509 231.963 106.915C228.318 107.4 225.49 109.301 223.478 112.619C221.458 115.878 220.71 119.477 221.233 123.415C221.647 126.531 222.853 128.853 224.85 130.383C226.848 131.912 229.405 132.469 232.52 132.056ZM272.431 135.817L261.233 137.304L266.383 76.7701L277.581 75.2826L272.431 135.817ZM301.721 87.5096C304.543 87.1348 307.236 87.3752 309.803 88.2307C312.369 89.0862 314.498 90.4784 316.19 92.4072L318.047 69.9073L329.333 68.4081L324.096 128.954L312.809 130.453L313.341 124.999C310.317 129.708 306.337 132.39 301.399 133.046C296.461 133.702 292.316 132.667 288.963 129.942C285.61 127.217 283.566 123.092 282.832 117.566C282.239 113.098 282.499 108.757 283.614 104.541C284.78 100.258 286.914 96.5054 290.015 93.2819C293.175 90.0505 297.077 88.1265 301.721 87.5096ZM304.808 97.2391C301.222 97.7154 298.419 99.5832 296.4 102.843C294.439 106.094 293.724 109.718 294.255 113.716C294.653 116.714 295.855 119.007 297.861 120.595C299.866 122.183 302.25 122.793 305.013 122.426C308.893 121.911 311.933 119.802 314.133 116.1L315.428 100.853C312.815 97.8504 309.275 96.6457 304.808 97.2391Z" fill="black"/>
<rect x="73.0312" y="222.545" width="106.476" height="22.2582" transform="rotate(-7.56495 73.0312 222.545)" fill="black"/>
<rect x="165.602" y="266.509" width="70.3612" height="22.2582" transform="rotate(-7.56495 165.602 266.509)" fill="black"/>
<rect x="353.85" y="300.318" width="97.4637" height="22.2582" transform="rotate(-7.56495 353.85 300.318)" fill="black"/>
<rect x="102.32" y="419.787" width="159.358" height="22.2582" transform="rotate(-7.56495 102.32 419.787)" fill="black"/>
<rect x="136.188" y="497.687" width="239.241" height="22.2582" transform="rotate(-7.56495 136.188 497.687)" fill="black"/>
<rect x="332.562" y="583.063" width="127.943" height="22.2582" transform="rotate(-7.56495 332.562 583.063)" fill="black"/>
<rect x="239.512" y="171.891" width="70.3612" height="22.2582" transform="rotate(-7.56495 239.512 171.891)" fill="black"/>
</svg>
