<svg width="586" height="743" viewBox="0 0 586 743" fill="none" xmlns="http://www.w3.org/2000/svg">
<rect x="0.7029" y="89.5908" width="466.514" height="664.393" transform="rotate(-10.9841 0.7029 89.5908)" fill="#F5F0DD" stroke="black" stroke-width="1.19927"/>
<path d="M95.216 228.435L83.9139 230.629L82.9268 225.543L94.2288 223.349L95.216 228.435ZM109.334 225.695L98.0323 227.888L97.0452 222.803L108.347 220.609L109.334 225.695ZM123.453 222.955L112.151 225.148L111.164 220.062L122.466 217.869L123.453 222.955ZM137.571 220.214L126.269 222.408L125.282 217.322L136.584 215.128L137.571 220.214ZM151.689 217.474L140.387 219.668L139.4 214.582L150.702 212.388L151.689 217.474ZM165.808 214.734L154.506 216.927L153.519 211.841L164.821 209.648L165.808 214.734ZM179.926 211.994L168.624 214.187L167.637 209.101L178.939 206.908L179.926 211.994ZM194.044 209.253L182.742 211.447L181.755 206.361L193.057 204.167L194.044 209.253ZM208.163 206.513L196.861 208.707L195.874 203.621L207.176 201.427L208.163 206.513ZM222.281 203.773L210.979 205.966L209.992 200.88L221.294 198.687L222.281 203.773ZM236.399 201.032L225.097 203.226L224.11 198.14L235.412 195.947L236.399 201.032ZM250.518 198.292L239.216 200.486L238.229 195.4L249.531 193.206L250.518 198.292ZM264.636 195.552L253.334 197.746L252.347 192.66L263.649 190.466L264.636 195.552ZM278.754 192.812L267.452 195.005L266.465 189.919L277.767 187.726L278.754 192.812ZM292.873 190.071L281.571 192.265L280.584 187.179L291.886 184.986L292.873 190.071ZM306.991 187.331L295.689 189.525L294.702 184.439L306.004 182.245L306.991 187.331ZM321.11 184.591L309.807 186.785L308.82 181.699L320.122 179.505L321.11 184.591ZM335.228 181.851L323.926 184.044L322.939 178.958L334.241 176.765L335.228 181.851ZM349.346 179.11L338.044 181.304L337.057 176.218L348.359 174.024L349.346 179.11ZM363.465 176.37L352.163 178.564L351.175 173.478L362.477 171.284L363.465 176.37ZM377.583 173.63L366.281 175.824L365.294 170.738L376.596 168.544L377.583 173.63ZM391.701 170.89L380.399 173.083L379.412 167.997L390.714 165.804L391.701 170.89ZM405.82 168.149L394.518 170.343L393.53 165.257L404.832 163.063L405.82 168.149ZM419.938 165.409L408.636 167.603L407.649 162.517L418.951 160.323L419.938 165.409ZM434.056 162.669L422.754 164.862L421.767 159.777L433.069 157.583L434.056 162.669Z" fill="black"/>
<path d="M159.653 560.433L148.351 562.626L147.364 557.54L158.666 555.347L159.653 560.433ZM173.772 557.692L162.47 559.886L161.483 554.8L172.785 552.606L173.772 557.692ZM187.89 554.952L176.588 557.146L175.601 552.06L186.903 549.866L187.89 554.952ZM202.009 552.212L190.706 554.405L189.719 549.32L201.021 547.126L202.009 552.212ZM216.127 549.472L204.825 551.665L203.838 546.579L215.14 544.386L216.127 549.472ZM230.245 546.731L218.943 548.925L217.956 543.839L229.258 541.645L230.245 546.731ZM244.364 543.991L233.062 546.185L232.074 541.099L243.376 538.905L244.364 543.991ZM258.482 541.251L247.18 543.444L246.193 538.359L257.495 536.165L258.482 541.251ZM272.6 538.511L261.298 540.704L260.311 535.618L271.613 533.425L272.6 538.511ZM286.719 535.77L275.417 537.964L274.429 532.878L285.731 530.684L286.719 535.77ZM300.837 533.03L289.535 535.224L288.548 530.138L299.85 527.944L300.837 533.03ZM314.955 530.29L303.653 532.483L302.666 527.397L313.968 525.204L314.955 530.29ZM329.074 527.55L317.772 529.743L316.784 524.657L328.087 522.464L329.074 527.55ZM343.192 524.809L331.89 527.003L330.903 521.917L342.205 519.723L343.192 524.809ZM357.31 522.069L346.008 524.263L345.021 519.177L356.323 516.983L357.31 522.069ZM371.429 519.329L360.127 521.522L359.14 516.436L370.442 514.243L371.429 519.329ZM385.547 516.588L374.245 518.782L373.258 513.696L384.56 511.503L385.547 516.588ZM399.665 513.848L388.363 516.042L387.376 510.956L398.678 508.762L399.665 513.848ZM413.784 511.108L402.482 513.302L401.495 508.216L412.797 506.022L413.784 511.108ZM427.902 508.368L416.6 510.561L415.613 505.475L426.915 503.282L427.902 508.368ZM442.02 505.627L430.718 507.821L429.731 502.735L441.033 500.542L442.02 505.627ZM456.139 502.887L444.837 505.081L443.85 499.995L455.152 497.801L456.139 502.887ZM470.257 500.147L458.955 502.341L457.968 497.255L469.27 495.061L470.257 500.147ZM484.375 497.407L473.073 499.6L472.086 494.514L483.388 492.321L484.375 497.407ZM498.494 494.666L487.192 496.86L486.205 491.774L497.507 489.58L498.494 494.666Z" fill="black"/>
<path d="M165.138 588.688L153.836 590.881L152.849 585.795L164.151 583.602L165.138 588.688ZM179.256 585.947L167.954 588.141L166.967 583.055L178.269 580.861L179.256 585.947ZM193.375 583.207L182.073 585.401L181.085 580.315L192.387 578.121L193.375 583.207ZM207.493 580.467L196.191 582.66L195.204 577.574L206.506 575.381L207.493 580.467ZM221.611 577.726L210.309 579.92L209.322 574.834L220.624 572.641L221.611 577.726ZM235.73 574.986L224.428 577.18L223.44 572.094L234.742 569.9L235.73 574.986ZM249.848 572.246L238.546 574.44L237.559 569.354L248.861 567.16L249.848 572.246ZM263.966 569.506L252.664 571.699L251.677 566.613L262.979 564.42L263.966 569.506ZM278.085 566.765L266.783 568.959L265.795 563.873L277.097 561.68L278.085 566.765ZM292.203 564.025L280.901 566.219L279.914 561.133L291.216 558.939L292.203 564.025ZM306.321 561.285L295.019 563.479L294.032 558.393L305.334 556.199L306.321 561.285ZM320.44 558.545L309.138 560.738L308.15 555.652L319.453 553.459L320.44 558.545ZM334.558 555.804L323.256 557.998L322.269 552.912L333.571 550.718L334.558 555.804ZM348.676 553.064L337.374 555.258L336.387 550.172L347.689 547.978L348.676 553.064ZM362.795 550.324L351.493 552.518L350.506 547.432L361.808 545.238L362.795 550.324ZM376.913 547.584L365.611 549.777L364.624 544.691L375.926 542.498L376.913 547.584ZM391.031 544.843L379.729 547.037L378.742 541.951L390.044 539.757L391.031 544.843ZM405.15 542.103L393.848 544.297L392.861 539.211L404.163 537.017L405.15 542.103ZM419.268 539.363L407.966 541.556L406.979 536.471L418.281 534.277L419.268 539.363ZM433.386 536.623L422.084 538.816L421.097 533.73L432.399 531.537L433.386 536.623ZM447.505 533.882L436.203 536.076L435.216 530.99L446.518 528.796L447.505 533.882ZM461.623 531.142L450.321 533.336L449.334 528.25L460.636 526.056L461.623 531.142ZM475.741 528.402L464.439 530.595L463.452 525.51L474.754 523.316L475.741 528.402ZM489.86 525.662L478.558 527.855L477.571 522.769L488.873 520.576L489.86 525.662ZM503.978 522.921L492.676 525.115L491.689 520.029L502.991 517.835L503.978 522.921Z" fill="black"/>
<path d="M170.165 614.588L158.863 616.782L157.876 611.696L169.178 609.502L170.165 614.588ZM184.284 611.848L172.982 614.041L171.994 608.955L183.296 606.762L184.284 611.848ZM198.402 609.107L187.1 611.301L186.113 606.215L197.415 604.021L198.402 609.107ZM212.52 606.367L201.218 608.561L200.231 603.475L211.533 601.281L212.52 606.367ZM226.639 603.627L215.337 605.821L214.349 600.735L225.651 598.541L226.639 603.627ZM240.757 600.887L229.455 603.08L228.468 597.994L239.77 595.801L240.757 600.887ZM254.875 598.146L243.573 600.34L242.586 595.254L253.888 593.06L254.875 598.146ZM268.994 595.406L257.692 597.6L256.704 592.514L268.006 590.32L268.994 595.406ZM283.112 592.666L271.81 594.859L270.823 589.774L282.125 587.58L283.112 592.666ZM297.23 589.926L285.928 592.119L284.941 587.033L296.243 584.84L297.23 589.926ZM311.349 587.185L300.047 589.379L299.059 584.293L310.362 582.099L311.349 587.185ZM325.467 584.445L314.165 586.639L313.178 581.553L324.48 579.359L325.467 584.445ZM339.585 581.705L328.283 583.898L327.296 578.813L338.598 576.619L339.585 581.705ZM353.704 578.965L342.402 581.158L341.415 576.072L352.717 573.879L353.704 578.965ZM367.822 576.224L356.52 578.418L355.533 573.332L366.835 571.138L367.822 576.224ZM381.94 573.484L370.638 575.678L369.651 570.592L380.953 568.398L381.94 573.484ZM396.059 570.744L384.757 572.937L383.77 567.851L395.072 565.658L396.059 570.744ZM410.177 568.003L398.875 570.197L397.888 565.111L409.19 562.918L410.177 568.003ZM424.295 565.263L412.993 567.457L412.006 562.371L423.308 560.177L424.295 565.263ZM438.414 562.523L427.112 564.717L426.125 559.631L437.427 557.437L438.414 562.523ZM452.532 559.783L441.23 561.976L440.243 556.89L451.545 554.697L452.532 559.783ZM466.65 557.042L455.348 559.236L454.361 554.15L465.663 551.957L466.65 557.042ZM480.769 554.302L469.467 556.496L468.48 551.41L479.782 549.216L480.769 554.302ZM494.887 551.562L483.585 553.756L482.598 548.67L493.9 546.476L494.887 551.562ZM509.006 548.822L497.703 551.015L496.716 545.929L508.018 543.736L509.006 548.822Z" fill="black"/>
<path d="M175.648 642.843L164.346 645.037L163.358 639.951L174.66 637.757L175.648 642.843ZM189.766 640.103L178.464 642.297L177.477 637.211L188.779 635.017L189.766 640.103ZM203.884 637.363L192.582 639.556L191.595 634.47L202.897 632.277L203.884 637.363ZM218.003 634.622L206.701 636.816L205.713 631.73L217.016 629.537L218.003 634.622ZM232.121 631.882L220.819 634.076L219.832 628.99L231.134 626.796L232.121 631.882ZM246.239 629.142L234.937 631.336L233.95 626.25L245.252 624.056L246.239 629.142ZM260.358 626.402L249.056 628.595L248.069 623.509L259.371 621.316L260.358 626.402ZM274.476 623.661L263.174 625.855L262.187 620.769L273.489 618.576L274.476 623.661ZM288.594 620.921L277.292 623.115L276.305 618.029L287.607 615.835L288.594 620.921ZM302.713 618.181L291.411 620.375L290.424 615.289L301.726 613.095L302.713 618.181ZM316.831 615.441L305.529 617.634L304.542 612.548L315.844 610.355L316.831 615.441ZM330.949 612.7L319.647 614.894L318.66 609.808L329.962 607.615L330.949 612.7ZM345.068 609.96L333.766 612.154L332.779 607.068L344.081 604.874L345.068 609.96ZM359.186 607.22L347.884 609.414L346.897 604.328L358.199 602.134L359.186 607.22ZM373.304 604.48L362.002 606.673L361.015 601.587L372.317 599.394L373.304 604.48ZM387.423 601.739L376.121 603.933L375.134 598.847L386.436 596.653L387.423 601.739ZM401.541 598.999L390.239 601.193L389.252 596.107L400.554 593.913L401.541 598.999ZM415.66 596.259L404.357 598.453L403.37 593.367L414.672 591.173L415.66 596.259ZM429.778 593.519L418.476 595.712L417.489 590.626L428.791 588.433L429.778 593.519ZM443.896 590.778L432.594 592.972L431.607 587.886L442.909 585.692L443.896 590.778ZM458.015 588.038L446.713 590.232L445.725 585.146L457.027 582.952L458.015 588.038ZM472.133 585.298L460.831 587.491L459.844 582.406L471.146 580.212L472.133 585.298ZM486.251 582.558L474.949 584.751L473.962 579.665L485.264 577.472L486.251 582.558ZM500.37 579.817L489.068 582.011L488.08 576.925L499.382 574.731L500.37 579.817ZM514.488 577.077L503.186 579.271L502.199 574.185L513.501 571.991L514.488 577.077Z" fill="black"/>
<path d="M100.7 256.69L89.3983 258.884L88.4112 253.798L99.7132 251.605L100.7 256.69ZM114.819 253.95L103.517 256.144L102.53 251.058L113.832 248.864L114.819 253.95ZM128.937 251.21L117.635 253.404L116.648 248.318L127.95 246.124L128.937 251.21ZM143.055 248.47L131.753 250.663L130.766 245.577L142.068 243.384L143.055 248.47ZM157.174 245.729L145.872 247.923L144.885 242.837L156.187 240.643L157.174 245.729ZM171.292 242.989L159.99 245.183L159.003 240.097L170.305 237.903L171.292 242.989ZM185.41 240.249L174.108 242.443L173.121 237.357L184.423 235.163L185.41 240.249ZM199.529 237.509L188.227 239.702L187.24 234.616L198.542 232.423L199.529 237.509ZM213.647 234.768L202.345 236.962L201.358 231.876L212.66 229.682L213.647 234.768ZM227.765 232.028L216.463 234.222L215.476 229.136L226.778 226.942L227.765 232.028ZM241.884 229.288L230.582 231.481L229.595 226.396L240.897 224.202L241.884 229.288ZM256.002 226.548L244.7 228.741L243.713 223.655L255.015 221.462L256.002 226.548ZM270.121 223.807L258.818 226.001L257.831 220.915L269.133 218.721L270.121 223.807ZM284.239 221.067L272.937 223.261L271.95 218.175L283.252 215.981L284.239 221.067ZM298.357 218.327L287.055 220.52L286.068 215.435L297.37 213.241L298.357 218.327ZM312.476 215.587L301.174 217.78L300.186 212.694L311.488 210.501L312.476 215.587ZM326.594 212.846L315.292 215.04L314.305 209.954L325.607 207.76L326.594 212.846ZM340.712 210.106L329.41 212.3L328.423 207.214L339.725 205.02L340.712 210.106ZM354.831 207.366L343.529 209.559L342.541 204.473L353.843 202.28L354.831 207.366ZM368.949 204.626L357.647 206.819L356.66 201.733L367.962 199.54L368.949 204.626ZM383.067 201.885L371.765 204.079L370.778 198.993L382.08 196.799L383.067 201.885ZM397.186 199.145L385.884 201.339L384.896 196.253L396.199 194.059L397.186 199.145ZM411.304 196.405L400.002 198.598L399.015 193.512L410.317 191.319L411.304 196.405ZM425.422 193.664L414.12 195.858L413.133 190.772L424.435 188.579L425.422 193.664ZM439.541 190.924L428.239 193.118L427.252 188.032L438.554 185.838L439.541 190.924Z" fill="black"/>
<path d="M106.185 284.945L94.8827 287.138L93.8956 282.053L105.198 279.859L106.185 284.945ZM120.303 282.205L109.001 284.398L108.014 279.312L119.316 277.119L120.303 282.205ZM134.421 279.464L123.119 281.658L122.132 276.572L133.434 274.378L134.421 279.464ZM148.54 276.724L137.238 278.918L136.251 273.832L147.553 271.638L148.54 276.724ZM162.658 273.984L151.356 276.177L150.369 271.092L161.671 268.898L162.658 273.984ZM176.776 271.244L165.474 273.437L164.487 268.351L175.789 266.158L176.776 271.244ZM190.895 268.503L179.593 270.697L178.606 265.611L189.908 263.417L190.895 268.503ZM205.013 265.763L193.711 267.957L192.724 262.871L204.026 260.677L205.013 265.763ZM219.132 263.023L207.829 265.216L206.842 260.13L218.144 257.937L219.132 263.023ZM233.25 260.283L221.948 262.476L220.961 257.39L232.263 255.197L233.25 260.283ZM247.368 257.542L236.066 259.736L235.079 254.65L246.381 252.456L247.368 257.542ZM261.487 254.802L250.185 256.996L249.197 251.91L260.499 249.716L261.487 254.802ZM275.605 252.062L264.303 254.255L263.316 249.169L274.618 246.976L275.605 252.062ZM289.723 249.321L278.421 251.515L277.434 246.429L288.736 244.236L289.723 249.321ZM303.842 246.581L292.54 248.775L291.552 243.689L302.854 241.495L303.842 246.581ZM317.96 243.841L306.658 246.035L305.671 240.949L316.973 238.755L317.96 243.841ZM332.078 241.101L320.776 243.294L319.789 238.208L331.091 236.015L332.078 241.101ZM346.197 238.36L334.895 240.554L333.907 235.468L345.209 233.275L346.197 238.36ZM360.315 235.62L349.013 237.814L348.026 232.728L359.328 230.534L360.315 235.62ZM374.433 232.88L363.131 235.074L362.144 229.988L373.446 227.794L374.433 232.88ZM388.552 230.14L377.25 232.333L376.262 227.247L387.565 225.054L388.552 230.14ZM402.67 227.399L391.368 229.593L390.381 224.507L401.683 222.313L402.67 227.399ZM416.788 224.659L405.486 226.853L404.499 221.767L415.801 219.573L416.788 224.659ZM430.907 221.919L419.605 224.113L418.618 219.027L429.92 216.833L430.907 221.919ZM445.025 219.179L433.723 221.372L432.736 216.286L444.038 214.093L445.025 219.179Z" fill="black"/>
<path d="M111.212 310.846L99.91 313.039L98.9229 307.953L110.225 305.76L111.212 310.846ZM125.33 308.105L114.028 310.299L113.041 305.213L124.343 303.02L125.33 308.105ZM139.449 305.365L128.147 307.559L127.16 302.473L138.462 300.279L139.449 305.365ZM153.567 302.625L142.265 304.819L141.278 299.733L152.58 297.539L153.567 302.625ZM167.685 299.885L156.383 302.078L155.396 296.992L166.698 294.799L167.685 299.885ZM181.804 297.144L170.502 299.338L169.515 294.252L180.817 292.059L181.804 297.144ZM195.922 294.404L184.62 296.598L183.633 291.512L194.935 289.318L195.922 294.404ZM210.041 291.664L198.738 293.858L197.751 288.772L209.053 286.578L210.041 291.664ZM224.159 288.924L212.857 291.117L211.87 286.031L223.172 283.838L224.159 288.924ZM238.277 286.183L226.975 288.377L225.988 283.291L237.29 281.097L238.277 286.183ZM252.396 283.443L241.094 285.637L240.106 280.551L251.408 278.357L252.396 283.443ZM266.514 280.703L255.212 282.897L254.225 277.811L265.527 275.617L266.514 280.703ZM280.632 277.963L269.33 280.156L268.343 275.07L279.645 272.877L280.632 277.963ZM294.751 275.222L283.449 277.416L282.461 272.33L293.763 270.136L294.751 275.222ZM308.869 272.482L297.567 274.676L296.58 269.59L307.882 267.396L308.869 272.482ZM322.987 269.742L311.685 271.935L310.698 266.85L322 264.656L322.987 269.742ZM337.106 267.002L325.804 269.195L324.816 264.109L336.118 261.916L337.106 267.002ZM351.224 264.261L339.922 266.455L338.935 261.369L350.237 259.175L351.224 264.261ZM365.342 261.521L354.04 263.715L353.053 258.629L364.355 256.435L365.342 261.521ZM379.461 258.781L368.159 260.974L367.171 255.889L378.474 253.695L379.461 258.781ZM393.579 256.041L382.277 258.234L381.29 253.148L392.592 250.955L393.579 256.041ZM407.697 253.3L396.395 255.494L395.408 250.408L406.71 248.214L407.697 253.3ZM421.816 250.56L410.514 252.754L409.527 247.668L420.829 245.474L421.816 250.56ZM435.934 247.82L424.632 250.013L423.645 244.927L434.947 242.734L435.934 247.82ZM450.052 245.079L438.75 247.273L437.763 242.187L449.065 239.994L450.052 245.079Z" fill="black"/>
<path d="M138.175 449.767L126.873 451.961L125.886 446.875L137.188 444.681L138.175 449.767ZM152.293 447.027L140.991 449.22L140.004 444.135L151.306 441.941L152.293 447.027ZM166.412 444.287L155.11 446.48L154.122 441.394L165.425 439.201L166.412 444.287ZM180.53 441.546L169.228 443.74L168.241 438.654L179.543 436.46L180.53 441.546ZM194.648 438.806L183.346 441L182.359 435.914L193.661 433.72L194.648 438.806ZM208.767 436.066L197.465 438.259L196.478 433.174L207.78 430.98L208.767 436.066ZM222.885 433.326L211.583 435.519L210.596 430.433L221.898 428.24L222.885 433.326ZM237.003 430.585L225.701 432.779L224.714 427.693L236.016 425.499L237.003 430.585ZM251.122 427.845L239.82 430.039L238.833 424.953L250.135 422.759L251.122 427.845ZM265.24 425.105L253.938 427.298L252.951 422.212L264.253 420.019L265.24 425.105ZM279.358 422.365L268.056 424.558L267.069 419.472L278.371 417.279L279.358 422.365ZM293.477 419.624L282.175 421.818L281.188 416.732L292.49 414.538L293.477 419.624ZM307.595 416.884L296.293 419.078L295.306 413.992L306.608 411.798L307.595 416.884ZM321.713 414.144L310.411 416.337L309.424 411.251L320.726 409.058L321.713 414.144ZM335.832 411.403L324.53 413.597L323.543 408.511L334.845 406.318L335.832 411.403ZM349.95 408.663L338.648 410.857L337.661 405.771L348.963 403.577L349.95 408.663ZM364.069 405.923L352.766 408.117L351.779 403.031L363.081 400.837L364.069 405.923ZM378.187 403.183L366.885 405.376L365.898 400.29L377.2 398.097L378.187 403.183ZM392.305 400.442L381.003 402.636L380.016 397.55L391.318 395.357L392.305 400.442ZM406.424 397.702L395.122 399.896L394.134 394.81L405.436 392.616L406.424 397.702ZM420.542 394.962L409.24 397.156L408.253 392.07L419.555 389.876L420.542 394.962ZM434.66 392.222L423.358 394.415L422.371 389.329L433.673 387.136L434.66 392.222ZM448.779 389.481L437.477 391.675L436.489 386.589L447.791 384.395L448.779 389.481ZM462.897 386.741L451.595 388.935L450.608 383.849L461.91 381.655L462.897 386.741ZM477.015 384.001L465.713 386.195L464.726 381.109L476.028 378.915L477.015 384.001Z" fill="black"/>
<path d="M143.657 478.022L132.355 480.216L131.368 475.13L142.67 472.937L143.657 478.022ZM157.776 475.282L146.474 477.476L145.487 472.39L156.789 470.196L157.776 475.282ZM171.894 472.542L160.592 474.736L159.605 469.65L170.907 467.456L171.894 472.542ZM186.012 469.802L174.71 471.995L173.723 466.909L185.025 464.716L186.012 469.802ZM200.131 467.061L188.829 469.255L187.842 464.169L199.144 461.976L200.131 467.061ZM214.249 464.321L202.947 466.515L201.96 461.429L213.262 459.235L214.249 464.321ZM228.367 461.581L217.065 463.775L216.078 458.689L227.38 456.495L228.367 461.581ZM242.486 458.841L231.184 461.034L230.197 455.948L241.499 453.755L242.486 458.841ZM256.604 456.1L245.302 458.294L244.315 453.208L255.617 451.014L256.604 456.1ZM270.723 453.36L259.42 455.554L258.433 450.468L269.735 448.274L270.723 453.36ZM284.841 450.62L273.539 452.814L272.552 447.728L283.854 445.534L284.841 450.62ZM298.959 447.88L287.657 450.073L286.67 444.987L297.972 442.794L298.959 447.88ZM313.078 445.139L301.776 447.333L300.788 442.247L312.09 440.053L313.078 445.139ZM327.196 442.399L315.894 444.593L314.907 439.507L326.209 437.313L327.196 442.399ZM341.314 439.659L330.012 441.852L329.025 436.767L340.327 434.573L341.314 439.659ZM355.433 436.919L344.131 439.112L343.143 434.026L354.445 431.833L355.433 436.919ZM369.551 434.178L358.249 436.372L357.262 431.286L368.564 429.092L369.551 434.178ZM383.669 431.438L372.367 433.632L371.38 428.546L382.682 426.352L383.669 431.438ZM397.788 428.698L386.486 430.891L385.498 425.806L396.8 423.612L397.788 428.698ZM411.906 425.958L400.604 428.151L399.617 423.065L410.919 420.872L411.906 425.958ZM426.024 423.217L414.722 425.411L413.735 420.325L425.037 418.131L426.024 423.217ZM440.143 420.477L428.841 422.671L427.854 417.585L439.156 415.391L440.143 420.477ZM454.261 417.737L442.959 419.93L441.972 414.844L453.274 412.651L454.261 417.737ZM468.379 414.997L457.077 417.19L456.09 412.104L467.392 409.911L468.379 414.997ZM482.498 412.256L471.196 414.45L470.209 409.364L481.511 407.17L482.498 412.256Z" fill="black"/>
<path d="M149.142 506.278L137.84 508.471L136.853 503.386L148.155 501.192L149.142 506.278ZM163.26 503.538L151.958 505.731L150.971 500.645L162.273 498.452L163.26 503.538ZM177.378 500.797L166.076 502.991L165.089 497.905L176.391 495.711L177.378 500.797ZM191.497 498.057L180.195 500.251L179.208 495.165L190.51 492.971L191.497 498.057ZM205.615 495.317L194.313 497.51L193.326 492.425L204.628 490.231L205.615 495.317ZM219.733 492.577L208.431 494.77L207.444 489.684L218.746 487.491L219.733 492.577ZM233.852 489.836L222.55 492.03L221.563 486.944L232.865 484.75L233.852 489.836ZM247.97 487.096L236.668 489.29L235.681 484.204L246.983 482.01L247.97 487.096ZM262.089 484.356L250.787 486.549L249.799 481.463L261.101 479.27L262.089 484.356ZM276.207 481.616L264.905 483.809L263.918 478.723L275.22 476.53L276.207 481.616ZM290.325 478.875L279.023 481.069L278.036 475.983L289.338 473.789L290.325 478.875ZM304.444 476.135L293.142 478.329L292.154 473.243L303.456 471.049L304.444 476.135ZM318.562 473.395L307.26 475.588L306.273 470.502L317.575 468.309L318.562 473.395ZM332.68 470.654L321.378 472.848L320.391 467.762L331.693 465.569L332.68 470.654ZM346.799 467.914L335.497 470.108L334.509 465.022L345.811 462.828L346.799 467.914ZM360.917 465.174L349.615 467.368L348.628 462.282L359.93 460.088L360.917 465.174ZM375.035 462.434L363.733 464.627L362.746 459.541L374.048 457.348L375.035 462.434ZM389.154 459.693L377.852 461.887L376.864 456.801L388.167 454.608L389.154 459.693ZM403.272 456.953L391.97 459.147L390.983 454.061L402.285 451.867L403.272 456.953ZM417.39 454.213L406.088 456.407L405.101 451.321L416.403 449.127L417.39 454.213ZM431.509 451.473L420.207 453.666L419.22 448.58L430.522 446.387L431.509 451.473ZM445.627 448.732L434.325 450.926L433.338 445.84L444.64 443.646L445.627 448.732ZM459.745 445.992L448.443 448.186L447.456 443.1L458.758 440.906L459.745 445.992ZM473.864 443.252L462.562 445.446L461.575 440.36L472.877 438.166L473.864 443.252ZM487.982 440.512L476.68 442.705L475.693 437.619L486.995 435.426L487.982 440.512Z" fill="black"/>
<path d="M154.169 532.178L142.867 534.372L141.88 529.286L153.182 527.092L154.169 532.178ZM168.287 529.438L156.985 531.632L155.998 526.546L167.3 524.352L168.287 529.438ZM182.406 526.698L171.104 528.891L170.117 523.805L181.419 521.612L182.406 526.698ZM196.524 523.957L185.222 526.151L184.235 521.065L195.537 518.872L196.524 523.957ZM210.642 521.217L199.34 523.411L198.353 518.325L209.655 516.131L210.642 521.217ZM224.761 518.477L213.459 520.671L212.472 515.585L223.774 513.391L224.761 518.477ZM238.879 515.737L227.577 517.93L226.59 512.844L237.892 510.651L238.879 515.737ZM252.998 512.996L241.695 515.19L240.708 510.104L252.01 507.911L252.998 512.996ZM267.116 510.256L255.814 512.45L254.827 507.364L266.129 505.17L267.116 510.256ZM281.234 507.516L269.932 509.71L268.945 504.624L280.247 502.43L281.234 507.516ZM295.353 504.776L284.051 506.969L283.063 501.883L294.365 499.69L295.353 504.776ZM309.471 502.035L298.169 504.229L297.182 499.143L308.484 496.949L309.471 502.035ZM323.589 499.295L312.287 501.489L311.3 496.403L322.602 494.209L323.589 499.295ZM337.708 496.555L326.406 498.749L325.418 493.663L336.72 491.469L337.708 496.555ZM351.826 493.815L340.524 496.008L339.537 490.922L350.839 488.729L351.826 493.815ZM365.944 491.074L354.642 493.268L353.655 488.182L364.957 485.988L365.944 491.074ZM380.063 488.334L368.761 490.528L367.773 485.442L379.076 483.248L380.063 488.334ZM394.181 485.594L382.879 487.787L381.892 482.702L393.194 480.508L394.181 485.594ZM408.299 482.854L396.997 485.047L396.01 479.961L407.312 477.768L408.299 482.854ZM422.418 480.113L411.116 482.307L410.129 477.221L421.431 475.027L422.418 480.113ZM436.536 477.373L425.234 479.567L424.247 474.481L435.549 472.287L436.536 477.373ZM450.654 474.633L439.352 476.826L438.365 471.741L449.667 469.547L450.654 474.633ZM464.773 471.893L453.471 474.086L452.484 469L463.786 466.807L464.773 471.893ZM478.891 469.152L467.589 471.346L466.602 466.26L477.904 464.066L478.891 469.152ZM493.009 466.412L481.707 468.606L480.72 463.52L492.022 461.326L493.009 466.412Z" fill="black"/>
<path d="M116.694 339.101L105.392 341.295L104.405 336.209L115.707 334.015L116.694 339.101ZM130.813 336.361L119.511 338.554L118.524 333.469L129.826 331.275L130.813 336.361ZM144.931 333.621L133.629 335.814L132.642 330.728L143.944 328.535L144.931 333.621ZM159.05 330.88L147.747 333.074L146.76 327.988L158.062 325.794L159.05 330.88ZM173.168 328.14L161.866 330.334L160.879 325.248L172.181 323.054L173.168 328.14ZM187.286 325.4L175.984 327.593L174.997 322.508L186.299 320.314L187.286 325.4ZM201.405 322.66L190.103 324.853L189.115 319.767L200.417 317.574L201.405 322.66ZM215.523 319.919L204.221 322.113L203.234 317.027L214.536 314.833L215.523 319.919ZM229.641 317.179L218.339 319.373L217.352 314.287L228.654 312.093L229.641 317.179ZM243.76 314.439L232.458 316.632L231.47 311.546L242.772 309.353L243.76 314.439ZM257.878 311.698L246.576 313.892L245.589 308.806L256.891 306.613L257.878 311.698ZM271.996 308.958L260.694 311.152L259.707 306.066L271.009 303.872L271.996 308.958ZM286.115 306.218L274.813 308.412L273.825 303.326L285.128 301.132L286.115 306.218ZM300.233 303.478L288.931 305.671L287.944 300.585L299.246 298.392L300.233 303.478ZM314.351 300.737L303.049 302.931L302.062 297.845L313.364 295.652L314.351 300.737ZM328.47 297.997L317.168 300.191L316.181 295.105L327.483 292.911L328.47 297.997ZM342.588 295.257L331.286 297.451L330.299 292.365L341.601 290.171L342.588 295.257ZM356.706 292.517L345.404 294.71L344.417 289.624L355.719 287.431L356.706 292.517ZM370.825 289.776L359.523 291.97L358.536 286.884L369.838 284.691L370.825 289.776ZM384.943 287.036L373.641 289.23L372.654 284.144L383.956 281.95L384.943 287.036ZM399.061 284.296L387.759 286.49L386.772 281.404L398.074 279.21L399.061 284.296ZM413.18 281.556L401.878 283.749L400.891 278.663L412.193 276.47L413.18 281.556ZM427.298 278.815L415.996 281.009L415.009 275.923L426.311 273.729L427.298 278.815ZM441.416 276.075L430.114 278.269L429.127 273.183L440.429 270.989L441.416 276.075ZM455.535 273.335L444.233 275.529L443.246 270.443L454.548 268.249L455.535 273.335Z" fill="black"/>
<path d="M122.179 367.357L110.877 369.551L109.89 364.465L121.192 362.271L122.179 367.357ZM136.297 364.617L124.995 366.81L124.008 361.724L135.31 359.531L136.297 364.617ZM150.416 361.876L139.114 364.07L138.126 358.984L149.428 356.791L150.416 361.876ZM164.534 359.136L153.232 361.33L152.245 356.244L163.547 354.05L164.534 359.136ZM178.652 356.396L167.35 358.59L166.363 353.504L177.665 351.31L178.652 356.396ZM192.771 353.656L181.469 355.849L180.481 350.763L191.783 348.57L192.771 353.656ZM206.889 350.915L195.587 353.109L194.6 348.023L205.902 345.829L206.889 350.915ZM221.007 348.175L209.705 350.369L208.718 345.283L220.02 343.089L221.007 348.175ZM235.126 345.435L223.824 347.629L222.836 342.543L234.139 340.349L235.126 345.435ZM249.244 342.695L237.942 344.888L236.955 339.802L248.257 337.609L249.244 342.695ZM263.362 339.954L252.06 342.148L251.073 337.062L262.375 334.868L263.362 339.954ZM277.481 337.214L266.179 339.408L265.192 334.322L276.494 332.128L277.481 337.214ZM291.599 334.474L280.297 336.667L279.31 331.582L290.612 329.388L291.599 334.474ZM305.717 331.734L294.415 333.927L293.428 328.841L304.73 326.648L305.717 331.734ZM319.836 328.993L308.534 331.187L307.547 326.101L318.849 323.907L319.836 328.993ZM333.954 326.253L322.652 328.447L321.665 323.361L332.967 321.167L333.954 326.253ZM348.072 323.513L336.77 325.706L335.783 320.621L347.085 318.427L348.072 323.513ZM362.191 320.773L350.889 322.966L349.902 317.88L361.204 315.687L362.191 320.773ZM376.309 318.032L365.007 320.226L364.02 315.14L375.322 312.946L376.309 318.032ZM390.427 315.292L379.125 317.486L378.138 312.4L389.44 310.206L390.427 315.292ZM404.546 312.552L393.244 314.745L392.257 309.659L403.559 307.466L404.546 312.552ZM418.664 309.812L407.362 312.005L406.375 306.919L417.677 304.726L418.664 309.812ZM432.782 307.071L421.48 309.265L420.493 304.179L431.795 301.985L432.782 307.071ZM446.901 304.331L435.599 306.525L434.612 301.439L445.914 299.245L446.901 304.331ZM461.019 301.591L449.717 303.784L448.73 298.698L460.032 296.505L461.019 301.591Z" fill="black"/>
<path d="M127.663 395.611L116.361 397.805L115.374 392.719L126.676 390.525L127.663 395.611ZM141.782 392.871L130.48 395.065L129.492 389.979L140.794 387.785L141.782 392.871ZM155.9 390.131L144.598 392.324L143.611 387.239L154.913 385.045L155.9 390.131ZM170.018 387.391L158.716 389.584L157.729 384.498L169.031 382.305L170.018 387.391ZM184.137 384.65L172.835 386.844L171.847 381.758L183.149 379.564L184.137 384.65ZM198.255 381.91L186.953 384.104L185.966 379.018L197.268 376.824L198.255 381.91ZM212.373 379.17L201.071 381.363L200.084 376.278L211.386 374.084L212.373 379.17ZM226.492 376.43L215.19 378.623L214.203 373.537L225.505 371.344L226.492 376.43ZM240.61 373.689L229.308 375.883L228.321 370.797L239.623 368.603L240.61 373.689ZM254.728 370.949L243.426 373.143L242.439 368.057L253.741 365.863L254.728 370.949ZM268.847 368.209L257.545 370.402L256.558 365.316L267.86 363.123L268.847 368.209ZM282.965 365.468L271.663 367.662L270.676 362.576L281.978 360.383L282.965 365.468ZM297.083 362.728L285.781 364.922L284.794 359.836L296.096 357.642L297.083 362.728ZM311.202 359.988L299.9 362.182L298.913 357.096L310.215 354.902L311.202 359.988ZM325.32 357.248L314.018 359.441L313.031 354.355L324.333 352.162L325.32 357.248ZM339.438 354.507L328.136 356.701L327.149 351.615L338.451 349.422L339.438 354.507ZM353.557 351.767L342.255 353.961L341.268 348.875L352.57 346.681L353.557 351.767ZM367.675 349.027L356.373 351.221L355.386 346.135L366.688 343.941L367.675 349.027ZM381.793 346.287L370.491 348.48L369.504 343.394L380.806 341.201L381.793 346.287ZM395.912 343.546L384.61 345.74L383.623 340.654L394.925 338.46L395.912 343.546ZM410.03 340.806L398.728 343L397.741 337.914L409.043 335.72L410.03 340.806ZM424.149 338.066L412.847 340.26L411.859 335.174L423.161 332.98L424.149 338.066ZM438.267 335.326L426.965 337.519L425.978 332.433L437.28 330.24L438.267 335.326ZM452.385 332.585L441.083 334.779L440.096 329.693L451.398 327.499L452.385 332.585ZM466.504 329.845L455.202 332.039L454.214 326.953L465.516 324.759L466.504 329.845Z" fill="black"/>
<path d="M132.691 421.513L121.389 423.706L120.401 418.62L131.703 416.427L132.691 421.513ZM146.809 418.772L135.507 420.966L134.52 415.88L145.822 413.687L146.809 418.772ZM160.927 416.032L149.625 418.226L148.638 413.14L159.94 410.946L160.927 416.032ZM175.046 413.292L163.744 415.486L162.756 410.4L174.058 408.206L175.046 413.292ZM189.164 410.552L177.862 412.745L176.875 407.659L188.177 405.466L189.164 410.552ZM203.282 407.811L191.98 410.005L190.993 404.919L202.295 402.725L203.282 407.811ZM217.401 405.071L206.099 407.265L205.111 402.179L216.414 399.985L217.401 405.071ZM231.519 402.331L220.217 404.525L219.23 399.439L230.532 397.245L231.519 402.331ZM245.637 399.591L234.335 401.784L233.348 396.698L244.65 394.505L245.637 399.591ZM259.756 396.85L248.454 399.044L247.467 393.958L258.769 391.764L259.756 396.85ZM273.874 394.11L262.572 396.304L261.585 391.218L272.887 389.024L273.874 394.11ZM287.992 391.37L276.69 393.563L275.703 388.478L287.005 386.284L287.992 391.37ZM302.111 388.63L290.809 390.823L289.822 385.737L301.124 383.544L302.111 388.63ZM316.229 385.889L304.927 388.083L303.94 382.997L315.242 380.803L316.229 385.889ZM330.347 383.149L319.045 385.343L318.058 380.257L329.36 378.063L330.347 383.149ZM344.466 380.409L333.164 382.602L332.177 377.517L343.479 375.323L344.466 380.409ZM358.584 377.669L347.282 379.862L346.295 374.776L357.597 372.583L358.584 377.669ZM372.702 374.928L361.4 377.122L360.413 372.036L371.715 369.842L372.702 374.928ZM386.821 372.188L375.519 374.382L374.532 369.296L385.834 367.102L386.821 372.188ZM400.939 369.448L389.637 371.641L388.65 366.556L399.952 364.362L400.939 369.448ZM415.058 366.708L403.755 368.901L402.768 363.815L414.07 361.622L415.058 366.708ZM429.176 363.967L417.874 366.161L416.887 361.075L428.189 358.881L429.176 363.967ZM443.294 361.227L431.992 363.421L431.005 358.335L442.307 356.141L443.294 361.227ZM457.413 358.487L446.111 360.68L445.123 355.594L456.425 353.401L457.413 358.487ZM471.531 355.746L460.229 357.94L459.242 352.854L470.544 350.661L471.531 355.746Z" fill="black"/>
<path d="M91.3119 179.047C85.898 180.097 80.7287 180.074 75.804 178.976C70.9374 177.867 67.0348 175.966 64.0961 173.275L69.1876 164.494C71.7674 166.893 74.9327 168.574 78.6837 169.537C82.4928 170.489 86.4058 170.575 90.4225 169.796C93.857 169.129 96.2837 167.782 97.7024 165.755C99.1794 163.717 99.7032 161.591 99.2738 159.379C98.9349 157.633 97.6515 156.311 95.4236 155.415C93.254 154.507 90.647 153.835 87.6025 153.399C84.6048 152.894 81.5903 152.301 78.5588 151.621C75.5273 150.941 72.8016 149.657 70.3817 147.771C68.02 145.874 66.5397 143.382 65.9409 140.297C64.9918 135.407 66.181 130.797 69.5085 126.466C72.8829 122.066 77.8009 119.239 84.2626 117.985C88.8614 117.092 93.3039 117.106 97.5901 118.026C101.865 118.888 105.449 120.548 108.343 123.006L103.2 131.525C100.746 129.464 97.8527 128.093 94.5188 127.411C91.1736 126.671 87.8711 126.617 84.6111 127.25C81.9333 127.77 79.8099 128.967 78.2408 130.842C76.6605 132.659 76.0624 134.557 76.4465 136.537C76.7516 138.108 78.018 139.342 80.2459 140.239C82.4624 141.077 85.0695 141.749 88.0671 142.255C91.0534 142.702 94.0679 143.295 97.1107 144.033C100.142 144.713 102.868 145.996 105.288 147.883C107.708 149.769 109.223 152.284 109.833 155.427C110.861 160.724 109.734 165.655 106.452 170.218C103.169 174.782 98.1228 177.725 91.3119 179.047ZM141.674 169.272C135.095 170.548 129.558 169.872 125.06 167.241C120.621 164.599 117.837 160.367 116.707 154.546C115.351 147.56 116.492 141.147 120.131 135.307C123.816 129.396 129.064 125.78 135.875 124.458C141.405 123.385 146.221 124.232 150.322 127C154.412 129.71 157.005 133.888 158.101 139.535C158.553 141.863 158.709 144.068 158.569 146.149L125.912 152.488C125.923 152.546 125.939 152.784 125.96 153.203C126.028 153.552 126.079 153.814 126.113 153.989C126.621 156.608 128.214 158.746 130.891 160.401C133.557 161.998 136.898 162.406 140.915 161.627C145.397 160.757 148.926 158.864 151.501 155.948L155.62 161.763C152.027 165.661 147.378 168.164 141.674 169.272ZM125.618 145.839L149.806 141.145C149.83 140.959 149.78 140.546 149.656 139.905C149.102 137.053 147.684 134.882 145.401 133.392C143.108 131.844 140.185 131.414 136.634 132.103C133.374 132.736 130.707 134.401 128.633 137.099C126.618 139.786 125.613 142.699 125.618 145.839ZM227.973 151.434L218.804 153.214L219.522 125.167C219.529 123.958 219.476 123.062 219.363 122.48C219.035 120.791 218.135 119.577 216.662 118.836C215.178 118.037 213.534 117.812 211.729 118.162C208.411 118.806 205.46 121.342 202.876 125.77L202.126 156.451L192.957 158.231L193.675 130.184C193.659 128.858 193.578 127.816 193.431 127.06C193.091 125.616 192.242 124.512 190.886 123.748C189.529 122.984 187.832 122.8 185.795 123.196C182.652 123.806 179.73 126.336 177.03 130.787L176.279 161.468L167.111 163.247L168.268 119.258L177.437 117.479L177.245 123.496C180.439 118.165 184.335 115.053 188.934 114.16C192.427 113.482 195.338 113.853 197.668 115.274C199.997 116.694 201.292 118.074 201.552 119.413L201.586 119.587C204.677 113.732 209.105 110.245 214.868 109.126C218.07 108.505 220.992 108.934 223.635 110.415C226.267 111.837 227.905 114.207 228.549 117.525C228.719 118.398 228.799 119.591 228.791 121.103L227.973 151.434ZM246.293 98.7683C244.838 99.0508 243.525 98.8224 242.355 98.083C241.173 97.2855 240.452 96.2173 240.192 94.8784C239.819 92.9573 240.189 91.2848 241.302 89.8606C242.404 88.3783 243.741 87.4846 245.312 87.1795C246.768 86.897 248.086 87.1546 249.268 87.9521C250.438 88.6915 251.154 89.7306 251.413 91.0695C251.786 92.9905 251.422 94.6922 250.32 96.1745C249.207 97.5987 247.865 98.4633 246.293 98.7683ZM249.017 147.35L239.849 149.129L241.006 105.14L250.175 103.361L249.017 147.35ZM285.564 141.344C279.277 142.564 274.163 141.11 270.22 136.982L270.08 143.262L260.911 145.041L262.443 84.3076L271.612 82.5281L271.012 105.116C273.879 99.9682 277.874 96.8974 282.997 95.9031C287.828 94.9653 292.028 95.751 295.596 98.26C299.163 100.769 301.478 104.76 302.54 110.232C303.896 117.217 303.068 123.842 300.055 130.104C297.031 136.309 292.201 140.056 285.564 141.344ZM282.591 133.494C286.608 132.714 289.604 130.411 291.579 126.585C293.602 122.689 294.172 118.47 293.291 113.93C292.636 110.553 291.121 108.038 288.746 106.385C286.43 104.721 283.758 104.182 280.731 104.77C276.423 105.606 273.116 108.332 270.811 112.947L270.4 129.971C271.717 131.467 273.438 132.552 275.562 133.227C277.745 133.891 280.088 133.98 282.591 133.494ZM333.682 132.004C327.395 133.225 322.108 132.439 317.821 129.646C313.534 126.854 310.842 122.635 309.746 116.988C308.436 110.235 309.588 103.88 313.204 97.9231C316.82 91.966 322.033 88.3264 328.844 87.0045C335.131 85.7842 340.424 86.5993 344.722 89.4498C349.01 92.2421 351.701 96.4616 352.797 102.108C354.108 108.861 352.955 115.216 349.339 121.173C345.712 127.072 340.493 130.682 333.682 132.004ZM332.368 123.833C336.443 123.042 339.497 120.727 341.531 116.89C343.612 112.982 344.217 108.787 343.347 104.305C342.669 100.812 341.148 98.2681 338.785 96.673C336.469 95.0084 333.593 94.5094 330.158 95.1761C326.084 95.967 323.006 98.3161 320.925 102.224C318.903 106.12 318.321 110.28 319.179 114.704C319.857 118.197 321.354 120.775 323.671 122.44C326.034 124.035 328.933 124.499 332.368 123.833ZM370.873 123.699L361.704 125.478L363.236 64.7445L372.404 62.965L370.873 123.699ZM398.128 73.557C401.097 72.9807 403.928 73.0957 406.622 73.9018C409.362 74.6385 411.646 75.9773 413.472 77.9182L414.074 54.8772L423.243 53.0976L421.624 113.848L412.455 115.628L412.593 109.802C409.843 114.927 405.877 117.992 400.696 118.998C395.806 119.947 391.583 119.196 388.026 116.745C384.517 114.225 382.231 110.228 381.169 104.756C380.299 100.274 380.318 95.8605 381.227 91.5161C382.124 87.1135 384.03 83.24 386.945 79.8956C389.918 76.5398 393.646 74.427 398.128 73.557ZM401.102 81.4065C397.085 82.1862 394.065 84.524 392.043 88.4201C390.079 92.3049 389.537 96.5176 390.418 101.058C391.074 104.435 392.56 106.955 394.876 108.62C397.181 110.226 399.877 110.73 402.962 110.131C405.116 109.713 407.046 108.765 408.752 107.286C410.517 105.795 411.87 104.053 412.812 102.058L413.31 85.0172C411.993 83.5211 410.243 82.4412 408.06 81.7776C405.924 81.0444 403.605 80.9207 401.102 81.4065Z" fill="black"/>
<rect x="82.502" y="245.435" width="106.476" height="22.2582" transform="rotate(-10.9825 82.502 245.435)" fill="black"/>
<rect x="177.518" y="283.802" width="70.3612" height="22.2582" transform="rotate(-10.9825 177.518 283.802)" fill="black"/>
<rect x="367.479" y="306.335" width="97.4637" height="22.2582" transform="rotate(-10.9825 367.479 306.335)" fill="black"/>
<rect x="123.498" y="440.58" width="159.358" height="22.2582" transform="rotate(-10.9825 123.498 440.58)" fill="black"/>
<rect x="161.934" y="516.323" width="239.241" height="22.2582" transform="rotate(-10.9825 161.934 516.323)" fill="black"/>
<rect x="363.084" y="589.843" width="127.943" height="22.2582" transform="rotate(-10.9825 363.084 589.843)" fill="black"/>
<rect x="245.654" y="184.946" width="70.3612" height="22.2582" transform="rotate(-10.9825 245.654 184.946)" fill="black"/>
</svg>
