<svg width="585" height="742" viewBox="0 0 585 742" fill="none" xmlns="http://www.w3.org/2000/svg">
<rect x="125.235" y="0.7014" width="466.514" height="664.393" transform="rotate(10.8034 125.235 0.7014)" fill="#F5F0DD" stroke="black" stroke-width="1.19927"/>
<path d="M161.467 164.709L150.158 162.551L151.129 157.462L162.438 159.62L161.467 164.709ZM175.594 167.404L164.285 165.246L165.256 160.157L176.565 162.315L175.594 167.404ZM189.721 170.1L178.412 167.942L179.383 162.853L190.692 165.011L189.721 170.1ZM203.848 172.796L192.539 170.638L193.51 165.549L204.819 167.707L203.848 172.796ZM217.975 175.492L206.666 173.334L207.637 168.245L218.946 170.403L217.975 175.492ZM232.102 178.187L220.793 176.029L221.764 170.94L233.073 173.098L232.102 178.187ZM246.229 180.883L234.92 178.725L235.891 173.636L247.2 175.794L246.229 180.883ZM260.356 183.579L249.047 181.421L250.018 176.332L261.327 178.49L260.356 183.579ZM274.482 186.274L263.174 184.116L264.145 179.027L275.454 181.185L274.482 186.274ZM288.609 188.97L277.3 186.812L278.272 181.723L289.58 183.881L288.609 188.97ZM302.736 191.666L291.427 189.508L292.398 184.419L303.707 186.577L302.736 191.666ZM316.863 194.362L305.554 192.204L306.525 187.115L317.834 189.273L316.863 194.362ZM330.99 197.057L319.681 194.899L320.652 189.81L331.961 191.968L330.99 197.057ZM345.117 199.753L333.808 197.595L334.779 192.506L346.088 194.664L345.117 199.753ZM359.244 202.449L347.935 200.291L348.906 195.202L360.215 197.36L359.244 202.449ZM373.371 205.145L362.062 202.987L363.033 197.898L374.342 200.056L373.371 205.145ZM387.498 207.84L376.189 205.682L377.16 200.593L388.469 202.751L387.498 207.84ZM401.625 210.536L390.316 208.378L391.287 203.289L402.596 205.447L401.625 210.536ZM415.752 213.232L404.443 211.074L405.414 205.985L416.723 208.143L415.752 213.232ZM429.879 215.927L418.57 213.769L419.541 208.68L430.85 210.838L429.879 215.927ZM444.005 218.623L432.697 216.465L433.668 211.376L444.977 213.534L444.005 218.623ZM458.132 221.319L446.823 219.161L447.795 214.072L459.103 216.23L458.132 221.319ZM472.259 224.015L460.95 221.857L461.921 216.768L473.23 218.926L472.259 224.015ZM486.386 226.71L475.077 224.552L476.048 219.463L487.357 221.621L486.386 226.71ZM500.513 229.406L489.204 227.248L490.175 222.159L501.484 224.317L500.513 229.406Z" fill="black"/>
<path d="M98.0765 496.907L86.7676 494.749L87.7387 489.66L99.0476 491.818L98.0765 496.907ZM112.203 499.603L100.894 497.445L101.866 492.356L113.174 494.514L112.203 499.603ZM126.33 502.299L115.021 500.141L115.992 495.052L127.301 497.21L126.33 502.299ZM140.457 504.995L129.148 502.837L130.119 497.748L141.428 499.906L140.457 504.995ZM154.584 507.69L143.275 505.532L144.246 500.443L155.555 502.601L154.584 507.69ZM168.711 510.386L157.402 508.228L158.373 503.139L169.682 505.297L168.711 510.386ZM182.838 513.082L171.529 510.924L172.5 505.835L183.809 507.993L182.838 513.082ZM196.965 515.777L185.656 513.62L186.627 508.53L197.936 510.688L196.965 515.777ZM211.092 518.473L199.783 516.315L200.754 511.226L212.063 513.384L211.092 518.473ZM225.219 521.169L213.91 519.011L214.881 513.922L226.19 516.08L225.219 521.169ZM239.346 523.865L228.037 521.707L229.008 516.618L240.317 518.776L239.346 523.865ZM253.473 526.56L242.164 524.402L243.135 519.313L254.444 521.471L253.473 526.56ZM267.599 529.256L256.291 527.098L257.262 522.009L268.571 524.167L267.599 529.256ZM281.726 531.952L270.417 529.794L271.389 524.705L282.697 526.863L281.726 531.952ZM295.853 534.648L284.544 532.49L285.516 527.401L296.824 529.559L295.853 534.648ZM309.98 537.343L298.671 535.185L299.642 530.096L310.951 532.254L309.98 537.343ZM324.107 540.039L312.798 537.881L313.769 532.792L325.078 534.95L324.107 540.039ZM338.234 542.735L326.925 540.577L327.896 535.488L339.205 537.646L338.234 542.735ZM352.361 545.43L341.052 543.272L342.023 538.183L353.332 540.341L352.361 545.43ZM366.488 548.126L355.179 545.968L356.15 540.879L367.459 543.037L366.488 548.126ZM380.615 550.822L369.306 548.664L370.277 543.575L381.586 545.733L380.615 550.822ZM394.742 553.518L383.433 551.36L384.404 546.271L395.713 548.429L394.742 553.518ZM408.869 556.213L397.56 554.055L398.531 548.966L409.84 551.124L408.869 556.213ZM422.996 558.909L411.687 556.751L412.658 551.662L423.967 553.82L422.996 558.909ZM437.122 561.605L425.814 559.447L426.785 554.358L438.094 556.516L437.122 561.605Z" fill="black"/>
<path d="M92.6819 525.179L81.373 523.021L82.3441 517.932L93.653 520.09L92.6819 525.179ZM106.809 527.875L95.5 525.717L96.471 520.628L107.78 522.786L106.809 527.875ZM120.936 530.57L109.627 528.412L110.598 523.323L121.907 525.481L120.936 530.57ZM135.063 533.266L123.754 531.108L124.725 526.019L136.034 528.177L135.063 533.266ZM149.19 535.962L137.881 533.804L138.852 528.715L150.161 530.873L149.19 535.962ZM163.317 538.658L152.008 536.5L152.979 531.411L164.288 533.569L163.317 538.658ZM177.443 541.353L166.135 539.195L167.106 534.106L178.415 536.264L177.443 541.353ZM191.57 544.049L180.261 541.891L181.233 536.802L192.541 538.96L191.57 544.049ZM205.697 546.745L194.388 544.587L195.359 539.498L206.668 541.656L205.697 546.745ZM219.824 549.44L208.515 547.282L209.486 542.193L220.795 544.351L219.824 549.44ZM233.951 552.136L222.642 549.978L223.613 544.889L234.922 547.047L233.951 552.136ZM248.078 554.832L236.769 552.674L237.74 547.585L249.049 549.743L248.078 554.832ZM262.205 557.528L250.896 555.37L251.867 550.281L263.176 552.439L262.205 557.528ZM276.332 560.223L265.023 558.065L265.994 552.976L277.303 555.134L276.332 560.223ZM290.459 562.919L279.15 560.761L280.121 555.672L291.43 557.83L290.459 562.919ZM304.586 565.615L293.277 563.457L294.248 558.368L305.557 560.526L304.586 565.615ZM318.713 568.311L307.404 566.153L308.375 561.064L319.684 563.222L318.713 568.311ZM332.84 571.006L321.531 568.848L322.502 563.759L333.811 565.917L332.84 571.006ZM346.966 573.702L335.658 571.544L336.629 566.455L347.938 568.613L346.966 573.702ZM361.093 576.398L349.784 574.24L350.756 569.151L362.064 571.309L361.093 576.398ZM375.22 579.093L363.911 576.935L364.882 571.846L376.191 574.004L375.22 579.093ZM389.347 581.789L378.038 579.631L379.009 574.542L390.318 576.7L389.347 581.789ZM403.474 584.485L392.165 582.327L393.136 577.238L404.445 579.396L403.474 584.485ZM417.601 587.181L406.292 585.023L407.263 579.934L418.572 582.092L417.601 587.181ZM431.728 589.876L420.419 587.718L421.39 582.629L432.699 584.787L431.728 589.876Z" fill="black"/>
<path d="M87.7366 551.095L76.4277 548.937L77.3988 543.848L88.7077 546.006L87.7366 551.095ZM101.864 553.791L90.5546 551.633L91.5257 546.544L102.835 548.702L101.864 553.791ZM115.99 556.487L104.682 554.329L105.653 549.24L116.962 551.398L115.99 556.487ZM130.117 559.183L118.808 557.025L119.78 551.936L131.088 554.094L130.117 559.183ZM144.244 561.878L132.935 559.72L133.906 554.631L145.215 556.789L144.244 561.878ZM158.371 564.574L147.062 562.416L148.033 557.327L159.342 559.485L158.371 564.574ZM172.498 567.27L161.189 565.112L162.16 560.023L173.469 562.181L172.498 567.27ZM186.625 569.965L175.316 567.807L176.287 562.718L187.596 564.876L186.625 569.965ZM200.752 572.661L189.443 570.503L190.414 565.414L201.723 567.572L200.752 572.661ZM214.879 575.357L203.57 573.199L204.541 568.11L215.85 570.268L214.879 575.357ZM229.006 578.053L217.697 575.895L218.668 570.806L229.977 572.964L229.006 578.053ZM243.133 580.748L231.824 578.59L232.795 573.501L244.104 575.659L243.133 580.748ZM257.26 583.444L245.951 581.286L246.922 576.197L258.231 578.355L257.26 583.444ZM271.387 586.14L260.078 583.982L261.049 578.893L272.358 581.051L271.387 586.14ZM285.513 588.836L274.205 586.678L275.176 581.589L286.485 583.747L285.513 588.836ZM299.64 591.531L288.331 589.373L289.303 584.284L300.611 586.442L299.64 591.531ZM313.767 594.227L302.458 592.069L303.429 586.98L314.738 589.138L313.767 594.227ZM327.894 596.923L316.585 594.765L317.556 589.676L328.865 591.834L327.894 596.923ZM342.021 599.618L330.712 597.46L331.683 592.371L342.992 594.529L342.021 599.618ZM356.148 602.314L344.839 600.156L345.81 595.067L357.119 597.225L356.148 602.314ZM370.275 605.01L358.966 602.852L359.937 597.763L371.246 599.921L370.275 605.01ZM384.402 607.706L373.093 605.548L374.064 600.459L385.373 602.617L384.402 607.706ZM398.529 610.401L387.22 608.243L388.191 603.154L399.5 605.312L398.529 610.401ZM412.656 613.097L401.347 610.939L402.318 605.85L413.627 608.008L412.656 613.097ZM426.783 615.793L415.474 613.635L416.445 608.546L427.754 610.704L426.783 615.793Z" fill="black"/>
<path d="M82.3401 579.368L71.0312 577.21L72.0023 572.121L83.3112 574.279L82.3401 579.368ZM96.4671 582.064L85.1582 579.906L86.1292 574.817L97.4381 576.975L96.4671 582.064ZM110.594 584.759L99.2851 582.601L100.256 577.512L111.565 579.67L110.594 584.759ZM124.721 587.455L113.412 585.297L114.383 580.208L125.692 582.366L124.721 587.455ZM138.848 590.151L127.539 587.993L128.51 582.904L139.819 585.062L138.848 590.151ZM152.975 592.846L141.666 590.689L142.637 585.599L153.946 587.757L152.975 592.846ZM167.102 595.542L155.793 593.384L156.764 588.295L168.073 590.453L167.102 595.542ZM181.229 598.238L169.92 596.08L170.891 590.991L182.2 593.149L181.229 598.238ZM195.355 600.934L184.047 598.776L185.018 593.687L196.327 595.845L195.355 600.934ZM209.482 603.629L198.173 601.471L199.145 596.382L210.453 598.54L209.482 603.629ZM223.609 606.325L212.3 604.167L213.272 599.078L224.58 601.236L223.609 606.325ZM237.736 609.021L226.427 606.863L227.398 601.774L238.707 603.932L237.736 609.021ZM251.863 611.717L240.554 609.559L241.525 604.47L252.834 606.628L251.863 611.717ZM265.99 614.412L254.681 612.254L255.652 607.165L266.961 609.323L265.99 614.412ZM280.117 617.108L268.808 614.95L269.779 609.861L281.088 612.019L280.117 617.108ZM294.244 619.804L282.935 617.646L283.906 612.557L295.215 614.715L294.244 619.804ZM308.371 622.499L297.062 620.341L298.033 615.252L309.342 617.41L308.371 622.499ZM322.498 625.195L311.189 623.037L312.16 617.948L323.469 620.106L322.498 625.195ZM336.625 627.891L325.316 625.733L326.287 620.644L337.596 622.802L336.625 627.891ZM350.752 630.587L339.443 628.429L340.414 623.34L351.723 625.498L350.752 630.587ZM364.878 633.282L353.57 631.124L354.541 626.035L365.85 628.193L364.878 633.282ZM379.005 635.978L367.697 633.82L368.668 628.731L379.977 630.889L379.005 635.978ZM393.132 638.674L381.823 636.516L382.795 631.427L394.103 633.585L393.132 638.674ZM407.259 641.37L395.95 639.212L396.921 634.123L408.23 636.281L407.259 641.37ZM421.386 644.065L410.077 641.907L411.048 636.818L422.357 638.976L421.386 644.065Z" fill="black"/>
<path d="M156.073 192.981L144.764 190.823L145.735 185.734L157.044 187.892L156.073 192.981ZM170.199 195.676L158.891 193.518L159.862 188.429L171.171 190.587L170.199 195.676ZM184.326 198.372L173.017 196.214L173.989 191.125L185.297 193.283L184.326 198.372ZM198.453 201.068L187.144 198.91L188.116 193.821L199.424 195.979L198.453 201.068ZM212.58 203.764L201.271 201.606L202.242 196.517L213.551 198.675L212.58 203.764ZM226.707 206.459L215.398 204.301L216.369 199.212L227.678 201.37L226.707 206.459ZM240.834 209.155L229.525 206.997L230.496 201.908L241.805 204.066L240.834 209.155ZM254.961 211.851L243.652 209.693L244.623 204.604L255.932 206.762L254.961 211.851ZM269.088 214.546L257.779 212.388L258.75 207.299L270.059 209.457L269.088 214.546ZM283.215 217.242L271.906 215.084L272.877 209.995L284.186 212.153L283.215 217.242ZM297.342 219.938L286.033 217.78L287.004 212.691L298.313 214.849L297.342 219.938ZM311.469 222.634L300.16 220.476L301.131 215.387L312.44 217.545L311.469 222.634ZM325.596 225.329L314.287 223.171L315.258 218.082L326.567 220.24L325.596 225.329ZM339.722 228.025L328.414 225.867L329.385 220.778L340.694 222.936L339.722 228.025ZM353.849 230.721L342.541 228.563L343.512 223.474L354.82 225.632L353.849 230.721ZM367.976 233.417L356.667 231.259L357.639 226.17L368.947 228.328L367.976 233.417ZM382.103 236.112L370.794 233.954L371.765 228.865L383.074 231.023L382.103 236.112ZM396.23 238.808L384.921 236.65L385.892 231.561L397.201 233.719L396.23 238.808ZM410.357 241.504L399.048 239.346L400.019 234.257L411.328 236.415L410.357 241.504ZM424.484 244.199L413.175 242.041L414.146 236.952L425.455 239.11L424.484 244.199ZM438.611 246.895L427.302 244.737L428.273 239.648L439.582 241.806L438.611 246.895ZM452.738 249.591L441.429 247.433L442.4 242.344L453.709 244.502L452.738 249.591ZM466.865 252.287L455.556 250.129L456.527 245.04L467.836 247.198L466.865 252.287ZM480.992 254.982L469.683 252.824L470.654 247.735L481.963 249.893L480.992 254.982ZM495.119 257.678L483.81 255.52L484.781 250.431L496.09 252.589L495.119 257.678Z" fill="black"/>
<path d="M150.678 221.253L139.369 219.095L140.34 214.006L151.649 216.164L150.678 221.253ZM164.805 223.949L153.496 221.791L154.467 216.702L165.776 218.86L164.805 223.949ZM178.932 226.645L167.623 224.487L168.594 219.398L179.903 221.556L178.932 226.645ZM193.059 229.34L181.75 227.182L182.721 222.093L194.03 224.251L193.059 229.34ZM207.186 232.036L195.877 229.878L196.848 224.789L208.157 226.947L207.186 232.036ZM221.313 234.732L210.004 232.574L210.975 227.485L222.284 229.643L221.313 234.732ZM235.44 237.427L224.131 235.269L225.102 230.18L236.411 232.338L235.44 237.427ZM249.566 240.123L238.258 237.965L239.229 232.876L250.538 235.034L249.566 240.123ZM263.693 242.819L252.384 240.661L253.356 235.572L264.664 237.73L263.693 242.819ZM277.82 245.515L266.511 243.357L267.482 238.268L278.791 240.426L277.82 245.515ZM291.947 248.21L280.638 246.052L281.609 240.963L292.918 243.121L291.947 248.21ZM306.074 250.906L294.765 248.748L295.736 243.659L307.045 245.817L306.074 250.906ZM320.201 253.602L308.892 251.444L309.863 246.355L321.172 248.513L320.201 253.602ZM334.328 256.298L323.019 254.14L323.99 249.051L335.299 251.209L334.328 256.298ZM348.455 258.993L337.146 256.835L338.117 251.746L349.426 253.904L348.455 258.993ZM362.582 261.689L351.273 259.531L352.244 254.442L363.553 256.6L362.582 261.689ZM376.709 264.385L365.4 262.227L366.371 257.138L377.68 259.296L376.709 264.385ZM390.836 267.08L379.527 264.922L380.498 259.833L391.807 261.991L390.836 267.08ZM404.963 269.776L393.654 267.618L394.625 262.529L405.934 264.687L404.963 269.776ZM419.089 272.472L407.781 270.314L408.752 265.225L420.061 267.383L419.089 272.472ZM433.216 275.168L421.907 273.01L422.879 267.921L434.187 270.079L433.216 275.168ZM447.343 277.863L436.034 275.705L437.005 270.616L448.314 272.774L447.343 277.863ZM461.47 280.559L450.161 278.401L451.132 273.312L462.441 275.47L461.47 280.559ZM475.597 283.255L464.288 281.097L465.259 276.008L476.568 278.166L475.597 283.255ZM489.724 285.951L478.415 283.793L479.386 278.704L490.695 280.862L489.724 285.951Z" fill="black"/>
<path d="M145.733 247.169L134.424 245.011L135.395 239.922L146.704 242.08L145.733 247.169ZM159.86 249.865L148.551 247.707L149.522 242.618L160.831 244.776L159.86 249.865ZM173.987 252.561L162.678 250.403L163.649 245.314L174.958 247.472L173.987 252.561ZM188.113 255.256L176.805 253.098L177.776 248.009L189.085 250.167L188.113 255.256ZM202.24 257.952L190.931 255.794L191.903 250.705L203.211 252.863L202.24 257.952ZM216.367 260.648L205.058 258.49L206.029 253.401L217.338 255.559L216.367 260.648ZM230.494 263.343L219.185 261.185L220.156 256.096L231.465 258.254L230.494 263.343ZM244.621 266.039L233.312 263.881L234.283 258.792L245.592 260.95L244.621 266.039ZM258.748 268.735L247.439 266.577L248.41 261.488L259.719 263.646L258.748 268.735ZM272.875 271.431L261.566 269.273L262.537 264.184L273.846 266.342L272.875 271.431ZM287.002 274.126L275.693 271.968L276.664 266.879L287.973 269.037L287.002 274.126ZM301.129 276.822L289.82 274.664L290.791 269.575L302.1 271.733L301.129 276.822ZM315.256 279.518L303.947 277.36L304.918 272.271L316.227 274.429L315.256 279.518ZM329.383 282.214L318.074 280.056L319.045 274.967L330.354 277.125L329.383 282.214ZM343.51 284.909L332.201 282.751L333.172 277.662L344.481 279.82L343.51 284.909ZM357.636 287.605L346.328 285.447L347.299 280.358L358.608 282.516L357.636 287.605ZM371.763 290.301L360.454 288.143L361.426 283.054L372.734 285.212L371.763 290.301ZM385.89 292.996L374.581 290.838L375.553 285.749L386.861 287.907L385.89 292.996ZM400.017 295.692L388.708 293.534L389.679 288.445L400.988 290.603L400.017 295.692ZM414.144 298.388L402.835 296.23L403.806 291.141L415.115 293.299L414.144 298.388ZM428.271 301.084L416.962 298.926L417.933 293.837L429.242 295.995L428.271 301.084ZM442.398 303.779L431.089 301.621L432.06 296.532L443.369 298.69L442.398 303.779ZM456.525 306.475L445.216 304.317L446.187 299.228L457.496 301.386L456.525 306.475ZM470.652 309.171L459.343 307.013L460.314 301.924L471.623 304.082L470.652 309.171ZM484.779 311.867L473.47 309.709L474.441 304.62L485.75 306.778L484.779 311.867Z" fill="black"/>
<path d="M119.207 386.175L107.898 384.017L108.87 378.928L120.178 381.086L119.207 386.175ZM133.334 388.871L122.025 386.713L122.996 381.624L134.305 383.782L133.334 388.871ZM147.461 391.566L136.152 389.408L137.123 384.319L148.432 386.477L147.461 391.566ZM161.588 394.262L150.279 392.104L151.25 387.015L162.559 389.173L161.588 394.262ZM175.715 396.958L164.406 394.8L165.377 389.711L176.686 391.869L175.715 396.958ZM189.842 399.654L178.533 397.496L179.504 392.407L190.813 394.565L189.842 399.654ZM203.969 402.349L192.66 400.191L193.631 395.102L204.94 397.26L203.969 402.349ZM218.096 405.045L206.787 402.887L207.758 397.798L219.067 399.956L218.096 405.045ZM232.223 407.741L220.914 405.583L221.885 400.494L233.194 402.652L232.223 407.741ZM246.35 410.437L235.041 408.279L236.012 403.19L247.321 405.348L246.35 410.437ZM260.476 413.132L249.168 410.974L250.139 405.885L261.448 408.043L260.476 413.132ZM274.603 415.828L263.295 413.67L264.266 408.581L275.575 410.739L274.603 415.828ZM288.73 418.524L277.421 416.366L278.393 411.277L289.701 413.435L288.73 418.524ZM302.857 421.219L291.548 419.061L292.519 413.972L303.828 416.13L302.857 421.219ZM316.984 423.915L305.675 421.757L306.646 416.668L317.955 418.826L316.984 423.915ZM331.111 426.611L319.802 424.453L320.773 419.364L332.082 421.522L331.111 426.611ZM345.238 429.307L333.929 427.149L334.9 422.06L346.209 424.218L345.238 429.307ZM359.365 432.002L348.056 429.844L349.027 424.755L360.336 426.913L359.365 432.002ZM373.492 434.698L362.183 432.54L363.154 427.451L374.463 429.609L373.492 434.698ZM387.619 437.394L376.31 435.236L377.281 430.147L388.59 432.305L387.619 437.394ZM401.746 440.089L390.437 437.932L391.408 432.843L402.717 435L401.746 440.089ZM415.873 442.785L404.564 440.627L405.535 435.538L416.844 437.696L415.873 442.785ZM429.999 445.481L418.691 443.323L419.662 438.234L430.971 440.392L429.999 445.481ZM444.126 448.177L432.818 446.019L433.789 440.93L445.098 443.088L444.126 448.177ZM458.253 450.872L446.944 448.714L447.916 443.625L459.224 445.783L458.253 450.872Z" fill="black"/>
<path d="M113.813 414.447L102.504 412.289L103.475 407.2L114.784 409.358L113.813 414.447ZM127.94 417.143L116.631 414.985L117.602 409.896L128.911 412.054L127.94 417.143ZM142.067 419.839L130.758 417.681L131.729 412.592L143.038 414.75L142.067 419.839ZM156.194 422.535L144.885 420.377L145.856 415.288L157.165 417.446L156.194 422.535ZM170.32 425.23L159.012 423.072L159.983 417.983L171.292 420.141L170.32 425.23ZM184.447 427.926L173.138 425.768L174.11 420.679L185.418 422.837L184.447 427.926ZM198.574 430.622L187.265 428.464L188.236 423.375L199.545 425.533L198.574 430.622ZM212.701 433.318L201.392 431.16L202.363 426.071L213.672 428.229L212.701 433.318ZM226.828 436.013L215.519 433.855L216.49 428.766L227.799 430.924L226.828 436.013ZM240.955 438.709L229.646 436.551L230.617 431.462L241.926 433.62L240.955 438.709ZM255.082 441.405L243.773 439.247L244.744 434.158L256.053 436.316L255.082 441.405ZM269.209 444.1L257.9 441.942L258.871 436.853L270.18 439.011L269.209 444.1ZM283.336 446.796L272.027 444.638L272.998 439.549L284.307 441.707L283.336 446.796ZM297.463 449.492L286.154 447.334L287.125 442.245L298.434 444.403L297.463 449.492ZM311.59 452.188L300.281 450.03L301.252 444.941L312.561 447.099L311.59 452.188ZM325.717 454.883L314.408 452.725L315.379 447.636L326.688 449.794L325.717 454.883ZM339.843 457.579L328.535 455.421L329.506 450.332L340.815 452.49L339.843 457.579ZM353.97 460.275L342.661 458.117L343.633 453.028L354.941 455.186L353.97 460.275ZM368.097 462.971L356.788 460.813L357.759 455.724L369.068 457.882L368.097 462.971ZM382.224 465.666L370.915 463.508L371.886 458.419L383.195 460.577L382.224 465.666ZM396.351 468.362L385.042 466.204L386.013 461.115L397.322 463.273L396.351 468.362ZM410.478 471.058L399.169 468.9L400.14 463.811L411.449 465.969L410.478 471.058ZM424.605 473.753L413.296 471.595L414.267 466.506L425.576 468.664L424.605 473.753ZM438.732 476.449L427.423 474.291L428.394 469.202L439.703 471.36L438.732 476.449ZM452.859 479.145L441.55 476.987L442.521 471.898L453.83 474.056L452.859 479.145Z" fill="black"/>
<path d="M108.416 442.72L97.1074 440.562L98.0785 435.473L109.387 437.631L108.416 442.72ZM122.543 445.416L111.234 443.258L112.205 438.169L123.514 440.327L122.543 445.416ZM136.67 448.111L125.361 445.953L126.332 440.864L137.641 443.022L136.67 448.111ZM150.797 450.807L139.488 448.649L140.459 443.56L151.768 445.718L150.797 450.807ZM164.924 453.503L153.615 451.345L154.586 446.256L165.895 448.414L164.924 453.503ZM179.051 456.199L167.742 454.041L168.713 448.952L180.022 451.11L179.051 456.199ZM193.178 458.894L181.869 456.736L182.84 451.647L194.149 453.805L193.178 458.894ZM207.305 461.59L195.996 459.432L196.967 454.343L208.276 456.501L207.305 461.59ZM221.432 464.286L210.123 462.128L211.094 457.039L222.403 459.197L221.432 464.286ZM235.559 466.981L224.25 464.823L225.221 459.734L236.53 461.892L235.559 466.981ZM249.685 469.677L238.377 467.519L239.348 462.43L250.657 464.588L249.685 469.677ZM263.812 472.373L252.503 470.215L253.475 465.126L264.783 467.284L263.812 472.373ZM277.939 475.069L266.63 472.911L267.602 467.822L278.91 469.98L277.939 475.069ZM292.066 477.764L280.757 475.606L281.728 470.517L293.037 472.675L292.066 477.764ZM306.193 480.46L294.884 478.302L295.855 473.213L307.164 475.371L306.193 480.46ZM320.32 483.156L309.011 480.998L309.982 475.909L321.291 478.067L320.32 483.156ZM334.447 485.852L323.138 483.694L324.109 478.605L335.418 480.763L334.447 485.852ZM348.574 488.547L337.265 486.389L338.236 481.3L349.545 483.458L348.574 488.547ZM362.701 491.243L351.392 489.085L352.363 483.996L363.672 486.154L362.701 491.243ZM376.828 493.939L365.519 491.781L366.49 486.692L377.799 488.85L376.828 493.939ZM390.955 496.634L379.646 494.476L380.617 489.387L391.926 491.545L390.955 496.634ZM405.082 499.33L393.773 497.172L394.744 492.083L406.053 494.241L405.082 499.33ZM419.208 502.026L407.9 499.868L408.871 494.779L420.18 496.937L419.208 502.026ZM433.335 504.722L422.027 502.564L422.998 497.475L434.307 499.633L433.335 504.722ZM447.462 507.417L436.153 505.259L437.125 500.17L448.433 502.328L447.462 507.417Z" fill="black"/>
<path d="M103.471 468.636L92.1621 466.478L93.1332 461.389L104.442 463.547L103.471 468.636ZM117.598 471.332L106.289 469.174L107.26 464.085L118.569 466.243L117.598 471.332ZM131.725 474.027L120.416 471.869L121.387 466.78L132.696 468.938L131.725 474.027ZM145.852 476.723L134.543 474.565L135.514 469.476L146.823 471.634L145.852 476.723ZM159.979 479.419L148.67 477.261L149.641 472.172L160.95 474.33L159.979 479.419ZM174.106 482.115L162.797 479.957L163.768 474.868L175.077 477.026L174.106 482.115ZM188.232 484.81L176.924 482.652L177.895 477.563L189.204 479.721L188.232 484.81ZM202.359 487.506L191.051 485.348L192.022 480.259L203.331 482.417L202.359 487.506ZM216.486 490.202L205.177 488.044L206.149 482.955L217.457 485.113L216.486 490.202ZM230.613 492.897L219.304 490.739L220.275 485.65L231.584 487.808L230.613 492.897ZM244.74 495.593L233.431 493.435L234.402 488.346L245.711 490.504L244.74 495.593ZM258.867 498.289L247.558 496.131L248.529 491.042L259.838 493.2L258.867 498.289ZM272.994 500.985L261.685 498.827L262.656 493.738L273.965 495.896L272.994 500.985ZM287.121 503.68L275.812 501.522L276.783 496.433L288.092 498.591L287.121 503.68ZM301.248 506.376L289.939 504.218L290.91 499.129L302.219 501.287L301.248 506.376ZM315.375 509.072L304.066 506.914L305.037 501.825L316.346 503.983L315.375 509.072ZM329.502 511.768L318.193 509.61L319.164 504.521L330.473 506.679L329.502 511.768ZM343.629 514.463L332.32 512.305L333.291 507.216L344.6 509.374L343.629 514.463ZM357.755 517.159L346.447 515.001L347.418 509.912L358.727 512.07L357.755 517.159ZM371.882 519.855L360.574 517.697L361.545 512.608L372.854 514.766L371.882 519.855ZM386.009 522.55L374.7 520.392L375.672 515.303L386.98 517.461L386.009 522.55ZM400.136 525.246L388.827 523.088L389.798 517.999L401.107 520.157L400.136 525.246ZM414.263 527.942L402.954 525.784L403.925 520.695L415.234 522.853L414.263 527.942ZM428.39 530.638L417.081 528.48L418.052 523.391L429.361 525.549L428.39 530.638ZM442.517 533.333L431.208 531.175L432.179 526.086L443.488 528.244L442.517 533.333Z" fill="black"/>
<path d="M140.338 275.442L129.029 273.284L130 268.195L141.309 270.353L140.338 275.442ZM154.465 278.138L143.156 275.98L144.127 270.891L155.436 273.049L154.465 278.138ZM168.592 280.834L157.283 278.676L158.254 273.587L169.563 275.745L168.592 280.834ZM182.719 283.529L171.41 281.371L172.381 276.282L183.69 278.44L182.719 283.529ZM196.846 286.225L185.537 284.067L186.508 278.978L197.817 281.136L196.846 286.225ZM210.973 288.921L199.664 286.763L200.635 281.674L211.944 283.832L210.973 288.921ZM225.1 291.616L213.791 289.458L214.762 284.369L226.071 286.527L225.1 291.616ZM239.227 294.312L227.918 292.154L228.889 287.065L240.198 289.223L239.227 294.312ZM253.354 297.008L242.045 294.85L243.016 289.761L254.325 291.919L253.354 297.008ZM267.48 299.704L256.172 297.546L257.143 292.457L268.452 294.615L267.48 299.704ZM281.607 302.399L270.298 300.241L271.27 295.152L282.578 297.31L281.607 302.399ZM295.734 305.095L284.425 302.937L285.396 297.848L296.705 300.006L295.734 305.095ZM309.861 307.791L298.552 305.633L299.523 300.544L310.832 302.702L309.861 307.791ZM323.988 310.487L312.679 308.329L313.65 303.24L324.959 305.398L323.988 310.487ZM338.115 313.182L326.806 311.024L327.777 305.935L339.086 308.093L338.115 313.182ZM352.242 315.878L340.933 313.72L341.904 308.631L353.213 310.789L352.242 315.878ZM366.369 318.574L355.06 316.416L356.031 311.327L367.34 313.485L366.369 318.574ZM380.496 321.269L369.187 319.111L370.158 314.022L381.467 316.18L380.496 321.269ZM394.623 323.965L383.314 321.807L384.285 316.718L395.594 318.876L394.623 323.965ZM408.75 326.661L397.441 324.503L398.412 319.414L409.721 321.572L408.75 326.661ZM422.877 329.357L411.568 327.199L412.539 322.11L423.848 324.268L422.877 329.357ZM437.003 332.052L425.695 329.894L426.666 324.805L437.975 326.963L437.003 332.052ZM451.13 334.748L439.821 332.59L440.793 327.501L452.101 329.659L451.13 334.748ZM465.257 337.444L453.948 335.286L454.919 330.197L466.228 332.355L465.257 337.444ZM479.384 340.139L468.075 337.982L469.046 332.893L480.355 335.05L479.384 340.139Z" fill="black"/>
<path d="M134.942 303.715L123.633 301.557L124.604 296.468L135.913 298.626L134.942 303.715ZM149.069 306.41L137.76 304.252L138.731 299.163L150.04 301.321L149.069 306.41ZM163.196 309.106L151.887 306.948L152.858 301.859L164.167 304.017L163.196 309.106ZM177.322 311.802L166.014 309.644L166.985 304.555L178.294 306.713L177.322 311.802ZM191.449 314.497L180.14 312.339L181.112 307.25L192.42 309.408L191.449 314.497ZM205.576 317.193L194.267 315.035L195.238 309.946L206.547 312.104L205.576 317.193ZM219.703 319.889L208.394 317.731L209.365 312.642L220.674 314.8L219.703 319.889ZM233.83 322.585L222.521 320.427L223.492 315.338L234.801 317.496L233.83 322.585ZM247.957 325.28L236.648 323.122L237.619 318.033L248.928 320.191L247.957 325.28ZM262.084 327.976L250.775 325.818L251.746 320.729L263.055 322.887L262.084 327.976ZM276.211 330.672L264.902 328.514L265.873 323.425L277.182 325.583L276.211 330.672ZM290.338 333.368L279.029 331.21L280 326.121L291.309 328.279L290.338 333.368ZM304.465 336.063L293.156 333.905L294.127 328.816L305.436 330.974L304.465 336.063ZM318.592 338.759L307.283 336.601L308.254 331.512L319.563 333.67L318.592 338.759ZM332.719 341.455L321.41 339.297L322.381 334.208L333.69 336.366L332.719 341.455ZM346.845 344.15L335.537 341.992L336.508 336.903L347.817 339.061L346.845 344.15ZM360.972 346.846L349.663 344.688L350.635 339.599L361.943 341.757L360.972 346.846ZM375.099 349.542L363.79 347.384L364.761 342.295L376.07 344.453L375.099 349.542ZM389.226 352.238L377.917 350.08L378.888 344.991L390.197 347.149L389.226 352.238ZM403.353 354.933L392.044 352.775L393.015 347.686L404.324 349.844L403.353 354.933ZM417.48 357.629L406.171 355.471L407.142 350.382L418.451 352.54L417.48 357.629ZM431.607 360.325L420.298 358.167L421.269 353.078L432.578 355.236L431.607 360.325ZM445.734 363.02L434.425 360.863L435.396 355.774L446.705 357.931L445.734 363.02ZM459.861 365.716L448.552 363.558L449.523 358.469L460.832 360.627L459.861 365.716ZM473.988 368.412L462.679 366.254L463.65 361.165L474.959 363.323L473.988 368.412Z" fill="black"/>
<path d="M129.547 331.986L118.238 329.828L119.209 324.739L130.518 326.897L129.547 331.986ZM143.674 334.682L132.365 332.524L133.336 327.435L144.645 329.593L143.674 334.682ZM157.801 337.377L146.492 335.219L147.463 330.13L158.772 332.288L157.801 337.377ZM171.928 340.073L160.619 337.915L161.59 332.826L172.899 334.984L171.928 340.073ZM186.055 342.769L174.746 340.611L175.717 335.522L187.026 337.68L186.055 342.769ZM200.182 345.465L188.873 343.307L189.844 338.218L201.153 340.376L200.182 345.465ZM214.309 348.16L203 346.002L203.971 340.913L215.28 343.071L214.309 348.16ZM228.436 350.856L217.127 348.698L218.098 343.609L229.407 345.767L228.436 350.856ZM242.563 353.552L231.254 351.394L232.225 346.305L243.534 348.463L242.563 353.552ZM256.689 356.248L245.381 354.09L246.352 349.001L257.661 351.159L256.689 356.248ZM270.816 358.943L259.507 356.785L260.479 351.696L271.787 353.854L270.816 358.943ZM284.943 361.639L273.634 359.481L274.605 354.392L285.914 356.55L284.943 361.639ZM299.07 364.335L287.761 362.177L288.732 357.088L300.041 359.246L299.07 364.335ZM313.197 367.03L301.888 364.872L302.859 359.783L314.168 361.941L313.197 367.03ZM327.324 369.726L316.015 367.568L316.986 362.479L328.295 364.637L327.324 369.726ZM341.451 372.422L330.142 370.264L331.113 365.175L342.422 367.333L341.451 372.422ZM355.578 375.118L344.269 372.96L345.24 367.871L356.549 370.029L355.578 375.118ZM369.705 377.813L358.396 375.655L359.367 370.566L370.676 372.724L369.705 377.813ZM383.832 380.509L372.523 378.351L373.494 373.262L384.803 375.42L383.832 380.509ZM397.959 383.205L386.65 381.047L387.621 375.958L398.93 378.116L397.959 383.205ZM412.086 385.901L400.777 383.743L401.748 378.654L413.057 380.812L412.086 385.901ZM426.212 388.596L414.904 386.438L415.875 381.349L427.184 383.507L426.212 388.596ZM440.339 391.292L429.03 389.134L430.002 384.045L441.31 386.203L440.339 391.292ZM454.466 393.988L443.157 391.83L444.128 386.741L455.437 388.899L454.466 393.988ZM468.593 396.683L457.284 394.525L458.255 389.436L469.564 391.594L468.593 396.683Z" fill="black"/>
<path d="M124.602 357.903L113.293 355.745L114.264 350.656L125.573 352.814L124.602 357.903ZM138.729 360.599L127.42 358.441L128.391 353.352L139.7 355.51L138.729 360.599ZM152.856 363.294L141.547 361.136L142.518 356.047L153.827 358.205L152.856 363.294ZM166.983 365.99L155.674 363.832L156.645 358.743L167.954 360.901L166.983 365.99ZM181.11 368.686L169.801 366.528L170.772 361.439L182.081 363.597L181.11 368.686ZM195.236 371.382L183.928 369.224L184.899 364.135L196.208 366.293L195.236 371.382ZM209.363 374.077L198.054 371.919L199.026 366.83L210.334 368.988L209.363 374.077ZM223.49 376.773L212.181 374.615L213.152 369.526L224.461 371.684L223.49 376.773ZM237.617 379.469L226.308 377.311L227.279 372.222L238.588 374.38L237.617 379.469ZM251.744 382.165L240.435 380.007L241.406 374.918L252.715 377.076L251.744 382.165ZM265.871 384.86L254.562 382.702L255.533 377.613L266.842 379.771L265.871 384.86ZM279.998 387.556L268.689 385.398L269.66 380.309L280.969 382.467L279.998 387.556ZM294.125 390.252L282.816 388.094L283.787 383.005L295.096 385.163L294.125 390.252ZM308.252 392.947L296.943 390.789L297.914 385.7L309.223 387.858L308.252 392.947ZM322.379 395.643L311.07 393.485L312.041 388.396L323.35 390.554L322.379 395.643ZM336.506 398.339L325.197 396.181L326.168 391.092L337.477 393.25L336.506 398.339ZM350.633 401.035L339.324 398.877L340.295 393.788L351.604 395.946L350.633 401.035ZM364.759 403.73L353.451 401.572L354.422 396.483L365.731 398.641L364.759 403.73ZM378.886 406.426L367.577 404.268L368.549 399.179L379.857 401.337L378.886 406.426ZM393.013 409.122L381.704 406.964L382.675 401.875L393.984 404.033L393.013 409.122ZM407.14 411.818L395.831 409.66L396.802 404.571L408.111 406.729L407.14 411.818ZM421.267 414.513L409.958 412.355L410.929 407.266L422.238 409.424L421.267 414.513ZM435.394 417.209L424.085 415.051L425.056 409.962L436.365 412.12L435.394 417.209ZM449.521 419.905L438.212 417.747L439.183 412.658L450.492 414.816L449.521 419.905ZM463.648 422.6L452.339 420.442L453.31 415.353L464.619 417.511L463.648 422.6Z" fill="black"/>
<path d="M257.728 135.565L221.119 128.579L245.083 72.7526L277.499 78.9381C282.974 79.983 286.861 82.2339 289.159 85.691C291.527 89.1009 292.339 92.7572 291.594 96.6598C290.894 100.33 288.95 103.4 285.762 105.87C282.573 108.341 279.204 109.388 275.654 109.012C278.189 110.281 279.949 112.126 280.936 114.548C281.981 116.981 282.254 119.508 281.753 122.129C281.364 124.168 280.602 126.105 279.467 127.941C278.343 129.719 276.857 131.337 275.009 132.796C273.161 134.254 270.734 135.27 267.727 135.843C264.731 136.358 261.398 136.265 257.728 135.565ZM267.194 99.2481C268.708 99.5371 269.858 99.3641 270.643 98.7291C271.487 98.1053 272.014 97.24 272.225 96.1333C272.381 95.3178 272.217 94.5924 271.735 93.957C271.322 93.2745 270.62 92.8387 269.63 92.6498L256.874 90.2156L253.913 96.7138L267.194 99.2481ZM258.694 120.536C260.151 120.814 261.417 120.664 262.493 120.084C263.57 119.505 264.225 118.603 264.458 117.38C264.647 116.39 264.477 115.543 263.947 114.838C263.487 114.086 262.762 113.615 261.772 113.427L247.879 110.776L244.802 117.885L258.694 120.536ZM297.419 143.139L281.691 140.138L305.656 84.3112L321.383 87.3122L297.419 143.139ZM338.198 106.096C343.732 107.152 347.459 109.765 349.38 113.935L351.191 109.662L366.918 112.663L349.517 153.08L333.79 150.079L335.688 145.823C331.61 148.848 327.444 149.955 323.192 149.144C318.357 148.221 314.802 145.973 312.526 142.4C310.319 138.779 309.749 134.173 310.816 128.581C311.394 125.552 312.438 122.612 313.948 119.761C315.469 116.851 317.359 114.224 319.618 111.878C321.935 109.543 324.705 107.838 327.929 106.763C331.164 105.629 334.587 105.407 338.198 106.096ZM338.343 120.522C335.838 120.044 333.564 120.576 331.519 122.118C329.485 123.601 328.212 125.682 327.701 128.362C327.312 130.4 327.66 132.217 328.744 133.813C329.897 135.361 331.435 136.319 333.357 136.685C335.687 137.13 337.997 136.575 340.286 135.019L344.783 124.739C343.402 122.484 341.255 121.078 338.343 120.522ZM381.793 160.326C375.036 159.037 369.999 156.174 366.68 151.737C363.419 147.312 362.333 142.245 363.423 136.537C364.745 129.605 368.309 124.218 374.113 120.375C379.917 116.532 386.402 115.295 393.566 116.662C398.11 117.529 401.77 119.072 404.545 121.292C407.38 123.523 409.339 126.071 410.422 128.934L396.997 135.699C395.972 132.847 393.886 131.121 390.741 130.521C388.003 129.998 385.583 130.502 383.48 132.033C381.388 133.505 380.069 135.668 379.525 138.522C379.147 140.503 379.593 142.278 380.863 143.849C382.144 145.361 383.862 146.323 386.017 146.734C388.755 147.256 391.33 146.571 393.744 144.677L400.148 156.675C398.114 158.158 395.479 159.316 392.241 160.147C389.004 160.978 385.521 161.038 381.793 160.326ZM447.431 171.765L428.559 168.163L426.754 153.421L421.726 156.989L417.812 166.113L402.085 163.112L426.049 107.285L441.777 110.286L429.28 139.233L444.388 127.446L463.872 131.164L441.419 146.802L447.431 171.765Z" fill="black"/>
<rect x="129.204" y="288.589" width="106.476" height="22.2582" transform="rotate(10.805 129.204 288.589)" fill="black"/>
<rect x="178.76" y="211.696" width="70.3612" height="22.2582" transform="rotate(10.805 178.76 211.696)" fill="black"/>
<rect x="330.77" y="298.435" width="97.4637" height="22.2582" transform="rotate(10.805 330.77 298.435)" fill="black"/>
<rect x="108.989" y="372.196" width="159.358" height="22.2582" transform="rotate(10.805 108.989 372.196)" fill="black"/>
<rect x="144.262" y="466.374" width="239.241" height="22.2582" transform="rotate(10.805 144.262 466.374)" fill="black"/>
<rect x="276.042" y="599.705" width="127.943" height="22.2582" transform="rotate(10.805 276.042 599.705)" fill="black"/>
<rect x="317.319" y="180.163" width="70.3612" height="22.2582" transform="rotate(10.805 317.319 180.163)" fill="black"/>
</svg>
