<svg width="1005" height="1311" viewBox="0 0 1005 1311" fill="none" xmlns="http://www.w3.org/2000/svg">
<rect x="659.974" y="568.459" width="463.698" height="258.278" rx="14.8451" transform="rotate(-81.6548 659.974 568.459)" fill="#F5F0DD" stroke="black" stroke-width="1.2"/>
<rect x="766.764" y="223.077" width="114.647" height="37.8552" transform="rotate(8.34521 766.764 223.077)" fill="black"/>
<rect x="794.471" y="339.736" width="131.953" height="37.8552" transform="rotate(8.34521 794.471 339.736)" fill="black"/>
<rect x="721.143" y="437.202" width="80.0368" height="37.8552" transform="rotate(8.34521 721.143 437.202)" fill="black"/>
<path d="M361.905 114.936L342.758 112.127L344.022 103.511L363.169 106.319L361.905 114.936ZM385.824 118.444L366.676 115.636L367.94 107.019L387.087 109.828L385.824 118.444ZM409.742 121.953L390.595 119.144L391.859 110.528L411.006 113.337L409.742 121.953ZM433.661 125.462L414.513 122.653L415.777 114.037L434.924 116.845L433.661 125.462ZM457.579 128.97L438.432 126.161L439.696 117.545L458.843 120.354L457.579 128.97ZM481.498 132.479L462.35 129.67L463.614 121.054L482.762 123.862L481.498 132.479ZM505.416 135.987L486.269 133.179L487.533 124.562L506.68 127.371L505.416 135.987ZM529.335 139.496L510.187 136.687L511.451 128.071L530.599 130.88L529.335 139.496ZM553.253 143.005L534.106 140.196L535.37 131.58L554.517 134.388L553.253 143.005ZM577.172 146.513L558.024 143.705L559.288 135.088L578.436 137.897L577.172 146.513ZM601.09 150.022L581.943 147.213L583.207 138.597L602.354 141.406L601.09 150.022ZM625.009 153.53L605.861 150.722L607.125 142.105L626.273 144.914L625.009 153.53ZM648.927 157.039L629.78 154.23L631.044 145.614L650.191 148.423L648.927 157.039ZM672.846 160.548L653.699 157.739L654.962 149.123L674.11 151.931L672.846 160.548ZM696.764 164.056L677.617 161.248L678.881 152.631L698.028 155.44L696.764 164.056ZM720.683 167.565L701.536 164.756L702.799 156.14L721.947 158.949L720.683 167.565ZM744.601 171.074L725.454 168.265L726.718 159.649L745.865 162.457L744.601 171.074ZM768.52 174.582L749.373 171.773L750.637 163.157L769.784 165.966L768.52 174.582ZM792.438 178.091L773.291 175.282L774.555 166.666L793.702 169.474L792.438 178.091ZM816.357 181.599L797.21 178.791L798.474 170.174L817.621 172.983L816.357 181.599ZM840.275 185.108L821.128 182.299L822.392 173.683L841.539 176.492L840.275 185.108ZM864.194 188.617L845.047 185.808L846.311 177.192L865.458 180L864.194 188.617ZM888.112 192.125L868.965 189.316L870.229 180.7L889.376 183.509L888.112 192.125ZM912.031 195.634L892.884 192.825L894.148 184.209L913.295 187.018L912.031 195.634ZM935.949 199.142L916.802 196.334L918.066 187.717L937.213 190.526L935.949 199.142Z" fill="black"/>
<path d="M357.196 147.039L338.049 144.231L339.313 135.614L358.46 138.423L357.196 147.039ZM381.115 150.548L361.967 147.739L363.231 139.123L382.378 141.932L381.115 150.548ZM405.033 154.056L385.886 151.248L387.15 142.631L406.297 145.44L405.033 154.056ZM428.952 157.565L409.804 154.756L411.068 146.14L430.216 148.949L428.952 157.565ZM452.87 161.074L433.723 158.265L434.987 149.649L454.134 152.457L452.87 161.074ZM476.789 164.582L457.641 161.774L458.905 153.157L478.053 155.966L476.789 164.582ZM500.707 168.091L481.56 165.282L482.824 156.666L501.971 159.475L500.707 168.091ZM524.626 171.6L505.478 168.791L506.742 160.175L525.89 162.983L524.626 171.6ZM548.544 175.108L529.397 172.299L530.661 163.683L549.808 166.492L548.544 175.108ZM572.463 178.617L553.315 175.808L554.579 167.192L573.727 170L572.463 178.617ZM596.381 182.125L577.234 179.317L578.498 170.7L597.645 173.509L596.381 182.125ZM620.3 185.634L601.152 182.825L602.416 174.209L621.564 177.018L620.3 185.634ZM644.218 189.143L625.071 186.334L626.335 177.718L645.482 180.526L644.218 189.143ZM668.137 192.651L648.99 189.842L650.253 181.226L669.401 184.035L668.137 192.651ZM692.055 196.16L672.908 193.351L674.172 184.735L693.319 187.544L692.055 196.16ZM715.974 199.668L696.827 196.86L698.09 188.243L717.238 191.052L715.974 199.668ZM739.892 203.177L720.745 200.368L722.009 191.752L741.156 194.561L739.892 203.177ZM763.811 206.686L744.664 203.877L745.928 195.261L765.075 198.069L763.811 206.686ZM787.729 210.194L768.582 207.386L769.846 198.769L788.993 201.578L787.729 210.194ZM811.648 213.703L792.501 210.894L793.765 202.278L812.912 205.087L811.648 213.703ZM835.566 217.211L816.419 214.403L817.683 205.787L836.83 208.595L835.566 217.211ZM859.485 220.72L840.338 217.911L841.602 209.295L860.749 212.104L859.485 220.72ZM883.404 224.229L864.256 221.42L865.52 212.804L884.667 215.612L883.404 224.229ZM907.322 227.737L888.175 224.929L889.439 216.312L908.586 219.121L907.322 227.737ZM931.241 231.246L912.093 228.437L913.357 219.821L932.504 222.63L931.241 231.246Z" fill="black"/>
<path d="M351.858 183.424L332.711 180.615L333.975 171.999L353.122 174.808L351.858 183.424ZM375.777 186.933L356.629 184.124L357.893 175.508L377.041 178.316L375.777 186.933ZM399.695 190.441L380.548 187.632L381.812 179.016L400.959 181.825L399.695 190.441ZM423.614 193.95L404.466 191.141L405.73 182.525L424.878 185.334L423.614 193.95ZM447.532 197.458L428.385 194.65L429.649 186.033L448.796 188.842L447.532 197.458ZM471.451 200.967L452.303 198.158L453.567 189.542L472.715 192.351L471.451 200.967ZM495.369 204.476L476.222 201.667L477.486 193.051L496.633 195.859L495.369 204.476ZM519.288 207.984L500.141 205.176L501.404 196.559L520.552 199.368L519.288 207.984ZM543.206 211.493L524.059 208.684L525.323 200.068L544.47 202.877L543.206 211.493ZM567.125 215.002L547.978 212.193L549.241 203.577L568.389 206.385L567.125 215.002ZM591.043 218.51L571.896 215.701L573.16 207.085L592.307 209.894L591.043 218.51ZM614.962 222.019L595.815 219.21L597.079 210.594L616.226 213.402L614.962 222.019ZM638.88 225.527L619.733 222.719L620.997 214.102L640.144 216.911L638.88 225.527ZM662.799 229.036L643.652 226.227L644.916 217.611L664.063 220.42L662.799 229.036ZM686.717 232.545L667.57 229.736L668.834 221.12L687.981 223.928L686.717 232.545ZM710.636 236.053L691.489 233.244L692.753 224.628L711.9 227.437L710.636 236.053ZM734.554 239.562L715.407 236.753L716.671 228.137L735.818 230.946L734.554 239.562ZM758.473 243.07L739.326 240.262L740.59 231.645L759.737 234.454L758.473 243.07ZM782.391 246.579L763.244 243.77L764.508 235.154L783.655 237.963L782.391 246.579ZM806.31 250.088L787.163 247.279L788.427 238.663L807.574 241.471L806.31 250.088ZM830.229 253.596L811.081 250.788L812.345 242.171L831.492 244.98L830.229 253.596ZM854.147 257.105L835 254.296L836.264 245.68L855.411 248.489L854.147 257.105ZM878.066 260.613L858.918 257.805L860.182 249.188L879.33 251.997L878.066 260.613ZM901.984 264.122L882.837 261.313L884.101 252.697L903.248 255.506L901.984 264.122ZM925.903 267.631L906.755 264.822L908.019 256.206L927.167 259.014L925.903 267.631Z" fill="black"/>
<path d="M346.364 220.879L327.217 218.07L328.481 209.454L347.628 212.262L346.364 220.879ZM370.283 224.387L351.135 221.578L352.399 212.962L371.546 215.771L370.283 224.387ZM394.201 227.896L375.054 225.087L376.318 216.471L395.465 219.28L394.201 227.896ZM418.12 231.404L398.972 228.596L400.236 219.979L419.383 222.788L418.12 231.404ZM442.038 234.913L422.891 232.104L424.155 223.488L443.302 226.297L442.038 234.913ZM465.957 238.422L446.809 235.613L448.073 226.997L467.221 229.805L465.957 238.422ZM489.875 241.93L470.728 239.122L471.992 230.505L491.139 233.314L489.875 241.93ZM513.794 245.439L494.646 242.63L495.91 234.014L515.058 236.823L513.794 245.439ZM537.712 248.947L518.565 246.139L519.829 237.522L538.976 240.331L537.712 248.947ZM561.631 252.456L542.483 249.647L543.747 241.031L562.895 243.84L561.631 252.456ZM585.549 255.965L566.402 253.156L567.666 244.54L586.813 247.348L585.549 255.965ZM609.468 259.473L590.32 256.665L591.584 248.048L610.732 250.857L609.468 259.473ZM633.386 262.982L614.239 260.173L615.503 251.557L634.65 254.366L633.386 262.982ZM657.305 266.491L638.157 263.682L639.421 255.066L658.569 257.874L657.305 266.491ZM681.223 269.999L662.076 267.19L663.34 258.574L682.487 261.383L681.223 269.999ZM705.142 273.508L685.995 270.699L687.258 262.083L706.406 264.892L705.142 273.508ZM729.06 277.016L709.913 274.208L711.177 265.591L730.324 268.4L729.06 277.016ZM752.979 280.525L733.832 277.716L735.095 269.1L754.243 271.909L752.979 280.525ZM776.897 284.034L757.75 281.225L759.014 272.609L778.161 275.417L776.897 284.034ZM800.816 287.542L781.669 284.734L782.933 276.117L802.08 278.926L800.816 287.542ZM824.734 291.051L805.587 288.242L806.851 279.626L825.998 282.435L824.734 291.051ZM848.653 294.559L829.506 291.751L830.77 283.134L849.917 285.943L848.653 294.559ZM872.571 298.068L853.424 295.259L854.688 286.643L873.835 289.452L872.571 298.068ZM896.49 301.577L877.343 298.768L878.607 290.152L897.754 292.96L896.49 301.577ZM920.408 305.085L901.261 302.277L902.525 293.66L921.672 296.469L920.408 305.085Z" fill="black"/>
<path d="M341.026 257.263L321.879 254.455L323.143 245.838L342.29 248.647L341.026 257.263ZM364.945 260.772L345.797 257.963L347.061 249.347L366.209 252.156L364.945 260.772ZM388.863 264.281L369.716 261.472L370.98 252.856L390.127 255.664L388.863 264.281ZM412.782 267.789L393.634 264.98L394.898 256.364L414.046 259.173L412.782 267.789ZM436.7 271.298L417.553 268.489L418.817 259.873L437.964 262.682L436.7 271.298ZM460.619 274.806L441.471 271.998L442.735 263.381L461.883 266.19L460.619 274.806ZM484.537 278.315L465.39 275.506L466.654 266.89L485.801 269.699L484.537 278.315ZM508.456 281.824L489.308 279.015L490.572 270.399L509.72 273.207L508.456 281.824ZM532.374 285.332L513.227 282.524L514.491 273.907L533.638 276.716L532.374 285.332ZM556.293 288.841L537.146 286.032L538.409 277.416L557.557 280.225L556.293 288.841ZM580.211 292.349L561.064 289.541L562.328 280.924L581.475 283.733L580.211 292.349ZM604.13 295.858L584.983 293.049L586.246 284.433L605.394 287.242L604.13 295.858ZM628.048 299.367L608.901 296.558L610.165 287.942L629.312 290.75L628.048 299.367ZM651.967 302.875L632.82 300.067L634.084 291.45L653.231 294.259L651.967 302.875ZM675.885 306.384L656.738 303.575L658.002 294.959L677.149 297.768L675.885 306.384ZM699.804 309.893L680.657 307.084L681.921 298.468L701.068 301.276L699.804 309.893ZM723.722 313.401L704.575 310.592L705.839 301.976L724.986 304.785L723.722 313.401ZM747.641 316.91L728.494 314.101L729.758 305.485L748.905 308.294L747.641 316.91ZM771.559 320.418L752.412 317.61L753.676 308.993L772.823 311.802L771.559 320.418ZM795.478 323.927L776.331 321.118L777.595 312.502L796.742 315.311L795.478 323.927ZM819.397 327.436L800.249 324.627L801.513 316.011L820.66 318.819L819.397 327.436ZM843.315 330.944L824.168 328.136L825.432 319.519L844.579 322.328L843.315 330.944ZM867.234 334.453L848.086 331.644L849.35 323.028L868.498 325.837L867.234 334.453ZM891.152 337.961L872.005 335.153L873.269 326.536L892.416 329.345L891.152 337.961ZM915.071 341.47L895.923 338.661L897.187 330.045L916.335 332.854L915.071 341.47Z" fill="black"/>
<path d="M335.532 294.718L316.385 291.909L317.649 283.293L336.796 286.102L335.532 294.718ZM359.45 298.227L340.303 295.418L341.567 286.802L360.714 289.61L359.45 298.227ZM383.369 301.735L364.222 298.926L365.486 290.31L384.633 293.119L383.369 301.735ZM407.288 305.244L388.14 302.435L389.404 293.819L408.551 296.627L407.288 305.244ZM431.206 308.752L412.059 305.944L413.323 297.327L432.47 300.136L431.206 308.752ZM455.125 312.261L435.977 309.452L437.241 300.836L456.388 303.645L455.125 312.261ZM479.043 315.77L459.896 312.961L461.16 304.345L480.307 307.153L479.043 315.77ZM502.962 319.278L483.814 316.47L485.078 307.853L504.226 310.662L502.962 319.278ZM526.88 322.787L507.733 319.978L508.997 311.362L528.144 314.171L526.88 322.787ZM550.799 326.295L531.651 323.487L532.915 314.87L552.063 317.679L550.799 326.295ZM574.717 329.804L555.57 326.995L556.834 318.379L575.981 321.188L574.717 329.804ZM598.636 333.313L579.488 330.504L580.752 321.888L599.9 324.696L598.636 333.313ZM622.554 336.821L603.407 334.013L604.671 325.396L623.818 328.205L622.554 336.821ZM646.473 340.33L627.325 337.521L628.589 328.905L647.737 331.714L646.473 340.33ZM670.391 343.839L651.244 341.03L652.508 332.414L671.655 335.222L670.391 343.839ZM694.31 347.347L675.162 344.538L676.426 335.922L695.574 338.731L694.31 347.347ZM718.228 350.856L699.081 348.047L700.345 339.431L719.492 342.239L718.228 350.856ZM742.147 354.364L723 351.556L724.263 342.939L743.411 345.748L742.147 354.364ZM766.065 357.873L746.918 355.064L748.182 346.448L767.329 349.257L766.065 357.873ZM789.984 361.382L770.837 358.573L772.1 349.957L791.248 352.765L789.984 361.382ZM813.902 364.89L794.755 362.081L796.019 353.465L815.166 356.274L813.902 364.89ZM837.821 368.399L818.674 365.59L819.938 356.974L839.085 359.783L837.821 368.399ZM861.739 371.907L842.592 369.099L843.856 360.482L863.003 363.291L861.739 371.907ZM885.658 375.416L866.511 372.607L867.775 363.991L886.922 366.8L885.658 375.416ZM909.576 378.925L890.429 376.116L891.693 367.5L910.84 370.308L909.576 378.925Z" fill="black"/>
<path d="M330.196 331.102L311.049 328.293L312.313 319.677L331.46 322.486L330.196 331.102ZM354.115 334.611L334.967 331.802L336.231 323.186L355.378 325.995L354.115 334.611ZM378.033 338.119L358.886 335.311L360.15 326.694L379.297 329.503L378.033 338.119ZM401.952 341.628L382.804 338.819L384.068 330.203L403.216 333.012L401.952 341.628ZM425.87 345.137L406.723 342.328L407.987 333.712L427.134 336.52L425.87 345.137ZM449.789 348.645L430.641 345.837L431.905 337.22L451.053 340.029L449.789 348.645ZM473.707 352.154L454.56 349.345L455.824 340.729L474.971 343.538L473.707 352.154ZM497.626 355.663L478.478 352.854L479.742 344.238L498.89 347.046L497.626 355.663ZM521.544 359.171L502.397 356.362L503.661 347.746L522.808 350.555L521.544 359.171ZM545.463 362.68L526.315 359.871L527.579 351.255L546.727 354.063L545.463 362.68ZM569.381 366.188L550.234 363.38L551.498 354.763L570.645 357.572L569.381 366.188ZM593.3 369.697L574.152 366.888L575.416 358.272L594.564 361.081L593.3 369.697ZM617.218 373.206L598.071 370.397L599.335 361.781L618.482 364.589L617.218 373.206ZM641.137 376.714L621.99 373.905L623.253 365.289L642.401 368.098L641.137 376.714ZM665.055 380.223L645.908 377.414L647.172 368.798L666.319 371.607L665.055 380.223ZM688.974 383.731L669.827 380.923L671.09 372.306L690.238 375.115L688.974 383.731ZM712.892 387.24L693.745 384.431L695.009 375.815L714.156 378.624L712.892 387.24ZM736.811 390.749L717.664 387.94L718.928 379.324L738.075 382.132L736.811 390.749ZM760.729 394.257L741.582 391.449L742.846 382.832L761.993 385.641L760.729 394.257ZM784.648 397.766L765.501 394.957L766.765 386.341L785.912 389.15L784.648 397.766ZM808.566 401.274L789.419 398.466L790.683 389.849L809.83 392.658L808.566 401.274ZM832.485 404.783L813.338 401.974L814.602 393.358L833.749 396.167L832.485 404.783ZM856.404 408.292L837.256 405.483L838.52 396.867L857.667 399.675L856.404 408.292ZM880.322 411.8L861.175 408.992L862.439 400.375L881.586 403.184L880.322 411.8ZM904.241 415.309L885.093 412.5L886.357 403.884L905.504 406.693L904.241 415.309Z" fill="black"/>
<path d="M324.702 368.556L305.555 365.748L306.819 357.131L325.966 359.94L324.702 368.556ZM348.62 372.065L329.473 369.256L330.737 360.64L349.884 363.449L348.62 372.065ZM372.539 375.574L353.392 372.765L354.656 364.149L373.803 366.957L372.539 375.574ZM396.457 379.082L377.31 376.273L378.574 367.657L397.721 370.466L396.457 379.082ZM420.376 382.591L401.229 379.782L402.493 371.166L421.64 373.974L420.376 382.591ZM444.294 386.099L425.147 383.291L426.411 374.674L445.558 377.483L444.294 386.099ZM468.213 389.608L449.066 386.799L450.33 378.183L469.477 380.992L468.213 389.608ZM492.132 393.117L472.984 390.308L474.248 381.692L493.395 384.5L492.132 393.117ZM516.05 396.625L496.903 393.817L498.167 385.2L517.314 388.009L516.05 396.625ZM539.969 400.134L520.821 397.325L522.085 388.709L541.232 391.518L539.969 400.134ZM563.887 403.642L544.74 400.834L546.004 392.217L565.151 395.026L563.887 403.642ZM587.806 407.151L568.658 404.342L569.922 395.726L589.07 398.535L587.806 407.151ZM611.724 410.66L592.577 407.851L593.841 399.235L612.988 402.043L611.724 410.66ZM635.643 414.168L616.495 411.36L617.759 402.743L636.907 405.552L635.643 414.168ZM659.561 417.677L640.414 414.868L641.678 406.252L660.825 409.061L659.561 417.677ZM683.48 421.186L664.332 418.377L665.596 409.761L684.744 412.569L683.48 421.186ZM707.398 424.694L688.251 421.885L689.515 413.269L708.662 416.078L707.398 424.694ZM731.317 428.203L712.169 425.394L713.433 416.778L732.581 419.586L731.317 428.203ZM755.235 431.711L736.088 428.903L737.352 420.286L756.499 423.095L755.235 431.711ZM779.154 435.22L760.006 432.411L761.27 423.795L780.418 426.604L779.154 435.22ZM803.072 438.729L783.925 435.92L785.189 427.304L804.336 430.112L803.072 438.729ZM826.991 442.237L807.844 439.428L809.107 430.812L828.255 433.621L826.991 442.237ZM850.909 445.746L831.762 442.937L833.026 434.321L852.173 437.13L850.909 445.746ZM874.828 449.254L855.681 446.446L856.944 437.829L876.092 440.638L874.828 449.254ZM898.746 452.763L879.599 449.954L880.863 441.338L900.01 444.147L898.746 452.763Z" fill="black"/>
<path d="M319.991 400.66L300.844 397.851L302.108 389.235L321.255 392.044L319.991 400.66ZM343.909 404.168L324.762 401.36L326.026 392.743L345.173 395.552L343.909 404.168ZM367.828 407.677L348.681 404.868L349.945 396.252L369.092 399.061L367.828 407.677ZM391.747 411.186L372.599 408.377L373.863 399.761L393.01 402.569L391.747 411.186ZM415.665 414.694L396.518 411.886L397.782 403.269L416.929 406.078L415.665 414.694ZM439.584 418.203L420.436 415.394L421.7 406.778L440.847 409.587L439.584 418.203ZM463.502 421.712L444.355 418.903L445.619 410.287L464.766 413.095L463.502 421.712ZM487.421 425.22L468.273 422.411L469.537 413.795L488.685 416.604L487.421 425.22ZM511.339 428.729L492.192 425.92L493.456 417.304L512.603 420.112L511.339 428.729ZM535.258 432.237L516.11 429.429L517.374 420.812L536.522 423.621L535.258 432.237ZM559.176 435.746L540.029 432.937L541.293 424.321L560.44 427.13L559.176 435.746ZM583.095 439.255L563.947 436.446L565.211 427.83L584.359 430.638L583.095 439.255ZM607.013 442.763L587.866 439.954L589.13 431.338L608.277 434.147L607.013 442.763ZM630.932 446.272L611.784 443.463L613.048 434.847L632.196 437.656L630.932 446.272ZM654.85 449.78L635.703 446.972L636.967 438.355L656.114 441.164L654.85 449.78ZM678.769 453.289L659.621 450.48L660.885 441.864L680.033 444.673L678.769 453.289ZM702.687 456.798L683.54 453.989L684.804 445.373L703.951 448.181L702.687 456.798ZM726.606 460.306L707.459 457.498L708.722 448.881L727.87 451.69L726.606 460.306ZM750.524 463.815L731.377 461.006L732.641 452.39L751.788 455.199L750.524 463.815ZM774.443 467.323L755.296 464.515L756.559 455.898L775.707 458.707L774.443 467.323ZM798.361 470.832L779.214 468.023L780.478 459.407L799.625 462.216L798.361 470.832ZM822.28 474.341L803.133 471.532L804.397 462.916L823.544 465.724L822.28 474.341ZM846.198 477.849L827.051 475.041L828.315 466.424L847.462 469.233L846.198 477.849ZM870.117 481.358L850.97 478.549L852.234 469.933L871.381 472.742L870.117 481.358ZM894.035 484.867L874.888 482.058L876.152 473.442L895.299 476.25L894.035 484.867Z" fill="black"/>
<path d="M216.071 9.94511C216.214 8.96791 216.825 8.37631 217.222 8.09354C217.611 7.81704 218.008 7.67359 218.272 7.59422C218.815 7.4313 219.437 7.35463 220.021 7.31186C221.232 7.22323 222.903 7.23992 224.938 7.33433C229.039 7.52457 234.966 8.04915 242.424 8.85301C257.356 10.4625 278.605 13.2152 304.066 16.7514C354.995 23.8247 422.865 34.0452 490.956 44.5632C627.188 65.6068 764.227 87.8276 768.563 88.4636L771.037 88.8264L715.574 466.923L948.914 501.152C948.916 501.153 948.911 501.196 948.554 503.625L948.917 501.152L951.391 501.515L835.283 1293.03C833.85 1302.8 824.47 1309.32 814.533 1307.86L60.4798 1197.25C50.5433 1195.79 43.4304 1186.85 44.8627 1177.09L216.071 9.94511Z" fill="#F3D8A3" stroke="black" stroke-width="5"/>
<circle cx="125.601" cy="940.067" r="18.4215" transform="rotate(-81.6548 125.601 940.067)" fill="#F5F0DD"/>
<circle cx="142.754" cy="798.954" r="18.4215" transform="rotate(-81.6548 142.754 798.954)" fill="#F5F0DD"/>
<circle cx="162.463" cy="670.64" r="18.4215" transform="rotate(-81.6548 162.463 670.64)" fill="#F5F0DD"/>
<circle cx="182.22" cy="529.908" r="18.4215" transform="rotate(-81.6548 182.22 529.908)" fill="#F5F0DD"/>
<circle cx="201.931" cy="401.583" r="18.4215" transform="rotate(-81.6548 201.931 401.583)" fill="#F5F0DD"/>
<circle cx="222.558" cy="260.967" r="18.4215" transform="rotate(-81.6548 222.558 260.967)" fill="#F5F0DD"/>
<circle cx="244.132" cy="132.028" r="18.4215" transform="rotate(-81.6548 244.132 132.028)" fill="#F5F0DD"/>
<path d="M243.253 135.002C200.423 68.4834 143.034 104.188 190.487 159.363" stroke="black" stroke-width="8.77214"/>
<path d="M201.698 403.687C158.869 337.168 101.479 372.872 148.933 428.048" stroke="black" stroke-width="8.77214"/>
<path d="M182.856 532.14C140.027 465.621 82.6371 501.325 130.091 556.501" stroke="black" stroke-width="8.77214"/>
<path d="M224.929 263.453C182.099 196.935 124.709 232.639 172.163 287.814" stroke="black" stroke-width="8.77214"/>
<path d="M161.351 672.693C118.521 606.175 61.1313 641.879 108.585 697.054" stroke="black" stroke-width="8.77214"/>
<path d="M143.03 801.132C100.201 734.613 42.811 770.318 90.2648 825.493" stroke="black" stroke-width="8.77214"/>
<path d="M125.356 942.248C82.5269 875.729 25.1371 911.433 72.591 966.609" stroke="black" stroke-width="8.77214"/>
<path d="M107.034 1070.7C64.2047 1004.18 6.81486 1039.88 54.2687 1095.06" stroke="black" stroke-width="8.77214"/>
<path d="M356.564 610.616L344.969 608.915L353.329 586.95L327.788 583.201L319.429 605.166L307.915 603.476L327.772 551.144L339.286 552.834L331.546 573.399L357.005 577.136L364.826 556.583L376.421 558.285L356.564 610.616ZM394.924 575.247C397.518 575.628 399.844 576.521 401.902 577.928C403.959 579.334 405.494 581.105 406.506 583.242L408.321 578.207L418.7 579.731L404.276 617.619L393.898 616.096L395.747 611.398C391.878 614.806 387.674 616.177 383.133 615.51C378.593 614.844 375.181 612.88 372.899 609.618C370.617 606.357 369.848 602.185 370.594 597.104C371.197 592.996 372.525 589.215 374.578 585.762C376.693 582.262 379.532 579.476 383.094 577.403C386.71 575.339 390.653 574.62 394.924 575.247ZM395.2 584.647C391.903 584.163 388.948 585.11 386.335 587.487C383.776 589.873 382.227 592.903 381.687 596.579C381.283 599.336 381.768 601.671 383.144 603.584C384.52 605.498 386.478 606.641 389.018 607.014C392.586 607.538 395.812 606.438 398.697 603.714L403.696 590.532C402.14 587.212 399.308 585.25 395.2 584.647ZM427.614 581.039L437.911 582.55L434.001 592.827C433.017 595.388 432.983 597.316 433.897 598.61C434.874 599.857 436.767 600.687 439.578 601.1C442.767 601.568 445.599 601.459 448.075 600.773L454.046 584.919L464.424 586.442L450.082 624.343L439.703 622.819L444.996 608.77C441.406 609.9 437.287 610.123 432.639 609.441C427.341 608.663 423.905 607.055 422.331 604.615C420.818 602.129 420.831 598.845 422.369 594.764L427.614 581.039ZM481.922 630.01C475.706 629.097 470.99 626.804 467.774 623.129C464.613 619.463 463.433 614.9 464.234 609.44C465.186 602.954 468.161 597.73 473.16 593.77C478.159 589.811 483.874 588.303 490.307 589.247C495.442 590 499.424 592.214 502.253 595.887C505.09 599.506 506.116 603.991 505.331 609.343C504.966 611.829 504.386 613.898 503.592 615.548L474.484 611.276L474.341 612.249C474.055 614.195 474.731 616.171 476.369 618.179C478.061 620.194 480.556 621.444 483.853 621.928C487.908 622.523 491.348 622.034 494.174 620.461L496.382 627.991C492.039 630.114 487.219 630.787 481.922 630.01ZM476.561 604.457L496.183 607.337L496.302 606.527C496.619 604.364 496.105 602.412 494.76 600.668C493.476 598.878 491.375 597.769 488.456 597.341C485.807 596.952 483.352 597.503 481.09 598.993C478.891 600.437 477.381 602.259 476.561 604.457ZM528.846 636.897C523.279 636.08 519.418 633.415 517.264 628.902L509.853 648.356L499.556 646.845L519.494 594.525L529.791 596.036L527.942 600.734C531.811 597.326 536.042 595.96 540.637 596.634C545.123 597.292 548.508 599.253 550.79 602.514C553.072 605.776 553.84 609.947 553.094 615.028C552.499 619.082 551.144 622.859 549.029 626.359C546.968 629.866 544.13 632.652 540.514 634.717C536.952 636.789 533.062 637.516 528.846 636.897ZM528.488 627.485C531.84 627.977 534.791 627.057 537.342 624.726C539.901 622.341 541.454 619.283 542.001 615.553C542.406 612.797 541.92 610.461 540.545 608.548C539.169 606.634 537.211 605.491 534.67 605.118C531.211 604.61 527.981 605.737 524.98 608.5L519.981 621.681C521.49 624.939 524.326 626.874 528.488 627.485ZM569.936 641.934L559.557 640.411L570.552 611.213L559.606 609.606L562.954 600.904L595.224 605.64L591.876 614.343L580.93 612.736L569.936 641.934ZM615.284 607.59C617.879 607.971 620.205 608.865 622.262 610.271C624.32 611.678 625.854 613.449 626.866 615.585L628.682 610.551L639.06 612.074L624.636 649.963L614.258 648.44L616.107 643.741C612.239 647.149 608.034 648.52 603.494 647.854C598.953 647.187 595.542 645.223 593.259 641.962C590.977 638.7 590.209 634.529 590.955 629.448C591.558 625.34 592.886 621.559 594.939 618.105C597.054 614.606 599.892 611.819 603.454 609.747C607.071 607.682 611.014 606.964 615.284 607.59ZM615.561 616.991C612.264 616.507 609.308 617.453 606.696 619.831C604.137 622.216 602.588 625.247 602.048 628.922C601.643 631.679 602.129 634.014 603.505 635.928C604.88 637.842 606.838 638.985 609.379 639.358C612.947 639.882 616.173 638.781 619.057 636.057L624.057 622.876C622.501 619.555 619.669 617.594 615.561 616.991ZM645.145 652.973L634.848 651.462L649.515 613.609L659.812 615.12L654.486 628.833L670.702 631.213L676.028 617.5L686.326 619.011L671.659 656.865L661.361 655.353L667.261 639.985L651.126 637.617L645.145 652.973ZM691.694 659.805L681.802 658.353L696.145 620.453L706.442 621.964L697.697 644.866L722.577 624.332L732.956 625.856L718.613 663.756L708.316 662.245L717.273 638.463L691.694 659.805ZM739.619 666.84L727.538 665.066L742.353 652.166C740.518 651.124 739.106 649.646 738.116 647.734C737.181 645.83 736.892 643.662 737.249 641.229C737.82 637.337 739.694 634.161 742.872 631.701C746.103 629.249 750.016 628.36 754.611 629.034L779.584 632.699L765.241 670.6L754.944 669.089L759.838 656.058L752.216 654.939L739.619 666.84ZM751.856 646.107L762.964 647.737L766.067 639.578L753.824 637.781C752.31 637.559 750.999 637.836 749.892 638.612C748.784 639.388 748.131 640.452 747.932 641.803C747.575 644.236 748.883 645.67 751.856 646.107ZM460.218 682.589C458.65 682.359 457.401 681.651 456.471 680.465C455.594 679.287 455.263 677.969 455.478 676.509C455.787 674.401 456.736 672.829 458.323 671.792C459.973 670.708 461.663 670.294 463.393 670.548C465.015 670.786 466.263 671.494 467.14 672.671C468.07 673.857 468.428 675.18 468.214 676.639C467.905 678.747 466.925 680.343 465.275 681.426C463.633 682.455 461.947 682.843 460.218 682.589ZM448.824 725.229L438.526 723.718L452.95 685.829L463.247 687.34L448.824 725.229ZM474.621 730.01C470.999 729.478 468.238 728.355 466.336 726.64C464.496 724.879 463.782 722.593 464.195 719.782C464.33 718.864 464.569 717.988 464.912 717.154L472.23 697.77L465.743 696.818L469.079 688.196L475.566 689.149L479.488 678.791L489.867 680.314L485.944 690.672L493.89 691.838L490.473 700.448L482.527 699.281L476.298 715.761C476.095 716.394 475.962 716.926 475.898 717.359C475.565 719.629 476.669 720.951 479.209 721.324C480.452 721.506 481.438 721.375 482.166 720.929L481.357 729.259C479.515 730.148 477.27 730.398 474.621 730.01ZM514.376 693.851C516.97 694.232 519.296 695.125 521.354 696.532C523.411 697.938 524.946 699.709 525.958 701.846L527.773 696.811L538.152 698.335L523.728 736.223L513.35 734.7L515.199 730.002C511.33 733.41 507.126 734.781 502.585 734.114C498.045 733.448 494.633 731.484 492.351 728.222C490.069 724.961 489.301 720.789 490.046 715.708C490.649 711.6 491.977 707.819 494.03 704.366C496.145 700.866 498.984 698.08 502.546 696.008C506.162 693.943 510.105 693.224 514.376 693.851ZM514.653 703.251C511.355 702.767 508.4 703.714 505.787 706.091C503.228 708.477 501.679 711.507 501.14 715.183C500.735 717.94 501.221 720.275 502.596 722.189C503.972 724.102 505.93 725.246 508.471 725.618C512.038 726.142 515.264 725.042 518.149 722.318L523.148 709.136C521.593 705.816 518.761 703.854 514.653 703.251ZM544.237 739.234L533.939 737.722L553.796 685.39L564.093 686.902L544.237 739.234ZM576.138 699.603C574.571 699.373 573.322 698.665 572.392 697.479C571.515 696.302 571.184 694.983 571.398 693.524C571.708 691.415 572.656 689.843 574.244 688.806C575.894 687.723 577.584 687.308 579.314 687.562C580.935 687.8 582.184 688.508 583.061 689.686C583.991 690.871 584.349 692.194 584.135 693.654C583.825 695.762 582.846 697.357 581.196 698.44C579.554 699.469 577.868 699.857 576.138 699.603ZM564.744 742.244L554.447 740.732L568.871 702.843L579.168 704.355L564.744 742.244ZM595.569 747.762C589.731 746.905 585.293 744.597 582.256 740.838C579.28 737.033 578.185 732.455 578.971 727.104C579.923 720.617 582.917 715.452 587.954 711.608C592.999 707.71 598.738 706.233 605.17 707.177C612.684 708.28 617.604 711.625 619.932 717.213L611.36 722.001C610.067 718.774 607.555 716.887 603.825 716.34C600.204 715.808 597.036 716.696 594.323 719.003C591.664 721.319 590.057 724.368 589.502 728.152C589.081 731.017 589.671 733.395 591.271 735.287C592.925 737.186 595.157 738.342 597.968 738.754C601.211 739.23 604.131 738.334 606.728 736.065L611.311 743.778C606.816 747.314 601.569 748.643 595.569 747.762Z" fill="black"/>
<circle cx="564.589" cy="523.672" r="48.9221" transform="rotate(-81.65 564.589 523.672)" fill="#F3D8A3" stroke="#B02F1C" stroke-width="8.89493"/>
<path d="M531.141 519.273L556.538 513.895L568.987 491.114L574.365 516.511L597.146 528.96L571.749 534.338L559.299 557.119L553.921 531.722L531.141 519.273Z" fill="#B02F1C"/>
</svg>
