<svg width="1650" height="1216" viewBox="0 0 1650 1216" fill="none" xmlns="http://www.w3.org/2000/svg">
<rect x="1647.5" y="2.5" width="1203.54" height="844.49" transform="rotate(90 1647.5 2.5)" fill="#F3D8A3" stroke="black" stroke-width="5"/>
<g filter="url(#filter0_d_292_812)">
<path d="M786.509 1203.54C795.278 1203.54 802.387 1196.74 802.387 1188.36V8.7266C802.387 0.341882 255.618 8.7266 246.849 8.7266V390.87C238.08 390.87 8.5083 390.87 8.5083 390.87V1188.36C8.5083 1196.74 15.6169 1203.54 24.3859 1203.54H786.509Z" fill="#F3D8A3"/>
<path d="M804.887 8.72684C804.887 7.73919 804.369 7.06528 804.017 6.72782C803.672 6.39784 803.3 6.19821 803.05 6.08134C802.537 5.84142 801.932 5.67523 801.36 5.54813C800.175 5.28473 798.519 5.0587 796.492 4.85673C792.407 4.44973 786.467 4.1086 778.972 3.82157C763.964 3.24688 742.54 2.8863 716.836 2.68974C665.42 2.29655 596.784 2.55825 527.888 3.08231C390.044 4.13083 251.231 6.22684 246.849 6.22684H244.349V388.369H8.51074C8.50906 388.37 8.50781 388.414 8.50781 390.869V388.369H6.00781V1188.36C6.00796 1198.23 14.343 1206.04 24.3857 1206.04H786.509C796.552 1206.04 804.887 1198.23 804.887 1188.36V8.72684Z" stroke="black" stroke-width="5"/>
</g>
<rect x="50.4732" y="68.9654" width="751.069" height="1069.65" fill="#F5F0DD" stroke="black" stroke-width="1.93077"/>
<rect x="806.473" y="68.9654" width="751.069" height="1069.65" fill="#F5F0DD" stroke="black" stroke-width="1.93077"/>
<circle cx="18.4215" cy="18.4215" r="18.4215" transform="matrix(0 -1 -1 0 777.824 960.553)" fill="#0B0073"/>
<circle cx="18.4215" cy="18.4215" r="18.4215" transform="matrix(0 -1 -1 0 777.348 1090.84)" fill="#0B0073"/>
<circle cx="18.4215" cy="18.4215" r="18.4215" transform="matrix(0 -1 -1 0 781.332 818.443)" fill="#0B0073"/>
<circle cx="18.4215" cy="18.4215" r="18.4215" transform="matrix(0 -1 -1 0 780.453 688.628)" fill="#0B0073"/>
<circle cx="18.4215" cy="18.4215" r="18.4215" transform="matrix(0 -1 -1 0 781.332 546.519)" fill="#0B0073"/>
<circle cx="18.4215" cy="18.4215" r="18.4215" transform="matrix(0 -1 -1 0 780.453 416.692)" fill="#0B0073"/>
<circle cx="18.4215" cy="18.4215" r="18.4215" transform="matrix(0 -1 -1 0 780.453 274.571)" fill="#0B0073"/>
<circle cx="18.4215" cy="18.4215" r="18.4215" transform="matrix(0 -1 -1 0 777.824 143.866)" fill="#0B0073"/>
<path d="M759.84 128.515C811.87 68.917 863.47 112.573 808.511 160.276" stroke="black" stroke-width="8.77214"/>
<path d="M761.957 400.385C813.987 340.787 865.588 384.443 810.628 432.147" stroke="black" stroke-width="8.77214"/>
<path d="M761.957 530.213C813.987 470.615 865.588 514.271 810.628 561.975" stroke="black" stroke-width="8.77214"/>
<path d="M759.324 258.265C811.355 198.667 862.955 242.323 807.995 290.026" stroke="black" stroke-width="8.77214"/>
<path d="M762.836 672.399C814.866 612.801 866.466 656.457 811.507 704.161" stroke="black" stroke-width="8.77214"/>
<path d="M762.32 802.137C814.351 742.539 865.951 786.195 810.991 833.899" stroke="black" stroke-width="8.77214"/>
<path d="M759.324 944.324C811.355 884.726 862.955 928.381 807.995 976.085" stroke="black" stroke-width="8.77214"/>
<path d="M758.813 1074.07C810.843 1014.48 862.443 1058.13 807.484 1105.84" stroke="black" stroke-width="8.77214"/>
<g filter="url(#filter1_g_292_812)">
<rect x="438.508" y="1008.76" width="251.051" height="121.898" transform="rotate(-14.9496 438.508 1008.76)" fill="#F5F0DD"/>
<rect x="441.172" y="1010.31" width="246.698" height="117.544" transform="rotate(-14.9496 441.172 1010.31)" stroke="#8A2416" stroke-width="4.35349"/>
</g>
<g filter="url(#filter2_g_292_812)">
<path d="M480.828 1053.25C477.294 1054.19 474.066 1053.84 471.143 1052.19C468.237 1050.51 466.316 1047.91 465.379 1044.4C464.441 1040.89 464.816 1037.7 466.504 1034.81C468.208 1031.9 470.827 1029.97 474.361 1029.03C477.918 1028.08 481.146 1028.43 484.046 1030.09C486.968 1031.74 488.902 1034.34 489.845 1037.87C490.789 1041.4 490.405 1044.61 488.694 1047.5C487.007 1050.39 484.385 1052.3 480.828 1053.25ZM473.906 1048.03C475.604 1049.13 477.517 1049.4 479.647 1048.83C481.776 1048.26 483.303 1047.07 484.226 1045.27C485.149 1043.47 485.314 1041.46 484.72 1039.24C484.127 1037.01 482.981 1035.35 481.283 1034.25C479.585 1033.15 477.671 1032.88 475.542 1033.45C473.412 1034.02 471.886 1035.21 470.963 1037.01C470.063 1038.8 469.91 1040.81 470.504 1043.03C471.097 1045.26 472.231 1046.92 473.906 1048.03ZM504.369 1046.97C501.748 1047.66 499.374 1047.41 497.245 1046.2C495.117 1044.99 493.702 1043.07 493.003 1040.45C492.309 1037.85 492.583 1035.5 493.824 1033.38C495.065 1031.27 496.997 1029.87 499.618 1029.17C502.613 1028.37 505.12 1028.79 507.138 1030.43L504.955 1033.95C503.811 1032.95 502.455 1032.66 500.887 1033.08C499.53 1033.44 498.54 1034.19 497.918 1035.34C497.313 1036.45 497.207 1037.75 497.601 1039.22C497.995 1040.69 498.735 1041.78 499.821 1042.46C500.93 1043.15 502.164 1043.3 503.521 1042.94C505.042 1042.54 506.073 1041.61 506.614 1040.16L510.249 1042.09C509.325 1044.54 507.365 1046.17 504.369 1046.97ZM527.696 1037.99C526.514 1040.14 524.566 1041.57 521.852 1042.3C519.137 1043.02 516.732 1042.75 514.638 1041.48C512.561 1040.18 511.188 1038.28 510.52 1035.77C509.851 1033.27 510.096 1030.95 511.255 1028.81C512.437 1026.66 514.385 1025.22 517.1 1024.5C519.814 1023.78 522.219 1024.05 524.313 1025.32C526.407 1026.59 527.789 1028.48 528.457 1030.98C529.126 1033.49 528.872 1035.82 527.696 1037.99ZM517.258 1037.77C518.28 1038.5 519.458 1038.69 520.792 1038.33C522.126 1037.97 523.054 1037.23 523.577 1036.08C524.116 1034.91 524.199 1033.62 523.824 1032.22C523.455 1030.84 522.748 1029.79 521.702 1029.06C520.674 1028.31 519.493 1028.11 518.159 1028.47C516.825 1028.82 515.9 1029.58 515.384 1030.75C514.861 1031.89 514.785 1033.15 515.153 1034.53C515.528 1035.94 516.23 1037.02 517.258 1037.77ZM537.406 1032.35C538.434 1033.11 539.615 1033.3 540.949 1032.95C542.283 1032.59 543.208 1031.83 543.724 1030.67C544.264 1029.49 544.343 1028.19 543.962 1026.77C543.605 1025.43 542.904 1024.4 541.859 1023.68C540.83 1022.93 539.649 1022.73 538.315 1023.08C536.981 1023.44 536.053 1024.19 535.531 1025.33C535.009 1026.47 534.929 1027.72 535.291 1029.08C535.672 1030.51 536.377 1031.6 537.406 1032.35ZM542.008 1036.92C539.247 1037.65 536.818 1037.34 534.722 1035.97C532.644 1034.56 531.226 1032.45 530.47 1029.62C529.389 1025.57 529.305 1022.34 530.219 1019.94C531.133 1017.54 533.022 1015.75 535.888 1014.56C538.339 1013.5 539.486 1012.68 539.33 1012.1L543.964 1010.86C544.62 1013.32 542.674 1015.47 538.126 1017.31C534.718 1018.72 533.06 1020.68 533.152 1023.18C534.063 1020.96 535.747 1019.52 538.204 1018.87C540.568 1018.23 542.718 1018.59 544.654 1019.93C546.615 1021.26 547.92 1023.14 548.569 1025.57C549.238 1028.08 548.984 1030.41 547.809 1032.58C546.656 1034.75 544.723 1036.19 542.008 1036.92ZM562.373 1031.48C559.752 1032.18 557.369 1031.94 555.223 1030.75C553.077 1029.57 551.648 1027.65 550.936 1024.98C550.267 1022.48 550.524 1020.15 551.706 1018.01C552.911 1015.85 554.789 1014.44 557.34 1013.76C559.868 1013.08 562.147 1013.4 564.177 1014.71C566.201 1016 567.585 1018.04 568.328 1020.82L568.591 1021.81L555.989 1025.17C556.429 1026.26 557.182 1027.06 558.248 1027.58C559.314 1028.1 560.537 1028.17 561.918 1027.8C562.667 1027.6 563.433 1027.23 564.218 1026.7C565.026 1026.16 565.619 1025.56 565.996 1024.91L568.731 1027.26C567.441 1029.28 565.322 1030.69 562.373 1031.48ZM563.467 1019.94C563.141 1019 562.523 1018.24 561.615 1017.65C560.73 1017.06 559.621 1016.94 558.287 1017.3C557.023 1017.64 556.143 1018.29 555.648 1019.25C555.145 1020.18 554.967 1021.16 555.113 1022.17L563.467 1019.94ZM578.153 1026.81L573.695 1028L569.168 1011.05L573.626 1009.86L575.303 1016.14L582.324 1014.27L580.646 1007.98L585.104 1006.79L589.631 1023.75L585.173 1024.94L583.364 1018.16L576.344 1020.04L578.153 1026.81ZM598.515 1021.38L594.057 1022.57L589.53 1005.61L593.988 1004.42L595.666 1010.71L602.686 1008.83L601.009 1002.55L605.467 1001.36L609.994 1018.31L605.536 1019.5L603.727 1012.73L596.706 1014.6L598.515 1021.38ZM628.24 1011.15C627.058 1013.29 625.11 1014.73 622.395 1015.45C619.68 1016.18 617.276 1015.9 615.182 1014.63C613.105 1013.33 611.732 1011.43 611.063 1008.93C610.395 1006.42 610.64 1004.1 611.798 1001.96C612.98 999.814 614.928 998.379 617.643 997.654C620.358 996.93 622.762 997.203 624.856 998.474C626.951 999.744 628.332 1001.63 629.001 1004.14C629.669 1006.64 629.416 1008.98 628.24 1011.15ZM617.802 1010.92C618.824 1011.65 620.002 1011.84 621.336 1011.48C622.67 1011.13 623.598 1010.38 624.12 1009.24C624.66 1008.07 624.742 1006.78 624.367 1005.37C623.998 1003.99 623.291 1002.94 622.246 1002.22C621.217 1001.46 620.036 1001.26 618.702 1001.62C617.368 1001.98 616.443 1002.74 615.927 1003.9C615.405 1005.05 615.328 1006.31 615.697 1007.69C616.072 1009.09 616.773 1010.17 617.802 1010.92ZM642.587 1010.06C639.966 1010.76 637.591 1010.5 635.462 1009.29C633.334 1008.08 631.92 1006.16 631.22 1003.54C630.526 1000.95 630.8 998.591 632.041 996.48C633.283 994.368 635.214 992.963 637.835 992.263C640.83 991.463 643.337 991.884 645.355 993.527L643.172 997.043C642.028 996.045 640.672 995.755 639.105 996.173C637.747 996.536 636.757 997.289 636.135 998.433C635.53 999.547 635.425 1000.84 635.818 1002.32C636.212 1003.79 636.952 1004.87 638.038 1005.56C639.148 1006.24 640.381 1006.4 641.738 1006.04C643.259 1005.63 644.29 1004.7 644.831 1003.26L648.467 1005.18C647.542 1007.63 645.582 1009.26 642.587 1010.06ZM659.711 1005.04L655.217 1006.24L651.731 993.178L646.992 994.443L645.952 990.547L659.922 986.817L660.963 990.713L656.224 991.978L659.711 1005.04ZM671.528 1001.88L667.245 1003.02L662.718 986.07L667.176 984.88L669.913 995.13L674.162 983.015L678.655 981.815L683.182 998.77L678.724 999.96L675.884 989.324L671.528 1001.88ZM538.633 1064.74L543.127 1063.54L547.654 1080.5L523.187 1087.03L518.66 1070.08L523.118 1068.89L526.605 1081.94L532.151 1080.46L528.664 1067.4L533.122 1066.21L536.609 1079.27L542.12 1077.8L538.633 1064.74ZM561.886 1077.15C559.756 1077.72 557.782 1077.32 555.962 1075.95L558.268 1084.58L553.81 1085.77L547.558 1062.36L552.016 1061.17L552.588 1063.31C553.466 1061.25 554.981 1059.93 557.134 1059.35C559.357 1058.76 561.372 1059.07 563.177 1060.3C565 1061.49 566.28 1063.47 567.017 1066.23C567.755 1068.99 567.634 1071.35 566.654 1073.32C565.699 1075.28 564.109 1076.56 561.886 1077.15ZM559.423 1073.56C560.71 1073.21 561.618 1072.48 562.146 1071.36C562.698 1070.24 562.777 1068.94 562.384 1067.46C561.996 1066.01 561.283 1064.94 560.244 1064.24C559.228 1063.53 558.076 1063.35 556.789 1063.69C556.064 1063.89 555.388 1064.27 554.763 1064.84C554.137 1065.4 553.709 1066.01 553.478 1066.65L555.081 1072.65C555.599 1073.09 556.271 1073.4 557.096 1073.58C557.945 1073.75 558.721 1073.74 559.423 1073.56ZM576.833 1072.71L572.55 1073.85L568.023 1056.9L572.481 1055.71L575.218 1065.96L579.467 1053.84L583.96 1052.64L588.487 1069.6L584.029 1070.79L581.189 1060.15L576.833 1072.71ZM594.065 1049.49C595.867 1049.01 597.608 1049.47 599.287 1050.88L596.981 1042.24L601.439 1041.05L603.736 1049.65C604.45 1047.63 605.731 1046.38 607.58 1045.88C609.499 1045.37 611.267 1045.75 612.886 1047.02C614.521 1048.27 615.708 1050.27 616.445 1053.03C617.182 1055.79 617.155 1058.13 616.363 1060.05C615.594 1061.96 614.251 1063.17 612.332 1063.68C610.483 1064.17 608.742 1063.71 607.11 1062.29L609.416 1070.93L604.957 1072.12L602.652 1063.48C601.967 1065.52 600.689 1066.79 598.817 1067.29C596.898 1067.8 595.121 1067.44 593.485 1066.19C591.867 1064.92 590.689 1062.9 589.952 1060.14C589.214 1057.38 589.23 1055.04 589.999 1053.13C590.791 1051.22 592.146 1050 594.065 1049.49ZM596.563 1053.07C595.557 1053.34 594.848 1054.02 594.437 1055.11C594.049 1056.19 594.051 1057.47 594.445 1058.94C594.832 1060.39 595.464 1061.49 596.339 1062.23C597.238 1062.97 598.191 1063.21 599.197 1062.94C599.782 1062.78 600.306 1062.44 600.767 1061.92C601.252 1061.39 601.587 1060.81 601.771 1060.18L600.168 1054.18C599.72 1053.72 599.142 1053.39 598.433 1053.18C597.748 1052.96 597.125 1052.92 596.563 1053.07ZM609.798 1060.11C610.828 1059.83 611.537 1059.15 611.925 1058.07C612.313 1056.99 612.31 1055.71 611.917 1054.24C611.529 1052.79 610.898 1051.69 610.022 1050.95C609.147 1050.2 608.194 1049.97 607.165 1050.24C606.603 1050.39 606.08 1050.73 605.594 1051.26C605.109 1051.79 604.787 1052.37 604.626 1052.99L606.229 1058.99C606.677 1059.45 607.243 1059.79 607.928 1060C608.613 1060.22 609.237 1060.26 609.798 1060.11ZM630.045 1058.5L625.552 1059.7L622.065 1046.64L617.326 1047.91L616.286 1044.01L630.257 1040.28L631.297 1044.18L626.558 1045.44L630.045 1058.5ZM652.217 1052.58L647.759 1053.77L647.291 1052.01C646.461 1053.79 644.865 1054.99 642.501 1055.62C640.98 1056.03 639.48 1055.9 638 1055.25C636.538 1054.56 635.573 1053.34 635.104 1051.58C634.617 1049.76 634.836 1048.23 635.763 1047.01C636.713 1045.78 637.971 1044.95 639.539 1044.53C641.95 1043.89 643.924 1044.1 645.463 1045.17L644.854 1042.89C644.623 1042.02 644.099 1041.42 643.283 1041.09C642.467 1040.75 641.497 1040.74 640.374 1041.04C638.525 1041.53 637.053 1042.64 635.959 1044.36L633.477 1041.83C635.015 1039.51 637.246 1037.96 640.171 1037.18C642.348 1036.6 644.261 1036.63 645.91 1037.27C647.559 1037.9 648.687 1039.36 649.293 1041.63L652.217 1052.58ZM643.485 1052.13C645.147 1051.68 646.209 1050.87 646.672 1049.7L646.11 1047.59C645.122 1046.8 643.797 1046.63 642.136 1047.07C641.223 1047.32 640.525 1047.75 640.041 1048.38C639.552 1048.99 639.413 1049.69 639.626 1050.49C639.832 1051.26 640.298 1051.79 641.026 1052.07C641.753 1052.35 642.573 1052.37 643.485 1052.13Z" fill="#8A2416"/>
</g>
<g filter="url(#filter3_g_292_812)">
<circle cx="562.295" cy="977.089" r="18.1396" transform="rotate(-14.9496 562.295 977.089)" fill="#F5F0DD"/>
<circle cx="562.295" cy="977.089" r="19.9535" transform="rotate(-14.9496 562.295 977.089)" stroke="#8A2416" stroke-width="3.62791"/>
</g>
<g filter="url(#filter4_g_292_812)">
<path d="M558.656 964.165L564.768 972.811L575.31 973.8L566.664 979.912L565.675 990.454L559.563 981.807L549.021 980.819L557.667 974.707L558.656 964.165Z" fill="#8A2416"/>
</g>
<g filter="url(#filter5_g_292_812)">
<rect x="1256.51" y="1000.03" width="251.051" height="121.898" transform="rotate(-10.332 1256.51 1000.03)" fill="#F5F0DD"/>
<rect x="1259.04" y="1001.78" width="246.698" height="117.544" transform="rotate(-10.332 1259.04 1001.78)" stroke="#8A2416" stroke-width="4.35349"/>
</g>
<g filter="url(#filter6_g_292_812)">
<path d="M1295.11 1047.78C1291.51 1048.43 1288.32 1047.82 1285.54 1045.94C1282.78 1044.03 1281.07 1041.29 1280.42 1037.71C1279.77 1034.14 1280.4 1030.98 1282.32 1028.25C1284.25 1025.48 1287.01 1023.77 1290.61 1023.11C1294.23 1022.45 1297.42 1023.07 1300.18 1024.95C1302.96 1026.83 1304.68 1029.57 1305.34 1033.17C1305.99 1036.77 1305.35 1039.94 1303.41 1042.68C1301.5 1045.42 1298.73 1047.12 1295.11 1047.78ZM1288.63 1042.01C1290.23 1043.25 1292.12 1043.67 1294.29 1043.27C1296.46 1042.88 1298.07 1041.82 1299.14 1040.1C1300.2 1038.38 1300.53 1036.39 1300.12 1034.12C1299.7 1031.86 1298.7 1030.11 1297.09 1028.88C1295.49 1027.64 1293.6 1027.22 1291.43 1027.62C1289.27 1028.01 1287.65 1029.07 1286.58 1030.79C1285.54 1032.51 1285.23 1034.5 1285.64 1036.76C1286.05 1039.02 1287.05 1040.78 1288.63 1042.01ZM1319.08 1043.41C1316.41 1043.89 1314.07 1043.45 1312.04 1042.07C1310.02 1040.69 1308.76 1038.66 1308.28 1036C1307.79 1033.35 1308.26 1031.03 1309.66 1029.02C1311.07 1027.02 1313.11 1025.77 1315.78 1025.28C1318.83 1024.73 1321.29 1025.35 1323.17 1027.15L1320.71 1030.48C1319.65 1029.39 1318.32 1028.99 1316.73 1029.28C1315.35 1029.54 1314.3 1030.21 1313.59 1031.3C1312.89 1032.36 1312.68 1033.64 1312.96 1035.14C1313.23 1036.64 1313.88 1037.78 1314.91 1038.55C1315.96 1039.32 1317.18 1039.58 1318.56 1039.33C1320.11 1039.05 1321.21 1038.2 1321.87 1036.8L1325.33 1039.02C1324.22 1041.39 1322.13 1042.85 1319.08 1043.41ZM1343.05 1036.34C1341.7 1038.38 1339.65 1039.66 1336.88 1040.16C1334.12 1040.66 1331.74 1040.2 1329.76 1038.76C1327.79 1037.3 1326.58 1035.29 1326.11 1032.74C1325.65 1030.19 1326.08 1027.9 1327.41 1025.86C1328.76 1023.82 1330.81 1022.54 1333.58 1022.04C1336.34 1021.54 1338.72 1022 1340.7 1023.44C1342.69 1024.87 1343.91 1026.86 1344.38 1029.41C1344.84 1031.96 1344.4 1034.27 1343.05 1036.34ZM1332.67 1035.28C1333.63 1036.09 1334.79 1036.37 1336.15 1036.12C1337.5 1035.87 1338.49 1035.2 1339.1 1034.11C1339.73 1032.98 1339.92 1031.7 1339.66 1030.27C1339.4 1028.87 1338.78 1027.76 1337.8 1026.96C1336.83 1026.12 1335.67 1025.83 1334.31 1026.08C1332.96 1026.33 1331.97 1027.01 1331.36 1028.13C1330.75 1029.23 1330.57 1030.48 1330.83 1031.88C1331.09 1033.31 1331.7 1034.45 1332.67 1035.28ZM1353.19 1031.5C1354.15 1032.33 1355.31 1032.63 1356.67 1032.38C1358.03 1032.13 1359.01 1031.45 1359.62 1030.33C1360.25 1029.2 1360.44 1027.91 1360.17 1026.46C1359.92 1025.1 1359.31 1024.02 1358.32 1023.22C1357.36 1022.38 1356.2 1022.09 1354.84 1022.34C1353.48 1022.58 1352.49 1023.26 1351.88 1024.35C1351.27 1025.45 1351.09 1026.69 1351.34 1028.07C1351.61 1029.52 1352.22 1030.67 1353.19 1031.5ZM1357.41 1036.42C1354.59 1036.93 1352.2 1036.42 1350.22 1034.89C1348.26 1033.32 1347.02 1031.1 1346.49 1028.22C1345.74 1024.09 1345.92 1020.87 1347.02 1018.55C1348.13 1016.24 1350.15 1014.6 1353.11 1013.64C1355.63 1012.79 1356.84 1012.06 1356.73 1011.47L1361.45 1010.61C1361.91 1013.11 1359.8 1015.09 1355.12 1016.56C1351.6 1017.69 1349.79 1019.51 1349.68 1022.02C1350.77 1019.88 1352.57 1018.58 1355.07 1018.12C1357.47 1017.68 1359.59 1018.21 1361.41 1019.7C1363.26 1021.18 1364.41 1023.16 1364.86 1025.64C1365.32 1028.19 1364.88 1030.5 1363.54 1032.57C1362.21 1034.63 1360.17 1035.92 1357.41 1036.42ZM1378.14 1032.64C1375.47 1033.13 1373.12 1032.69 1371.07 1031.34C1369.03 1029.99 1367.76 1027.96 1367.27 1025.24C1366.8 1022.69 1367.24 1020.39 1368.59 1018.35C1369.97 1016.3 1371.96 1015.04 1374.55 1014.57C1377.13 1014.1 1379.37 1014.6 1381.29 1016.07C1383.2 1017.52 1384.42 1019.66 1384.94 1022.5L1385.12 1023.5L1372.29 1025.84C1372.64 1026.96 1373.32 1027.82 1374.34 1028.42C1375.37 1029.02 1376.58 1029.19 1377.98 1028.94C1378.75 1028.8 1379.54 1028.49 1380.37 1028.02C1381.22 1027.55 1381.85 1027 1382.28 1026.38L1384.82 1028.95C1383.37 1030.86 1381.15 1032.09 1378.14 1032.64ZM1380.16 1021.23C1379.91 1020.26 1379.36 1019.45 1378.5 1018.8C1377.67 1018.14 1376.57 1017.93 1375.21 1018.18C1373.92 1018.41 1373 1018.99 1372.42 1019.91C1371.85 1020.8 1371.59 1021.76 1371.65 1022.78L1380.16 1021.23ZM1394.25 1029.26L1389.71 1030.09L1386.56 1012.82L1391.1 1012L1392.27 1018.39L1399.41 1017.09L1398.25 1010.69L1402.79 1009.86L1405.93 1027.13L1401.4 1027.96L1400.14 1021.06L1392.99 1022.36L1394.25 1029.26ZM1414.98 1025.48L1410.44 1026.31L1407.29 1009.04L1411.83 1008.22L1413 1014.61L1420.15 1013.31L1418.98 1006.91L1423.52 1006.08L1426.67 1023.35L1422.13 1024.18L1420.87 1017.28L1413.72 1018.58L1414.98 1025.48ZM1445.43 1017.68C1444.08 1019.72 1442.02 1020.99 1439.26 1021.5C1436.5 1022 1434.12 1021.53 1432.14 1020.1C1430.17 1018.64 1428.96 1016.63 1428.49 1014.08C1428.03 1011.53 1428.46 1009.24 1429.78 1007.2C1431.13 1005.15 1433.19 1003.88 1435.96 1003.37C1438.72 1002.87 1441.09 1003.34 1443.08 1004.77C1445.07 1006.21 1446.29 1008.2 1446.76 1010.75C1447.22 1013.3 1446.78 1015.61 1445.43 1017.68ZM1435.05 1016.61C1436.01 1017.42 1437.17 1017.71 1438.52 1017.46C1439.88 1017.21 1440.87 1016.54 1441.48 1015.44C1442.11 1014.32 1442.3 1013.04 1442.04 1011.61C1441.78 1010.2 1441.16 1009.1 1440.18 1008.29C1439.21 1007.46 1438.05 1007.17 1436.69 1007.41C1435.33 1007.66 1434.35 1008.35 1433.74 1009.47C1433.13 1010.56 1432.95 1011.81 1433.21 1013.22C1433.47 1014.65 1434.08 1015.78 1435.05 1016.61ZM1459.82 1017.75C1457.15 1018.23 1454.8 1017.79 1452.78 1016.41C1450.76 1015.03 1449.5 1013.01 1449.01 1010.34C1448.53 1007.69 1449 1005.37 1450.4 1003.36C1451.81 1001.36 1453.85 1000.11 1456.52 999.626C1459.57 999.07 1462.03 999.692 1463.91 1001.49L1461.45 1004.82C1460.39 1003.73 1459.06 1003.34 1457.47 1003.63C1456.09 1003.88 1455.04 1004.55 1454.33 1005.64C1453.63 1006.7 1453.42 1007.98 1453.7 1009.48C1453.97 1010.99 1454.62 1012.12 1455.65 1012.9C1456.7 1013.66 1457.92 1013.92 1459.3 1013.67C1460.85 1013.39 1461.95 1012.55 1462.61 1011.15L1466.07 1013.36C1464.95 1015.73 1462.87 1017.19 1459.82 1017.75ZM1477.29 1014.12L1472.72 1014.95L1470.29 1001.66L1465.47 1002.54L1464.74 998.569L1478.97 995.976L1479.69 999.944L1474.87 1000.82L1477.29 1014.12ZM1489.33 1011.93L1484.96 1012.72L1481.82 995.457L1486.36 994.629L1488.26 1005.07L1493.47 993.333L1498.04 992.499L1501.19 1009.76L1496.65 1010.59L1494.68 999.76L1489.33 1011.93ZM1351.8 1063.89L1356.38 1063.05L1359.52 1080.32L1334.61 1084.86L1331.46 1067.59L1336 1066.77L1338.43 1080.06L1344.07 1079.03L1341.65 1065.74L1346.19 1064.91L1348.61 1078.2L1354.23 1077.18L1351.8 1063.89ZM1373.98 1078.12C1371.81 1078.52 1369.88 1077.96 1368.17 1076.45L1369.78 1085.24L1365.24 1086.07L1360.89 1062.23L1365.43 1061.4L1365.83 1063.58C1366.87 1061.59 1368.48 1060.4 1370.68 1060C1372.94 1059.59 1374.92 1060.06 1376.62 1061.43C1378.34 1062.76 1379.46 1064.84 1379.97 1067.65C1380.49 1070.46 1380.18 1072.81 1379.04 1074.69C1377.93 1076.57 1376.24 1077.71 1373.98 1078.12ZM1371.81 1074.34C1373.12 1074.11 1374.09 1073.45 1374.71 1072.38C1375.35 1071.3 1375.53 1070.01 1375.26 1068.51C1374.99 1067.03 1374.36 1065.9 1373.38 1065.12C1372.43 1064.34 1371.29 1064.06 1369.98 1064.3C1369.24 1064.44 1368.54 1064.76 1367.87 1065.28C1367.2 1065.79 1366.73 1066.36 1366.45 1066.98L1367.56 1073.09C1368.04 1073.57 1368.69 1073.93 1369.49 1074.18C1370.33 1074.42 1371.1 1074.47 1371.81 1074.34ZM1389.24 1074.9L1384.88 1075.69L1381.73 1058.43L1386.27 1057.6L1388.17 1068.04L1393.38 1056.3L1397.96 1055.47L1401.1 1072.73L1396.56 1073.56L1394.59 1062.73L1389.24 1074.9ZM1408.28 1053.15C1410.12 1052.81 1411.81 1053.41 1413.37 1054.95L1411.77 1046.16L1416.31 1045.33L1417.91 1054.09C1418.78 1052.13 1420.16 1050.98 1422.04 1050.64C1424 1050.28 1425.73 1050.8 1427.24 1052.2C1428.77 1053.57 1429.79 1055.66 1430.3 1058.47C1430.82 1061.29 1430.6 1063.61 1429.66 1065.46C1428.74 1067.3 1427.3 1068.4 1425.35 1068.76C1423.46 1069.1 1421.77 1068.5 1420.25 1066.95L1421.86 1075.75L1417.32 1076.57L1415.71 1067.78C1414.87 1069.76 1413.49 1070.92 1411.59 1071.27C1409.63 1071.62 1407.89 1071.12 1406.36 1069.75C1404.85 1068.35 1403.84 1066.24 1403.32 1063.43C1402.81 1060.62 1403.02 1058.29 1403.94 1056.45C1404.88 1054.6 1406.33 1053.5 1408.28 1053.15ZM1410.48 1056.92C1409.46 1057.1 1408.7 1057.72 1408.2 1058.77C1407.73 1059.82 1407.63 1061.09 1407.9 1062.6C1408.17 1064.07 1408.71 1065.22 1409.52 1066.03C1410.36 1066.84 1411.29 1067.15 1412.31 1066.96C1412.91 1066.85 1413.46 1066.56 1413.96 1066.07C1414.49 1065.58 1414.87 1065.03 1415.1 1064.42L1413.99 1058.31C1413.58 1057.82 1413.03 1057.44 1412.34 1057.17C1411.67 1056.9 1411.06 1056.81 1410.48 1056.92ZM1423.11 1064.99C1424.16 1064.8 1424.92 1064.18 1425.39 1063.14C1425.87 1062.09 1425.97 1060.82 1425.69 1059.31C1425.42 1057.84 1424.88 1056.69 1424.07 1055.88C1423.26 1055.07 1422.33 1054.76 1421.28 1054.95C1420.71 1055.05 1420.16 1055.35 1419.63 1055.84C1419.1 1056.33 1418.74 1056.88 1418.53 1057.48L1419.64 1063.59C1420.05 1064.09 1420.59 1064.47 1421.25 1064.74C1421.92 1065.01 1422.54 1065.1 1423.11 1064.99ZM1443.42 1065.02L1438.84 1065.85L1436.42 1052.56L1431.6 1053.44L1430.87 1049.47L1445.1 1046.88L1445.82 1050.84L1441 1051.72L1443.42 1065.02ZM1466 1060.9L1461.46 1061.73L1461.13 1059.94C1460.16 1061.65 1458.47 1062.72 1456.07 1063.16C1454.52 1063.44 1453.03 1063.19 1451.61 1062.42C1450.21 1061.62 1449.34 1060.32 1449.02 1058.53C1448.68 1056.67 1449.02 1055.17 1450.04 1054.03C1451.09 1052.87 1452.41 1052.15 1454.01 1051.86C1456.46 1051.42 1458.41 1051.79 1459.86 1052.97L1459.44 1050.65C1459.28 1049.77 1458.8 1049.13 1458.02 1048.73C1457.23 1048.33 1456.26 1048.24 1455.12 1048.45C1453.24 1048.79 1451.68 1049.78 1450.45 1051.4L1448.18 1048.68C1449.9 1046.49 1452.25 1045.13 1455.23 1044.59C1457.45 1044.18 1459.35 1044.36 1460.94 1045.13C1462.54 1045.9 1463.54 1047.44 1463.96 1049.75L1466 1060.9ZM1457.33 1059.75C1459.02 1059.44 1460.15 1058.72 1460.7 1057.59L1460.31 1055.44C1459.39 1054.57 1458.08 1054.3 1456.39 1054.6C1455.46 1054.77 1454.73 1055.15 1454.2 1055.74C1453.66 1056.31 1453.47 1057 1453.61 1057.81C1453.76 1058.59 1454.18 1059.16 1454.88 1059.5C1455.58 1059.84 1456.4 1059.92 1457.33 1059.75Z" fill="#8A2416"/>
</g>
<g filter="url(#filter7_g_292_812)">
<circle cx="1382.44" cy="978.42" r="18.1396" transform="rotate(-10.332 1382.44 978.42)" fill="#F5F0DD"/>
<circle cx="1382.44" cy="978.42" r="19.9535" transform="rotate(-10.332 1382.44 978.42)" stroke="#8A2416" stroke-width="3.62791"/>
</g>
<g filter="url(#filter8_g_292_812)">
<path d="M1379.86 965.245L1385.25 974.356L1395.68 976.189L1386.57 981.585L1384.74 992.014L1379.34 982.903L1368.91 981.069L1378.02 975.674L1379.86 965.245Z" fill="#8A2416"/>
</g>
<g filter="url(#filter9_d_292_812)">
<rect x="138.508" y="384" width="240" height="204" fill="#8EB973"/>
</g>
<rect x="215.508" y="285" width="57" height="142" fill="#808080" fill-opacity="0.5"/>
<g filter="url(#filter10_d_292_812)">
<rect x="438.508" y="585" width="240" height="204" fill="#DA7F7F"/>
</g>
<rect x="545.508" y="486" width="57" height="142" fill="#808080" fill-opacity="0.5"/>
<g filter="url(#filter11_d_292_812)">
<rect x="1153.51" y="366" width="300" height="274" fill="#C0D4B3"/>
</g>
<rect x="1275.51" y="285" width="57" height="142" fill="#808080" fill-opacity="0.5"/>
<g filter="url(#filter12_d_292_812)">
<rect x="923.508" y="818" width="291" height="245" fill="#A6D5EF"/>
</g>
<rect x="1069.51" y="713" width="57" height="142" fill="#808080" fill-opacity="0.5"/>
<g filter="url(#filter13_d_292_812)">
<rect x="138.508" y="828" width="240" height="204" fill="#FAF99B"/>
</g>
<rect x="245.508" y="729" width="57" height="142" fill="#808080" fill-opacity="0.5"/>
<defs>
<filter id="filter0_d_292_812" x="-0.0010426" y="0" width="810.897" height="1215.56" filterUnits="userSpaceOnUse" color-interpolation-filters="sRGB">
<feFlood flood-opacity="0" result="BackgroundImageFix"/>
<feColorMatrix in="SourceAlpha" type="matrix" values="0 0 0 0 0 0 0 0 0 0 0 0 0 0 0 0 0 0 127 0" result="hardAlpha"/>
<feOffset dy="3.50886"/>
<feGaussianBlur stdDeviation="1.75443"/>
<feComposite in2="hardAlpha" operator="out"/>
<feColorMatrix type="matrix" values="0 0 0 0 0 0 0 0 0 0 0 0 0 0 0 0 0 0 0.25 0"/>
<feBlend mode="normal" in2="BackgroundImageFix" result="effect1_dropShadow_292_812"/>
<feBlend mode="normal" in="SourceGraphic" in2="effect1_dropShadow_292_812" result="shape"/>
</filter>
<filter id="filter1_g_292_812" x="435.605" y="941.098" width="279.805" height="188.34" filterUnits="userSpaceOnUse" color-interpolation-filters="sRGB">
<feFlood flood-opacity="0" result="BackgroundImageFix"/>
<feBlend mode="normal" in="SourceGraphic" in2="BackgroundImageFix" result="shape"/>
<feTurbulence type="fractalNoise" baseFrequency="2.7564072608947754 2.7564072608947754" numOctaves="3" seed="130" />
<feDisplacementMap in="shape" scale="5.8046574592590332" xChannelSelector="R" yChannelSelector="G" result="displacedImage" width="100%" height="100%" />
<feMerge result="effect1_texture_292_812">
<feMergeNode in="displacedImage"/>
</feMerge>
</filter>
<filter id="filter2_g_292_812" x="459.242" y="972.068" width="239.918" height="135.896" filterUnits="userSpaceOnUse" color-interpolation-filters="sRGB">
<feFlood flood-opacity="0" result="BackgroundImageFix"/>
<feBlend mode="normal" in="SourceGraphic" in2="BackgroundImageFix" result="shape"/>
<feTurbulence type="fractalNoise" baseFrequency="2.7564072608947754 2.7564072608947754" numOctaves="3" seed="130" />
<feDisplacementMap in="shape" scale="5.8046574592590332" xChannelSelector="R" yChannelSelector="G" result="displacedImage" width="100%" height="100%" />
<feMerge result="effect1_texture_292_812">
<feMergeNode in="displacedImage"/>
</feMerge>
</filter>
<filter id="filter3_g_292_812" x="537.619" y="952.414" width="49.3515" height="49.3504" filterUnits="userSpaceOnUse" color-interpolation-filters="sRGB">
<feFlood flood-opacity="0" result="BackgroundImageFix"/>
<feBlend mode="normal" in="SourceGraphic" in2="BackgroundImageFix" result="shape"/>
<feTurbulence type="fractalNoise" baseFrequency="2.7564072608947754 2.7564072608947754" numOctaves="3" seed="130" />
<feDisplacementMap in="shape" scale="5.8046574592590332" xChannelSelector="R" yChannelSelector="G" result="displacedImage" width="100%" height="100%" />
<feMerge result="effect1_texture_292_812">
<feMergeNode in="displacedImage"/>
</feMerge>
</filter>
<filter id="filter4_g_292_812" x="546.119" y="961.263" width="32.0937" height="32.093" filterUnits="userSpaceOnUse" color-interpolation-filters="sRGB">
<feFlood flood-opacity="0" result="BackgroundImageFix"/>
<feBlend mode="normal" in="SourceGraphic" in2="BackgroundImageFix" result="shape"/>
<feTurbulence type="fractalNoise" baseFrequency="2.7564072608947754 2.7564072608947754" numOctaves="3" seed="130" />
<feDisplacementMap in="shape" scale="5.8046574592590332" xChannelSelector="R" yChannelSelector="G" result="displacedImage" width="100%" height="100%" />
<feMerge result="effect1_texture_292_812">
<feMergeNode in="displacedImage"/>
</feMerge>
</filter>
<filter id="filter5_g_292_812" x="1253.61" y="952.098" width="274.648" height="170.752" filterUnits="userSpaceOnUse" color-interpolation-filters="sRGB">
<feFlood flood-opacity="0" result="BackgroundImageFix"/>
<feBlend mode="normal" in="SourceGraphic" in2="BackgroundImageFix" result="shape"/>
<feTurbulence type="fractalNoise" baseFrequency="2.7564072608947754 2.7564072608947754" numOctaves="3" seed="130" />
<feDisplacementMap in="shape" scale="5.8046574592590332" xChannelSelector="R" yChannelSelector="G" result="displacedImage" width="100%" height="100%" />
<feMerge result="effect1_texture_292_812">
<feMergeNode in="displacedImage"/>
</feMerge>
</filter>
<filter id="filter6_g_292_812" x="1275.27" y="982.626" width="237.914" height="119.754" filterUnits="userSpaceOnUse" color-interpolation-filters="sRGB">
<feFlood flood-opacity="0" result="BackgroundImageFix"/>
<feBlend mode="normal" in="SourceGraphic" in2="BackgroundImageFix" result="shape"/>
<feTurbulence type="fractalNoise" baseFrequency="2.7564072608947754 2.7564072608947754" numOctaves="3" seed="130" />
<feDisplacementMap in="shape" scale="5.8046574592590332" xChannelSelector="R" yChannelSelector="G" result="displacedImage" width="100%" height="100%" />
<feMerge result="effect1_texture_292_812">
<feMergeNode in="displacedImage"/>
</feMerge>
</filter>
<filter id="filter7_g_292_812" x="1357.77" y="953.746" width="49.3457" height="49.3472" filterUnits="userSpaceOnUse" color-interpolation-filters="sRGB">
<feFlood flood-opacity="0" result="BackgroundImageFix"/>
<feBlend mode="normal" in="SourceGraphic" in2="BackgroundImageFix" result="shape"/>
<feTurbulence type="fractalNoise" baseFrequency="2.7564072608947754 2.7564072608947754" numOctaves="3" seed="130" />
<feDisplacementMap in="shape" scale="5.8046574592590332" xChannelSelector="R" yChannelSelector="G" result="displacedImage" width="100%" height="100%" />
<feMerge result="effect1_texture_292_812">
<feMergeNode in="displacedImage"/>
</feMerge>
</filter>
<filter id="filter8_g_292_812" x="1366.01" y="962.343" width="32.5742" height="32.5728" filterUnits="userSpaceOnUse" color-interpolation-filters="sRGB">
<feFlood flood-opacity="0" result="BackgroundImageFix"/>
<feBlend mode="normal" in="SourceGraphic" in2="BackgroundImageFix" result="shape"/>
<feTurbulence type="fractalNoise" baseFrequency="2.7564072608947754 2.7564072608947754" numOctaves="3" seed="130" />
<feDisplacementMap in="shape" scale="5.8046574592590332" xChannelSelector="R" yChannelSelector="G" result="displacedImage" width="100%" height="100%" />
<feMerge result="effect1_texture_292_812">
<feMergeNode in="displacedImage"/>
</feMerge>
</filter>
<filter id="filter9_d_292_812" x="134.508" y="384" width="248" height="212" filterUnits="userSpaceOnUse" color-interpolation-filters="sRGB">
<feFlood flood-opacity="0" result="BackgroundImageFix"/>
<feColorMatrix in="SourceAlpha" type="matrix" values="0 0 0 0 0 0 0 0 0 0 0 0 0 0 0 0 0 0 127 0" result="hardAlpha"/>
<feOffset dy="4"/>
<feGaussianBlur stdDeviation="2"/>
<feComposite in2="hardAlpha" operator="out"/>
<feColorMatrix type="matrix" values="0 0 0 0 0 0 0 0 0 0 0 0 0 0 0 0 0 0 0.25 0"/>
<feBlend mode="normal" in2="BackgroundImageFix" result="effect1_dropShadow_292_812"/>
<feBlend mode="normal" in="SourceGraphic" in2="effect1_dropShadow_292_812" result="shape"/>
</filter>
<filter id="filter10_d_292_812" x="434.508" y="585" width="248" height="212" filterUnits="userSpaceOnUse" color-interpolation-filters="sRGB">
<feFlood flood-opacity="0" result="BackgroundImageFix"/>
<feColorMatrix in="SourceAlpha" type="matrix" values="0 0 0 0 0 0 0 0 0 0 0 0 0 0 0 0 0 0 127 0" result="hardAlpha"/>
<feOffset dy="4"/>
<feGaussianBlur stdDeviation="2"/>
<feComposite in2="hardAlpha" operator="out"/>
<feColorMatrix type="matrix" values="0 0 0 0 0 0 0 0 0 0 0 0 0 0 0 0 0 0 0.25 0"/>
<feBlend mode="normal" in2="BackgroundImageFix" result="effect1_dropShadow_292_812"/>
<feBlend mode="normal" in="SourceGraphic" in2="effect1_dropShadow_292_812" result="shape"/>
</filter>
<filter id="filter11_d_292_812" x="1149.51" y="366" width="308" height="282" filterUnits="userSpaceOnUse" color-interpolation-filters="sRGB">
<feFlood flood-opacity="0" result="BackgroundImageFix"/>
<feColorMatrix in="SourceAlpha" type="matrix" values="0 0 0 0 0 0 0 0 0 0 0 0 0 0 0 0 0 0 127 0" result="hardAlpha"/>
<feOffset dy="4"/>
<feGaussianBlur stdDeviation="2"/>
<feComposite in2="hardAlpha" operator="out"/>
<feColorMatrix type="matrix" values="0 0 0 0 0 0 0 0 0 0 0 0 0 0 0 0 0 0 0.25 0"/>
<feBlend mode="normal" in2="BackgroundImageFix" result="effect1_dropShadow_292_812"/>
<feBlend mode="normal" in="SourceGraphic" in2="effect1_dropShadow_292_812" result="shape"/>
</filter>
<filter id="filter12_d_292_812" x="919.508" y="818" width="299" height="253" filterUnits="userSpaceOnUse" color-interpolation-filters="sRGB">
<feFlood flood-opacity="0" result="BackgroundImageFix"/>
<feColorMatrix in="SourceAlpha" type="matrix" values="0 0 0 0 0 0 0 0 0 0 0 0 0 0 0 0 0 0 127 0" result="hardAlpha"/>
<feOffset dy="4"/>
<feGaussianBlur stdDeviation="2"/>
<feComposite in2="hardAlpha" operator="out"/>
<feColorMatrix type="matrix" values="0 0 0 0 0 0 0 0 0 0 0 0 0 0 0 0 0 0 0.25 0"/>
<feBlend mode="normal" in2="BackgroundImageFix" result="effect1_dropShadow_292_812"/>
<feBlend mode="normal" in="SourceGraphic" in2="effect1_dropShadow_292_812" result="shape"/>
</filter>
<filter id="filter13_d_292_812" x="134.508" y="828" width="248" height="212" filterUnits="userSpaceOnUse" color-interpolation-filters="sRGB">
<feFlood flood-opacity="0" result="BackgroundImageFix"/>
<feColorMatrix in="SourceAlpha" type="matrix" values="0 0 0 0 0 0 0 0 0 0 0 0 0 0 0 0 0 0 127 0" result="hardAlpha"/>
<feOffset dy="4"/>
<feGaussianBlur stdDeviation="2"/>
<feComposite in2="hardAlpha" operator="out"/>
<feColorMatrix type="matrix" values="0 0 0 0 0 0 0 0 0 0 0 0 0 0 0 0 0 0 0.25 0"/>
<feBlend mode="normal" in2="BackgroundImageFix" result="effect1_dropShadow_292_812"/>
<feBlend mode="normal" in="SourceGraphic" in2="effect1_dropShadow_292_812" result="shape"/>
</filter>
</defs>
</svg>
