<svg width="831" height="1036" viewBox="0 0 831 1036" fill="none" xmlns="http://www.w3.org/2000/svg">
<rect x="203.873" y="0.987204" width="641.601" height="913.746" transform="rotate(12.8287 203.873 0.987204)" fill="#C7C7C7" stroke="black" stroke-width="1.64936"/>
<path d="M254.367 190.041L238.929 186.525L240.511 179.578L255.949 183.094L254.367 190.041ZM273.653 194.433L258.214 190.917L259.796 183.97L275.235 187.486L273.653 194.433ZM292.939 198.825L277.5 195.309L279.082 188.362L294.521 191.877L292.939 198.825ZM312.224 203.216L296.786 199.701L298.368 192.753L313.806 196.269L312.224 203.216ZM331.51 207.608L316.071 204.093L317.654 197.145L333.092 200.661L331.51 207.608ZM350.796 212L335.357 208.484L336.939 201.537L352.378 205.053L350.796 212ZM370.082 216.392L354.643 212.876L356.225 205.929L371.664 209.444L370.082 216.392ZM389.367 220.783L373.929 217.268L375.511 210.32L390.949 213.836L389.367 220.783ZM408.653 225.175L393.214 221.66L394.796 214.712L410.235 218.228L408.653 225.175ZM427.939 229.567L412.5 226.051L414.082 219.104L429.521 222.62L427.939 229.567ZM447.224 233.959L431.786 230.443L433.368 223.496L448.806 227.011L447.224 233.959ZM466.51 238.351L451.072 234.835L452.654 227.887L468.092 231.403L466.51 238.351ZM485.796 242.742L470.357 239.227L471.939 232.279L487.378 235.795L485.796 242.742ZM505.082 247.134L489.643 243.618L491.225 236.671L506.664 240.187L505.082 247.134ZM524.367 251.526L508.929 248.01L510.511 241.063L525.949 244.578L524.367 251.526ZM543.653 255.918L528.214 252.402L529.796 245.454L545.235 248.97L543.653 255.918ZM562.939 260.309L547.5 256.794L549.082 249.846L564.521 253.362L562.939 260.309ZM582.224 264.701L566.786 261.185L568.368 254.238L583.806 257.754L582.224 264.701ZM601.51 269.093L586.072 265.577L587.654 258.63L603.092 262.145L601.51 269.093ZM620.796 273.485L605.357 269.969L606.939 263.022L622.378 266.537L620.796 273.485ZM640.082 277.876L624.643 274.361L626.225 267.413L641.664 270.929L640.082 277.876ZM659.367 282.268L643.929 278.752L645.511 271.805L660.949 275.321L659.367 282.268ZM678.653 286.66L663.214 283.144L664.796 276.197L680.235 279.712L678.653 286.66ZM697.939 291.052L682.5 287.536L684.082 280.589L699.521 284.104L697.939 291.052ZM717.224 295.443L701.786 291.928L703.368 284.98L718.807 288.496L717.224 295.443Z" fill="black"/>
<path d="M151.094 643.551L135.655 640.035L137.237 633.088L152.676 636.603L151.094 643.551ZM170.38 647.942L154.941 644.427L156.523 637.479L171.962 640.995L170.38 647.942ZM189.665 652.334L174.227 648.819L175.809 641.871L191.247 645.387L189.665 652.334ZM208.951 656.726L193.512 653.21L195.094 646.263L210.533 649.779L208.951 656.726ZM228.237 661.118L212.798 657.602L214.38 650.655L229.819 654.17L228.237 661.118ZM247.522 665.509L232.084 661.994L233.666 655.046L249.104 658.562L247.522 665.509ZM266.808 669.901L251.369 666.386L252.952 659.438L268.39 662.954L266.808 669.901ZM286.094 674.293L270.655 670.777L272.237 663.83L287.676 667.346L286.094 674.293ZM305.38 678.685L289.941 675.169L291.523 668.222L306.962 671.737L305.38 678.685ZM324.665 683.077L309.227 679.561L310.809 672.613L326.247 676.129L324.665 683.077ZM343.951 687.468L328.512 683.953L330.094 677.005L345.533 680.521L343.951 687.468ZM363.237 691.86L347.798 688.344L349.38 681.397L364.819 684.913L363.237 691.86ZM382.522 696.252L367.084 692.736L368.666 685.789L384.104 689.304L382.522 696.252ZM401.808 700.644L386.37 697.128L387.952 690.18L403.39 693.696L401.808 700.644ZM421.094 705.035L405.655 701.52L407.237 694.572L422.676 698.088L421.094 705.035ZM440.38 709.427L424.941 705.911L426.523 698.964L441.962 702.48L440.38 709.427ZM459.665 713.819L444.227 710.303L445.809 703.356L461.247 706.871L459.665 713.819ZM478.951 718.211L463.512 714.695L465.094 707.748L480.533 711.263L478.951 718.211ZM498.237 722.602L482.798 719.087L484.38 712.139L499.819 715.655L498.237 722.602ZM517.522 726.994L502.084 723.478L503.666 716.531L519.104 720.047L517.522 726.994ZM536.808 731.386L521.37 727.87L522.952 720.923L538.39 724.438L536.808 731.386ZM556.094 735.778L540.655 732.262L542.237 725.315L557.676 728.83L556.094 735.778ZM575.38 740.169L559.941 736.654L561.523 729.706L576.962 733.222L575.38 740.169ZM594.665 744.561L579.227 741.045L580.809 734.098L596.247 737.614L594.665 744.561ZM613.951 748.953L598.512 745.437L600.094 738.49L615.533 742.006L613.951 748.953Z" fill="black"/>
<path d="M142.303 682.147L126.864 678.632L128.446 671.684L143.885 675.2L142.303 682.147ZM161.589 686.539L146.15 683.023L147.732 676.076L163.171 679.592L161.589 686.539ZM180.874 690.931L165.436 687.415L167.018 680.468L182.456 683.983L180.874 690.931ZM200.16 695.323L184.721 691.807L186.303 684.86L201.742 688.375L200.16 695.323ZM219.446 699.714L204.007 696.199L205.589 689.251L221.028 692.767L219.446 699.714ZM238.731 704.106L223.293 700.59L224.875 693.643L240.313 697.159L238.731 704.106ZM258.017 708.498L242.578 704.982L244.161 698.035L259.599 701.55L258.017 708.498ZM277.303 712.89L261.864 709.374L263.446 702.427L278.885 705.942L277.303 712.89ZM296.589 717.281L281.15 713.766L282.732 706.818L298.171 710.334L296.589 717.281ZM315.874 721.673L300.436 718.157L302.018 711.21L317.456 714.726L315.874 721.673ZM335.16 726.065L319.721 722.549L321.303 715.602L336.742 719.118L335.16 726.065ZM354.446 730.457L339.007 726.941L340.589 719.994L356.028 723.509L354.446 730.457ZM373.731 734.848L358.293 731.333L359.875 724.385L375.313 727.901L373.731 734.848ZM393.017 739.24L377.578 735.724L379.161 728.777L394.599 732.293L393.017 739.24ZM412.303 743.632L396.864 740.116L398.446 733.169L413.885 736.685L412.303 743.632ZM431.589 748.024L416.15 744.508L417.732 737.561L433.171 741.076L431.589 748.024ZM450.874 752.415L435.436 748.9L437.018 741.952L452.456 745.468L450.874 752.415ZM470.16 756.807L454.721 753.292L456.303 746.344L471.742 749.86L470.16 756.807ZM489.446 761.199L474.007 757.683L475.589 750.736L491.028 754.252L489.446 761.199ZM508.731 765.591L493.293 762.075L494.875 755.128L510.313 758.643L508.731 765.591ZM528.017 769.982L512.578 766.467L514.161 759.519L529.599 763.035L528.017 769.982ZM547.303 774.374L531.864 770.859L533.446 763.911L548.885 767.427L547.303 774.374ZM566.589 778.766L551.15 775.25L552.732 768.303L568.171 771.819L566.589 778.766ZM585.874 783.158L570.436 779.642L572.018 772.695L587.456 776.21L585.874 783.158ZM605.16 787.55L589.721 784.034L591.303 777.086L606.742 780.602L605.16 787.55Z" fill="black"/>
<path d="M134.246 717.528L118.808 714.012L120.39 707.064L135.828 710.58L134.246 717.528ZM153.532 721.919L138.093 718.404L139.675 711.456L155.114 714.972L153.532 721.919ZM172.818 726.311L157.379 722.795L158.961 715.848L174.4 719.364L172.818 726.311ZM192.103 730.703L176.665 727.187L178.247 720.24L193.685 723.755L192.103 730.703ZM211.389 735.095L195.95 731.579L197.532 724.631L212.971 728.147L211.389 735.095ZM230.675 739.486L215.236 735.971L216.818 729.023L232.257 732.539L230.675 739.486ZM249.96 743.878L234.522 740.362L236.104 733.415L251.543 736.931L249.96 743.878ZM269.246 748.27L253.808 744.754L255.39 737.807L270.828 741.322L269.246 748.27ZM288.532 752.662L273.093 749.146L274.675 742.199L290.114 745.714L288.532 752.662ZM307.818 757.053L292.379 753.538L293.961 746.59L309.4 750.106L307.818 757.053ZM327.103 761.445L311.665 757.929L313.247 750.982L328.685 754.498L327.103 761.445ZM346.389 765.837L330.95 762.321L332.532 755.374L347.971 758.889L346.389 765.837ZM365.675 770.229L350.236 766.713L351.818 759.766L367.257 763.281L365.675 770.229ZM384.96 774.62L369.522 771.105L371.104 764.157L386.543 767.673L384.96 774.62ZM404.246 779.012L388.808 775.496L390.39 768.549L405.828 772.065L404.246 779.012ZM423.532 783.404L408.093 779.888L409.675 772.941L425.114 776.457L423.532 783.404ZM442.818 787.796L427.379 784.28L428.961 777.333L444.4 780.848L442.818 787.796ZM462.103 792.187L446.665 788.672L448.247 781.724L463.685 785.24L462.103 792.187ZM481.389 796.579L465.95 793.063L467.532 786.116L482.971 789.632L481.389 796.579ZM500.675 800.971L485.236 797.455L486.818 790.508L502.257 794.024L500.675 800.971ZM519.96 805.363L504.522 801.847L506.104 794.9L521.543 798.415L519.96 805.363ZM539.246 809.754L523.808 806.239L525.39 799.291L540.828 802.807L539.246 809.754ZM558.532 814.146L543.093 810.631L544.675 803.683L560.114 807.199L558.532 814.146ZM577.818 818.538L562.379 815.022L563.961 808.075L579.4 811.591L577.818 818.538ZM597.103 822.93L581.665 819.414L583.247 812.467L598.685 815.982L597.103 822.93Z" fill="black"/>
<path d="M125.457 756.124L110.018 752.608L111.601 745.661L127.039 749.177L125.457 756.124ZM144.743 760.516L129.304 757L130.886 750.053L146.325 753.568L144.743 760.516ZM164.029 764.908L148.59 761.392L150.172 754.444L165.611 757.96L164.029 764.908ZM183.314 769.299L167.876 765.784L169.458 758.836L184.896 762.352L183.314 769.299ZM202.6 773.691L187.161 770.175L188.743 763.228L204.182 766.744L202.6 773.691ZM221.886 778.083L206.447 774.567L208.029 767.62L223.468 771.135L221.886 778.083ZM241.171 782.475L225.733 778.959L227.315 772.011L242.753 775.527L241.171 782.475ZM260.457 786.866L245.018 783.351L246.601 776.403L262.039 779.919L260.457 786.866ZM279.743 791.258L264.304 787.742L265.886 780.795L281.325 784.311L279.743 791.258ZM299.029 795.65L283.59 792.134L285.172 785.187L300.611 788.702L299.029 795.65ZM318.314 800.042L302.876 796.526L304.458 789.579L319.896 793.094L318.314 800.042ZM337.6 804.433L322.161 800.918L323.743 793.97L339.182 797.486L337.6 804.433ZM356.886 808.825L341.447 805.309L343.029 798.362L358.468 801.878L356.886 808.825ZM376.171 813.217L360.733 809.701L362.315 802.754L377.753 806.269L376.171 813.217ZM395.457 817.609L380.018 814.093L381.601 807.146L397.039 810.661L395.457 817.609ZM414.743 822L399.304 818.485L400.886 811.537L416.325 815.053L414.743 822ZM434.029 826.392L418.59 822.876L420.172 815.929L435.611 819.445L434.029 826.392ZM453.314 830.784L437.876 827.268L439.458 820.321L454.896 823.837L453.314 830.784ZM472.6 835.176L457.161 831.66L458.743 824.713L474.182 828.228L472.6 835.176ZM491.886 839.567L476.447 836.052L478.029 829.104L493.468 832.62L491.886 839.567ZM511.171 843.959L495.733 840.443L497.315 833.496L512.753 837.012L511.171 843.959ZM530.457 848.351L515.019 844.835L516.601 837.888L532.039 841.404L530.457 848.351ZM549.743 852.743L534.304 849.227L535.886 842.28L551.325 845.795L549.743 852.743ZM569.029 857.134L553.59 853.619L555.172 846.671L570.611 850.187L569.029 857.134ZM588.314 861.526L572.876 858.011L574.458 851.063L589.896 854.579L588.314 861.526Z" fill="black"/>
<path d="M245.578 228.638L230.14 225.122L231.722 218.175L247.16 221.69L245.578 228.638ZM264.864 233.029L249.425 229.514L251.007 222.566L266.446 226.082L264.864 233.029ZM284.15 237.421L268.711 233.905L270.293 226.958L285.732 230.474L284.15 237.421ZM303.435 241.813L287.997 238.297L289.579 231.35L305.017 234.866L303.435 241.813ZM322.721 246.205L307.282 242.689L308.864 235.742L324.303 239.257L322.721 246.205ZM342.007 250.596L326.568 247.081L328.15 240.133L343.589 243.649L342.007 250.596ZM361.292 254.988L345.854 251.472L347.436 244.525L362.875 248.041L361.292 254.988ZM380.578 259.38L365.14 255.864L366.722 248.917L382.16 252.433L380.578 259.38ZM399.864 263.772L384.425 260.256L386.007 253.309L401.446 256.824L399.864 263.772ZM419.15 268.163L403.711 264.648L405.293 257.7L420.732 261.216L419.15 268.163ZM438.435 272.555L422.997 269.04L424.579 262.092L440.017 265.608L438.435 272.555ZM457.721 276.947L442.282 273.431L443.865 266.484L459.303 270L457.721 276.947ZM477.007 281.339L461.568 277.823L463.15 270.876L478.589 274.391L477.007 281.339ZM496.293 285.73L480.854 282.215L482.436 275.267L497.875 278.783L496.293 285.73ZM515.578 290.122L500.14 286.607L501.722 279.659L517.16 283.175L515.578 290.122ZM534.864 294.514L519.425 290.998L521.007 284.051L536.446 287.567L534.864 294.514ZM554.15 298.906L538.711 295.39L540.293 288.443L555.732 291.958L554.15 298.906ZM573.435 303.298L557.997 299.782L559.579 292.834L575.017 296.35L573.435 303.298ZM592.721 307.689L577.282 304.174L578.865 297.226L594.303 300.742L592.721 307.689ZM612.007 312.081L596.568 308.565L598.15 301.618L613.589 305.134L612.007 312.081ZM631.293 316.473L615.854 312.957L617.436 306.01L632.875 309.525L631.293 316.473ZM650.578 320.865L635.14 317.349L636.722 310.401L652.16 313.917L650.578 320.865ZM669.864 325.256L654.425 321.741L656.007 314.793L671.446 318.309L669.864 325.256ZM689.15 329.648L673.711 326.132L675.293 319.185L690.732 322.701L689.15 329.648ZM708.435 334.04L692.997 330.524L694.579 323.577L710.017 327.092L708.435 334.04Z" fill="black"/>
<path d="M236.787 267.234L221.349 263.718L222.931 256.771L238.369 260.287L236.787 267.234ZM256.073 271.626L240.634 268.11L242.216 261.163L257.655 264.679L256.073 271.626ZM275.359 276.018L259.92 272.502L261.502 265.555L276.941 269.07L275.359 276.018ZM294.644 280.409L279.206 276.894L280.788 269.946L296.226 273.462L294.644 280.409ZM313.93 284.801L298.491 281.286L300.073 274.338L315.512 277.854L313.93 284.801ZM333.216 289.193L317.777 285.677L319.359 278.73L334.798 282.246L333.216 289.193ZM352.501 293.585L337.063 290.069L338.645 283.122L354.084 286.637L352.501 293.585ZM371.787 297.976L356.349 294.461L357.931 287.513L373.369 291.029L371.787 297.976ZM391.073 302.368L375.634 298.853L377.216 291.905L392.655 295.421L391.073 302.368ZM410.359 306.76L394.92 303.244L396.502 296.297L411.941 299.813L410.359 306.76ZM429.644 311.152L414.206 307.636L415.788 300.689L431.226 304.204L429.644 311.152ZM448.93 315.544L433.491 312.028L435.073 305.08L450.512 308.596L448.93 315.544ZM468.216 319.935L452.777 316.42L454.359 309.472L469.798 312.988L468.216 319.935ZM487.501 324.327L472.063 320.811L473.645 313.864L489.084 317.38L487.501 324.327ZM506.787 328.719L491.349 325.203L492.931 318.256L508.369 321.771L506.787 328.719ZM526.073 333.111L510.634 329.595L512.216 322.647L527.655 326.163L526.073 333.111ZM545.359 337.502L529.92 333.987L531.502 327.039L546.941 330.555L545.359 337.502ZM564.644 341.894L549.206 338.378L550.788 331.431L566.226 334.947L564.644 341.894ZM583.93 346.286L568.491 342.77L570.074 335.823L585.512 339.338L583.93 346.286ZM603.216 350.678L587.777 347.162L589.359 340.215L604.798 343.73L603.216 350.678ZM622.501 355.069L607.063 351.554L608.645 344.606L624.084 348.122L622.501 355.069ZM641.787 359.461L626.349 355.945L627.931 348.998L643.369 352.514L641.787 359.461ZM661.073 363.853L645.634 360.337L647.216 353.39L662.655 356.905L661.073 363.853ZM680.359 368.245L664.92 364.729L666.502 357.782L681.941 361.297L680.359 368.245ZM699.644 372.636L684.206 369.121L685.788 362.173L701.226 365.689L699.644 372.636Z" fill="black"/>
<path d="M228.731 302.614L213.292 299.099L214.874 292.151L230.313 295.667L228.731 302.614ZM248.016 307.006L232.578 303.49L234.16 296.543L249.598 300.059L248.016 307.006ZM267.302 311.398L251.863 307.882L253.445 300.935L268.884 304.451L267.302 311.398ZM286.588 315.79L271.149 312.274L272.731 305.327L288.17 308.842L286.588 315.79ZM305.873 320.181L290.435 316.666L292.017 309.718L307.455 313.234L305.873 320.181ZM325.159 324.573L309.72 321.058L311.303 314.11L326.741 317.626L325.159 324.573ZM344.445 328.965L329.006 325.449L330.588 318.502L346.027 322.018L344.445 328.965ZM363.731 333.357L348.292 329.841L349.874 322.894L365.313 326.409L363.731 333.357ZM383.016 337.748L367.578 334.233L369.16 327.285L384.598 330.801L383.016 337.748ZM402.302 342.14L386.863 338.625L388.445 331.677L403.884 335.193L402.302 342.14ZM421.588 346.532L406.149 343.016L407.731 336.069L423.17 339.585L421.588 346.532ZM440.873 350.924L425.435 347.408L427.017 340.461L442.455 343.976L440.873 350.924ZM460.159 355.316L444.721 351.8L446.303 344.852L461.741 348.368L460.159 355.316ZM479.445 359.707L464.006 356.192L465.588 349.244L481.027 352.76L479.445 359.707ZM498.731 364.099L483.292 360.583L484.874 353.636L500.313 357.152L498.731 364.099ZM518.016 368.491L502.578 364.975L504.16 358.028L519.598 361.543L518.016 368.491ZM537.302 372.883L521.863 369.367L523.445 362.419L538.884 365.935L537.302 372.883ZM556.588 377.274L541.149 373.759L542.731 366.811L558.17 370.327L556.588 377.274ZM575.873 381.666L560.435 378.15L562.017 371.203L577.455 374.719L575.873 381.666ZM595.159 386.058L579.721 382.542L581.303 375.595L596.741 379.11L595.159 386.058ZM614.445 390.45L599.006 386.934L600.588 379.987L616.027 383.502L614.445 390.45ZM633.731 394.841L618.292 391.326L619.874 384.378L635.313 387.894L633.731 394.841ZM653.016 399.233L637.578 395.717L639.16 388.77L654.598 392.286L653.016 399.233ZM672.302 403.625L656.863 400.109L658.445 393.162L673.884 396.677L672.302 403.625ZM691.588 408.017L676.149 404.501L677.731 397.554L693.17 401.069L691.588 408.017Z" fill="black"/>
<path d="M185.518 492.381L170.079 488.865L171.661 481.918L187.1 485.434L185.518 492.381ZM204.803 496.773L189.365 493.257L190.947 486.31L206.385 489.825L204.803 496.773ZM224.089 501.164L208.65 497.649L210.233 490.701L225.671 494.217L224.089 501.164ZM243.375 505.556L227.936 502.04L229.518 495.093L244.957 498.609L243.375 505.556ZM262.661 509.948L247.222 506.432L248.804 499.485L264.243 503.001L262.661 509.948ZM281.946 514.34L266.508 510.824L268.09 503.877L283.528 507.392L281.946 514.34ZM301.232 518.731L285.793 515.216L287.375 508.268L302.814 511.784L301.232 518.731ZM320.518 523.123L305.079 519.608L306.661 512.66L322.1 516.176L320.518 523.123ZM339.803 527.515L324.365 523.999L325.947 517.052L341.385 520.568L339.803 527.515ZM359.089 531.907L343.65 528.391L345.233 521.444L360.671 524.959L359.089 531.907ZM378.375 536.298L362.936 532.783L364.518 525.835L379.957 529.351L378.375 536.298ZM397.661 540.69L382.222 537.175L383.804 530.227L399.243 533.743L397.661 540.69ZM416.946 545.082L401.508 541.566L403.09 534.619L418.528 538.135L416.946 545.082ZM436.232 549.474L420.793 545.958L422.375 539.011L437.814 542.526L436.232 549.474ZM455.518 553.866L440.079 550.35L441.661 543.402L457.1 546.918L455.518 553.866ZM474.803 558.257L459.365 554.742L460.947 547.794L476.385 551.31L474.803 558.257ZM494.089 562.649L478.65 559.133L480.233 552.186L495.671 555.702L494.089 562.649ZM513.375 567.041L497.936 563.525L499.518 556.578L514.957 560.093L513.375 567.041ZM532.661 571.433L517.222 567.917L518.804 560.969L534.243 564.485L532.661 571.433ZM551.946 575.824L536.508 572.309L538.09 565.361L553.528 568.877L551.946 575.824ZM571.232 580.216L555.793 576.7L557.375 569.753L572.814 573.269L571.232 580.216ZM590.518 584.608L575.079 581.092L576.661 574.145L592.1 577.66L590.518 584.608ZM609.803 589L594.365 585.484L595.947 578.537L611.385 582.052L609.803 589ZM629.089 593.391L613.65 589.876L615.233 582.928L630.671 586.444L629.089 593.391ZM648.375 597.783L632.936 594.267L634.518 587.32L649.957 590.836L648.375 597.783Z" fill="black"/>
<path d="M176.729 530.977L161.29 527.462L162.872 520.514L178.311 524.03L176.729 530.977ZM196.014 535.369L180.576 531.853L182.158 524.906L197.596 528.422L196.014 535.369ZM215.3 539.761L199.861 536.245L201.443 529.298L216.882 532.813L215.3 539.761ZM234.586 544.153L219.147 540.637L220.729 533.69L236.168 537.205L234.586 544.153ZM253.871 548.544L238.433 545.029L240.015 538.081L255.454 541.597L253.871 548.544ZM273.157 552.936L257.719 549.42L259.301 542.473L274.739 545.989L273.157 552.936ZM292.443 557.328L277.004 553.812L278.586 546.865L294.025 550.381L292.443 557.328ZM311.729 561.72L296.29 558.204L297.872 551.257L313.311 554.772L311.729 561.72ZM331.014 566.111L315.576 562.596L317.158 555.648L332.596 559.164L331.014 566.111ZM350.3 570.503L334.861 566.987L336.443 560.04L351.882 563.556L350.3 570.503ZM369.586 574.895L354.147 571.379L355.729 564.432L371.168 567.948L369.586 574.895ZM388.871 579.287L373.433 575.771L375.015 568.824L390.454 572.339L388.871 579.287ZM408.157 583.678L392.719 580.163L394.301 573.215L409.739 576.731L408.157 583.678ZM427.443 588.07L412.004 584.555L413.586 577.607L429.025 581.123L427.443 588.07ZM446.729 592.462L431.29 588.946L432.872 581.999L448.311 585.515L446.729 592.462ZM466.014 596.854L450.576 593.338L452.158 586.391L467.596 589.906L466.014 596.854ZM485.3 601.245L469.861 597.73L471.443 590.782L486.882 594.298L485.3 601.245ZM504.586 605.637L489.147 602.122L490.729 595.174L506.168 598.69L504.586 605.637ZM523.871 610.029L508.433 606.513L510.015 599.566L525.454 603.082L523.871 610.029ZM543.157 614.421L527.719 610.905L529.301 603.958L544.739 607.473L543.157 614.421ZM562.443 618.813L547.004 615.297L548.586 608.349L564.025 611.865L562.443 618.813ZM581.729 623.204L566.29 619.689L567.872 612.741L583.311 616.257L581.729 623.204ZM601.014 627.596L585.576 624.08L587.158 617.133L602.596 620.649L601.014 627.596ZM620.3 631.988L604.861 628.472L606.443 621.525L621.882 625.04L620.3 631.988ZM639.586 636.38L624.147 632.864L625.729 625.916L641.168 629.432L639.586 636.38Z" fill="black"/>
<path d="M167.94 569.574L152.501 566.058L154.083 559.111L169.522 562.627L167.94 569.574ZM187.225 573.966L171.787 570.45L173.369 563.503L188.807 567.018L187.225 573.966ZM206.511 578.357L191.072 574.842L192.654 567.894L208.093 571.41L206.511 578.357ZM225.797 582.749L210.358 579.234L211.94 572.286L227.379 575.802L225.797 582.749ZM245.082 587.141L229.644 583.625L231.226 576.678L246.664 580.194L245.082 587.141ZM264.368 591.533L248.929 588.017L250.512 581.07L265.95 584.585L264.368 591.533ZM283.654 595.925L268.215 592.409L269.797 585.461L285.236 588.977L283.654 595.925ZM302.94 600.316L287.501 596.801L289.083 589.853L304.522 593.369L302.94 600.316ZM322.225 604.708L306.787 601.192L308.369 594.245L323.807 597.761L322.225 604.708ZM341.511 609.1L326.072 605.584L327.654 598.637L343.093 602.152L341.511 609.1ZM360.797 613.492L345.358 609.976L346.94 603.028L362.379 606.544L360.797 613.492ZM380.082 617.883L364.644 614.368L366.226 607.42L381.664 610.936L380.082 617.883ZM399.368 622.275L383.929 618.759L385.512 611.812L400.95 615.328L399.368 622.275ZM418.654 626.667L403.215 623.151L404.797 616.204L420.236 619.719L418.654 626.667ZM437.94 631.059L422.501 627.543L424.083 620.595L439.522 624.111L437.94 631.059ZM457.225 635.45L441.787 631.935L443.369 624.987L458.807 628.503L457.225 635.45ZM476.511 639.842L461.072 636.326L462.654 629.379L478.093 632.895L476.511 639.842ZM495.797 644.234L480.358 640.718L481.94 633.771L497.379 637.286L495.797 644.234ZM515.082 648.626L499.644 645.11L501.226 638.163L516.664 641.678L515.082 648.626ZM534.368 653.017L518.929 649.502L520.512 642.554L535.95 646.07L534.368 653.017ZM553.654 657.409L538.215 653.893L539.797 646.946L555.236 650.462L553.654 657.409ZM572.94 661.801L557.501 658.285L559.083 651.338L574.522 654.854L572.94 661.801ZM592.225 666.193L576.787 662.677L578.369 655.73L593.807 659.245L592.225 666.193ZM611.511 670.584L596.072 667.069L597.654 660.121L613.093 663.637L611.511 670.584ZM630.797 674.976L615.358 671.46L616.94 664.513L632.379 668.029L630.797 674.976Z" fill="black"/>
<path d="M159.883 604.954L144.444 601.439L146.026 594.491L161.465 598.007L159.883 604.954ZM179.169 609.346L163.73 605.83L165.312 598.883L180.751 602.399L179.169 609.346ZM198.454 613.738L183.016 610.222L184.598 603.275L200.036 606.79L198.454 613.738ZM217.74 618.129L202.301 614.614L203.883 607.666L219.322 611.182L217.74 618.129ZM237.026 622.521L221.587 619.006L223.169 612.058L238.608 615.574L237.026 622.521ZM256.311 626.913L240.873 623.397L242.455 616.45L257.894 619.966L256.311 626.913ZM275.597 631.305L260.159 627.789L261.741 620.842L277.179 624.357L275.597 631.305ZM294.883 635.697L279.444 632.181L281.026 625.233L296.465 628.749L294.883 635.697ZM314.169 640.088L298.73 636.573L300.312 629.625L315.751 633.141L314.169 640.088ZM333.454 644.48L318.016 640.964L319.598 634.017L335.036 637.533L333.454 644.48ZM352.74 648.872L337.301 645.356L338.883 638.409L354.322 641.924L352.74 648.872ZM372.026 653.264L356.587 649.748L358.169 642.8L373.608 646.316L372.026 653.264ZM391.311 657.655L375.873 654.14L377.455 647.192L392.894 650.708L391.311 657.655ZM410.597 662.047L395.159 658.531L396.741 651.584L412.179 655.1L410.597 662.047ZM429.883 666.439L414.444 662.923L416.026 655.976L431.465 659.491L429.883 666.439ZM449.169 670.831L433.73 667.315L435.312 660.368L450.751 663.883L449.169 670.831ZM468.454 675.222L453.016 671.707L454.598 664.759L470.036 668.275L468.454 675.222ZM487.74 679.614L472.301 676.098L473.883 669.151L489.322 672.667L487.74 679.614ZM507.026 684.006L491.587 680.49L493.169 673.543L508.608 677.058L507.026 684.006ZM526.311 688.398L510.873 684.882L512.455 677.935L527.894 681.45L526.311 688.398ZM545.597 692.789L530.159 689.274L531.741 682.326L547.179 685.842L545.597 692.789ZM564.883 697.181L549.444 693.665L551.026 686.718L566.465 690.234L564.883 697.181ZM584.169 701.573L568.73 698.057L570.312 691.11L585.751 694.626L584.169 701.573ZM603.454 705.965L588.016 702.449L589.598 695.502L605.036 699.017L603.454 705.965ZM622.74 710.356L607.301 706.841L608.884 699.893L624.322 703.409L622.74 710.356Z" fill="black"/>
<path d="M219.941 341.211L204.503 337.695L206.085 330.748L221.524 334.264L219.941 341.211ZM239.227 345.603L223.789 342.087L225.371 335.14L240.809 338.655L239.227 345.603ZM258.513 349.994L243.074 346.479L244.656 339.531L260.095 343.047L258.513 349.994ZM277.799 354.386L262.36 350.871L263.942 343.923L279.381 347.439L277.799 354.386ZM297.084 358.778L281.646 355.262L283.228 348.315L298.666 351.831L297.084 358.778ZM316.37 363.17L300.931 359.654L302.513 352.707L317.952 356.222L316.37 363.17ZM335.656 367.562L320.217 364.046L321.799 357.098L337.238 360.614L335.656 367.562ZM354.941 371.953L339.503 368.438L341.085 361.49L356.524 365.006L354.941 371.953ZM374.227 376.345L358.789 372.829L360.371 365.882L375.809 369.398L374.227 376.345ZM393.513 380.737L378.074 377.221L379.656 370.274L395.095 373.789L393.513 380.737ZM412.799 385.129L397.36 381.613L398.942 374.665L414.381 378.181L412.799 385.129ZM432.084 389.52L416.646 386.005L418.228 379.057L433.666 382.573L432.084 389.52ZM451.37 393.912L435.931 390.396L437.514 383.449L452.952 386.965L451.37 393.912ZM470.656 398.304L455.217 394.788L456.799 387.841L472.238 391.356L470.656 398.304ZM489.941 402.696L474.503 399.18L476.085 392.233L491.524 395.748L489.941 402.696ZM509.227 407.087L493.789 403.572L495.371 396.624L510.809 400.14L509.227 407.087ZM528.513 411.479L513.074 407.963L514.656 401.016L530.095 404.532L528.513 411.479ZM547.799 415.871L532.36 412.355L533.942 405.408L549.381 408.924L547.799 415.871ZM567.084 420.263L551.646 416.747L553.228 409.8L568.666 413.315L567.084 420.263ZM586.37 424.654L570.931 421.139L572.514 414.191L587.952 417.707L586.37 424.654ZM605.656 429.046L590.217 425.53L591.799 418.583L607.238 422.099L605.656 429.046ZM624.942 433.438L609.503 429.922L611.085 422.975L626.524 426.491L624.942 433.438ZM644.227 437.83L628.789 434.314L630.371 427.367L645.809 430.882L644.227 437.83ZM663.513 442.221L648.074 438.706L649.656 431.758L665.095 435.274L663.513 442.221ZM682.799 446.613L667.36 443.098L668.942 436.15L684.381 439.666L682.799 446.613Z" fill="black"/>
<path d="M211.152 379.808L195.714 376.292L197.296 369.344L212.734 372.86L211.152 379.808ZM230.438 384.199L214.999 380.684L216.582 373.736L232.02 377.252L230.438 384.199ZM249.724 388.591L234.285 385.075L235.867 378.128L251.306 381.644L249.724 388.591ZM269.01 392.983L253.571 389.467L255.153 382.52L270.592 386.035L269.01 392.983ZM288.295 397.375L272.857 393.859L274.439 386.911L289.877 390.427L288.295 397.375ZM307.581 401.766L292.142 398.251L293.724 391.303L309.163 394.819L307.581 401.766ZM326.867 406.158L311.428 402.642L313.01 395.695L328.449 399.211L326.867 406.158ZM346.152 410.55L330.714 407.034L332.296 400.087L347.734 403.602L346.152 410.55ZM365.438 414.942L350 411.426L351.582 404.479L367.02 407.994L365.438 414.942ZM384.724 419.333L369.285 415.818L370.867 408.87L386.306 412.386L384.724 419.333ZM404.01 423.725L388.571 420.209L390.153 413.262L405.592 416.778L404.01 423.725ZM423.295 428.117L407.857 424.601L409.439 417.654L424.877 421.17L423.295 428.117ZM442.581 432.509L427.142 428.993L428.724 422.046L444.163 425.561L442.581 432.509ZM461.867 436.9L446.428 433.385L448.01 426.437L463.449 429.953L461.867 436.9ZM481.152 441.292L465.714 437.776L467.296 430.829L482.734 434.345L481.152 441.292ZM500.438 445.684L485 442.168L486.582 435.221L502.02 438.737L500.438 445.684ZM519.724 450.076L504.285 446.56L505.867 439.613L521.306 443.128L519.724 450.076ZM539.01 454.467L523.571 450.952L525.153 444.004L540.592 447.52L539.01 454.467ZM558.295 458.859L542.857 455.344L544.439 448.396L559.877 451.912L558.295 458.859ZM577.581 463.251L562.142 459.735L563.724 452.788L579.163 456.304L577.581 463.251ZM596.867 467.643L581.428 464.127L583.01 457.18L598.449 460.695L596.867 467.643ZM616.152 472.034L600.714 468.519L602.296 461.571L617.735 465.087L616.152 472.034ZM635.438 476.426L620 472.911L621.582 465.963L637.02 469.479L635.438 476.426ZM654.724 480.818L639.285 477.302L640.867 470.355L656.306 473.871L654.724 480.818ZM674.01 485.21L658.571 481.694L660.153 474.747L675.592 478.262L674.01 485.21Z" fill="black"/>
<path d="M202.363 418.404L186.925 414.888L188.507 407.941L203.945 411.457L202.363 418.404ZM221.649 422.796L206.21 419.28L207.792 412.333L223.231 415.848L221.649 422.796ZM240.935 427.187L225.496 423.672L227.078 416.724L242.517 420.24L240.935 427.187ZM260.22 431.579L244.782 428.064L246.364 421.116L261.803 424.632L260.22 431.579ZM279.506 435.971L264.068 432.455L265.65 425.508L281.088 429.024L279.506 435.971ZM298.792 440.363L283.353 436.847L284.935 429.9L300.374 433.415L298.792 440.363ZM318.078 444.755L302.639 441.239L304.221 434.291L319.66 437.807L318.078 444.755ZM337.363 449.146L321.925 445.631L323.507 438.683L338.945 442.199L337.363 449.146ZM356.649 453.538L341.21 450.022L342.793 443.075L358.231 446.591L356.649 453.538ZM375.935 457.93L360.496 454.414L362.078 447.467L377.517 450.982L375.935 457.93ZM395.221 462.322L379.782 458.806L381.364 451.858L396.803 455.374L395.221 462.322ZM414.506 466.713L399.068 463.198L400.65 456.25L416.088 459.766L414.506 466.713ZM433.792 471.105L418.353 467.589L419.935 460.642L435.374 464.158L433.792 471.105ZM453.078 475.497L437.639 471.981L439.221 465.034L454.66 468.549L453.078 475.497ZM472.363 479.889L456.925 476.373L458.507 469.426L473.945 472.941L472.363 479.889ZM491.649 484.28L476.21 480.765L477.793 473.817L493.231 477.333L491.649 484.28ZM510.935 488.672L495.496 485.156L497.078 478.209L512.517 481.725L510.935 488.672ZM530.221 493.064L514.782 489.548L516.364 482.601L531.803 486.116L530.221 493.064ZM549.506 497.456L534.068 493.94L535.65 486.993L551.088 490.508L549.506 497.456ZM568.792 501.847L553.353 498.332L554.935 491.384L570.374 494.9L568.792 501.847ZM588.078 506.239L572.639 502.723L574.221 495.776L589.66 499.292L588.078 506.239ZM607.363 510.631L591.925 507.115L593.507 500.168L608.945 503.684L607.363 510.631ZM626.649 515.023L611.21 511.507L612.793 504.56L628.231 508.075L626.649 515.023ZM645.935 519.414L630.496 515.899L632.078 508.951L647.517 512.467L645.935 519.414ZM665.221 523.806L649.782 520.29L651.364 513.343L666.803 516.859L665.221 523.806Z" fill="black"/>
<path d="M194.307 453.784L178.868 450.269L180.45 443.321L195.889 446.837L194.307 453.784ZM213.592 458.176L198.154 454.66L199.736 447.713L215.174 451.229L213.592 458.176ZM232.878 462.568L217.44 459.052L219.022 452.105L234.46 455.62L232.878 462.568ZM252.164 466.96L236.725 463.444L238.307 456.497L253.746 460.012L252.164 466.96ZM271.45 471.351L256.011 467.836L257.593 460.888L273.032 464.404L271.45 471.351ZM290.735 475.743L275.297 472.227L276.879 465.28L292.317 468.796L290.735 475.743ZM310.021 480.135L294.582 476.619L296.164 469.672L311.603 473.188L310.021 480.135ZM329.307 484.527L313.868 481.011L315.45 474.064L330.889 477.579L329.307 484.527ZM348.592 488.918L333.154 485.403L334.736 478.455L350.174 481.971L348.592 488.918ZM367.878 493.31L352.44 489.794L354.022 482.847L369.46 486.363L367.878 493.31ZM387.164 497.702L371.725 494.186L373.307 487.239L388.746 490.755L387.164 497.702ZM406.45 502.094L391.011 498.578L392.593 491.631L408.032 495.146L406.45 502.094ZM425.735 506.485L410.297 502.97L411.879 496.022L427.317 499.538L425.735 506.485ZM445.021 510.877L429.582 507.362L431.164 500.414L446.603 503.93L445.021 510.877ZM464.307 515.269L448.868 511.753L450.45 504.806L465.889 508.322L464.307 515.269ZM483.592 519.661L468.154 516.145L469.736 509.198L485.175 512.713L483.592 519.661ZM502.878 524.052L487.44 520.537L489.022 513.589L504.46 517.105L502.878 524.052ZM522.164 528.444L506.725 524.929L508.307 517.981L523.746 521.497L522.164 528.444ZM541.45 532.836L526.011 529.32L527.593 522.373L543.032 525.889L541.45 532.836ZM560.735 537.228L545.297 533.712L546.879 526.765L562.317 530.28L560.735 537.228ZM580.021 541.62L564.582 538.104L566.164 531.156L581.603 534.672L580.021 541.62ZM599.307 546.011L583.868 542.496L585.45 535.548L600.889 539.064L599.307 546.011ZM618.592 550.403L603.154 546.887L604.736 539.94L620.175 543.456L618.592 550.403ZM637.878 554.795L622.44 551.279L624.022 544.332L639.46 547.847L637.878 554.795ZM657.164 559.187L641.725 555.671L643.307 548.723L658.746 552.239L657.164 559.187Z" fill="black"/>
</svg>
