<svg width="924" height="1083" viewBox="0 0 924 1083" fill="none" xmlns="http://www.w3.org/2000/svg">
<rect x="320.953" y="1.0612" width="641.601" height="913.746" transform="rotate(20.4927 320.953 1.0612)" fill="#C7C7C7" stroke="black" stroke-width="1.64936"/>
<path d="M331.923 232.24L317.091 226.697L319.585 220.023L334.417 225.566L331.923 232.24ZM350.45 239.165L335.619 233.621L338.113 226.947L352.945 232.49L350.45 239.165ZM368.978 246.089L354.146 240.546L356.641 233.872L371.473 239.415L368.978 246.089ZM387.506 253.014L372.674 247.471L375.169 240.796L390 246.339L387.506 253.014ZM406.034 259.938L391.202 254.395L393.696 247.721L408.528 253.264L406.034 259.938ZM424.561 266.863L409.73 261.32L412.224 254.645L427.056 260.189L424.561 266.863ZM443.089 273.787L428.257 268.244L430.752 261.57L445.584 267.113L443.089 273.787ZM461.617 280.712L446.785 275.169L449.279 268.494L464.111 274.038L461.617 280.712ZM480.145 287.636L465.313 282.093L467.807 275.419L482.639 280.962L480.145 287.636ZM498.672 294.561L483.84 289.018L486.335 282.343L501.167 287.887L498.672 294.561ZM517.2 301.486L502.368 295.942L504.863 289.268L519.695 294.811L517.2 301.486ZM535.728 308.41L520.896 302.867L523.39 296.193L538.222 301.736L535.728 308.41ZM554.256 315.335L539.424 309.791L541.918 303.117L556.75 308.66L554.256 315.335ZM572.783 322.259L557.951 316.716L560.446 310.042L575.278 315.585L572.783 322.259ZM591.311 329.184L576.479 323.64L578.974 316.966L593.805 322.509L591.311 329.184ZM609.839 336.108L595.007 330.565L597.501 323.891L612.333 329.434L609.839 336.108ZM628.367 343.033L613.535 337.49L616.029 330.815L630.861 336.358L628.367 343.033ZM646.894 349.957L632.062 344.414L634.557 337.74L649.389 343.283L646.894 349.957ZM665.422 356.882L650.59 351.339L653.085 344.664L667.916 350.208L665.422 356.882ZM683.95 363.806L669.118 358.263L671.612 351.589L686.444 357.132L683.95 363.806ZM702.477 370.731L687.646 365.188L690.14 358.513L704.972 364.057L702.477 370.731ZM721.005 377.655L706.173 372.112L708.668 365.438L723.5 370.981L721.005 377.655ZM739.533 384.58L724.701 379.037L727.196 372.362L742.027 377.906L739.533 384.58ZM758.061 391.505L743.229 385.961L745.723 379.287L760.555 384.83L758.061 391.505ZM776.588 398.429L761.757 392.886L764.251 386.212L779.083 391.755L776.588 398.429Z" fill="black"/>
<path d="M169.091 667.926L154.259 662.382L156.753 655.708L171.585 661.251L169.091 667.926ZM187.618 674.85L172.787 669.307L175.281 662.633L190.113 668.176L187.618 674.85ZM206.146 681.775L191.314 676.231L193.809 669.557L208.641 675.1L206.146 681.775ZM224.674 688.699L209.842 683.156L212.336 676.482L227.168 682.025L224.674 688.699ZM243.202 695.624L228.37 690.08L230.864 683.406L245.696 688.949L243.202 695.624ZM261.729 702.548L246.898 697.005L249.392 690.331L264.224 695.874L261.729 702.548ZM280.257 709.473L265.425 703.93L267.92 697.255L282.752 702.798L280.257 709.473ZM298.785 716.397L283.953 710.854L286.447 704.18L301.279 709.723L298.785 716.397ZM317.313 723.322L302.481 717.779L304.975 711.104L319.807 716.648L317.313 723.322ZM335.84 730.246L321.008 724.703L323.503 718.029L338.335 723.572L335.84 730.246ZM354.368 737.171L339.536 731.628L342.031 724.953L356.863 730.497L354.368 737.171ZM372.896 744.096L358.064 738.552L360.558 731.878L375.39 737.421L372.896 744.096ZM391.424 751.02L376.592 745.477L379.086 738.802L393.918 744.346L391.424 751.02ZM409.951 757.945L395.119 752.401L397.614 745.727L412.446 751.27L409.951 757.945ZM428.479 764.869L413.647 759.326L416.142 752.652L430.973 758.195L428.479 764.869ZM447.007 771.794L432.175 766.25L434.669 759.576L449.501 765.119L447.007 771.794ZM465.534 778.718L450.703 773.175L453.197 766.501L468.029 772.044L465.534 778.718ZM484.062 785.643L469.23 780.1L471.725 773.425L486.557 778.968L484.062 785.643ZM502.59 792.567L487.758 787.024L490.253 780.35L505.084 785.893L502.59 792.567ZM521.118 799.492L506.286 793.949L508.78 787.274L523.612 792.818L521.118 799.492ZM539.645 806.416L524.814 800.873L527.308 794.199L542.14 799.742L539.645 806.416ZM558.173 813.341L543.341 807.798L545.836 801.123L560.668 806.667L558.173 813.341ZM576.701 820.265L561.869 814.722L564.364 808.048L579.195 813.591L576.701 820.265ZM595.229 827.19L580.397 821.647L582.891 814.972L597.723 820.516L595.229 827.19ZM613.756 834.115L598.925 828.571L601.419 821.897L616.251 827.44L613.756 834.115Z" fill="black"/>
<path d="M155.231 705.005L140.399 699.462L142.894 692.788L157.726 698.331L155.231 705.005ZM173.759 711.93L158.927 706.387L161.422 699.712L176.253 705.255L173.759 711.93ZM192.287 718.854L177.455 713.311L179.949 706.637L194.781 712.18L192.287 718.854ZM210.814 725.779L195.983 720.236L198.477 713.561L213.309 719.105L210.814 725.779ZM229.342 732.703L214.51 727.16L217.005 720.486L231.837 726.029L229.342 732.703ZM247.87 739.628L233.038 734.085L235.533 727.41L250.364 732.954L247.87 739.628ZM266.398 746.552L251.566 741.009L254.06 734.335L268.892 739.878L266.398 746.552ZM284.925 753.477L270.094 747.934L272.588 741.259L287.42 746.803L284.925 753.477ZM303.453 760.402L288.621 754.858L291.116 748.184L305.948 753.727L303.453 760.402ZM321.981 767.326L307.149 761.783L309.644 755.109L324.475 760.652L321.981 767.326ZM340.509 774.251L325.677 768.707L328.171 762.033L343.003 767.576L340.509 774.251ZM359.036 781.175L344.205 775.632L346.699 768.958L361.531 774.501L359.036 781.175ZM377.564 788.1L362.732 782.556L365.227 775.882L380.059 781.425L377.564 788.1ZM396.092 795.024L381.26 789.481L383.755 782.807L398.586 788.35L396.092 795.024ZM414.62 801.949L399.788 796.406L402.282 789.731L417.114 795.274L414.62 801.949ZM433.147 808.873L418.316 803.33L420.81 796.656L435.642 802.199L433.147 808.873ZM451.675 815.798L436.843 810.255L439.338 803.58L454.17 809.124L451.675 815.798ZM470.203 822.722L455.371 817.179L457.865 810.505L472.697 816.048L470.203 822.722ZM488.731 829.647L473.899 824.104L476.393 817.429L491.225 822.973L488.731 829.647ZM507.258 836.571L492.426 831.028L494.921 824.354L509.753 829.897L507.258 836.571ZM525.786 843.496L510.954 837.953L513.449 831.278L528.281 836.822L525.786 843.496ZM544.314 850.421L529.482 844.877L531.976 838.203L546.808 843.746L544.314 850.421ZM562.842 857.345L548.01 851.802L550.504 845.128L565.336 850.671L562.842 857.345ZM581.369 864.27L566.537 858.726L569.032 852.052L583.864 857.595L581.369 864.27ZM599.897 871.194L585.065 865.651L587.56 858.977L602.391 864.52L599.897 871.194Z" fill="black"/>
<path d="M142.528 738.995L127.696 733.451L130.191 726.777L145.023 732.32L142.528 738.995ZM161.056 745.919L146.224 740.376L148.719 733.702L163.55 739.245L161.056 745.919ZM179.584 752.844L164.752 747.301L167.246 740.626L182.078 746.169L179.584 752.844ZM198.111 759.768L183.28 754.225L185.774 747.551L200.606 753.094L198.111 759.768ZM216.639 766.693L201.807 761.15L204.302 754.475L219.134 760.019L216.639 766.693ZM235.167 773.617L220.335 768.074L222.829 761.4L237.661 766.943L235.167 773.617ZM253.695 780.542L238.863 774.999L241.357 768.324L256.189 773.868L253.695 780.542ZM272.222 787.467L257.39 781.923L259.885 775.249L274.717 780.792L272.222 787.467ZM290.75 794.391L275.918 788.848L278.413 782.173L293.245 787.717L290.75 794.391ZM309.278 801.316L294.446 795.772L296.94 789.098L311.772 794.641L309.278 801.316ZM327.806 808.24L312.974 802.697L315.468 796.023L330.3 801.566L327.806 808.24ZM346.333 815.165L331.501 809.621L333.996 802.947L348.828 808.49L346.333 815.165ZM364.861 822.089L350.029 816.546L352.524 809.872L367.355 815.415L364.861 822.089ZM383.389 829.014L368.557 823.471L371.051 816.796L385.883 822.339L383.389 829.014ZM401.916 835.938L387.085 830.395L389.579 823.721L404.411 829.264L401.916 835.938ZM420.444 842.863L405.612 837.32L408.107 830.645L422.939 836.188L420.444 842.863ZM438.972 849.787L424.14 844.244L426.635 837.57L441.466 843.113L438.972 849.787ZM457.5 856.712L442.668 851.169L445.162 844.494L459.994 850.038L457.5 856.712ZM476.027 863.636L461.196 858.093L463.69 851.419L478.522 856.962L476.027 863.636ZM494.555 870.561L479.723 865.018L482.218 858.343L497.05 863.887L494.555 870.561ZM513.083 877.486L498.251 871.942L500.746 865.268L515.577 870.811L513.083 877.486ZM531.611 884.41L516.779 878.867L519.273 872.192L534.105 877.736L531.611 884.41ZM550.138 891.335L535.307 885.791L537.801 879.117L552.633 884.66L550.138 891.335ZM568.666 898.259L553.834 892.716L556.329 886.042L571.161 891.585L568.666 898.259ZM587.194 905.184L572.362 899.64L574.857 892.966L589.688 898.509L587.194 905.184Z" fill="black"/>
<path d="M128.673 776.074L113.841 770.531L116.335 763.857L131.167 769.4L128.673 776.074ZM147.2 782.999L132.369 777.456L134.863 770.781L149.695 776.325L147.2 782.999ZM165.728 789.923L150.896 784.38L153.391 777.706L168.223 783.249L165.728 789.923ZM184.256 796.848L169.424 791.305L171.919 784.63L186.75 790.174L184.256 796.848ZM202.784 803.772L187.952 798.229L190.446 791.555L205.278 797.098L202.784 803.772ZM221.311 810.697L206.48 805.154L208.974 798.479L223.806 804.023L221.311 810.697ZM239.839 817.622L225.007 812.078L227.502 805.404L242.334 810.947L239.839 817.622ZM258.367 824.546L243.535 819.003L246.029 812.329L260.861 817.872L258.367 824.546ZM276.895 831.471L262.063 825.927L264.557 819.253L279.389 824.796L276.895 831.471ZM295.422 838.395L280.59 832.852L283.085 826.178L297.917 831.721L295.422 838.395ZM313.95 845.32L299.118 839.776L301.613 833.102L316.445 838.645L313.95 845.32ZM332.478 852.244L317.646 846.701L320.14 840.027L334.972 845.57L332.478 852.244ZM351.006 859.169L336.174 853.626L338.668 846.951L353.5 852.494L351.006 859.169ZM369.533 866.093L354.701 860.55L357.196 853.876L372.028 859.419L369.533 866.093ZM388.061 873.018L373.229 867.475L375.724 860.8L390.555 866.344L388.061 873.018ZM406.589 879.942L391.757 874.399L394.251 867.725L409.083 873.268L406.589 879.942ZM425.117 886.867L410.285 881.324L412.779 874.649L427.611 880.193L425.117 886.867ZM443.644 893.792L428.812 888.248L431.307 881.574L446.139 887.117L443.644 893.792ZM462.172 900.716L447.34 895.173L449.835 888.498L464.666 894.042L462.172 900.716ZM480.7 907.641L465.868 902.097L468.362 895.423L483.194 900.966L480.7 907.641ZM499.227 914.565L484.396 909.022L486.89 902.348L501.722 907.891L499.227 914.565ZM517.755 921.49L502.923 915.946L505.418 909.272L520.25 914.815L517.755 921.49ZM536.283 928.414L521.451 922.871L523.946 916.197L538.777 921.74L536.283 928.414ZM554.811 935.339L539.979 929.796L542.473 923.121L557.305 928.664L554.811 935.339ZM573.338 942.263L558.507 936.72L561.001 930.046L575.833 935.589L573.338 942.263Z" fill="black"/>
<path d="M318.065 269.32L303.233 263.776L305.728 257.102L320.56 262.645L318.065 269.32ZM336.593 276.244L321.761 270.701L324.256 264.027L339.087 269.57L336.593 276.244ZM355.121 283.169L340.289 277.625L342.783 270.951L357.615 276.494L355.121 283.169ZM373.648 290.093L358.817 284.55L361.311 277.876L376.143 283.419L373.648 290.093ZM392.176 297.018L377.344 291.475L379.839 284.8L394.671 290.343L392.176 297.018ZM410.704 303.942L395.872 298.399L398.367 291.725L413.198 297.268L410.704 303.942ZM429.232 310.867L414.4 305.324L416.894 298.649L431.726 304.193L429.232 310.867ZM447.759 317.791L432.928 312.248L435.422 305.574L450.254 311.117L447.759 317.791ZM466.287 324.716L451.455 319.173L453.95 312.498L468.782 318.042L466.287 324.716ZM484.815 331.64L469.983 326.097L472.478 319.423L487.309 324.966L484.815 331.64ZM503.343 338.565L488.511 333.022L491.005 326.347L505.837 331.891L503.343 338.565ZM521.87 345.49L507.039 339.946L509.533 333.272L524.365 338.815L521.87 345.49ZM540.398 352.414L525.566 346.871L528.061 340.197L542.893 345.74L540.398 352.414ZM558.926 359.339L544.094 353.795L546.588 347.121L561.42 352.664L558.926 359.339ZM577.454 366.263L562.622 360.72L565.116 354.046L579.948 359.589L577.454 366.263ZM595.981 373.188L581.15 367.644L583.644 360.97L598.476 366.513L595.981 373.188ZM614.509 380.112L599.677 374.569L602.172 367.895L617.004 373.438L614.509 380.112ZM633.037 387.037L618.205 381.494L620.699 374.819L635.531 380.362L633.037 387.037ZM651.565 393.961L636.733 388.418L639.227 381.744L654.059 387.287L651.565 393.961ZM670.092 400.886L655.26 395.343L657.755 388.668L672.587 394.212L670.092 400.886ZM688.62 407.81L673.788 402.267L676.283 395.593L691.115 401.136L688.62 407.81ZM707.148 414.735L692.316 409.192L694.81 402.517L709.642 408.061L707.148 414.735ZM725.676 421.66L710.844 416.116L713.338 409.442L728.17 414.985L725.676 421.66ZM744.203 428.584L729.371 423.041L731.866 416.366L746.698 421.91L744.203 428.584ZM762.731 435.509L747.899 429.965L750.394 423.291L765.225 428.834L762.731 435.509Z" fill="black"/>
<path d="M304.206 306.399L289.374 300.856L291.868 294.182L306.7 299.725L304.206 306.399ZM322.734 313.324L307.902 307.78L310.396 301.106L325.228 306.649L322.734 313.324ZM341.261 320.248L326.43 314.705L328.924 308.031L343.756 313.574L341.261 320.248ZM359.789 327.173L344.957 321.629L347.452 314.955L362.284 320.498L359.789 327.173ZM378.317 334.097L363.485 328.554L365.979 321.88L380.811 327.423L378.317 334.097ZM396.845 341.022L382.013 335.479L384.507 328.804L399.339 334.347L396.845 341.022ZM415.372 347.946L400.54 342.403L403.035 335.729L417.867 341.272L415.372 347.946ZM433.9 354.871L419.068 349.328L421.563 342.653L436.395 348.197L433.9 354.871ZM452.428 361.795L437.596 356.252L440.09 349.578L454.922 355.121L452.428 361.795ZM470.956 368.72L456.124 363.177L458.618 356.502L473.45 362.046L470.956 368.72ZM489.483 375.644L474.651 370.101L477.146 363.427L491.978 368.97L489.483 375.644ZM508.011 382.569L493.179 377.026L495.674 370.351L510.505 375.895L508.011 382.569ZM526.539 389.494L511.707 383.95L514.201 377.276L529.033 382.819L526.539 389.494ZM545.067 396.418L530.235 390.875L532.729 384.201L547.561 389.744L545.067 396.418ZM563.594 403.343L548.762 397.799L551.257 391.125L566.089 396.668L563.594 403.343ZM582.122 410.267L567.29 404.724L569.785 398.05L584.616 403.593L582.122 410.267ZM600.65 417.192L585.818 411.648L588.312 404.974L603.144 410.517L600.65 417.192ZM619.177 424.116L604.346 418.573L606.84 411.899L621.672 417.442L619.177 424.116ZM637.705 431.041L622.873 425.498L625.368 418.823L640.2 424.366L637.705 431.041ZM656.233 437.965L641.401 432.422L643.896 425.748L658.727 431.291L656.233 437.965ZM674.761 444.89L659.929 439.347L662.423 432.672L677.255 438.216L674.761 444.89ZM693.288 451.814L678.457 446.271L680.951 439.597L695.783 445.14L693.288 451.814ZM711.816 458.739L696.984 453.196L699.479 446.521L714.311 452.065L711.816 458.739ZM730.344 465.664L715.512 460.12L718.007 453.446L732.838 458.989L730.344 465.664ZM748.872 472.588L734.04 467.045L736.534 460.37L751.366 465.914L748.872 472.588Z" fill="black"/>
<path d="M291.505 340.389L276.673 334.846L279.167 328.171L293.999 333.715L291.505 340.389ZM310.032 347.313L295.201 341.77L297.695 335.096L312.527 340.639L310.032 347.313ZM328.56 354.238L313.728 348.695L316.223 342.02L331.055 347.564L328.56 354.238ZM347.088 361.163L332.256 355.619L334.751 348.945L349.582 354.488L347.088 361.163ZM365.616 368.087L350.784 362.544L353.278 355.87L368.11 361.413L365.616 368.087ZM384.143 375.012L369.312 369.468L371.806 362.794L386.638 368.337L384.143 375.012ZM402.671 381.936L387.839 376.393L390.334 369.719L405.166 375.262L402.671 381.936ZM421.199 388.861L406.367 383.317L408.861 376.643L423.693 382.186L421.199 388.861ZM439.727 395.785L424.895 390.242L427.389 383.568L442.221 389.111L439.727 395.785ZM458.254 402.71L443.423 397.167L445.917 390.492L460.749 396.035L458.254 402.71ZM476.782 409.634L461.95 404.091L464.445 397.417L479.277 402.96L476.782 409.634ZM495.31 416.559L480.478 411.016L482.972 404.341L497.804 409.885L495.31 416.559ZM513.838 423.483L499.006 417.94L501.5 411.266L516.332 416.809L513.838 423.483ZM532.365 430.408L517.533 424.865L520.028 418.19L534.86 423.734L532.365 430.408ZM550.893 437.333L536.061 431.789L538.556 425.115L553.388 430.658L550.893 437.333ZM569.421 444.257L554.589 438.714L557.083 432.039L571.915 437.583L569.421 444.257ZM587.949 451.182L573.117 445.638L575.611 438.964L590.443 444.507L587.949 451.182ZM606.476 458.106L591.644 452.563L594.139 445.889L608.971 451.432L606.476 458.106ZM625.004 465.031L610.172 459.487L612.667 452.813L627.498 458.356L625.004 465.031ZM643.532 471.955L628.7 466.412L631.194 459.738L646.026 465.281L643.532 471.955ZM662.059 478.88L647.228 473.337L649.722 466.662L664.554 472.205L662.059 478.88ZM680.587 485.804L665.755 480.261L668.25 473.587L683.082 479.13L680.587 485.804ZM699.115 492.729L684.283 487.186L686.778 480.511L701.609 486.055L699.115 492.729ZM717.643 499.653L702.811 494.11L705.305 487.436L720.137 492.979L717.643 499.653ZM736.17 506.578L721.339 501.035L723.833 494.36L738.665 499.904L736.17 506.578Z" fill="black"/>
<path d="M223.368 522.697L208.536 517.154L211.031 510.479L225.862 516.023L223.368 522.697ZM241.896 529.622L227.064 524.078L229.558 517.404L244.39 522.947L241.896 529.622ZM260.423 536.546L245.592 531.003L248.086 524.329L262.918 529.872L260.423 536.546ZM278.951 543.471L264.119 537.927L266.614 531.253L281.446 536.796L278.951 543.471ZM297.479 550.395L282.647 544.852L285.142 538.178L299.973 543.721L297.479 550.395ZM316.007 557.32L301.175 551.777L303.669 545.102L318.501 550.645L316.007 557.32ZM334.534 564.244L319.703 558.701L322.197 552.027L337.029 557.57L334.534 564.244ZM353.062 571.169L338.23 565.626L340.725 558.951L355.557 564.495L353.062 571.169ZM371.59 578.093L356.758 572.55L359.253 565.876L374.084 571.419L371.59 578.093ZM390.118 585.018L375.286 579.475L377.78 572.8L392.612 578.344L390.118 585.018ZM408.645 591.942L393.814 586.399L396.308 579.725L411.14 585.268L408.645 591.942ZM427.173 598.867L412.341 593.324L414.836 586.649L429.668 592.193L427.173 598.867ZM445.701 605.792L430.869 600.248L433.363 593.574L448.195 599.117L445.701 605.792ZM464.229 612.716L449.397 607.173L451.891 600.499L466.723 606.042L464.229 612.716ZM482.756 619.641L467.924 614.097L470.419 607.423L485.251 612.966L482.756 619.641ZM501.284 626.565L486.452 621.022L488.947 614.348L503.779 619.891L501.284 626.565ZM519.812 633.49L504.98 627.946L507.474 621.272L522.306 626.815L519.812 633.49ZM538.34 640.414L523.508 634.871L526.002 628.197L540.834 633.74L538.34 640.414ZM556.867 647.339L542.035 641.796L544.53 635.121L559.362 640.664L556.867 647.339ZM575.395 654.263L560.563 648.72L563.058 642.046L577.889 647.589L575.395 654.263ZM593.923 661.188L579.091 655.645L581.585 648.97L596.417 654.514L593.923 661.188ZM612.451 668.112L597.619 662.569L600.113 655.895L614.945 661.438L612.451 668.112ZM630.978 675.037L616.146 669.494L618.641 662.819L633.473 668.363L630.978 675.037ZM649.506 681.961L634.674 676.418L637.169 669.744L652 675.287L649.506 681.961ZM668.034 688.886L653.202 683.343L655.696 676.668L670.528 682.212L668.034 688.886Z" fill="black"/>
<path d="M209.511 559.777L194.679 554.234L197.173 547.559L212.005 553.102L209.511 559.777ZM228.038 566.701L213.206 561.158L215.701 554.484L230.533 560.027L228.038 566.701ZM246.566 573.626L231.734 568.083L234.229 561.408L249.061 566.952L246.566 573.626ZM265.094 580.55L250.262 575.007L252.756 568.333L267.588 573.876L265.094 580.55ZM283.622 587.475L268.79 581.932L271.284 575.257L286.116 580.801L283.622 587.475ZM302.149 594.399L287.317 588.856L289.812 582.182L304.644 587.725L302.149 594.399ZM320.677 601.324L305.845 595.781L308.34 589.106L323.171 594.65L320.677 601.324ZM339.205 608.249L324.373 602.705L326.867 596.031L341.699 601.574L339.205 608.249ZM357.732 615.173L342.901 609.63L345.395 602.956L360.227 608.499L357.732 615.173ZM376.26 622.098L361.428 616.554L363.923 609.88L378.755 615.423L376.26 622.098ZM394.788 629.022L379.956 623.479L382.451 616.805L397.282 622.348L394.788 629.022ZM413.316 635.947L398.484 630.403L400.978 623.729L415.81 629.272L413.316 635.947ZM431.843 642.871L417.012 637.328L419.506 630.654L434.338 636.197L431.843 642.871ZM450.371 649.796L435.539 644.253L438.034 637.578L452.866 643.121L450.371 649.796ZM468.899 656.72L454.067 651.177L456.562 644.503L471.393 650.046L468.899 656.72ZM487.427 663.645L472.595 658.102L475.089 651.427L489.921 656.971L487.427 663.645ZM505.954 670.569L491.123 665.026L493.617 658.352L508.449 663.895L505.954 670.569ZM524.482 677.494L509.65 671.951L512.145 665.276L526.977 670.82L524.482 677.494ZM543.01 684.418L528.178 678.875L530.673 672.201L545.504 677.744L543.01 684.418ZM561.538 691.343L546.706 685.8L549.2 679.125L564.032 684.669L561.538 691.343ZM580.065 698.268L565.234 692.724L567.728 686.05L582.56 691.593L580.065 698.268ZM598.593 705.192L583.761 699.649L586.256 692.975L601.088 698.518L598.593 705.192ZM617.121 712.117L602.289 706.573L604.783 699.899L619.615 705.442L617.121 712.117ZM635.649 719.041L620.817 713.498L623.311 706.824L638.143 712.367L635.649 719.041ZM654.176 725.966L639.344 720.423L641.839 713.748L656.671 719.291L654.176 725.966Z" fill="black"/>
<path d="M195.651 596.856L180.819 591.313L183.314 584.639L198.146 590.182L195.651 596.856ZM214.179 603.781L199.347 598.238L201.842 591.563L216.673 597.107L214.179 603.781ZM232.707 610.705L217.875 605.162L220.369 598.488L235.201 604.031L232.707 610.705ZM251.234 617.63L236.403 612.087L238.897 605.412L253.729 610.956L251.234 617.63ZM269.762 624.554L254.93 619.011L257.425 612.337L272.257 617.88L269.762 624.554ZM288.29 631.479L273.458 625.936L275.953 619.261L290.784 624.805L288.29 631.479ZM306.818 638.404L291.986 632.86L294.48 626.186L309.312 631.729L306.818 638.404ZM325.345 645.328L310.514 639.785L313.008 633.11L327.84 638.654L325.345 645.328ZM343.873 652.253L329.041 646.709L331.536 640.035L346.368 645.578L343.873 652.253ZM362.401 659.177L347.569 653.634L350.063 646.96L364.895 652.503L362.401 659.177ZM380.929 666.102L366.097 660.558L368.591 653.884L383.423 659.427L380.929 666.102ZM399.456 673.026L384.624 667.483L387.119 660.809L401.951 666.352L399.456 673.026ZM417.984 679.951L403.152 674.408L405.647 667.733L420.479 673.276L417.984 679.951ZM436.512 686.875L421.68 681.332L424.174 674.658L439.006 680.201L436.512 686.875ZM455.04 693.8L440.208 688.257L442.702 681.582L457.534 687.126L455.04 693.8ZM473.567 700.724L458.735 695.181L461.23 688.507L476.062 694.05L473.567 700.724ZM492.095 707.649L477.263 702.106L479.758 695.431L494.589 700.975L492.095 707.649ZM510.623 714.573L495.791 709.03L498.285 702.356L513.117 707.899L510.623 714.573ZM529.151 721.498L514.319 715.955L516.813 709.28L531.645 714.824L529.151 721.498ZM547.678 728.423L532.846 722.879L535.341 716.205L550.173 721.748L547.678 728.423ZM566.206 735.347L551.374 729.804L553.869 723.13L568.7 728.673L566.206 735.347ZM584.734 742.272L569.902 736.728L572.396 730.054L587.228 735.597L584.734 742.272ZM603.261 749.196L588.43 743.653L590.924 736.979L605.756 742.522L603.261 749.196ZM621.789 756.121L606.957 750.577L609.452 743.903L624.284 749.446L621.789 756.121ZM640.317 763.045L625.485 757.502L627.98 750.828L642.811 756.371L640.317 763.045Z" fill="black"/>
<path d="M182.948 630.846L168.116 625.303L170.611 618.628L185.443 624.172L182.948 630.846ZM201.476 637.771L186.644 632.227L189.138 625.553L203.97 631.096L201.476 637.771ZM220.004 644.695L205.172 639.152L207.666 632.477L222.498 638.021L220.004 644.695ZM238.531 651.62L223.699 646.076L226.194 639.402L241.026 644.945L238.531 651.62ZM257.059 658.544L242.227 653.001L244.722 646.327L259.553 651.87L257.059 658.544ZM275.587 665.469L260.755 659.925L263.249 653.251L278.081 658.794L275.587 665.469ZM294.115 672.393L279.283 666.85L281.777 660.176L296.609 665.719L294.115 672.393ZM312.642 679.318L297.81 673.775L300.305 667.1L315.137 672.643L312.642 679.318ZM331.17 686.242L316.338 680.699L318.833 674.025L333.664 679.568L331.17 686.242ZM349.698 693.167L334.866 687.624L337.36 680.949L352.192 686.493L349.698 693.167ZM368.225 700.091L353.394 694.548L355.888 687.874L370.72 693.417L368.225 700.091ZM386.753 707.016L371.921 701.473L374.416 694.798L389.248 700.342L386.753 707.016ZM405.281 713.94L390.449 708.397L392.944 701.723L407.775 707.266L405.281 713.94ZM423.809 720.865L408.977 715.322L411.471 708.647L426.303 714.191L423.809 720.865ZM442.336 727.79L427.505 722.246L429.999 715.572L444.831 721.115L442.336 727.79ZM460.864 734.714L446.032 729.171L448.527 722.497L463.359 728.04L460.864 734.714ZM479.392 741.639L464.56 736.095L467.055 729.421L481.886 734.964L479.392 741.639ZM497.92 748.563L483.088 743.02L485.582 736.346L500.414 741.889L497.92 748.563ZM516.447 755.488L501.616 749.944L504.11 743.27L518.942 748.813L516.447 755.488ZM534.975 762.412L520.143 756.869L522.638 750.195L537.47 755.738L534.975 762.412ZM553.503 769.337L538.671 763.794L541.165 757.119L555.997 762.662L553.503 769.337ZM572.031 776.261L557.199 770.718L559.693 764.044L574.525 769.587L572.031 776.261ZM590.558 783.186L575.726 777.643L578.221 770.968L593.053 776.512L590.558 783.186ZM609.086 790.11L594.254 784.567L596.749 777.893L611.581 783.436L609.086 790.11ZM627.614 797.035L612.782 791.492L615.276 784.817L630.108 790.361L627.614 797.035Z" fill="black"/>
<path d="M277.645 377.468L262.813 371.925L265.308 365.251L280.14 370.794L277.645 377.468ZM296.173 384.393L281.341 378.85L283.836 372.175L298.668 377.719L296.173 384.393ZM314.701 391.317L299.869 385.774L302.363 379.1L317.195 384.643L314.701 391.317ZM333.229 398.242L318.397 392.699L320.891 386.024L335.723 391.568L333.229 398.242ZM351.756 405.167L336.924 399.623L339.419 392.949L354.251 398.492L351.756 405.167ZM370.284 412.091L355.452 406.548L357.947 399.874L372.778 405.417L370.284 412.091ZM388.812 419.016L373.98 413.472L376.474 406.798L391.306 412.341L388.812 419.016ZM407.34 425.94L392.508 420.397L395.002 413.723L409.834 419.266L407.34 425.94ZM425.867 432.865L411.035 427.321L413.53 420.647L428.362 426.19L425.867 432.865ZM444.395 439.789L429.563 434.246L432.058 427.572L446.889 433.115L444.395 439.789ZM462.923 446.714L448.091 441.171L450.585 434.496L465.417 440.039L462.923 446.714ZM481.45 453.638L466.619 448.095L469.113 441.421L483.945 446.964L481.45 453.638ZM499.978 460.563L485.146 455.02L487.641 448.345L502.473 453.889L499.978 460.563ZM518.506 467.487L503.674 461.944L506.169 455.27L521 460.813L518.506 467.487ZM537.034 474.412L522.202 468.869L524.696 462.194L539.528 467.738L537.034 474.412ZM555.561 481.337L540.73 475.793L543.224 469.119L558.056 474.662L555.561 481.337ZM574.089 488.261L559.257 482.718L561.752 476.043L576.584 481.587L574.089 488.261ZM592.617 495.186L577.785 489.642L580.28 482.968L595.111 488.511L592.617 495.186ZM611.145 502.11L596.313 496.567L598.807 489.893L613.639 495.436L611.145 502.11ZM629.672 509.035L614.841 503.491L617.335 496.817L632.167 502.36L629.672 509.035ZM648.2 515.959L633.368 510.416L635.863 503.742L650.695 509.285L648.2 515.959ZM666.728 522.884L651.896 517.341L654.39 510.666L669.222 516.209L666.728 522.884ZM685.256 529.808L670.424 524.265L672.918 517.591L687.75 523.134L685.256 529.808ZM703.783 536.733L688.952 531.19L691.446 524.515L706.278 530.059L703.783 536.733ZM722.311 543.657L707.479 538.114L709.974 531.44L724.806 536.983L722.311 543.657Z" fill="black"/>
<path d="M263.788 414.548L248.956 409.005L251.451 402.331L266.282 407.874L263.788 414.548ZM282.316 421.473L267.484 415.929L269.978 409.255L284.81 414.798L282.316 421.473ZM300.843 428.397L286.012 422.854L288.506 416.18L303.338 421.723L300.843 428.397ZM319.371 435.322L304.539 429.779L307.034 423.104L321.866 428.647L319.371 435.322ZM337.899 442.246L323.067 436.703L325.561 430.029L340.393 435.572L337.899 442.246ZM356.427 449.171L341.595 443.628L344.089 436.953L358.921 442.496L356.427 449.171ZM374.954 456.095L360.123 450.552L362.617 443.878L377.449 449.421L374.954 456.095ZM393.482 463.02L378.65 457.477L381.145 450.802L395.977 456.346L393.482 463.02ZM412.01 469.944L397.178 464.401L399.672 457.727L414.504 463.27L412.01 469.944ZM430.538 476.869L415.706 471.326L418.2 464.651L433.032 470.195L430.538 476.869ZM449.065 483.794L434.233 478.25L436.728 471.576L451.56 477.119L449.065 483.794ZM467.593 490.718L452.761 485.175L455.256 478.5L470.088 484.044L467.593 490.718ZM486.121 497.643L471.289 492.099L473.783 485.425L488.615 490.968L486.121 497.643ZM504.649 504.567L489.817 499.024L492.311 492.35L507.143 497.893L504.649 504.567ZM523.176 511.492L508.344 505.948L510.839 499.274L525.671 504.817L523.176 511.492ZM541.704 518.416L526.872 512.873L529.367 506.199L544.198 511.742L541.704 518.416ZM560.232 525.341L545.4 519.798L547.894 513.123L562.726 518.666L560.232 525.341ZM578.759 532.265L563.928 526.722L566.422 520.048L581.254 525.591L578.759 532.265ZM597.287 539.19L582.455 533.647L584.95 526.972L599.782 532.516L597.287 539.19ZM615.815 546.114L600.983 540.571L603.478 533.897L618.309 539.44L615.815 546.114ZM634.343 553.039L619.511 547.496L622.005 540.821L636.837 546.365L634.343 553.039ZM652.87 559.963L638.039 554.42L640.533 547.746L655.365 553.289L652.87 559.963ZM671.398 566.888L656.566 561.345L659.061 554.67L673.893 560.214L671.398 566.888ZM689.926 573.813L675.094 568.269L677.589 561.595L692.42 567.138L689.926 573.813ZM708.454 580.737L693.622 575.194L696.116 568.52L710.948 574.063L708.454 580.737Z" fill="black"/>
<path d="M249.93 451.628L235.099 446.084L237.593 439.41L252.425 444.953L249.93 451.628ZM268.458 458.552L253.626 453.009L256.121 446.335L270.953 451.878L268.458 458.552ZM286.986 465.477L272.154 459.934L274.649 453.259L289.48 458.802L286.986 465.477ZM305.514 472.401L290.682 466.858L293.176 460.184L308.008 465.727L305.514 472.401ZM324.041 479.326L309.21 473.783L311.704 467.108L326.536 472.652L324.041 479.326ZM342.569 486.25L327.737 480.707L330.232 474.033L345.064 479.576L342.569 486.25ZM361.097 493.175L346.265 487.632L348.76 480.957L363.591 486.501L361.097 493.175ZM379.625 500.099L364.793 494.556L367.287 487.882L382.119 493.425L379.625 500.099ZM398.152 507.024L383.321 501.481L385.815 494.806L400.647 500.35L398.152 507.024ZM416.68 513.949L401.848 508.405L404.343 501.731L419.175 507.274L416.68 513.949ZM435.208 520.873L420.376 515.33L422.87 508.656L437.702 514.199L435.208 520.873ZM453.736 527.798L438.904 522.254L441.398 515.58L456.23 521.123L453.736 527.798ZM472.263 534.722L457.432 529.179L459.926 522.505L474.758 528.048L472.263 534.722ZM490.791 541.647L475.959 536.104L478.454 529.429L493.286 534.972L490.791 541.647ZM509.319 548.571L494.487 543.028L496.981 536.354L511.813 541.897L509.319 548.571ZM527.847 555.496L513.015 549.953L515.509 543.278L530.341 548.821L527.847 555.496ZM546.374 562.42L531.542 556.877L534.037 550.203L548.869 555.746L546.374 562.42ZM564.902 569.345L550.07 563.802L552.565 557.127L567.397 562.671L564.902 569.345ZM583.43 576.269L568.598 570.726L571.092 564.052L585.924 569.595L583.43 576.269ZM601.958 583.194L587.126 577.651L589.62 570.976L604.452 576.52L601.958 583.194ZM620.485 590.119L605.653 584.575L608.148 577.901L622.98 583.444L620.485 590.119ZM639.013 597.043L624.181 591.5L626.676 584.825L641.507 590.369L639.013 597.043ZM657.541 603.968L642.709 598.424L645.203 591.75L660.035 597.293L657.541 603.968ZM676.069 610.892L661.237 605.349L663.731 598.675L678.563 604.218L676.069 610.892ZM694.596 617.817L679.764 612.273L682.259 605.599L697.091 611.142L694.596 617.817Z" fill="black"/>
<path d="M237.227 485.617L222.396 480.074L224.89 473.4L239.722 478.943L237.227 485.617ZM255.755 492.542L240.923 486.999L243.418 480.324L258.25 485.868L255.755 492.542ZM274.283 499.467L259.451 493.923L261.945 487.249L276.777 492.792L274.283 499.467ZM292.811 506.391L277.979 500.848L280.473 494.174L295.305 499.717L292.811 506.391ZM311.338 513.316L296.506 507.772L299.001 501.098L313.833 506.641L311.338 513.316ZM329.866 520.24L315.034 514.697L317.529 508.023L332.361 513.566L329.866 520.24ZM348.394 527.165L333.562 521.621L336.056 514.947L350.888 520.49L348.394 527.165ZM366.922 534.089L352.09 528.546L354.584 521.872L369.416 527.415L366.922 534.089ZM385.449 541.014L370.617 535.471L373.112 528.796L387.944 534.339L385.449 541.014ZM403.977 547.938L389.145 542.395L391.64 535.721L406.471 541.264L403.977 547.938ZM422.505 554.863L407.673 549.32L410.167 542.645L424.999 548.189L422.505 554.863ZM441.033 561.787L426.201 556.244L428.695 549.57L443.527 555.113L441.033 561.787ZM459.56 568.712L444.728 563.169L447.223 556.494L462.055 562.038L459.56 568.712ZM478.088 575.636L463.256 570.093L465.751 563.419L480.582 568.962L478.088 575.636ZM496.616 582.561L481.784 577.018L484.278 570.343L499.11 575.887L496.616 582.561ZM515.143 589.486L500.312 583.942L502.806 577.268L517.638 582.811L515.143 589.486ZM533.671 596.41L518.839 590.867L521.334 584.193L536.166 589.736L533.671 596.41ZM552.199 603.335L537.367 597.791L539.862 591.117L554.693 596.66L552.199 603.335ZM570.727 610.259L555.895 604.716L558.389 598.042L573.221 603.585L570.727 610.259ZM589.254 617.184L574.423 611.64L576.917 604.966L591.749 610.509L589.254 617.184ZM607.782 624.108L592.95 618.565L595.445 611.891L610.277 617.434L607.782 624.108ZM626.31 631.033L611.478 625.49L613.973 618.815L628.804 624.358L626.31 631.033ZM644.838 637.957L630.006 632.414L632.5 625.74L647.332 631.283L644.838 637.957ZM663.365 644.882L648.534 639.339L651.028 632.664L665.86 638.208L663.365 644.882ZM681.893 651.806L667.061 646.263L669.556 639.589L684.388 645.132L681.893 651.806Z" fill="black"/>
<path d="M422.571 156.104L414.104 152.94L429.51 111.719L438.285 114.999L428.331 141.635L457.381 122.136L466.404 125.508L450.998 166.728L442.223 163.449L452.547 135.824L422.571 156.104ZM466.789 172.63L458.941 169.697L470.096 139.848L477.945 142.781L473.811 153.843L486.171 158.462L490.305 147.4L498.153 150.334L486.998 180.183L479.149 177.249L483.607 165.322L471.247 160.703L466.789 172.63ZM508.417 189.033C503.802 187.309 500.559 184.429 498.686 180.396C496.812 176.362 496.738 172.038 498.463 167.423C500.172 162.85 503.056 159.655 507.116 157.839C511.176 156.022 515.513 155.976 520.127 157.701C525.4 159.672 528.665 162.934 529.921 167.489L522.99 170.392C522.349 167.711 520.648 165.854 517.888 164.823C515.498 163.93 513.241 164.002 511.116 165.039C509.048 166.05 507.529 167.853 506.559 170.449C505.588 173.045 505.545 175.423 506.427 177.584C507.351 179.76 509.008 181.295 511.398 182.188C514.076 183.189 516.577 182.903 518.902 181.331L522.253 188.006C518.302 190.662 513.69 191.004 508.417 189.033ZM539.039 199.633L531.129 196.676L539.721 173.687L531.378 170.569L533.941 163.709L558.538 172.902L555.974 179.761L547.631 176.643L539.039 199.633ZM569.083 211.706C565.334 210.305 562.834 207.634 561.584 203.692L555.902 218.895L548.054 215.961L563.459 174.741L571.308 177.674L569.899 181.444C573.371 179.314 577.003 178.958 580.793 180.374C584.707 181.837 587.356 184.423 588.74 188.133C590.18 191.818 589.992 196.091 588.175 200.952C586.358 205.814 583.69 209.183 580.171 211.061C576.693 212.954 572.997 213.169 569.083 211.706ZM569.221 203.799C571.487 204.646 573.6 204.52 575.56 203.422C577.561 202.338 579.047 200.499 580.017 197.903C580.972 195.349 581.049 193.007 580.249 190.876C579.49 188.761 577.977 187.281 575.711 186.434C574.434 185.956 573.034 185.809 571.51 185.99C569.987 186.172 568.718 186.614 567.705 187.315L563.755 197.883C564.06 199.077 564.728 200.242 565.759 201.378C566.831 202.53 567.985 203.337 569.221 203.799ZM582.917 229.343L586.724 222.737C587.343 223.344 588.105 223.816 589.012 224.155C591.113 224.94 592.762 224.735 593.961 223.54L596.02 221.422L595.225 186.613L603.629 189.754L603.656 213.429L619.203 195.575L627.669 198.739L600.661 228.227C598.645 230.479 596.518 231.773 594.279 232.11C592.025 232.489 589.481 232.196 586.649 231.231C585.207 230.692 583.963 230.063 582.917 229.343ZM649.187 240.799L639.361 237.127L635.746 222.676L630.73 225.168L627.866 232.831L620.017 229.897L631.173 200.048L639.022 202.982L634.056 216.268L650.331 207.208L659.972 210.811L643.11 219.934L649.187 240.799ZM673.733 258.636L676.573 251.035L653.09 242.258L664.245 212.409L672.094 215.342L663.502 238.331L675.862 242.951L684.454 219.961L692.302 222.895L683.71 245.884L686.986 247.108L681.581 261.569L673.733 258.636ZM696.9 258.631L689.361 255.814L700.516 225.965L708.365 228.898L701.621 246.943L720.663 233.494L728.573 236.451L717.417 266.3L709.569 263.366L716.567 244.641L696.9 258.631ZM733.119 272.168L724.22 268.842L735.184 260.614C733.499 259.468 732.318 257.853 731.642 255.769C730.965 253.685 731.096 251.386 732.036 248.873C733.067 246.112 734.857 244.152 737.404 242.991C739.966 241.788 742.833 241.78 746.006 242.966L764.113 249.733L752.957 279.582L745.108 276.649L748.943 266.39L742.824 264.104L733.119 272.168ZM742.368 256.467L751.391 259.839L753.793 253.412L744.77 250.04C743.699 249.64 742.726 249.605 741.851 249.935C740.976 250.266 740.362 250.905 740.008 251.852C739.638 252.841 739.647 253.76 740.034 254.609C740.478 255.432 741.256 256.052 742.368 256.467Z" fill="black"/>
</svg>
