<svg width="831" height="1036" viewBox="0 0 831 1036" fill="none" xmlns="http://www.w3.org/2000/svg">
<rect x="203.873" y="0.987204" width="641.601" height="913.746" transform="rotate(12.8287 203.873 0.987204)" fill="#C7C7C7" stroke="black" stroke-width="1.64936"/>
<path d="M254.365 190.041L238.927 186.525L240.509 179.578L255.947 183.094L254.365 190.041ZM273.651 194.433L258.212 190.917L259.794 183.97L275.233 187.486L273.651 194.433ZM292.937 198.825L277.498 195.309L279.08 188.362L294.519 191.877L292.937 198.825ZM312.222 203.216L296.784 199.701L298.366 192.753L313.805 196.269L312.222 203.216ZM331.508 207.608L316.07 204.093L317.652 197.145L333.09 200.661L331.508 207.608ZM350.794 212L335.355 208.484L336.937 201.537L352.376 205.053L350.794 212ZM370.08 216.392L354.641 212.876L356.223 205.929L371.662 209.444L370.08 216.392ZM389.365 220.783L373.927 217.268L375.509 210.32L390.947 213.836L389.365 220.783ZM408.651 225.175L393.212 221.66L394.794 214.712L410.233 218.228L408.651 225.175ZM427.937 229.567L412.498 226.051L414.08 219.104L429.519 222.62L427.937 229.567ZM447.222 233.959L431.784 230.443L433.366 223.496L448.805 227.011L447.222 233.959ZM466.508 238.351L451.07 234.835L452.652 227.887L468.09 231.403L466.508 238.351ZM485.794 242.742L470.355 239.227L471.937 232.279L487.376 235.795L485.794 242.742ZM505.08 247.134L489.641 243.618L491.223 236.671L506.662 240.187L505.08 247.134ZM524.365 251.526L508.927 248.01L510.509 241.063L525.947 244.578L524.365 251.526ZM543.651 255.918L528.212 252.402L529.794 245.454L545.233 248.97L543.651 255.918ZM562.937 260.309L547.498 256.794L549.08 249.846L564.519 253.362L562.937 260.309ZM582.222 264.701L566.784 261.185L568.366 254.238L583.805 257.754L582.222 264.701ZM601.508 269.093L586.07 265.577L587.652 258.63L603.09 262.145L601.508 269.093ZM620.794 273.485L605.355 269.969L606.937 263.022L622.376 266.537L620.794 273.485ZM640.08 277.876L624.641 274.361L626.223 267.413L641.662 270.929L640.08 277.876ZM659.365 282.268L643.927 278.752L645.509 271.805L660.947 275.321L659.365 282.268ZM678.651 286.66L663.212 283.144L664.794 276.197L680.233 279.712L678.651 286.66ZM697.937 291.052L682.498 287.536L684.08 280.589L699.519 284.104L697.937 291.052ZM717.223 295.443L701.784 291.928L703.366 284.98L718.805 288.496L717.223 295.443Z" fill="black"/>
<path d="M151.092 643.551L135.653 640.035L137.235 633.088L152.674 636.603L151.092 643.551ZM170.378 647.942L154.939 644.427L156.521 637.479L171.96 640.995L170.378 647.942ZM189.663 652.334L174.225 648.819L175.807 641.871L191.245 645.387L189.663 652.334ZM208.949 656.726L193.51 653.21L195.092 646.263L210.531 649.779L208.949 656.726ZM228.235 661.118L212.796 657.602L214.378 650.655L229.817 654.17L228.235 661.118ZM247.52 665.509L232.082 661.994L233.664 655.046L249.103 658.562L247.52 665.509ZM266.806 669.901L251.368 666.386L252.95 659.438L268.388 662.954L266.806 669.901ZM286.092 674.293L270.653 670.777L272.235 663.83L287.674 667.346L286.092 674.293ZM305.378 678.685L289.939 675.169L291.521 668.222L306.96 671.737L305.378 678.685ZM324.663 683.077L309.225 679.561L310.807 672.613L326.245 676.129L324.663 683.077ZM343.949 687.468L328.51 683.953L330.092 677.005L345.531 680.521L343.949 687.468ZM363.235 691.86L347.796 688.344L349.378 681.397L364.817 684.913L363.235 691.86ZM382.52 696.252L367.082 692.736L368.664 685.789L384.103 689.304L382.52 696.252ZM401.806 700.644L386.368 697.128L387.95 690.18L403.388 693.696L401.806 700.644ZM421.092 705.035L405.653 701.52L407.235 694.572L422.674 698.088L421.092 705.035ZM440.378 709.427L424.939 705.911L426.521 698.964L441.96 702.48L440.378 709.427ZM459.663 713.819L444.225 710.303L445.807 703.356L461.245 706.871L459.663 713.819ZM478.949 718.211L463.51 714.695L465.092 707.748L480.531 711.263L478.949 718.211ZM498.235 722.602L482.796 719.087L484.378 712.139L499.817 715.655L498.235 722.602ZM517.52 726.994L502.082 723.478L503.664 716.531L519.103 720.047L517.52 726.994ZM536.806 731.386L521.368 727.87L522.95 720.923L538.388 724.438L536.806 731.386ZM556.092 735.778L540.653 732.262L542.235 725.315L557.674 728.83L556.092 735.778ZM575.378 740.169L559.939 736.654L561.521 729.706L576.96 733.222L575.378 740.169ZM594.663 744.561L579.225 741.045L580.807 734.098L596.245 737.614L594.663 744.561ZM613.949 748.953L598.51 745.437L600.093 738.49L615.531 742.006L613.949 748.953Z" fill="black"/>
<path d="M142.303 682.147L126.864 678.632L128.446 671.684L143.885 675.2L142.303 682.147ZM161.589 686.539L146.15 683.023L147.732 676.076L163.171 679.592L161.589 686.539ZM180.874 690.931L165.436 687.415L167.018 680.468L182.456 683.984L180.874 690.931ZM200.16 695.323L184.721 691.807L186.303 684.86L201.742 688.375L200.16 695.323ZM219.446 699.714L204.007 696.199L205.589 689.251L221.028 692.767L219.446 699.714ZM238.731 704.106L223.293 700.59L224.875 693.643L240.313 697.159L238.731 704.106ZM258.017 708.498L242.578 704.982L244.161 698.035L259.599 701.551L258.017 708.498ZM277.303 712.89L261.864 709.374L263.446 702.427L278.885 705.942L277.303 712.89ZM296.589 717.281L281.15 713.766L282.732 706.818L298.171 710.334L296.589 717.281ZM315.874 721.673L300.436 718.158L302.018 711.21L317.456 714.726L315.874 721.673ZM335.16 726.065L319.721 722.549L321.303 715.602L336.742 719.118L335.16 726.065ZM354.446 730.457L339.007 726.941L340.589 719.994L356.028 723.509L354.446 730.457ZM373.731 734.848L358.293 731.333L359.875 724.385L375.313 727.901L373.731 734.848ZM393.017 739.24L377.578 735.725L379.161 728.777L394.599 732.293L393.017 739.24ZM412.303 743.632L396.864 740.116L398.446 733.169L413.885 736.685L412.303 743.632ZM431.589 748.024L416.15 744.508L417.732 737.561L433.171 741.076L431.589 748.024ZM450.874 752.416L435.436 748.9L437.018 741.952L452.456 745.468L450.874 752.416ZM470.16 756.807L454.721 753.292L456.303 746.344L471.742 749.86L470.16 756.807ZM489.446 761.199L474.007 757.683L475.589 750.736L491.028 754.252L489.446 761.199ZM508.731 765.591L493.293 762.075L494.875 755.128L510.313 758.643L508.731 765.591ZM528.017 769.983L512.578 766.467L514.161 759.519L529.599 763.035L528.017 769.983ZM547.303 774.374L531.864 770.859L533.446 763.911L548.885 767.427L547.303 774.374ZM566.589 778.766L551.15 775.25L552.732 768.303L568.171 771.819L566.589 778.766ZM585.874 783.158L570.436 779.642L572.018 772.695L587.456 776.21L585.874 783.158ZM605.16 787.55L589.721 784.034L591.303 777.087L606.742 780.602L605.16 787.55Z" fill="black"/>
<path d="M134.246 717.528L118.808 714.012L120.39 707.064L135.828 710.58L134.246 717.528ZM153.532 721.919L138.093 718.404L139.675 711.456L155.114 714.972L153.532 721.919ZM172.818 726.311L157.379 722.795L158.961 715.848L174.4 719.364L172.818 726.311ZM192.103 730.703L176.665 727.187L178.247 720.24L193.685 723.755L192.103 730.703ZM211.389 735.095L195.95 731.579L197.532 724.632L212.971 728.147L211.389 735.095ZM230.675 739.486L215.236 735.971L216.818 729.023L232.257 732.539L230.675 739.486ZM249.96 743.878L234.522 740.362L236.104 733.415L251.543 736.931L249.96 743.878ZM269.246 748.27L253.808 744.754L255.39 737.807L270.828 741.322L269.246 748.27ZM288.532 752.662L273.093 749.146L274.675 742.199L290.114 745.714L288.532 752.662ZM307.818 757.053L292.379 753.538L293.961 746.59L309.4 750.106L307.818 757.053ZM327.103 761.445L311.665 757.929L313.247 750.982L328.685 754.498L327.103 761.445ZM346.389 765.837L330.95 762.321L332.532 755.374L347.971 758.89L346.389 765.837ZM365.675 770.229L350.236 766.713L351.818 759.766L367.257 763.281L365.675 770.229ZM384.96 774.62L369.522 771.105L371.104 764.157L386.543 767.673L384.96 774.62ZM404.246 779.012L388.808 775.496L390.39 768.549L405.828 772.065L404.246 779.012ZM423.532 783.404L408.093 779.888L409.675 772.941L425.114 776.457L423.532 783.404ZM442.818 787.796L427.379 784.28L428.961 777.333L444.4 780.848L442.818 787.796ZM462.103 792.187L446.665 788.672L448.247 781.724L463.685 785.24L462.103 792.187ZM481.389 796.579L465.95 793.064L467.532 786.116L482.971 789.632L481.389 796.579ZM500.675 800.971L485.236 797.455L486.818 790.508L502.257 794.024L500.675 800.971ZM519.96 805.363L504.522 801.847L506.104 794.9L521.543 798.415L519.96 805.363ZM539.246 809.755L523.808 806.239L525.39 799.291L540.828 802.807L539.246 809.755ZM558.532 814.146L543.093 810.631L544.675 803.683L560.114 807.199L558.532 814.146ZM577.818 818.538L562.379 815.022L563.961 808.075L579.4 811.591L577.818 818.538ZM597.103 822.93L581.665 819.414L583.247 812.467L598.685 815.982L597.103 822.93Z" fill="black"/>
<path d="M125.455 756.124L110.017 752.608L111.599 745.661L127.037 749.177L125.455 756.124ZM144.741 760.516L129.302 757L130.884 750.053L146.323 753.568L144.741 760.516ZM164.027 764.908L148.588 761.392L150.17 754.445L165.609 757.96L164.027 764.908ZM183.312 769.299L167.874 765.784L169.456 758.836L184.894 762.352L183.312 769.299ZM202.598 773.691L187.159 770.175L188.741 763.228L204.18 766.744L202.598 773.691ZM221.884 778.083L206.445 774.567L208.027 767.62L223.466 771.135L221.884 778.083ZM241.169 782.475L225.731 778.959L227.313 772.012L242.752 775.527L241.169 782.475ZM260.455 786.866L245.017 783.351L246.599 776.403L262.037 779.919L260.455 786.866ZM279.741 791.258L264.302 787.742L265.884 780.795L281.323 784.311L279.741 791.258ZM299.027 795.65L283.588 792.134L285.17 785.187L300.609 788.703L299.027 795.65ZM318.312 800.042L302.874 796.526L304.456 789.579L319.894 793.094L318.312 800.042ZM337.598 804.433L322.159 800.918L323.741 793.97L339.18 797.486L337.598 804.433ZM356.884 808.825L341.445 805.309L343.027 798.362L358.466 801.878L356.884 808.825ZM376.169 813.217L360.731 809.701L362.313 802.754L377.752 806.27L376.169 813.217ZM395.455 817.609L380.017 814.093L381.599 807.146L397.037 810.661L395.455 817.609ZM414.741 822L399.302 818.485L400.884 811.537L416.323 815.053L414.741 822ZM434.027 826.392L418.588 822.877L420.17 815.929L435.609 819.445L434.027 826.392ZM453.312 830.784L437.874 827.268L439.456 820.321L454.894 823.837L453.312 830.784ZM472.598 835.176L457.159 831.66L458.741 824.713L474.18 828.228L472.598 835.176ZM491.884 839.567L476.445 836.052L478.027 829.104L493.466 832.62L491.884 839.567ZM511.169 843.959L495.731 840.444L497.313 833.496L512.752 837.012L511.169 843.959ZM530.455 848.351L515.017 844.835L516.599 837.888L532.037 841.404L530.455 848.351ZM549.741 852.743L534.302 849.227L535.884 842.28L551.323 845.795L549.741 852.743ZM569.027 857.135L553.588 853.619L555.17 846.671L570.609 850.187L569.027 857.135ZM588.312 861.526L572.874 858.011L574.456 851.063L589.894 854.579L588.312 861.526Z" fill="black"/>
<path d="M245.576 228.638L230.138 225.122L231.72 218.175L247.158 221.69L245.576 228.638ZM264.862 233.029L249.423 229.514L251.005 222.566L266.444 226.082L264.862 233.029ZM284.148 237.421L268.709 233.905L270.291 226.958L285.73 230.474L284.148 237.421ZM303.433 241.813L287.995 238.297L289.577 231.35L305.015 234.866L303.433 241.813ZM322.719 246.205L307.28 242.689L308.863 235.742L324.301 239.257L322.719 246.205ZM342.005 250.596L326.566 247.081L328.148 240.133L343.587 243.649L342.005 250.596ZM361.291 254.988L345.852 251.473L347.434 244.525L362.873 248.041L361.291 254.988ZM380.576 259.38L365.138 255.864L366.72 248.917L382.158 252.433L380.576 259.38ZM399.862 263.772L384.423 260.256L386.005 253.309L401.444 256.824L399.862 263.772ZM419.148 268.164L403.709 264.648L405.291 257.7L420.73 261.216L419.148 268.164ZM438.433 272.555L422.995 269.04L424.577 262.092L440.015 265.608L438.433 272.555ZM457.719 276.947L442.28 273.431L443.863 266.484L459.301 270L457.719 276.947ZM477.005 281.339L461.566 277.823L463.148 270.876L478.587 274.391L477.005 281.339ZM496.291 285.731L480.852 282.215L482.434 275.267L497.873 278.783L496.291 285.731ZM515.576 290.122L500.138 286.607L501.72 279.659L517.158 283.175L515.576 290.122ZM534.862 294.514L519.423 290.998L521.005 284.051L536.444 287.567L534.862 294.514ZM554.148 298.906L538.709 295.39L540.291 288.443L555.73 291.958L554.148 298.906ZM573.433 303.298L557.995 299.782L559.577 292.835L575.015 296.35L573.433 303.298ZM592.719 307.689L577.281 304.174L578.863 297.226L594.301 300.742L592.719 307.689ZM612.005 312.081L596.566 308.565L598.148 301.618L613.587 305.134L612.005 312.081ZM631.291 316.473L615.852 312.957L617.434 306.01L632.873 309.525L631.291 316.473ZM650.576 320.865L635.138 317.349L636.72 310.402L652.158 313.917L650.576 320.865ZM669.862 325.256L654.423 321.741L656.005 314.793L671.444 318.309L669.862 325.256ZM689.148 329.648L673.709 326.132L675.291 319.185L690.73 322.701L689.148 329.648ZM708.433 334.04L692.995 330.524L694.577 323.577L710.016 327.093L708.433 334.04Z" fill="black"/>
<path d="M236.787 267.234L221.349 263.719L222.931 256.771L238.369 260.287L236.787 267.234ZM256.073 271.626L240.634 268.11L242.216 261.163L257.655 264.679L256.073 271.626ZM275.359 276.018L259.92 272.502L261.502 265.555L276.941 269.07L275.359 276.018ZM294.644 280.41L279.206 276.894L280.788 269.947L296.226 273.462L294.644 280.41ZM313.93 284.801L298.491 281.286L300.073 274.338L315.512 277.854L313.93 284.801ZM333.216 289.193L317.777 285.677L319.359 278.73L334.798 282.246L333.216 289.193ZM352.501 293.585L337.063 290.069L338.645 283.122L354.084 286.638L352.501 293.585ZM371.787 297.977L356.349 294.461L357.931 287.514L373.369 291.029L371.787 297.977ZM391.073 302.368L375.634 298.853L377.216 291.905L392.655 295.421L391.073 302.368ZM410.359 306.76L394.92 303.244L396.502 296.297L411.941 299.813L410.359 306.76ZM429.644 311.152L414.206 307.636L415.788 300.689L431.226 304.205L429.644 311.152ZM448.93 315.544L433.491 312.028L435.073 305.081L450.512 308.596L448.93 315.544ZM468.216 319.935L452.777 316.42L454.359 309.472L469.798 312.988L468.216 319.935ZM487.501 324.327L472.063 320.812L473.645 313.864L489.084 317.38L487.501 324.327ZM506.787 328.719L491.349 325.203L492.931 318.256L508.369 321.772L506.787 328.719ZM526.073 333.111L510.634 329.595L512.216 322.648L527.655 326.163L526.073 333.111ZM545.359 337.502L529.92 333.987L531.502 327.039L546.941 330.555L545.359 337.502ZM564.644 341.894L549.206 338.379L550.788 331.431L566.226 334.947L564.644 341.894ZM583.93 346.286L568.491 342.77L570.074 335.823L585.512 339.339L583.93 346.286ZM603.216 350.678L587.777 347.162L589.359 340.215L604.798 343.73L603.216 350.678ZM622.501 355.07L607.063 351.554L608.645 344.606L624.084 348.122L622.501 355.07ZM641.787 359.461L626.349 355.946L627.931 348.998L643.369 352.514L641.787 359.461ZM661.073 363.853L645.634 360.337L647.216 353.39L662.655 356.906L661.073 363.853ZM680.359 368.245L664.92 364.729L666.502 357.782L681.941 361.297L680.359 368.245ZM699.644 372.637L684.206 369.121L685.788 362.173L701.226 365.689L699.644 372.637Z" fill="black"/>
<path d="M228.729 302.614L213.29 299.099L214.872 292.151L230.311 295.667L228.729 302.614ZM248.014 307.006L232.576 303.491L234.158 296.543L249.596 300.059L248.014 307.006ZM267.3 311.398L251.861 307.882L253.443 300.935L268.882 304.451L267.3 311.398ZM286.586 315.79L271.147 312.274L272.729 305.327L288.168 308.842L286.586 315.79ZM305.871 320.182L290.433 316.666L292.015 309.718L307.454 313.234L305.871 320.182ZM325.157 324.573L309.719 321.058L311.301 314.11L326.739 317.626L325.157 324.573ZM344.443 328.965L329.004 325.449L330.586 318.502L346.025 322.018L344.443 328.965ZM363.729 333.357L348.29 329.841L349.872 322.894L365.311 326.409L363.729 333.357ZM383.014 337.749L367.576 334.233L369.158 327.285L384.596 330.801L383.014 337.749ZM402.3 342.14L386.861 338.625L388.443 331.677L403.882 335.193L402.3 342.14ZM421.586 346.532L406.147 343.016L407.729 336.069L423.168 339.585L421.586 346.532ZM440.871 350.924L425.433 347.408L427.015 340.461L442.454 343.976L440.871 350.924ZM460.157 355.316L444.719 351.8L446.301 344.853L461.739 348.368L460.157 355.316ZM479.443 359.707L464.004 356.192L465.586 349.244L481.025 352.76L479.443 359.707ZM498.729 364.099L483.29 360.583L484.872 353.636L500.311 357.152L498.729 364.099ZM518.014 368.491L502.576 364.975L504.158 358.028L519.596 361.543L518.014 368.491ZM537.3 372.883L521.861 369.367L523.443 362.42L538.882 365.935L537.3 372.883ZM556.586 377.274L541.147 373.759L542.729 366.811L558.168 370.327L556.586 377.274ZM575.871 381.666L560.433 378.15L562.015 371.203L577.454 374.719L575.871 381.666ZM595.157 386.058L579.719 382.542L581.301 375.595L596.739 379.111L595.157 386.058ZM614.443 390.45L599.004 386.934L600.586 379.987L616.025 383.502L614.443 390.45ZM633.729 394.841L618.29 391.326L619.872 384.378L635.311 387.894L633.729 394.841ZM653.014 399.233L637.576 395.717L639.158 388.77L654.596 392.286L653.014 399.233ZM672.3 403.625L656.861 400.109L658.443 393.162L673.882 396.678L672.3 403.625ZM691.586 408.017L676.147 404.501L677.729 397.554L693.168 401.069L691.586 408.017Z" fill="black"/>
<path d="M185.516 492.381L170.077 488.865L171.659 481.918L187.098 485.434L185.516 492.381ZM204.801 496.773L189.363 493.257L190.945 486.31L206.383 489.825L204.801 496.773ZM224.087 501.165L208.648 497.649L210.231 490.701L225.669 494.217L224.087 501.165ZM243.373 505.556L227.934 502.041L229.516 495.093L244.955 498.609L243.373 505.556ZM262.659 509.948L247.22 506.432L248.802 499.485L264.241 503.001L262.659 509.948ZM281.944 514.34L266.506 510.824L268.088 503.877L283.526 507.392L281.944 514.34ZM301.23 518.732L285.791 515.216L287.373 508.268L302.812 511.784L301.23 518.732ZM320.516 523.123L305.077 519.608L306.659 512.66L322.098 516.176L320.516 523.123ZM339.801 527.515L324.363 523.999L325.945 517.052L341.383 520.568L339.801 527.515ZM359.087 531.907L343.649 528.391L345.231 521.444L360.669 524.959L359.087 531.907ZM378.373 536.299L362.934 532.783L364.516 525.836L379.955 529.351L378.373 536.299ZM397.659 540.69L382.22 537.175L383.802 530.227L399.241 533.743L397.659 540.69ZM416.944 545.082L401.506 541.566L403.088 534.619L418.526 538.135L416.944 545.082ZM436.23 549.474L420.791 545.958L422.373 539.011L437.812 542.527L436.23 549.474ZM455.516 553.866L440.077 550.35L441.659 543.403L457.098 546.918L455.516 553.866ZM474.801 558.257L459.363 554.742L460.945 547.794L476.383 551.31L474.801 558.257ZM494.087 562.649L478.649 559.133L480.231 552.186L495.669 555.702L494.087 562.649ZM513.373 567.041L497.934 563.525L499.516 556.578L514.955 560.094L513.373 567.041ZM532.659 571.433L517.22 567.917L518.802 560.97L534.241 564.485L532.659 571.433ZM551.944 575.824L536.506 572.309L538.088 565.361L553.526 568.877L551.944 575.824ZM571.23 580.216L555.791 576.701L557.373 569.753L572.812 573.269L571.23 580.216ZM590.516 584.608L575.077 581.092L576.659 574.145L592.098 577.661L590.516 584.608ZM609.801 589L594.363 585.484L595.945 578.537L611.384 582.052L609.801 589ZM629.087 593.391L613.649 589.876L615.231 582.928L630.669 586.444L629.087 593.391ZM648.373 597.783L632.934 594.268L634.516 587.32L649.955 590.836L648.373 597.783Z" fill="black"/>
<path d="M176.727 530.977L161.288 527.462L162.87 520.514L178.309 524.03L176.727 530.977ZM196.012 535.369L180.574 531.854L182.156 524.906L197.594 528.422L196.012 535.369ZM215.298 539.761L199.859 536.245L201.441 529.298L216.88 532.814L215.298 539.761ZM234.584 544.153L219.145 540.637L220.727 533.69L236.166 537.205L234.584 544.153ZM253.869 548.544L238.431 545.029L240.013 538.081L255.452 541.597L253.869 548.544ZM273.155 552.936L257.717 549.421L259.299 542.473L274.737 545.989L273.155 552.936ZM292.441 557.328L277.002 553.812L278.584 546.865L294.023 550.381L292.441 557.328ZM311.727 561.72L296.288 558.204L297.87 551.257L313.309 554.772L311.727 561.72ZM331.012 566.112L315.574 562.596L317.156 555.648L332.594 559.164L331.012 566.112ZM350.298 570.503L334.859 566.988L336.442 560.04L351.88 563.556L350.298 570.503ZM369.584 574.895L354.145 571.379L355.727 564.432L371.166 567.948L369.584 574.895ZM388.87 579.287L373.431 575.771L375.013 568.824L390.452 572.339L388.87 579.287ZM408.155 583.679L392.717 580.163L394.299 573.215L409.737 576.731L408.155 583.679ZM427.441 588.07L412.002 584.555L413.584 577.607L429.023 581.123L427.441 588.07ZM446.727 592.462L431.288 588.946L432.87 581.999L448.309 585.515L446.727 592.462ZM466.012 596.854L450.574 593.338L452.156 586.391L467.594 589.906L466.012 596.854ZM485.298 601.246L469.859 597.73L471.442 590.783L486.88 594.298L485.298 601.246ZM504.584 605.637L489.145 602.122L490.727 595.174L506.166 598.69L504.584 605.637ZM523.87 610.029L508.431 606.513L510.013 599.566L525.452 603.082L523.87 610.029ZM543.155 614.421L527.717 610.905L529.299 603.958L544.737 607.473L543.155 614.421ZM562.441 618.813L547.002 615.297L548.584 608.35L564.023 611.865L562.441 618.813ZM581.727 623.204L566.288 619.689L567.87 612.741L583.309 616.257L581.727 623.204ZM601.012 627.596L585.574 624.08L587.156 617.133L602.594 620.649L601.012 627.596ZM620.298 631.988L604.859 628.472L606.442 621.525L621.88 625.041L620.298 631.988ZM639.584 636.38L624.145 632.864L625.727 625.917L641.166 629.432L639.584 636.38Z" fill="black"/>
<path d="M167.938 569.574L152.499 566.058L154.081 559.111L169.52 562.627L167.938 569.574ZM187.223 573.966L171.785 570.45L173.367 563.503L188.805 567.018L187.223 573.966ZM206.509 578.358L191.07 574.842L192.652 567.895L208.091 571.41L206.509 578.358ZM225.795 582.749L210.356 579.234L211.938 572.286L227.377 575.802L225.795 582.749ZM245.08 587.141L229.642 583.625L231.224 576.678L246.662 580.194L245.08 587.141ZM264.366 591.533L248.928 588.017L250.51 581.07L265.948 584.585L264.366 591.533ZM283.652 595.925L268.213 592.409L269.795 585.462L285.234 588.977L283.652 595.925ZM302.938 600.316L287.499 596.801L289.081 589.853L304.52 593.369L302.938 600.316ZM322.223 604.708L306.785 601.192L308.367 594.245L323.805 597.761L322.223 604.708ZM341.509 609.1L326.07 605.584L327.652 598.637L343.091 602.153L341.509 609.1ZM360.795 613.492L345.356 609.976L346.938 603.029L362.377 606.544L360.795 613.492ZM380.08 617.883L364.642 614.368L366.224 607.42L381.663 610.936L380.08 617.883ZM399.366 622.275L383.928 618.759L385.51 611.812L400.948 615.328L399.366 622.275ZM418.652 626.667L403.213 623.151L404.795 616.204L420.234 619.72L418.652 626.667ZM437.938 631.059L422.499 627.543L424.081 620.596L439.52 624.111L437.938 631.059ZM457.223 635.45L441.785 631.935L443.367 624.987L458.805 628.503L457.223 635.45ZM476.509 639.842L461.07 636.327L462.652 629.379L478.091 632.895L476.509 639.842ZM495.795 644.234L480.356 640.718L481.938 633.771L497.377 637.287L495.795 644.234ZM515.08 648.626L499.642 645.11L501.224 638.163L516.663 641.678L515.08 648.626ZM534.366 653.017L518.928 649.502L520.51 642.554L535.948 646.07L534.366 653.017ZM553.652 657.409L538.213 653.894L539.795 646.946L555.234 650.462L553.652 657.409ZM572.938 661.801L557.499 658.285L559.081 651.338L574.52 654.854L572.938 661.801ZM592.223 666.193L576.785 662.677L578.367 655.73L593.805 659.245L592.223 666.193ZM611.509 670.585L596.07 667.069L597.652 660.121L613.091 663.637L611.509 670.585ZM630.795 674.976L615.356 671.461L616.938 664.513L632.377 668.029L630.795 674.976Z" fill="black"/>
<path d="M159.883 604.954L144.444 601.439L146.026 594.491L161.465 598.007L159.883 604.954ZM179.169 609.346L163.73 605.83L165.312 598.883L180.751 602.399L179.169 609.346ZM198.454 613.738L183.016 610.222L184.598 603.275L200.036 606.79L198.454 613.738ZM217.74 618.13L202.301 614.614L203.883 607.666L219.322 611.182L217.74 618.13ZM237.026 622.521L221.587 619.006L223.169 612.058L238.608 615.574L237.026 622.521ZM256.311 626.913L240.873 623.397L242.455 616.45L257.894 619.966L256.311 626.913ZM275.597 631.305L260.159 627.789L261.741 620.842L277.179 624.357L275.597 631.305ZM294.883 635.697L279.444 632.181L281.026 625.233L296.465 628.749L294.883 635.697ZM314.169 640.088L298.73 636.573L300.312 629.625L315.751 633.141L314.169 640.088ZM333.454 644.48L318.016 640.964L319.598 634.017L335.036 637.533L333.454 644.48ZM352.74 648.872L337.301 645.356L338.883 638.409L354.322 641.924L352.74 648.872ZM372.026 653.264L356.587 649.748L358.169 642.801L373.608 646.316L372.026 653.264ZM391.311 657.655L375.873 654.14L377.455 647.192L392.894 650.708L391.311 657.655ZM410.597 662.047L395.159 658.531L396.741 651.584L412.179 655.1L410.597 662.047ZM429.883 666.439L414.444 662.923L416.026 655.976L431.465 659.492L429.883 666.439ZM449.169 670.831L433.73 667.315L435.312 660.368L450.751 663.883L449.169 670.831ZM468.454 675.222L453.016 671.707L454.598 664.759L470.036 668.275L468.454 675.222ZM487.74 679.614L472.301 676.098L473.883 669.151L489.322 672.667L487.74 679.614ZM507.026 684.006L491.587 680.49L493.169 673.543L508.608 677.059L507.026 684.006ZM526.311 688.398L510.873 684.882L512.455 677.935L527.894 681.45L526.311 688.398ZM545.597 692.789L530.159 689.274L531.741 682.326L547.179 685.842L545.597 692.789ZM564.883 697.181L549.444 693.666L551.026 686.718L566.465 690.234L564.883 697.181ZM584.169 701.573L568.73 698.057L570.312 691.11L585.751 694.626L584.169 701.573ZM603.454 705.965L588.016 702.449L589.598 695.502L605.036 699.017L603.454 705.965ZM622.74 710.356L607.301 706.841L608.884 699.893L624.322 703.409L622.74 710.356Z" fill="black"/>
<path d="M219.941 341.211L204.503 337.695L206.085 330.748L221.524 334.264L219.941 341.211ZM239.227 345.603L223.789 342.087L225.371 335.14L240.809 338.655L239.227 345.603ZM258.513 349.995L243.074 346.479L244.656 339.532L260.095 343.047L258.513 349.995ZM277.799 354.386L262.36 350.871L263.942 343.923L279.381 347.439L277.799 354.386ZM297.084 358.778L281.646 355.262L283.228 348.315L298.666 351.831L297.084 358.778ZM316.37 363.17L300.931 359.654L302.513 352.707L317.952 356.223L316.37 363.17ZM335.656 367.562L320.217 364.046L321.799 357.099L337.238 360.614L335.656 367.562ZM354.941 371.953L339.503 368.438L341.085 361.49L356.524 365.006L354.941 371.953ZM374.227 376.345L358.789 372.829L360.371 365.882L375.809 369.398L374.227 376.345ZM393.513 380.737L378.074 377.221L379.656 370.274L395.095 373.79L393.513 380.737ZM412.799 385.129L397.36 381.613L398.942 374.666L414.381 378.181L412.799 385.129ZM432.084 389.52L416.646 386.005L418.228 379.057L433.666 382.573L432.084 389.52ZM451.37 393.912L435.931 390.397L437.514 383.449L452.952 386.965L451.37 393.912ZM470.656 398.304L455.217 394.788L456.799 387.841L472.238 391.357L470.656 398.304ZM489.941 402.696L474.503 399.18L476.085 392.233L491.524 395.748L489.941 402.696ZM509.227 407.087L493.789 403.572L495.371 396.624L510.809 400.14L509.227 407.087ZM528.513 411.479L513.074 407.964L514.656 401.016L530.095 404.532L528.513 411.479ZM547.799 415.871L532.36 412.355L533.942 405.408L549.381 408.924L547.799 415.871ZM567.084 420.263L551.646 416.747L553.228 409.8L568.666 413.315L567.084 420.263ZM586.37 424.655L570.931 421.139L572.514 414.191L587.952 417.707L586.37 424.655ZM605.656 429.046L590.217 425.531L591.799 418.583L607.238 422.099L605.656 429.046ZM624.942 433.438L609.503 429.922L611.085 422.975L626.524 426.491L624.942 433.438ZM644.227 437.83L628.789 434.314L630.371 427.367L645.809 430.882L644.227 437.83ZM663.513 442.222L648.074 438.706L649.656 431.758L665.095 435.274L663.513 442.222ZM682.799 446.613L667.36 443.098L668.942 436.15L684.381 439.666L682.799 446.613Z" fill="black"/>
<path d="M211.152 379.808L195.714 376.292L197.296 369.345L212.734 372.86L211.152 379.808ZM230.438 384.199L214.999 380.684L216.582 373.736L232.02 377.252L230.438 384.199ZM249.724 388.591L234.285 385.075L235.867 378.128L251.306 381.644L249.724 388.591ZM269.01 392.983L253.571 389.467L255.153 382.52L270.592 386.036L269.01 392.983ZM288.295 397.375L272.857 393.859L274.439 386.912L289.877 390.427L288.295 397.375ZM307.581 401.766L292.142 398.251L293.724 391.303L309.163 394.819L307.581 401.766ZM326.867 406.158L311.428 402.643L313.01 395.695L328.449 399.211L326.867 406.158ZM346.152 410.55L330.714 407.034L332.296 400.087L347.734 403.603L346.152 410.55ZM365.438 414.942L350 411.426L351.582 404.479L367.02 407.994L365.438 414.942ZM384.724 419.333L369.285 415.818L370.867 408.87L386.306 412.386L384.724 419.333ZM404.01 423.725L388.571 420.21L390.153 413.262L405.592 416.778L404.01 423.725ZM423.295 428.117L407.857 424.601L409.439 417.654L424.877 421.17L423.295 428.117ZM442.581 432.509L427.142 428.993L428.724 422.046L444.163 425.561L442.581 432.509ZM461.867 436.901L446.428 433.385L448.01 426.437L463.449 429.953L461.867 436.901ZM481.152 441.292L465.714 437.777L467.296 430.829L482.734 434.345L481.152 441.292ZM500.438 445.684L485 442.168L486.582 435.221L502.02 438.737L500.438 445.684ZM519.724 450.076L504.285 446.56L505.867 439.613L521.306 443.128L519.724 450.076ZM539.01 454.468L523.571 450.952L525.153 444.004L540.592 447.52L539.01 454.468ZM558.295 458.859L542.857 455.344L544.439 448.396L559.877 451.912L558.295 458.859ZM577.581 463.251L562.142 459.735L563.724 452.788L579.163 456.304L577.581 463.251ZM596.867 467.643L581.428 464.127L583.01 457.18L598.449 460.695L596.867 467.643ZM616.152 472.035L600.714 468.519L602.296 461.572L617.735 465.087L616.152 472.035ZM635.438 476.426L620 472.911L621.582 465.963L637.02 469.479L635.438 476.426ZM654.724 480.818L639.285 477.302L640.867 470.355L656.306 473.871L654.724 480.818ZM674.01 485.21L658.571 481.694L660.153 474.747L675.592 478.262L674.01 485.21Z" fill="black"/>
<path d="M202.363 418.404L186.925 414.888L188.507 407.941L203.945 411.457L202.363 418.404ZM221.649 422.796L206.21 419.28L207.792 412.333L223.231 415.849L221.649 422.796ZM240.935 427.188L225.496 423.672L227.078 416.725L242.517 420.24L240.935 427.188ZM260.22 431.579L244.782 428.064L246.364 421.116L261.803 424.632L260.22 431.579ZM279.506 435.971L264.068 432.455L265.65 425.508L281.088 429.024L279.506 435.971ZM298.792 440.363L283.353 436.847L284.935 429.9L300.374 433.416L298.792 440.363ZM318.078 444.755L302.639 441.239L304.221 434.292L319.66 437.807L318.078 444.755ZM337.363 449.146L321.925 445.631L323.507 438.683L338.945 442.199L337.363 449.146ZM356.649 453.538L341.21 450.023L342.793 443.075L358.231 446.591L356.649 453.538ZM375.935 457.93L360.496 454.414L362.078 447.467L377.517 450.983L375.935 457.93ZM395.221 462.322L379.782 458.806L381.364 451.859L396.803 455.374L395.221 462.322ZM414.506 466.714L399.068 463.198L400.65 456.25L416.088 459.766L414.506 466.714ZM433.792 471.105L418.353 467.59L419.935 460.642L435.374 464.158L433.792 471.105ZM453.078 475.497L437.639 471.981L439.221 465.034L454.66 468.55L453.078 475.497ZM472.363 479.889L456.925 476.373L458.507 469.426L473.945 472.941L472.363 479.889ZM491.649 484.281L476.21 480.765L477.793 473.817L493.231 477.333L491.649 484.281ZM510.935 488.672L495.496 485.157L497.078 478.209L512.517 481.725L510.935 488.672ZM530.221 493.064L514.782 489.548L516.364 482.601L531.803 486.117L530.221 493.064ZM549.506 497.456L534.068 493.94L535.65 486.993L551.088 490.508L549.506 497.456ZM568.792 501.848L553.353 498.332L554.935 491.384L570.374 494.9L568.792 501.848ZM588.078 506.239L572.639 502.724L574.221 495.776L589.66 499.292L588.078 506.239ZM607.363 510.631L591.925 507.115L593.507 500.168L608.945 503.684L607.363 510.631ZM626.649 515.023L611.21 511.507L612.793 504.56L628.231 508.075L626.649 515.023ZM645.935 519.415L630.496 515.899L632.078 508.952L647.517 512.467L645.935 519.415ZM665.221 523.806L649.782 520.291L651.364 513.343L666.803 516.859L665.221 523.806Z" fill="black"/>
<path d="M194.307 453.784L178.868 450.269L180.45 443.321L195.889 446.837L194.307 453.784ZM213.592 458.176L198.154 454.66L199.736 447.713L215.174 451.229L213.592 458.176ZM232.878 462.568L217.44 459.052L219.022 452.105L234.46 455.62L232.878 462.568ZM252.164 466.96L236.725 463.444L238.307 456.497L253.746 460.012L252.164 466.96ZM271.45 471.351L256.011 467.836L257.593 460.888L273.032 464.404L271.45 471.351ZM290.735 475.743L275.297 472.227L276.879 465.28L292.317 468.796L290.735 475.743ZM310.021 480.135L294.582 476.619L296.164 469.672L311.603 473.188L310.021 480.135ZM329.307 484.527L313.868 481.011L315.45 474.064L330.889 477.579L329.307 484.527ZM348.592 488.918L333.154 485.403L334.736 478.455L350.174 481.971L348.592 488.918ZM367.878 493.31L352.44 489.794L354.022 482.847L369.46 486.363L367.878 493.31ZM387.164 497.702L371.725 494.186L373.307 487.239L388.746 490.755L387.164 497.702ZM406.45 502.094L391.011 498.578L392.593 491.631L408.032 495.146L406.45 502.094ZM425.735 506.485L410.297 502.97L411.879 496.022L427.317 499.538L425.735 506.485ZM445.021 510.877L429.582 507.362L431.164 500.414L446.603 503.93L445.021 510.877ZM464.307 515.269L448.868 511.753L450.45 504.806L465.889 508.322L464.307 515.269ZM483.592 519.661L468.154 516.145L469.736 509.198L485.175 512.713L483.592 519.661ZM502.878 524.052L487.44 520.537L489.022 513.589L504.46 517.105L502.878 524.052ZM522.164 528.444L506.725 524.929L508.307 517.981L523.746 521.497L522.164 528.444ZM541.45 532.836L526.011 529.32L527.593 522.373L543.032 525.889L541.45 532.836ZM560.735 537.228L545.297 533.712L546.879 526.765L562.317 530.28L560.735 537.228ZM580.021 541.62L564.582 538.104L566.164 531.156L581.603 534.672L580.021 541.62ZM599.307 546.011L583.868 542.496L585.45 535.548L600.889 539.064L599.307 546.011ZM618.592 550.403L603.154 546.887L604.736 539.94L620.175 543.456L618.592 550.403ZM637.878 554.795L622.44 551.279L624.022 544.332L639.46 547.847L637.878 554.795ZM657.164 559.187L641.725 555.671L643.307 548.723L658.746 552.239L657.164 559.187Z" fill="black"/>
<rect x="277.076" y="375.081" width="136.948" height="30.6119" transform="rotate(12.83 277.076 375.081)" fill="black"/>
<rect x="161.15" y="506.938" width="56.5836" height="30.6119" transform="rotate(12.83 161.15 506.938)" fill="black"/>
<rect x="282.387" y="216.677" width="96.8466" height="30.6119" transform="rotate(12.83 282.387 216.677)" fill="black"/>
</svg>
