<svg width="1029" height="1117" viewBox="0 0 1029 1117" fill="none" xmlns="http://www.w3.org/2000/svg">
<rect x="481.94" y="1.13522" width="641.601" height="913.746" transform="rotate(31.7485 481.94 1.13522)" fill="#C7C7C7" stroke="black" stroke-width="1.64936"/>
<path d="M447.575 230.009L434.111 221.677L437.86 215.618L451.325 223.95L447.575 230.009ZM464.395 240.416L450.931 232.085L454.68 226.026L468.144 234.357L464.395 240.416ZM481.215 250.824L467.75 242.493L471.5 236.433L484.964 244.765L481.215 250.824ZM498.035 261.232L484.57 252.9L488.319 246.841L501.784 255.173L498.035 261.232ZM514.855 271.64L501.39 263.308L505.139 257.249L518.604 265.581L514.855 271.64ZM531.674 282.047L518.21 273.716L521.959 267.657L535.424 275.988L531.674 282.047ZM548.494 292.455L535.029 284.124L538.779 278.065L552.243 286.396L548.494 292.455ZM565.314 302.863L551.849 294.531L555.598 288.472L569.063 296.804L565.314 302.863ZM582.134 313.271L568.669 304.939L572.418 298.88L585.883 307.212L582.134 313.271ZM598.953 323.679L585.489 315.347L589.238 309.288L602.703 317.619L598.953 323.679ZM615.773 334.086L602.309 325.755L606.058 319.696L619.522 328.027L615.773 334.086ZM632.593 344.494L619.128 336.162L622.878 330.103L636.342 338.435L632.593 344.494ZM649.413 354.902L635.948 346.57L639.697 340.511L653.162 348.843L649.413 354.902ZM666.232 365.31L652.768 356.978L656.517 350.919L669.982 359.251L666.232 365.31ZM683.052 375.717L669.588 367.386L673.337 361.327L686.801 369.658L683.052 375.717ZM699.872 386.125L686.407 377.793L690.157 371.734L703.621 380.066L699.872 386.125ZM716.692 396.533L703.227 388.201L706.976 382.142L720.441 390.474L716.692 396.533ZM733.512 406.941L720.047 398.609L723.796 392.55L737.261 400.882L733.512 406.941ZM750.331 417.348L736.867 409.017L740.616 402.958L754.081 411.289L750.331 417.348ZM767.151 427.756L753.687 419.425L757.436 413.365L770.9 421.697L767.151 427.756ZM783.971 438.164L770.506 429.832L774.256 423.773L787.72 432.105L783.971 438.164ZM800.791 448.572L787.326 440.24L791.075 434.181L804.54 442.513L800.791 448.572ZM817.61 458.979L804.146 450.648L807.895 444.589L821.36 452.92L817.61 458.979ZM834.43 469.387L820.966 461.056L824.715 454.997L838.179 463.328L834.43 469.387ZM851.25 479.795L837.785 471.463L841.535 465.404L854.999 473.736L851.25 479.795Z" fill="black"/>
<path d="M202.835 625.531L189.371 617.199L193.12 611.14L206.584 619.472L202.835 625.531ZM219.655 635.939L206.19 627.607L209.94 621.548L223.404 629.88L219.655 635.939ZM236.475 646.346L223.01 638.015L226.759 631.956L240.224 640.287L236.475 646.346ZM253.295 656.754L239.83 648.423L243.579 642.364L257.044 650.695L253.295 656.754ZM270.114 667.162L256.65 658.83L260.399 652.771L273.864 661.103L270.114 667.162ZM286.934 677.57L273.469 669.238L277.219 663.179L290.683 671.511L286.934 677.57ZM303.754 687.978L290.289 679.646L294.038 673.587L307.503 681.918L303.754 687.978ZM320.574 698.385L307.109 690.054L310.858 683.995L324.323 692.326L320.574 698.385ZM337.393 708.793L323.929 700.461L327.678 694.402L341.143 702.734L337.393 708.793ZM354.213 719.201L340.749 710.869L344.498 704.81L357.962 713.142L354.213 719.201ZM371.033 729.609L357.568 721.277L361.318 715.218L374.782 723.55L371.033 729.609ZM387.853 740.016L374.388 731.685L378.137 725.626L391.602 733.957L387.853 740.016ZM404.672 750.424L391.208 742.093L394.957 736.033L408.422 744.365L404.672 750.424ZM421.492 760.832L408.028 752.5L411.777 746.441L425.241 754.773L421.492 760.832ZM438.312 771.24L424.847 762.908L428.597 756.849L442.061 765.181L438.312 771.24ZM455.132 781.647L441.667 773.316L445.416 767.257L458.881 775.588L455.132 781.647ZM471.952 792.055L458.487 783.724L462.236 777.665L475.701 785.996L471.952 792.055ZM488.771 802.463L475.307 794.131L479.056 788.072L492.521 796.404L488.771 802.463ZM505.591 812.871L492.127 804.539L495.876 798.48L509.34 806.812L505.591 812.871ZM522.411 823.278L508.946 814.947L512.696 808.888L526.16 817.219L522.411 823.278ZM539.231 833.686L525.766 825.355L529.515 819.296L542.98 827.627L539.231 833.686ZM556.05 844.094L542.586 835.762L546.335 829.703L559.8 838.035L556.05 844.094ZM572.87 854.502L559.406 846.17L563.155 840.111L576.619 848.443L572.87 854.502ZM589.69 864.91L576.225 856.578L579.975 850.519L593.439 858.851L589.69 864.91ZM606.51 875.317L593.045 866.986L596.794 860.927L610.259 869.258L606.51 875.317Z" fill="black"/>
<path d="M182.005 659.192L168.541 650.861L172.29 644.802L185.754 653.133L182.005 659.192ZM198.825 669.6L185.36 661.268L189.11 655.209L202.574 663.541L198.825 669.6ZM215.645 680.008L202.18 671.676L205.929 665.617L219.394 673.949L215.645 680.008ZM232.464 690.416L219 682.084L222.749 676.025L236.214 684.357L232.464 690.416ZM249.284 700.823L235.82 692.492L239.569 686.433L253.033 694.764L249.284 700.823ZM266.104 711.231L252.639 702.9L256.389 696.84L269.853 705.172L266.104 711.231ZM282.924 721.639L269.459 713.307L273.208 707.248L286.673 715.58L282.924 721.639ZM299.744 732.047L286.279 723.715L290.028 717.656L303.493 725.988L299.744 732.047ZM316.563 742.454L303.099 734.123L306.848 728.064L320.313 736.395L316.563 742.454ZM333.383 752.862L319.918 744.531L323.668 738.472L337.132 746.803L333.383 752.862ZM350.203 763.27L336.738 754.938L340.487 748.879L353.952 757.211L350.203 763.27ZM367.023 773.678L353.558 765.346L357.307 759.287L370.772 767.619L367.023 773.678ZM383.842 784.086L370.378 775.754L374.127 769.695L387.592 778.026L383.842 784.086ZM400.662 794.493L387.198 786.162L390.947 780.103L404.411 788.434L400.662 794.493ZM417.482 804.901L404.017 796.569L407.767 790.51L421.231 798.842L417.482 804.901ZM434.302 815.309L420.837 806.977L424.586 800.918L438.051 809.25L434.302 815.309ZM451.121 825.717L437.657 817.385L441.406 811.326L454.871 819.658L451.121 825.717ZM467.941 836.124L454.477 827.793L458.226 821.734L471.691 830.065L467.941 836.124ZM484.761 846.532L471.296 838.2L475.046 832.141L488.51 840.473L484.761 846.532ZM501.581 856.94L488.116 848.608L491.865 842.549L505.33 850.881L501.581 856.94ZM518.401 867.348L504.936 859.016L508.685 852.957L522.15 861.289L518.401 867.348ZM535.22 877.755L521.756 869.424L525.505 863.365L538.97 871.696L535.22 877.755ZM552.04 888.163L538.576 879.832L542.325 873.772L555.789 882.104L552.04 888.163ZM568.86 898.571L555.395 890.239L559.145 884.18L572.609 892.512L568.86 898.571ZM585.68 908.979L572.215 900.647L575.964 894.588L589.429 902.92L585.68 908.979Z" fill="black"/>
<path d="M162.911 690.049L149.447 681.717L153.196 675.658L166.661 683.99L162.911 690.049ZM179.731 700.456L166.267 692.125L170.016 686.066L183.48 694.397L179.731 700.456ZM196.551 710.864L183.086 702.533L186.836 696.474L200.3 704.805L196.551 710.864ZM213.371 721.272L199.906 712.94L203.655 706.881L217.12 715.213L213.371 721.272ZM230.19 731.68L216.726 723.348L220.475 717.289L233.94 725.621L230.19 731.68ZM247.01 742.088L233.546 733.756L237.295 727.697L250.759 736.028L247.01 742.088ZM263.83 752.495L250.365 744.164L254.115 738.105L267.579 746.436L263.83 752.495ZM280.65 762.903L267.185 754.571L270.934 748.512L284.399 756.844L280.65 762.903ZM297.47 773.311L284.005 764.979L287.754 758.92L301.219 767.252L297.47 773.311ZM314.289 783.719L300.825 775.387L304.574 769.328L318.039 777.66L314.289 783.719ZM331.109 794.126L317.645 785.795L321.394 779.736L334.858 788.067L331.109 794.126ZM347.929 804.534L334.464 796.202L338.214 790.143L351.678 798.475L347.929 804.534ZM364.749 814.942L351.284 806.61L355.033 800.551L368.498 808.883L364.749 814.942ZM381.568 825.35L368.104 817.018L371.853 810.959L385.318 819.291L381.568 825.35ZM398.388 835.757L384.924 827.426L388.673 821.367L402.137 829.698L398.388 835.757ZM415.208 846.165L401.743 837.834L405.493 831.774L418.957 840.106L415.208 846.165ZM432.028 856.573L418.563 848.241L422.312 842.182L435.777 850.514L432.028 856.573ZM448.848 866.981L435.383 858.649L439.132 852.59L452.597 860.922L448.848 866.981ZM465.667 877.389L452.203 869.057L455.952 862.998L469.417 871.329L465.667 877.389ZM482.487 887.796L469.022 879.465L472.772 873.406L486.236 881.737L482.487 887.796ZM499.307 898.204L485.842 889.872L489.591 883.813L503.056 892.145L499.307 898.204ZM516.127 908.612L502.662 900.28L506.411 894.221L519.876 902.553L516.127 908.612ZM532.946 919.02L519.482 910.688L523.231 904.629L536.696 912.961L532.946 919.02ZM549.766 929.427L536.302 921.096L540.051 915.037L553.515 923.368L549.766 929.427ZM566.586 939.835L553.121 931.503L556.871 925.444L570.335 933.776L566.586 939.835Z" fill="black"/>
<path d="M142.081 723.71L128.617 715.379L132.366 709.32L145.831 717.651L142.081 723.71ZM158.901 734.118L145.436 725.786L149.186 719.727L162.65 728.059L158.901 734.118ZM175.721 744.526L162.256 736.194L166.005 730.135L179.47 738.467L175.721 744.526ZM192.541 754.934L179.076 746.602L182.825 740.543L196.29 748.875L192.541 754.934ZM209.36 765.341L195.896 757.01L199.645 750.951L213.11 759.282L209.36 765.341ZM226.18 775.749L212.716 767.417L216.465 761.358L229.929 769.69L226.18 775.749ZM243 786.157L229.535 777.825L233.285 771.766L246.749 780.098L243 786.157ZM259.82 796.565L246.355 788.233L250.104 782.174L263.569 790.506L259.82 796.565ZM276.639 806.972L263.175 798.641L266.924 792.582L280.389 800.913L276.639 806.972ZM293.459 817.38L279.995 809.049L283.744 802.989L297.208 811.321L293.459 817.38ZM310.279 827.788L296.814 819.456L300.564 813.397L314.028 821.729L310.279 827.788ZM327.099 838.196L313.634 829.864L317.383 823.805L330.848 832.137L327.099 838.196ZM343.919 848.603L330.454 840.272L334.203 834.213L347.668 842.544L343.919 848.603ZM360.738 859.011L347.274 850.68L351.023 844.621L364.488 852.952L360.738 859.011ZM377.558 869.419L364.094 861.087L367.843 855.028L381.307 863.36L377.558 869.419ZM394.378 879.827L380.913 871.495L384.663 865.436L398.127 873.768L394.378 879.827ZM411.198 890.235L397.733 881.903L401.482 875.844L414.947 884.175L411.198 890.235ZM428.017 900.642L414.553 892.311L418.302 886.252L431.767 894.583L428.017 900.642ZM444.837 911.05L431.373 902.718L435.122 896.659L448.586 904.991L444.837 911.05ZM461.657 921.458L448.192 913.126L451.942 907.067L465.406 915.399L461.657 921.458ZM478.477 931.866L465.012 923.534L468.761 917.475L482.226 925.807L478.477 931.866ZM495.297 942.273L481.832 933.942L485.581 927.883L499.046 936.214L495.297 942.273ZM512.116 952.681L498.652 944.349L502.401 938.29L515.866 946.622L512.116 952.681ZM528.936 963.089L515.471 954.757L519.221 948.698L532.685 957.03L528.936 963.089ZM545.756 973.497L532.291 965.165L536.041 959.106L549.505 967.438L545.756 973.497Z" fill="black"/>
<path d="M426.747 263.67L413.283 255.339L417.032 249.28L430.497 257.611L426.747 263.67ZM443.567 274.078L430.102 265.746L433.852 259.687L447.316 268.019L443.567 274.078ZM460.387 284.486L446.922 276.154L450.671 270.095L464.136 278.427L460.387 284.486ZM477.207 294.894L463.742 286.562L467.491 280.503L480.956 288.834L477.207 294.894ZM494.026 305.301L480.562 296.97L484.311 290.911L497.776 299.242L494.026 305.301ZM510.846 315.709L497.382 307.377L501.131 301.318L514.595 309.65L510.846 315.709ZM527.666 326.117L514.201 317.785L517.951 311.726L531.415 320.058L527.666 326.117ZM544.486 336.525L531.021 328.193L534.77 322.134L548.235 330.466L544.486 336.525ZM561.305 346.932L547.841 338.601L551.59 332.542L565.055 340.873L561.305 346.932ZM578.125 357.34L564.661 349.008L568.41 342.949L581.875 351.281L578.125 357.34ZM594.945 367.748L581.48 359.416L585.23 353.357L598.694 361.689L594.945 367.748ZM611.765 378.156L598.3 369.824L602.049 363.765L615.514 372.097L611.765 378.156ZM628.585 388.563L615.12 380.232L618.869 374.173L632.334 382.504L628.585 388.563ZM645.404 398.971L631.94 390.64L635.689 384.58L649.154 392.912L645.404 398.971ZM662.224 409.379L648.76 401.047L652.509 394.988L665.973 403.32L662.224 409.379ZM679.044 419.787L665.579 411.455L669.329 405.396L682.793 413.728L679.044 419.787ZM695.864 430.194L682.399 421.863L686.148 415.804L699.613 424.135L695.864 430.194ZM712.683 440.602L699.219 432.271L702.968 426.212L716.433 434.543L712.683 440.602ZM729.503 451.01L716.039 442.678L719.788 436.619L733.252 444.951L729.503 451.01ZM746.323 461.418L732.858 453.086L736.608 447.027L750.072 455.359L746.323 461.418ZM763.143 471.826L749.678 463.494L753.427 457.435L766.892 465.766L763.143 471.826ZM779.963 482.233L766.498 473.902L770.247 467.843L783.712 476.174L779.963 482.233ZM796.782 492.641L783.318 484.309L787.067 478.25L800.532 486.582L796.782 492.641ZM813.602 503.049L800.138 494.717L803.887 488.658L817.351 496.99L813.602 503.049ZM830.422 513.457L816.957 505.125L820.707 499.066L834.171 507.398L830.422 513.457Z" fill="black"/>
<path d="M405.919 297.332L392.455 289L396.204 282.941L409.668 291.273L405.919 297.332ZM422.739 307.739L409.274 299.408L413.024 293.349L426.488 301.68L422.739 307.739ZM439.559 318.147L426.094 309.816L429.843 303.756L443.308 312.088L439.559 318.147ZM456.378 328.555L442.914 320.223L446.663 314.164L460.128 322.496L456.378 328.555ZM473.198 338.963L459.734 330.631L463.483 324.572L476.948 332.904L473.198 338.963ZM490.018 349.37L476.553 341.039L480.303 334.98L493.767 343.311L490.018 349.37ZM506.838 359.778L493.373 351.447L497.122 345.388L510.587 353.719L506.838 359.778ZM523.658 370.186L510.193 361.854L513.942 355.795L527.407 364.127L523.658 370.186ZM540.477 380.594L527.013 372.262L530.762 366.203L544.227 374.535L540.477 380.594ZM557.297 391.002L543.833 382.67L547.582 376.611L561.046 384.943L557.297 391.002ZM574.117 401.409L560.652 393.078L564.402 387.019L577.866 395.35L574.117 401.409ZM590.937 411.817L577.472 403.485L581.221 397.426L594.686 405.758L590.937 411.817ZM607.756 422.225L594.292 413.893L598.041 407.834L611.506 416.166L607.756 422.225ZM624.576 432.633L611.112 424.301L614.861 418.242L628.325 426.574L624.576 432.633ZM641.396 443.04L627.931 434.709L631.681 428.65L645.145 436.981L641.396 443.04ZM658.216 453.448L644.751 445.117L648.5 439.057L661.965 447.389L658.216 453.448ZM675.036 463.856L661.571 455.524L665.32 449.465L678.785 457.797L675.036 463.856ZM691.855 474.264L678.391 465.932L682.14 459.873L695.605 468.205L691.855 474.264ZM708.675 484.671L695.211 476.34L698.96 470.281L712.424 478.612L708.675 484.671ZM725.495 495.079L712.03 486.748L715.78 480.689L729.244 489.02L725.495 495.079ZM742.315 505.487L728.85 497.155L732.599 491.096L746.064 499.428L742.315 505.487ZM759.134 515.895L745.67 507.563L749.419 501.504L762.884 509.836L759.134 515.895ZM775.954 526.303L762.49 517.971L766.239 511.912L779.703 520.243L775.954 526.303ZM792.774 536.71L779.309 528.379L783.059 522.32L796.523 530.651L792.774 536.71ZM809.594 547.118L796.129 538.786L799.878 532.727L813.343 541.059L809.594 547.118Z" fill="black"/>
<path d="M386.825 328.188L373.361 319.856L377.11 313.797L390.575 322.129L386.825 328.188ZM403.645 338.596L390.181 330.264L393.93 324.205L407.394 332.537L403.645 338.596ZM420.465 349.004L407 340.672L410.75 334.613L424.214 342.945L420.465 349.004ZM437.285 359.411L423.82 351.08L427.569 345.021L441.034 353.352L437.285 359.411ZM454.105 369.819L440.64 361.487L444.389 355.428L457.854 363.76L454.105 369.819ZM470.924 380.227L457.46 371.895L461.209 365.836L474.674 374.168L470.924 380.227ZM487.744 390.635L474.279 382.303L478.029 376.244L491.493 384.576L487.744 390.635ZM504.564 401.042L491.099 392.711L494.848 386.652L508.313 394.983L504.564 401.042ZM521.384 411.45L507.919 403.119L511.668 397.059L525.133 405.391L521.384 411.45ZM538.203 421.858L524.739 413.526L528.488 407.467L541.953 415.799L538.203 421.858ZM555.023 432.266L541.559 423.934L545.308 417.875L558.772 426.207L555.023 432.266ZM571.843 442.673L558.378 434.342L562.128 428.283L575.592 436.614L571.843 442.673ZM588.663 453.081L575.198 444.75L578.947 438.691L592.412 447.022L588.663 453.081ZM605.482 463.489L592.018 455.157L595.767 449.098L609.232 457.43L605.482 463.489ZM622.302 473.897L608.838 465.565L612.587 459.506L626.051 467.838L622.302 473.897ZM639.122 484.305L625.657 475.973L629.407 469.914L642.871 478.245L639.122 484.305ZM655.942 494.712L642.477 486.381L646.226 480.322L659.691 488.653L655.942 494.712ZM672.762 505.12L659.297 496.788L663.046 490.729L676.511 499.061L672.762 505.12ZM689.581 515.528L676.117 507.196L679.866 501.137L693.331 509.469L689.581 515.528ZM706.401 525.936L692.937 517.604L696.686 511.545L710.15 519.877L706.401 525.936ZM723.221 536.343L709.756 528.012L713.506 521.953L726.97 530.284L723.221 536.343ZM740.041 546.751L726.576 538.42L730.325 532.36L743.79 540.692L740.041 546.751ZM756.86 557.159L743.396 548.827L747.145 542.768L760.61 551.1L756.86 557.159ZM773.68 567.567L760.216 559.235L763.965 553.176L777.429 561.508L773.68 567.567ZM790.5 577.974L777.035 569.643L780.785 563.584L794.249 571.915L790.5 577.974Z" fill="black"/>
<path d="M284.415 493.69L270.951 485.359L274.7 479.3L288.165 487.631L284.415 493.69ZM301.235 504.098L287.77 495.766L291.52 489.707L304.984 498.039L301.235 504.098ZM318.055 514.506L304.59 506.174L308.339 500.115L321.804 508.447L318.055 514.506ZM334.875 524.914L321.41 516.582L325.159 510.523L338.624 518.854L334.875 524.914ZM351.694 535.321L338.23 526.99L341.979 520.931L355.444 529.262L351.694 535.321ZM368.514 545.729L355.05 537.397L358.799 531.338L372.263 539.67L368.514 545.729ZM385.334 556.137L371.869 547.805L375.619 541.746L389.083 550.078L385.334 556.137ZM402.154 566.545L388.689 558.213L392.438 552.154L405.903 560.486L402.154 566.545ZM418.973 576.952L405.509 568.621L409.258 562.562L422.723 570.893L418.973 576.952ZM435.793 587.36L422.329 579.029L426.078 572.969L439.542 581.301L435.793 587.36ZM452.613 597.768L439.148 589.436L442.898 583.377L456.362 591.709L452.613 597.768ZM469.433 608.176L455.968 599.844L459.717 593.785L473.182 602.117L469.433 608.176ZM486.253 618.583L472.788 610.252L476.537 604.193L490.002 612.524L486.253 618.583ZM503.072 628.991L489.608 620.66L493.357 614.601L506.822 622.932L503.072 628.991ZM519.892 639.399L506.428 631.067L510.177 625.008L523.641 633.34L519.892 639.399ZM536.712 649.807L523.247 641.475L526.997 635.416L540.461 643.748L536.712 649.807ZM553.532 660.215L540.067 651.883L543.816 645.824L557.281 654.155L553.532 660.215ZM570.351 670.622L556.887 662.291L560.636 656.232L574.101 664.563L570.351 670.622ZM587.171 681.03L573.707 672.698L577.456 666.639L590.92 674.971L587.171 681.03ZM603.991 691.438L590.526 683.106L594.276 677.047L607.74 685.379L603.991 691.438ZM620.811 701.846L607.346 693.514L611.095 687.455L624.56 695.787L620.811 701.846ZM637.631 712.253L624.166 703.922L627.915 697.863L641.38 706.194L637.631 712.253ZM654.45 722.661L640.986 714.329L644.735 708.27L658.2 716.602L654.45 722.661ZM671.27 733.069L657.805 724.737L661.555 718.678L675.019 727.01L671.27 733.069ZM688.09 743.477L674.625 735.145L678.374 729.086L691.839 737.418L688.09 743.477Z" fill="black"/>
<path d="M263.585 527.352L250.121 519.02L253.87 512.961L267.334 521.293L263.585 527.352ZM280.405 537.759L266.94 529.428L270.69 523.369L284.154 531.7L280.405 537.759ZM297.225 548.167L283.76 539.836L287.509 533.777L300.974 542.108L297.225 548.167ZM314.045 558.575L300.58 550.243L304.329 544.184L317.794 552.516L314.045 558.575ZM330.864 568.983L317.4 560.651L321.149 554.592L334.614 562.924L330.864 568.983ZM347.684 579.391L334.219 571.059L337.969 565L351.433 573.331L347.684 579.391ZM364.504 589.798L351.039 581.467L354.788 575.408L368.253 583.739L364.504 589.798ZM381.324 600.206L367.859 591.874L371.608 585.815L385.073 594.147L381.324 600.206ZM398.143 610.614L384.679 602.282L388.428 596.223L401.893 604.555L398.143 610.614ZM414.963 621.022L401.499 612.69L405.248 606.631L418.712 614.963L414.963 621.022ZM431.783 631.429L418.318 623.098L422.068 617.039L435.532 625.37L431.783 631.429ZM448.603 641.837L435.138 633.505L438.887 627.446L452.352 635.778L448.603 641.837ZM465.422 652.245L451.958 643.913L455.707 637.854L469.172 646.186L465.422 652.245ZM482.242 662.653L468.778 654.321L472.527 648.262L485.991 656.594L482.242 662.653ZM499.062 673.06L485.597 664.729L489.347 658.67L502.811 667.001L499.062 673.06ZM515.882 683.468L502.417 675.137L506.166 669.077L519.631 677.409L515.882 683.468ZM532.702 693.876L519.237 685.544L522.986 679.485L536.451 687.817L532.702 693.876ZM549.521 704.284L536.057 695.952L539.806 689.893L553.271 698.225L549.521 704.284ZM566.341 714.691L552.877 706.36L556.626 700.301L570.09 708.632L566.341 714.691ZM583.161 725.099L569.696 716.768L573.446 710.709L586.91 719.04L583.161 725.099ZM599.981 735.507L586.516 727.175L590.265 721.116L603.73 729.448L599.981 735.507ZM616.8 745.915L603.336 737.583L607.085 731.524L620.55 739.856L616.8 745.915ZM633.62 756.323L620.156 747.991L623.905 741.932L637.369 750.263L633.62 756.323ZM650.44 766.73L636.975 758.399L640.725 752.34L654.189 760.671L650.44 766.73ZM667.26 777.138L653.795 768.806L657.544 762.747L671.009 771.079L667.26 777.138Z" fill="black"/>
<path d="M242.755 561.013L229.291 552.681L233.04 546.622L246.504 554.954L242.755 561.013ZM259.575 571.421L246.11 563.089L249.86 557.03L263.324 565.362L259.575 571.421ZM276.395 581.829L262.93 573.497L266.679 567.438L280.144 575.77L276.395 581.829ZM293.214 592.236L279.75 583.905L283.499 577.846L296.964 586.177L293.214 592.236ZM310.034 602.644L296.57 594.312L300.319 588.253L313.783 596.585L310.034 602.644ZM326.854 613.052L313.389 604.72L317.139 598.661L330.603 606.993L326.854 613.052ZM343.674 623.46L330.209 615.128L333.958 609.069L347.423 617.401L343.674 623.46ZM360.494 633.867L347.029 625.536L350.778 619.477L364.243 627.808L360.494 633.867ZM377.313 644.275L363.849 635.944L367.598 629.884L381.063 638.216L377.313 644.275ZM394.133 654.683L380.668 646.351L384.418 640.292L397.882 648.624L394.133 654.683ZM410.953 665.091L397.488 656.759L401.237 650.7L414.702 659.032L410.953 665.091ZM427.773 675.498L414.308 667.167L418.057 661.108L431.522 669.439L427.773 675.498ZM444.592 685.906L431.128 677.575L434.877 671.516L448.342 679.847L444.592 685.906ZM461.412 696.314L447.948 687.982L451.697 681.923L465.161 690.255L461.412 696.314ZM478.232 706.722L464.767 698.39L468.517 692.331L481.981 700.663L478.232 706.722ZM495.052 717.13L481.587 708.798L485.336 702.739L498.801 711.07L495.052 717.13ZM511.871 727.537L498.407 719.206L502.156 713.147L515.621 721.478L511.871 727.537ZM528.691 737.945L515.227 729.613L518.976 723.554L532.441 731.886L528.691 737.945ZM545.511 748.353L532.046 740.021L535.796 733.962L549.26 742.294L545.511 748.353ZM562.331 758.761L548.866 750.429L552.615 744.37L566.08 752.702L562.331 758.761ZM579.151 769.168L565.686 760.837L569.435 754.778L582.9 763.109L579.151 769.168ZM595.97 779.576L582.506 771.245L586.255 765.185L599.72 773.517L595.97 779.576ZM612.79 789.984L599.326 781.652L603.075 775.593L616.539 783.925L612.79 789.984ZM629.61 800.392L616.145 792.06L619.895 786.001L633.359 794.333L629.61 800.392ZM646.43 810.799L632.965 802.468L636.714 796.409L650.179 804.74L646.43 810.799Z" fill="black"/>
<path d="M223.663 591.869L210.199 583.538L213.948 577.479L227.413 585.81L223.663 591.869ZM240.483 602.277L227.019 593.946L230.768 587.887L244.232 596.218L240.483 602.277ZM257.303 612.685L243.838 604.353L247.588 598.294L261.052 606.626L257.303 612.685ZM274.123 623.093L260.658 614.761L264.407 608.702L277.872 617.034L274.123 623.093ZM290.942 633.501L277.478 625.169L281.227 619.11L294.692 627.441L290.942 633.501ZM307.762 643.908L294.298 635.577L298.047 629.518L311.511 637.849L307.762 643.908ZM324.582 654.316L311.117 645.984L314.867 639.925L328.331 648.257L324.582 654.316ZM341.402 664.724L327.937 656.392L331.686 650.333L345.151 658.665L341.402 664.724ZM358.222 675.132L344.757 666.8L348.506 660.741L361.971 669.073L358.222 675.132ZM375.041 685.539L361.577 677.208L365.326 671.149L378.791 679.48L375.041 685.539ZM391.861 695.947L378.396 687.615L382.146 681.556L395.61 689.888L391.861 695.947ZM408.681 706.355L395.216 698.023L398.965 691.964L412.43 700.296L408.681 706.355ZM425.501 716.763L412.036 708.431L415.785 702.372L429.25 710.704L425.501 716.763ZM442.32 727.17L428.856 718.839L432.605 712.78L446.07 721.111L442.32 727.17ZM459.14 737.578L445.676 729.247L449.425 723.187L462.889 731.519L459.14 737.578ZM475.96 747.986L462.495 739.654L466.245 733.595L479.709 741.927L475.96 747.986ZM492.78 758.394L479.315 750.062L483.064 744.003L496.529 752.335L492.78 758.394ZM509.599 768.801L496.135 760.47L499.884 754.411L513.349 762.742L509.599 768.801ZM526.419 779.209L512.955 770.878L516.704 764.819L530.168 773.15L526.419 779.209ZM543.239 789.617L529.774 781.285L533.524 775.226L546.988 783.558L543.239 789.617ZM560.059 800.025L546.594 791.693L550.343 785.634L563.808 793.966L560.059 800.025ZM576.879 810.433L563.414 802.101L567.163 796.042L580.628 804.373L576.879 810.433ZM593.698 820.84L580.234 812.509L583.983 806.45L597.448 814.781L593.698 820.84ZM610.518 831.248L597.054 822.916L600.803 816.857L614.267 825.189L610.518 831.248ZM627.338 841.656L613.873 833.324L617.623 827.265L631.087 835.597L627.338 841.656Z" fill="black"/>
<path d="M365.995 361.849L352.531 353.518L356.28 347.459L369.745 355.79L365.995 361.849ZM382.815 372.257L369.351 363.926L373.1 357.866L386.564 366.198L382.815 372.257ZM399.635 382.665L386.17 374.333L389.92 368.274L403.384 376.606L399.635 382.665ZM416.455 393.073L402.99 384.741L406.739 378.682L420.204 387.014L416.455 393.073ZM433.274 403.48L419.81 395.149L423.559 389.09L437.024 397.421L433.274 403.48ZM450.094 413.888L436.63 405.557L440.379 399.498L453.843 407.829L450.094 413.888ZM466.914 424.296L453.449 415.964L457.199 409.905L470.663 418.237L466.914 424.296ZM483.734 434.704L470.269 426.372L474.018 420.313L487.483 428.645L483.734 434.704ZM500.554 445.112L487.089 436.78L490.838 430.721L504.303 439.052L500.554 445.112ZM517.373 455.519L503.909 447.188L507.658 441.129L521.123 449.46L517.373 455.519ZM534.193 465.927L520.728 457.595L524.478 451.536L537.942 459.868L534.193 465.927ZM551.013 476.335L537.548 468.003L541.298 461.944L554.762 470.276L551.013 476.335ZM567.833 486.743L554.368 478.411L558.117 472.352L571.582 480.684L567.833 486.743ZM584.652 497.15L571.188 488.819L574.937 482.76L588.402 491.091L584.652 497.15ZM601.472 507.558L588.008 499.227L591.757 493.167L605.221 501.499L601.472 507.558ZM618.292 517.966L604.827 509.634L608.577 503.575L622.041 511.907L618.292 517.966ZM635.112 528.374L621.647 520.042L625.396 513.983L638.861 522.315L635.112 528.374ZM651.932 538.781L638.467 530.45L642.216 524.391L655.681 532.722L651.932 538.781ZM668.751 549.189L655.287 540.858L659.036 534.799L672.501 543.13L668.751 549.189ZM685.571 559.597L672.106 551.265L675.856 545.206L689.32 553.538L685.571 559.597ZM702.391 570.005L688.926 561.673L692.675 555.614L706.14 563.946L702.391 570.005ZM719.211 580.413L705.746 572.081L709.495 566.022L722.96 574.353L719.211 580.413ZM736.03 590.82L722.566 582.489L726.315 576.43L739.78 584.761L736.03 590.82ZM752.85 601.228L739.386 592.896L743.135 586.837L756.599 595.169L752.85 601.228ZM769.67 611.636L756.205 603.304L759.955 597.245L773.419 605.577L769.67 611.636Z" fill="black"/>
<path d="M345.165 395.511L331.701 387.179L335.45 381.12L348.915 389.452L345.165 395.511ZM361.985 405.919L348.52 397.587L352.27 391.528L365.734 399.86L361.985 405.919ZM378.805 416.326L365.34 407.995L369.089 401.936L382.554 410.267L378.805 416.326ZM395.625 426.734L382.16 418.403L385.909 412.344L399.374 420.675L395.625 426.734ZM412.444 437.142L398.98 428.81L402.729 422.751L416.194 431.083L412.444 437.142ZM429.264 447.55L415.8 439.218L419.549 433.159L433.013 441.491L429.264 447.55ZM446.084 457.958L432.619 449.626L436.369 443.567L449.833 451.898L446.084 457.958ZM462.904 468.365L449.439 460.034L453.188 453.975L466.653 462.306L462.904 468.365ZM479.723 478.773L466.259 470.441L470.008 464.382L483.473 472.714L479.723 478.773ZM496.543 489.181L483.079 480.849L486.828 474.79L500.292 483.122L496.543 489.181ZM513.363 499.589L499.898 491.257L503.648 485.198L517.112 493.53L513.363 499.589ZM530.183 509.996L516.718 501.665L520.467 495.606L533.932 503.937L530.183 509.996ZM547.003 520.404L533.538 512.072L537.287 506.013L550.752 514.345L547.003 520.404ZM563.822 530.812L550.358 522.48L554.107 516.421L567.572 524.753L563.822 530.812ZM580.642 541.22L567.178 532.888L570.927 526.829L584.391 535.161L580.642 541.22ZM597.462 551.627L583.997 543.296L587.747 537.237L601.211 545.568L597.462 551.627ZM614.282 562.035L600.817 553.704L604.566 547.644L618.031 555.976L614.282 562.035ZM631.101 572.443L617.637 564.111L621.386 558.052L634.851 566.384L631.101 572.443ZM647.921 582.851L634.457 574.519L638.206 568.46L651.67 576.792L647.921 582.851ZM664.741 593.258L651.276 584.927L655.026 578.868L668.49 587.199L664.741 593.258ZM681.561 603.666L668.096 595.335L671.845 589.276L685.31 597.607L681.561 603.666ZM698.381 614.074L684.916 605.742L688.665 599.683L702.13 608.015L698.381 614.074ZM715.2 624.482L701.736 616.15L705.485 610.091L718.95 618.423L715.2 624.482ZM732.02 634.89L718.555 626.558L722.305 620.499L735.769 628.83L732.02 634.89ZM748.84 645.297L735.375 636.966L739.124 630.907L752.589 639.238L748.84 645.297Z" fill="black"/>
<path d="M324.337 429.172L310.873 420.841L314.622 414.782L328.086 423.113L324.337 429.172ZM341.157 439.58L327.692 431.249L331.442 425.189L344.906 433.521L341.157 439.58ZM357.977 449.988L344.512 441.656L348.261 435.597L361.726 443.929L357.977 449.988ZM374.796 460.396L361.332 452.064L365.081 446.005L378.546 454.337L374.796 460.396ZM391.616 470.803L378.152 462.472L381.901 456.413L395.365 464.744L391.616 470.803ZM408.436 481.211L394.971 472.88L398.721 466.821L412.185 475.152L408.436 481.211ZM425.256 491.619L411.791 483.287L415.54 477.228L429.005 485.56L425.256 491.619ZM442.076 502.027L428.611 493.695L432.36 487.636L445.825 495.968L442.076 502.027ZM458.895 512.435L445.431 504.103L449.18 498.044L462.645 506.375L458.895 512.435ZM475.715 522.842L462.251 514.511L466 508.452L479.464 516.783L475.715 522.842ZM492.535 533.25L479.07 524.918L482.82 518.859L496.284 527.191L492.535 533.25ZM509.355 543.658L495.89 535.326L499.639 529.267L513.104 537.599L509.355 543.658ZM526.174 554.066L512.71 545.734L516.459 539.675L529.924 548.007L526.174 554.066ZM542.994 564.473L529.53 556.142L533.279 550.083L546.743 558.414L542.994 564.473ZM559.814 574.881L546.349 566.55L550.099 560.49L563.563 568.822L559.814 574.881ZM576.634 585.289L563.169 576.957L566.918 570.898L580.383 579.23L576.634 585.289ZM593.454 595.697L579.989 587.365L583.738 581.306L597.203 589.638L593.454 595.697ZM610.273 606.104L596.809 597.773L600.558 591.714L614.023 600.045L610.273 606.104ZM627.093 616.512L613.628 608.181L617.378 602.122L630.842 610.453L627.093 616.512ZM643.913 626.92L630.448 618.588L634.197 612.529L647.662 620.861L643.913 626.92ZM660.733 637.328L647.268 628.996L651.017 622.937L664.482 631.269L660.733 637.328ZM677.552 647.736L664.088 639.404L667.837 633.345L681.302 641.676L677.552 647.736ZM694.372 658.143L680.908 649.812L684.657 643.753L698.121 652.084L694.372 658.143ZM711.192 668.551L697.727 660.219L701.477 654.16L714.941 662.492L711.192 668.551ZM728.012 678.959L714.547 670.627L718.296 664.568L731.761 672.9L728.012 678.959Z" fill="black"/>
<path d="M305.243 460.029L291.779 451.697L295.528 445.638L308.993 453.97L305.243 460.029ZM322.063 470.437L308.599 462.105L312.348 456.046L325.812 464.377L322.063 470.437ZM338.883 480.844L325.418 472.513L329.168 466.454L342.632 474.785L338.883 480.844ZM355.703 491.252L342.238 482.92L345.987 476.861L359.452 485.193L355.703 491.252ZM372.522 501.66L359.058 493.328L362.807 487.269L376.272 495.601L372.522 501.66ZM389.342 512.068L375.878 503.736L379.627 497.677L393.091 506.009L389.342 512.068ZM406.162 522.475L392.697 514.144L396.447 508.085L409.911 516.416L406.162 522.475ZM422.982 532.883L409.517 524.551L413.266 518.492L426.731 526.824L422.982 532.883ZM439.802 543.291L426.337 534.959L430.086 528.9L443.551 537.232L439.802 543.291ZM456.621 553.699L443.157 545.367L446.906 539.308L460.371 547.64L456.621 553.699ZM473.441 564.106L459.977 555.775L463.726 549.716L477.19 558.047L473.441 564.106ZM490.261 574.514L476.796 566.183L480.546 560.123L494.01 568.455L490.261 574.514ZM507.081 584.922L493.616 576.59L497.365 570.531L510.83 578.863L507.081 584.922ZM523.9 595.33L510.436 586.998L514.185 580.939L527.65 589.271L523.9 595.33ZM540.72 605.737L527.256 597.406L531.005 591.347L544.469 599.678L540.72 605.737ZM557.54 616.145L544.075 607.814L547.825 601.755L561.289 610.086L557.54 616.145ZM574.36 626.553L560.895 618.221L564.644 612.162L578.109 620.494L574.36 626.553ZM591.18 636.961L577.715 628.629L581.464 622.57L594.929 630.902L591.18 636.961ZM607.999 647.369L594.535 639.037L598.284 632.978L611.749 641.309L607.999 647.369ZM624.819 657.776L611.354 649.445L615.104 643.386L628.568 651.717L624.819 657.776ZM641.639 668.184L628.174 659.852L631.924 653.793L645.388 662.125L641.639 668.184ZM658.459 678.592L644.994 670.26L648.743 664.201L662.208 672.533L658.459 678.592ZM675.278 689L661.814 680.668L665.563 674.609L679.028 682.941L675.278 689ZM692.098 699.407L678.634 691.076L682.383 685.017L695.847 693.348L692.098 699.407ZM708.918 709.815L695.453 701.484L699.203 695.424L712.667 703.756L708.918 709.815Z" fill="black"/>
<path d="M500.284 128.265C498.601 127.224 497.124 125.974 495.854 124.516C494.645 123.043 493.853 121.648 493.478 120.33L500.466 115.809C501.278 118.174 502.47 119.842 504.041 120.814C505.387 121.647 506.608 122.015 507.703 121.917C508.859 121.804 510.25 121.269 511.878 120.311L514.879 84.6171L523.911 90.2063L520.879 115.795L542.481 101.697L551.514 107.286L517.374 127.979C514.529 129.735 511.736 130.696 508.995 130.863C506.292 131.052 503.388 130.186 500.284 128.265ZM553.99 160.567L546.865 156.158L559.779 135.288L548.559 128.345L535.645 149.215L528.52 144.806L545.287 117.708L570.757 133.469L553.99 160.567ZM576.131 175.198C572.727 173.092 570.797 169.984 570.341 165.874L561.801 179.675L554.676 175.266L577.831 137.846L584.956 142.255L582.838 145.677C586.659 144.266 590.291 144.625 593.732 146.754C597.285 148.953 599.378 152.006 600.011 155.915C600.704 159.81 599.686 163.964 596.955 168.377C594.224 172.791 590.949 175.575 587.131 176.729C583.351 177.907 579.684 177.397 576.131 175.198ZM577.81 167.47C579.867 168.743 581.964 169.032 584.101 168.337C586.275 167.665 588.091 166.151 589.549 163.795C590.984 161.476 591.517 159.194 591.148 156.948C590.816 154.726 589.622 152.978 587.565 151.705C586.405 150.988 585.061 150.569 583.531 150.45C582.001 150.331 580.671 150.517 579.54 151.007L573.604 160.6C573.67 161.831 574.098 163.104 574.887 164.42C575.713 165.759 576.688 166.776 577.81 167.47ZM617.166 199.659L610.041 195.25L611.777 192.445C608.397 193.56 604.819 192.949 601.041 190.612C598.61 189.108 596.908 186.968 595.935 184.194C595.023 181.405 595.434 178.608 597.17 175.803C598.975 172.886 601.264 171.277 604.037 170.975C606.847 170.697 609.505 171.333 612.011 172.884C615.863 175.267 618.042 178.141 618.546 181.505L620.803 177.858C621.659 176.474 621.8 175.036 621.224 173.542C620.649 172.048 619.463 170.745 617.668 169.634C614.713 167.806 611.417 167.24 607.779 167.937L608.037 161.502C613.012 160.65 617.837 161.67 622.513 164.563C625.991 166.716 628.336 169.279 629.547 172.252C630.759 175.226 630.242 178.527 627.997 182.155L617.166 199.659ZM606.888 187.558C609.543 189.201 611.937 189.596 614.068 188.742L616.151 185.376C615.964 183.088 614.542 181.122 611.887 179.479C610.428 178.576 608.981 178.198 607.546 178.344C606.134 178.453 605.034 179.144 604.247 180.415C603.483 181.649 603.368 182.923 603.901 184.235C604.433 185.547 605.429 186.655 606.888 187.558ZM641.906 214.967L624.233 204.032L641.001 176.934L658.168 187.557C660.786 189.177 662.408 191.112 663.034 193.361C663.659 195.61 663.37 197.707 662.167 199.652C661.195 201.223 659.943 202.284 658.411 202.837C656.88 203.389 655.325 203.436 653.748 202.976C655.035 204.239 655.784 205.788 655.992 207.624C656.201 209.46 655.808 211.182 654.813 212.79C653.493 214.922 651.658 216.217 649.305 216.675C646.99 217.157 644.524 216.587 641.906 214.967ZM643.777 208.056C644.637 208.589 645.449 208.781 646.213 208.633C647.014 208.508 647.658 208.053 648.144 207.268C648.584 206.557 648.692 205.796 648.47 204.986C648.284 204.199 647.761 203.539 646.901 203.007L638.093 197.557L634.969 202.606L643.777 208.056ZM650.287 197.034C651.035 197.497 651.761 197.661 652.464 197.527C653.228 197.379 653.807 196.988 654.2 196.352C654.617 195.679 654.728 194.997 654.534 194.308C654.363 193.582 653.885 192.975 653.099 192.489L644.515 187.178L641.703 191.722L650.287 197.034ZM654.165 223.484L657.775 217.649C658.897 218.344 660.2 218.244 661.683 217.352C663.189 216.422 665.143 214.476 667.545 211.514L677.408 199.462L699.344 213.036L682.576 240.134L675.451 235.725L688.365 214.855L679.782 209.543L674.093 216.73C670.593 221.133 667.232 223.889 664.011 224.999C660.85 226.095 657.568 225.59 654.165 223.484ZM701.968 253.064C697.779 250.472 695.13 247.022 694.019 242.714C692.909 238.407 693.673 234.121 696.312 229.857C698.788 225.855 702.18 223.299 706.487 222.189C710.832 221.102 715.043 221.82 719.12 224.342C723.159 226.842 725.576 230.251 726.369 234.569C727.186 238.85 726.217 243.216 723.463 247.667L722.491 249.237L702.35 236.775C701.463 238.709 701.342 240.702 701.985 242.756C702.628 244.809 704.053 246.518 706.26 247.884C707.457 248.624 708.898 249.18 710.582 249.55C712.305 249.943 713.832 249.983 715.164 249.669L715.459 256.213C711.178 257.03 706.681 255.98 701.968 253.064ZM718.576 240.143C719.412 238.54 719.651 236.774 719.293 234.845C718.972 232.94 717.746 231.328 715.614 230.009C713.594 228.759 711.641 228.404 709.756 228.944C707.893 229.446 706.382 230.425 705.223 231.88L718.576 240.143ZM727.784 268.107L720.659 263.699L737.427 236.601L744.552 241.01L738.338 251.052L749.558 257.995L755.772 247.953L762.897 252.362L746.13 279.459L739.005 275.05L745.705 264.223L734.484 257.28L727.784 268.107ZM760.048 288.071L753.203 283.836L769.971 256.739L777.096 261.147L766.959 277.529L788.26 268.056L795.441 272.499L778.674 299.597L771.549 295.188L782.067 278.189L760.048 288.071ZM798.066 312.527C793.877 309.935 791.227 306.485 790.117 302.178C789.007 297.87 789.771 293.584 792.409 289.321C794.885 285.319 798.277 282.763 802.585 281.652C806.93 280.565 811.141 281.283 815.217 283.806C819.257 286.305 821.673 289.714 822.466 294.032C823.283 298.313 822.314 302.679 819.56 307.13L818.588 308.701L798.447 296.238C797.561 298.172 797.439 300.166 798.082 302.219C798.726 304.272 800.151 305.981 802.357 307.347C803.554 308.087 804.995 308.643 806.68 309.013C808.402 309.406 809.929 309.446 811.261 309.132L811.556 315.677C807.275 316.493 802.778 315.443 798.066 312.527ZM814.673 299.606C815.51 298.003 815.749 296.237 815.39 294.309C815.07 292.403 813.843 290.791 811.711 289.472C809.692 288.222 807.739 287.867 805.853 288.407C803.99 288.91 802.48 289.889 801.321 291.344L814.673 299.606ZM476.782 206.869L469.657 202.46L471.393 199.655C468.013 200.77 464.434 200.159 460.657 197.822C458.226 196.318 456.524 194.178 455.551 191.404C454.639 188.615 455.05 185.818 456.786 183.013C458.591 180.096 460.88 178.487 463.653 178.185C466.463 177.907 469.121 178.543 471.627 180.093C475.479 182.477 477.658 185.351 478.162 188.715L480.419 185.068C481.275 183.684 481.415 182.246 480.84 180.752C480.265 179.258 479.079 177.955 477.284 176.844C474.329 175.016 471.033 174.45 467.395 175.147L467.653 168.712C472.628 167.86 477.453 168.88 482.128 171.773C485.607 173.926 487.952 176.489 489.163 179.462C490.375 182.436 489.858 185.737 487.613 189.365L476.782 206.869ZM466.504 194.768C469.159 196.411 471.553 196.806 473.684 195.952L475.767 192.586C475.58 190.298 474.158 188.332 471.503 186.689C470.044 185.786 468.597 185.408 467.162 185.554C465.749 185.663 464.65 186.354 463.863 187.625C463.099 188.859 462.984 190.133 463.516 191.445C464.049 192.757 465.045 193.865 466.504 194.768ZM509.32 227.003L502.195 222.594L515.109 201.724L503.888 194.781L490.974 215.651L483.849 211.242L500.617 184.144L526.087 199.905L509.32 227.003ZM541.864 247.14L534.739 242.731L547.653 221.861L536.432 214.918L523.518 235.788L516.393 231.379L533.16 204.282L558.631 220.043L541.864 247.14ZM572.332 265.993L565.207 261.584L566.942 258.779C563.563 259.895 559.984 259.284 556.206 256.946C553.775 255.442 552.073 253.302 551.1 250.528C550.188 247.74 550.6 244.943 552.335 242.138C554.141 239.22 556.43 237.611 559.202 237.309C562.012 237.031 564.67 237.667 567.176 239.218C571.029 241.602 573.207 244.475 573.712 247.839L575.968 244.193C576.825 242.809 576.965 241.37 576.389 239.876C575.814 238.382 574.629 237.079 572.833 235.968C569.879 234.14 566.582 233.574 562.944 234.271L563.202 227.836C568.177 226.984 573.003 228.005 577.678 230.898C581.156 233.05 583.501 235.613 584.713 238.587C585.924 241.56 585.408 244.861 583.163 248.489L572.332 265.993ZM562.053 253.892C564.709 255.535 567.102 255.93 569.233 255.076L571.316 251.71C571.129 249.422 569.708 247.456 567.052 245.813C565.593 244.91 564.146 244.532 562.711 244.679C561.299 244.787 560.199 245.478 559.412 246.749C558.649 247.984 558.533 249.257 559.066 250.569C559.599 251.882 560.594 252.989 562.053 253.892ZM594.466 280.621C591.063 278.515 589.133 275.407 588.676 271.297L580.136 285.098L573.011 280.689L596.166 243.269L603.291 247.678L601.173 251.1C604.995 249.689 608.626 250.048 612.067 252.177C615.62 254.375 617.713 257.429 618.346 261.338C619.04 265.232 618.021 269.386 615.29 273.8C612.559 278.213 609.285 280.997 605.467 282.152C601.686 283.33 598.02 282.819 594.466 280.621ZM596.145 272.893C598.202 274.165 600.299 274.454 602.436 273.76C604.61 273.088 606.426 271.574 607.884 269.217C609.319 266.898 609.852 264.616 609.483 262.371C609.152 260.148 607.957 258.401 605.9 257.128C604.741 256.41 603.396 255.992 601.866 255.873C600.337 255.754 599.006 255.94 597.876 256.429L591.939 266.023C592.005 267.254 592.433 268.527 593.222 269.843C594.049 271.182 595.023 272.198 596.145 272.893ZM635.502 305.082L628.377 300.673L630.112 297.868C626.733 298.983 623.154 298.372 619.376 296.035C616.945 294.53 615.243 292.391 614.27 289.617C613.358 286.828 613.77 284.031 615.506 281.226C617.311 278.309 619.6 276.699 622.372 276.398C625.182 276.119 627.84 276.756 630.346 278.306C634.199 280.69 636.377 283.564 636.882 286.928L639.138 283.281C639.995 281.897 640.135 280.458 639.559 278.964C638.984 277.47 637.799 276.168 636.003 275.057C633.049 273.229 629.752 272.663 626.114 273.36L626.372 266.925C631.347 266.073 636.173 267.093 640.848 269.986C644.326 272.138 646.671 274.701 647.883 277.675C649.094 280.649 648.578 283.95 646.333 287.578L635.502 305.082ZM625.223 292.98C627.879 294.623 630.272 295.018 632.404 294.165L634.486 290.799C634.299 288.51 632.878 286.545 630.222 284.901C628.763 283.999 627.316 283.621 625.881 283.767C624.469 283.876 623.369 284.566 622.582 285.838C621.819 287.072 621.703 288.345 622.236 289.658C622.769 290.97 623.764 292.078 625.223 292.98ZM654.743 316.988L647.562 312.544L660.476 291.674L652.902 286.988L656.755 280.76L679.084 294.577L675.231 300.804L667.657 296.118L654.743 316.988ZM691.904 335.25C687.597 336.36 683.274 335.573 678.935 332.889C674.597 330.204 671.963 326.686 671.034 322.336C670.166 317.971 670.97 313.788 673.447 309.786C675.923 305.784 679.296 303.216 683.567 302.083C687.874 300.973 692.197 301.76 696.536 304.445C700.874 307.129 703.508 310.647 704.437 314.997C705.365 319.347 704.591 323.524 702.115 327.526C699.639 331.528 696.235 334.102 691.904 335.25ZM679.197 321.18C679.506 323.44 680.726 325.23 682.858 326.549C684.99 327.868 687.136 328.162 689.296 327.429C691.516 326.683 693.321 325.187 694.71 322.943C696.075 320.736 696.585 318.492 696.239 316.209C695.953 313.912 694.745 312.103 692.613 310.784C690.481 309.465 688.324 309.19 686.14 309.96C683.98 310.692 682.218 312.162 680.852 314.369C679.464 316.613 678.912 318.883 679.197 321.18ZM731.034 364.196L723.909 359.787L734.81 342.171L716.672 355.308L713.418 353.295L717.025 331.166L706.125 348.782L699 344.373L715.767 317.276L725.136 323.073L721.815 343.362L738.377 331.266L747.802 337.098L731.034 364.196ZM772.95 390.132L752.641 377.565L775.796 340.145L795.488 352.33C798.891 354.436 800.95 357.003 801.662 360.03C802.436 363.043 802.001 365.877 800.358 368.533C798.946 370.814 797.149 372.34 794.966 373.109C792.782 373.879 790.659 373.884 788.595 373.124C790.429 374.673 791.495 376.755 791.791 379.369C792.087 381.983 791.517 384.45 790.083 386.768C788.277 389.686 785.831 391.508 782.743 392.235C779.655 392.962 776.391 392.261 772.95 390.132ZM784.48 366.233C785.826 367.066 787.124 367.352 788.372 367.09C789.62 366.828 790.615 366.098 791.355 364.901C792.096 363.705 792.286 362.478 791.926 361.22C791.627 359.949 790.822 358.908 789.513 358.098L779.527 351.919L774.493 360.054L784.48 366.233ZM775.144 381.947C776.64 382.873 778.05 383.228 779.373 383.012C780.719 382.759 781.809 381.959 782.642 380.613C783.406 379.378 783.612 378.084 783.261 376.729C782.933 375.336 782.021 374.177 780.525 373.251L770.258 366.898L764.877 375.594L775.144 381.947ZM807.813 397.119L794.348 388.787L798.098 382.728L811.562 391.06L807.813 397.119ZM818.419 419.199C815.128 417.162 812.546 414.814 810.674 412.156C808.825 409.46 807.726 406.763 807.379 404.065L814.828 401.305C815.29 403.401 816.213 405.42 817.597 407.362C819.004 409.268 820.643 410.799 822.513 411.956C824.757 413.345 826.762 413.991 828.529 413.894C830.318 413.76 831.653 412.983 832.532 411.561C833.458 410.065 833.531 408.61 832.75 407.197C831.993 405.745 830.306 404.21 827.688 402.59C825.331 401.132 823.756 400.209 822.962 399.821L827.405 392.639C827.831 392.955 829.372 393.934 832.027 395.577C836.627 398.424 839.749 398.519 841.392 395.864C842.272 394.442 842.288 392.953 841.442 391.395C840.657 389.822 839.235 388.4 837.178 387.127C833.55 384.882 829.591 384.217 825.302 385.131L824.408 377.673C830.377 375.884 836.372 376.853 842.394 380.579C846.77 383.286 849.644 386.332 851.016 389.715C852.425 393.122 852.169 396.377 850.248 399.481C848.86 401.726 846.887 403.117 844.33 403.655C841.796 404.156 839.279 403.918 836.781 402.941C838.848 404.53 840.282 406.685 841.082 409.404C841.943 412.109 841.575 414.752 839.978 417.333C837.965 420.586 834.975 422.409 831.009 422.8C827.067 423.153 822.87 421.953 818.419 419.199ZM855.241 441.052L847.275 436.123L864.077 408.969L853.927 411.456L852.333 403.875L871.44 399.327L878.396 403.632L855.241 441.052Z" fill="black"/>
<rect x="419.124" y="234.903" width="146.437" height="30.6119" transform="rotate(31.75 419.124 234.903)" fill="black"/>
<rect x="479.3" y="362.335" width="96.7683" height="30.6119" transform="rotate(31.75 479.3 362.335)" fill="black"/>
<rect x="650.095" y="562.332" width="134.043" height="30.6119" transform="rotate(31.75 650.095 562.332)" fill="black"/>
<rect x="278.419" y="470.298" width="219.167" height="30.6119" transform="rotate(31.75 278.419 470.298)" fill="black"/>
<rect x="246.561" y="582.685" width="329.031" height="30.6119" transform="rotate(31.75 246.561 582.685)" fill="black"/>
<rect x="381.071" y="844.628" width="175.961" height="30.6119" transform="rotate(31.75 381.071 844.628)" fill="black"/>
<rect x="640.36" y="326.052" width="96.7683" height="30.6119" transform="rotate(31.75 640.36 326.052)" fill="black"/>
</svg>
