<svg width="385" height="388" viewBox="0 0 385 388" fill="none" xmlns="http://www.w3.org/2000/svg">
<path d="M207.807 128.285L209.402 132.598L213.715 134.193L313.183 171L213.715 207.807L209.402 209.402L207.807 213.715L171 313.183L134.193 213.715L132.598 209.402L128.285 207.807L28.8164 171L128.285 134.193L132.598 132.598L134.193 128.285L171 28.8164L207.807 128.285Z" fill="white" stroke="#151231" stroke-width="20"/>
<path d="M304.82 268.271L306.416 272.584L310.729 274.18L356.184 291L310.729 307.82L306.416 309.416L304.82 313.729L288 359.184L271.18 313.729L269.584 309.416L265.271 307.82L219.815 291L265.271 274.18L269.584 272.584L271.18 268.271L288 222.815L304.82 268.271Z" fill="white" stroke="#151231" stroke-width="20"/>
</svg>
