<svg width="1130" height="1229" viewBox="0 0 1130 1229" fill="none" xmlns="http://www.w3.org/2000/svg">
<rect x="0.237587" y="-2.34058" width="77.1877" height="173.98" rx="12.643" transform="matrix(0.774901 -0.632082 -0.632082 -0.774901 793.097 602.162)" fill="#D9D9D9" stroke="black" stroke-width="3.32709"/>
<rect x="1.69316" y="-1.63339" width="77.1877" height="150.912" rx="12.643" transform="matrix(0.999839 0.0179644 0.0179644 -0.999839 775.379 575.735)" fill="#D9D9D9" stroke="black" stroke-width="3.32709"/>
<rect x="-2.31418" y="-0.423479" width="38.628" height="75.5272" rx="12.643" transform="matrix(-0.568275 -0.822839 -0.822839 0.568275 857.645 563.655)" fill="#828282" stroke="black" stroke-width="3.32709"/>
<rect x="753.228" y="923.913" width="77.1877" height="150.912" rx="12.643" transform="rotate(-23.016 753.228 923.913)" fill="#D9D9D9" stroke="black" stroke-width="3.32709"/>
<rect x="684.842" y="800.14" width="107.26" height="150.912" rx="12.643" transform="rotate(-23.016 684.842 800.14)" fill="#D9D9D9" stroke="black" stroke-width="3.32709"/>
<rect x="684.842" y="800.14" width="107.26" height="150.912" rx="12.643" transform="rotate(-23.016 684.842 800.14)" fill="#D9D9D9" stroke="black" stroke-width="3.32709"/>
<rect x="820.604" y="886.86" width="38.628" height="75.5272" rx="12.643" transform="rotate(66.984 820.604 886.86)" fill="#828282" stroke="black" stroke-width="3.32709"/>
<rect x="375.635" y="781.654" width="77.1877" height="173.98" rx="12.643" transform="rotate(173.172 375.635 781.654)" fill="#D9D9D9" stroke="black" stroke-width="3.32709"/>
<rect x="368.915" y="750.556" width="77.1877" height="150.912" rx="12.643" transform="rotate(132.939 368.915 750.556)" fill="#D9D9D9" stroke="black" stroke-width="3.32709"/>
<rect x="561.269" y="1005.46" width="77.1877" height="150.912" rx="12.643" transform="rotate(-23.016 561.269 1005.46)" fill="#D9D9D9" stroke="black" stroke-width="3.32709"/>
<rect x="491.742" y="879.007" width="107.26" height="150.912" rx="12.643" transform="rotate(-23.016 491.742 879.007)" fill="#D9D9D9" stroke="black" stroke-width="3.32709"/>
<rect x="491.742" y="879.007" width="107.26" height="150.912" rx="12.643" transform="rotate(-23.016 491.742 879.007)" fill="#D9D9D9" stroke="black" stroke-width="3.32709"/>
<rect x="590.978" y="1224.25" width="74.2775" height="150.912" rx="37.1388" transform="rotate(-113.016 590.978 1224.25)" fill="#D9D9D9" stroke="black" stroke-width="3.32709"/>
<rect x="823.115" y="1125.64" width="74.2775" height="150.912" rx="37.1388" transform="rotate(-113.016 823.115 1125.64)" fill="#D9D9D9" stroke="black" stroke-width="3.32709"/>
<rect x="790.041" y="723.833" width="107.26" height="353.654" rx="12.643" transform="rotate(66.984 790.041 723.833)" fill="#D9D9D9" stroke="black" stroke-width="3.32709"/>
<rect x="185.871" y="666.415" width="77.1877" height="50.0261" rx="12.643" transform="rotate(-24.4507 185.871 666.415)" fill="#D9D9D9" stroke="black" stroke-width="3.32709"/>
<rect x="285.514" y="601.945" width="77.1877" height="113.08" rx="12.643" transform="rotate(-23.016 285.514 601.945)" fill="#828282" stroke="black" stroke-width="3.32709"/>
<rect x="303.107" y="801.379" width="38.628" height="75.5272" rx="12.643" transform="rotate(-101.402 303.107 801.379)" fill="#828282" stroke="black" stroke-width="3.32709"/>
<rect x="628.643" y="968.405" width="38.628" height="75.5272" rx="12.643" transform="rotate(66.984 628.643 968.405)" fill="#828282" stroke="black" stroke-width="3.32709"/>
<rect x="656.934" y="444.164" width="77.1877" height="113.08" rx="12.643" transform="rotate(-23.016 656.934 444.164)" fill="#828282" stroke="black" stroke-width="3.32709"/>
<rect x="719.799" y="1141.53" width="30.6249" height="150.912" rx="3.18674" transform="rotate(66.984 719.799 1141.53)" fill="#D9D9D9" stroke="black" stroke-width="3.32709"/>
<rect x="951.936" y="1042.91" width="30.6249" height="150.912" rx="3.18674" transform="rotate(66.984 951.936 1042.91)" fill="#D9D9D9" stroke="black" stroke-width="3.32709"/>
<rect x="311.318" y="556.003" width="396.665" height="387.79" rx="12.643" transform="rotate(-23.016 311.318 556.003)" fill="#D9D9D9" stroke="black" stroke-width="3.32709"/>
<circle cx="417.022" cy="297.27" r="159.991" transform="rotate(-23.016 417.022 297.27)" fill="#D9D9D9" stroke="black" stroke-width="3.32709"/>
<rect x="319.885" y="477.802" width="313.579" height="67.8266" rx="12.643" transform="rotate(-23.016 319.885 477.802)" fill="#D9D9D9" stroke="black" stroke-width="3.32709"/>
<path d="M377.354 192.944C442.61 165.223 515.718 184.224 538.966 238.951C562.214 293.678 525.134 359.486 459.878 387.207C394.621 414.928 321.514 395.928 298.266 341.201C275.018 286.474 312.098 220.666 377.354 192.944Z" fill="black" stroke="#868686" stroke-width="11.8341"/>
<path d="M407.011 232.768L418.124 244.551L434.302 243.785L422.519 254.898L423.285 271.076L412.172 259.293L395.994 260.059L407.777 248.946L407.011 232.768Z" fill="white"/>
<path d="M355.306 300.433L366.419 312.216L382.597 311.45L370.814 322.563L371.579 338.741L360.467 326.958L344.289 327.724L356.072 316.611L355.306 300.433Z" fill="white"/>
<path d="M423.853 301.068L429.86 307.438L438.605 307.024L432.236 313.03L432.65 321.775L426.643 315.406L417.898 315.82L424.267 309.813L423.853 301.068Z" fill="white"/>
<path d="M471.75 204.885L476.855 210.299L484.289 209.947L478.875 215.053L479.227 222.486L474.121 217.072L466.688 217.424L472.101 212.318L471.75 204.885Z" fill="white"/>
<path d="M483.783 336.531L488.888 341.945L496.322 341.593L490.908 346.699L491.26 354.132L486.154 348.718L478.721 349.07L484.135 343.964L483.783 336.531Z" fill="white"/>
<rect x="590.193" y="483.055" width="73.3075" height="75.2476" rx="12.643" transform="rotate(-23.016 590.193 483.055)" fill="#B5B5B5" stroke="black" stroke-width="3.32709"/>
<rect x="613.289" y="510.132" width="30.6249" height="30.6249" rx="12.643" transform="rotate(-23.016 613.289 510.132)" fill="#3A3939" stroke="black" stroke-width="3.32709"/>
<rect x="201.291" y="703.909" width="47.1159" height="16.0741" rx="8.03703" transform="rotate(-144.467 201.291 703.909)" fill="#D9D9D9" stroke="black" stroke-width="3.32709"/>
<rect x="239.246" y="650.214" width="27.7463" height="16.0741" rx="8.03703" transform="rotate(-114.451 239.246 650.214)" fill="#D9D9D9" stroke="black" stroke-width="3.32709"/>
<rect x="217.17" y="660.252" width="66.5171" height="16.0741" rx="8.03703" transform="rotate(-114.451 217.17 660.252)" fill="#D9D9D9" stroke="black" stroke-width="3.32709"/>
<rect x="195.091" y="670.29" width="28.4601" height="16.0741" rx="8.03703" transform="rotate(-114.451 195.091 670.29)" fill="#D9D9D9" stroke="black" stroke-width="3.32709"/>
<rect x="232.023" y="629.458" width="6.37349" height="13.1639" rx="3.18674" transform="rotate(-114.451 232.023 629.458)" fill="#828282" stroke="black" stroke-width="3.32709"/>
<rect x="207.834" y="638.359" width="6.37349" height="13.1639" rx="3.18674" transform="rotate(-114.451 207.834 638.359)" fill="#828282" stroke="black" stroke-width="3.32709"/>
<rect x="186.568" y="649.18" width="6.37349" height="13.1639" rx="3.18674" transform="rotate(-114.451 186.568 649.18)" fill="#828282" stroke="black" stroke-width="3.32709"/>
<rect x="185.676" y="691.332" width="6.37349" height="13.1639" rx="3.18674" transform="rotate(-144.465 185.676 691.332)" fill="#828282" stroke="black" stroke-width="3.32709"/>
<rect x="-0.935042" y="2.15881" width="77.1877" height="50.0261" rx="12.643" transform="matrix(-0.929897 0.36782 0.36782 0.929897 837.241 387.342)" fill="#D9D9D9" stroke="black" stroke-width="3.32709"/>
<rect x="-1.40153" y="-1.88957" width="47.1159" height="16.0741" rx="8.03703" transform="matrix(0.146688 -0.989183 -0.989183 -0.146688 853.519 424.47)" fill="#D9D9D9" stroke="black" stroke-width="3.32709"/>
<rect x="-2.15881" y="-0.935042" width="27.7463" height="16.0741" rx="8.03703" transform="matrix(-0.36782 -0.929897 -0.929897 0.36782 788.525 414.508)" fill="#D9D9D9" stroke="black" stroke-width="3.32709"/>
<rect x="-2.15881" y="-0.935042" width="66.5171" height="16.0741" rx="8.03703" transform="matrix(-0.36782 -0.929897 -0.929897 0.36782 811.076 405.588)" fill="#D9D9D9" stroke="black" stroke-width="3.32709"/>
<rect x="-2.15881" y="-0.935042" width="28.4601" height="16.0741" rx="8.03703" transform="matrix(-0.36782 -0.929897 -0.929897 0.36782 833.627 396.668)" fill="#D9D9D9" stroke="black" stroke-width="3.32709"/>
<rect x="-2.15881" y="-0.935042" width="6.37349" height="13.1639" rx="3.18674" transform="matrix(-0.36782 -0.929897 -0.929897 0.36782 778.6 394.9)" fill="#828282" stroke="black" stroke-width="3.32709"/>
<rect x="-2.15881" y="-0.935042" width="6.37349" height="13.1639" rx="3.18674" transform="matrix(-0.36782 -0.929897 -0.929897 0.36782 801.801 383.67)" fill="#828282" stroke="black" stroke-width="3.32709"/>
<rect x="-2.15881" y="-0.935042" width="6.37349" height="13.1639" rx="3.18674" transform="matrix(-0.36782 -0.929897 -0.929897 0.36782 824.351 375.878)" fill="#828282" stroke="black" stroke-width="3.32709"/>
<rect x="-1.40158" y="-1.88954" width="6.37349" height="13.1639" rx="3.18674" transform="matrix(0.146661 -0.989187 -0.989187 -0.146661 855.308 404.499)" fill="#828282" stroke="black" stroke-width="3.32709"/>
<circle cx="649.289" cy="478.804" r="8.73052" transform="rotate(-23.016 649.289 478.804)" fill="#00F719" stroke="black" stroke-width="2.91017"/>
<circle cx="626.345" cy="484.335" r="5.36459" transform="rotate(-23.016 626.345 484.335)" fill="#F70000" stroke="black" stroke-width="1.88158"/>
<circle cx="610.273" cy="491.162" r="5.36459" transform="rotate(-23.016 610.273 491.162)" fill="#F70000" stroke="black" stroke-width="1.88158"/>
<line x1="608.832" y1="1222.69" x2="601.246" y2="1204.84" stroke="black" stroke-width="3.3273"/>
<line x1="626.689" y1="1215.11" x2="619.104" y2="1197.25" stroke="black" stroke-width="3.3273"/>
<line x1="644.547" y1="1207.52" x2="636.961" y2="1189.67" stroke="black" stroke-width="3.3273"/>
<line x1="662.402" y1="1199.94" x2="654.817" y2="1182.08" stroke="black" stroke-width="3.3273"/>
<line x1="680.26" y1="1192.35" x2="672.674" y2="1174.49" stroke="black" stroke-width="3.3273"/>
<line x1="697.223" y1="1185.14" x2="689.637" y2="1167.29" stroke="black" stroke-width="3.3273"/>
<line x1="714.188" y1="1177.94" x2="706.602" y2="1160.08" stroke="black" stroke-width="3.3273"/>
<line x1="840.211" y1="1122.29" x2="832.625" y2="1104.44" stroke="black" stroke-width="3.3273"/>
<line x1="858.068" y1="1114.71" x2="850.483" y2="1096.85" stroke="black" stroke-width="3.3273"/>
<line x1="875.924" y1="1107.12" x2="868.338" y2="1089.27" stroke="black" stroke-width="3.3273"/>
<line x1="893.781" y1="1099.54" x2="886.196" y2="1081.68" stroke="black" stroke-width="3.3273"/>
<line x1="911.639" y1="1091.95" x2="904.053" y2="1074.1" stroke="black" stroke-width="3.3273"/>
<line x1="928.602" y1="1084.75" x2="921.016" y2="1066.89" stroke="black" stroke-width="3.3273"/>
<line x1="945.566" y1="1077.54" x2="937.981" y2="1059.68" stroke="black" stroke-width="3.3273"/>
<path d="M472.055 679.628L548.328 647.227L553.865 660.262L492.212 686.452L506.505 720.097L539.092 706.254C550.366 701.465 560.738 701.079 570.207 705.096C579.794 709.064 586.708 716.039 590.948 726.02C595.189 736.002 595.468 745.796 591.785 755.4C588.102 765.005 580.565 772.227 569.174 777.066L521.966 797.12L472.055 679.628ZM542.868 720.037L512.042 733.132L531.049 777.874L561.875 764.779C568.804 761.836 573.567 757.386 576.166 751.43C578.715 745.357 578.593 739.032 575.8 732.456C573.006 725.88 568.564 721.459 562.473 719.195C556.332 716.813 549.797 717.094 542.868 720.037ZM633.048 727.267C640.909 731.413 649.184 731.641 657.874 727.949C666.564 724.258 672.087 718.169 674.443 709.682C676.749 701.078 675.931 692.138 671.99 682.86C668.149 673.818 662.357 667.199 654.613 663.002C646.87 658.806 638.653 658.554 629.963 662.245C621.273 665.937 615.691 672.051 613.218 680.587C610.862 689.074 611.605 697.838 615.446 706.88C619.387 716.158 625.254 722.953 633.048 727.267ZM662.888 739.751C650.087 745.189 637.95 745.008 626.476 739.208C615.001 733.408 606.221 723.345 600.135 709.018C591.555 688.819 588.859 672.359 592.05 659.636C595.19 646.797 603.911 636.161 618.211 627.729C626.655 622.479 632.305 618.484 635.162 615.746C638.136 612.957 639.249 610.682 638.501 608.921L651.36 603.458C652.757 606.747 652.981 610.048 652.032 613.362C651.034 616.559 648.955 619.66 645.795 622.665C642.754 625.621 639.763 628.208 636.824 630.427C633.953 632.479 630.411 634.746 626.198 637.229C615.153 643.861 608.011 650.707 604.771 657.767C601.65 664.777 600.963 672.624 602.711 681.308C605.324 665.919 613.441 655.332 627.063 649.545C638.806 644.557 650.198 644.777 661.238 650.207C672.278 655.637 680.442 664.576 685.73 677.024C691.118 689.706 691.841 702.014 687.899 713.947C683.908 725.762 675.57 734.363 662.888 739.751Z" fill="black"/>
<mask id="path-69-outside-1_283_387" maskUnits="userSpaceOnUse" x="357.974" y="553.478" width="65.1611" height="39.7495" fill="black">
<rect fill="white" x="357.974" y="553.478" width="65.1611" height="39.7495"/>
<path d="M361.908 580.089L414.586 557.712L419.279 568.759L366.601 591.137L361.908 580.089Z"/>
</mask>
<path d="M361.908 580.089L414.586 557.712L419.279 568.759L366.601 591.137L361.908 580.089Z" fill="white"/>
<path d="M361.908 580.089L360.755 577.374L358.039 578.527L359.193 581.243L361.908 580.089ZM414.586 557.712L417.301 556.558L416.147 553.843L413.432 554.996L414.586 557.712ZM361.908 580.089L363.062 582.805L415.739 560.427L414.586 557.712L413.432 554.996L360.755 577.374L361.908 580.089ZM414.586 557.712L411.87 558.865L416.563 569.913L419.279 568.759L421.994 567.606L417.301 556.558L414.586 557.712ZM366.601 591.137L369.317 589.984L364.624 578.936L361.908 580.089L359.193 581.243L363.886 592.291L366.601 591.137Z" fill="black" mask="url(#path-69-outside-1_283_387)"/>
<mask id="path-71-outside-2_283_387" maskUnits="userSpaceOnUse" x="363.84" y="567.286" width="63.9882" height="36.9884" fill="black">
<rect fill="white" x="363.84" y="567.286" width="63.9882" height="36.9884"/>
<path d="M366.602 591.137L419.279 568.759L424.196 580.333L371.518 602.71L366.602 591.137Z"/>
</mask>
<path d="M366.602 591.137L419.279 568.759L424.196 580.333L371.518 602.71L366.602 591.137Z" fill="#0600B3"/>
<path d="M419.279 568.759L416.564 569.912L421.48 581.486L424.196 580.333L426.911 579.179L421.994 567.606L419.279 568.759ZM371.518 602.71L374.234 601.557L369.317 589.983L366.602 591.137L363.886 592.29L368.803 603.864L371.518 602.71Z" fill="black" mask="url(#path-71-outside-2_283_387)"/>
<mask id="path-73-outside-3_283_387" maskUnits="userSpaceOnUse" x="368.758" y="578.862" width="64.7702" height="38.8292" fill="black">
<rect fill="white" x="368.758" y="578.862" width="64.7702" height="38.8292"/>
<path d="M371.52 602.712L424.197 580.334L428.89 591.382L376.213 613.76L371.52 602.712Z"/>
</mask>
<path d="M371.52 602.712L424.197 580.334L428.89 591.382L376.213 613.76L371.52 602.712Z" fill="#BC0000"/>
<path d="M428.89 591.382L430.044 594.097L432.759 592.944L431.605 590.229L428.89 591.382ZM376.213 613.76L373.497 614.913L374.651 617.628L377.366 616.475L376.213 613.76ZM424.197 580.334L421.482 581.488L426.175 592.536L428.89 591.382L431.605 590.229L426.912 579.181L424.197 580.334ZM428.89 591.382L427.737 588.667L375.059 611.044L376.213 613.76L377.366 616.475L430.044 594.097L428.89 591.382ZM376.213 613.76L378.928 612.606L374.235 601.558L371.52 602.712L368.804 603.865L373.497 614.913L376.213 613.76Z" fill="black" mask="url(#path-73-outside-3_283_387)"/>
</svg>
