<svg width="1207" height="1265" viewBox="0 0 1207 1265" fill="none" xmlns="http://www.w3.org/2000/svg">
<rect x="-0.574971" y="1.73044" width="59.8268" height="116.969" rx="9.79932" transform="matrix(-0.893998 0.448071 0.448071 0.893998 939.772 811.786)" fill="#D9D9D9" stroke="black" stroke-width="2.57877"/>
<rect x="-0.574971" y="1.73044" width="83.1348" height="116.969" rx="9.79932" transform="matrix(-0.893998 0.448071 0.448071 0.893998 901.006 709.267)" fill="#D9D9D9" stroke="black" stroke-width="2.57877"/>
<rect x="-0.574971" y="1.73044" width="83.1348" height="116.969" rx="9.79932" transform="matrix(-0.893998 0.448071 0.448071 0.893998 901.006 709.267)" fill="#D9D9D9" stroke="black" stroke-width="2.57877"/>
<rect x="1.73044" y="0.574971" width="29.9398" height="58.5397" rx="9.79932" transform="matrix(0.448071 0.893998 0.893998 -0.448071 884.072 832.976)" fill="#828282" stroke="black" stroke-width="2.57877"/>
<rect x="1.73044" y="0.574971" width="59.8268" height="192.157" rx="9.79932" transform="matrix(0.448071 0.893998 0.893998 -0.448071 511.167 627.116)" fill="#D9D9D9" stroke="black" stroke-width="2.57877"/>
<rect x="0.0697467" y="-1.82213" width="59.8268" height="134.849" rx="9.79932" transform="matrix(0.733636 -0.679543 -0.679543 -0.733636 1045.3 517.381)" fill="#D9D9D9" stroke="black" stroke-width="2.57877"/>
<rect x="-0.574971" y="1.73044" width="59.8268" height="116.969" rx="9.79932" transform="matrix(-0.893998 0.448071 0.448071 0.893998 1085.71 468.673)" fill="#D9D9D9" stroke="black" stroke-width="2.57877"/>
<rect x="-0.574971" y="1.73044" width="59.8268" height="116.969" rx="9.79932" transform="matrix(-0.893998 0.448071 0.448071 0.893998 1084.29 739.354)" fill="#D9D9D9" stroke="black" stroke-width="2.57877"/>
<rect x="-0.574971" y="1.73044" width="83.1348" height="116.969" rx="9.79932" transform="matrix(-0.893998 0.448071 0.448071 0.893998 1044.51 634.819)" fill="#D9D9D9" stroke="black" stroke-width="2.57877"/>
<rect x="-0.574971" y="1.73044" width="83.1348" height="116.969" rx="9.79932" transform="matrix(-0.893998 0.448071 0.448071 0.893998 1044.51 634.819)" fill="#D9D9D9" stroke="black" stroke-width="2.57877"/>
<rect x="-1.73044" y="-0.574971" width="57.5711" height="116.969" rx="28.7856" transform="matrix(-0.448071 -0.893998 -0.893998 0.448071 1198.59 866.73)" fill="#D9D9D9" stroke="black" stroke-width="2.57877"/>
<rect x="-1.73044" y="-0.574971" width="57.5711" height="116.969" rx="28.7856" transform="matrix(-0.448071 -0.893998 -0.893998 0.448071 1023.83 954.323)" fill="#D9D9D9" stroke="black" stroke-width="2.57877"/>
<rect x="1.73044" y="0.574971" width="83.1348" height="274.111" rx="9.79932" transform="matrix(0.448071 0.893998 0.893998 -0.448071 803.134 733.091)" fill="#D9D9D9" stroke="black" stroke-width="2.57877"/>
<rect x="1.73044" y="0.574971" width="59.8268" height="38.7743" rx="9.79932" transform="matrix(0.448071 0.893998 0.893998 -0.448071 494.695 629.486)" fill="#D9D9D9" stroke="black" stroke-width="2.57877"/>
<rect x="0.574971" y="-1.73044" width="59.8268" height="38.7743" rx="9.79932" transform="matrix(0.893998 -0.448071 -0.448071 -0.893998 1091.38 621.899)" fill="#D9D9D9" stroke="black" stroke-width="2.57877"/>
<rect x="382.349" y="267.433" width="10" height="851.84" transform="rotate(-20 382.349 267.433)" fill="#545454"/>
<rect x="28.1363" y="413.37" width="406.309" height="273" transform="rotate(-20 28.1363 413.37)" fill="black"/>
<rect x="1.46665" y="-1.0835" width="30.5037" height="12.4587" rx="6.22935" transform="matrix(0.9889 0.14858 0.14858 -0.9889 503.261 619.902)" fill="#D9D9D9" stroke="black" stroke-width="2.57877"/>
<rect x="0.574971" y="-1.73044" width="26.7443" height="12.4587" rx="6.22935" transform="matrix(0.893998 -0.448071 -0.448071 -0.893998 500.623 651.383)" fill="#D9D9D9" stroke="black" stroke-width="2.57877"/>
<rect x="0.574971" y="-1.73044" width="26.7443" height="12.4587" rx="6.22935" transform="matrix(0.893998 -0.448071 -0.448071 -0.893998 508.371 666.842)" fill="#D9D9D9" stroke="black" stroke-width="2.57877"/>
<rect x="0.574971" y="-1.73044" width="26.7443" height="12.4587" rx="6.22935" transform="matrix(0.893998 -0.448071 -0.448071 -0.893998 516.119 682.303)" fill="#D9D9D9" stroke="black" stroke-width="2.57877"/>
<rect x="-0.574971" y="1.73044" width="59.8268" height="87.6461" rx="9.79932" transform="matrix(-0.893998 0.448071 0.448071 0.893998 984.411 373.947)" fill="#828282" stroke="black" stroke-width="2.57877"/>
<rect x="-1.81077" y="-0.21483" width="29.9398" height="58.5397" rx="9.79932" transform="matrix(-0.618875 -0.785489 -0.785489 0.618875 1093.36 484.449)" fill="#828282" stroke="black" stroke-width="2.57877"/>
<rect x="-0.574971" y="1.73044" width="29.9398" height="58.5397" rx="9.79932" transform="matrix(-0.893998 0.448071 0.448071 0.893998 610.362 577.4)" fill="#828282" stroke="black" stroke-width="2.57877"/>
<rect x="1.73044" y="0.574971" width="29.9398" height="58.5397" rx="9.79932" transform="matrix(0.448071 0.893998 0.893998 -0.448071 1028.59 760.544)" fill="#828282" stroke="black" stroke-width="2.57877"/>
<rect x="1.46665" y="-1.0835" width="4.93997" height="10.2031" rx="2.46998" transform="matrix(0.9889 0.14858 0.14858 -0.9889 512.405 619.756)" fill="#828282" stroke="black" stroke-width="2.57877"/>
<rect x="0.574971" y="-1.73044" width="4.93997" height="10.2031" rx="2.46998" transform="matrix(0.893998 -0.448071 -0.448071 -0.893998 499.949 650.039)" fill="#828282" stroke="black" stroke-width="2.57877"/>
<rect x="0.574971" y="-1.73044" width="4.93997" height="10.2031" rx="2.46998" transform="matrix(0.893998 -0.448071 -0.448071 -0.893998 507.697 665.499)" fill="#828282" stroke="black" stroke-width="2.57877"/>
<rect x="0.574971" y="-1.73044" width="4.93997" height="10.2031" rx="2.46998" transform="matrix(0.893998 -0.448071 -0.448071 -0.893998 515.447 680.959)" fill="#828282" stroke="black" stroke-width="2.57877"/>
<rect x="-0.574971" y="1.73044" width="59.8268" height="87.6461" rx="9.79932" transform="matrix(-0.893998 0.448071 0.448071 0.893998 704.786 514.095)" fill="#828282" stroke="black" stroke-width="2.57877"/>
<rect x="1.73044" y="0.574971" width="23.7368" height="116.969" rx="2.46999" transform="matrix(0.448071 0.893998 0.893998 -0.448071 1085.07 901.28)" fill="#D9D9D9" stroke="black" stroke-width="2.57877"/>
<rect x="1.73044" y="0.574971" width="23.7368" height="116.969" rx="2.46999" transform="matrix(0.448071 0.893998 0.893998 -0.448071 910.306 988.873)" fill="#D9D9D9" stroke="black" stroke-width="2.57877"/>
<rect x="-0.574971" y="1.73044" width="307.448" height="300.569" rx="9.79932" transform="matrix(-0.893998 0.448071 0.448071 0.893998 944.325 366.126)" fill="#D9D9D9" stroke="black" stroke-width="2.57877"/>
<circle cx="125.295" cy="125.295" r="124.006" transform="matrix(-0.893998 0.448071 0.448071 0.893998 795.627 131.809)" fill="#D9D9D9" stroke="black" stroke-width="2.57877"/>
<rect x="-0.574971" y="1.73044" width="243.049" height="52.5711" rx="9.79932" transform="matrix(-0.893998 0.448071 0.448071 0.893998 893.842 331.93)" fill="#D9D9D9" stroke="black" stroke-width="2.57877"/>
<path d="M688.664 230.562C639.536 255.185 614.059 307.898 634.709 349.099C655.359 390.3 712.836 401.436 761.965 376.813C811.093 352.19 836.57 299.478 815.92 258.276C795.27 217.075 737.792 205.939 688.664 230.562Z" fill="black" stroke="#868686" stroke-width="9.17239"/>
<path d="M706.685 261.672L708.066 274.149L699.492 283.319L711.97 281.939L721.14 290.512L719.759 278.035L728.332 268.865L715.855 270.245L706.685 261.672Z" fill="white"/>
<path d="M782.779 268.19L784.159 280.668L775.586 289.838L788.063 288.457L797.233 297.03L795.853 284.553L804.426 275.383L791.949 276.763L782.779 268.19Z" fill="white"/>
<path d="M738.568 305.904L739.315 312.649L734.68 317.605L741.425 316.859L746.382 321.493L745.635 314.749L750.27 309.792L743.525 310.538L738.568 305.904Z" fill="white"/>
<path d="M657.722 285.908L658.356 291.641L654.417 295.854L660.15 295.22L664.363 299.159L663.729 293.426L667.668 289.213L661.935 289.847L657.722 285.908Z" fill="white"/>
<path d="M729.429 359.098L730.063 364.831L726.124 369.044L731.857 368.41L736.07 372.349L735.436 366.616L739.375 362.403L733.642 363.037L729.429 359.098Z" fill="white"/>
<rect x="-0.574971" y="1.73044" width="56.8193" height="58.323" rx="9.79932" transform="matrix(-0.893998 0.448071 0.448071 0.893998 761.256 494.203)" fill="#B5B5B5" stroke="black" stroke-width="2.57877"/>
<rect x="-0.574971" y="1.73044" width="23.7368" height="23.7368" rx="9.79932" transform="matrix(-0.893998 0.448071 0.448071 0.893998 765.653 521.435)" fill="#3A3939" stroke="black" stroke-width="2.57877"/>
<rect x="1.61143" y="0.853415" width="36.5187" height="12.4587" rx="6.22935" transform="matrix(0.293945 0.955822 0.955822 -0.293945 1074.09 597.508)" fill="#D9D9D9" stroke="black" stroke-width="2.57877"/>
<rect x="1.73044" y="0.574971" width="46.293" height="12.4587" rx="6.22935" transform="matrix(0.448071 0.893998 0.893998 -0.448071 1127.15 597.608)" fill="#D9D9D9" stroke="black" stroke-width="2.57877"/>
<rect x="1.73044" y="0.574971" width="51.5561" height="12.4587" rx="6.22935" transform="matrix(0.448071 0.893998 0.893998 -0.448071 1110.34 606.03)" fill="#D9D9D9" stroke="black" stroke-width="2.57877"/>
<rect x="1.73044" y="0.574971" width="48.5486" height="12.4587" rx="6.22935" transform="matrix(0.448071 0.893998 0.893998 -0.448071 1093.54 614.453)" fill="#D9D9D9" stroke="black" stroke-width="2.57877"/>
<rect x="1.73044" y="0.574971" width="4.93997" height="10.2031" rx="2.46998" transform="matrix(0.448071 0.893998 0.893998 -0.448071 1139.61 619.116)" fill="#828282" stroke="black" stroke-width="2.57877"/>
<rect x="1.73044" y="0.574971" width="4.93997" height="10.2031" rx="2.46998" transform="matrix(0.448071 0.893998 0.893998 -0.448071 1122.8 627.539)" fill="#828282" stroke="black" stroke-width="2.57877"/>
<rect x="1.73044" y="0.574971" width="4.93997" height="10.2031" rx="2.46998" transform="matrix(0.448071 0.893998 0.893998 -0.448071 1106 635.961)" fill="#828282" stroke="black" stroke-width="2.57877"/>
<rect x="1.61137" y="0.853535" width="4.93997" height="10.2031" rx="2.46999" transform="matrix(0.293874 0.955844 0.955844 -0.293874 1078.91 609.925)" fill="#828282" stroke="black" stroke-width="2.57877"/>
<circle cx="7.89468" cy="7.89468" r="6.76686" transform="matrix(-0.893998 0.448071 0.448071 0.893998 733.89 517.663)" fill="#00F719" stroke="black" stroke-width="2.25562"/>
<circle cx="4.88718" cy="4.88718" r="4.15799" transform="matrix(-0.893998 0.448071 0.448071 0.893998 747.334 510.925)" fill="#F70000" stroke="black" stroke-width="1.45838"/>
<circle cx="4.88718" cy="4.88718" r="4.15799" transform="matrix(-0.893998 0.448071 0.448071 0.893998 759.433 504.861)" fill="#F70000" stroke="black" stroke-width="1.45838"/>
<line y1="-1.28946" x2="15.0375" y2="-1.28946" transform="matrix(-0.448071 -0.893998 -0.893998 0.448071 1188.84 878.358)" stroke="black" stroke-width="2.57893"/>
<line y1="-1.28946" x2="15.0375" y2="-1.28946" transform="matrix(-0.448071 -0.893998 -0.893998 0.448071 1175.4 885.096)" stroke="black" stroke-width="2.57893"/>
<line y1="-1.28946" x2="15.0375" y2="-1.28946" transform="matrix(-0.448071 -0.893998 -0.893998 0.448071 1161.96 891.833)" stroke="black" stroke-width="2.57893"/>
<line y1="-1.28946" x2="15.0375" y2="-1.28946" transform="matrix(-0.448071 -0.893998 -0.893998 0.448071 1148.51 898.572)" stroke="black" stroke-width="2.57893"/>
<line y1="-1.28946" x2="15.0375" y2="-1.28946" transform="matrix(-0.448071 -0.893998 -0.893998 0.448071 1135.07 905.31)" stroke="black" stroke-width="2.57893"/>
<line y1="-1.28946" x2="15.0375" y2="-1.28946" transform="matrix(-0.448071 -0.893998 -0.893998 0.448071 1122.3 911.71)" stroke="black" stroke-width="2.57893"/>
<line y1="-1.28946" x2="15.0375" y2="-1.28946" transform="matrix(-0.448071 -0.893998 -0.893998 0.448071 1109.53 918.111)" stroke="black" stroke-width="2.57893"/>
<line y1="-1.28946" x2="15.0375" y2="-1.28946" transform="matrix(-0.448071 -0.893998 -0.893998 0.448071 1013.41 964.605)" stroke="black" stroke-width="2.57893"/>
<line y1="-1.28946" x2="15.0375" y2="-1.28946" transform="matrix(-0.448071 -0.893998 -0.893998 0.448071 999.963 971.344)" stroke="black" stroke-width="2.57893"/>
<line y1="-1.28946" x2="15.0375" y2="-1.28946" transform="matrix(-0.448071 -0.893998 -0.893998 0.448071 986.519 978.082)" stroke="black" stroke-width="2.57893"/>
<line y1="-1.28946" x2="15.0375" y2="-1.28946" transform="matrix(-0.448071 -0.893998 -0.893998 0.448071 973.076 984.819)" stroke="black" stroke-width="2.57893"/>
<line y1="-1.28946" x2="15.0375" y2="-1.28946" transform="matrix(-0.448071 -0.893998 -0.893998 0.448071 959.63 991.557)" stroke="black" stroke-width="2.57893"/>
<line y1="-1.28946" x2="15.0375" y2="-1.28946" transform="matrix(-0.448071 -0.893998 -0.893998 0.448071 946.859 997.958)" stroke="black" stroke-width="2.57893"/>
<line y1="-1.28946" x2="15.0375" y2="-1.28946" transform="matrix(-0.448071 -0.893998 -0.893998 0.448071 934.088 1004.36)" stroke="black" stroke-width="2.57893"/>
<path d="M879.939 664.389L839.624 684.595L795.291 596.141L834.677 576.4C842.281 572.59 849.334 571.654 855.837 573.594C862.428 575.489 867.408 579.796 870.776 586.516C873.434 591.82 874.191 597.082 873.046 602.302C871.857 607.433 869.318 611.527 865.429 614.582C870.469 612.941 875.733 613.4 881.219 615.96C886.794 618.476 890.911 622.386 893.57 627.69C897.159 634.851 897.763 641.794 895.381 648.519C893.043 655.111 887.896 660.401 879.939 664.389ZM852.03 615.656C856.892 613.219 859.985 610.01 861.308 606.028C862.631 602.047 862.251 597.978 860.168 593.823C858.086 589.668 855.009 586.951 850.939 585.672C846.913 584.261 842.513 584.752 837.739 587.144L811.216 600.438L825.507 628.95L852.03 615.656ZM872.766 655.705C877.894 653.135 881.23 649.749 882.773 645.546C884.317 641.343 883.915 636.899 881.567 632.213C879.395 627.881 876.12 624.987 871.74 623.532C867.449 622.032 862.695 622.59 857.479 625.204L830.425 638.763L845.713 669.265L872.766 655.705ZM923.867 620.635C927.054 622.578 930.902 623.636 935.413 623.809C940.013 623.937 944.214 623.048 948.015 621.143C954.381 617.952 958.268 613.128 959.677 606.67C961.086 600.211 959.974 593.357 956.34 586.108C952.707 578.858 947.881 573.865 941.864 571.129C935.802 568.304 929.589 568.487 923.223 571.678C919.422 573.583 916.218 576.461 913.612 580.311C911.051 584.028 909.617 587.789 909.311 591.593L923.867 620.635ZM932.575 638.008L922.628 642.993L878.295 554.539L888.241 549.554L905.323 583.636C907.126 573.329 912.449 565.961 921.29 561.53C929.689 557.32 938.091 556.98 946.498 560.51C954.86 563.952 961.589 570.756 966.684 580.923C971.824 591.179 973.271 600.686 971.024 609.445C968.821 618.071 963.476 624.511 954.988 628.765C946.059 633.241 936.992 633.139 927.789 628.46L932.575 638.008Z" fill="black"/>
<rect x="0.513736" y="-1.54615" width="47.0042" height="30.8753" transform="matrix(-0.893998 0.448071 0.448071 0.893998 936.111 408.989)" fill="#D9D9D9" stroke="black" stroke-width="2.30413"/>
<rect width="19.3547" height="14.2856" transform="matrix(-0.893998 0.448071 0.448071 0.893998 934.445 409.383)" fill="#000674"/>
<path d="M933.004 411.652L933.154 412.645L932.257 413.095L933.248 413.259L933.398 414.252L933.86 413.36L934.851 413.523L934.145 412.808L934.607 411.917L933.709 412.367L933.004 411.652Z" fill="white"/>
<path d="M929.297 413.51L929.447 414.503L928.549 414.953L929.54 415.117L929.691 416.11L930.153 415.218L931.144 415.382L930.438 414.667L930.9 413.775L930.002 414.225L929.297 413.51Z" fill="white"/>
<path d="M925.588 415.368L925.738 416.362L924.841 416.812L925.832 416.975L925.982 417.968L926.444 417.076L927.435 417.24L926.729 416.525L927.191 415.633L926.293 416.083L925.588 415.368Z" fill="white"/>
<path d="M921.881 417.227L922.031 418.22L921.133 418.67L922.124 418.834L922.275 419.827L922.737 418.935L923.728 419.099L923.022 418.384L923.484 417.492L922.586 417.942L921.881 417.227Z" fill="white"/>
<path d="M933.004 411.652L933.154 412.645L932.257 413.095L933.248 413.259L933.398 414.252L933.86 413.36L934.851 413.523L934.145 412.808L934.607 411.917L933.709 412.367L933.004 411.652Z" fill="white"/>
<path d="M929.297 413.51L929.447 414.503L928.549 414.953L929.54 415.117L929.691 416.11L930.153 415.218L931.144 415.382L930.438 414.667L930.9 413.775L930.002 414.225L929.297 413.51Z" fill="white"/>
<path d="M925.588 415.368L925.738 416.362L924.841 416.812L925.832 416.975L925.982 417.968L926.444 417.076L927.435 417.24L926.729 416.525L927.191 415.633L926.293 416.083L925.588 415.368Z" fill="white"/>
<path d="M921.881 417.227L922.031 418.22L921.133 418.67L922.124 418.834L922.275 419.827L922.737 418.935L923.728 419.099L923.022 418.384L923.484 417.492L922.586 417.942L921.881 417.227Z" fill="white"/>
<path d="M932.596 414.949L932.746 415.942L931.848 416.392L932.839 416.555L932.99 417.548L933.452 416.657L934.443 416.82L933.737 416.105L934.199 415.213L933.301 415.663L932.596 414.949Z" fill="white"/>
<path d="M928.475 417.013L928.625 418.006L927.727 418.456L928.718 418.62L928.869 419.613L929.331 418.721L930.322 418.885L929.616 418.17L930.078 417.278L929.18 417.728L928.475 417.013Z" fill="white"/>
<path d="M924.768 418.872L924.918 419.865L924.02 420.315L925.011 420.479L925.162 421.472L925.624 420.58L926.615 420.744L925.909 420.029L926.371 419.137L925.473 419.587L924.768 418.872Z" fill="white"/>
<path d="M921.061 420.73L921.211 421.723L920.313 422.173L921.304 422.337L921.455 423.33L921.917 422.438L922.908 422.602L922.202 421.887L922.664 420.995L921.766 421.445L921.061 420.73Z" fill="white"/>
<path d="M935.482 416.595L935.633 417.588L934.735 418.038L935.726 418.202L935.877 419.195L936.339 418.303L937.33 418.467L936.624 417.752L937.086 416.86L936.188 417.31L935.482 416.595Z" fill="white"/>
<path d="M931.775 418.453L931.926 419.447L931.028 419.897L932.019 420.06L932.17 421.053L932.631 420.161L933.622 420.325L932.917 419.61L933.379 418.718L932.481 419.168L931.775 418.453Z" fill="white"/>
<path d="M928.066 420.312L928.217 421.305L927.319 421.755L928.31 421.919L928.461 422.912L928.922 422.02L929.913 422.184L929.208 421.469L929.67 420.577L928.772 421.027L928.066 420.312Z" fill="white"/>
<path d="M924.359 422.17L924.51 423.163L923.612 423.613L924.603 423.777L924.754 424.77L925.215 423.878L926.206 424.041L925.501 423.327L925.963 422.435L925.065 422.885L924.359 422.17Z" fill="white"/>
<path d="M935.072 419.893L935.223 420.886L934.325 421.336L935.316 421.5L935.466 422.493L935.928 421.601L936.919 421.765L936.214 421.05L936.676 420.158L935.778 420.608L935.072 419.893Z" fill="white"/>
<path d="M930.953 421.957L931.104 422.95L930.206 423.4L931.197 423.564L931.347 424.557L931.809 423.665L932.8 423.829L932.095 423.114L932.557 422.222L931.659 422.672L930.953 421.957Z" fill="white"/>
<path d="M927.246 423.815L927.397 424.808L926.499 425.258L927.49 425.422L927.64 426.415L928.102 425.523L929.093 425.687L928.388 424.972L928.85 424.08L927.952 424.53L927.246 423.815Z" fill="white"/>
<path d="M923.537 425.674L923.688 426.667L922.79 427.117L923.781 427.28L923.931 428.274L924.393 427.382L925.384 427.545L924.679 426.83L925.141 425.939L924.243 426.389L923.537 425.674Z" fill="white"/>
<rect width="44.7001" height="1.38248" transform="matrix(-0.893998 0.448071 0.448071 0.893998 946.627 433.689)" fill="#FF0000"/>
<rect width="44.7001" height="2.76496" transform="matrix(-0.893998 0.448071 0.448071 0.893998 944.769 429.982)" fill="#FF0000"/>
<rect width="44.7001" height="2.76496" transform="matrix(-0.893998 0.448071 0.448071 0.893998 943.529 427.509)" fill="white"/>
<rect width="25.3454" height="2.76496" transform="matrix(-0.893998 0.448071 0.448071 0.893998 922.304 428.354)" fill="#FF0000"/>
<rect width="25.3454" height="2.76496" transform="matrix(-0.893998 0.448071 0.448071 0.893998 921.064 425.882)" fill="white"/>
<rect width="25.3454" height="2.76496" transform="matrix(-0.893998 0.448071 0.448071 0.893998 917.142 418.055)" fill="#FF0000"/>
<rect width="25.3454" height="2.76496" transform="matrix(-0.893998 0.448071 0.448071 0.893998 919.826 423.411)" fill="#FE0000"/>
<rect width="25.3454" height="3.22578" transform="matrix(-0.893998 0.448071 0.448071 0.893998 918.38 420.526)" fill="white"/>
<rect x="942.291" y="425.038" width="44.7001" height="3.22578" transform="rotate(153.38 942.291 425.038)" fill="white"/>
<rect width="44.7001" height="3.68661" transform="matrix(-0.893998 0.448071 0.448071 0.893998 941.879 424.214)" fill="#FF0000"/>
<rect width="44.7001" height="1.38248" transform="matrix(-0.893998 0.448071 0.448071 0.893998 946.007 432.453)" fill="white"/>
</svg>
